G04 #@! TF.FileFunction,Legend,Bot*
%FSLAX46Y46*%
G04 Gerber Fmt 4.6, Leading zero omitted, Abs format (unit mm)*
G04 Created by KiCad (PCBNEW (after 2015-mar-04 BZR unknown)-product) date Mon 31 Oct 2016 03:55:16 PM CET*
%MOMM*%
G01*
G04 APERTURE LIST*
%ADD10C,0.100000*%
%ADD11C,0.300000*%
%ADD12C,0.150000*%
G04 APERTURE END LIST*
D10*
D11*
X122732678Y-80463571D02*
X122920178Y-81963571D01*
X122741607Y-80535000D02*
X122589821Y-80463571D01*
X122304107Y-80463571D01*
X122170179Y-80535000D01*
X122107679Y-80606429D01*
X122054107Y-80749286D01*
X122107678Y-81177857D01*
X122196964Y-81320714D01*
X122277322Y-81392143D01*
X122429107Y-81463571D01*
X122714821Y-81463571D01*
X122848750Y-81392143D01*
X120857678Y-81463571D02*
X120759464Y-80677857D01*
X120813036Y-80535000D01*
X120946964Y-80463571D01*
X121232678Y-80463571D01*
X121384464Y-80535000D01*
X120848750Y-81392143D02*
X121000535Y-81463571D01*
X121357678Y-81463571D01*
X121491607Y-81392143D01*
X121545179Y-81249286D01*
X121527322Y-81106429D01*
X121438035Y-80963571D01*
X121286250Y-80892143D01*
X120929107Y-80892143D01*
X120777321Y-80820714D01*
X120098749Y-79963571D02*
X119170178Y-79963571D01*
X119741607Y-80535000D01*
X119527321Y-80535000D01*
X119393393Y-80606429D01*
X119330892Y-80677857D01*
X119277321Y-80820714D01*
X119321964Y-81177857D01*
X119411249Y-81320714D01*
X119491607Y-81392143D01*
X119643392Y-81463571D01*
X120071964Y-81463571D01*
X120205893Y-81392143D01*
X120268392Y-81320714D01*
X117946964Y-80463571D02*
X118098750Y-81677857D01*
X118188036Y-81820714D01*
X118268393Y-81892143D01*
X118420178Y-81963571D01*
X118634464Y-81963571D01*
X118768393Y-81892143D01*
X118063036Y-81392143D02*
X118214821Y-81463571D01*
X118500535Y-81463571D01*
X118634465Y-81392143D01*
X118696964Y-81320714D01*
X118750536Y-81177857D01*
X118696965Y-80749286D01*
X118607679Y-80606429D01*
X118527322Y-80535000D01*
X118375535Y-80463571D01*
X118089821Y-80463571D01*
X117955893Y-80535000D01*
X117375535Y-80463571D02*
X117143392Y-81463571D01*
X116661250Y-80463571D02*
X117143392Y-81463571D01*
X117330893Y-81820714D01*
X117411250Y-81892143D01*
X117563035Y-81963571D01*
X116304107Y-80463571D02*
X115732678Y-80463571D01*
X116214821Y-81463571D02*
X116054107Y-80177857D01*
X115964822Y-80035000D01*
X115813035Y-79963571D01*
X115670178Y-79963571D01*
X127036249Y-83863571D02*
X127170179Y-83792143D01*
X127232678Y-83720714D01*
X127286250Y-83577857D01*
X127232679Y-83149286D01*
X127143393Y-83006429D01*
X127063036Y-82935000D01*
X126911249Y-82863571D01*
X126696964Y-82863571D01*
X126563036Y-82935000D01*
X126500536Y-83006429D01*
X126446964Y-83149286D01*
X126500535Y-83577857D01*
X126589821Y-83720714D01*
X126670179Y-83792143D01*
X126821964Y-83863571D01*
X127036249Y-83863571D01*
X125241607Y-83792143D02*
X125393392Y-83863571D01*
X125679106Y-83863571D01*
X125813036Y-83792143D01*
X125875535Y-83720714D01*
X125929107Y-83577857D01*
X125875536Y-83149286D01*
X125786250Y-83006429D01*
X125705893Y-82935000D01*
X125554106Y-82863571D01*
X125268392Y-82863571D01*
X125134464Y-82935000D01*
X124750535Y-83863571D02*
X123839821Y-82863571D01*
X124625535Y-82863571D02*
X123964821Y-83863571D01*
X123179106Y-83863571D02*
X123313036Y-83792143D01*
X123375535Y-83720714D01*
X123429107Y-83577857D01*
X123375536Y-83149286D01*
X123286250Y-83006429D01*
X123205893Y-82935000D01*
X123054106Y-82863571D01*
X122839821Y-82863571D01*
X122705893Y-82935000D01*
X122643393Y-83006429D01*
X122589821Y-83149286D01*
X122643392Y-83577857D01*
X122732678Y-83720714D01*
X122813036Y-83792143D01*
X122964821Y-83863571D01*
X123179106Y-83863571D01*
X120893392Y-83863571D02*
X120768392Y-82863571D01*
X120705892Y-82363571D02*
X120786250Y-82435000D01*
X120723750Y-82506429D01*
X120643393Y-82435000D01*
X120705892Y-82363571D01*
X120723750Y-82506429D01*
X120054106Y-82863571D02*
X120179106Y-83863571D01*
X120071964Y-83006429D02*
X119991607Y-82935000D01*
X119839820Y-82863571D01*
X119625535Y-82863571D01*
X119491607Y-82935000D01*
X119438035Y-83077857D01*
X119536249Y-83863571D01*
X118911249Y-82863571D02*
X118339820Y-82863571D01*
X118634463Y-82363571D02*
X118795178Y-83649286D01*
X118741607Y-83792143D01*
X118607677Y-83863571D01*
X118464820Y-83863571D01*
X117384464Y-83792143D02*
X117536249Y-83863571D01*
X117821963Y-83863571D01*
X117955892Y-83792143D01*
X118009464Y-83649286D01*
X117938035Y-83077857D01*
X117848749Y-82935000D01*
X117696963Y-82863571D01*
X117411249Y-82863571D01*
X117277321Y-82935000D01*
X117223749Y-83077857D01*
X117241606Y-83220714D01*
X117973749Y-83363571D01*
X116679106Y-83863571D02*
X116554106Y-82863571D01*
X116589821Y-83149286D02*
X116500536Y-83006429D01*
X116420178Y-82935000D01*
X116268392Y-82863571D01*
X116125535Y-82863571D01*
X115839821Y-82863571D02*
X115268392Y-82863571D01*
X115750535Y-83863571D02*
X115589821Y-82577857D01*
X115500536Y-82435000D01*
X115348749Y-82363571D01*
X115205892Y-82363571D01*
X114250535Y-83863571D02*
X114152321Y-83077857D01*
X114205893Y-82935000D01*
X114339821Y-82863571D01*
X114625535Y-82863571D01*
X114777321Y-82935000D01*
X114241607Y-83792143D02*
X114393392Y-83863571D01*
X114750535Y-83863571D01*
X114884464Y-83792143D01*
X114938036Y-83649286D01*
X114920179Y-83506429D01*
X114830892Y-83363571D01*
X114679107Y-83292143D01*
X114321964Y-83292143D01*
X114170178Y-83220714D01*
X112884464Y-83792143D02*
X113036249Y-83863571D01*
X113321963Y-83863571D01*
X113455893Y-83792143D01*
X113518392Y-83720714D01*
X113571964Y-83577857D01*
X113518393Y-83149286D01*
X113429107Y-83006429D01*
X113348750Y-82935000D01*
X113196963Y-82863571D01*
X112911249Y-82863571D01*
X112777321Y-82935000D01*
X111670179Y-83792143D02*
X111821964Y-83863571D01*
X112107678Y-83863571D01*
X112241607Y-83792143D01*
X112295179Y-83649286D01*
X112223750Y-83077857D01*
X112134464Y-82935000D01*
X111982678Y-82863571D01*
X111696964Y-82863571D01*
X111563036Y-82935000D01*
X111509464Y-83077857D01*
X111527321Y-83220714D01*
X112259464Y-83363571D01*
X120411249Y-85263571D02*
X120179106Y-86263571D01*
X119696964Y-85263571D01*
X118464821Y-86263571D02*
X119321964Y-86263571D01*
X118893392Y-86263571D02*
X118705892Y-84763571D01*
X118875535Y-84977857D01*
X119036250Y-85120714D01*
X119188036Y-85192143D01*
D10*
X50165000Y-114935000D02*
X50165000Y-50165000D01*
X174625000Y-114935000D02*
X50165000Y-114935000D01*
X174625000Y-50165000D02*
X174625000Y-114935000D01*
X50165000Y-50165000D02*
X174625000Y-50165000D01*
D12*
X161710000Y-91940000D02*
X161710000Y-90940000D01*
X163410000Y-90940000D02*
X163410000Y-91940000D01*
X131945000Y-104990000D02*
X130945000Y-104990000D01*
X130945000Y-103290000D02*
X131945000Y-103290000D01*
X85965000Y-90770000D02*
X85965000Y-89570000D01*
X84215000Y-89570000D02*
X84215000Y-90770000D01*
X91045000Y-70450000D02*
X91045000Y-69250000D01*
X89295000Y-69250000D02*
X89295000Y-70450000D01*
X89320000Y-90670000D02*
X89320000Y-89670000D01*
X91020000Y-89670000D02*
X91020000Y-90670000D01*
X84240000Y-70350000D02*
X84240000Y-69350000D01*
X85940000Y-69350000D02*
X85940000Y-70350000D01*
X69635000Y-90670000D02*
X69635000Y-89670000D01*
X71335000Y-89670000D02*
X71335000Y-90670000D01*
X69635000Y-70350000D02*
X69635000Y-69350000D01*
X71335000Y-69350000D02*
X71335000Y-70350000D01*
X110275000Y-69715000D02*
X110275000Y-68715000D01*
X111975000Y-68715000D02*
X111975000Y-69715000D01*
X77605000Y-88050000D02*
X78605000Y-88050000D01*
X78605000Y-89750000D02*
X77605000Y-89750000D01*
X77605000Y-67730000D02*
X78605000Y-67730000D01*
X78605000Y-69430000D02*
X77605000Y-69430000D01*
X93980000Y-90170000D02*
X93980000Y-72390000D01*
X93980000Y-72390000D02*
X96520000Y-72390000D01*
X96520000Y-72390000D02*
X96520000Y-90170000D01*
X93700000Y-92990000D02*
X93700000Y-91440000D01*
X93980000Y-90170000D02*
X96520000Y-90170000D01*
X96800000Y-91440000D02*
X96800000Y-92990000D01*
X96800000Y-92990000D02*
X93700000Y-92990000D01*
X60995000Y-103745000D02*
X62195000Y-103745000D01*
X62195000Y-101995000D02*
X60995000Y-101995000D01*
X62470000Y-97755000D02*
X62470000Y-96555000D01*
X60720000Y-96555000D02*
X60720000Y-97755000D01*
X54645000Y-96760000D02*
X55845000Y-96760000D01*
X55845000Y-95010000D02*
X54645000Y-95010000D01*
X55845000Y-78500000D02*
X54645000Y-78500000D01*
X54645000Y-80250000D02*
X55845000Y-80250000D01*
X60995000Y-80250000D02*
X62195000Y-80250000D01*
X62195000Y-78500000D02*
X60995000Y-78500000D01*
X54850000Y-74260000D02*
X54850000Y-73060000D01*
X53100000Y-73060000D02*
X53100000Y-74260000D01*
X63740000Y-74260000D02*
X63740000Y-73060000D01*
X61990000Y-73060000D02*
X61990000Y-74260000D01*
X55845000Y-67070000D02*
X54645000Y-67070000D01*
X54645000Y-68820000D02*
X55845000Y-68820000D01*
X60995000Y-68820000D02*
X62195000Y-68820000D01*
X62195000Y-67070000D02*
X60995000Y-67070000D01*
X57329605Y-91440000D02*
G75*
G03X57329605Y-91440000I-179605J0D01*
G01*
X60579000Y-84963000D02*
X60579000Y-85217000D01*
X54991000Y-84963000D02*
X54991000Y-85217000D01*
X54991000Y-84963000D02*
X60579000Y-84963000D01*
X54991000Y-92837000D02*
X54991000Y-92583000D01*
X60579000Y-92837000D02*
X60579000Y-92583000D01*
X54991000Y-92837000D02*
X60579000Y-92837000D01*
X76800000Y-75325000D02*
X75600000Y-75325000D01*
X75600000Y-77075000D02*
X76800000Y-77075000D01*
X99275000Y-84590000D02*
X99275000Y-85590000D01*
X97575000Y-85590000D02*
X97575000Y-84590000D01*
D10*
X95097600Y-89713600D02*
X95402400Y-89713600D01*
X95097600Y-88086400D02*
X95402400Y-88086400D01*
X95402400Y-89713600D02*
G75*
G03X95402400Y-88086400I0J813600D01*
G01*
X95097600Y-88086400D02*
G75*
G03X95097600Y-89713600I0J-813600D01*
G01*
X95097600Y-87173600D02*
X95402400Y-87173600D01*
X95097600Y-85546400D02*
X95402400Y-85546400D01*
X95402400Y-87173600D02*
G75*
G03X95402400Y-85546400I0J813600D01*
G01*
X95097600Y-85546400D02*
G75*
G03X95097600Y-87173600I0J-813600D01*
G01*
X95097600Y-84633600D02*
X95402400Y-84633600D01*
X95097600Y-83006400D02*
X95402400Y-83006400D01*
X95402400Y-84633600D02*
G75*
G03X95402400Y-83006400I0J813600D01*
G01*
X95097600Y-83006400D02*
G75*
G03X95097600Y-84633600I0J-813600D01*
G01*
X95097600Y-82093600D02*
X95402400Y-82093600D01*
X95097600Y-80466400D02*
X95402400Y-80466400D01*
X95402400Y-82093600D02*
G75*
G03X95402400Y-80466400I0J813600D01*
G01*
X95097600Y-80466400D02*
G75*
G03X95097600Y-82093600I0J-813600D01*
G01*
X95097600Y-79553600D02*
X95402400Y-79553600D01*
X95097600Y-77926400D02*
X95402400Y-77926400D01*
X95402400Y-79553600D02*
G75*
G03X95402400Y-77926400I0J813600D01*
G01*
X95097600Y-77926400D02*
G75*
G03X95097600Y-79553600I0J-813600D01*
G01*
X95097600Y-77013600D02*
X95402400Y-77013600D01*
X95097600Y-75386400D02*
X95402400Y-75386400D01*
X95402400Y-77013600D02*
G75*
G03X95402400Y-75386400I0J813600D01*
G01*
X95097600Y-75386400D02*
G75*
G03X95097600Y-77013600I0J-813600D01*
G01*
X95097600Y-74473600D02*
X95402400Y-74473600D01*
X95097600Y-72846400D02*
X95402400Y-72846400D01*
X95402400Y-74473600D02*
G75*
G03X95402400Y-72846400I0J813600D01*
G01*
X95097600Y-72846400D02*
G75*
G03X95097600Y-74473600I0J-813600D01*
G01*
D12*
X160817143Y-91273334D02*
X160864762Y-91225715D01*
X160912381Y-91082858D01*
X160912381Y-90987620D01*
X160864762Y-90844762D01*
X160769524Y-90749524D01*
X160674286Y-90701905D01*
X160483810Y-90654286D01*
X160340952Y-90654286D01*
X160150476Y-90701905D01*
X160055238Y-90749524D01*
X159960000Y-90844762D01*
X159912381Y-90987620D01*
X159912381Y-91082858D01*
X159960000Y-91225715D01*
X160007619Y-91273334D01*
X160912381Y-92225715D02*
X160912381Y-91654286D01*
X160912381Y-91940000D02*
X159912381Y-91940000D01*
X160055238Y-91844762D01*
X160150476Y-91749524D01*
X160198095Y-91654286D01*
X131611666Y-106597143D02*
X131659285Y-106644762D01*
X131802142Y-106692381D01*
X131897380Y-106692381D01*
X132040238Y-106644762D01*
X132135476Y-106549524D01*
X132183095Y-106454286D01*
X132230714Y-106263810D01*
X132230714Y-106120952D01*
X132183095Y-105930476D01*
X132135476Y-105835238D01*
X132040238Y-105740000D01*
X131897380Y-105692381D01*
X131802142Y-105692381D01*
X131659285Y-105740000D01*
X131611666Y-105787619D01*
X131230714Y-105787619D02*
X131183095Y-105740000D01*
X131087857Y-105692381D01*
X130849761Y-105692381D01*
X130754523Y-105740000D01*
X130706904Y-105787619D01*
X130659285Y-105882857D01*
X130659285Y-105978095D01*
X130706904Y-106120952D01*
X131278333Y-106692381D01*
X130659285Y-106692381D01*
X83347143Y-90003334D02*
X83394762Y-89955715D01*
X83442381Y-89812858D01*
X83442381Y-89717620D01*
X83394762Y-89574762D01*
X83299524Y-89479524D01*
X83204286Y-89431905D01*
X83013810Y-89384286D01*
X82870952Y-89384286D01*
X82680476Y-89431905D01*
X82585238Y-89479524D01*
X82490000Y-89574762D01*
X82442381Y-89717620D01*
X82442381Y-89812858D01*
X82490000Y-89955715D01*
X82537619Y-90003334D01*
X82442381Y-90336667D02*
X82442381Y-90955715D01*
X82823333Y-90622381D01*
X82823333Y-90765239D01*
X82870952Y-90860477D01*
X82918571Y-90908096D01*
X83013810Y-90955715D01*
X83251905Y-90955715D01*
X83347143Y-90908096D01*
X83394762Y-90860477D01*
X83442381Y-90765239D01*
X83442381Y-90479524D01*
X83394762Y-90384286D01*
X83347143Y-90336667D01*
X88427143Y-69683334D02*
X88474762Y-69635715D01*
X88522381Y-69492858D01*
X88522381Y-69397620D01*
X88474762Y-69254762D01*
X88379524Y-69159524D01*
X88284286Y-69111905D01*
X88093810Y-69064286D01*
X87950952Y-69064286D01*
X87760476Y-69111905D01*
X87665238Y-69159524D01*
X87570000Y-69254762D01*
X87522381Y-69397620D01*
X87522381Y-69492858D01*
X87570000Y-69635715D01*
X87617619Y-69683334D01*
X87855714Y-70540477D02*
X88522381Y-70540477D01*
X87474762Y-70302381D02*
X88189048Y-70064286D01*
X88189048Y-70683334D01*
X88427143Y-90003334D02*
X88474762Y-89955715D01*
X88522381Y-89812858D01*
X88522381Y-89717620D01*
X88474762Y-89574762D01*
X88379524Y-89479524D01*
X88284286Y-89431905D01*
X88093810Y-89384286D01*
X87950952Y-89384286D01*
X87760476Y-89431905D01*
X87665238Y-89479524D01*
X87570000Y-89574762D01*
X87522381Y-89717620D01*
X87522381Y-89812858D01*
X87570000Y-89955715D01*
X87617619Y-90003334D01*
X87522381Y-90908096D02*
X87522381Y-90431905D01*
X87998571Y-90384286D01*
X87950952Y-90431905D01*
X87903333Y-90527143D01*
X87903333Y-90765239D01*
X87950952Y-90860477D01*
X87998571Y-90908096D01*
X88093810Y-90955715D01*
X88331905Y-90955715D01*
X88427143Y-90908096D01*
X88474762Y-90860477D01*
X88522381Y-90765239D01*
X88522381Y-90527143D01*
X88474762Y-90431905D01*
X88427143Y-90384286D01*
X83347143Y-69683334D02*
X83394762Y-69635715D01*
X83442381Y-69492858D01*
X83442381Y-69397620D01*
X83394762Y-69254762D01*
X83299524Y-69159524D01*
X83204286Y-69111905D01*
X83013810Y-69064286D01*
X82870952Y-69064286D01*
X82680476Y-69111905D01*
X82585238Y-69159524D01*
X82490000Y-69254762D01*
X82442381Y-69397620D01*
X82442381Y-69492858D01*
X82490000Y-69635715D01*
X82537619Y-69683334D01*
X82442381Y-70540477D02*
X82442381Y-70350000D01*
X82490000Y-70254762D01*
X82537619Y-70207143D01*
X82680476Y-70111905D01*
X82870952Y-70064286D01*
X83251905Y-70064286D01*
X83347143Y-70111905D01*
X83394762Y-70159524D01*
X83442381Y-70254762D01*
X83442381Y-70445239D01*
X83394762Y-70540477D01*
X83347143Y-70588096D01*
X83251905Y-70635715D01*
X83013810Y-70635715D01*
X82918571Y-70588096D01*
X82870952Y-70540477D01*
X82823333Y-70445239D01*
X82823333Y-70254762D01*
X82870952Y-70159524D01*
X82918571Y-70111905D01*
X83013810Y-70064286D01*
X68742143Y-90003334D02*
X68789762Y-89955715D01*
X68837381Y-89812858D01*
X68837381Y-89717620D01*
X68789762Y-89574762D01*
X68694524Y-89479524D01*
X68599286Y-89431905D01*
X68408810Y-89384286D01*
X68265952Y-89384286D01*
X68075476Y-89431905D01*
X67980238Y-89479524D01*
X67885000Y-89574762D01*
X67837381Y-89717620D01*
X67837381Y-89812858D01*
X67885000Y-89955715D01*
X67932619Y-90003334D01*
X67837381Y-90336667D02*
X67837381Y-91003334D01*
X68837381Y-90574762D01*
X68742143Y-69683334D02*
X68789762Y-69635715D01*
X68837381Y-69492858D01*
X68837381Y-69397620D01*
X68789762Y-69254762D01*
X68694524Y-69159524D01*
X68599286Y-69111905D01*
X68408810Y-69064286D01*
X68265952Y-69064286D01*
X68075476Y-69111905D01*
X67980238Y-69159524D01*
X67885000Y-69254762D01*
X67837381Y-69397620D01*
X67837381Y-69492858D01*
X67885000Y-69635715D01*
X67932619Y-69683334D01*
X68265952Y-70254762D02*
X68218333Y-70159524D01*
X68170714Y-70111905D01*
X68075476Y-70064286D01*
X68027857Y-70064286D01*
X67932619Y-70111905D01*
X67885000Y-70159524D01*
X67837381Y-70254762D01*
X67837381Y-70445239D01*
X67885000Y-70540477D01*
X67932619Y-70588096D01*
X68027857Y-70635715D01*
X68075476Y-70635715D01*
X68170714Y-70588096D01*
X68218333Y-70540477D01*
X68265952Y-70445239D01*
X68265952Y-70254762D01*
X68313571Y-70159524D01*
X68361190Y-70111905D01*
X68456429Y-70064286D01*
X68646905Y-70064286D01*
X68742143Y-70111905D01*
X68789762Y-70159524D01*
X68837381Y-70254762D01*
X68837381Y-70445239D01*
X68789762Y-70540477D01*
X68742143Y-70588096D01*
X68646905Y-70635715D01*
X68456429Y-70635715D01*
X68361190Y-70588096D01*
X68313571Y-70540477D01*
X68265952Y-70445239D01*
X109382143Y-68572143D02*
X109429762Y-68524524D01*
X109477381Y-68381667D01*
X109477381Y-68286429D01*
X109429762Y-68143571D01*
X109334524Y-68048333D01*
X109239286Y-68000714D01*
X109048810Y-67953095D01*
X108905952Y-67953095D01*
X108715476Y-68000714D01*
X108620238Y-68048333D01*
X108525000Y-68143571D01*
X108477381Y-68286429D01*
X108477381Y-68381667D01*
X108525000Y-68524524D01*
X108572619Y-68572143D01*
X109477381Y-69524524D02*
X109477381Y-68953095D01*
X109477381Y-69238809D02*
X108477381Y-69238809D01*
X108620238Y-69143571D01*
X108715476Y-69048333D01*
X108763095Y-68953095D01*
X108477381Y-70143571D02*
X108477381Y-70238810D01*
X108525000Y-70334048D01*
X108572619Y-70381667D01*
X108667857Y-70429286D01*
X108858333Y-70476905D01*
X109096429Y-70476905D01*
X109286905Y-70429286D01*
X109382143Y-70381667D01*
X109429762Y-70334048D01*
X109477381Y-70238810D01*
X109477381Y-70143571D01*
X109429762Y-70048333D01*
X109382143Y-70000714D01*
X109286905Y-69953095D01*
X109096429Y-69905476D01*
X108858333Y-69905476D01*
X108667857Y-69953095D01*
X108572619Y-70000714D01*
X108525000Y-70048333D01*
X108477381Y-70143571D01*
X78271666Y-87252381D02*
X78747857Y-87252381D01*
X78747857Y-86252381D01*
X77414523Y-87252381D02*
X77985952Y-87252381D01*
X77700238Y-87252381D02*
X77700238Y-86252381D01*
X77795476Y-86395238D01*
X77890714Y-86490476D01*
X77985952Y-86538095D01*
X78271666Y-66932381D02*
X78747857Y-66932381D01*
X78747857Y-65932381D01*
X77985952Y-66027619D02*
X77938333Y-65980000D01*
X77843095Y-65932381D01*
X77604999Y-65932381D01*
X77509761Y-65980000D01*
X77462142Y-66027619D01*
X77414523Y-66122857D01*
X77414523Y-66218095D01*
X77462142Y-66360952D01*
X78033571Y-66932381D01*
X77414523Y-66932381D01*
X98877381Y-91971905D02*
X97877381Y-91971905D01*
X97877381Y-92352858D01*
X97925000Y-92448096D01*
X97972619Y-92495715D01*
X98067857Y-92543334D01*
X98210714Y-92543334D01*
X98305952Y-92495715D01*
X98353571Y-92448096D01*
X98401190Y-92352858D01*
X98401190Y-91971905D01*
X97972619Y-92924286D02*
X97925000Y-92971905D01*
X97877381Y-93067143D01*
X97877381Y-93305239D01*
X97925000Y-93400477D01*
X97972619Y-93448096D01*
X98067857Y-93495715D01*
X98163095Y-93495715D01*
X98305952Y-93448096D01*
X98877381Y-92876667D01*
X98877381Y-93495715D01*
X61761666Y-101222381D02*
X62095000Y-100746190D01*
X62333095Y-101222381D02*
X62333095Y-100222381D01*
X61952142Y-100222381D01*
X61856904Y-100270000D01*
X61809285Y-100317619D01*
X61761666Y-100412857D01*
X61761666Y-100555714D01*
X61809285Y-100650952D01*
X61856904Y-100698571D01*
X61952142Y-100746190D01*
X62333095Y-100746190D01*
X61380714Y-100317619D02*
X61333095Y-100270000D01*
X61237857Y-100222381D01*
X60999761Y-100222381D01*
X60904523Y-100270000D01*
X60856904Y-100317619D01*
X60809285Y-100412857D01*
X60809285Y-100508095D01*
X60856904Y-100650952D01*
X61428333Y-101222381D01*
X60809285Y-101222381D01*
X59947381Y-96988334D02*
X59471190Y-96655000D01*
X59947381Y-96416905D02*
X58947381Y-96416905D01*
X58947381Y-96797858D01*
X58995000Y-96893096D01*
X59042619Y-96940715D01*
X59137857Y-96988334D01*
X59280714Y-96988334D01*
X59375952Y-96940715D01*
X59423571Y-96893096D01*
X59471190Y-96797858D01*
X59471190Y-96416905D01*
X58947381Y-97321667D02*
X58947381Y-97940715D01*
X59328333Y-97607381D01*
X59328333Y-97750239D01*
X59375952Y-97845477D01*
X59423571Y-97893096D01*
X59518810Y-97940715D01*
X59756905Y-97940715D01*
X59852143Y-97893096D01*
X59899762Y-97845477D01*
X59947381Y-97750239D01*
X59947381Y-97464524D01*
X59899762Y-97369286D01*
X59852143Y-97321667D01*
X55411666Y-94237381D02*
X55745000Y-93761190D01*
X55983095Y-94237381D02*
X55983095Y-93237381D01*
X55602142Y-93237381D01*
X55506904Y-93285000D01*
X55459285Y-93332619D01*
X55411666Y-93427857D01*
X55411666Y-93570714D01*
X55459285Y-93665952D01*
X55506904Y-93713571D01*
X55602142Y-93761190D01*
X55983095Y-93761190D01*
X54554523Y-93570714D02*
X54554523Y-94237381D01*
X54792619Y-93189762D02*
X55030714Y-93904048D01*
X54411666Y-93904048D01*
X55411666Y-81927381D02*
X55745000Y-81451190D01*
X55983095Y-81927381D02*
X55983095Y-80927381D01*
X55602142Y-80927381D01*
X55506904Y-80975000D01*
X55459285Y-81022619D01*
X55411666Y-81117857D01*
X55411666Y-81260714D01*
X55459285Y-81355952D01*
X55506904Y-81403571D01*
X55602142Y-81451190D01*
X55983095Y-81451190D01*
X54506904Y-80927381D02*
X54983095Y-80927381D01*
X55030714Y-81403571D01*
X54983095Y-81355952D01*
X54887857Y-81308333D01*
X54649761Y-81308333D01*
X54554523Y-81355952D01*
X54506904Y-81403571D01*
X54459285Y-81498810D01*
X54459285Y-81736905D01*
X54506904Y-81832143D01*
X54554523Y-81879762D01*
X54649761Y-81927381D01*
X54887857Y-81927381D01*
X54983095Y-81879762D01*
X55030714Y-81832143D01*
X61761666Y-77727381D02*
X62095000Y-77251190D01*
X62333095Y-77727381D02*
X62333095Y-76727381D01*
X61952142Y-76727381D01*
X61856904Y-76775000D01*
X61809285Y-76822619D01*
X61761666Y-76917857D01*
X61761666Y-77060714D01*
X61809285Y-77155952D01*
X61856904Y-77203571D01*
X61952142Y-77251190D01*
X62333095Y-77251190D01*
X60904523Y-76727381D02*
X61095000Y-76727381D01*
X61190238Y-76775000D01*
X61237857Y-76822619D01*
X61333095Y-76965476D01*
X61380714Y-77155952D01*
X61380714Y-77536905D01*
X61333095Y-77632143D01*
X61285476Y-77679762D01*
X61190238Y-77727381D01*
X60999761Y-77727381D01*
X60904523Y-77679762D01*
X60856904Y-77632143D01*
X60809285Y-77536905D01*
X60809285Y-77298810D01*
X60856904Y-77203571D01*
X60904523Y-77155952D01*
X60999761Y-77108333D01*
X61190238Y-77108333D01*
X61285476Y-77155952D01*
X61333095Y-77203571D01*
X61380714Y-77298810D01*
X52327381Y-73493334D02*
X51851190Y-73160000D01*
X52327381Y-72921905D02*
X51327381Y-72921905D01*
X51327381Y-73302858D01*
X51375000Y-73398096D01*
X51422619Y-73445715D01*
X51517857Y-73493334D01*
X51660714Y-73493334D01*
X51755952Y-73445715D01*
X51803571Y-73398096D01*
X51851190Y-73302858D01*
X51851190Y-72921905D01*
X51327381Y-73826667D02*
X51327381Y-74493334D01*
X52327381Y-74064762D01*
X61217381Y-73493334D02*
X60741190Y-73160000D01*
X61217381Y-72921905D02*
X60217381Y-72921905D01*
X60217381Y-73302858D01*
X60265000Y-73398096D01*
X60312619Y-73445715D01*
X60407857Y-73493334D01*
X60550714Y-73493334D01*
X60645952Y-73445715D01*
X60693571Y-73398096D01*
X60741190Y-73302858D01*
X60741190Y-72921905D01*
X60645952Y-74064762D02*
X60598333Y-73969524D01*
X60550714Y-73921905D01*
X60455476Y-73874286D01*
X60407857Y-73874286D01*
X60312619Y-73921905D01*
X60265000Y-73969524D01*
X60217381Y-74064762D01*
X60217381Y-74255239D01*
X60265000Y-74350477D01*
X60312619Y-74398096D01*
X60407857Y-74445715D01*
X60455476Y-74445715D01*
X60550714Y-74398096D01*
X60598333Y-74350477D01*
X60645952Y-74255239D01*
X60645952Y-74064762D01*
X60693571Y-73969524D01*
X60741190Y-73921905D01*
X60836429Y-73874286D01*
X61026905Y-73874286D01*
X61122143Y-73921905D01*
X61169762Y-73969524D01*
X61217381Y-74064762D01*
X61217381Y-74255239D01*
X61169762Y-74350477D01*
X61122143Y-74398096D01*
X61026905Y-74445715D01*
X60836429Y-74445715D01*
X60741190Y-74398096D01*
X60693571Y-74350477D01*
X60645952Y-74255239D01*
X55411666Y-70497381D02*
X55745000Y-70021190D01*
X55983095Y-70497381D02*
X55983095Y-69497381D01*
X55602142Y-69497381D01*
X55506904Y-69545000D01*
X55459285Y-69592619D01*
X55411666Y-69687857D01*
X55411666Y-69830714D01*
X55459285Y-69925952D01*
X55506904Y-69973571D01*
X55602142Y-70021190D01*
X55983095Y-70021190D01*
X54935476Y-70497381D02*
X54745000Y-70497381D01*
X54649761Y-70449762D01*
X54602142Y-70402143D01*
X54506904Y-70259286D01*
X54459285Y-70068810D01*
X54459285Y-69687857D01*
X54506904Y-69592619D01*
X54554523Y-69545000D01*
X54649761Y-69497381D01*
X54840238Y-69497381D01*
X54935476Y-69545000D01*
X54983095Y-69592619D01*
X55030714Y-69687857D01*
X55030714Y-69925952D01*
X54983095Y-70021190D01*
X54935476Y-70068810D01*
X54840238Y-70116429D01*
X54649761Y-70116429D01*
X54554523Y-70068810D01*
X54506904Y-70021190D01*
X54459285Y-69925952D01*
X62237857Y-66297381D02*
X62571191Y-65821190D01*
X62809286Y-66297381D02*
X62809286Y-65297381D01*
X62428333Y-65297381D01*
X62333095Y-65345000D01*
X62285476Y-65392619D01*
X62237857Y-65487857D01*
X62237857Y-65630714D01*
X62285476Y-65725952D01*
X62333095Y-65773571D01*
X62428333Y-65821190D01*
X62809286Y-65821190D01*
X61285476Y-66297381D02*
X61856905Y-66297381D01*
X61571191Y-66297381D02*
X61571191Y-65297381D01*
X61666429Y-65440238D01*
X61761667Y-65535476D01*
X61856905Y-65583095D01*
X60666429Y-65297381D02*
X60571190Y-65297381D01*
X60475952Y-65345000D01*
X60428333Y-65392619D01*
X60380714Y-65487857D01*
X60333095Y-65678333D01*
X60333095Y-65916429D01*
X60380714Y-66106905D01*
X60428333Y-66202143D01*
X60475952Y-66249762D01*
X60571190Y-66297381D01*
X60666429Y-66297381D01*
X60761667Y-66249762D01*
X60809286Y-66202143D01*
X60856905Y-66106905D01*
X60904524Y-65916429D01*
X60904524Y-65678333D01*
X60856905Y-65487857D01*
X60809286Y-65392619D01*
X60761667Y-65345000D01*
X60666429Y-65297381D01*
X62063381Y-88138095D02*
X62872905Y-88138095D01*
X62968143Y-88185714D01*
X63015762Y-88233333D01*
X63063381Y-88328571D01*
X63063381Y-88519048D01*
X63015762Y-88614286D01*
X62968143Y-88661905D01*
X62872905Y-88709524D01*
X62063381Y-88709524D01*
X62063381Y-89090476D02*
X62063381Y-89709524D01*
X62444333Y-89376190D01*
X62444333Y-89519048D01*
X62491952Y-89614286D01*
X62539571Y-89661905D01*
X62634810Y-89709524D01*
X62872905Y-89709524D01*
X62968143Y-89661905D01*
X63015762Y-89614286D01*
X63063381Y-89519048D01*
X63063381Y-89233333D01*
X63015762Y-89138095D01*
X62968143Y-89090476D01*
X76842857Y-78752381D02*
X77176191Y-78276190D01*
X77414286Y-78752381D02*
X77414286Y-77752381D01*
X77033333Y-77752381D01*
X76938095Y-77800000D01*
X76890476Y-77847619D01*
X76842857Y-77942857D01*
X76842857Y-78085714D01*
X76890476Y-78180952D01*
X76938095Y-78228571D01*
X77033333Y-78276190D01*
X77414286Y-78276190D01*
X75890476Y-78752381D02*
X76461905Y-78752381D01*
X76176191Y-78752381D02*
X76176191Y-77752381D01*
X76271429Y-77895238D01*
X76366667Y-77990476D01*
X76461905Y-78038095D01*
X74938095Y-78752381D02*
X75509524Y-78752381D01*
X75223810Y-78752381D02*
X75223810Y-77752381D01*
X75319048Y-77895238D01*
X75414286Y-77990476D01*
X75509524Y-78038095D01*
X98782143Y-80002143D02*
X98829762Y-79954524D01*
X98877381Y-79811667D01*
X98877381Y-79716429D01*
X98829762Y-79573571D01*
X98734524Y-79478333D01*
X98639286Y-79430714D01*
X98448810Y-79383095D01*
X98305952Y-79383095D01*
X98115476Y-79430714D01*
X98020238Y-79478333D01*
X97925000Y-79573571D01*
X97877381Y-79716429D01*
X97877381Y-79811667D01*
X97925000Y-79954524D01*
X97972619Y-80002143D01*
X98877381Y-80954524D02*
X98877381Y-80383095D01*
X98877381Y-80668809D02*
X97877381Y-80668809D01*
X98020238Y-80573571D01*
X98115476Y-80478333D01*
X98163095Y-80383095D01*
X98877381Y-81906905D02*
X98877381Y-81335476D01*
X98877381Y-81621190D02*
X97877381Y-81621190D01*
X98020238Y-81525952D01*
X98115476Y-81430714D01*
X98163095Y-81335476D01*
M02*
