G04 #@! TF.FileFunction,Copper,L1,Top,Signal*
%FSLAX46Y46*%
G04 Gerber Fmt 4.6, Leading zero omitted, Abs format (unit mm)*
G04 Created by KiCad (PCBNEW (after 2015-mar-04 BZR unknown)-product) date Fri 28 Oct 2016 11:36:00 AM CEST*
%MOMM*%
G01*
G04 APERTURE LIST*
%ADD10C,0.100000*%
%ADD11C,0.150000*%
%ADD12C,0.970000*%
%ADD13O,1.524000X2.540000*%
%ADD14R,1.727200X1.727200*%
%ADD15O,1.727200X1.727200*%
%ADD16R,2.032000X2.032000*%
%ADD17O,2.032000X2.032000*%
%ADD18C,1.501140*%
%ADD19C,1.699260*%
%ADD20R,1.699260X1.699260*%
%ADD21O,1.998980X2.999740*%
%ADD22O,2.999740X1.998980*%
%ADD23C,1.998980*%
%ADD24C,1.000000*%
%ADD25C,0.250000*%
%ADD26C,0.254000*%
G04 APERTURE END LIST*
D10*
D11*
X192039240Y-92915740D02*
X192539620Y-92915740D01*
X192039240Y-92915740D02*
X192039240Y-92415360D01*
X191538860Y-92915740D02*
X192039240Y-92915740D01*
X192039240Y-92915740D02*
X192039240Y-93314520D01*
X192039240Y-93314520D02*
X192039240Y-93416120D01*
D12*
X173736000Y-67818000D03*
X178816000Y-67818000D03*
X212090000Y-75946000D03*
X209550000Y-78486000D03*
X184785000Y-99187000D03*
X203200000Y-56769000D03*
X200406000Y-56769000D03*
X201676000Y-70739000D03*
X198374000Y-70612000D03*
X195326000Y-69215000D03*
X192151000Y-69215000D03*
X181254400Y-58089800D03*
X178739800Y-58089800D03*
X158394400Y-95300800D03*
X172720000Y-92710000D03*
X179070000Y-94615000D03*
X198374000Y-99695000D03*
X179070000Y-94615000D03*
X179070000Y-91440000D03*
X206375000Y-86360000D03*
X206375000Y-88900000D03*
D13*
X212001100Y-102463600D03*
X209461100Y-102463600D03*
X206921100Y-102463600D03*
X199301100Y-102463600D03*
X201841100Y-102463600D03*
X204381100Y-102463600D03*
X194221100Y-102463600D03*
X191681100Y-102463600D03*
X189141100Y-102463600D03*
X184061100Y-102463600D03*
X181521100Y-102463600D03*
X212001100Y-54203600D03*
X209461100Y-54203600D03*
X206921100Y-54203600D03*
X204381100Y-54203600D03*
X201841100Y-54203600D03*
X199301100Y-54203600D03*
X196761100Y-54203600D03*
X194221100Y-54203600D03*
X190157100Y-54203600D03*
X187617100Y-54203600D03*
X185077100Y-54203600D03*
X182537100Y-54203600D03*
X179997100Y-54203600D03*
X177457100Y-54203600D03*
X174917100Y-54203600D03*
X172377100Y-54203600D03*
X186601100Y-102463600D03*
X169837100Y-54203600D03*
X167297100Y-54203600D03*
X178981100Y-102463600D03*
X176441100Y-102463600D03*
D14*
X209550000Y-82550000D03*
D15*
X212090000Y-82550000D03*
X209550000Y-85090000D03*
X212090000Y-85090000D03*
X209550000Y-87630000D03*
X212090000Y-87630000D03*
X209550000Y-90170000D03*
X212090000Y-90170000D03*
X209550000Y-92710000D03*
X212090000Y-92710000D03*
D14*
X156210000Y-97155000D03*
D15*
X153670000Y-97155000D03*
X156210000Y-94615000D03*
X153670000Y-94615000D03*
D16*
X153670000Y-74295000D03*
D17*
X153670000Y-71755000D03*
D16*
X153670000Y-59055000D03*
D17*
X153670000Y-56515000D03*
D18*
X194310000Y-94615000D03*
X191770000Y-94615000D03*
D19*
X160655000Y-88265000D03*
D20*
X170815000Y-88265000D03*
D19*
X184785000Y-94615000D03*
D20*
X174625000Y-94615000D03*
D19*
X158115000Y-69215000D03*
D20*
X168275000Y-69215000D03*
D19*
X168275000Y-66040000D03*
D20*
X158115000Y-66040000D03*
D19*
X160655000Y-85090000D03*
D20*
X170815000Y-85090000D03*
D19*
X184785000Y-85090000D03*
D20*
X174625000Y-85090000D03*
D19*
X158115000Y-78105000D03*
D20*
X168275000Y-78105000D03*
D21*
X174625000Y-78740000D03*
D22*
X172085000Y-81280000D03*
X177165000Y-81280000D03*
D23*
X168275000Y-59055000D03*
X158115000Y-59055000D03*
X170815000Y-94615000D03*
X160655000Y-94615000D03*
X170815000Y-91440000D03*
X160655000Y-91440000D03*
X174625000Y-91440000D03*
X184785000Y-91440000D03*
X158115000Y-62865000D03*
X168275000Y-62865000D03*
X174625000Y-88265000D03*
X184785000Y-88265000D03*
X192405000Y-78740000D03*
X182245000Y-78740000D03*
X187325000Y-72390000D03*
X187325000Y-62230000D03*
X190500000Y-72390000D03*
X190500000Y-62230000D03*
X193675000Y-72390000D03*
X193675000Y-62230000D03*
X196850000Y-72390000D03*
X196850000Y-62230000D03*
X200025000Y-72390000D03*
X200025000Y-62230000D03*
X203200000Y-72390000D03*
X203200000Y-62230000D03*
X158115000Y-74295000D03*
X168275000Y-74295000D03*
D12*
X206375000Y-91440000D03*
D24*
X170815000Y-86995000D02*
X170815000Y-88265000D01*
X170815000Y-85090000D02*
X170815000Y-86995000D01*
X163322000Y-69215000D02*
X168275000Y-69215000D01*
X207010000Y-83820000D02*
X207010000Y-80010000D01*
X191770000Y-94615000D02*
X191770000Y-88265000D01*
X196215000Y-83820000D02*
X207010000Y-83820000D01*
X191770000Y-88265000D02*
X196215000Y-83820000D01*
X212090000Y-80010000D02*
X212090000Y-82550000D01*
X207010000Y-80010000D02*
X212090000Y-80010000D01*
X212090000Y-82550000D02*
X212090000Y-85090000D01*
X165735000Y-85090000D02*
X165735000Y-82423000D01*
X165735000Y-86868000D02*
X165735000Y-85090000D01*
X163195000Y-69215000D02*
X163322000Y-69215000D01*
X163195000Y-79883000D02*
X163195000Y-69215000D01*
X165735000Y-82423000D02*
X163195000Y-79883000D01*
D25*
X165735000Y-86868000D02*
X170688000Y-86868000D01*
D24*
X186690000Y-97243900D02*
X165823900Y-97243900D01*
X165735000Y-86995000D02*
X165735000Y-86868000D01*
X165735000Y-97155000D02*
X165735000Y-86995000D01*
X165823900Y-97243900D02*
X165735000Y-97155000D01*
X186601100Y-97243900D02*
X186690000Y-97243900D01*
X186690000Y-97243900D02*
X189141100Y-97243900D01*
X189141100Y-97243900D02*
X191770000Y-94615000D01*
X186601100Y-97243900D02*
X186512200Y-97155000D01*
X186601100Y-102463600D02*
X186601100Y-97243900D01*
X165735000Y-86995000D02*
X170815000Y-86995000D01*
D25*
X215265000Y-77470000D02*
X215265000Y-87630000D01*
X215265000Y-87630000D02*
X212090000Y-87630000D01*
X192405000Y-77470000D02*
X215265000Y-77470000D01*
X192405000Y-78740000D02*
X192405000Y-77470000D01*
D26*
G36*
X216739000Y-104471000D02*
X213398100Y-104471000D01*
X213398100Y-103008921D01*
X213398100Y-101918279D01*
X213291760Y-101383670D01*
X212988928Y-100930451D01*
X212535709Y-100627619D01*
X212001100Y-100521279D01*
X211466491Y-100627619D01*
X211013272Y-100930451D01*
X210731100Y-101352750D01*
X210448928Y-100930451D01*
X209995709Y-100627619D01*
X209461100Y-100521279D01*
X208926491Y-100627619D01*
X208473272Y-100930451D01*
X208191100Y-101352750D01*
X207908928Y-100930451D01*
X207455709Y-100627619D01*
X206921100Y-100521279D01*
X206386491Y-100627619D01*
X205933272Y-100930451D01*
X205651100Y-101352750D01*
X205368928Y-100930451D01*
X204915709Y-100627619D01*
X204381100Y-100521279D01*
X203846491Y-100627619D01*
X203393272Y-100930451D01*
X203111100Y-101352750D01*
X202828928Y-100930451D01*
X202375709Y-100627619D01*
X201841100Y-100521279D01*
X201306491Y-100627619D01*
X200853272Y-100930451D01*
X200571100Y-101352750D01*
X200288928Y-100930451D01*
X199835709Y-100627619D01*
X199301100Y-100521279D01*
X198766491Y-100627619D01*
X198313272Y-100930451D01*
X198010440Y-101383670D01*
X197904100Y-101918279D01*
X197904100Y-103008921D01*
X198010440Y-103543530D01*
X198313272Y-103996749D01*
X198766491Y-104299581D01*
X199301100Y-104405921D01*
X199835709Y-104299581D01*
X200288928Y-103996749D01*
X200571100Y-103574449D01*
X200853272Y-103996749D01*
X201306491Y-104299581D01*
X201841100Y-104405921D01*
X202375709Y-104299581D01*
X202828928Y-103996749D01*
X203111100Y-103574449D01*
X203393272Y-103996749D01*
X203846491Y-104299581D01*
X204381100Y-104405921D01*
X204915709Y-104299581D01*
X205368928Y-103996749D01*
X205651100Y-103574449D01*
X205933272Y-103996749D01*
X206386491Y-104299581D01*
X206921100Y-104405921D01*
X207455709Y-104299581D01*
X207908928Y-103996749D01*
X208191100Y-103574449D01*
X208473272Y-103996749D01*
X208926491Y-104299581D01*
X209461100Y-104405921D01*
X209995709Y-104299581D01*
X210448928Y-103996749D01*
X210731100Y-103574449D01*
X211013272Y-103996749D01*
X211466491Y-104299581D01*
X212001100Y-104405921D01*
X212535709Y-104299581D01*
X212988928Y-103996749D01*
X213291760Y-103543530D01*
X213398100Y-103008921D01*
X213398100Y-104471000D01*
X195707767Y-104471000D01*
X195707767Y-94819966D01*
X195679805Y-94269462D01*
X195522931Y-93890735D01*
X195281930Y-93822675D01*
X195102325Y-94002280D01*
X195102325Y-93643070D01*
X195034265Y-93402069D01*
X194514966Y-93217233D01*
X193964462Y-93245195D01*
X193585735Y-93402069D01*
X193517675Y-93643070D01*
X194310000Y-94435395D01*
X195102325Y-93643070D01*
X195102325Y-94002280D01*
X194489605Y-94615000D01*
X195281930Y-95407325D01*
X195522931Y-95339265D01*
X195707767Y-94819966D01*
X195707767Y-104471000D01*
X195618100Y-104471000D01*
X195618100Y-103008921D01*
X195618100Y-101918279D01*
X195511760Y-101383670D01*
X195208928Y-100930451D01*
X195102325Y-100859220D01*
X195102325Y-95586930D01*
X194310000Y-94794605D01*
X193517675Y-95586930D01*
X193585735Y-95827931D01*
X194105034Y-96012767D01*
X194655538Y-95984805D01*
X195034265Y-95827931D01*
X195102325Y-95586930D01*
X195102325Y-100859220D01*
X194755709Y-100627619D01*
X194221100Y-100521279D01*
X193686491Y-100627619D01*
X193233272Y-100930451D01*
X192941770Y-101366713D01*
X192923159Y-101303659D01*
X192579126Y-100877970D01*
X192098377Y-100616340D01*
X192024170Y-100601380D01*
X191808100Y-100723880D01*
X191808100Y-102336600D01*
X191828100Y-102336600D01*
X191828100Y-102590600D01*
X191808100Y-102590600D01*
X191808100Y-104203320D01*
X192024170Y-104325820D01*
X192098377Y-104310860D01*
X192579126Y-104049230D01*
X192923159Y-103623541D01*
X192941770Y-103560486D01*
X193233272Y-103996749D01*
X193686491Y-104299581D01*
X194221100Y-104405921D01*
X194755709Y-104299581D01*
X195208928Y-103996749D01*
X195511760Y-103543530D01*
X195618100Y-103008921D01*
X195618100Y-104471000D01*
X191554100Y-104471000D01*
X191554100Y-104203320D01*
X191554100Y-102590600D01*
X191554100Y-102336600D01*
X191554100Y-100723880D01*
X191338030Y-100601380D01*
X191263823Y-100616340D01*
X190783074Y-100877970D01*
X190439041Y-101303659D01*
X190411100Y-101398323D01*
X190383159Y-101303659D01*
X190039126Y-100877970D01*
X189558377Y-100616340D01*
X189484170Y-100601380D01*
X189268100Y-100723880D01*
X189268100Y-102336600D01*
X190284100Y-102336600D01*
X190538100Y-102336600D01*
X191554100Y-102336600D01*
X191554100Y-102590600D01*
X190538100Y-102590600D01*
X190284100Y-102590600D01*
X189268100Y-102590600D01*
X189268100Y-104203320D01*
X189484170Y-104325820D01*
X189558377Y-104310860D01*
X190039126Y-104049230D01*
X190383159Y-103623541D01*
X190411100Y-103528876D01*
X190439041Y-103623541D01*
X190783074Y-104049230D01*
X191263823Y-104310860D01*
X191338030Y-104325820D01*
X191554100Y-104203320D01*
X191554100Y-104471000D01*
X163432755Y-104471000D01*
X163728400Y-104348842D01*
X164354145Y-103724189D01*
X164693213Y-102907622D01*
X164693985Y-102023457D01*
X164356342Y-101206300D01*
X163731689Y-100580555D01*
X162915122Y-100241487D01*
X162289774Y-100240940D01*
X162289774Y-94291306D01*
X162041462Y-93690345D01*
X161582073Y-93230154D01*
X161093567Y-93027309D01*
X161579655Y-92826462D01*
X162039846Y-92367073D01*
X162289206Y-91766547D01*
X162289774Y-91116306D01*
X162139888Y-90753554D01*
X162139888Y-87970984D01*
X162139888Y-84795984D01*
X161914342Y-84250123D01*
X161497074Y-83832126D01*
X160951607Y-83605628D01*
X160360984Y-83605112D01*
X159815123Y-83830658D01*
X159749774Y-83895893D01*
X159749774Y-73971306D01*
X159749774Y-62541306D01*
X159749774Y-58731306D01*
X159501462Y-58130345D01*
X159042073Y-57670154D01*
X158441547Y-57420794D01*
X157791306Y-57420226D01*
X157190345Y-57668538D01*
X156730154Y-58127927D01*
X156480794Y-58728453D01*
X156480226Y-59378694D01*
X156728538Y-59979655D01*
X157187927Y-60439846D01*
X157788453Y-60689206D01*
X158438694Y-60689774D01*
X159039655Y-60441462D01*
X159499846Y-59982073D01*
X159749206Y-59381547D01*
X159749774Y-58731306D01*
X159749774Y-62541306D01*
X159501462Y-61940345D01*
X159042073Y-61480154D01*
X158441547Y-61230794D01*
X157791306Y-61230226D01*
X157190345Y-61478538D01*
X156730154Y-61937927D01*
X156480794Y-62538453D01*
X156480226Y-63188694D01*
X156728538Y-63789655D01*
X157187927Y-64249846D01*
X157788453Y-64499206D01*
X158438694Y-64499774D01*
X159039655Y-64251462D01*
X159499846Y-63792073D01*
X159749206Y-63191547D01*
X159749774Y-62541306D01*
X159749774Y-73971306D01*
X159612070Y-73638036D01*
X159612070Y-66889630D01*
X159612070Y-65190370D01*
X159565093Y-64948247D01*
X159425303Y-64735443D01*
X159214270Y-64592993D01*
X158964630Y-64542930D01*
X157265370Y-64542930D01*
X157023247Y-64589907D01*
X156810443Y-64729697D01*
X156667993Y-64940730D01*
X156617930Y-65190370D01*
X156617930Y-66889630D01*
X156664907Y-67131753D01*
X156804697Y-67344557D01*
X157015730Y-67487007D01*
X157265370Y-67537070D01*
X158964630Y-67537070D01*
X159206753Y-67490093D01*
X159419557Y-67350303D01*
X159562007Y-67139270D01*
X159612070Y-66889630D01*
X159612070Y-73638036D01*
X159599888Y-73608554D01*
X159599888Y-68920984D01*
X159374342Y-68375123D01*
X158957074Y-67957126D01*
X158411607Y-67730628D01*
X157820984Y-67730112D01*
X157275123Y-67955658D01*
X156857126Y-68372926D01*
X156630628Y-68918393D01*
X156630112Y-69509016D01*
X156855658Y-70054877D01*
X157272926Y-70472874D01*
X157818393Y-70699372D01*
X158409016Y-70699888D01*
X158954877Y-70474342D01*
X159372874Y-70057074D01*
X159599372Y-69511607D01*
X159599888Y-68920984D01*
X159599888Y-73608554D01*
X159501462Y-73370345D01*
X159042073Y-72910154D01*
X158441547Y-72660794D01*
X157791306Y-72660226D01*
X157190345Y-72908538D01*
X156730154Y-73367927D01*
X156480794Y-73968453D01*
X156480226Y-74618694D01*
X156728538Y-75219655D01*
X157187927Y-75679846D01*
X157788453Y-75929206D01*
X158438694Y-75929774D01*
X159039655Y-75681462D01*
X159499846Y-75222073D01*
X159749206Y-74621547D01*
X159749774Y-73971306D01*
X159749774Y-83895893D01*
X159611350Y-84034075D01*
X159611350Y-78333633D01*
X159584941Y-77743601D01*
X159409953Y-77321142D01*
X159158690Y-77240915D01*
X158979085Y-77420520D01*
X158979085Y-77061310D01*
X158898858Y-76810047D01*
X158343633Y-76608650D01*
X157753601Y-76635059D01*
X157331142Y-76810047D01*
X157250915Y-77061310D01*
X158115000Y-77925395D01*
X158979085Y-77061310D01*
X158979085Y-77420520D01*
X158294605Y-78105000D01*
X159158690Y-78969085D01*
X159409953Y-78888858D01*
X159611350Y-78333633D01*
X159611350Y-84034075D01*
X159397126Y-84247926D01*
X159170628Y-84793393D01*
X159170112Y-85384016D01*
X159395658Y-85929877D01*
X159812926Y-86347874D01*
X160358393Y-86574372D01*
X160949016Y-86574888D01*
X161494877Y-86349342D01*
X161912874Y-85932074D01*
X162139372Y-85386607D01*
X162139888Y-84795984D01*
X162139888Y-87970984D01*
X161914342Y-87425123D01*
X161497074Y-87007126D01*
X160951607Y-86780628D01*
X160360984Y-86780112D01*
X159815123Y-87005658D01*
X159397126Y-87422926D01*
X159170628Y-87968393D01*
X159170112Y-88559016D01*
X159395658Y-89104877D01*
X159812926Y-89522874D01*
X160358393Y-89749372D01*
X160949016Y-89749888D01*
X161494877Y-89524342D01*
X161912874Y-89107074D01*
X162139372Y-88561607D01*
X162139888Y-87970984D01*
X162139888Y-90753554D01*
X162041462Y-90515345D01*
X161582073Y-90055154D01*
X160981547Y-89805794D01*
X160331306Y-89805226D01*
X159730345Y-90053538D01*
X159270154Y-90512927D01*
X159020794Y-91113453D01*
X159020226Y-91763694D01*
X159268538Y-92364655D01*
X159727927Y-92824846D01*
X160216432Y-93027690D01*
X159730345Y-93228538D01*
X159270154Y-93687927D01*
X159020794Y-94288453D01*
X159020226Y-94938694D01*
X159268538Y-95539655D01*
X159727927Y-95999846D01*
X160328453Y-96249206D01*
X160978694Y-96249774D01*
X161579655Y-96001462D01*
X162039846Y-95542073D01*
X162289206Y-94941547D01*
X162289774Y-94291306D01*
X162289774Y-100240940D01*
X162030957Y-100240715D01*
X161213800Y-100578358D01*
X160588055Y-101203011D01*
X160248987Y-102019578D01*
X160248215Y-102903743D01*
X160585858Y-103720900D01*
X161210511Y-104346645D01*
X161509991Y-104471000D01*
X158979085Y-104471000D01*
X158979085Y-79148690D01*
X158115000Y-78284605D01*
X157935395Y-78464210D01*
X157935395Y-78105000D01*
X157071310Y-77240915D01*
X156820047Y-77321142D01*
X156618650Y-77876367D01*
X156645059Y-78466399D01*
X156820047Y-78888858D01*
X157071310Y-78969085D01*
X157935395Y-78105000D01*
X157935395Y-78464210D01*
X157250915Y-79148690D01*
X157331142Y-79399953D01*
X157886367Y-79601350D01*
X158476399Y-79574941D01*
X158898858Y-79399953D01*
X158979085Y-79148690D01*
X158979085Y-104471000D01*
X157737959Y-104471000D01*
X157737959Y-94615000D01*
X157623885Y-94041511D01*
X157299029Y-93555330D01*
X156812848Y-93230474D01*
X156239359Y-93116400D01*
X156180641Y-93116400D01*
X155607152Y-93230474D01*
X155333440Y-93413362D01*
X155333440Y-75311000D01*
X155333440Y-73279000D01*
X155333440Y-60071000D01*
X155333440Y-58039000D01*
X155286463Y-57796877D01*
X155146673Y-57584073D01*
X154986956Y-57476262D01*
X155076385Y-57379818D01*
X155275975Y-56897944D01*
X155275975Y-56132056D01*
X155076385Y-55650182D01*
X154638379Y-55177812D01*
X154052946Y-54909017D01*
X153797000Y-55027633D01*
X153797000Y-56388000D01*
X155156836Y-56388000D01*
X155275975Y-56132056D01*
X155275975Y-56897944D01*
X155156836Y-56642000D01*
X153797000Y-56642000D01*
X153797000Y-56662000D01*
X153543000Y-56662000D01*
X153543000Y-56642000D01*
X153543000Y-56388000D01*
X153543000Y-55027633D01*
X153287054Y-54909017D01*
X152701621Y-55177812D01*
X152263615Y-55650182D01*
X152064025Y-56132056D01*
X152183164Y-56388000D01*
X153543000Y-56388000D01*
X153543000Y-56642000D01*
X152183164Y-56642000D01*
X152064025Y-56897944D01*
X152263615Y-57379818D01*
X152353574Y-57476835D01*
X152199073Y-57578327D01*
X152056623Y-57789360D01*
X152006560Y-58039000D01*
X152006560Y-60071000D01*
X152053537Y-60313123D01*
X152193327Y-60525927D01*
X152404360Y-60668377D01*
X152654000Y-60718440D01*
X154686000Y-60718440D01*
X154928123Y-60671463D01*
X155140927Y-60531673D01*
X155283377Y-60320640D01*
X155333440Y-60071000D01*
X155333440Y-73279000D01*
X155286463Y-73036877D01*
X155146673Y-72824073D01*
X154986956Y-72716262D01*
X155076385Y-72619818D01*
X155275975Y-72137944D01*
X155275975Y-71372056D01*
X155076385Y-70890182D01*
X154638379Y-70417812D01*
X154052946Y-70149017D01*
X153797000Y-70267633D01*
X153797000Y-71628000D01*
X155156836Y-71628000D01*
X155275975Y-71372056D01*
X155275975Y-72137944D01*
X155156836Y-71882000D01*
X153797000Y-71882000D01*
X153797000Y-71902000D01*
X153543000Y-71902000D01*
X153543000Y-71882000D01*
X153543000Y-71628000D01*
X153543000Y-70267633D01*
X153287054Y-70149017D01*
X152701621Y-70417812D01*
X152263615Y-70890182D01*
X152064025Y-71372056D01*
X152183164Y-71628000D01*
X153543000Y-71628000D01*
X153543000Y-71882000D01*
X152183164Y-71882000D01*
X152064025Y-72137944D01*
X152263615Y-72619818D01*
X152353574Y-72716835D01*
X152199073Y-72818327D01*
X152056623Y-73029360D01*
X152006560Y-73279000D01*
X152006560Y-75311000D01*
X152053537Y-75553123D01*
X152193327Y-75765927D01*
X152404360Y-75908377D01*
X152654000Y-75958440D01*
X154686000Y-75958440D01*
X154928123Y-75911463D01*
X155140927Y-75771673D01*
X155283377Y-75560640D01*
X155333440Y-75311000D01*
X155333440Y-93413362D01*
X155120971Y-93555330D01*
X154940007Y-93826160D01*
X154558490Y-93408179D01*
X154029027Y-93160032D01*
X153797000Y-93280531D01*
X153797000Y-94488000D01*
X153817000Y-94488000D01*
X153817000Y-94742000D01*
X153797000Y-94742000D01*
X153797000Y-95820531D01*
X153797000Y-95949469D01*
X153797000Y-97028000D01*
X153817000Y-97028000D01*
X153817000Y-97282000D01*
X153797000Y-97282000D01*
X153797000Y-98489469D01*
X154029027Y-98609968D01*
X154558490Y-98361821D01*
X154729253Y-98174736D01*
X154745937Y-98260723D01*
X154885727Y-98473527D01*
X155096760Y-98615977D01*
X155346400Y-98666040D01*
X157073600Y-98666040D01*
X157315723Y-98619063D01*
X157528527Y-98479273D01*
X157670977Y-98268240D01*
X157721040Y-98018600D01*
X157721040Y-96291400D01*
X157674063Y-96049277D01*
X157534273Y-95836473D01*
X157323240Y-95694023D01*
X157282340Y-95685820D01*
X157299029Y-95674670D01*
X157623885Y-95188489D01*
X157737959Y-94615000D01*
X157737959Y-104471000D01*
X153543000Y-104471000D01*
X153543000Y-98489469D01*
X153543000Y-97282000D01*
X153543000Y-97028000D01*
X153543000Y-95949469D01*
X153543000Y-95820531D01*
X153543000Y-94742000D01*
X153543000Y-94488000D01*
X153543000Y-93280531D01*
X153310973Y-93160032D01*
X152781510Y-93408179D01*
X152387312Y-93840053D01*
X152215042Y-94255974D01*
X152336183Y-94488000D01*
X153543000Y-94488000D01*
X153543000Y-94742000D01*
X152336183Y-94742000D01*
X152215042Y-94974026D01*
X152387312Y-95389947D01*
X152781510Y-95821821D01*
X152916312Y-95885000D01*
X152781510Y-95948179D01*
X152387312Y-96380053D01*
X152215042Y-96795974D01*
X152336183Y-97028000D01*
X153543000Y-97028000D01*
X153543000Y-97282000D01*
X152336183Y-97282000D01*
X152215042Y-97514026D01*
X152387312Y-97929947D01*
X152781510Y-98361821D01*
X153310973Y-98609968D01*
X153543000Y-98489469D01*
X153543000Y-104471000D01*
X149021000Y-104471000D01*
X149021000Y-52247000D01*
X162656499Y-52247000D01*
X162483800Y-52318358D01*
X161858055Y-52943011D01*
X161518987Y-53759578D01*
X161518215Y-54643743D01*
X161855858Y-55460900D01*
X162480511Y-56086645D01*
X163297078Y-56425713D01*
X164181243Y-56426485D01*
X164998400Y-56088842D01*
X165624145Y-55464189D01*
X165906917Y-54783196D01*
X166006440Y-55283530D01*
X166309272Y-55736749D01*
X166762491Y-56039581D01*
X167297100Y-56145921D01*
X167831709Y-56039581D01*
X168284928Y-55736749D01*
X168567100Y-55314449D01*
X168849272Y-55736749D01*
X169302491Y-56039581D01*
X169837100Y-56145921D01*
X170371709Y-56039581D01*
X170824928Y-55736749D01*
X171107100Y-55314449D01*
X171389272Y-55736749D01*
X171842491Y-56039581D01*
X172377100Y-56145921D01*
X172911709Y-56039581D01*
X173364928Y-55736749D01*
X173656429Y-55300486D01*
X173675041Y-55363541D01*
X174019074Y-55789230D01*
X174499823Y-56050860D01*
X174574030Y-56065820D01*
X174790100Y-55943320D01*
X174790100Y-54330600D01*
X174770100Y-54330600D01*
X174770100Y-54076600D01*
X174790100Y-54076600D01*
X174790100Y-52463880D01*
X174574030Y-52341380D01*
X174499823Y-52356340D01*
X174019074Y-52617970D01*
X173675041Y-53043659D01*
X173656429Y-53106713D01*
X173364928Y-52670451D01*
X172911709Y-52367619D01*
X172377100Y-52261279D01*
X171842491Y-52367619D01*
X171389272Y-52670451D01*
X171107100Y-53092750D01*
X170824928Y-52670451D01*
X170371709Y-52367619D01*
X169837100Y-52261279D01*
X169302491Y-52367619D01*
X168849272Y-52670451D01*
X168567100Y-53092750D01*
X168284928Y-52670451D01*
X167831709Y-52367619D01*
X167297100Y-52261279D01*
X166762491Y-52367619D01*
X166309272Y-52670451D01*
X166006440Y-53123670D01*
X165906737Y-53624908D01*
X165626342Y-52946300D01*
X165001689Y-52320555D01*
X164824548Y-52247000D01*
X216739000Y-52247000D01*
X216739000Y-68942988D01*
X216426342Y-68186300D01*
X215801689Y-67560555D01*
X214985122Y-67221487D01*
X214100957Y-67220715D01*
X213398100Y-67511130D01*
X213398100Y-54748921D01*
X213398100Y-53658279D01*
X213291760Y-53123670D01*
X212988928Y-52670451D01*
X212535709Y-52367619D01*
X212001100Y-52261279D01*
X211466491Y-52367619D01*
X211013272Y-52670451D01*
X210731100Y-53092750D01*
X210448928Y-52670451D01*
X209995709Y-52367619D01*
X209461100Y-52261279D01*
X208926491Y-52367619D01*
X208473272Y-52670451D01*
X208191100Y-53092750D01*
X207908928Y-52670451D01*
X207455709Y-52367619D01*
X206921100Y-52261279D01*
X206386491Y-52367619D01*
X205933272Y-52670451D01*
X205651100Y-53092750D01*
X205368928Y-52670451D01*
X204915709Y-52367619D01*
X204381100Y-52261279D01*
X203846491Y-52367619D01*
X203393272Y-52670451D01*
X203111100Y-53092750D01*
X202828928Y-52670451D01*
X202375709Y-52367619D01*
X201841100Y-52261279D01*
X201306491Y-52367619D01*
X200853272Y-52670451D01*
X200571100Y-53092750D01*
X200288928Y-52670451D01*
X199835709Y-52367619D01*
X199301100Y-52261279D01*
X198766491Y-52367619D01*
X198313272Y-52670451D01*
X198031100Y-53092750D01*
X197748928Y-52670451D01*
X197295709Y-52367619D01*
X196761100Y-52261279D01*
X196226491Y-52367619D01*
X195773272Y-52670451D01*
X195491100Y-53092750D01*
X195208928Y-52670451D01*
X194755709Y-52367619D01*
X194221100Y-52261279D01*
X193686491Y-52367619D01*
X193233272Y-52670451D01*
X192930440Y-53123670D01*
X192824100Y-53658279D01*
X192824100Y-54748921D01*
X192930440Y-55283530D01*
X193233272Y-55736749D01*
X193686491Y-56039581D01*
X194221100Y-56145921D01*
X194755709Y-56039581D01*
X195208928Y-55736749D01*
X195491100Y-55314449D01*
X195773272Y-55736749D01*
X196226491Y-56039581D01*
X196761100Y-56145921D01*
X197295709Y-56039581D01*
X197748928Y-55736749D01*
X198031100Y-55314449D01*
X198313272Y-55736749D01*
X198766491Y-56039581D01*
X199301100Y-56145921D01*
X199835709Y-56039581D01*
X200288928Y-55736749D01*
X200571100Y-55314449D01*
X200853272Y-55736749D01*
X201306491Y-56039581D01*
X201841100Y-56145921D01*
X202375709Y-56039581D01*
X202828928Y-55736749D01*
X203111100Y-55314449D01*
X203393272Y-55736749D01*
X203846491Y-56039581D01*
X204381100Y-56145921D01*
X204915709Y-56039581D01*
X205368928Y-55736749D01*
X205651100Y-55314449D01*
X205933272Y-55736749D01*
X206386491Y-56039581D01*
X206921100Y-56145921D01*
X207455709Y-56039581D01*
X207908928Y-55736749D01*
X208191100Y-55314449D01*
X208473272Y-55736749D01*
X208926491Y-56039581D01*
X209461100Y-56145921D01*
X209995709Y-56039581D01*
X210448928Y-55736749D01*
X210731100Y-55314449D01*
X211013272Y-55736749D01*
X211466491Y-56039581D01*
X212001100Y-56145921D01*
X212535709Y-56039581D01*
X212988928Y-55736749D01*
X213291760Y-55283530D01*
X213398100Y-54748921D01*
X213398100Y-67511130D01*
X213283800Y-67558358D01*
X212658055Y-68183011D01*
X212318987Y-68999578D01*
X212318215Y-69883743D01*
X212655858Y-70700900D01*
X213280511Y-71326645D01*
X214097078Y-71665713D01*
X214981243Y-71666485D01*
X215798400Y-71328842D01*
X216424145Y-70704189D01*
X216739000Y-69945933D01*
X216739000Y-96882988D01*
X216426342Y-96126300D01*
X216025000Y-95724256D01*
X216025000Y-87630000D01*
X216025000Y-77470000D01*
X215967148Y-77179161D01*
X215802401Y-76932599D01*
X215555839Y-76767852D01*
X215265000Y-76710000D01*
X204834774Y-76710000D01*
X204834774Y-72066306D01*
X204834774Y-61906306D01*
X204586462Y-61305345D01*
X204127073Y-60845154D01*
X203526547Y-60595794D01*
X202876306Y-60595226D01*
X202275345Y-60843538D01*
X201815154Y-61302927D01*
X201612309Y-61791432D01*
X201411462Y-61305345D01*
X200952073Y-60845154D01*
X200351547Y-60595794D01*
X199701306Y-60595226D01*
X199100345Y-60843538D01*
X198640154Y-61302927D01*
X198437309Y-61791432D01*
X198236462Y-61305345D01*
X197777073Y-60845154D01*
X197176547Y-60595794D01*
X196526306Y-60595226D01*
X195925345Y-60843538D01*
X195465154Y-61302927D01*
X195262309Y-61791432D01*
X195061462Y-61305345D01*
X194602073Y-60845154D01*
X194001547Y-60595794D01*
X193351306Y-60595226D01*
X192750345Y-60843538D01*
X192290154Y-61302927D01*
X192087309Y-61791432D01*
X191886462Y-61305345D01*
X191554100Y-60972402D01*
X191554100Y-54748921D01*
X191554100Y-53658279D01*
X191447760Y-53123670D01*
X191144928Y-52670451D01*
X190691709Y-52367619D01*
X190157100Y-52261279D01*
X189622491Y-52367619D01*
X189169272Y-52670451D01*
X188887100Y-53092750D01*
X188604928Y-52670451D01*
X188151709Y-52367619D01*
X187617100Y-52261279D01*
X187082491Y-52367619D01*
X186629272Y-52670451D01*
X186347100Y-53092750D01*
X186064928Y-52670451D01*
X185611709Y-52367619D01*
X185077100Y-52261279D01*
X184542491Y-52367619D01*
X184089272Y-52670451D01*
X183807100Y-53092750D01*
X183524928Y-52670451D01*
X183071709Y-52367619D01*
X182537100Y-52261279D01*
X182002491Y-52367619D01*
X181549272Y-52670451D01*
X181267100Y-53092750D01*
X180984928Y-52670451D01*
X180531709Y-52367619D01*
X179997100Y-52261279D01*
X179462491Y-52367619D01*
X179009272Y-52670451D01*
X178727100Y-53092750D01*
X178444928Y-52670451D01*
X177991709Y-52367619D01*
X177457100Y-52261279D01*
X176922491Y-52367619D01*
X176469272Y-52670451D01*
X176177770Y-53106713D01*
X176159159Y-53043659D01*
X175815126Y-52617970D01*
X175334377Y-52356340D01*
X175260170Y-52341380D01*
X175044100Y-52463880D01*
X175044100Y-54076600D01*
X175064100Y-54076600D01*
X175064100Y-54330600D01*
X175044100Y-54330600D01*
X175044100Y-55943320D01*
X175260170Y-56065820D01*
X175334377Y-56050860D01*
X175815126Y-55789230D01*
X176159159Y-55363541D01*
X176177770Y-55300486D01*
X176469272Y-55736749D01*
X176922491Y-56039581D01*
X177457100Y-56145921D01*
X177991709Y-56039581D01*
X178444928Y-55736749D01*
X178727100Y-55314449D01*
X179009272Y-55736749D01*
X179462491Y-56039581D01*
X179997100Y-56145921D01*
X180531709Y-56039581D01*
X180984928Y-55736749D01*
X181267100Y-55314449D01*
X181549272Y-55736749D01*
X182002491Y-56039581D01*
X182537100Y-56145921D01*
X183071709Y-56039581D01*
X183524928Y-55736749D01*
X183807100Y-55314449D01*
X184089272Y-55736749D01*
X184542491Y-56039581D01*
X185077100Y-56145921D01*
X185611709Y-56039581D01*
X186064928Y-55736749D01*
X186347100Y-55314449D01*
X186629272Y-55736749D01*
X187082491Y-56039581D01*
X187617100Y-56145921D01*
X188151709Y-56039581D01*
X188604928Y-55736749D01*
X188887100Y-55314449D01*
X189169272Y-55736749D01*
X189622491Y-56039581D01*
X190157100Y-56145921D01*
X190691709Y-56039581D01*
X191144928Y-55736749D01*
X191447760Y-55283530D01*
X191554100Y-54748921D01*
X191554100Y-60972402D01*
X191427073Y-60845154D01*
X190826547Y-60595794D01*
X190176306Y-60595226D01*
X189575345Y-60843538D01*
X189115154Y-61302927D01*
X188912309Y-61791432D01*
X188711462Y-61305345D01*
X188252073Y-60845154D01*
X187651547Y-60595794D01*
X187001306Y-60595226D01*
X186400345Y-60843538D01*
X185940154Y-61302927D01*
X185690794Y-61903453D01*
X185690226Y-62553694D01*
X185938538Y-63154655D01*
X186397927Y-63614846D01*
X186998453Y-63864206D01*
X187648694Y-63864774D01*
X188249655Y-63616462D01*
X188709846Y-63157073D01*
X188912690Y-62668567D01*
X189113538Y-63154655D01*
X189572927Y-63614846D01*
X190173453Y-63864206D01*
X190823694Y-63864774D01*
X191424655Y-63616462D01*
X191884846Y-63157073D01*
X192087690Y-62668567D01*
X192288538Y-63154655D01*
X192747927Y-63614846D01*
X193348453Y-63864206D01*
X193998694Y-63864774D01*
X194599655Y-63616462D01*
X195059846Y-63157073D01*
X195262690Y-62668567D01*
X195463538Y-63154655D01*
X195922927Y-63614846D01*
X196523453Y-63864206D01*
X197173694Y-63864774D01*
X197774655Y-63616462D01*
X198234846Y-63157073D01*
X198437690Y-62668567D01*
X198638538Y-63154655D01*
X199097927Y-63614846D01*
X199698453Y-63864206D01*
X200348694Y-63864774D01*
X200949655Y-63616462D01*
X201409846Y-63157073D01*
X201612690Y-62668567D01*
X201813538Y-63154655D01*
X202272927Y-63614846D01*
X202873453Y-63864206D01*
X203523694Y-63864774D01*
X204124655Y-63616462D01*
X204584846Y-63157073D01*
X204834206Y-62556547D01*
X204834774Y-61906306D01*
X204834774Y-72066306D01*
X204586462Y-71465345D01*
X204127073Y-71005154D01*
X203526547Y-70755794D01*
X202876306Y-70755226D01*
X202275345Y-71003538D01*
X201815154Y-71462927D01*
X201612309Y-71951432D01*
X201411462Y-71465345D01*
X200952073Y-71005154D01*
X200351547Y-70755794D01*
X199701306Y-70755226D01*
X199100345Y-71003538D01*
X198640154Y-71462927D01*
X198437309Y-71951432D01*
X198236462Y-71465345D01*
X197777073Y-71005154D01*
X197176547Y-70755794D01*
X196526306Y-70755226D01*
X195925345Y-71003538D01*
X195465154Y-71462927D01*
X195262309Y-71951432D01*
X195061462Y-71465345D01*
X194602073Y-71005154D01*
X194001547Y-70755794D01*
X193351306Y-70755226D01*
X192750345Y-71003538D01*
X192290154Y-71462927D01*
X192087309Y-71951432D01*
X191886462Y-71465345D01*
X191427073Y-71005154D01*
X190826547Y-70755794D01*
X190176306Y-70755226D01*
X189575345Y-71003538D01*
X189115154Y-71462927D01*
X188912309Y-71951432D01*
X188711462Y-71465345D01*
X188252073Y-71005154D01*
X187651547Y-70755794D01*
X187001306Y-70755226D01*
X186400345Y-71003538D01*
X185940154Y-71462927D01*
X185690794Y-72063453D01*
X185690226Y-72713694D01*
X185938538Y-73314655D01*
X186397927Y-73774846D01*
X186998453Y-74024206D01*
X187648694Y-74024774D01*
X188249655Y-73776462D01*
X188709846Y-73317073D01*
X188912690Y-72828567D01*
X189113538Y-73314655D01*
X189572927Y-73774846D01*
X190173453Y-74024206D01*
X190823694Y-74024774D01*
X191424655Y-73776462D01*
X191884846Y-73317073D01*
X192087690Y-72828567D01*
X192288538Y-73314655D01*
X192747927Y-73774846D01*
X193348453Y-74024206D01*
X193998694Y-74024774D01*
X194599655Y-73776462D01*
X195059846Y-73317073D01*
X195262690Y-72828567D01*
X195463538Y-73314655D01*
X195922927Y-73774846D01*
X196523453Y-74024206D01*
X197173694Y-74024774D01*
X197774655Y-73776462D01*
X198234846Y-73317073D01*
X198437690Y-72828567D01*
X198638538Y-73314655D01*
X199097927Y-73774846D01*
X199698453Y-74024206D01*
X200348694Y-74024774D01*
X200949655Y-73776462D01*
X201409846Y-73317073D01*
X201612690Y-72828567D01*
X201813538Y-73314655D01*
X202272927Y-73774846D01*
X202873453Y-74024206D01*
X203523694Y-74024774D01*
X204124655Y-73776462D01*
X204584846Y-73317073D01*
X204834206Y-72716547D01*
X204834774Y-72066306D01*
X204834774Y-76710000D01*
X192405000Y-76710000D01*
X192114161Y-76767852D01*
X191867599Y-76932599D01*
X191702852Y-77179161D01*
X191684985Y-77268982D01*
X191480345Y-77353538D01*
X191020154Y-77812927D01*
X190770794Y-78413453D01*
X190770226Y-79063694D01*
X191018538Y-79664655D01*
X191477927Y-80124846D01*
X192078453Y-80374206D01*
X192728694Y-80374774D01*
X193329655Y-80126462D01*
X193789846Y-79667073D01*
X194039206Y-79066547D01*
X194039774Y-78416306D01*
X193962793Y-78230000D01*
X214505000Y-78230000D01*
X214505000Y-86870000D01*
X213379262Y-86870000D01*
X213179029Y-86570330D01*
X212864248Y-86360000D01*
X213179029Y-86149670D01*
X213503885Y-85663489D01*
X213617959Y-85090000D01*
X213503885Y-84516511D01*
X213225000Y-84099130D01*
X213225000Y-83540869D01*
X213503885Y-83123489D01*
X213617959Y-82550000D01*
X213503885Y-81976511D01*
X213225000Y-81559130D01*
X213225000Y-80010000D01*
X213138603Y-79575654D01*
X212892566Y-79207434D01*
X212524346Y-78961397D01*
X212090000Y-78875000D01*
X207010000Y-78875000D01*
X206575654Y-78961397D01*
X206207434Y-79207434D01*
X205961397Y-79575654D01*
X205875000Y-80010000D01*
X205875000Y-82685000D01*
X196215000Y-82685000D01*
X195780654Y-82771397D01*
X195412434Y-83017434D01*
X190967434Y-87462434D01*
X190721397Y-87830654D01*
X190635000Y-88265000D01*
X190635000Y-93790236D01*
X190596056Y-93829113D01*
X190384671Y-94338184D01*
X190384621Y-94395246D01*
X188670967Y-96108900D01*
X186950291Y-96108900D01*
X186946545Y-96106397D01*
X186512200Y-96020000D01*
X186430401Y-96036270D01*
X186430401Y-91704418D01*
X186430401Y-88529418D01*
X186406341Y-87879623D01*
X186281350Y-87577866D01*
X186281350Y-85318633D01*
X186254941Y-84728601D01*
X186079953Y-84306142D01*
X185828690Y-84225915D01*
X185649085Y-84405520D01*
X185649085Y-84046310D01*
X185568858Y-83795047D01*
X185013633Y-83593650D01*
X184423601Y-83620059D01*
X184001142Y-83795047D01*
X183920915Y-84046310D01*
X184785000Y-84910395D01*
X185649085Y-84046310D01*
X185649085Y-84405520D01*
X184964605Y-85090000D01*
X185828690Y-85954085D01*
X186079953Y-85873858D01*
X186281350Y-85318633D01*
X186281350Y-87577866D01*
X186203965Y-87391042D01*
X185937163Y-87292443D01*
X185757557Y-87472048D01*
X185757557Y-87112837D01*
X185658958Y-86846035D01*
X185649085Y-86842367D01*
X185649085Y-86133690D01*
X184785000Y-85269605D01*
X184605395Y-85449210D01*
X184605395Y-85090000D01*
X183879774Y-84364379D01*
X183879774Y-78416306D01*
X183631462Y-77815345D01*
X183172073Y-77355154D01*
X182571547Y-77105794D01*
X181921306Y-77105226D01*
X181320345Y-77353538D01*
X180860154Y-77812927D01*
X180610794Y-78413453D01*
X180610226Y-79063694D01*
X180858538Y-79664655D01*
X181317927Y-80124846D01*
X181918453Y-80374206D01*
X182568694Y-80374774D01*
X183169655Y-80126462D01*
X183629846Y-79667073D01*
X183879206Y-79066547D01*
X183879774Y-78416306D01*
X183879774Y-84364379D01*
X183741310Y-84225915D01*
X183490047Y-84306142D01*
X183288650Y-84861367D01*
X183315059Y-85451399D01*
X183490047Y-85873858D01*
X183741310Y-85954085D01*
X184605395Y-85090000D01*
X184605395Y-85449210D01*
X183920915Y-86133690D01*
X184001142Y-86384953D01*
X184556367Y-86586350D01*
X185146399Y-86559941D01*
X185568858Y-86384953D01*
X185649085Y-86133690D01*
X185649085Y-86842367D01*
X185049418Y-86619599D01*
X184399623Y-86643659D01*
X183911042Y-86846035D01*
X183812443Y-87112837D01*
X184785000Y-88085395D01*
X185757557Y-87112837D01*
X185757557Y-87472048D01*
X184964605Y-88265000D01*
X185937163Y-89237557D01*
X186203965Y-89138958D01*
X186430401Y-88529418D01*
X186430401Y-91704418D01*
X186406341Y-91054623D01*
X186203965Y-90566042D01*
X185937163Y-90467443D01*
X185757557Y-90647048D01*
X185757557Y-90287837D01*
X185658958Y-90021035D01*
X185229951Y-89861664D01*
X185658958Y-89683965D01*
X185757557Y-89417163D01*
X184785000Y-88444605D01*
X184605395Y-88624210D01*
X184605395Y-88265000D01*
X183632837Y-87292443D01*
X183366035Y-87391042D01*
X183139599Y-88000582D01*
X183163659Y-88650377D01*
X183366035Y-89138958D01*
X183632837Y-89237557D01*
X184605395Y-88265000D01*
X184605395Y-88624210D01*
X183812443Y-89417163D01*
X183911042Y-89683965D01*
X184340048Y-89843335D01*
X183911042Y-90021035D01*
X183812443Y-90287837D01*
X184785000Y-91260395D01*
X185757557Y-90287837D01*
X185757557Y-90647048D01*
X184964605Y-91440000D01*
X185937163Y-92412557D01*
X186203965Y-92313958D01*
X186430401Y-91704418D01*
X186430401Y-96036270D01*
X186281350Y-96065919D01*
X186281350Y-94843633D01*
X186254941Y-94253601D01*
X186079953Y-93831142D01*
X185828690Y-93750915D01*
X185757557Y-93822048D01*
X185757557Y-92592163D01*
X184785000Y-91619605D01*
X184605395Y-91799210D01*
X184605395Y-91440000D01*
X183632837Y-90467443D01*
X183366035Y-90566042D01*
X183139599Y-91175582D01*
X183163659Y-91825377D01*
X183366035Y-92313958D01*
X183632837Y-92412557D01*
X184605395Y-91440000D01*
X184605395Y-91799210D01*
X183812443Y-92592163D01*
X183911042Y-92858965D01*
X184520582Y-93085401D01*
X185170377Y-93061341D01*
X185658958Y-92858965D01*
X185757557Y-92592163D01*
X185757557Y-93822048D01*
X185649085Y-93930520D01*
X185649085Y-93571310D01*
X185568858Y-93320047D01*
X185013633Y-93118650D01*
X184423601Y-93145059D01*
X184001142Y-93320047D01*
X183920915Y-93571310D01*
X184785000Y-94435395D01*
X185649085Y-93571310D01*
X185649085Y-93930520D01*
X184964605Y-94615000D01*
X185828690Y-95479085D01*
X186079953Y-95398858D01*
X186281350Y-94843633D01*
X186281350Y-96065919D01*
X186077855Y-96106397D01*
X186074108Y-96108900D01*
X184611105Y-96108900D01*
X185146399Y-96084941D01*
X185568858Y-95909953D01*
X185649085Y-95658690D01*
X184785000Y-94794605D01*
X184605395Y-94974210D01*
X184605395Y-94615000D01*
X183741310Y-93750915D01*
X183490047Y-93831142D01*
X183288650Y-94386367D01*
X183315059Y-94976399D01*
X183490047Y-95398858D01*
X183741310Y-95479085D01*
X184605395Y-94615000D01*
X184605395Y-94974210D01*
X183920915Y-95658690D01*
X184001142Y-95909953D01*
X184549612Y-96108900D01*
X179254999Y-96108900D01*
X179254999Y-81660354D01*
X179254999Y-80899646D01*
X179224053Y-80771841D01*
X178910942Y-80214044D01*
X178408205Y-79818529D01*
X177792380Y-79645510D01*
X177292000Y-79645510D01*
X177292000Y-81153000D01*
X179135645Y-81153000D01*
X179254999Y-80899646D01*
X179254999Y-81660354D01*
X179135645Y-81407000D01*
X177292000Y-81407000D01*
X177292000Y-82914490D01*
X177792380Y-82914490D01*
X178408205Y-82741471D01*
X178910942Y-82345956D01*
X179224053Y-81788159D01*
X179254999Y-81660354D01*
X179254999Y-96108900D01*
X177038000Y-96108900D01*
X177038000Y-82914490D01*
X177038000Y-81407000D01*
X177038000Y-81153000D01*
X177038000Y-79645510D01*
X176537620Y-79645510D01*
X176166483Y-79749782D01*
X176259490Y-79282205D01*
X176259490Y-78197795D01*
X176135072Y-77572303D01*
X175780759Y-77042036D01*
X175250492Y-76687723D01*
X174625000Y-76563305D01*
X173999508Y-76687723D01*
X173469241Y-77042036D01*
X173114928Y-77572303D01*
X172990510Y-78197795D01*
X172990510Y-79282205D01*
X173080719Y-79735719D01*
X172627205Y-79645510D01*
X171542795Y-79645510D01*
X170917303Y-79769928D01*
X170387036Y-80124241D01*
X170032723Y-80654508D01*
X169920401Y-81219189D01*
X169920401Y-63129418D01*
X169909774Y-62842411D01*
X169909774Y-58731306D01*
X169661462Y-58130345D01*
X169202073Y-57670154D01*
X168601547Y-57420794D01*
X167951306Y-57420226D01*
X167350345Y-57668538D01*
X166890154Y-58127927D01*
X166640794Y-58728453D01*
X166640226Y-59378694D01*
X166888538Y-59979655D01*
X167347927Y-60439846D01*
X167948453Y-60689206D01*
X168598694Y-60689774D01*
X169199655Y-60441462D01*
X169659846Y-59982073D01*
X169909206Y-59381547D01*
X169909774Y-58731306D01*
X169909774Y-62842411D01*
X169896341Y-62479623D01*
X169693965Y-61991042D01*
X169427163Y-61892443D01*
X169247557Y-62072048D01*
X169247557Y-61712837D01*
X169148958Y-61446035D01*
X168539418Y-61219599D01*
X167889623Y-61243659D01*
X167401042Y-61446035D01*
X167302443Y-61712837D01*
X168275000Y-62685395D01*
X169247557Y-61712837D01*
X169247557Y-62072048D01*
X168454605Y-62865000D01*
X169427163Y-63837557D01*
X169693965Y-63738958D01*
X169920401Y-63129418D01*
X169920401Y-81219189D01*
X169909774Y-81272614D01*
X169909774Y-73971306D01*
X169661462Y-73370345D01*
X169202073Y-72910154D01*
X168601547Y-72660794D01*
X167951306Y-72660226D01*
X167350345Y-72908538D01*
X166890154Y-73367927D01*
X166640794Y-73968453D01*
X166640226Y-74618694D01*
X166888538Y-75219655D01*
X167347927Y-75679846D01*
X167948453Y-75929206D01*
X168598694Y-75929774D01*
X169199655Y-75681462D01*
X169659846Y-75222073D01*
X169909206Y-74621547D01*
X169909774Y-73971306D01*
X169909774Y-81272614D01*
X169908305Y-81280000D01*
X170032723Y-81905492D01*
X170387036Y-82435759D01*
X170917303Y-82790072D01*
X171542795Y-82914490D01*
X172627205Y-82914490D01*
X173252697Y-82790072D01*
X173782964Y-82435759D01*
X174137277Y-81905492D01*
X174261695Y-81280000D01*
X174171485Y-80826485D01*
X174625000Y-80916695D01*
X175093434Y-80823517D01*
X175075001Y-80899646D01*
X175194355Y-81153000D01*
X177038000Y-81153000D01*
X177038000Y-81407000D01*
X175194355Y-81407000D01*
X175075001Y-81660354D01*
X175105947Y-81788159D01*
X175419058Y-82345956D01*
X175921795Y-82741471D01*
X176537620Y-82914490D01*
X177038000Y-82914490D01*
X177038000Y-96108900D01*
X176259774Y-96108900D01*
X176259774Y-91116306D01*
X176011462Y-90515345D01*
X175552073Y-90055154D01*
X175063567Y-89852309D01*
X175549655Y-89651462D01*
X176009846Y-89192073D01*
X176259206Y-88591547D01*
X176259774Y-87941306D01*
X176122070Y-87608036D01*
X176122070Y-85939630D01*
X176122070Y-84240370D01*
X176075093Y-83998247D01*
X175935303Y-83785443D01*
X175724270Y-83642993D01*
X175474630Y-83592930D01*
X173775370Y-83592930D01*
X173533247Y-83639907D01*
X173320443Y-83779697D01*
X173177993Y-83990730D01*
X173127930Y-84240370D01*
X173127930Y-85939630D01*
X173174907Y-86181753D01*
X173314697Y-86394557D01*
X173525730Y-86537007D01*
X173775370Y-86587070D01*
X175474630Y-86587070D01*
X175716753Y-86540093D01*
X175929557Y-86400303D01*
X176072007Y-86189270D01*
X176122070Y-85939630D01*
X176122070Y-87608036D01*
X176011462Y-87340345D01*
X175552073Y-86880154D01*
X174951547Y-86630794D01*
X174301306Y-86630226D01*
X173700345Y-86878538D01*
X173240154Y-87337927D01*
X172990794Y-87938453D01*
X172990226Y-88588694D01*
X173238538Y-89189655D01*
X173697927Y-89649846D01*
X174186432Y-89852690D01*
X173700345Y-90053538D01*
X173240154Y-90512927D01*
X172990794Y-91113453D01*
X172990226Y-91763694D01*
X173238538Y-92364655D01*
X173697927Y-92824846D01*
X174298453Y-93074206D01*
X174948694Y-93074774D01*
X175549655Y-92826462D01*
X176009846Y-92367073D01*
X176259206Y-91766547D01*
X176259774Y-91116306D01*
X176259774Y-96108900D01*
X175490968Y-96108900D01*
X175716753Y-96065093D01*
X175929557Y-95925303D01*
X176072007Y-95714270D01*
X176122070Y-95464630D01*
X176122070Y-93765370D01*
X176075093Y-93523247D01*
X175935303Y-93310443D01*
X175724270Y-93167993D01*
X175474630Y-93117930D01*
X173775370Y-93117930D01*
X173533247Y-93164907D01*
X173320443Y-93304697D01*
X173177993Y-93515730D01*
X173127930Y-93765370D01*
X173127930Y-95464630D01*
X173174907Y-95706753D01*
X173314697Y-95919557D01*
X173525730Y-96062007D01*
X173759562Y-96108900D01*
X171479635Y-96108900D01*
X171739655Y-96001462D01*
X172199846Y-95542073D01*
X172449206Y-94941547D01*
X172449774Y-94291306D01*
X172201462Y-93690345D01*
X171742073Y-93230154D01*
X171253567Y-93027309D01*
X171739655Y-92826462D01*
X172199846Y-92367073D01*
X172449206Y-91766547D01*
X172449774Y-91116306D01*
X172201462Y-90515345D01*
X171742073Y-90055154D01*
X171141547Y-89805794D01*
X170491306Y-89805226D01*
X169890345Y-90053538D01*
X169430154Y-90512927D01*
X169180794Y-91113453D01*
X169180226Y-91763694D01*
X169428538Y-92364655D01*
X169887927Y-92824846D01*
X170376432Y-93027690D01*
X169890345Y-93228538D01*
X169430154Y-93687927D01*
X169180794Y-94288453D01*
X169180226Y-94938694D01*
X169428538Y-95539655D01*
X169887927Y-95999846D01*
X170150558Y-96108900D01*
X166870000Y-96108900D01*
X166870000Y-88130000D01*
X169317930Y-88130000D01*
X169317930Y-89114630D01*
X169364907Y-89356753D01*
X169504697Y-89569557D01*
X169715730Y-89712007D01*
X169965370Y-89762070D01*
X171664630Y-89762070D01*
X171906753Y-89715093D01*
X172119557Y-89575303D01*
X172262007Y-89364270D01*
X172312070Y-89114630D01*
X172312070Y-87415370D01*
X172265093Y-87173247D01*
X172125303Y-86960443D01*
X171950000Y-86842111D01*
X171950000Y-86511684D01*
X172119557Y-86400303D01*
X172262007Y-86189270D01*
X172312070Y-85939630D01*
X172312070Y-84240370D01*
X172265093Y-83998247D01*
X172125303Y-83785443D01*
X171914270Y-83642993D01*
X171664630Y-83592930D01*
X169965370Y-83592930D01*
X169772070Y-83630434D01*
X169772070Y-78954630D01*
X169772070Y-77255370D01*
X169725093Y-77013247D01*
X169585303Y-76800443D01*
X169374270Y-76657993D01*
X169124630Y-76607930D01*
X167425370Y-76607930D01*
X167183247Y-76654907D01*
X166970443Y-76794697D01*
X166827993Y-77005730D01*
X166777930Y-77255370D01*
X166777930Y-78954630D01*
X166824907Y-79196753D01*
X166964697Y-79409557D01*
X167175730Y-79552007D01*
X167425370Y-79602070D01*
X169124630Y-79602070D01*
X169366753Y-79555093D01*
X169579557Y-79415303D01*
X169722007Y-79204270D01*
X169772070Y-78954630D01*
X169772070Y-83630434D01*
X169723247Y-83639907D01*
X169510443Y-83779697D01*
X169367993Y-83990730D01*
X169317930Y-84240370D01*
X169317930Y-85860000D01*
X166870000Y-85860000D01*
X166870000Y-85090000D01*
X166870000Y-82423000D01*
X166783603Y-81988654D01*
X166537566Y-81620434D01*
X166537566Y-81620433D01*
X164330000Y-79412867D01*
X164330000Y-70350000D01*
X166853315Y-70350000D01*
X166964697Y-70519557D01*
X167175730Y-70662007D01*
X167425370Y-70712070D01*
X169124630Y-70712070D01*
X169366753Y-70665093D01*
X169579557Y-70525303D01*
X169722007Y-70314270D01*
X169772070Y-70064630D01*
X169772070Y-68365370D01*
X169771350Y-68361659D01*
X169771350Y-66268633D01*
X169744941Y-65678601D01*
X169569953Y-65256142D01*
X169318690Y-65175915D01*
X169247557Y-65247048D01*
X169247557Y-64017163D01*
X168275000Y-63044605D01*
X168095395Y-63224210D01*
X168095395Y-62865000D01*
X167122837Y-61892443D01*
X166856035Y-61991042D01*
X166629599Y-62600582D01*
X166653659Y-63250377D01*
X166856035Y-63738958D01*
X167122837Y-63837557D01*
X168095395Y-62865000D01*
X168095395Y-63224210D01*
X167302443Y-64017163D01*
X167401042Y-64283965D01*
X168010582Y-64510401D01*
X168660377Y-64486341D01*
X169148958Y-64283965D01*
X169247557Y-64017163D01*
X169247557Y-65247048D01*
X169139085Y-65355520D01*
X169139085Y-64996310D01*
X169058858Y-64745047D01*
X168503633Y-64543650D01*
X167913601Y-64570059D01*
X167491142Y-64745047D01*
X167410915Y-64996310D01*
X168275000Y-65860395D01*
X169139085Y-64996310D01*
X169139085Y-65355520D01*
X168454605Y-66040000D01*
X169318690Y-66904085D01*
X169569953Y-66823858D01*
X169771350Y-66268633D01*
X169771350Y-68361659D01*
X169725093Y-68123247D01*
X169585303Y-67910443D01*
X169374270Y-67767993D01*
X169139085Y-67720828D01*
X169139085Y-67083690D01*
X168275000Y-66219605D01*
X168095395Y-66399210D01*
X168095395Y-66040000D01*
X167231310Y-65175915D01*
X166980047Y-65256142D01*
X166778650Y-65811367D01*
X166805059Y-66401399D01*
X166980047Y-66823858D01*
X167231310Y-66904085D01*
X168095395Y-66040000D01*
X168095395Y-66399210D01*
X167410915Y-67083690D01*
X167491142Y-67334953D01*
X168046367Y-67536350D01*
X168636399Y-67509941D01*
X169058858Y-67334953D01*
X169139085Y-67083690D01*
X169139085Y-67720828D01*
X169124630Y-67717930D01*
X167425370Y-67717930D01*
X167183247Y-67764907D01*
X166970443Y-67904697D01*
X166852111Y-68080000D01*
X163322000Y-68080000D01*
X163195000Y-68080000D01*
X162760654Y-68166397D01*
X162392434Y-68412434D01*
X162146397Y-68780654D01*
X162060000Y-69215000D01*
X162060000Y-79883000D01*
X162146397Y-80317346D01*
X162392434Y-80685566D01*
X164600000Y-82893132D01*
X164600000Y-85090000D01*
X164600000Y-86868000D01*
X164600000Y-86995000D01*
X164600000Y-97155000D01*
X164686397Y-97589346D01*
X164932434Y-97957566D01*
X165021334Y-98046466D01*
X165389554Y-98292503D01*
X165389555Y-98292504D01*
X165823900Y-98378900D01*
X185466100Y-98378900D01*
X185466100Y-101150708D01*
X185331100Y-101352750D01*
X185048928Y-100930451D01*
X184595709Y-100627619D01*
X184061100Y-100521279D01*
X183526491Y-100627619D01*
X183073272Y-100930451D01*
X182791100Y-101352750D01*
X182508928Y-100930451D01*
X182055709Y-100627619D01*
X181521100Y-100521279D01*
X180986491Y-100627619D01*
X180533272Y-100930451D01*
X180251100Y-101352750D01*
X179968928Y-100930451D01*
X179515709Y-100627619D01*
X178981100Y-100521279D01*
X178446491Y-100627619D01*
X177993272Y-100930451D01*
X177711100Y-101352750D01*
X177428928Y-100930451D01*
X176975709Y-100627619D01*
X176441100Y-100521279D01*
X175906491Y-100627619D01*
X175453272Y-100930451D01*
X175150440Y-101383670D01*
X175044100Y-101918279D01*
X175044100Y-103008921D01*
X175150440Y-103543530D01*
X175453272Y-103996749D01*
X175906491Y-104299581D01*
X176441100Y-104405921D01*
X176975709Y-104299581D01*
X177428928Y-103996749D01*
X177711100Y-103574449D01*
X177993272Y-103996749D01*
X178446491Y-104299581D01*
X178981100Y-104405921D01*
X179515709Y-104299581D01*
X179968928Y-103996749D01*
X180251100Y-103574449D01*
X180533272Y-103996749D01*
X180986491Y-104299581D01*
X181521100Y-104405921D01*
X182055709Y-104299581D01*
X182508928Y-103996749D01*
X182791100Y-103574449D01*
X183073272Y-103996749D01*
X183526491Y-104299581D01*
X184061100Y-104405921D01*
X184595709Y-104299581D01*
X185048928Y-103996749D01*
X185331100Y-103574449D01*
X185613272Y-103996749D01*
X186066491Y-104299581D01*
X186601100Y-104405921D01*
X187135709Y-104299581D01*
X187588928Y-103996749D01*
X187880429Y-103560486D01*
X187899041Y-103623541D01*
X188243074Y-104049230D01*
X188723823Y-104310860D01*
X188798030Y-104325820D01*
X189014100Y-104203320D01*
X189014100Y-102590600D01*
X188994100Y-102590600D01*
X188994100Y-102336600D01*
X189014100Y-102336600D01*
X189014100Y-100723880D01*
X188798030Y-100601380D01*
X188723823Y-100616340D01*
X188243074Y-100877970D01*
X187899041Y-101303659D01*
X187880429Y-101366713D01*
X187736100Y-101150708D01*
X187736100Y-98378900D01*
X189141100Y-98378900D01*
X189575445Y-98292503D01*
X189575446Y-98292503D01*
X189943666Y-98046466D01*
X191989370Y-96000761D01*
X192044398Y-96000810D01*
X192553837Y-95790314D01*
X192943944Y-95400887D01*
X193033378Y-95185503D01*
X193097069Y-95339265D01*
X193338070Y-95407325D01*
X194130395Y-94615000D01*
X193338070Y-93822675D01*
X193097069Y-93890735D01*
X193038231Y-94056040D01*
X192945314Y-93831163D01*
X192905000Y-93790778D01*
X192905000Y-93509102D01*
X193041666Y-93417786D01*
X193195574Y-93187445D01*
X193249620Y-92915740D01*
X193195574Y-92644035D01*
X193041666Y-92413694D01*
X192905000Y-92322377D01*
X192905000Y-88735132D01*
X196685132Y-84955000D01*
X207010000Y-84955000D01*
X207444346Y-84868603D01*
X207812566Y-84622566D01*
X208058603Y-84254346D01*
X208145000Y-83820000D01*
X208145000Y-83745635D01*
X208225727Y-83868527D01*
X208436760Y-84010977D01*
X208477659Y-84019179D01*
X208460971Y-84030330D01*
X208136115Y-84516511D01*
X208022041Y-85090000D01*
X208136115Y-85663489D01*
X208460971Y-86149670D01*
X208775751Y-86360000D01*
X208460971Y-86570330D01*
X208136115Y-87056511D01*
X208022041Y-87630000D01*
X208136115Y-88203489D01*
X208460971Y-88689670D01*
X208775751Y-88900000D01*
X208460971Y-89110330D01*
X208136115Y-89596511D01*
X208022041Y-90170000D01*
X208136115Y-90743489D01*
X208460971Y-91229670D01*
X208775751Y-91440000D01*
X208460971Y-91650330D01*
X208136115Y-92136511D01*
X208022041Y-92710000D01*
X208136115Y-93283489D01*
X208460971Y-93769670D01*
X208947152Y-94094526D01*
X209520641Y-94208600D01*
X209579359Y-94208600D01*
X210152848Y-94094526D01*
X210639029Y-93769670D01*
X210819992Y-93498839D01*
X211201510Y-93916821D01*
X211730973Y-94164968D01*
X211963000Y-94044469D01*
X211963000Y-92837000D01*
X211943000Y-92837000D01*
X211943000Y-92583000D01*
X211963000Y-92583000D01*
X211963000Y-91504469D01*
X211963000Y-91375531D01*
X211963000Y-90297000D01*
X211943000Y-90297000D01*
X211943000Y-90043000D01*
X211963000Y-90043000D01*
X211963000Y-90023000D01*
X212217000Y-90023000D01*
X212217000Y-90043000D01*
X213423817Y-90043000D01*
X213544958Y-89810974D01*
X213372688Y-89395053D01*
X212978490Y-88963179D01*
X212855771Y-88905663D01*
X213179029Y-88689670D01*
X213379262Y-88390000D01*
X215265000Y-88390000D01*
X215555839Y-88332148D01*
X215802401Y-88167401D01*
X215967148Y-87920839D01*
X216025000Y-87630000D01*
X216025000Y-95724256D01*
X215801689Y-95500555D01*
X214985122Y-95161487D01*
X214100957Y-95160715D01*
X213544958Y-95390449D01*
X213544958Y-93069026D01*
X213544958Y-92350974D01*
X213372688Y-91935053D01*
X212978490Y-91503179D01*
X212843687Y-91440000D01*
X212978490Y-91376821D01*
X213372688Y-90944947D01*
X213544958Y-90529026D01*
X213423817Y-90297000D01*
X212217000Y-90297000D01*
X212217000Y-91375531D01*
X212217000Y-91504469D01*
X212217000Y-92583000D01*
X213423817Y-92583000D01*
X213544958Y-92350974D01*
X213544958Y-93069026D01*
X213423817Y-92837000D01*
X212217000Y-92837000D01*
X212217000Y-94044469D01*
X212449027Y-94164968D01*
X212978490Y-93916821D01*
X213372688Y-93484947D01*
X213544958Y-93069026D01*
X213544958Y-95390449D01*
X213283800Y-95498358D01*
X212658055Y-96123011D01*
X212318987Y-96939578D01*
X212318215Y-97823743D01*
X212655858Y-98640900D01*
X213280511Y-99266645D01*
X214097078Y-99605713D01*
X214981243Y-99606485D01*
X215798400Y-99268842D01*
X216424145Y-98644189D01*
X216739000Y-97885933D01*
X216739000Y-104471000D01*
X216739000Y-104471000D01*
G37*
X216739000Y-104471000D02*
X213398100Y-104471000D01*
X213398100Y-103008921D01*
X213398100Y-101918279D01*
X213291760Y-101383670D01*
X212988928Y-100930451D01*
X212535709Y-100627619D01*
X212001100Y-100521279D01*
X211466491Y-100627619D01*
X211013272Y-100930451D01*
X210731100Y-101352750D01*
X210448928Y-100930451D01*
X209995709Y-100627619D01*
X209461100Y-100521279D01*
X208926491Y-100627619D01*
X208473272Y-100930451D01*
X208191100Y-101352750D01*
X207908928Y-100930451D01*
X207455709Y-100627619D01*
X206921100Y-100521279D01*
X206386491Y-100627619D01*
X205933272Y-100930451D01*
X205651100Y-101352750D01*
X205368928Y-100930451D01*
X204915709Y-100627619D01*
X204381100Y-100521279D01*
X203846491Y-100627619D01*
X203393272Y-100930451D01*
X203111100Y-101352750D01*
X202828928Y-100930451D01*
X202375709Y-100627619D01*
X201841100Y-100521279D01*
X201306491Y-100627619D01*
X200853272Y-100930451D01*
X200571100Y-101352750D01*
X200288928Y-100930451D01*
X199835709Y-100627619D01*
X199301100Y-100521279D01*
X198766491Y-100627619D01*
X198313272Y-100930451D01*
X198010440Y-101383670D01*
X197904100Y-101918279D01*
X197904100Y-103008921D01*
X198010440Y-103543530D01*
X198313272Y-103996749D01*
X198766491Y-104299581D01*
X199301100Y-104405921D01*
X199835709Y-104299581D01*
X200288928Y-103996749D01*
X200571100Y-103574449D01*
X200853272Y-103996749D01*
X201306491Y-104299581D01*
X201841100Y-104405921D01*
X202375709Y-104299581D01*
X202828928Y-103996749D01*
X203111100Y-103574449D01*
X203393272Y-103996749D01*
X203846491Y-104299581D01*
X204381100Y-104405921D01*
X204915709Y-104299581D01*
X205368928Y-103996749D01*
X205651100Y-103574449D01*
X205933272Y-103996749D01*
X206386491Y-104299581D01*
X206921100Y-104405921D01*
X207455709Y-104299581D01*
X207908928Y-103996749D01*
X208191100Y-103574449D01*
X208473272Y-103996749D01*
X208926491Y-104299581D01*
X209461100Y-104405921D01*
X209995709Y-104299581D01*
X210448928Y-103996749D01*
X210731100Y-103574449D01*
X211013272Y-103996749D01*
X211466491Y-104299581D01*
X212001100Y-104405921D01*
X212535709Y-104299581D01*
X212988928Y-103996749D01*
X213291760Y-103543530D01*
X213398100Y-103008921D01*
X213398100Y-104471000D01*
X195707767Y-104471000D01*
X195707767Y-94819966D01*
X195679805Y-94269462D01*
X195522931Y-93890735D01*
X195281930Y-93822675D01*
X195102325Y-94002280D01*
X195102325Y-93643070D01*
X195034265Y-93402069D01*
X194514966Y-93217233D01*
X193964462Y-93245195D01*
X193585735Y-93402069D01*
X193517675Y-93643070D01*
X194310000Y-94435395D01*
X195102325Y-93643070D01*
X195102325Y-94002280D01*
X194489605Y-94615000D01*
X195281930Y-95407325D01*
X195522931Y-95339265D01*
X195707767Y-94819966D01*
X195707767Y-104471000D01*
X195618100Y-104471000D01*
X195618100Y-103008921D01*
X195618100Y-101918279D01*
X195511760Y-101383670D01*
X195208928Y-100930451D01*
X195102325Y-100859220D01*
X195102325Y-95586930D01*
X194310000Y-94794605D01*
X193517675Y-95586930D01*
X193585735Y-95827931D01*
X194105034Y-96012767D01*
X194655538Y-95984805D01*
X195034265Y-95827931D01*
X195102325Y-95586930D01*
X195102325Y-100859220D01*
X194755709Y-100627619D01*
X194221100Y-100521279D01*
X193686491Y-100627619D01*
X193233272Y-100930451D01*
X192941770Y-101366713D01*
X192923159Y-101303659D01*
X192579126Y-100877970D01*
X192098377Y-100616340D01*
X192024170Y-100601380D01*
X191808100Y-100723880D01*
X191808100Y-102336600D01*
X191828100Y-102336600D01*
X191828100Y-102590600D01*
X191808100Y-102590600D01*
X191808100Y-104203320D01*
X192024170Y-104325820D01*
X192098377Y-104310860D01*
X192579126Y-104049230D01*
X192923159Y-103623541D01*
X192941770Y-103560486D01*
X193233272Y-103996749D01*
X193686491Y-104299581D01*
X194221100Y-104405921D01*
X194755709Y-104299581D01*
X195208928Y-103996749D01*
X195511760Y-103543530D01*
X195618100Y-103008921D01*
X195618100Y-104471000D01*
X191554100Y-104471000D01*
X191554100Y-104203320D01*
X191554100Y-102590600D01*
X191554100Y-102336600D01*
X191554100Y-100723880D01*
X191338030Y-100601380D01*
X191263823Y-100616340D01*
X190783074Y-100877970D01*
X190439041Y-101303659D01*
X190411100Y-101398323D01*
X190383159Y-101303659D01*
X190039126Y-100877970D01*
X189558377Y-100616340D01*
X189484170Y-100601380D01*
X189268100Y-100723880D01*
X189268100Y-102336600D01*
X190284100Y-102336600D01*
X190538100Y-102336600D01*
X191554100Y-102336600D01*
X191554100Y-102590600D01*
X190538100Y-102590600D01*
X190284100Y-102590600D01*
X189268100Y-102590600D01*
X189268100Y-104203320D01*
X189484170Y-104325820D01*
X189558377Y-104310860D01*
X190039126Y-104049230D01*
X190383159Y-103623541D01*
X190411100Y-103528876D01*
X190439041Y-103623541D01*
X190783074Y-104049230D01*
X191263823Y-104310860D01*
X191338030Y-104325820D01*
X191554100Y-104203320D01*
X191554100Y-104471000D01*
X163432755Y-104471000D01*
X163728400Y-104348842D01*
X164354145Y-103724189D01*
X164693213Y-102907622D01*
X164693985Y-102023457D01*
X164356342Y-101206300D01*
X163731689Y-100580555D01*
X162915122Y-100241487D01*
X162289774Y-100240940D01*
X162289774Y-94291306D01*
X162041462Y-93690345D01*
X161582073Y-93230154D01*
X161093567Y-93027309D01*
X161579655Y-92826462D01*
X162039846Y-92367073D01*
X162289206Y-91766547D01*
X162289774Y-91116306D01*
X162139888Y-90753554D01*
X162139888Y-87970984D01*
X162139888Y-84795984D01*
X161914342Y-84250123D01*
X161497074Y-83832126D01*
X160951607Y-83605628D01*
X160360984Y-83605112D01*
X159815123Y-83830658D01*
X159749774Y-83895893D01*
X159749774Y-73971306D01*
X159749774Y-62541306D01*
X159749774Y-58731306D01*
X159501462Y-58130345D01*
X159042073Y-57670154D01*
X158441547Y-57420794D01*
X157791306Y-57420226D01*
X157190345Y-57668538D01*
X156730154Y-58127927D01*
X156480794Y-58728453D01*
X156480226Y-59378694D01*
X156728538Y-59979655D01*
X157187927Y-60439846D01*
X157788453Y-60689206D01*
X158438694Y-60689774D01*
X159039655Y-60441462D01*
X159499846Y-59982073D01*
X159749206Y-59381547D01*
X159749774Y-58731306D01*
X159749774Y-62541306D01*
X159501462Y-61940345D01*
X159042073Y-61480154D01*
X158441547Y-61230794D01*
X157791306Y-61230226D01*
X157190345Y-61478538D01*
X156730154Y-61937927D01*
X156480794Y-62538453D01*
X156480226Y-63188694D01*
X156728538Y-63789655D01*
X157187927Y-64249846D01*
X157788453Y-64499206D01*
X158438694Y-64499774D01*
X159039655Y-64251462D01*
X159499846Y-63792073D01*
X159749206Y-63191547D01*
X159749774Y-62541306D01*
X159749774Y-73971306D01*
X159612070Y-73638036D01*
X159612070Y-66889630D01*
X159612070Y-65190370D01*
X159565093Y-64948247D01*
X159425303Y-64735443D01*
X159214270Y-64592993D01*
X158964630Y-64542930D01*
X157265370Y-64542930D01*
X157023247Y-64589907D01*
X156810443Y-64729697D01*
X156667993Y-64940730D01*
X156617930Y-65190370D01*
X156617930Y-66889630D01*
X156664907Y-67131753D01*
X156804697Y-67344557D01*
X157015730Y-67487007D01*
X157265370Y-67537070D01*
X158964630Y-67537070D01*
X159206753Y-67490093D01*
X159419557Y-67350303D01*
X159562007Y-67139270D01*
X159612070Y-66889630D01*
X159612070Y-73638036D01*
X159599888Y-73608554D01*
X159599888Y-68920984D01*
X159374342Y-68375123D01*
X158957074Y-67957126D01*
X158411607Y-67730628D01*
X157820984Y-67730112D01*
X157275123Y-67955658D01*
X156857126Y-68372926D01*
X156630628Y-68918393D01*
X156630112Y-69509016D01*
X156855658Y-70054877D01*
X157272926Y-70472874D01*
X157818393Y-70699372D01*
X158409016Y-70699888D01*
X158954877Y-70474342D01*
X159372874Y-70057074D01*
X159599372Y-69511607D01*
X159599888Y-68920984D01*
X159599888Y-73608554D01*
X159501462Y-73370345D01*
X159042073Y-72910154D01*
X158441547Y-72660794D01*
X157791306Y-72660226D01*
X157190345Y-72908538D01*
X156730154Y-73367927D01*
X156480794Y-73968453D01*
X156480226Y-74618694D01*
X156728538Y-75219655D01*
X157187927Y-75679846D01*
X157788453Y-75929206D01*
X158438694Y-75929774D01*
X159039655Y-75681462D01*
X159499846Y-75222073D01*
X159749206Y-74621547D01*
X159749774Y-73971306D01*
X159749774Y-83895893D01*
X159611350Y-84034075D01*
X159611350Y-78333633D01*
X159584941Y-77743601D01*
X159409953Y-77321142D01*
X159158690Y-77240915D01*
X158979085Y-77420520D01*
X158979085Y-77061310D01*
X158898858Y-76810047D01*
X158343633Y-76608650D01*
X157753601Y-76635059D01*
X157331142Y-76810047D01*
X157250915Y-77061310D01*
X158115000Y-77925395D01*
X158979085Y-77061310D01*
X158979085Y-77420520D01*
X158294605Y-78105000D01*
X159158690Y-78969085D01*
X159409953Y-78888858D01*
X159611350Y-78333633D01*
X159611350Y-84034075D01*
X159397126Y-84247926D01*
X159170628Y-84793393D01*
X159170112Y-85384016D01*
X159395658Y-85929877D01*
X159812926Y-86347874D01*
X160358393Y-86574372D01*
X160949016Y-86574888D01*
X161494877Y-86349342D01*
X161912874Y-85932074D01*
X162139372Y-85386607D01*
X162139888Y-84795984D01*
X162139888Y-87970984D01*
X161914342Y-87425123D01*
X161497074Y-87007126D01*
X160951607Y-86780628D01*
X160360984Y-86780112D01*
X159815123Y-87005658D01*
X159397126Y-87422926D01*
X159170628Y-87968393D01*
X159170112Y-88559016D01*
X159395658Y-89104877D01*
X159812926Y-89522874D01*
X160358393Y-89749372D01*
X160949016Y-89749888D01*
X161494877Y-89524342D01*
X161912874Y-89107074D01*
X162139372Y-88561607D01*
X162139888Y-87970984D01*
X162139888Y-90753554D01*
X162041462Y-90515345D01*
X161582073Y-90055154D01*
X160981547Y-89805794D01*
X160331306Y-89805226D01*
X159730345Y-90053538D01*
X159270154Y-90512927D01*
X159020794Y-91113453D01*
X159020226Y-91763694D01*
X159268538Y-92364655D01*
X159727927Y-92824846D01*
X160216432Y-93027690D01*
X159730345Y-93228538D01*
X159270154Y-93687927D01*
X159020794Y-94288453D01*
X159020226Y-94938694D01*
X159268538Y-95539655D01*
X159727927Y-95999846D01*
X160328453Y-96249206D01*
X160978694Y-96249774D01*
X161579655Y-96001462D01*
X162039846Y-95542073D01*
X162289206Y-94941547D01*
X162289774Y-94291306D01*
X162289774Y-100240940D01*
X162030957Y-100240715D01*
X161213800Y-100578358D01*
X160588055Y-101203011D01*
X160248987Y-102019578D01*
X160248215Y-102903743D01*
X160585858Y-103720900D01*
X161210511Y-104346645D01*
X161509991Y-104471000D01*
X158979085Y-104471000D01*
X158979085Y-79148690D01*
X158115000Y-78284605D01*
X157935395Y-78464210D01*
X157935395Y-78105000D01*
X157071310Y-77240915D01*
X156820047Y-77321142D01*
X156618650Y-77876367D01*
X156645059Y-78466399D01*
X156820047Y-78888858D01*
X157071310Y-78969085D01*
X157935395Y-78105000D01*
X157935395Y-78464210D01*
X157250915Y-79148690D01*
X157331142Y-79399953D01*
X157886367Y-79601350D01*
X158476399Y-79574941D01*
X158898858Y-79399953D01*
X158979085Y-79148690D01*
X158979085Y-104471000D01*
X157737959Y-104471000D01*
X157737959Y-94615000D01*
X157623885Y-94041511D01*
X157299029Y-93555330D01*
X156812848Y-93230474D01*
X156239359Y-93116400D01*
X156180641Y-93116400D01*
X155607152Y-93230474D01*
X155333440Y-93413362D01*
X155333440Y-75311000D01*
X155333440Y-73279000D01*
X155333440Y-60071000D01*
X155333440Y-58039000D01*
X155286463Y-57796877D01*
X155146673Y-57584073D01*
X154986956Y-57476262D01*
X155076385Y-57379818D01*
X155275975Y-56897944D01*
X155275975Y-56132056D01*
X155076385Y-55650182D01*
X154638379Y-55177812D01*
X154052946Y-54909017D01*
X153797000Y-55027633D01*
X153797000Y-56388000D01*
X155156836Y-56388000D01*
X155275975Y-56132056D01*
X155275975Y-56897944D01*
X155156836Y-56642000D01*
X153797000Y-56642000D01*
X153797000Y-56662000D01*
X153543000Y-56662000D01*
X153543000Y-56642000D01*
X153543000Y-56388000D01*
X153543000Y-55027633D01*
X153287054Y-54909017D01*
X152701621Y-55177812D01*
X152263615Y-55650182D01*
X152064025Y-56132056D01*
X152183164Y-56388000D01*
X153543000Y-56388000D01*
X153543000Y-56642000D01*
X152183164Y-56642000D01*
X152064025Y-56897944D01*
X152263615Y-57379818D01*
X152353574Y-57476835D01*
X152199073Y-57578327D01*
X152056623Y-57789360D01*
X152006560Y-58039000D01*
X152006560Y-60071000D01*
X152053537Y-60313123D01*
X152193327Y-60525927D01*
X152404360Y-60668377D01*
X152654000Y-60718440D01*
X154686000Y-60718440D01*
X154928123Y-60671463D01*
X155140927Y-60531673D01*
X155283377Y-60320640D01*
X155333440Y-60071000D01*
X155333440Y-73279000D01*
X155286463Y-73036877D01*
X155146673Y-72824073D01*
X154986956Y-72716262D01*
X155076385Y-72619818D01*
X155275975Y-72137944D01*
X155275975Y-71372056D01*
X155076385Y-70890182D01*
X154638379Y-70417812D01*
X154052946Y-70149017D01*
X153797000Y-70267633D01*
X153797000Y-71628000D01*
X155156836Y-71628000D01*
X155275975Y-71372056D01*
X155275975Y-72137944D01*
X155156836Y-71882000D01*
X153797000Y-71882000D01*
X153797000Y-71902000D01*
X153543000Y-71902000D01*
X153543000Y-71882000D01*
X153543000Y-71628000D01*
X153543000Y-70267633D01*
X153287054Y-70149017D01*
X152701621Y-70417812D01*
X152263615Y-70890182D01*
X152064025Y-71372056D01*
X152183164Y-71628000D01*
X153543000Y-71628000D01*
X153543000Y-71882000D01*
X152183164Y-71882000D01*
X152064025Y-72137944D01*
X152263615Y-72619818D01*
X152353574Y-72716835D01*
X152199073Y-72818327D01*
X152056623Y-73029360D01*
X152006560Y-73279000D01*
X152006560Y-75311000D01*
X152053537Y-75553123D01*
X152193327Y-75765927D01*
X152404360Y-75908377D01*
X152654000Y-75958440D01*
X154686000Y-75958440D01*
X154928123Y-75911463D01*
X155140927Y-75771673D01*
X155283377Y-75560640D01*
X155333440Y-75311000D01*
X155333440Y-93413362D01*
X155120971Y-93555330D01*
X154940007Y-93826160D01*
X154558490Y-93408179D01*
X154029027Y-93160032D01*
X153797000Y-93280531D01*
X153797000Y-94488000D01*
X153817000Y-94488000D01*
X153817000Y-94742000D01*
X153797000Y-94742000D01*
X153797000Y-95820531D01*
X153797000Y-95949469D01*
X153797000Y-97028000D01*
X153817000Y-97028000D01*
X153817000Y-97282000D01*
X153797000Y-97282000D01*
X153797000Y-98489469D01*
X154029027Y-98609968D01*
X154558490Y-98361821D01*
X154729253Y-98174736D01*
X154745937Y-98260723D01*
X154885727Y-98473527D01*
X155096760Y-98615977D01*
X155346400Y-98666040D01*
X157073600Y-98666040D01*
X157315723Y-98619063D01*
X157528527Y-98479273D01*
X157670977Y-98268240D01*
X157721040Y-98018600D01*
X157721040Y-96291400D01*
X157674063Y-96049277D01*
X157534273Y-95836473D01*
X157323240Y-95694023D01*
X157282340Y-95685820D01*
X157299029Y-95674670D01*
X157623885Y-95188489D01*
X157737959Y-94615000D01*
X157737959Y-104471000D01*
X153543000Y-104471000D01*
X153543000Y-98489469D01*
X153543000Y-97282000D01*
X153543000Y-97028000D01*
X153543000Y-95949469D01*
X153543000Y-95820531D01*
X153543000Y-94742000D01*
X153543000Y-94488000D01*
X153543000Y-93280531D01*
X153310973Y-93160032D01*
X152781510Y-93408179D01*
X152387312Y-93840053D01*
X152215042Y-94255974D01*
X152336183Y-94488000D01*
X153543000Y-94488000D01*
X153543000Y-94742000D01*
X152336183Y-94742000D01*
X152215042Y-94974026D01*
X152387312Y-95389947D01*
X152781510Y-95821821D01*
X152916312Y-95885000D01*
X152781510Y-95948179D01*
X152387312Y-96380053D01*
X152215042Y-96795974D01*
X152336183Y-97028000D01*
X153543000Y-97028000D01*
X153543000Y-97282000D01*
X152336183Y-97282000D01*
X152215042Y-97514026D01*
X152387312Y-97929947D01*
X152781510Y-98361821D01*
X153310973Y-98609968D01*
X153543000Y-98489469D01*
X153543000Y-104471000D01*
X149021000Y-104471000D01*
X149021000Y-52247000D01*
X162656499Y-52247000D01*
X162483800Y-52318358D01*
X161858055Y-52943011D01*
X161518987Y-53759578D01*
X161518215Y-54643743D01*
X161855858Y-55460900D01*
X162480511Y-56086645D01*
X163297078Y-56425713D01*
X164181243Y-56426485D01*
X164998400Y-56088842D01*
X165624145Y-55464189D01*
X165906917Y-54783196D01*
X166006440Y-55283530D01*
X166309272Y-55736749D01*
X166762491Y-56039581D01*
X167297100Y-56145921D01*
X167831709Y-56039581D01*
X168284928Y-55736749D01*
X168567100Y-55314449D01*
X168849272Y-55736749D01*
X169302491Y-56039581D01*
X169837100Y-56145921D01*
X170371709Y-56039581D01*
X170824928Y-55736749D01*
X171107100Y-55314449D01*
X171389272Y-55736749D01*
X171842491Y-56039581D01*
X172377100Y-56145921D01*
X172911709Y-56039581D01*
X173364928Y-55736749D01*
X173656429Y-55300486D01*
X173675041Y-55363541D01*
X174019074Y-55789230D01*
X174499823Y-56050860D01*
X174574030Y-56065820D01*
X174790100Y-55943320D01*
X174790100Y-54330600D01*
X174770100Y-54330600D01*
X174770100Y-54076600D01*
X174790100Y-54076600D01*
X174790100Y-52463880D01*
X174574030Y-52341380D01*
X174499823Y-52356340D01*
X174019074Y-52617970D01*
X173675041Y-53043659D01*
X173656429Y-53106713D01*
X173364928Y-52670451D01*
X172911709Y-52367619D01*
X172377100Y-52261279D01*
X171842491Y-52367619D01*
X171389272Y-52670451D01*
X171107100Y-53092750D01*
X170824928Y-52670451D01*
X170371709Y-52367619D01*
X169837100Y-52261279D01*
X169302491Y-52367619D01*
X168849272Y-52670451D01*
X168567100Y-53092750D01*
X168284928Y-52670451D01*
X167831709Y-52367619D01*
X167297100Y-52261279D01*
X166762491Y-52367619D01*
X166309272Y-52670451D01*
X166006440Y-53123670D01*
X165906737Y-53624908D01*
X165626342Y-52946300D01*
X165001689Y-52320555D01*
X164824548Y-52247000D01*
X216739000Y-52247000D01*
X216739000Y-68942988D01*
X216426342Y-68186300D01*
X215801689Y-67560555D01*
X214985122Y-67221487D01*
X214100957Y-67220715D01*
X213398100Y-67511130D01*
X213398100Y-54748921D01*
X213398100Y-53658279D01*
X213291760Y-53123670D01*
X212988928Y-52670451D01*
X212535709Y-52367619D01*
X212001100Y-52261279D01*
X211466491Y-52367619D01*
X211013272Y-52670451D01*
X210731100Y-53092750D01*
X210448928Y-52670451D01*
X209995709Y-52367619D01*
X209461100Y-52261279D01*
X208926491Y-52367619D01*
X208473272Y-52670451D01*
X208191100Y-53092750D01*
X207908928Y-52670451D01*
X207455709Y-52367619D01*
X206921100Y-52261279D01*
X206386491Y-52367619D01*
X205933272Y-52670451D01*
X205651100Y-53092750D01*
X205368928Y-52670451D01*
X204915709Y-52367619D01*
X204381100Y-52261279D01*
X203846491Y-52367619D01*
X203393272Y-52670451D01*
X203111100Y-53092750D01*
X202828928Y-52670451D01*
X202375709Y-52367619D01*
X201841100Y-52261279D01*
X201306491Y-52367619D01*
X200853272Y-52670451D01*
X200571100Y-53092750D01*
X200288928Y-52670451D01*
X199835709Y-52367619D01*
X199301100Y-52261279D01*
X198766491Y-52367619D01*
X198313272Y-52670451D01*
X198031100Y-53092750D01*
X197748928Y-52670451D01*
X197295709Y-52367619D01*
X196761100Y-52261279D01*
X196226491Y-52367619D01*
X195773272Y-52670451D01*
X195491100Y-53092750D01*
X195208928Y-52670451D01*
X194755709Y-52367619D01*
X194221100Y-52261279D01*
X193686491Y-52367619D01*
X193233272Y-52670451D01*
X192930440Y-53123670D01*
X192824100Y-53658279D01*
X192824100Y-54748921D01*
X192930440Y-55283530D01*
X193233272Y-55736749D01*
X193686491Y-56039581D01*
X194221100Y-56145921D01*
X194755709Y-56039581D01*
X195208928Y-55736749D01*
X195491100Y-55314449D01*
X195773272Y-55736749D01*
X196226491Y-56039581D01*
X196761100Y-56145921D01*
X197295709Y-56039581D01*
X197748928Y-55736749D01*
X198031100Y-55314449D01*
X198313272Y-55736749D01*
X198766491Y-56039581D01*
X199301100Y-56145921D01*
X199835709Y-56039581D01*
X200288928Y-55736749D01*
X200571100Y-55314449D01*
X200853272Y-55736749D01*
X201306491Y-56039581D01*
X201841100Y-56145921D01*
X202375709Y-56039581D01*
X202828928Y-55736749D01*
X203111100Y-55314449D01*
X203393272Y-55736749D01*
X203846491Y-56039581D01*
X204381100Y-56145921D01*
X204915709Y-56039581D01*
X205368928Y-55736749D01*
X205651100Y-55314449D01*
X205933272Y-55736749D01*
X206386491Y-56039581D01*
X206921100Y-56145921D01*
X207455709Y-56039581D01*
X207908928Y-55736749D01*
X208191100Y-55314449D01*
X208473272Y-55736749D01*
X208926491Y-56039581D01*
X209461100Y-56145921D01*
X209995709Y-56039581D01*
X210448928Y-55736749D01*
X210731100Y-55314449D01*
X211013272Y-55736749D01*
X211466491Y-56039581D01*
X212001100Y-56145921D01*
X212535709Y-56039581D01*
X212988928Y-55736749D01*
X213291760Y-55283530D01*
X213398100Y-54748921D01*
X213398100Y-67511130D01*
X213283800Y-67558358D01*
X212658055Y-68183011D01*
X212318987Y-68999578D01*
X212318215Y-69883743D01*
X212655858Y-70700900D01*
X213280511Y-71326645D01*
X214097078Y-71665713D01*
X214981243Y-71666485D01*
X215798400Y-71328842D01*
X216424145Y-70704189D01*
X216739000Y-69945933D01*
X216739000Y-96882988D01*
X216426342Y-96126300D01*
X216025000Y-95724256D01*
X216025000Y-87630000D01*
X216025000Y-77470000D01*
X215967148Y-77179161D01*
X215802401Y-76932599D01*
X215555839Y-76767852D01*
X215265000Y-76710000D01*
X204834774Y-76710000D01*
X204834774Y-72066306D01*
X204834774Y-61906306D01*
X204586462Y-61305345D01*
X204127073Y-60845154D01*
X203526547Y-60595794D01*
X202876306Y-60595226D01*
X202275345Y-60843538D01*
X201815154Y-61302927D01*
X201612309Y-61791432D01*
X201411462Y-61305345D01*
X200952073Y-60845154D01*
X200351547Y-60595794D01*
X199701306Y-60595226D01*
X199100345Y-60843538D01*
X198640154Y-61302927D01*
X198437309Y-61791432D01*
X198236462Y-61305345D01*
X197777073Y-60845154D01*
X197176547Y-60595794D01*
X196526306Y-60595226D01*
X195925345Y-60843538D01*
X195465154Y-61302927D01*
X195262309Y-61791432D01*
X195061462Y-61305345D01*
X194602073Y-60845154D01*
X194001547Y-60595794D01*
X193351306Y-60595226D01*
X192750345Y-60843538D01*
X192290154Y-61302927D01*
X192087309Y-61791432D01*
X191886462Y-61305345D01*
X191554100Y-60972402D01*
X191554100Y-54748921D01*
X191554100Y-53658279D01*
X191447760Y-53123670D01*
X191144928Y-52670451D01*
X190691709Y-52367619D01*
X190157100Y-52261279D01*
X189622491Y-52367619D01*
X189169272Y-52670451D01*
X188887100Y-53092750D01*
X188604928Y-52670451D01*
X188151709Y-52367619D01*
X187617100Y-52261279D01*
X187082491Y-52367619D01*
X186629272Y-52670451D01*
X186347100Y-53092750D01*
X186064928Y-52670451D01*
X185611709Y-52367619D01*
X185077100Y-52261279D01*
X184542491Y-52367619D01*
X184089272Y-52670451D01*
X183807100Y-53092750D01*
X183524928Y-52670451D01*
X183071709Y-52367619D01*
X182537100Y-52261279D01*
X182002491Y-52367619D01*
X181549272Y-52670451D01*
X181267100Y-53092750D01*
X180984928Y-52670451D01*
X180531709Y-52367619D01*
X179997100Y-52261279D01*
X179462491Y-52367619D01*
X179009272Y-52670451D01*
X178727100Y-53092750D01*
X178444928Y-52670451D01*
X177991709Y-52367619D01*
X177457100Y-52261279D01*
X176922491Y-52367619D01*
X176469272Y-52670451D01*
X176177770Y-53106713D01*
X176159159Y-53043659D01*
X175815126Y-52617970D01*
X175334377Y-52356340D01*
X175260170Y-52341380D01*
X175044100Y-52463880D01*
X175044100Y-54076600D01*
X175064100Y-54076600D01*
X175064100Y-54330600D01*
X175044100Y-54330600D01*
X175044100Y-55943320D01*
X175260170Y-56065820D01*
X175334377Y-56050860D01*
X175815126Y-55789230D01*
X176159159Y-55363541D01*
X176177770Y-55300486D01*
X176469272Y-55736749D01*
X176922491Y-56039581D01*
X177457100Y-56145921D01*
X177991709Y-56039581D01*
X178444928Y-55736749D01*
X178727100Y-55314449D01*
X179009272Y-55736749D01*
X179462491Y-56039581D01*
X179997100Y-56145921D01*
X180531709Y-56039581D01*
X180984928Y-55736749D01*
X181267100Y-55314449D01*
X181549272Y-55736749D01*
X182002491Y-56039581D01*
X182537100Y-56145921D01*
X183071709Y-56039581D01*
X183524928Y-55736749D01*
X183807100Y-55314449D01*
X184089272Y-55736749D01*
X184542491Y-56039581D01*
X185077100Y-56145921D01*
X185611709Y-56039581D01*
X186064928Y-55736749D01*
X186347100Y-55314449D01*
X186629272Y-55736749D01*
X187082491Y-56039581D01*
X187617100Y-56145921D01*
X188151709Y-56039581D01*
X188604928Y-55736749D01*
X188887100Y-55314449D01*
X189169272Y-55736749D01*
X189622491Y-56039581D01*
X190157100Y-56145921D01*
X190691709Y-56039581D01*
X191144928Y-55736749D01*
X191447760Y-55283530D01*
X191554100Y-54748921D01*
X191554100Y-60972402D01*
X191427073Y-60845154D01*
X190826547Y-60595794D01*
X190176306Y-60595226D01*
X189575345Y-60843538D01*
X189115154Y-61302927D01*
X188912309Y-61791432D01*
X188711462Y-61305345D01*
X188252073Y-60845154D01*
X187651547Y-60595794D01*
X187001306Y-60595226D01*
X186400345Y-60843538D01*
X185940154Y-61302927D01*
X185690794Y-61903453D01*
X185690226Y-62553694D01*
X185938538Y-63154655D01*
X186397927Y-63614846D01*
X186998453Y-63864206D01*
X187648694Y-63864774D01*
X188249655Y-63616462D01*
X188709846Y-63157073D01*
X188912690Y-62668567D01*
X189113538Y-63154655D01*
X189572927Y-63614846D01*
X190173453Y-63864206D01*
X190823694Y-63864774D01*
X191424655Y-63616462D01*
X191884846Y-63157073D01*
X192087690Y-62668567D01*
X192288538Y-63154655D01*
X192747927Y-63614846D01*
X193348453Y-63864206D01*
X193998694Y-63864774D01*
X194599655Y-63616462D01*
X195059846Y-63157073D01*
X195262690Y-62668567D01*
X195463538Y-63154655D01*
X195922927Y-63614846D01*
X196523453Y-63864206D01*
X197173694Y-63864774D01*
X197774655Y-63616462D01*
X198234846Y-63157073D01*
X198437690Y-62668567D01*
X198638538Y-63154655D01*
X199097927Y-63614846D01*
X199698453Y-63864206D01*
X200348694Y-63864774D01*
X200949655Y-63616462D01*
X201409846Y-63157073D01*
X201612690Y-62668567D01*
X201813538Y-63154655D01*
X202272927Y-63614846D01*
X202873453Y-63864206D01*
X203523694Y-63864774D01*
X204124655Y-63616462D01*
X204584846Y-63157073D01*
X204834206Y-62556547D01*
X204834774Y-61906306D01*
X204834774Y-72066306D01*
X204586462Y-71465345D01*
X204127073Y-71005154D01*
X203526547Y-70755794D01*
X202876306Y-70755226D01*
X202275345Y-71003538D01*
X201815154Y-71462927D01*
X201612309Y-71951432D01*
X201411462Y-71465345D01*
X200952073Y-71005154D01*
X200351547Y-70755794D01*
X199701306Y-70755226D01*
X199100345Y-71003538D01*
X198640154Y-71462927D01*
X198437309Y-71951432D01*
X198236462Y-71465345D01*
X197777073Y-71005154D01*
X197176547Y-70755794D01*
X196526306Y-70755226D01*
X195925345Y-71003538D01*
X195465154Y-71462927D01*
X195262309Y-71951432D01*
X195061462Y-71465345D01*
X194602073Y-71005154D01*
X194001547Y-70755794D01*
X193351306Y-70755226D01*
X192750345Y-71003538D01*
X192290154Y-71462927D01*
X192087309Y-71951432D01*
X191886462Y-71465345D01*
X191427073Y-71005154D01*
X190826547Y-70755794D01*
X190176306Y-70755226D01*
X189575345Y-71003538D01*
X189115154Y-71462927D01*
X188912309Y-71951432D01*
X188711462Y-71465345D01*
X188252073Y-71005154D01*
X187651547Y-70755794D01*
X187001306Y-70755226D01*
X186400345Y-71003538D01*
X185940154Y-71462927D01*
X185690794Y-72063453D01*
X185690226Y-72713694D01*
X185938538Y-73314655D01*
X186397927Y-73774846D01*
X186998453Y-74024206D01*
X187648694Y-74024774D01*
X188249655Y-73776462D01*
X188709846Y-73317073D01*
X188912690Y-72828567D01*
X189113538Y-73314655D01*
X189572927Y-73774846D01*
X190173453Y-74024206D01*
X190823694Y-74024774D01*
X191424655Y-73776462D01*
X191884846Y-73317073D01*
X192087690Y-72828567D01*
X192288538Y-73314655D01*
X192747927Y-73774846D01*
X193348453Y-74024206D01*
X193998694Y-74024774D01*
X194599655Y-73776462D01*
X195059846Y-73317073D01*
X195262690Y-72828567D01*
X195463538Y-73314655D01*
X195922927Y-73774846D01*
X196523453Y-74024206D01*
X197173694Y-74024774D01*
X197774655Y-73776462D01*
X198234846Y-73317073D01*
X198437690Y-72828567D01*
X198638538Y-73314655D01*
X199097927Y-73774846D01*
X199698453Y-74024206D01*
X200348694Y-74024774D01*
X200949655Y-73776462D01*
X201409846Y-73317073D01*
X201612690Y-72828567D01*
X201813538Y-73314655D01*
X202272927Y-73774846D01*
X202873453Y-74024206D01*
X203523694Y-74024774D01*
X204124655Y-73776462D01*
X204584846Y-73317073D01*
X204834206Y-72716547D01*
X204834774Y-72066306D01*
X204834774Y-76710000D01*
X192405000Y-76710000D01*
X192114161Y-76767852D01*
X191867599Y-76932599D01*
X191702852Y-77179161D01*
X191684985Y-77268982D01*
X191480345Y-77353538D01*
X191020154Y-77812927D01*
X190770794Y-78413453D01*
X190770226Y-79063694D01*
X191018538Y-79664655D01*
X191477927Y-80124846D01*
X192078453Y-80374206D01*
X192728694Y-80374774D01*
X193329655Y-80126462D01*
X193789846Y-79667073D01*
X194039206Y-79066547D01*
X194039774Y-78416306D01*
X193962793Y-78230000D01*
X214505000Y-78230000D01*
X214505000Y-86870000D01*
X213379262Y-86870000D01*
X213179029Y-86570330D01*
X212864248Y-86360000D01*
X213179029Y-86149670D01*
X213503885Y-85663489D01*
X213617959Y-85090000D01*
X213503885Y-84516511D01*
X213225000Y-84099130D01*
X213225000Y-83540869D01*
X213503885Y-83123489D01*
X213617959Y-82550000D01*
X213503885Y-81976511D01*
X213225000Y-81559130D01*
X213225000Y-80010000D01*
X213138603Y-79575654D01*
X212892566Y-79207434D01*
X212524346Y-78961397D01*
X212090000Y-78875000D01*
X207010000Y-78875000D01*
X206575654Y-78961397D01*
X206207434Y-79207434D01*
X205961397Y-79575654D01*
X205875000Y-80010000D01*
X205875000Y-82685000D01*
X196215000Y-82685000D01*
X195780654Y-82771397D01*
X195412434Y-83017434D01*
X190967434Y-87462434D01*
X190721397Y-87830654D01*
X190635000Y-88265000D01*
X190635000Y-93790236D01*
X190596056Y-93829113D01*
X190384671Y-94338184D01*
X190384621Y-94395246D01*
X188670967Y-96108900D01*
X186950291Y-96108900D01*
X186946545Y-96106397D01*
X186512200Y-96020000D01*
X186430401Y-96036270D01*
X186430401Y-91704418D01*
X186430401Y-88529418D01*
X186406341Y-87879623D01*
X186281350Y-87577866D01*
X186281350Y-85318633D01*
X186254941Y-84728601D01*
X186079953Y-84306142D01*
X185828690Y-84225915D01*
X185649085Y-84405520D01*
X185649085Y-84046310D01*
X185568858Y-83795047D01*
X185013633Y-83593650D01*
X184423601Y-83620059D01*
X184001142Y-83795047D01*
X183920915Y-84046310D01*
X184785000Y-84910395D01*
X185649085Y-84046310D01*
X185649085Y-84405520D01*
X184964605Y-85090000D01*
X185828690Y-85954085D01*
X186079953Y-85873858D01*
X186281350Y-85318633D01*
X186281350Y-87577866D01*
X186203965Y-87391042D01*
X185937163Y-87292443D01*
X185757557Y-87472048D01*
X185757557Y-87112837D01*
X185658958Y-86846035D01*
X185649085Y-86842367D01*
X185649085Y-86133690D01*
X184785000Y-85269605D01*
X184605395Y-85449210D01*
X184605395Y-85090000D01*
X183879774Y-84364379D01*
X183879774Y-78416306D01*
X183631462Y-77815345D01*
X183172073Y-77355154D01*
X182571547Y-77105794D01*
X181921306Y-77105226D01*
X181320345Y-77353538D01*
X180860154Y-77812927D01*
X180610794Y-78413453D01*
X180610226Y-79063694D01*
X180858538Y-79664655D01*
X181317927Y-80124846D01*
X181918453Y-80374206D01*
X182568694Y-80374774D01*
X183169655Y-80126462D01*
X183629846Y-79667073D01*
X183879206Y-79066547D01*
X183879774Y-78416306D01*
X183879774Y-84364379D01*
X183741310Y-84225915D01*
X183490047Y-84306142D01*
X183288650Y-84861367D01*
X183315059Y-85451399D01*
X183490047Y-85873858D01*
X183741310Y-85954085D01*
X184605395Y-85090000D01*
X184605395Y-85449210D01*
X183920915Y-86133690D01*
X184001142Y-86384953D01*
X184556367Y-86586350D01*
X185146399Y-86559941D01*
X185568858Y-86384953D01*
X185649085Y-86133690D01*
X185649085Y-86842367D01*
X185049418Y-86619599D01*
X184399623Y-86643659D01*
X183911042Y-86846035D01*
X183812443Y-87112837D01*
X184785000Y-88085395D01*
X185757557Y-87112837D01*
X185757557Y-87472048D01*
X184964605Y-88265000D01*
X185937163Y-89237557D01*
X186203965Y-89138958D01*
X186430401Y-88529418D01*
X186430401Y-91704418D01*
X186406341Y-91054623D01*
X186203965Y-90566042D01*
X185937163Y-90467443D01*
X185757557Y-90647048D01*
X185757557Y-90287837D01*
X185658958Y-90021035D01*
X185229951Y-89861664D01*
X185658958Y-89683965D01*
X185757557Y-89417163D01*
X184785000Y-88444605D01*
X184605395Y-88624210D01*
X184605395Y-88265000D01*
X183632837Y-87292443D01*
X183366035Y-87391042D01*
X183139599Y-88000582D01*
X183163659Y-88650377D01*
X183366035Y-89138958D01*
X183632837Y-89237557D01*
X184605395Y-88265000D01*
X184605395Y-88624210D01*
X183812443Y-89417163D01*
X183911042Y-89683965D01*
X184340048Y-89843335D01*
X183911042Y-90021035D01*
X183812443Y-90287837D01*
X184785000Y-91260395D01*
X185757557Y-90287837D01*
X185757557Y-90647048D01*
X184964605Y-91440000D01*
X185937163Y-92412557D01*
X186203965Y-92313958D01*
X186430401Y-91704418D01*
X186430401Y-96036270D01*
X186281350Y-96065919D01*
X186281350Y-94843633D01*
X186254941Y-94253601D01*
X186079953Y-93831142D01*
X185828690Y-93750915D01*
X185757557Y-93822048D01*
X185757557Y-92592163D01*
X184785000Y-91619605D01*
X184605395Y-91799210D01*
X184605395Y-91440000D01*
X183632837Y-90467443D01*
X183366035Y-90566042D01*
X183139599Y-91175582D01*
X183163659Y-91825377D01*
X183366035Y-92313958D01*
X183632837Y-92412557D01*
X184605395Y-91440000D01*
X184605395Y-91799210D01*
X183812443Y-92592163D01*
X183911042Y-92858965D01*
X184520582Y-93085401D01*
X185170377Y-93061341D01*
X185658958Y-92858965D01*
X185757557Y-92592163D01*
X185757557Y-93822048D01*
X185649085Y-93930520D01*
X185649085Y-93571310D01*
X185568858Y-93320047D01*
X185013633Y-93118650D01*
X184423601Y-93145059D01*
X184001142Y-93320047D01*
X183920915Y-93571310D01*
X184785000Y-94435395D01*
X185649085Y-93571310D01*
X185649085Y-93930520D01*
X184964605Y-94615000D01*
X185828690Y-95479085D01*
X186079953Y-95398858D01*
X186281350Y-94843633D01*
X186281350Y-96065919D01*
X186077855Y-96106397D01*
X186074108Y-96108900D01*
X184611105Y-96108900D01*
X185146399Y-96084941D01*
X185568858Y-95909953D01*
X185649085Y-95658690D01*
X184785000Y-94794605D01*
X184605395Y-94974210D01*
X184605395Y-94615000D01*
X183741310Y-93750915D01*
X183490047Y-93831142D01*
X183288650Y-94386367D01*
X183315059Y-94976399D01*
X183490047Y-95398858D01*
X183741310Y-95479085D01*
X184605395Y-94615000D01*
X184605395Y-94974210D01*
X183920915Y-95658690D01*
X184001142Y-95909953D01*
X184549612Y-96108900D01*
X179254999Y-96108900D01*
X179254999Y-81660354D01*
X179254999Y-80899646D01*
X179224053Y-80771841D01*
X178910942Y-80214044D01*
X178408205Y-79818529D01*
X177792380Y-79645510D01*
X177292000Y-79645510D01*
X177292000Y-81153000D01*
X179135645Y-81153000D01*
X179254999Y-80899646D01*
X179254999Y-81660354D01*
X179135645Y-81407000D01*
X177292000Y-81407000D01*
X177292000Y-82914490D01*
X177792380Y-82914490D01*
X178408205Y-82741471D01*
X178910942Y-82345956D01*
X179224053Y-81788159D01*
X179254999Y-81660354D01*
X179254999Y-96108900D01*
X177038000Y-96108900D01*
X177038000Y-82914490D01*
X177038000Y-81407000D01*
X177038000Y-81153000D01*
X177038000Y-79645510D01*
X176537620Y-79645510D01*
X176166483Y-79749782D01*
X176259490Y-79282205D01*
X176259490Y-78197795D01*
X176135072Y-77572303D01*
X175780759Y-77042036D01*
X175250492Y-76687723D01*
X174625000Y-76563305D01*
X173999508Y-76687723D01*
X173469241Y-77042036D01*
X173114928Y-77572303D01*
X172990510Y-78197795D01*
X172990510Y-79282205D01*
X173080719Y-79735719D01*
X172627205Y-79645510D01*
X171542795Y-79645510D01*
X170917303Y-79769928D01*
X170387036Y-80124241D01*
X170032723Y-80654508D01*
X169920401Y-81219189D01*
X169920401Y-63129418D01*
X169909774Y-62842411D01*
X169909774Y-58731306D01*
X169661462Y-58130345D01*
X169202073Y-57670154D01*
X168601547Y-57420794D01*
X167951306Y-57420226D01*
X167350345Y-57668538D01*
X166890154Y-58127927D01*
X166640794Y-58728453D01*
X166640226Y-59378694D01*
X166888538Y-59979655D01*
X167347927Y-60439846D01*
X167948453Y-60689206D01*
X168598694Y-60689774D01*
X169199655Y-60441462D01*
X169659846Y-59982073D01*
X169909206Y-59381547D01*
X169909774Y-58731306D01*
X169909774Y-62842411D01*
X169896341Y-62479623D01*
X169693965Y-61991042D01*
X169427163Y-61892443D01*
X169247557Y-62072048D01*
X169247557Y-61712837D01*
X169148958Y-61446035D01*
X168539418Y-61219599D01*
X167889623Y-61243659D01*
X167401042Y-61446035D01*
X167302443Y-61712837D01*
X168275000Y-62685395D01*
X169247557Y-61712837D01*
X169247557Y-62072048D01*
X168454605Y-62865000D01*
X169427163Y-63837557D01*
X169693965Y-63738958D01*
X169920401Y-63129418D01*
X169920401Y-81219189D01*
X169909774Y-81272614D01*
X169909774Y-73971306D01*
X169661462Y-73370345D01*
X169202073Y-72910154D01*
X168601547Y-72660794D01*
X167951306Y-72660226D01*
X167350345Y-72908538D01*
X166890154Y-73367927D01*
X166640794Y-73968453D01*
X166640226Y-74618694D01*
X166888538Y-75219655D01*
X167347927Y-75679846D01*
X167948453Y-75929206D01*
X168598694Y-75929774D01*
X169199655Y-75681462D01*
X169659846Y-75222073D01*
X169909206Y-74621547D01*
X169909774Y-73971306D01*
X169909774Y-81272614D01*
X169908305Y-81280000D01*
X170032723Y-81905492D01*
X170387036Y-82435759D01*
X170917303Y-82790072D01*
X171542795Y-82914490D01*
X172627205Y-82914490D01*
X173252697Y-82790072D01*
X173782964Y-82435759D01*
X174137277Y-81905492D01*
X174261695Y-81280000D01*
X174171485Y-80826485D01*
X174625000Y-80916695D01*
X175093434Y-80823517D01*
X175075001Y-80899646D01*
X175194355Y-81153000D01*
X177038000Y-81153000D01*
X177038000Y-81407000D01*
X175194355Y-81407000D01*
X175075001Y-81660354D01*
X175105947Y-81788159D01*
X175419058Y-82345956D01*
X175921795Y-82741471D01*
X176537620Y-82914490D01*
X177038000Y-82914490D01*
X177038000Y-96108900D01*
X176259774Y-96108900D01*
X176259774Y-91116306D01*
X176011462Y-90515345D01*
X175552073Y-90055154D01*
X175063567Y-89852309D01*
X175549655Y-89651462D01*
X176009846Y-89192073D01*
X176259206Y-88591547D01*
X176259774Y-87941306D01*
X176122070Y-87608036D01*
X176122070Y-85939630D01*
X176122070Y-84240370D01*
X176075093Y-83998247D01*
X175935303Y-83785443D01*
X175724270Y-83642993D01*
X175474630Y-83592930D01*
X173775370Y-83592930D01*
X173533247Y-83639907D01*
X173320443Y-83779697D01*
X173177993Y-83990730D01*
X173127930Y-84240370D01*
X173127930Y-85939630D01*
X173174907Y-86181753D01*
X173314697Y-86394557D01*
X173525730Y-86537007D01*
X173775370Y-86587070D01*
X175474630Y-86587070D01*
X175716753Y-86540093D01*
X175929557Y-86400303D01*
X176072007Y-86189270D01*
X176122070Y-85939630D01*
X176122070Y-87608036D01*
X176011462Y-87340345D01*
X175552073Y-86880154D01*
X174951547Y-86630794D01*
X174301306Y-86630226D01*
X173700345Y-86878538D01*
X173240154Y-87337927D01*
X172990794Y-87938453D01*
X172990226Y-88588694D01*
X173238538Y-89189655D01*
X173697927Y-89649846D01*
X174186432Y-89852690D01*
X173700345Y-90053538D01*
X173240154Y-90512927D01*
X172990794Y-91113453D01*
X172990226Y-91763694D01*
X173238538Y-92364655D01*
X173697927Y-92824846D01*
X174298453Y-93074206D01*
X174948694Y-93074774D01*
X175549655Y-92826462D01*
X176009846Y-92367073D01*
X176259206Y-91766547D01*
X176259774Y-91116306D01*
X176259774Y-96108900D01*
X175490968Y-96108900D01*
X175716753Y-96065093D01*
X175929557Y-95925303D01*
X176072007Y-95714270D01*
X176122070Y-95464630D01*
X176122070Y-93765370D01*
X176075093Y-93523247D01*
X175935303Y-93310443D01*
X175724270Y-93167993D01*
X175474630Y-93117930D01*
X173775370Y-93117930D01*
X173533247Y-93164907D01*
X173320443Y-93304697D01*
X173177993Y-93515730D01*
X173127930Y-93765370D01*
X173127930Y-95464630D01*
X173174907Y-95706753D01*
X173314697Y-95919557D01*
X173525730Y-96062007D01*
X173759562Y-96108900D01*
X171479635Y-96108900D01*
X171739655Y-96001462D01*
X172199846Y-95542073D01*
X172449206Y-94941547D01*
X172449774Y-94291306D01*
X172201462Y-93690345D01*
X171742073Y-93230154D01*
X171253567Y-93027309D01*
X171739655Y-92826462D01*
X172199846Y-92367073D01*
X172449206Y-91766547D01*
X172449774Y-91116306D01*
X172201462Y-90515345D01*
X171742073Y-90055154D01*
X171141547Y-89805794D01*
X170491306Y-89805226D01*
X169890345Y-90053538D01*
X169430154Y-90512927D01*
X169180794Y-91113453D01*
X169180226Y-91763694D01*
X169428538Y-92364655D01*
X169887927Y-92824846D01*
X170376432Y-93027690D01*
X169890345Y-93228538D01*
X169430154Y-93687927D01*
X169180794Y-94288453D01*
X169180226Y-94938694D01*
X169428538Y-95539655D01*
X169887927Y-95999846D01*
X170150558Y-96108900D01*
X166870000Y-96108900D01*
X166870000Y-88130000D01*
X169317930Y-88130000D01*
X169317930Y-89114630D01*
X169364907Y-89356753D01*
X169504697Y-89569557D01*
X169715730Y-89712007D01*
X169965370Y-89762070D01*
X171664630Y-89762070D01*
X171906753Y-89715093D01*
X172119557Y-89575303D01*
X172262007Y-89364270D01*
X172312070Y-89114630D01*
X172312070Y-87415370D01*
X172265093Y-87173247D01*
X172125303Y-86960443D01*
X171950000Y-86842111D01*
X171950000Y-86511684D01*
X172119557Y-86400303D01*
X172262007Y-86189270D01*
X172312070Y-85939630D01*
X172312070Y-84240370D01*
X172265093Y-83998247D01*
X172125303Y-83785443D01*
X171914270Y-83642993D01*
X171664630Y-83592930D01*
X169965370Y-83592930D01*
X169772070Y-83630434D01*
X169772070Y-78954630D01*
X169772070Y-77255370D01*
X169725093Y-77013247D01*
X169585303Y-76800443D01*
X169374270Y-76657993D01*
X169124630Y-76607930D01*
X167425370Y-76607930D01*
X167183247Y-76654907D01*
X166970443Y-76794697D01*
X166827993Y-77005730D01*
X166777930Y-77255370D01*
X166777930Y-78954630D01*
X166824907Y-79196753D01*
X166964697Y-79409557D01*
X167175730Y-79552007D01*
X167425370Y-79602070D01*
X169124630Y-79602070D01*
X169366753Y-79555093D01*
X169579557Y-79415303D01*
X169722007Y-79204270D01*
X169772070Y-78954630D01*
X169772070Y-83630434D01*
X169723247Y-83639907D01*
X169510443Y-83779697D01*
X169367993Y-83990730D01*
X169317930Y-84240370D01*
X169317930Y-85860000D01*
X166870000Y-85860000D01*
X166870000Y-85090000D01*
X166870000Y-82423000D01*
X166783603Y-81988654D01*
X166537566Y-81620434D01*
X166537566Y-81620433D01*
X164330000Y-79412867D01*
X164330000Y-70350000D01*
X166853315Y-70350000D01*
X166964697Y-70519557D01*
X167175730Y-70662007D01*
X167425370Y-70712070D01*
X169124630Y-70712070D01*
X169366753Y-70665093D01*
X169579557Y-70525303D01*
X169722007Y-70314270D01*
X169772070Y-70064630D01*
X169772070Y-68365370D01*
X169771350Y-68361659D01*
X169771350Y-66268633D01*
X169744941Y-65678601D01*
X169569953Y-65256142D01*
X169318690Y-65175915D01*
X169247557Y-65247048D01*
X169247557Y-64017163D01*
X168275000Y-63044605D01*
X168095395Y-63224210D01*
X168095395Y-62865000D01*
X167122837Y-61892443D01*
X166856035Y-61991042D01*
X166629599Y-62600582D01*
X166653659Y-63250377D01*
X166856035Y-63738958D01*
X167122837Y-63837557D01*
X168095395Y-62865000D01*
X168095395Y-63224210D01*
X167302443Y-64017163D01*
X167401042Y-64283965D01*
X168010582Y-64510401D01*
X168660377Y-64486341D01*
X169148958Y-64283965D01*
X169247557Y-64017163D01*
X169247557Y-65247048D01*
X169139085Y-65355520D01*
X169139085Y-64996310D01*
X169058858Y-64745047D01*
X168503633Y-64543650D01*
X167913601Y-64570059D01*
X167491142Y-64745047D01*
X167410915Y-64996310D01*
X168275000Y-65860395D01*
X169139085Y-64996310D01*
X169139085Y-65355520D01*
X168454605Y-66040000D01*
X169318690Y-66904085D01*
X169569953Y-66823858D01*
X169771350Y-66268633D01*
X169771350Y-68361659D01*
X169725093Y-68123247D01*
X169585303Y-67910443D01*
X169374270Y-67767993D01*
X169139085Y-67720828D01*
X169139085Y-67083690D01*
X168275000Y-66219605D01*
X168095395Y-66399210D01*
X168095395Y-66040000D01*
X167231310Y-65175915D01*
X166980047Y-65256142D01*
X166778650Y-65811367D01*
X166805059Y-66401399D01*
X166980047Y-66823858D01*
X167231310Y-66904085D01*
X168095395Y-66040000D01*
X168095395Y-66399210D01*
X167410915Y-67083690D01*
X167491142Y-67334953D01*
X168046367Y-67536350D01*
X168636399Y-67509941D01*
X169058858Y-67334953D01*
X169139085Y-67083690D01*
X169139085Y-67720828D01*
X169124630Y-67717930D01*
X167425370Y-67717930D01*
X167183247Y-67764907D01*
X166970443Y-67904697D01*
X166852111Y-68080000D01*
X163322000Y-68080000D01*
X163195000Y-68080000D01*
X162760654Y-68166397D01*
X162392434Y-68412434D01*
X162146397Y-68780654D01*
X162060000Y-69215000D01*
X162060000Y-79883000D01*
X162146397Y-80317346D01*
X162392434Y-80685566D01*
X164600000Y-82893132D01*
X164600000Y-85090000D01*
X164600000Y-86868000D01*
X164600000Y-86995000D01*
X164600000Y-97155000D01*
X164686397Y-97589346D01*
X164932434Y-97957566D01*
X165021334Y-98046466D01*
X165389554Y-98292503D01*
X165389555Y-98292504D01*
X165823900Y-98378900D01*
X185466100Y-98378900D01*
X185466100Y-101150708D01*
X185331100Y-101352750D01*
X185048928Y-100930451D01*
X184595709Y-100627619D01*
X184061100Y-100521279D01*
X183526491Y-100627619D01*
X183073272Y-100930451D01*
X182791100Y-101352750D01*
X182508928Y-100930451D01*
X182055709Y-100627619D01*
X181521100Y-100521279D01*
X180986491Y-100627619D01*
X180533272Y-100930451D01*
X180251100Y-101352750D01*
X179968928Y-100930451D01*
X179515709Y-100627619D01*
X178981100Y-100521279D01*
X178446491Y-100627619D01*
X177993272Y-100930451D01*
X177711100Y-101352750D01*
X177428928Y-100930451D01*
X176975709Y-100627619D01*
X176441100Y-100521279D01*
X175906491Y-100627619D01*
X175453272Y-100930451D01*
X175150440Y-101383670D01*
X175044100Y-101918279D01*
X175044100Y-103008921D01*
X175150440Y-103543530D01*
X175453272Y-103996749D01*
X175906491Y-104299581D01*
X176441100Y-104405921D01*
X176975709Y-104299581D01*
X177428928Y-103996749D01*
X177711100Y-103574449D01*
X177993272Y-103996749D01*
X178446491Y-104299581D01*
X178981100Y-104405921D01*
X179515709Y-104299581D01*
X179968928Y-103996749D01*
X180251100Y-103574449D01*
X180533272Y-103996749D01*
X180986491Y-104299581D01*
X181521100Y-104405921D01*
X182055709Y-104299581D01*
X182508928Y-103996749D01*
X182791100Y-103574449D01*
X183073272Y-103996749D01*
X183526491Y-104299581D01*
X184061100Y-104405921D01*
X184595709Y-104299581D01*
X185048928Y-103996749D01*
X185331100Y-103574449D01*
X185613272Y-103996749D01*
X186066491Y-104299581D01*
X186601100Y-104405921D01*
X187135709Y-104299581D01*
X187588928Y-103996749D01*
X187880429Y-103560486D01*
X187899041Y-103623541D01*
X188243074Y-104049230D01*
X188723823Y-104310860D01*
X188798030Y-104325820D01*
X189014100Y-104203320D01*
X189014100Y-102590600D01*
X188994100Y-102590600D01*
X188994100Y-102336600D01*
X189014100Y-102336600D01*
X189014100Y-100723880D01*
X188798030Y-100601380D01*
X188723823Y-100616340D01*
X188243074Y-100877970D01*
X187899041Y-101303659D01*
X187880429Y-101366713D01*
X187736100Y-101150708D01*
X187736100Y-98378900D01*
X189141100Y-98378900D01*
X189575445Y-98292503D01*
X189575446Y-98292503D01*
X189943666Y-98046466D01*
X191989370Y-96000761D01*
X192044398Y-96000810D01*
X192553837Y-95790314D01*
X192943944Y-95400887D01*
X193033378Y-95185503D01*
X193097069Y-95339265D01*
X193338070Y-95407325D01*
X194130395Y-94615000D01*
X193338070Y-93822675D01*
X193097069Y-93890735D01*
X193038231Y-94056040D01*
X192945314Y-93831163D01*
X192905000Y-93790778D01*
X192905000Y-93509102D01*
X193041666Y-93417786D01*
X193195574Y-93187445D01*
X193249620Y-92915740D01*
X193195574Y-92644035D01*
X193041666Y-92413694D01*
X192905000Y-92322377D01*
X192905000Y-88735132D01*
X196685132Y-84955000D01*
X207010000Y-84955000D01*
X207444346Y-84868603D01*
X207812566Y-84622566D01*
X208058603Y-84254346D01*
X208145000Y-83820000D01*
X208145000Y-83745635D01*
X208225727Y-83868527D01*
X208436760Y-84010977D01*
X208477659Y-84019179D01*
X208460971Y-84030330D01*
X208136115Y-84516511D01*
X208022041Y-85090000D01*
X208136115Y-85663489D01*
X208460971Y-86149670D01*
X208775751Y-86360000D01*
X208460971Y-86570330D01*
X208136115Y-87056511D01*
X208022041Y-87630000D01*
X208136115Y-88203489D01*
X208460971Y-88689670D01*
X208775751Y-88900000D01*
X208460971Y-89110330D01*
X208136115Y-89596511D01*
X208022041Y-90170000D01*
X208136115Y-90743489D01*
X208460971Y-91229670D01*
X208775751Y-91440000D01*
X208460971Y-91650330D01*
X208136115Y-92136511D01*
X208022041Y-92710000D01*
X208136115Y-93283489D01*
X208460971Y-93769670D01*
X208947152Y-94094526D01*
X209520641Y-94208600D01*
X209579359Y-94208600D01*
X210152848Y-94094526D01*
X210639029Y-93769670D01*
X210819992Y-93498839D01*
X211201510Y-93916821D01*
X211730973Y-94164968D01*
X211963000Y-94044469D01*
X211963000Y-92837000D01*
X211943000Y-92837000D01*
X211943000Y-92583000D01*
X211963000Y-92583000D01*
X211963000Y-91504469D01*
X211963000Y-91375531D01*
X211963000Y-90297000D01*
X211943000Y-90297000D01*
X211943000Y-90043000D01*
X211963000Y-90043000D01*
X211963000Y-90023000D01*
X212217000Y-90023000D01*
X212217000Y-90043000D01*
X213423817Y-90043000D01*
X213544958Y-89810974D01*
X213372688Y-89395053D01*
X212978490Y-88963179D01*
X212855771Y-88905663D01*
X213179029Y-88689670D01*
X213379262Y-88390000D01*
X215265000Y-88390000D01*
X215555839Y-88332148D01*
X215802401Y-88167401D01*
X215967148Y-87920839D01*
X216025000Y-87630000D01*
X216025000Y-95724256D01*
X215801689Y-95500555D01*
X214985122Y-95161487D01*
X214100957Y-95160715D01*
X213544958Y-95390449D01*
X213544958Y-93069026D01*
X213544958Y-92350974D01*
X213372688Y-91935053D01*
X212978490Y-91503179D01*
X212843687Y-91440000D01*
X212978490Y-91376821D01*
X213372688Y-90944947D01*
X213544958Y-90529026D01*
X213423817Y-90297000D01*
X212217000Y-90297000D01*
X212217000Y-91375531D01*
X212217000Y-91504469D01*
X212217000Y-92583000D01*
X213423817Y-92583000D01*
X213544958Y-92350974D01*
X213544958Y-93069026D01*
X213423817Y-92837000D01*
X212217000Y-92837000D01*
X212217000Y-94044469D01*
X212449027Y-94164968D01*
X212978490Y-93916821D01*
X213372688Y-93484947D01*
X213544958Y-93069026D01*
X213544958Y-95390449D01*
X213283800Y-95498358D01*
X212658055Y-96123011D01*
X212318987Y-96939578D01*
X212318215Y-97823743D01*
X212655858Y-98640900D01*
X213280511Y-99266645D01*
X214097078Y-99605713D01*
X214981243Y-99606485D01*
X215798400Y-99268842D01*
X216424145Y-98644189D01*
X216739000Y-97885933D01*
X216739000Y-104471000D01*
M02*
