M48
;DRILL file {kicad (after 2015-mar-04 BZR unknown)-product} date Sat 22 Oct 2016 07:01:52 PM CEST
;FORMAT={-:-/ absolute / inch / decimal}
FMAT,2
INCH,TZ
T1C0.020
T2C0.032
T3C0.039
T4C0.045
T5C0.047
T6C0.059
T7C0.118
%
G90
G05
M72
T1
X0.6Y-1.4
X0.6Y-1.6
X0.8Y-1.4
X0.8Y-1.6
T2
X1.05Y-1.05
X1.05Y-1.25
X1.05Y-1.45
X1.05Y-1.65
X1.5Y-1.85
X1.5Y-1.95
X1.5Y-2.5
X1.5Y-2.6
X2.2Y-1.85
X2.2Y-1.95
X2.2Y-2.5
X2.2Y-2.6
T3
X0.85Y-2.2047
X0.85Y-2.7953
X1.05Y-1.8547
X1.05Y-2.4453
T4
X0.55Y-0.9
X0.55Y-1.
X0.55Y-1.1
X0.55Y-1.85
X0.55Y-1.95
X0.55Y-2.05
X0.55Y-2.7
X0.55Y-2.8
X0.55Y-2.9
T5
X0.85Y-0.6
X1.05Y-0.6
X1.1Y-3.15
X1.3Y-3.15
X1.5Y-3.15
X1.7Y-3.15
X1.9Y-3.15
X2.1Y-3.15
X2.35Y-0.85
X2.35Y-1.05
X2.35Y-1.25
X2.35Y-1.45
T6
X1.4Y-0.5669
X1.4Y-1.4331
X1.85Y-0.5669
X1.85Y-1.4331
T7
X0.55Y-0.55
X0.55Y-3.2
X2.4Y-0.55
X2.4Y-3.2
T0
M30
