G04 #@! TF.FileFunction,Legend,Top*
%FSLAX46Y46*%
G04 Gerber Fmt 4.6, Leading zero omitted, Abs format (unit mm)*
G04 Created by KiCad (PCBNEW (after 2015-mar-04 BZR unknown)-product) date Sat 22 Oct 2016 07:01:29 PM CEST*
%MOMM*%
G01*
G04 APERTURE LIST*
%ADD10C,0.100000*%
%ADD11C,0.200000*%
%ADD12C,0.150000*%
%ADD13C,0.381000*%
%ADD14C,0.304800*%
G04 APERTURE END LIST*
D10*
D11*
X18558095Y-22931429D02*
X19320000Y-22931429D01*
X18939048Y-23312381D02*
X18939048Y-22550476D01*
X19748571Y-22407619D02*
X19796190Y-22360000D01*
X19891428Y-22312381D01*
X20129524Y-22312381D01*
X20224762Y-22360000D01*
X20272381Y-22407619D01*
X20320000Y-22502857D01*
X20320000Y-22598095D01*
X20272381Y-22740952D01*
X19700952Y-23312381D01*
X20320000Y-23312381D01*
X21272381Y-23312381D02*
X20700952Y-23312381D01*
X20986666Y-23312381D02*
X20986666Y-22312381D01*
X20891428Y-22455238D01*
X20796190Y-22550476D01*
X20700952Y-22598095D01*
X21558095Y-22312381D02*
X21891428Y-23312381D01*
X22224762Y-22312381D01*
X27178096Y-22360000D02*
X27082858Y-22312381D01*
X26940001Y-22312381D01*
X26797143Y-22360000D01*
X26701905Y-22455238D01*
X26654286Y-22550476D01*
X26606667Y-22740952D01*
X26606667Y-22883810D01*
X26654286Y-23074286D01*
X26701905Y-23169524D01*
X26797143Y-23264762D01*
X26940001Y-23312381D01*
X27035239Y-23312381D01*
X27178096Y-23264762D01*
X27225715Y-23217143D01*
X27225715Y-22883810D01*
X27035239Y-22883810D01*
X27654286Y-23312381D02*
X27654286Y-22312381D01*
X28225715Y-23312381D01*
X28225715Y-22312381D01*
X28701905Y-23312381D02*
X28701905Y-22312381D01*
X28940000Y-22312381D01*
X29082858Y-22360000D01*
X29178096Y-22455238D01*
X29225715Y-22550476D01*
X29273334Y-22740952D01*
X29273334Y-22883810D01*
X29225715Y-23074286D01*
X29178096Y-23169524D01*
X29082858Y-23264762D01*
X28940000Y-23312381D01*
X28701905Y-23312381D01*
X46228096Y-71890000D02*
X46132858Y-71842381D01*
X45990001Y-71842381D01*
X45847143Y-71890000D01*
X45751905Y-71985238D01*
X45704286Y-72080476D01*
X45656667Y-72270952D01*
X45656667Y-72413810D01*
X45704286Y-72604286D01*
X45751905Y-72699524D01*
X45847143Y-72794762D01*
X45990001Y-72842381D01*
X46085239Y-72842381D01*
X46228096Y-72794762D01*
X46275715Y-72747143D01*
X46275715Y-72413810D01*
X46085239Y-72413810D01*
X46704286Y-72842381D02*
X46704286Y-71842381D01*
X47275715Y-72842381D01*
X47275715Y-71842381D01*
X47751905Y-72842381D02*
X47751905Y-71842381D01*
X47990000Y-71842381D01*
X48132858Y-71890000D01*
X48228096Y-71985238D01*
X48275715Y-72080476D01*
X48323334Y-72270952D01*
X48323334Y-72413810D01*
X48275715Y-72604286D01*
X48228096Y-72699524D01*
X48132858Y-72794762D01*
X47990000Y-72842381D01*
X47751905Y-72842381D01*
X24638096Y-71890000D02*
X24542858Y-71842381D01*
X24400001Y-71842381D01*
X24257143Y-71890000D01*
X24161905Y-71985238D01*
X24114286Y-72080476D01*
X24066667Y-72270952D01*
X24066667Y-72413810D01*
X24114286Y-72604286D01*
X24161905Y-72699524D01*
X24257143Y-72794762D01*
X24400001Y-72842381D01*
X24495239Y-72842381D01*
X24638096Y-72794762D01*
X24685715Y-72747143D01*
X24685715Y-72413810D01*
X24495239Y-72413810D01*
X25114286Y-72842381D02*
X25114286Y-71842381D01*
X25685715Y-72842381D01*
X25685715Y-71842381D01*
X26161905Y-72842381D02*
X26161905Y-71842381D01*
X26400000Y-71842381D01*
X26542858Y-71890000D01*
X26638096Y-71985238D01*
X26685715Y-72080476D01*
X26733334Y-72270952D01*
X26733334Y-72413810D01*
X26685715Y-72604286D01*
X26638096Y-72699524D01*
X26542858Y-72794762D01*
X26400000Y-72842381D01*
X26161905Y-72842381D01*
X31686667Y-72461429D02*
X32448572Y-72461429D01*
X32067620Y-72842381D02*
X32067620Y-72080476D01*
X33448572Y-72842381D02*
X32877143Y-72842381D01*
X33162857Y-72842381D02*
X33162857Y-71842381D01*
X33067619Y-71985238D01*
X32972381Y-72080476D01*
X32877143Y-72128095D01*
X33829524Y-71937619D02*
X33877143Y-71890000D01*
X33972381Y-71842381D01*
X34210477Y-71842381D01*
X34305715Y-71890000D01*
X34353334Y-71937619D01*
X34400953Y-72032857D01*
X34400953Y-72128095D01*
X34353334Y-72270952D01*
X33781905Y-72842381D01*
X34400953Y-72842381D01*
X57562857Y-75001429D02*
X58324762Y-75001429D01*
X57943810Y-75382381D02*
X57943810Y-74620476D01*
X59277143Y-74382381D02*
X58800952Y-74382381D01*
X58753333Y-74858571D01*
X58800952Y-74810952D01*
X58896190Y-74763333D01*
X59134286Y-74763333D01*
X59229524Y-74810952D01*
X59277143Y-74858571D01*
X59324762Y-74953810D01*
X59324762Y-75191905D01*
X59277143Y-75287143D01*
X59229524Y-75334762D01*
X59134286Y-75382381D01*
X58896190Y-75382381D01*
X58800952Y-75334762D01*
X58753333Y-75287143D01*
X41846667Y-72461429D02*
X42608572Y-72461429D01*
X42227620Y-72842381D02*
X42227620Y-72080476D01*
X43608572Y-72842381D02*
X43037143Y-72842381D01*
X43322857Y-72842381D02*
X43322857Y-71842381D01*
X43227619Y-71985238D01*
X43132381Y-72080476D01*
X43037143Y-72128095D01*
X43989524Y-71937619D02*
X44037143Y-71890000D01*
X44132381Y-71842381D01*
X44370477Y-71842381D01*
X44465715Y-71890000D01*
X44513334Y-71937619D01*
X44560953Y-72032857D01*
X44560953Y-72128095D01*
X44513334Y-72270952D01*
X43941905Y-72842381D01*
X44560953Y-72842381D01*
X46228096Y-71890000D02*
X46132858Y-71842381D01*
X45990001Y-71842381D01*
X45847143Y-71890000D01*
X45751905Y-71985238D01*
X45704286Y-72080476D01*
X45656667Y-72270952D01*
X45656667Y-72413810D01*
X45704286Y-72604286D01*
X45751905Y-72699524D01*
X45847143Y-72794762D01*
X45990001Y-72842381D01*
X46085239Y-72842381D01*
X46228096Y-72794762D01*
X46275715Y-72747143D01*
X46275715Y-72413810D01*
X46085239Y-72413810D01*
X46704286Y-72842381D02*
X46704286Y-71842381D01*
X47275715Y-72842381D01*
X47275715Y-71842381D01*
X47751905Y-72842381D02*
X47751905Y-71842381D01*
X47990000Y-71842381D01*
X48132858Y-71890000D01*
X48228096Y-71985238D01*
X48275715Y-72080476D01*
X48323334Y-72270952D01*
X48323334Y-72413810D01*
X48275715Y-72604286D01*
X48228096Y-72699524D01*
X48132858Y-72794762D01*
X47990000Y-72842381D01*
X47751905Y-72842381D01*
D12*
X12065000Y-75565000D02*
X11430000Y-75565000D01*
X11430000Y-75565000D02*
X11430000Y-66675000D01*
X11430000Y-66675000D02*
X12065000Y-66675000D01*
X15875000Y-75565000D02*
X12065000Y-75565000D01*
X12065000Y-75565000D02*
X12065000Y-66675000D01*
X12065000Y-66675000D02*
X15875000Y-66675000D01*
X15875000Y-66675000D02*
X15875000Y-75565000D01*
X12065000Y-53975000D02*
X11430000Y-53975000D01*
X11430000Y-53975000D02*
X11430000Y-45085000D01*
X11430000Y-45085000D02*
X12065000Y-45085000D01*
X15875000Y-53975000D02*
X12065000Y-53975000D01*
X12065000Y-53975000D02*
X12065000Y-45085000D01*
X12065000Y-45085000D02*
X15875000Y-45085000D01*
X15875000Y-45085000D02*
X15875000Y-53975000D01*
X12065000Y-29845000D02*
X11430000Y-29845000D01*
X11430000Y-29845000D02*
X11430000Y-20955000D01*
X11430000Y-20955000D02*
X12065000Y-20955000D01*
X15875000Y-29845000D02*
X12065000Y-29845000D01*
X12065000Y-29845000D02*
X12065000Y-20955000D01*
X12065000Y-20955000D02*
X15875000Y-20955000D01*
X15875000Y-20955000D02*
X15875000Y-29845000D01*
X58420000Y-46482000D02*
X57150000Y-46482000D01*
X57785000Y-45847000D02*
X57785000Y-46990000D01*
X63880000Y-48260000D02*
G75*
G03X63880000Y-48260000I-8000000J0D01*
G01*
X58420000Y-62992000D02*
X57150000Y-62992000D01*
X57785000Y-62357000D02*
X57785000Y-63500000D01*
X63880000Y-64770000D02*
G75*
G03X63880000Y-64770000I-8000000J0D01*
G01*
X40640000Y-46482000D02*
X39370000Y-46482000D01*
X40005000Y-45847000D02*
X40005000Y-46990000D01*
X46100000Y-48260000D02*
G75*
G03X46100000Y-48260000I-8000000J0D01*
G01*
X40640000Y-62992000D02*
X39370000Y-62992000D01*
X40005000Y-62357000D02*
X40005000Y-63500000D01*
X46100000Y-64770000D02*
G75*
G03X46100000Y-64770000I-8000000J0D01*
G01*
D13*
X29210000Y-27940000D02*
X24130000Y-27940000D01*
X24130000Y-27305000D02*
X24130000Y-26670000D01*
X24130000Y-25400000D02*
X29210000Y-25400000D01*
X29210000Y-26670000D02*
X29210000Y-27305000D01*
X24130000Y-25400000D02*
X24130000Y-43180000D01*
X24130000Y-43180000D02*
X29210000Y-43180000D01*
X29210000Y-43180000D02*
X29210000Y-25400000D01*
X22359050Y-38100000D02*
G75*
G03X22359050Y-38100000I-4579050J0D01*
G01*
D12*
X49489360Y-19400520D02*
X51991260Y-19400520D01*
X41988740Y-19400520D02*
X44490640Y-19400520D01*
X41988740Y-31399480D02*
X44490640Y-31399480D01*
X51991260Y-31399480D02*
X49489360Y-31399480D01*
X46990000Y-20899120D02*
X46990000Y-29900880D01*
X49489360Y-20899120D02*
X44490640Y-20899120D01*
X49489360Y-29900880D02*
X44490640Y-29900880D01*
X48889920Y-35399980D02*
X49489360Y-35399980D01*
X45090080Y-15400020D02*
X44490640Y-15400020D01*
X44490640Y-15400020D02*
X44490640Y-35399980D01*
X44490640Y-35399980D02*
X45090080Y-35399980D01*
X49489360Y-35399980D02*
X49489360Y-15400020D01*
X49489360Y-15400020D02*
X48889920Y-15400020D01*
X48889920Y-37398960D02*
X51991260Y-37398960D01*
X45090080Y-13401040D02*
X41988740Y-13401040D01*
X41988740Y-13401040D02*
X41988740Y-37398960D01*
X41988740Y-37398960D02*
X45090080Y-37398960D01*
X51991260Y-37398960D02*
X51991260Y-13401040D01*
X51991260Y-13401040D02*
X48889920Y-13401040D01*
X38059360Y-19400520D02*
X40561260Y-19400520D01*
X30558740Y-19400520D02*
X33060640Y-19400520D01*
X30558740Y-31399480D02*
X33060640Y-31399480D01*
X40561260Y-31399480D02*
X38059360Y-31399480D01*
X35560000Y-20899120D02*
X35560000Y-29900880D01*
X38059360Y-20899120D02*
X33060640Y-20899120D01*
X38059360Y-29900880D02*
X33060640Y-29900880D01*
X37459920Y-35399980D02*
X38059360Y-35399980D01*
X33660080Y-15400020D02*
X33060640Y-15400020D01*
X33060640Y-15400020D02*
X33060640Y-35399980D01*
X33060640Y-35399980D02*
X33660080Y-35399980D01*
X38059360Y-35399980D02*
X38059360Y-15400020D01*
X38059360Y-15400020D02*
X37459920Y-15400020D01*
X37459920Y-37398960D02*
X40561260Y-37398960D01*
X33660080Y-13401040D02*
X30558740Y-13401040D01*
X30558740Y-13401040D02*
X30558740Y-37398960D01*
X30558740Y-37398960D02*
X33660080Y-37398960D01*
X40561260Y-37398960D02*
X40561260Y-13401040D01*
X40561260Y-13401040D02*
X37459920Y-13401040D01*
X62865000Y-19050000D02*
X62865000Y-29210000D01*
X53340000Y-29210000D02*
X64770000Y-29210000D01*
X64770000Y-29210000D02*
X64770000Y-19050000D01*
X64770000Y-19050000D02*
X53340000Y-19050000D01*
X53340000Y-19050000D02*
X53340000Y-29210000D01*
X62865000Y-29210000D02*
X62865000Y-39370000D01*
X53340000Y-39370000D02*
X64770000Y-39370000D01*
X64770000Y-39370000D02*
X64770000Y-29210000D01*
X64770000Y-29210000D02*
X53340000Y-29210000D01*
X53340000Y-29210000D02*
X53340000Y-39370000D01*
X35560000Y-83185000D02*
X25400000Y-83185000D01*
X25400000Y-73660000D02*
X25400000Y-85090000D01*
X25400000Y-85090000D02*
X35560000Y-85090000D01*
X35560000Y-85090000D02*
X35560000Y-73660000D01*
X35560000Y-73660000D02*
X25400000Y-73660000D01*
X45720000Y-83185000D02*
X35560000Y-83185000D01*
X35560000Y-73660000D02*
X35560000Y-85090000D01*
X35560000Y-85090000D02*
X45720000Y-85090000D01*
X45720000Y-85090000D02*
X45720000Y-73660000D01*
X45720000Y-73660000D02*
X35560000Y-73660000D01*
X55880000Y-83185000D02*
X45720000Y-83185000D01*
X45720000Y-73660000D02*
X45720000Y-85090000D01*
X45720000Y-85090000D02*
X55880000Y-85090000D01*
X55880000Y-85090000D02*
X55880000Y-73660000D01*
X55880000Y-73660000D02*
X45720000Y-73660000D01*
X19050000Y-12065000D02*
X29210000Y-12065000D01*
X29210000Y-21590000D02*
X29210000Y-10160000D01*
X29210000Y-10160000D02*
X19050000Y-10160000D01*
X19050000Y-10160000D02*
X19050000Y-21590000D01*
X19050000Y-21590000D02*
X29210000Y-21590000D01*
X27940000Y-49530000D02*
X25400000Y-49530000D01*
X25400000Y-49530000D02*
X25400000Y-59690000D01*
X25400000Y-59690000D02*
X27940000Y-59690000D01*
X27940000Y-59690000D02*
X27940000Y-49530000D01*
X26670000Y-60960000D02*
X26670000Y-59690000D01*
X26670000Y-48260000D02*
X26670000Y-49530000D01*
X22860000Y-58420000D02*
X20320000Y-58420000D01*
X20320000Y-58420000D02*
X20320000Y-68580000D01*
X20320000Y-68580000D02*
X22860000Y-68580000D01*
X22860000Y-68580000D02*
X22860000Y-58420000D01*
X21590000Y-69850000D02*
X21590000Y-68580000D01*
X21590000Y-57150000D02*
X21590000Y-58420000D01*
X12152381Y-65531905D02*
X12961905Y-65531905D01*
X13057143Y-65484286D01*
X13104762Y-65436667D01*
X13152381Y-65341429D01*
X13152381Y-65150952D01*
X13104762Y-65055714D01*
X13057143Y-65008095D01*
X12961905Y-64960476D01*
X12152381Y-64960476D01*
X13152381Y-63960476D02*
X13152381Y-64531905D01*
X13152381Y-64246191D02*
X12152381Y-64246191D01*
X12295238Y-64341429D01*
X12390476Y-64436667D01*
X12438095Y-64531905D01*
X12152381Y-56641905D02*
X12961905Y-56641905D01*
X13057143Y-56594286D01*
X13104762Y-56546667D01*
X13152381Y-56451429D01*
X13152381Y-56260952D01*
X13104762Y-56165714D01*
X13057143Y-56118095D01*
X12961905Y-56070476D01*
X12152381Y-56070476D01*
X12247619Y-55641905D02*
X12200000Y-55594286D01*
X12152381Y-55499048D01*
X12152381Y-55260952D01*
X12200000Y-55165714D01*
X12247619Y-55118095D01*
X12342857Y-55070476D01*
X12438095Y-55070476D01*
X12580952Y-55118095D01*
X13152381Y-55689524D01*
X13152381Y-55070476D01*
X12152381Y-32511905D02*
X12961905Y-32511905D01*
X13057143Y-32464286D01*
X13104762Y-32416667D01*
X13152381Y-32321429D01*
X13152381Y-32130952D01*
X13104762Y-32035714D01*
X13057143Y-31988095D01*
X12961905Y-31940476D01*
X12152381Y-31940476D01*
X12152381Y-31559524D02*
X12152381Y-30940476D01*
X12533333Y-31273810D01*
X12533333Y-31130952D01*
X12580952Y-31035714D01*
X12628571Y-30988095D01*
X12723810Y-30940476D01*
X12961905Y-30940476D01*
X13057143Y-30988095D01*
X13104762Y-31035714D01*
X13152381Y-31130952D01*
X13152381Y-31416667D01*
X13104762Y-31511905D01*
X13057143Y-31559524D01*
X63857143Y-42076666D02*
X63904762Y-42124285D01*
X63952381Y-42267142D01*
X63952381Y-42362380D01*
X63904762Y-42505238D01*
X63809524Y-42600476D01*
X63714286Y-42648095D01*
X63523810Y-42695714D01*
X63380952Y-42695714D01*
X63190476Y-42648095D01*
X63095238Y-42600476D01*
X63000000Y-42505238D01*
X62952381Y-42362380D01*
X62952381Y-42267142D01*
X63000000Y-42124285D01*
X63047619Y-42076666D01*
X63952381Y-41124285D02*
X63952381Y-41695714D01*
X63952381Y-41410000D02*
X62952381Y-41410000D01*
X63095238Y-41505238D01*
X63190476Y-41600476D01*
X63238095Y-41695714D01*
X63857143Y-58586666D02*
X63904762Y-58634285D01*
X63952381Y-58777142D01*
X63952381Y-58872380D01*
X63904762Y-59015238D01*
X63809524Y-59110476D01*
X63714286Y-59158095D01*
X63523810Y-59205714D01*
X63380952Y-59205714D01*
X63190476Y-59158095D01*
X63095238Y-59110476D01*
X63000000Y-59015238D01*
X62952381Y-58872380D01*
X62952381Y-58777142D01*
X63000000Y-58634285D01*
X63047619Y-58586666D01*
X62952381Y-58253333D02*
X62952381Y-57634285D01*
X63333333Y-57967619D01*
X63333333Y-57824761D01*
X63380952Y-57729523D01*
X63428571Y-57681904D01*
X63523810Y-57634285D01*
X63761905Y-57634285D01*
X63857143Y-57681904D01*
X63904762Y-57729523D01*
X63952381Y-57824761D01*
X63952381Y-58110476D01*
X63904762Y-58205714D01*
X63857143Y-58253333D01*
X46077143Y-42076666D02*
X46124762Y-42124285D01*
X46172381Y-42267142D01*
X46172381Y-42362380D01*
X46124762Y-42505238D01*
X46029524Y-42600476D01*
X45934286Y-42648095D01*
X45743810Y-42695714D01*
X45600952Y-42695714D01*
X45410476Y-42648095D01*
X45315238Y-42600476D01*
X45220000Y-42505238D01*
X45172381Y-42362380D01*
X45172381Y-42267142D01*
X45220000Y-42124285D01*
X45267619Y-42076666D01*
X45600952Y-41505238D02*
X45553333Y-41600476D01*
X45505714Y-41648095D01*
X45410476Y-41695714D01*
X45362857Y-41695714D01*
X45267619Y-41648095D01*
X45220000Y-41600476D01*
X45172381Y-41505238D01*
X45172381Y-41314761D01*
X45220000Y-41219523D01*
X45267619Y-41171904D01*
X45362857Y-41124285D01*
X45410476Y-41124285D01*
X45505714Y-41171904D01*
X45553333Y-41219523D01*
X45600952Y-41314761D01*
X45600952Y-41505238D01*
X45648571Y-41600476D01*
X45696190Y-41648095D01*
X45791429Y-41695714D01*
X45981905Y-41695714D01*
X46077143Y-41648095D01*
X46124762Y-41600476D01*
X46172381Y-41505238D01*
X46172381Y-41314761D01*
X46124762Y-41219523D01*
X46077143Y-41171904D01*
X45981905Y-41124285D01*
X45791429Y-41124285D01*
X45696190Y-41171904D01*
X45648571Y-41219523D01*
X45600952Y-41314761D01*
X46077143Y-58586666D02*
X46124762Y-58634285D01*
X46172381Y-58777142D01*
X46172381Y-58872380D01*
X46124762Y-59015238D01*
X46029524Y-59110476D01*
X45934286Y-59158095D01*
X45743810Y-59205714D01*
X45600952Y-59205714D01*
X45410476Y-59158095D01*
X45315238Y-59110476D01*
X45220000Y-59015238D01*
X45172381Y-58872380D01*
X45172381Y-58777142D01*
X45220000Y-58634285D01*
X45267619Y-58586666D01*
X46172381Y-58110476D02*
X46172381Y-57920000D01*
X46124762Y-57824761D01*
X46077143Y-57777142D01*
X45934286Y-57681904D01*
X45743810Y-57634285D01*
X45362857Y-57634285D01*
X45267619Y-57681904D01*
X45220000Y-57729523D01*
X45172381Y-57824761D01*
X45172381Y-58015238D01*
X45220000Y-58110476D01*
X45267619Y-58158095D01*
X45362857Y-58205714D01*
X45600952Y-58205714D01*
X45696190Y-58158095D01*
X45743810Y-58110476D01*
X45791429Y-58015238D01*
X45791429Y-57824761D01*
X45743810Y-57729523D01*
X45696190Y-57681904D01*
X45600952Y-57634285D01*
D14*
X20465143Y-31169429D02*
X20465143Y-29645429D01*
X20828000Y-29645429D01*
X21045715Y-29718000D01*
X21190857Y-29863143D01*
X21263429Y-30008286D01*
X21336000Y-30298571D01*
X21336000Y-30516286D01*
X21263429Y-30806571D01*
X21190857Y-30951714D01*
X21045715Y-31096857D01*
X20828000Y-31169429D01*
X20465143Y-31169429D01*
X22787429Y-31169429D02*
X21916572Y-31169429D01*
X22352000Y-31169429D02*
X22352000Y-29645429D01*
X22206857Y-29863143D01*
X22061715Y-30008286D01*
X21916572Y-30080857D01*
X25508857Y-41220571D02*
X25508857Y-40059428D01*
X25508857Y-28520571D02*
X25508857Y-27359428D01*
X26089429Y-27939999D02*
X24928286Y-27939999D01*
X11575143Y-34979429D02*
X11575143Y-33455429D01*
X11938000Y-33455429D01*
X12155715Y-33528000D01*
X12300857Y-33673143D01*
X12373429Y-33818286D01*
X12446000Y-34108571D01*
X12446000Y-34326286D01*
X12373429Y-34616571D01*
X12300857Y-34761714D01*
X12155715Y-34906857D01*
X11938000Y-34979429D01*
X11575143Y-34979429D01*
X13026572Y-33600571D02*
X13099143Y-33528000D01*
X13244286Y-33455429D01*
X13607143Y-33455429D01*
X13752286Y-33528000D01*
X13824857Y-33600571D01*
X13897429Y-33745714D01*
X13897429Y-33890857D01*
X13824857Y-34108571D01*
X12954000Y-34979429D01*
X13897429Y-34979429D01*
X19987381Y-37646429D02*
X21922619Y-37646429D01*
X20955000Y-38614048D02*
X20955000Y-36678810D01*
X14272381Y-39551429D02*
X16207619Y-39551429D01*
D12*
X50728571Y-11763333D02*
X50728571Y-12096667D01*
X51252381Y-12096667D02*
X50252381Y-12096667D01*
X50252381Y-11620476D01*
X51252381Y-10715714D02*
X51252381Y-11287143D01*
X51252381Y-11001429D02*
X50252381Y-11001429D01*
X50395238Y-11096667D01*
X50490476Y-11191905D01*
X50538095Y-11287143D01*
X39298571Y-11763333D02*
X39298571Y-12096667D01*
X39822381Y-12096667D02*
X38822381Y-12096667D01*
X38822381Y-11620476D01*
X38917619Y-11287143D02*
X38870000Y-11239524D01*
X38822381Y-11144286D01*
X38822381Y-10906190D01*
X38870000Y-10810952D01*
X38917619Y-10763333D01*
X39012857Y-10715714D01*
X39108095Y-10715714D01*
X39250952Y-10763333D01*
X39822381Y-11334762D01*
X39822381Y-10715714D01*
X55062381Y-18518095D02*
X54062381Y-18518095D01*
X54062381Y-18137142D01*
X54110000Y-18041904D01*
X54157619Y-17994285D01*
X54252857Y-17946666D01*
X54395714Y-17946666D01*
X54490952Y-17994285D01*
X54538571Y-18041904D01*
X54586190Y-18137142D01*
X54586190Y-18518095D01*
X55062381Y-16994285D02*
X55062381Y-17565714D01*
X55062381Y-17280000D02*
X54062381Y-17280000D01*
X54205238Y-17375238D01*
X54300476Y-17470476D01*
X54348095Y-17565714D01*
X52522381Y-38838095D02*
X51522381Y-38838095D01*
X51522381Y-38457142D01*
X51570000Y-38361904D01*
X51617619Y-38314285D01*
X51712857Y-38266666D01*
X51855714Y-38266666D01*
X51950952Y-38314285D01*
X51998571Y-38361904D01*
X52046190Y-38457142D01*
X52046190Y-38838095D01*
X51617619Y-37885714D02*
X51570000Y-37838095D01*
X51522381Y-37742857D01*
X51522381Y-37504761D01*
X51570000Y-37409523D01*
X51617619Y-37361904D01*
X51712857Y-37314285D01*
X51808095Y-37314285D01*
X51950952Y-37361904D01*
X52522381Y-37933333D01*
X52522381Y-37314285D01*
X28471905Y-72842381D02*
X28471905Y-71842381D01*
X28852858Y-71842381D01*
X28948096Y-71890000D01*
X28995715Y-71937619D01*
X29043334Y-72032857D01*
X29043334Y-72175714D01*
X28995715Y-72270952D01*
X28948096Y-72318571D01*
X28852858Y-72366190D01*
X28471905Y-72366190D01*
X29376667Y-71842381D02*
X29995715Y-71842381D01*
X29662381Y-72223333D01*
X29805239Y-72223333D01*
X29900477Y-72270952D01*
X29948096Y-72318571D01*
X29995715Y-72413810D01*
X29995715Y-72651905D01*
X29948096Y-72747143D01*
X29900477Y-72794762D01*
X29805239Y-72842381D01*
X29519524Y-72842381D01*
X29424286Y-72794762D01*
X29376667Y-72747143D01*
X43711905Y-71572381D02*
X43711905Y-70572381D01*
X44092858Y-70572381D01*
X44188096Y-70620000D01*
X44235715Y-70667619D01*
X44283334Y-70762857D01*
X44283334Y-70905714D01*
X44235715Y-71000952D01*
X44188096Y-71048571D01*
X44092858Y-71096190D01*
X43711905Y-71096190D01*
X45140477Y-70905714D02*
X45140477Y-71572381D01*
X44902381Y-70524762D02*
X44664286Y-71239048D01*
X45283334Y-71239048D01*
X50061905Y-72842381D02*
X50061905Y-71842381D01*
X50442858Y-71842381D01*
X50538096Y-71890000D01*
X50585715Y-71937619D01*
X50633334Y-72032857D01*
X50633334Y-72175714D01*
X50585715Y-72270952D01*
X50538096Y-72318571D01*
X50442858Y-72366190D01*
X50061905Y-72366190D01*
X51538096Y-71842381D02*
X51061905Y-71842381D01*
X51014286Y-72318571D01*
X51061905Y-72270952D01*
X51157143Y-72223333D01*
X51395239Y-72223333D01*
X51490477Y-72270952D01*
X51538096Y-72318571D01*
X51585715Y-72413810D01*
X51585715Y-72651905D01*
X51538096Y-72747143D01*
X51490477Y-72794762D01*
X51395239Y-72842381D01*
X51157143Y-72842381D01*
X51061905Y-72794762D01*
X51014286Y-72747143D01*
X23391905Y-23312381D02*
X23391905Y-22312381D01*
X23772858Y-22312381D01*
X23868096Y-22360000D01*
X23915715Y-22407619D01*
X23963334Y-22502857D01*
X23963334Y-22645714D01*
X23915715Y-22740952D01*
X23868096Y-22788571D01*
X23772858Y-22836190D01*
X23391905Y-22836190D01*
X24820477Y-22312381D02*
X24630000Y-22312381D01*
X24534762Y-22360000D01*
X24487143Y-22407619D01*
X24391905Y-22550476D01*
X24344286Y-22740952D01*
X24344286Y-23121905D01*
X24391905Y-23217143D01*
X24439524Y-23264762D01*
X24534762Y-23312381D01*
X24725239Y-23312381D01*
X24820477Y-23264762D01*
X24868096Y-23217143D01*
X24915715Y-23121905D01*
X24915715Y-22883810D01*
X24868096Y-22788571D01*
X24820477Y-22740952D01*
X24725239Y-22693333D01*
X24534762Y-22693333D01*
X24439524Y-22740952D01*
X24391905Y-22788571D01*
X24344286Y-22883810D01*
X24582381Y-54776666D02*
X24106190Y-55110000D01*
X24582381Y-55348095D02*
X23582381Y-55348095D01*
X23582381Y-54967142D01*
X23630000Y-54871904D01*
X23677619Y-54824285D01*
X23772857Y-54776666D01*
X23915714Y-54776666D01*
X24010952Y-54824285D01*
X24058571Y-54871904D01*
X24106190Y-54967142D01*
X24106190Y-55348095D01*
X24582381Y-53824285D02*
X24582381Y-54395714D01*
X24582381Y-54110000D02*
X23582381Y-54110000D01*
X23725238Y-54205238D01*
X23820476Y-54300476D01*
X23868095Y-54395714D01*
X19502381Y-63666666D02*
X19026190Y-64000000D01*
X19502381Y-64238095D02*
X18502381Y-64238095D01*
X18502381Y-63857142D01*
X18550000Y-63761904D01*
X18597619Y-63714285D01*
X18692857Y-63666666D01*
X18835714Y-63666666D01*
X18930952Y-63714285D01*
X18978571Y-63761904D01*
X19026190Y-63857142D01*
X19026190Y-64238095D01*
X18597619Y-63285714D02*
X18550000Y-63238095D01*
X18502381Y-63142857D01*
X18502381Y-62904761D01*
X18550000Y-62809523D01*
X18597619Y-62761904D01*
X18692857Y-62714285D01*
X18788095Y-62714285D01*
X18930952Y-62761904D01*
X19502381Y-63333333D01*
X19502381Y-62714285D01*
M02*
