G04 #@! TF.FileFunction,Legend,Bot*
%FSLAX46Y46*%
G04 Gerber Fmt 4.6, Leading zero omitted, Abs format (unit mm)*
G04 Created by KiCad (PCBNEW (after 2015-mar-04 BZR unknown)-product) date Sat 22 Oct 2016 07:01:29 PM CEST*
%MOMM*%
G01*
G04 APERTURE LIST*
%ADD10C,0.100000*%
%ADD11C,0.300000*%
%ADD12C,0.150000*%
G04 APERTURE END LIST*
D10*
D11*
X50382857Y-51958571D02*
X50382857Y-53458571D01*
X50382857Y-52030000D02*
X50240000Y-51958571D01*
X49954286Y-51958571D01*
X49811429Y-52030000D01*
X49740000Y-52101429D01*
X49668571Y-52244286D01*
X49668571Y-52672857D01*
X49740000Y-52815714D01*
X49811429Y-52887143D01*
X49954286Y-52958571D01*
X50240000Y-52958571D01*
X50382857Y-52887143D01*
X48382857Y-52958571D02*
X48382857Y-52172857D01*
X48454286Y-52030000D01*
X48597143Y-51958571D01*
X48882857Y-51958571D01*
X49025714Y-52030000D01*
X48382857Y-52887143D02*
X48525714Y-52958571D01*
X48882857Y-52958571D01*
X49025714Y-52887143D01*
X49097143Y-52744286D01*
X49097143Y-52601429D01*
X49025714Y-52458571D01*
X48882857Y-52387143D01*
X48525714Y-52387143D01*
X48382857Y-52315714D01*
X47811428Y-51458571D02*
X46882857Y-51458571D01*
X47382857Y-52030000D01*
X47168571Y-52030000D01*
X47025714Y-52101429D01*
X46954285Y-52172857D01*
X46882857Y-52315714D01*
X46882857Y-52672857D01*
X46954285Y-52815714D01*
X47025714Y-52887143D01*
X47168571Y-52958571D01*
X47597143Y-52958571D01*
X47740000Y-52887143D01*
X47811428Y-52815714D01*
X45597143Y-51958571D02*
X45597143Y-53172857D01*
X45668572Y-53315714D01*
X45740000Y-53387143D01*
X45882857Y-53458571D01*
X46097143Y-53458571D01*
X46240000Y-53387143D01*
X45597143Y-52887143D02*
X45740000Y-52958571D01*
X46025714Y-52958571D01*
X46168572Y-52887143D01*
X46240000Y-52815714D01*
X46311429Y-52672857D01*
X46311429Y-52244286D01*
X46240000Y-52101429D01*
X46168572Y-52030000D01*
X46025714Y-51958571D01*
X45740000Y-51958571D01*
X45597143Y-52030000D01*
X45025714Y-51958571D02*
X44668571Y-52958571D01*
X44311429Y-51958571D02*
X44668571Y-52958571D01*
X44811429Y-53315714D01*
X44882857Y-53387143D01*
X45025714Y-53458571D01*
X43954286Y-51958571D02*
X43382857Y-51958571D01*
X43740000Y-52958571D02*
X43740000Y-51672857D01*
X43668572Y-51530000D01*
X43525714Y-51458571D01*
X43382857Y-51458571D01*
X54954285Y-54358571D02*
X54954285Y-55858571D01*
X54954285Y-54430000D02*
X54811428Y-54358571D01*
X54525714Y-54358571D01*
X54382857Y-54430000D01*
X54311428Y-54501429D01*
X54239999Y-54644286D01*
X54239999Y-55072857D01*
X54311428Y-55215714D01*
X54382857Y-55287143D01*
X54525714Y-55358571D01*
X54811428Y-55358571D01*
X54954285Y-55287143D01*
X53668571Y-55287143D02*
X53525714Y-55358571D01*
X53239999Y-55358571D01*
X53097142Y-55287143D01*
X53025714Y-55144286D01*
X53025714Y-55072857D01*
X53097142Y-54930000D01*
X53239999Y-54858571D01*
X53454285Y-54858571D01*
X53597142Y-54787143D01*
X53668571Y-54644286D01*
X53668571Y-54572857D01*
X53597142Y-54430000D01*
X53454285Y-54358571D01*
X53239999Y-54358571D01*
X53097142Y-54430000D01*
X51739999Y-54358571D02*
X51739999Y-55358571D01*
X52382856Y-54358571D02*
X52382856Y-55144286D01*
X52311428Y-55287143D01*
X52168570Y-55358571D01*
X51954285Y-55358571D01*
X51811428Y-55287143D01*
X51739999Y-55215714D01*
X51025713Y-54787143D02*
X49882856Y-54787143D01*
X48382856Y-55358571D02*
X49239999Y-55358571D01*
X48811427Y-55358571D02*
X48811427Y-53858571D01*
X48954284Y-54072857D01*
X49097142Y-54215714D01*
X49239999Y-54287143D01*
X47811428Y-54001429D02*
X47739999Y-53930000D01*
X47597142Y-53858571D01*
X47239999Y-53858571D01*
X47097142Y-53930000D01*
X47025713Y-54001429D01*
X46954285Y-54144286D01*
X46954285Y-54287143D01*
X47025713Y-54501429D01*
X47882856Y-55358571D01*
X46954285Y-55358571D01*
X46311428Y-54787143D02*
X45168571Y-54787143D01*
X43668571Y-55358571D02*
X44525714Y-55358571D01*
X44097142Y-55358571D02*
X44097142Y-53858571D01*
X44239999Y-54072857D01*
X44382857Y-54215714D01*
X44525714Y-54287143D01*
X43097143Y-54001429D02*
X43025714Y-53930000D01*
X42882857Y-53858571D01*
X42525714Y-53858571D01*
X42382857Y-53930000D01*
X42311428Y-54001429D01*
X42240000Y-54144286D01*
X42240000Y-54287143D01*
X42311428Y-54501429D01*
X43168571Y-55358571D01*
X42240000Y-55358571D01*
X41597143Y-54787143D02*
X40454286Y-54787143D01*
X39025714Y-53858571D02*
X39740000Y-53858571D01*
X39811429Y-54572857D01*
X39740000Y-54501429D01*
X39597143Y-54430000D01*
X39240000Y-54430000D01*
X39097143Y-54501429D01*
X39025714Y-54572857D01*
X38954286Y-54715714D01*
X38954286Y-55072857D01*
X39025714Y-55215714D01*
X39097143Y-55287143D01*
X39240000Y-55358571D01*
X39597143Y-55358571D01*
X39740000Y-55287143D01*
X39811429Y-55215714D01*
X48061428Y-56758571D02*
X47704285Y-57758571D01*
X47347143Y-56758571D01*
X45990000Y-57758571D02*
X46847143Y-57758571D01*
X46418571Y-57758571D02*
X46418571Y-56258571D01*
X46561428Y-56472857D01*
X46704286Y-56615714D01*
X46847143Y-56687143D01*
X54882857Y-59158571D02*
X54311428Y-59158571D01*
X54668571Y-58658571D02*
X54668571Y-59944286D01*
X54597143Y-60087143D01*
X54454285Y-60158571D01*
X54311428Y-60158571D01*
X53811428Y-59158571D02*
X53811428Y-60158571D01*
X53811428Y-59301429D02*
X53740000Y-59230000D01*
X53597142Y-59158571D01*
X53382857Y-59158571D01*
X53240000Y-59230000D01*
X53168571Y-59372857D01*
X53168571Y-60158571D01*
X52597142Y-60158571D02*
X51811428Y-59158571D01*
X52597142Y-59158571D02*
X51811428Y-60158571D01*
X50311428Y-59444286D02*
X50382856Y-59372857D01*
X50525713Y-59301429D01*
X50668571Y-59301429D01*
X50811428Y-59372857D01*
X50882856Y-59444286D01*
X50954285Y-59587143D01*
X50954285Y-59730000D01*
X50882856Y-59872857D01*
X50811428Y-59944286D01*
X50668571Y-60015714D01*
X50525713Y-60015714D01*
X50382856Y-59944286D01*
X50311428Y-59872857D01*
X50311428Y-59301429D02*
X50311428Y-59872857D01*
X50239999Y-59944286D01*
X50168571Y-59944286D01*
X50025713Y-59872857D01*
X49954285Y-59730000D01*
X49954285Y-59372857D01*
X50097142Y-59158571D01*
X50311428Y-59015714D01*
X50597142Y-58944286D01*
X50882856Y-59015714D01*
X51097142Y-59158571D01*
X51239999Y-59372857D01*
X51311428Y-59658571D01*
X51239999Y-59944286D01*
X51097142Y-60158571D01*
X50882856Y-60301429D01*
X50597142Y-60372857D01*
X50311428Y-60301429D01*
X50097142Y-60158571D01*
X49311428Y-60158571D02*
X49311428Y-59158571D01*
X49311428Y-59301429D02*
X49240000Y-59230000D01*
X49097142Y-59158571D01*
X48882857Y-59158571D01*
X48740000Y-59230000D01*
X48668571Y-59372857D01*
X48668571Y-60158571D01*
X48668571Y-59372857D02*
X48597142Y-59230000D01*
X48454285Y-59158571D01*
X48240000Y-59158571D01*
X48097142Y-59230000D01*
X48025714Y-59372857D01*
X48025714Y-60158571D01*
X47311428Y-60158571D02*
X47311428Y-59158571D01*
X47311428Y-58658571D02*
X47382857Y-58730000D01*
X47311428Y-58801429D01*
X47240000Y-58730000D01*
X47311428Y-58658571D01*
X47311428Y-58801429D01*
X46025714Y-60087143D02*
X46168571Y-60158571D01*
X46454285Y-60158571D01*
X46597142Y-60087143D01*
X46668571Y-59944286D01*
X46668571Y-59372857D01*
X46597142Y-59230000D01*
X46454285Y-59158571D01*
X46168571Y-59158571D01*
X46025714Y-59230000D01*
X45954285Y-59372857D01*
X45954285Y-59515714D01*
X46668571Y-59658571D01*
X45382857Y-60087143D02*
X45240000Y-60158571D01*
X44954285Y-60158571D01*
X44811428Y-60087143D01*
X44740000Y-59944286D01*
X44740000Y-59872857D01*
X44811428Y-59730000D01*
X44954285Y-59658571D01*
X45168571Y-59658571D01*
X45311428Y-59587143D01*
X45382857Y-59444286D01*
X45382857Y-59372857D01*
X45311428Y-59230000D01*
X45168571Y-59158571D01*
X44954285Y-59158571D01*
X44811428Y-59230000D01*
X42882856Y-60158571D02*
X42954285Y-60158571D01*
X43097142Y-60087143D01*
X43311428Y-59872857D01*
X43668571Y-59444286D01*
X43811428Y-59230000D01*
X43882856Y-59015714D01*
X43882856Y-58872857D01*
X43811428Y-58730000D01*
X43668571Y-58658571D01*
X43597142Y-58658571D01*
X43454285Y-58730000D01*
X43382856Y-58872857D01*
X43382856Y-58944286D01*
X43454285Y-59087143D01*
X43525714Y-59158571D01*
X43954285Y-59444286D01*
X44025714Y-59515714D01*
X44097142Y-59658571D01*
X44097142Y-59872857D01*
X44025714Y-60015714D01*
X43954285Y-60087143D01*
X43811428Y-60158571D01*
X43597142Y-60158571D01*
X43454285Y-60087143D01*
X43382856Y-60015714D01*
X43168571Y-59730000D01*
X43097142Y-59515714D01*
X43097142Y-59372857D01*
X41597142Y-60158571D02*
X41597142Y-58658571D01*
X41597142Y-60087143D02*
X41739999Y-60158571D01*
X42025713Y-60158571D01*
X42168571Y-60087143D01*
X42239999Y-60015714D01*
X42311428Y-59872857D01*
X42311428Y-59444286D01*
X42239999Y-59301429D01*
X42168571Y-59230000D01*
X42025713Y-59158571D01*
X41739999Y-59158571D01*
X41597142Y-59230000D01*
X40668570Y-60158571D02*
X40811428Y-60087143D01*
X40882856Y-60015714D01*
X40954285Y-59872857D01*
X40954285Y-59444286D01*
X40882856Y-59301429D01*
X40811428Y-59230000D01*
X40668570Y-59158571D01*
X40454285Y-59158571D01*
X40311428Y-59230000D01*
X40239999Y-59301429D01*
X40168570Y-59444286D01*
X40168570Y-59872857D01*
X40239999Y-60015714D01*
X40311428Y-60087143D01*
X40454285Y-60158571D01*
X40668570Y-60158571D01*
X39525713Y-60158571D02*
X39525713Y-59158571D01*
X39525713Y-59444286D02*
X39454285Y-59301429D01*
X39382856Y-59230000D01*
X39239999Y-59158571D01*
X39097142Y-59158571D01*
D12*
X20300200Y-77689000D02*
X21000200Y-77689000D01*
X21000200Y-76489000D02*
X20300200Y-76489000D01*
X18176800Y-27350200D02*
X18176800Y-26650200D01*
X16976800Y-26650200D02*
X16976800Y-27350200D01*
X32100000Y-74330000D02*
X31400000Y-74330000D01*
X31400000Y-75530000D02*
X32100000Y-75530000D01*
X42260000Y-74330000D02*
X41560000Y-74330000D01*
X41560000Y-75530000D02*
X42260000Y-75530000D01*
X52674000Y-74330000D02*
X51974000Y-74330000D01*
X51974000Y-75530000D02*
X52674000Y-75530000D01*
X18380000Y-51150000D02*
X18380000Y-50450000D01*
X17180000Y-50450000D02*
X17180000Y-51150000D01*
X23780000Y-15840000D02*
X24480000Y-15840000D01*
X24480000Y-14640000D02*
X23780000Y-14640000D01*
X20816866Y-79346143D02*
X20864485Y-79393762D01*
X21007342Y-79441381D01*
X21102580Y-79441381D01*
X21245438Y-79393762D01*
X21340676Y-79298524D01*
X21388295Y-79203286D01*
X21435914Y-79012810D01*
X21435914Y-78869952D01*
X21388295Y-78679476D01*
X21340676Y-78584238D01*
X21245438Y-78489000D01*
X21102580Y-78441381D01*
X21007342Y-78441381D01*
X20864485Y-78489000D01*
X20816866Y-78536619D01*
X20435914Y-78536619D02*
X20388295Y-78489000D01*
X20293057Y-78441381D01*
X20054961Y-78441381D01*
X19959723Y-78489000D01*
X19912104Y-78536619D01*
X19864485Y-78631857D01*
X19864485Y-78727095D01*
X19912104Y-78869952D01*
X20483533Y-79441381D01*
X19864485Y-79441381D01*
X19833943Y-26833534D02*
X19881562Y-26785915D01*
X19929181Y-26643058D01*
X19929181Y-26547820D01*
X19881562Y-26404962D01*
X19786324Y-26309724D01*
X19691086Y-26262105D01*
X19500610Y-26214486D01*
X19357752Y-26214486D01*
X19167276Y-26262105D01*
X19072038Y-26309724D01*
X18976800Y-26404962D01*
X18929181Y-26547820D01*
X18929181Y-26643058D01*
X18976800Y-26785915D01*
X19024419Y-26833534D01*
X19262514Y-27690677D02*
X19929181Y-27690677D01*
X18881562Y-27452581D02*
X19595848Y-27214486D01*
X19595848Y-27833534D01*
X31916666Y-73387143D02*
X31964285Y-73434762D01*
X32107142Y-73482381D01*
X32202380Y-73482381D01*
X32345238Y-73434762D01*
X32440476Y-73339524D01*
X32488095Y-73244286D01*
X32535714Y-73053810D01*
X32535714Y-72910952D01*
X32488095Y-72720476D01*
X32440476Y-72625238D01*
X32345238Y-72530000D01*
X32202380Y-72482381D01*
X32107142Y-72482381D01*
X31964285Y-72530000D01*
X31916666Y-72577619D01*
X31011904Y-72482381D02*
X31488095Y-72482381D01*
X31535714Y-72958571D01*
X31488095Y-72910952D01*
X31392857Y-72863333D01*
X31154761Y-72863333D01*
X31059523Y-72910952D01*
X31011904Y-72958571D01*
X30964285Y-73053810D01*
X30964285Y-73291905D01*
X31011904Y-73387143D01*
X31059523Y-73434762D01*
X31154761Y-73482381D01*
X31392857Y-73482381D01*
X31488095Y-73434762D01*
X31535714Y-73387143D01*
X42076666Y-73387143D02*
X42124285Y-73434762D01*
X42267142Y-73482381D01*
X42362380Y-73482381D01*
X42505238Y-73434762D01*
X42600476Y-73339524D01*
X42648095Y-73244286D01*
X42695714Y-73053810D01*
X42695714Y-72910952D01*
X42648095Y-72720476D01*
X42600476Y-72625238D01*
X42505238Y-72530000D01*
X42362380Y-72482381D01*
X42267142Y-72482381D01*
X42124285Y-72530000D01*
X42076666Y-72577619D01*
X41219523Y-72482381D02*
X41410000Y-72482381D01*
X41505238Y-72530000D01*
X41552857Y-72577619D01*
X41648095Y-72720476D01*
X41695714Y-72910952D01*
X41695714Y-73291905D01*
X41648095Y-73387143D01*
X41600476Y-73434762D01*
X41505238Y-73482381D01*
X41314761Y-73482381D01*
X41219523Y-73434762D01*
X41171904Y-73387143D01*
X41124285Y-73291905D01*
X41124285Y-73053810D01*
X41171904Y-72958571D01*
X41219523Y-72910952D01*
X41314761Y-72863333D01*
X41505238Y-72863333D01*
X41600476Y-72910952D01*
X41648095Y-72958571D01*
X41695714Y-73053810D01*
X52490666Y-73387143D02*
X52538285Y-73434762D01*
X52681142Y-73482381D01*
X52776380Y-73482381D01*
X52919238Y-73434762D01*
X53014476Y-73339524D01*
X53062095Y-73244286D01*
X53109714Y-73053810D01*
X53109714Y-72910952D01*
X53062095Y-72720476D01*
X53014476Y-72625238D01*
X52919238Y-72530000D01*
X52776380Y-72482381D01*
X52681142Y-72482381D01*
X52538285Y-72530000D01*
X52490666Y-72577619D01*
X52157333Y-72482381D02*
X51490666Y-72482381D01*
X51919238Y-73482381D01*
X20037143Y-50157143D02*
X20084762Y-50109524D01*
X20132381Y-49966667D01*
X20132381Y-49871429D01*
X20084762Y-49728571D01*
X19989524Y-49633333D01*
X19894286Y-49585714D01*
X19703810Y-49538095D01*
X19560952Y-49538095D01*
X19370476Y-49585714D01*
X19275238Y-49633333D01*
X19180000Y-49728571D01*
X19132381Y-49871429D01*
X19132381Y-49966667D01*
X19180000Y-50109524D01*
X19227619Y-50157143D01*
X20132381Y-51109524D02*
X20132381Y-50538095D01*
X20132381Y-50823809D02*
X19132381Y-50823809D01*
X19275238Y-50728571D01*
X19370476Y-50633333D01*
X19418095Y-50538095D01*
X19132381Y-51728571D02*
X19132381Y-51823810D01*
X19180000Y-51919048D01*
X19227619Y-51966667D01*
X19322857Y-52014286D01*
X19513333Y-52061905D01*
X19751429Y-52061905D01*
X19941905Y-52014286D01*
X20037143Y-51966667D01*
X20084762Y-51919048D01*
X20132381Y-51823810D01*
X20132381Y-51728571D01*
X20084762Y-51633333D01*
X20037143Y-51585714D01*
X19941905Y-51538095D01*
X19751429Y-51490476D01*
X19513333Y-51490476D01*
X19322857Y-51538095D01*
X19227619Y-51585714D01*
X19180000Y-51633333D01*
X19132381Y-51728571D01*
X24772857Y-17497143D02*
X24820476Y-17544762D01*
X24963333Y-17592381D01*
X25058571Y-17592381D01*
X25201429Y-17544762D01*
X25296667Y-17449524D01*
X25344286Y-17354286D01*
X25391905Y-17163810D01*
X25391905Y-17020952D01*
X25344286Y-16830476D01*
X25296667Y-16735238D01*
X25201429Y-16640000D01*
X25058571Y-16592381D01*
X24963333Y-16592381D01*
X24820476Y-16640000D01*
X24772857Y-16687619D01*
X23820476Y-17592381D02*
X24391905Y-17592381D01*
X24106191Y-17592381D02*
X24106191Y-16592381D01*
X24201429Y-16735238D01*
X24296667Y-16830476D01*
X24391905Y-16878095D01*
X22868095Y-17592381D02*
X23439524Y-17592381D01*
X23153810Y-17592381D02*
X23153810Y-16592381D01*
X23249048Y-16735238D01*
X23344286Y-16830476D01*
X23439524Y-16878095D01*
M02*
