%FSLAX45Y45*%
G04 Gerber Fmt 4.5, Leading zero omitted, Abs format (unit mm)*
G04 Created by KiCad (PCBNEW (after 2015-mar-04 BZR unknown)-product) date Sat 22 Oct 2016 07:01:56 PM CEST*
%MOMM*%
G01*
G04 APERTURE LIST*
%ADD10C,0.127000*%
%ADD11C,0.100000*%
%ADD12C,0.200000*%
%ADD13C,0.300000*%
G04 APERTURE END LIST*
D10*
D11*
X1016000Y-8509000D02*
X1016000Y-1016000D01*
X6477000Y-8509000D02*
X1016000Y-8509000D01*
X6477000Y-1016000D02*
X6477000Y-8509000D01*
X1016000Y-1016000D02*
X6477000Y-1016000D01*
D12*
X1498600Y-3530600D02*
X1549400Y-3581400D01*
X1549400Y-3530600D02*
X1498600Y-3581400D01*
X1498600Y-4038600D02*
X1549400Y-4089400D01*
X1549400Y-4038600D02*
X1498600Y-4089400D01*
X2006600Y-3530600D02*
X2057400Y-3581400D01*
X2057400Y-3530600D02*
X2006600Y-3581400D01*
X2006600Y-4038600D02*
X2057400Y-4089400D01*
X2057400Y-4038600D02*
X2006600Y-4089400D01*
X2707005Y-2667000D02*
G75*
G03X2707005Y-2667000I-40005J0D01*
G01*
X2707005Y-3175000D02*
G75*
G03X2707005Y-3175000I-40005J0D01*
G01*
X2707005Y-3683000D02*
G75*
G03X2707005Y-3683000I-40005J0D01*
G01*
X2707005Y-4191000D02*
G75*
G03X2707005Y-4191000I-40005J0D01*
G01*
X3850005Y-4699000D02*
G75*
G03X3850005Y-4699000I-40005J0D01*
G01*
X3850005Y-4953000D02*
G75*
G03X3850005Y-4953000I-40005J0D01*
G01*
X3850005Y-6350000D02*
G75*
G03X3850005Y-6350000I-40005J0D01*
G01*
X3850005Y-6604000D02*
G75*
G03X3850005Y-6604000I-40005J0D01*
G01*
X5628005Y-4699000D02*
G75*
G03X5628005Y-4699000I-40005J0D01*
G01*
X5628005Y-4953000D02*
G75*
G03X5628005Y-4953000I-40005J0D01*
G01*
X5628005Y-6350000D02*
G75*
G03X5628005Y-6350000I-40005J0D01*
G01*
X5628005Y-6604000D02*
G75*
G03X5628005Y-6604000I-40005J0D01*
G01*
X2159000Y-5549962D02*
X2159000Y-5650038D01*
X2108962Y-5600000D02*
X2209038Y-5600000D01*
X2159000Y-7049962D02*
X2159000Y-7150038D01*
X2108962Y-7100000D02*
X2209038Y-7100000D01*
X2667000Y-4660962D02*
X2667000Y-4761038D01*
X2616962Y-4711000D02*
X2717038Y-4711000D01*
X2667000Y-6160962D02*
X2667000Y-6261038D01*
X2616962Y-6211000D02*
X2717038Y-6211000D01*
X1437411Y-2326412D02*
X1437411Y-2245589D01*
X1356589Y-2245589D01*
X1356589Y-2326412D01*
X1437411Y-2326412D01*
X1437411Y-2580412D02*
X1437411Y-2499589D01*
X1356589Y-2499589D01*
X1356589Y-2580412D01*
X1437411Y-2580412D01*
X1437411Y-2834411D02*
X1437411Y-2753589D01*
X1356589Y-2753589D01*
X1356589Y-2834411D01*
X1437411Y-2834411D01*
X1437411Y-4739412D02*
X1437411Y-4658589D01*
X1356589Y-4658589D01*
X1356589Y-4739412D01*
X1437411Y-4739412D01*
X1437411Y-4993412D02*
X1437411Y-4912589D01*
X1356589Y-4912589D01*
X1356589Y-4993412D01*
X1437411Y-4993412D01*
X1437411Y-5247412D02*
X1437411Y-5166589D01*
X1356589Y-5166589D01*
X1356589Y-5247412D01*
X1437411Y-5247412D01*
X1437411Y-6898411D02*
X1437411Y-6817588D01*
X1356589Y-6817588D01*
X1356589Y-6898411D01*
X1437411Y-6898411D01*
X1437411Y-7152411D02*
X1437411Y-7071588D01*
X1356589Y-7071588D01*
X1356589Y-7152411D01*
X1437411Y-7152411D01*
X1437411Y-7406411D02*
X1437411Y-7325588D01*
X1356589Y-7325588D01*
X1356589Y-7406411D01*
X1437411Y-7406411D01*
X2159000Y-1583944D02*
X2218944Y-1524000D01*
X2159000Y-1464056D01*
X2099056Y-1524000D01*
X2159000Y-1583944D01*
X2667000Y-1583944D02*
X2726944Y-1524000D01*
X2667000Y-1464056D01*
X2607056Y-1524000D01*
X2667000Y-1583944D01*
X2794000Y-8060944D02*
X2853944Y-8001000D01*
X2794000Y-7941056D01*
X2734056Y-8001000D01*
X2794000Y-8060944D01*
X3302000Y-8060944D02*
X3361944Y-8001000D01*
X3302000Y-7941056D01*
X3242056Y-8001000D01*
X3302000Y-8060944D01*
X3810000Y-8060944D02*
X3869944Y-8001000D01*
X3810000Y-7941056D01*
X3750056Y-8001000D01*
X3810000Y-8060944D01*
X4318000Y-8060944D02*
X4377944Y-8001000D01*
X4318000Y-7941056D01*
X4258056Y-8001000D01*
X4318000Y-8060944D01*
X4826000Y-8060944D02*
X4885944Y-8001000D01*
X4826000Y-7941056D01*
X4766056Y-8001000D01*
X4826000Y-8060944D01*
X5334000Y-8060944D02*
X5393944Y-8001000D01*
X5334000Y-7941056D01*
X5274056Y-8001000D01*
X5334000Y-8060944D01*
X5969000Y-2218944D02*
X6028944Y-2159000D01*
X5969000Y-2099056D01*
X5909056Y-2159000D01*
X5969000Y-2218944D01*
X5969000Y-2726944D02*
X6028944Y-2667000D01*
X5969000Y-2607056D01*
X5909056Y-2667000D01*
X5969000Y-2726944D01*
X5969000Y-3234944D02*
X6028944Y-3175000D01*
X5969000Y-3115056D01*
X5909056Y-3175000D01*
X5969000Y-3234944D01*
X5969000Y-3742944D02*
X6028944Y-3683000D01*
X5969000Y-3623056D01*
X5909056Y-3683000D01*
X5969000Y-3742944D01*
X3480943Y-1364869D02*
X3631057Y-1514983D01*
X3631057Y-1364869D02*
X3480943Y-1514983D01*
X3631057Y-1439926D02*
G75*
G03X3631057Y-1439926I-75057J0D01*
G01*
X3480943Y-3565017D02*
X3631057Y-3715131D01*
X3631057Y-3565017D02*
X3480943Y-3715131D01*
X3631057Y-3640074D02*
G75*
G03X3631057Y-3640074I-75057J0D01*
G01*
X4623943Y-1364869D02*
X4774057Y-1514983D01*
X4774057Y-1364869D02*
X4623943Y-1514983D01*
X4774057Y-1439926D02*
G75*
G03X4774057Y-1439926I-75057J0D01*
G01*
X4623943Y-3565017D02*
X4774057Y-3715131D01*
X4774057Y-3565017D02*
X4623943Y-3715131D01*
X4774057Y-3640074D02*
G75*
G03X4774057Y-3640074I-75057J0D01*
G01*
X1247013Y-1247013D02*
X1546987Y-1546987D01*
X1546987Y-1247013D02*
X1247013Y-1546987D01*
X1397000Y-1247013D02*
X1397000Y-1546987D01*
X1247013Y-1397000D02*
X1546987Y-1397000D01*
X1247013Y-7978013D02*
X1546987Y-8277987D01*
X1546987Y-7978013D02*
X1247013Y-8277987D01*
X1397000Y-7978013D02*
X1397000Y-8277987D01*
X1247013Y-8128000D02*
X1546987Y-8128000D01*
X5946013Y-1247013D02*
X6245987Y-1546987D01*
X6245987Y-1247013D02*
X5946013Y-1546987D01*
X6096000Y-1247013D02*
X6096000Y-1546987D01*
X5946013Y-1397000D02*
X6245987Y-1397000D01*
X5946013Y-7978013D02*
X6245987Y-8277987D01*
X6245987Y-7978013D02*
X5946013Y-8277987D01*
X6096000Y-7978013D02*
X6096000Y-8277987D01*
X5946013Y-8128000D02*
X6245987Y-8128000D01*
D13*
X1282429Y-8979714D02*
X1282429Y-8679714D01*
X1353857Y-8679714D01*
X1396714Y-8694000D01*
X1425286Y-8722572D01*
X1439571Y-8751143D01*
X1453857Y-8808286D01*
X1453857Y-8851143D01*
X1439571Y-8908286D01*
X1425286Y-8936857D01*
X1396714Y-8965429D01*
X1353857Y-8979714D01*
X1282429Y-8979714D01*
X1582428Y-8979714D02*
X1582428Y-8779714D01*
X1582428Y-8836857D02*
X1596714Y-8808286D01*
X1611000Y-8794000D01*
X1639571Y-8779714D01*
X1668143Y-8779714D01*
X1768143Y-8979714D02*
X1768143Y-8779714D01*
X1768143Y-8679714D02*
X1753857Y-8694000D01*
X1768143Y-8708286D01*
X1782428Y-8694000D01*
X1768143Y-8679714D01*
X1768143Y-8708286D01*
X1953857Y-8979714D02*
X1925286Y-8965429D01*
X1911000Y-8936857D01*
X1911000Y-8679714D01*
X2111000Y-8979714D02*
X2082428Y-8965429D01*
X2068143Y-8936857D01*
X2068143Y-8679714D01*
X2453857Y-8979714D02*
X2453857Y-8679714D01*
X2553857Y-8894000D01*
X2653857Y-8679714D01*
X2653857Y-8979714D01*
X2925286Y-8979714D02*
X2925286Y-8822572D01*
X2911000Y-8794000D01*
X2882428Y-8779714D01*
X2825286Y-8779714D01*
X2796714Y-8794000D01*
X2925286Y-8965429D02*
X2896714Y-8979714D01*
X2825286Y-8979714D01*
X2796714Y-8965429D01*
X2782429Y-8936857D01*
X2782429Y-8908286D01*
X2796714Y-8879714D01*
X2825286Y-8865429D01*
X2896714Y-8865429D01*
X2925286Y-8851143D01*
X3068143Y-8779714D02*
X3068143Y-9079714D01*
X3068143Y-8794000D02*
X3096714Y-8779714D01*
X3153857Y-8779714D01*
X3182428Y-8794000D01*
X3196714Y-8808286D01*
X3211000Y-8836857D01*
X3211000Y-8922572D01*
X3196714Y-8951143D01*
X3182428Y-8965429D01*
X3153857Y-8979714D01*
X3096714Y-8979714D01*
X3068143Y-8965429D01*
X3339571Y-8951143D02*
X3353857Y-8965429D01*
X3339571Y-8979714D01*
X3325286Y-8965429D01*
X3339571Y-8951143D01*
X3339571Y-8979714D01*
X3339571Y-8794000D02*
X3353857Y-8808286D01*
X3339571Y-8822572D01*
X3325286Y-8808286D01*
X3339571Y-8794000D01*
X3339571Y-8822572D01*
X960200Y-9448600D02*
X1011000Y-9499400D01*
X1011000Y-9448600D02*
X960200Y-9499400D01*
X1339571Y-9309714D02*
X1368143Y-9309714D01*
X1396714Y-9324000D01*
X1411000Y-9338286D01*
X1425286Y-9366857D01*
X1439571Y-9424000D01*
X1439571Y-9495429D01*
X1425286Y-9552572D01*
X1411000Y-9581143D01*
X1396714Y-9595429D01*
X1368143Y-9609714D01*
X1339571Y-9609714D01*
X1311000Y-9595429D01*
X1296714Y-9581143D01*
X1282429Y-9552572D01*
X1268143Y-9495429D01*
X1268143Y-9424000D01*
X1282429Y-9366857D01*
X1296714Y-9338286D01*
X1311000Y-9324000D01*
X1339571Y-9309714D01*
X1568143Y-9581143D02*
X1582428Y-9595429D01*
X1568143Y-9609714D01*
X1553857Y-9595429D01*
X1568143Y-9581143D01*
X1568143Y-9609714D01*
X1853857Y-9309714D02*
X1711000Y-9309714D01*
X1696714Y-9452572D01*
X1711000Y-9438286D01*
X1739571Y-9424000D01*
X1811000Y-9424000D01*
X1839571Y-9438286D01*
X1853857Y-9452572D01*
X1868143Y-9481143D01*
X1868143Y-9552572D01*
X1853857Y-9581143D01*
X1839571Y-9595429D01*
X1811000Y-9609714D01*
X1739571Y-9609714D01*
X1711000Y-9595429D01*
X1696714Y-9581143D01*
X2153857Y-9609714D02*
X1982428Y-9609714D01*
X2068143Y-9609714D02*
X2068143Y-9309714D01*
X2039571Y-9352572D01*
X2011000Y-9381143D01*
X1982428Y-9395429D01*
X2282429Y-9609714D02*
X2282429Y-9409714D01*
X2282429Y-9438286D02*
X2296714Y-9424000D01*
X2325286Y-9409714D01*
X2368143Y-9409714D01*
X2396714Y-9424000D01*
X2411000Y-9452572D01*
X2411000Y-9609714D01*
X2411000Y-9452572D02*
X2425286Y-9424000D01*
X2453857Y-9409714D01*
X2496714Y-9409714D01*
X2525286Y-9424000D01*
X2539571Y-9452572D01*
X2539571Y-9609714D01*
X2682429Y-9609714D02*
X2682429Y-9409714D01*
X2682429Y-9438286D02*
X2696714Y-9424000D01*
X2725286Y-9409714D01*
X2768143Y-9409714D01*
X2796714Y-9424000D01*
X2811000Y-9452572D01*
X2811000Y-9609714D01*
X2811000Y-9452572D02*
X2825286Y-9424000D01*
X2853857Y-9409714D01*
X2896714Y-9409714D01*
X2925286Y-9424000D01*
X2939571Y-9452572D01*
X2939571Y-9609714D01*
X3525286Y-9295429D02*
X3268143Y-9681143D01*
X3911000Y-9309714D02*
X3939571Y-9309714D01*
X3968143Y-9324000D01*
X3982428Y-9338286D01*
X3996714Y-9366857D01*
X4011000Y-9424000D01*
X4011000Y-9495429D01*
X3996714Y-9552572D01*
X3982428Y-9581143D01*
X3968143Y-9595429D01*
X3939571Y-9609714D01*
X3911000Y-9609714D01*
X3882428Y-9595429D01*
X3868143Y-9581143D01*
X3853857Y-9552572D01*
X3839571Y-9495429D01*
X3839571Y-9424000D01*
X3853857Y-9366857D01*
X3868143Y-9338286D01*
X3882428Y-9324000D01*
X3911000Y-9309714D01*
X4139571Y-9581143D02*
X4153857Y-9595429D01*
X4139571Y-9609714D01*
X4125286Y-9595429D01*
X4139571Y-9581143D01*
X4139571Y-9609714D01*
X4339571Y-9309714D02*
X4368143Y-9309714D01*
X4396714Y-9324000D01*
X4411000Y-9338286D01*
X4425286Y-9366857D01*
X4439571Y-9424000D01*
X4439571Y-9495429D01*
X4425286Y-9552572D01*
X4411000Y-9581143D01*
X4396714Y-9595429D01*
X4368143Y-9609714D01*
X4339571Y-9609714D01*
X4311000Y-9595429D01*
X4296714Y-9581143D01*
X4282428Y-9552572D01*
X4268143Y-9495429D01*
X4268143Y-9424000D01*
X4282428Y-9366857D01*
X4296714Y-9338286D01*
X4311000Y-9324000D01*
X4339571Y-9309714D01*
X4553857Y-9338286D02*
X4568143Y-9324000D01*
X4596714Y-9309714D01*
X4668143Y-9309714D01*
X4696714Y-9324000D01*
X4711000Y-9338286D01*
X4725286Y-9366857D01*
X4725286Y-9395429D01*
X4711000Y-9438286D01*
X4539571Y-9609714D01*
X4725286Y-9609714D01*
X4911000Y-9309714D02*
X4939571Y-9309714D01*
X4968143Y-9324000D01*
X4982428Y-9338286D01*
X4996714Y-9366857D01*
X5011000Y-9424000D01*
X5011000Y-9495429D01*
X4996714Y-9552572D01*
X4982428Y-9581143D01*
X4968143Y-9595429D01*
X4939571Y-9609714D01*
X4911000Y-9609714D01*
X4882428Y-9595429D01*
X4868143Y-9581143D01*
X4853857Y-9552572D01*
X4839571Y-9495429D01*
X4839571Y-9424000D01*
X4853857Y-9366857D01*
X4868143Y-9338286D01*
X4882428Y-9324000D01*
X4911000Y-9309714D01*
X5125286Y-9309714D02*
X5125286Y-9366857D01*
X5239571Y-9309714D02*
X5239571Y-9366857D01*
X5682428Y-9724000D02*
X5668143Y-9709714D01*
X5639571Y-9666857D01*
X5625285Y-9638286D01*
X5611000Y-9595429D01*
X5596714Y-9524000D01*
X5596714Y-9466857D01*
X5611000Y-9395429D01*
X5625285Y-9352572D01*
X5639571Y-9324000D01*
X5668143Y-9281143D01*
X5682428Y-9266857D01*
X5925285Y-9409714D02*
X5925285Y-9609714D01*
X5853857Y-9295429D02*
X5782428Y-9509714D01*
X5968143Y-9509714D01*
X6311000Y-9609714D02*
X6311000Y-9309714D01*
X6439571Y-9609714D02*
X6439571Y-9452572D01*
X6425285Y-9424000D01*
X6396714Y-9409714D01*
X6353857Y-9409714D01*
X6325285Y-9424000D01*
X6311000Y-9438286D01*
X6625285Y-9609714D02*
X6596714Y-9595429D01*
X6582428Y-9581143D01*
X6568143Y-9552572D01*
X6568143Y-9466857D01*
X6582428Y-9438286D01*
X6596714Y-9424000D01*
X6625285Y-9409714D01*
X6668143Y-9409714D01*
X6696714Y-9424000D01*
X6711000Y-9438286D01*
X6725285Y-9466857D01*
X6725285Y-9552572D01*
X6711000Y-9581143D01*
X6696714Y-9595429D01*
X6668143Y-9609714D01*
X6625285Y-9609714D01*
X6896714Y-9609714D02*
X6868143Y-9595429D01*
X6853857Y-9566857D01*
X6853857Y-9309714D01*
X7125286Y-9595429D02*
X7096714Y-9609714D01*
X7039571Y-9609714D01*
X7011000Y-9595429D01*
X6996714Y-9566857D01*
X6996714Y-9452572D01*
X7011000Y-9424000D01*
X7039571Y-9409714D01*
X7096714Y-9409714D01*
X7125286Y-9424000D01*
X7139571Y-9452572D01*
X7139571Y-9481143D01*
X6996714Y-9509714D01*
X7253857Y-9595429D02*
X7282428Y-9609714D01*
X7339571Y-9609714D01*
X7368143Y-9595429D01*
X7382428Y-9566857D01*
X7382428Y-9552572D01*
X7368143Y-9524000D01*
X7339571Y-9509714D01*
X7296714Y-9509714D01*
X7268143Y-9495429D01*
X7253857Y-9466857D01*
X7253857Y-9452572D01*
X7268143Y-9424000D01*
X7296714Y-9409714D01*
X7339571Y-9409714D01*
X7368143Y-9424000D01*
X7482428Y-9724000D02*
X7496714Y-9709714D01*
X7525286Y-9666857D01*
X7539571Y-9638286D01*
X7553857Y-9595429D01*
X7568143Y-9524000D01*
X7568143Y-9466857D01*
X7553857Y-9395429D01*
X7539571Y-9352572D01*
X7525286Y-9324000D01*
X7496714Y-9281143D01*
X7482428Y-9266857D01*
X1011000Y-9870000D02*
G75*
G03X1011000Y-9870000I-40005J0D01*
G01*
X1339571Y-9705714D02*
X1368143Y-9705714D01*
X1396714Y-9720000D01*
X1411000Y-9734286D01*
X1425286Y-9762857D01*
X1439571Y-9820000D01*
X1439571Y-9891429D01*
X1425286Y-9948572D01*
X1411000Y-9977143D01*
X1396714Y-9991429D01*
X1368143Y-10005714D01*
X1339571Y-10005714D01*
X1311000Y-9991429D01*
X1296714Y-9977143D01*
X1282429Y-9948572D01*
X1268143Y-9891429D01*
X1268143Y-9820000D01*
X1282429Y-9762857D01*
X1296714Y-9734286D01*
X1311000Y-9720000D01*
X1339571Y-9705714D01*
X1568143Y-9977143D02*
X1582428Y-9991429D01*
X1568143Y-10005714D01*
X1553857Y-9991429D01*
X1568143Y-9977143D01*
X1568143Y-10005714D01*
X1753857Y-9834286D02*
X1725286Y-9820000D01*
X1711000Y-9805714D01*
X1696714Y-9777143D01*
X1696714Y-9762857D01*
X1711000Y-9734286D01*
X1725286Y-9720000D01*
X1753857Y-9705714D01*
X1811000Y-9705714D01*
X1839571Y-9720000D01*
X1853857Y-9734286D01*
X1868143Y-9762857D01*
X1868143Y-9777143D01*
X1853857Y-9805714D01*
X1839571Y-9820000D01*
X1811000Y-9834286D01*
X1753857Y-9834286D01*
X1725286Y-9848572D01*
X1711000Y-9862857D01*
X1696714Y-9891429D01*
X1696714Y-9948572D01*
X1711000Y-9977143D01*
X1725286Y-9991429D01*
X1753857Y-10005714D01*
X1811000Y-10005714D01*
X1839571Y-9991429D01*
X1853857Y-9977143D01*
X1868143Y-9948572D01*
X1868143Y-9891429D01*
X1853857Y-9862857D01*
X1839571Y-9848572D01*
X1811000Y-9834286D01*
X2053857Y-9705714D02*
X2082428Y-9705714D01*
X2111000Y-9720000D01*
X2125286Y-9734286D01*
X2139571Y-9762857D01*
X2153857Y-9820000D01*
X2153857Y-9891429D01*
X2139571Y-9948572D01*
X2125286Y-9977143D01*
X2111000Y-9991429D01*
X2082428Y-10005714D01*
X2053857Y-10005714D01*
X2025286Y-9991429D01*
X2011000Y-9977143D01*
X1996714Y-9948572D01*
X1982428Y-9891429D01*
X1982428Y-9820000D01*
X1996714Y-9762857D01*
X2011000Y-9734286D01*
X2025286Y-9720000D01*
X2053857Y-9705714D01*
X2282429Y-10005714D02*
X2282429Y-9805714D01*
X2282429Y-9834286D02*
X2296714Y-9820000D01*
X2325286Y-9805714D01*
X2368143Y-9805714D01*
X2396714Y-9820000D01*
X2411000Y-9848572D01*
X2411000Y-10005714D01*
X2411000Y-9848572D02*
X2425286Y-9820000D01*
X2453857Y-9805714D01*
X2496714Y-9805714D01*
X2525286Y-9820000D01*
X2539571Y-9848572D01*
X2539571Y-10005714D01*
X2682429Y-10005714D02*
X2682429Y-9805714D01*
X2682429Y-9834286D02*
X2696714Y-9820000D01*
X2725286Y-9805714D01*
X2768143Y-9805714D01*
X2796714Y-9820000D01*
X2811000Y-9848572D01*
X2811000Y-10005714D01*
X2811000Y-9848572D02*
X2825286Y-9820000D01*
X2853857Y-9805714D01*
X2896714Y-9805714D01*
X2925286Y-9820000D01*
X2939571Y-9848572D01*
X2939571Y-10005714D01*
X3525286Y-9691429D02*
X3268143Y-10077143D01*
X3911000Y-9705714D02*
X3939571Y-9705714D01*
X3968143Y-9720000D01*
X3982428Y-9734286D01*
X3996714Y-9762857D01*
X4011000Y-9820000D01*
X4011000Y-9891429D01*
X3996714Y-9948572D01*
X3982428Y-9977143D01*
X3968143Y-9991429D01*
X3939571Y-10005714D01*
X3911000Y-10005714D01*
X3882428Y-9991429D01*
X3868143Y-9977143D01*
X3853857Y-9948572D01*
X3839571Y-9891429D01*
X3839571Y-9820000D01*
X3853857Y-9762857D01*
X3868143Y-9734286D01*
X3882428Y-9720000D01*
X3911000Y-9705714D01*
X4139571Y-9977143D02*
X4153857Y-9991429D01*
X4139571Y-10005714D01*
X4125286Y-9991429D01*
X4139571Y-9977143D01*
X4139571Y-10005714D01*
X4339571Y-9705714D02*
X4368143Y-9705714D01*
X4396714Y-9720000D01*
X4411000Y-9734286D01*
X4425286Y-9762857D01*
X4439571Y-9820000D01*
X4439571Y-9891429D01*
X4425286Y-9948572D01*
X4411000Y-9977143D01*
X4396714Y-9991429D01*
X4368143Y-10005714D01*
X4339571Y-10005714D01*
X4311000Y-9991429D01*
X4296714Y-9977143D01*
X4282428Y-9948572D01*
X4268143Y-9891429D01*
X4268143Y-9820000D01*
X4282428Y-9762857D01*
X4296714Y-9734286D01*
X4311000Y-9720000D01*
X4339571Y-9705714D01*
X4539571Y-9705714D02*
X4725286Y-9705714D01*
X4625286Y-9820000D01*
X4668143Y-9820000D01*
X4696714Y-9834286D01*
X4711000Y-9848572D01*
X4725286Y-9877143D01*
X4725286Y-9948572D01*
X4711000Y-9977143D01*
X4696714Y-9991429D01*
X4668143Y-10005714D01*
X4582428Y-10005714D01*
X4553857Y-9991429D01*
X4539571Y-9977143D01*
X4839571Y-9734286D02*
X4853857Y-9720000D01*
X4882428Y-9705714D01*
X4953857Y-9705714D01*
X4982428Y-9720000D01*
X4996714Y-9734286D01*
X5011000Y-9762857D01*
X5011000Y-9791429D01*
X4996714Y-9834286D01*
X4825286Y-10005714D01*
X5011000Y-10005714D01*
X5125286Y-9705714D02*
X5125286Y-9762857D01*
X5239571Y-9705714D02*
X5239571Y-9762857D01*
X5682428Y-10120000D02*
X5668143Y-10105714D01*
X5639571Y-10062857D01*
X5625285Y-10034286D01*
X5611000Y-9991429D01*
X5596714Y-9920000D01*
X5596714Y-9862857D01*
X5611000Y-9791429D01*
X5625285Y-9748572D01*
X5639571Y-9720000D01*
X5668143Y-9677143D01*
X5682428Y-9662857D01*
X5953857Y-10005714D02*
X5782428Y-10005714D01*
X5868143Y-10005714D02*
X5868143Y-9705714D01*
X5839571Y-9748572D01*
X5811000Y-9777143D01*
X5782428Y-9791429D01*
X6068143Y-9734286D02*
X6082428Y-9720000D01*
X6111000Y-9705714D01*
X6182428Y-9705714D01*
X6211000Y-9720000D01*
X6225285Y-9734286D01*
X6239571Y-9762857D01*
X6239571Y-9791429D01*
X6225285Y-9834286D01*
X6053857Y-10005714D01*
X6239571Y-10005714D01*
X6596714Y-10005714D02*
X6596714Y-9705714D01*
X6725285Y-10005714D02*
X6725285Y-9848572D01*
X6711000Y-9820000D01*
X6682428Y-9805714D01*
X6639571Y-9805714D01*
X6611000Y-9820000D01*
X6596714Y-9834286D01*
X6911000Y-10005714D02*
X6882428Y-9991429D01*
X6868143Y-9977143D01*
X6853857Y-9948572D01*
X6853857Y-9862857D01*
X6868143Y-9834286D01*
X6882428Y-9820000D01*
X6911000Y-9805714D01*
X6953857Y-9805714D01*
X6982428Y-9820000D01*
X6996714Y-9834286D01*
X7011000Y-9862857D01*
X7011000Y-9948572D01*
X6996714Y-9977143D01*
X6982428Y-9991429D01*
X6953857Y-10005714D01*
X6911000Y-10005714D01*
X7182428Y-10005714D02*
X7153857Y-9991429D01*
X7139571Y-9962857D01*
X7139571Y-9705714D01*
X7411000Y-9991429D02*
X7382428Y-10005714D01*
X7325286Y-10005714D01*
X7296714Y-9991429D01*
X7282428Y-9962857D01*
X7282428Y-9848572D01*
X7296714Y-9820000D01*
X7325286Y-9805714D01*
X7382428Y-9805714D01*
X7411000Y-9820000D01*
X7425286Y-9848572D01*
X7425286Y-9877143D01*
X7282428Y-9905714D01*
X7539571Y-9991429D02*
X7568143Y-10005714D01*
X7625286Y-10005714D01*
X7653857Y-9991429D01*
X7668143Y-9962857D01*
X7668143Y-9948572D01*
X7653857Y-9920000D01*
X7625286Y-9905714D01*
X7582428Y-9905714D01*
X7553857Y-9891429D01*
X7539571Y-9862857D01*
X7539571Y-9848572D01*
X7553857Y-9820000D01*
X7582428Y-9805714D01*
X7625286Y-9805714D01*
X7653857Y-9820000D01*
X7768143Y-10120000D02*
X7782428Y-10105714D01*
X7811000Y-10062857D01*
X7825286Y-10034286D01*
X7839571Y-9991429D01*
X7853857Y-9920000D01*
X7853857Y-9862857D01*
X7839571Y-9791429D01*
X7825286Y-9748572D01*
X7811000Y-9720000D01*
X7782428Y-9677143D01*
X7768143Y-9662857D01*
X960962Y-10215962D02*
X960962Y-10316038D01*
X910924Y-10266000D02*
X1011000Y-10266000D01*
X1439571Y-10401714D02*
X1268143Y-10401714D01*
X1353857Y-10401714D02*
X1353857Y-10101714D01*
X1325286Y-10144572D01*
X1296714Y-10173143D01*
X1268143Y-10187429D01*
X1568143Y-10373143D02*
X1582428Y-10387429D01*
X1568143Y-10401714D01*
X1553857Y-10387429D01*
X1568143Y-10373143D01*
X1568143Y-10401714D01*
X1768143Y-10101714D02*
X1796714Y-10101714D01*
X1825286Y-10116000D01*
X1839571Y-10130286D01*
X1853857Y-10158857D01*
X1868143Y-10216000D01*
X1868143Y-10287429D01*
X1853857Y-10344572D01*
X1839571Y-10373143D01*
X1825286Y-10387429D01*
X1796714Y-10401714D01*
X1768143Y-10401714D01*
X1739571Y-10387429D01*
X1725286Y-10373143D01*
X1711000Y-10344572D01*
X1696714Y-10287429D01*
X1696714Y-10216000D01*
X1711000Y-10158857D01*
X1725286Y-10130286D01*
X1739571Y-10116000D01*
X1768143Y-10101714D01*
X2053857Y-10101714D02*
X2082428Y-10101714D01*
X2111000Y-10116000D01*
X2125286Y-10130286D01*
X2139571Y-10158857D01*
X2153857Y-10216000D01*
X2153857Y-10287429D01*
X2139571Y-10344572D01*
X2125286Y-10373143D01*
X2111000Y-10387429D01*
X2082428Y-10401714D01*
X2053857Y-10401714D01*
X2025286Y-10387429D01*
X2011000Y-10373143D01*
X1996714Y-10344572D01*
X1982428Y-10287429D01*
X1982428Y-10216000D01*
X1996714Y-10158857D01*
X2011000Y-10130286D01*
X2025286Y-10116000D01*
X2053857Y-10101714D01*
X2282429Y-10401714D02*
X2282429Y-10201714D01*
X2282429Y-10230286D02*
X2296714Y-10216000D01*
X2325286Y-10201714D01*
X2368143Y-10201714D01*
X2396714Y-10216000D01*
X2411000Y-10244572D01*
X2411000Y-10401714D01*
X2411000Y-10244572D02*
X2425286Y-10216000D01*
X2453857Y-10201714D01*
X2496714Y-10201714D01*
X2525286Y-10216000D01*
X2539571Y-10244572D01*
X2539571Y-10401714D01*
X2682429Y-10401714D02*
X2682429Y-10201714D01*
X2682429Y-10230286D02*
X2696714Y-10216000D01*
X2725286Y-10201714D01*
X2768143Y-10201714D01*
X2796714Y-10216000D01*
X2811000Y-10244572D01*
X2811000Y-10401714D01*
X2811000Y-10244572D02*
X2825286Y-10216000D01*
X2853857Y-10201714D01*
X2896714Y-10201714D01*
X2925286Y-10216000D01*
X2939571Y-10244572D01*
X2939571Y-10401714D01*
X3525286Y-10087429D02*
X3268143Y-10473143D01*
X3911000Y-10101714D02*
X3939571Y-10101714D01*
X3968143Y-10116000D01*
X3982428Y-10130286D01*
X3996714Y-10158857D01*
X4011000Y-10216000D01*
X4011000Y-10287429D01*
X3996714Y-10344572D01*
X3982428Y-10373143D01*
X3968143Y-10387429D01*
X3939571Y-10401714D01*
X3911000Y-10401714D01*
X3882428Y-10387429D01*
X3868143Y-10373143D01*
X3853857Y-10344572D01*
X3839571Y-10287429D01*
X3839571Y-10216000D01*
X3853857Y-10158857D01*
X3868143Y-10130286D01*
X3882428Y-10116000D01*
X3911000Y-10101714D01*
X4139571Y-10373143D02*
X4153857Y-10387429D01*
X4139571Y-10401714D01*
X4125286Y-10387429D01*
X4139571Y-10373143D01*
X4139571Y-10401714D01*
X4339571Y-10101714D02*
X4368143Y-10101714D01*
X4396714Y-10116000D01*
X4411000Y-10130286D01*
X4425286Y-10158857D01*
X4439571Y-10216000D01*
X4439571Y-10287429D01*
X4425286Y-10344572D01*
X4411000Y-10373143D01*
X4396714Y-10387429D01*
X4368143Y-10401714D01*
X4339571Y-10401714D01*
X4311000Y-10387429D01*
X4296714Y-10373143D01*
X4282428Y-10344572D01*
X4268143Y-10287429D01*
X4268143Y-10216000D01*
X4282428Y-10158857D01*
X4296714Y-10130286D01*
X4311000Y-10116000D01*
X4339571Y-10101714D01*
X4539571Y-10101714D02*
X4725286Y-10101714D01*
X4625286Y-10216000D01*
X4668143Y-10216000D01*
X4696714Y-10230286D01*
X4711000Y-10244572D01*
X4725286Y-10273143D01*
X4725286Y-10344572D01*
X4711000Y-10373143D01*
X4696714Y-10387429D01*
X4668143Y-10401714D01*
X4582428Y-10401714D01*
X4553857Y-10387429D01*
X4539571Y-10373143D01*
X4868143Y-10401714D02*
X4925286Y-10401714D01*
X4953857Y-10387429D01*
X4968143Y-10373143D01*
X4996714Y-10330286D01*
X5011000Y-10273143D01*
X5011000Y-10158857D01*
X4996714Y-10130286D01*
X4982428Y-10116000D01*
X4953857Y-10101714D01*
X4896714Y-10101714D01*
X4868143Y-10116000D01*
X4853857Y-10130286D01*
X4839571Y-10158857D01*
X4839571Y-10230286D01*
X4853857Y-10258857D01*
X4868143Y-10273143D01*
X4896714Y-10287429D01*
X4953857Y-10287429D01*
X4982428Y-10273143D01*
X4996714Y-10258857D01*
X5011000Y-10230286D01*
X5125286Y-10101714D02*
X5125286Y-10158857D01*
X5239571Y-10101714D02*
X5239571Y-10158857D01*
X5682428Y-10516000D02*
X5668143Y-10501714D01*
X5639571Y-10458857D01*
X5625285Y-10430286D01*
X5611000Y-10387429D01*
X5596714Y-10316000D01*
X5596714Y-10258857D01*
X5611000Y-10187429D01*
X5625285Y-10144572D01*
X5639571Y-10116000D01*
X5668143Y-10073143D01*
X5682428Y-10058857D01*
X5925285Y-10201714D02*
X5925285Y-10401714D01*
X5853857Y-10087429D02*
X5782428Y-10301714D01*
X5968143Y-10301714D01*
X6311000Y-10401714D02*
X6311000Y-10101714D01*
X6439571Y-10401714D02*
X6439571Y-10244572D01*
X6425285Y-10216000D01*
X6396714Y-10201714D01*
X6353857Y-10201714D01*
X6325285Y-10216000D01*
X6311000Y-10230286D01*
X6625285Y-10401714D02*
X6596714Y-10387429D01*
X6582428Y-10373143D01*
X6568143Y-10344572D01*
X6568143Y-10258857D01*
X6582428Y-10230286D01*
X6596714Y-10216000D01*
X6625285Y-10201714D01*
X6668143Y-10201714D01*
X6696714Y-10216000D01*
X6711000Y-10230286D01*
X6725285Y-10258857D01*
X6725285Y-10344572D01*
X6711000Y-10373143D01*
X6696714Y-10387429D01*
X6668143Y-10401714D01*
X6625285Y-10401714D01*
X6896714Y-10401714D02*
X6868143Y-10387429D01*
X6853857Y-10358857D01*
X6853857Y-10101714D01*
X7125286Y-10387429D02*
X7096714Y-10401714D01*
X7039571Y-10401714D01*
X7011000Y-10387429D01*
X6996714Y-10358857D01*
X6996714Y-10244572D01*
X7011000Y-10216000D01*
X7039571Y-10201714D01*
X7096714Y-10201714D01*
X7125286Y-10216000D01*
X7139571Y-10244572D01*
X7139571Y-10273143D01*
X6996714Y-10301714D01*
X7253857Y-10387429D02*
X7282428Y-10401714D01*
X7339571Y-10401714D01*
X7368143Y-10387429D01*
X7382428Y-10358857D01*
X7382428Y-10344572D01*
X7368143Y-10316000D01*
X7339571Y-10301714D01*
X7296714Y-10301714D01*
X7268143Y-10287429D01*
X7253857Y-10258857D01*
X7253857Y-10244572D01*
X7268143Y-10216000D01*
X7296714Y-10201714D01*
X7339571Y-10201714D01*
X7368143Y-10216000D01*
X7482428Y-10516000D02*
X7496714Y-10501714D01*
X7525286Y-10458857D01*
X7539571Y-10430286D01*
X7553857Y-10387429D01*
X7568143Y-10316000D01*
X7568143Y-10258857D01*
X7553857Y-10187429D01*
X7539571Y-10144572D01*
X7525286Y-10116000D01*
X7496714Y-10073143D01*
X7482428Y-10058857D01*
X994261Y-10702412D02*
X994261Y-10621589D01*
X913438Y-10621589D01*
X913438Y-10702412D01*
X994261Y-10702412D01*
X1439571Y-10797714D02*
X1268143Y-10797714D01*
X1353857Y-10797714D02*
X1353857Y-10497714D01*
X1325286Y-10540572D01*
X1296714Y-10569143D01*
X1268143Y-10583429D01*
X1568143Y-10769143D02*
X1582428Y-10783429D01*
X1568143Y-10797714D01*
X1553857Y-10783429D01*
X1568143Y-10769143D01*
X1568143Y-10797714D01*
X1868143Y-10797714D02*
X1696714Y-10797714D01*
X1782428Y-10797714D02*
X1782428Y-10497714D01*
X1753857Y-10540572D01*
X1725286Y-10569143D01*
X1696714Y-10583429D01*
X2125286Y-10597714D02*
X2125286Y-10797714D01*
X2053857Y-10483429D02*
X1982428Y-10697714D01*
X2168143Y-10697714D01*
X2282429Y-10797714D02*
X2282429Y-10597714D01*
X2282429Y-10626286D02*
X2296714Y-10612000D01*
X2325286Y-10597714D01*
X2368143Y-10597714D01*
X2396714Y-10612000D01*
X2411000Y-10640572D01*
X2411000Y-10797714D01*
X2411000Y-10640572D02*
X2425286Y-10612000D01*
X2453857Y-10597714D01*
X2496714Y-10597714D01*
X2525286Y-10612000D01*
X2539571Y-10640572D01*
X2539571Y-10797714D01*
X2682429Y-10797714D02*
X2682429Y-10597714D01*
X2682429Y-10626286D02*
X2696714Y-10612000D01*
X2725286Y-10597714D01*
X2768143Y-10597714D01*
X2796714Y-10612000D01*
X2811000Y-10640572D01*
X2811000Y-10797714D01*
X2811000Y-10640572D02*
X2825286Y-10612000D01*
X2853857Y-10597714D01*
X2896714Y-10597714D01*
X2925286Y-10612000D01*
X2939571Y-10640572D01*
X2939571Y-10797714D01*
X3525286Y-10483429D02*
X3268143Y-10869143D01*
X3911000Y-10497714D02*
X3939571Y-10497714D01*
X3968143Y-10512000D01*
X3982428Y-10526286D01*
X3996714Y-10554857D01*
X4011000Y-10612000D01*
X4011000Y-10683429D01*
X3996714Y-10740572D01*
X3982428Y-10769143D01*
X3968143Y-10783429D01*
X3939571Y-10797714D01*
X3911000Y-10797714D01*
X3882428Y-10783429D01*
X3868143Y-10769143D01*
X3853857Y-10740572D01*
X3839571Y-10683429D01*
X3839571Y-10612000D01*
X3853857Y-10554857D01*
X3868143Y-10526286D01*
X3882428Y-10512000D01*
X3911000Y-10497714D01*
X4139571Y-10769143D02*
X4153857Y-10783429D01*
X4139571Y-10797714D01*
X4125286Y-10783429D01*
X4139571Y-10769143D01*
X4139571Y-10797714D01*
X4339571Y-10497714D02*
X4368143Y-10497714D01*
X4396714Y-10512000D01*
X4411000Y-10526286D01*
X4425286Y-10554857D01*
X4439571Y-10612000D01*
X4439571Y-10683429D01*
X4425286Y-10740572D01*
X4411000Y-10769143D01*
X4396714Y-10783429D01*
X4368143Y-10797714D01*
X4339571Y-10797714D01*
X4311000Y-10783429D01*
X4296714Y-10769143D01*
X4282428Y-10740572D01*
X4268143Y-10683429D01*
X4268143Y-10612000D01*
X4282428Y-10554857D01*
X4296714Y-10526286D01*
X4311000Y-10512000D01*
X4339571Y-10497714D01*
X4696714Y-10597714D02*
X4696714Y-10797714D01*
X4625286Y-10483429D02*
X4553857Y-10697714D01*
X4739571Y-10697714D01*
X4996714Y-10497714D02*
X4853857Y-10497714D01*
X4839571Y-10640572D01*
X4853857Y-10626286D01*
X4882428Y-10612000D01*
X4953857Y-10612000D01*
X4982428Y-10626286D01*
X4996714Y-10640572D01*
X5011000Y-10669143D01*
X5011000Y-10740572D01*
X4996714Y-10769143D01*
X4982428Y-10783429D01*
X4953857Y-10797714D01*
X4882428Y-10797714D01*
X4853857Y-10783429D01*
X4839571Y-10769143D01*
X5125286Y-10497714D02*
X5125286Y-10554857D01*
X5239571Y-10497714D02*
X5239571Y-10554857D01*
X5682428Y-10912000D02*
X5668143Y-10897714D01*
X5639571Y-10854857D01*
X5625285Y-10826286D01*
X5611000Y-10783429D01*
X5596714Y-10712000D01*
X5596714Y-10654857D01*
X5611000Y-10583429D01*
X5625285Y-10540572D01*
X5639571Y-10512000D01*
X5668143Y-10469143D01*
X5682428Y-10454857D01*
X5811000Y-10797714D02*
X5868143Y-10797714D01*
X5896714Y-10783429D01*
X5911000Y-10769143D01*
X5939571Y-10726286D01*
X5953857Y-10669143D01*
X5953857Y-10554857D01*
X5939571Y-10526286D01*
X5925285Y-10512000D01*
X5896714Y-10497714D01*
X5839571Y-10497714D01*
X5811000Y-10512000D01*
X5796714Y-10526286D01*
X5782428Y-10554857D01*
X5782428Y-10626286D01*
X5796714Y-10654857D01*
X5811000Y-10669143D01*
X5839571Y-10683429D01*
X5896714Y-10683429D01*
X5925285Y-10669143D01*
X5939571Y-10654857D01*
X5953857Y-10626286D01*
X6311000Y-10797714D02*
X6311000Y-10497714D01*
X6439571Y-10797714D02*
X6439571Y-10640572D01*
X6425285Y-10612000D01*
X6396714Y-10597714D01*
X6353857Y-10597714D01*
X6325285Y-10612000D01*
X6311000Y-10626286D01*
X6625285Y-10797714D02*
X6596714Y-10783429D01*
X6582428Y-10769143D01*
X6568143Y-10740572D01*
X6568143Y-10654857D01*
X6582428Y-10626286D01*
X6596714Y-10612000D01*
X6625285Y-10597714D01*
X6668143Y-10597714D01*
X6696714Y-10612000D01*
X6711000Y-10626286D01*
X6725285Y-10654857D01*
X6725285Y-10740572D01*
X6711000Y-10769143D01*
X6696714Y-10783429D01*
X6668143Y-10797714D01*
X6625285Y-10797714D01*
X6896714Y-10797714D02*
X6868143Y-10783429D01*
X6853857Y-10754857D01*
X6853857Y-10497714D01*
X7125286Y-10783429D02*
X7096714Y-10797714D01*
X7039571Y-10797714D01*
X7011000Y-10783429D01*
X6996714Y-10754857D01*
X6996714Y-10640572D01*
X7011000Y-10612000D01*
X7039571Y-10597714D01*
X7096714Y-10597714D01*
X7125286Y-10612000D01*
X7139571Y-10640572D01*
X7139571Y-10669143D01*
X6996714Y-10697714D01*
X7253857Y-10783429D02*
X7282428Y-10797714D01*
X7339571Y-10797714D01*
X7368143Y-10783429D01*
X7382428Y-10754857D01*
X7382428Y-10740572D01*
X7368143Y-10712000D01*
X7339571Y-10697714D01*
X7296714Y-10697714D01*
X7268143Y-10683429D01*
X7253857Y-10654857D01*
X7253857Y-10640572D01*
X7268143Y-10612000D01*
X7296714Y-10597714D01*
X7339571Y-10597714D01*
X7368143Y-10612000D01*
X7482428Y-10912000D02*
X7496714Y-10897714D01*
X7525286Y-10854857D01*
X7539571Y-10826286D01*
X7553857Y-10783429D01*
X7568143Y-10712000D01*
X7568143Y-10654857D01*
X7553857Y-10583429D01*
X7539571Y-10540572D01*
X7525286Y-10512000D01*
X7496714Y-10469143D01*
X7482428Y-10454857D01*
X951056Y-11117944D02*
X1011000Y-11058000D01*
X951056Y-10998056D01*
X891112Y-11058000D01*
X951056Y-11117944D01*
X1439571Y-11193714D02*
X1268143Y-11193714D01*
X1353857Y-11193714D02*
X1353857Y-10893714D01*
X1325286Y-10936572D01*
X1296714Y-10965143D01*
X1268143Y-10979429D01*
X1568143Y-11165143D02*
X1582428Y-11179429D01*
X1568143Y-11193714D01*
X1553857Y-11179429D01*
X1568143Y-11165143D01*
X1568143Y-11193714D01*
X1696714Y-10922286D02*
X1711000Y-10908000D01*
X1739571Y-10893714D01*
X1811000Y-10893714D01*
X1839571Y-10908000D01*
X1853857Y-10922286D01*
X1868143Y-10950857D01*
X1868143Y-10979429D01*
X1853857Y-11022286D01*
X1682428Y-11193714D01*
X1868143Y-11193714D01*
X2053857Y-10893714D02*
X2082428Y-10893714D01*
X2111000Y-10908000D01*
X2125286Y-10922286D01*
X2139571Y-10950857D01*
X2153857Y-11008000D01*
X2153857Y-11079429D01*
X2139571Y-11136572D01*
X2125286Y-11165143D01*
X2111000Y-11179429D01*
X2082428Y-11193714D01*
X2053857Y-11193714D01*
X2025286Y-11179429D01*
X2011000Y-11165143D01*
X1996714Y-11136572D01*
X1982428Y-11079429D01*
X1982428Y-11008000D01*
X1996714Y-10950857D01*
X2011000Y-10922286D01*
X2025286Y-10908000D01*
X2053857Y-10893714D01*
X2282429Y-11193714D02*
X2282429Y-10993714D01*
X2282429Y-11022286D02*
X2296714Y-11008000D01*
X2325286Y-10993714D01*
X2368143Y-10993714D01*
X2396714Y-11008000D01*
X2411000Y-11036572D01*
X2411000Y-11193714D01*
X2411000Y-11036572D02*
X2425286Y-11008000D01*
X2453857Y-10993714D01*
X2496714Y-10993714D01*
X2525286Y-11008000D01*
X2539571Y-11036572D01*
X2539571Y-11193714D01*
X2682429Y-11193714D02*
X2682429Y-10993714D01*
X2682429Y-11022286D02*
X2696714Y-11008000D01*
X2725286Y-10993714D01*
X2768143Y-10993714D01*
X2796714Y-11008000D01*
X2811000Y-11036572D01*
X2811000Y-11193714D01*
X2811000Y-11036572D02*
X2825286Y-11008000D01*
X2853857Y-10993714D01*
X2896714Y-10993714D01*
X2925286Y-11008000D01*
X2939571Y-11036572D01*
X2939571Y-11193714D01*
X3525286Y-10879429D02*
X3268143Y-11265143D01*
X3911000Y-10893714D02*
X3939571Y-10893714D01*
X3968143Y-10908000D01*
X3982428Y-10922286D01*
X3996714Y-10950857D01*
X4011000Y-11008000D01*
X4011000Y-11079429D01*
X3996714Y-11136572D01*
X3982428Y-11165143D01*
X3968143Y-11179429D01*
X3939571Y-11193714D01*
X3911000Y-11193714D01*
X3882428Y-11179429D01*
X3868143Y-11165143D01*
X3853857Y-11136572D01*
X3839571Y-11079429D01*
X3839571Y-11008000D01*
X3853857Y-10950857D01*
X3868143Y-10922286D01*
X3882428Y-10908000D01*
X3911000Y-10893714D01*
X4139571Y-11165143D02*
X4153857Y-11179429D01*
X4139571Y-11193714D01*
X4125286Y-11179429D01*
X4139571Y-11165143D01*
X4139571Y-11193714D01*
X4339571Y-10893714D02*
X4368143Y-10893714D01*
X4396714Y-10908000D01*
X4411000Y-10922286D01*
X4425286Y-10950857D01*
X4439571Y-11008000D01*
X4439571Y-11079429D01*
X4425286Y-11136572D01*
X4411000Y-11165143D01*
X4396714Y-11179429D01*
X4368143Y-11193714D01*
X4339571Y-11193714D01*
X4311000Y-11179429D01*
X4296714Y-11165143D01*
X4282428Y-11136572D01*
X4268143Y-11079429D01*
X4268143Y-11008000D01*
X4282428Y-10950857D01*
X4296714Y-10922286D01*
X4311000Y-10908000D01*
X4339571Y-10893714D01*
X4696714Y-10993714D02*
X4696714Y-11193714D01*
X4625286Y-10879429D02*
X4553857Y-11093714D01*
X4739571Y-11093714D01*
X4825286Y-10893714D02*
X5025286Y-10893714D01*
X4896714Y-11193714D01*
X5125286Y-10893714D02*
X5125286Y-10950857D01*
X5239571Y-10893714D02*
X5239571Y-10950857D01*
X5682428Y-11308000D02*
X5668143Y-11293714D01*
X5639571Y-11250857D01*
X5625285Y-11222286D01*
X5611000Y-11179429D01*
X5596714Y-11108000D01*
X5596714Y-11050857D01*
X5611000Y-10979429D01*
X5625285Y-10936572D01*
X5639571Y-10908000D01*
X5668143Y-10865143D01*
X5682428Y-10850857D01*
X5953857Y-11193714D02*
X5782428Y-11193714D01*
X5868143Y-11193714D02*
X5868143Y-10893714D01*
X5839571Y-10936572D01*
X5811000Y-10965143D01*
X5782428Y-10979429D01*
X6068143Y-10922286D02*
X6082428Y-10908000D01*
X6111000Y-10893714D01*
X6182428Y-10893714D01*
X6211000Y-10908000D01*
X6225285Y-10922286D01*
X6239571Y-10950857D01*
X6239571Y-10979429D01*
X6225285Y-11022286D01*
X6053857Y-11193714D01*
X6239571Y-11193714D01*
X6596714Y-11193714D02*
X6596714Y-10893714D01*
X6725285Y-11193714D02*
X6725285Y-11036572D01*
X6711000Y-11008000D01*
X6682428Y-10993714D01*
X6639571Y-10993714D01*
X6611000Y-11008000D01*
X6596714Y-11022286D01*
X6911000Y-11193714D02*
X6882428Y-11179429D01*
X6868143Y-11165143D01*
X6853857Y-11136572D01*
X6853857Y-11050857D01*
X6868143Y-11022286D01*
X6882428Y-11008000D01*
X6911000Y-10993714D01*
X6953857Y-10993714D01*
X6982428Y-11008000D01*
X6996714Y-11022286D01*
X7011000Y-11050857D01*
X7011000Y-11136572D01*
X6996714Y-11165143D01*
X6982428Y-11179429D01*
X6953857Y-11193714D01*
X6911000Y-11193714D01*
X7182428Y-11193714D02*
X7153857Y-11179429D01*
X7139571Y-11150857D01*
X7139571Y-10893714D01*
X7411000Y-11179429D02*
X7382428Y-11193714D01*
X7325286Y-11193714D01*
X7296714Y-11179429D01*
X7282428Y-11150857D01*
X7282428Y-11036572D01*
X7296714Y-11008000D01*
X7325286Y-10993714D01*
X7382428Y-10993714D01*
X7411000Y-11008000D01*
X7425286Y-11036572D01*
X7425286Y-11065143D01*
X7282428Y-11093714D01*
X7539571Y-11179429D02*
X7568143Y-11193714D01*
X7625286Y-11193714D01*
X7653857Y-11179429D01*
X7668143Y-11150857D01*
X7668143Y-11136572D01*
X7653857Y-11108000D01*
X7625286Y-11093714D01*
X7582428Y-11093714D01*
X7553857Y-11079429D01*
X7539571Y-11050857D01*
X7539571Y-11036572D01*
X7553857Y-11008000D01*
X7582428Y-10993714D01*
X7625286Y-10993714D01*
X7653857Y-11008000D01*
X7768143Y-11308000D02*
X7782428Y-11293714D01*
X7811000Y-11250857D01*
X7825286Y-11222286D01*
X7839571Y-11179429D01*
X7853857Y-11108000D01*
X7853857Y-11050857D01*
X7839571Y-10979429D01*
X7825286Y-10936572D01*
X7811000Y-10908000D01*
X7782428Y-10865143D01*
X7768143Y-10850857D01*
X860886Y-11378943D02*
X1011000Y-11529057D01*
X1011000Y-11378943D02*
X860886Y-11529057D01*
X1011000Y-11454000D02*
G75*
G03X1011000Y-11454000I-75057J0D01*
G01*
X1439571Y-11589714D02*
X1268143Y-11589714D01*
X1353857Y-11589714D02*
X1353857Y-11289714D01*
X1325286Y-11332571D01*
X1296714Y-11361143D01*
X1268143Y-11375429D01*
X1568143Y-11561143D02*
X1582428Y-11575429D01*
X1568143Y-11589714D01*
X1553857Y-11575429D01*
X1568143Y-11561143D01*
X1568143Y-11589714D01*
X1853857Y-11289714D02*
X1711000Y-11289714D01*
X1696714Y-11432571D01*
X1711000Y-11418286D01*
X1739571Y-11404000D01*
X1811000Y-11404000D01*
X1839571Y-11418286D01*
X1853857Y-11432571D01*
X1868143Y-11461143D01*
X1868143Y-11532571D01*
X1853857Y-11561143D01*
X1839571Y-11575429D01*
X1811000Y-11589714D01*
X1739571Y-11589714D01*
X1711000Y-11575429D01*
X1696714Y-11561143D01*
X2053857Y-11289714D02*
X2082428Y-11289714D01*
X2111000Y-11304000D01*
X2125286Y-11318286D01*
X2139571Y-11346857D01*
X2153857Y-11404000D01*
X2153857Y-11475429D01*
X2139571Y-11532571D01*
X2125286Y-11561143D01*
X2111000Y-11575429D01*
X2082428Y-11589714D01*
X2053857Y-11589714D01*
X2025286Y-11575429D01*
X2011000Y-11561143D01*
X1996714Y-11532571D01*
X1982428Y-11475429D01*
X1982428Y-11404000D01*
X1996714Y-11346857D01*
X2011000Y-11318286D01*
X2025286Y-11304000D01*
X2053857Y-11289714D01*
X2282429Y-11589714D02*
X2282429Y-11389714D01*
X2282429Y-11418286D02*
X2296714Y-11404000D01*
X2325286Y-11389714D01*
X2368143Y-11389714D01*
X2396714Y-11404000D01*
X2411000Y-11432571D01*
X2411000Y-11589714D01*
X2411000Y-11432571D02*
X2425286Y-11404000D01*
X2453857Y-11389714D01*
X2496714Y-11389714D01*
X2525286Y-11404000D01*
X2539571Y-11432571D01*
X2539571Y-11589714D01*
X2682429Y-11589714D02*
X2682429Y-11389714D01*
X2682429Y-11418286D02*
X2696714Y-11404000D01*
X2725286Y-11389714D01*
X2768143Y-11389714D01*
X2796714Y-11404000D01*
X2811000Y-11432571D01*
X2811000Y-11589714D01*
X2811000Y-11432571D02*
X2825286Y-11404000D01*
X2853857Y-11389714D01*
X2896714Y-11389714D01*
X2925286Y-11404000D01*
X2939571Y-11432571D01*
X2939571Y-11589714D01*
X3525286Y-11275429D02*
X3268143Y-11661143D01*
X3911000Y-11289714D02*
X3939571Y-11289714D01*
X3968143Y-11304000D01*
X3982428Y-11318286D01*
X3996714Y-11346857D01*
X4011000Y-11404000D01*
X4011000Y-11475429D01*
X3996714Y-11532571D01*
X3982428Y-11561143D01*
X3968143Y-11575429D01*
X3939571Y-11589714D01*
X3911000Y-11589714D01*
X3882428Y-11575429D01*
X3868143Y-11561143D01*
X3853857Y-11532571D01*
X3839571Y-11475429D01*
X3839571Y-11404000D01*
X3853857Y-11346857D01*
X3868143Y-11318286D01*
X3882428Y-11304000D01*
X3911000Y-11289714D01*
X4139571Y-11561143D02*
X4153857Y-11575429D01*
X4139571Y-11589714D01*
X4125286Y-11575429D01*
X4139571Y-11561143D01*
X4139571Y-11589714D01*
X4339571Y-11289714D02*
X4368143Y-11289714D01*
X4396714Y-11304000D01*
X4411000Y-11318286D01*
X4425286Y-11346857D01*
X4439571Y-11404000D01*
X4439571Y-11475429D01*
X4425286Y-11532571D01*
X4411000Y-11561143D01*
X4396714Y-11575429D01*
X4368143Y-11589714D01*
X4339571Y-11589714D01*
X4311000Y-11575429D01*
X4296714Y-11561143D01*
X4282428Y-11532571D01*
X4268143Y-11475429D01*
X4268143Y-11404000D01*
X4282428Y-11346857D01*
X4296714Y-11318286D01*
X4311000Y-11304000D01*
X4339571Y-11289714D01*
X4711000Y-11289714D02*
X4568143Y-11289714D01*
X4553857Y-11432571D01*
X4568143Y-11418286D01*
X4596714Y-11404000D01*
X4668143Y-11404000D01*
X4696714Y-11418286D01*
X4711000Y-11432571D01*
X4725286Y-11461143D01*
X4725286Y-11532571D01*
X4711000Y-11561143D01*
X4696714Y-11575429D01*
X4668143Y-11589714D01*
X4596714Y-11589714D01*
X4568143Y-11575429D01*
X4553857Y-11561143D01*
X4868143Y-11589714D02*
X4925286Y-11589714D01*
X4953857Y-11575429D01*
X4968143Y-11561143D01*
X4996714Y-11518286D01*
X5011000Y-11461143D01*
X5011000Y-11346857D01*
X4996714Y-11318286D01*
X4982428Y-11304000D01*
X4953857Y-11289714D01*
X4896714Y-11289714D01*
X4868143Y-11304000D01*
X4853857Y-11318286D01*
X4839571Y-11346857D01*
X4839571Y-11418286D01*
X4853857Y-11446857D01*
X4868143Y-11461143D01*
X4896714Y-11475429D01*
X4953857Y-11475429D01*
X4982428Y-11461143D01*
X4996714Y-11446857D01*
X5011000Y-11418286D01*
X5125286Y-11289714D02*
X5125286Y-11346857D01*
X5239571Y-11289714D02*
X5239571Y-11346857D01*
X5682428Y-11704000D02*
X5668143Y-11689714D01*
X5639571Y-11646857D01*
X5625285Y-11618286D01*
X5611000Y-11575429D01*
X5596714Y-11504000D01*
X5596714Y-11446857D01*
X5611000Y-11375429D01*
X5625285Y-11332571D01*
X5639571Y-11304000D01*
X5668143Y-11261143D01*
X5682428Y-11246857D01*
X5925285Y-11389714D02*
X5925285Y-11589714D01*
X5853857Y-11275429D02*
X5782428Y-11489714D01*
X5968143Y-11489714D01*
X6311000Y-11589714D02*
X6311000Y-11289714D01*
X6439571Y-11589714D02*
X6439571Y-11432571D01*
X6425285Y-11404000D01*
X6396714Y-11389714D01*
X6353857Y-11389714D01*
X6325285Y-11404000D01*
X6311000Y-11418286D01*
X6625285Y-11589714D02*
X6596714Y-11575429D01*
X6582428Y-11561143D01*
X6568143Y-11532571D01*
X6568143Y-11446857D01*
X6582428Y-11418286D01*
X6596714Y-11404000D01*
X6625285Y-11389714D01*
X6668143Y-11389714D01*
X6696714Y-11404000D01*
X6711000Y-11418286D01*
X6725285Y-11446857D01*
X6725285Y-11532571D01*
X6711000Y-11561143D01*
X6696714Y-11575429D01*
X6668143Y-11589714D01*
X6625285Y-11589714D01*
X6896714Y-11589714D02*
X6868143Y-11575429D01*
X6853857Y-11546857D01*
X6853857Y-11289714D01*
X7125286Y-11575429D02*
X7096714Y-11589714D01*
X7039571Y-11589714D01*
X7011000Y-11575429D01*
X6996714Y-11546857D01*
X6996714Y-11432571D01*
X7011000Y-11404000D01*
X7039571Y-11389714D01*
X7096714Y-11389714D01*
X7125286Y-11404000D01*
X7139571Y-11432571D01*
X7139571Y-11461143D01*
X6996714Y-11489714D01*
X7253857Y-11575429D02*
X7282428Y-11589714D01*
X7339571Y-11589714D01*
X7368143Y-11575429D01*
X7382428Y-11546857D01*
X7382428Y-11532571D01*
X7368143Y-11504000D01*
X7339571Y-11489714D01*
X7296714Y-11489714D01*
X7268143Y-11475429D01*
X7253857Y-11446857D01*
X7253857Y-11432571D01*
X7268143Y-11404000D01*
X7296714Y-11389714D01*
X7339571Y-11389714D01*
X7368143Y-11404000D01*
X7482428Y-11704000D02*
X7496714Y-11689714D01*
X7525286Y-11646857D01*
X7539571Y-11618286D01*
X7553857Y-11575429D01*
X7568143Y-11504000D01*
X7568143Y-11446857D01*
X7553857Y-11375429D01*
X7539571Y-11332571D01*
X7525286Y-11304000D01*
X7496714Y-11261143D01*
X7482428Y-11246857D01*
X711026Y-11700013D02*
X1011000Y-11999987D01*
X1011000Y-11700013D02*
X711026Y-11999987D01*
X861013Y-11700013D02*
X861013Y-11999987D01*
X711026Y-11850000D02*
X1011000Y-11850000D01*
X1253857Y-11685714D02*
X1439571Y-11685714D01*
X1339571Y-11800000D01*
X1382429Y-11800000D01*
X1411000Y-11814286D01*
X1425286Y-11828571D01*
X1439571Y-11857143D01*
X1439571Y-11928571D01*
X1425286Y-11957143D01*
X1411000Y-11971429D01*
X1382429Y-11985714D01*
X1296714Y-11985714D01*
X1268143Y-11971429D01*
X1253857Y-11957143D01*
X1568143Y-11957143D02*
X1582428Y-11971429D01*
X1568143Y-11985714D01*
X1553857Y-11971429D01*
X1568143Y-11957143D01*
X1568143Y-11985714D01*
X1768143Y-11685714D02*
X1796714Y-11685714D01*
X1825286Y-11700000D01*
X1839571Y-11714286D01*
X1853857Y-11742857D01*
X1868143Y-11800000D01*
X1868143Y-11871429D01*
X1853857Y-11928571D01*
X1839571Y-11957143D01*
X1825286Y-11971429D01*
X1796714Y-11985714D01*
X1768143Y-11985714D01*
X1739571Y-11971429D01*
X1725286Y-11957143D01*
X1711000Y-11928571D01*
X1696714Y-11871429D01*
X1696714Y-11800000D01*
X1711000Y-11742857D01*
X1725286Y-11714286D01*
X1739571Y-11700000D01*
X1768143Y-11685714D01*
X2053857Y-11685714D02*
X2082428Y-11685714D01*
X2111000Y-11700000D01*
X2125286Y-11714286D01*
X2139571Y-11742857D01*
X2153857Y-11800000D01*
X2153857Y-11871429D01*
X2139571Y-11928571D01*
X2125286Y-11957143D01*
X2111000Y-11971429D01*
X2082428Y-11985714D01*
X2053857Y-11985714D01*
X2025286Y-11971429D01*
X2011000Y-11957143D01*
X1996714Y-11928571D01*
X1982428Y-11871429D01*
X1982428Y-11800000D01*
X1996714Y-11742857D01*
X2011000Y-11714286D01*
X2025286Y-11700000D01*
X2053857Y-11685714D01*
X2282429Y-11985714D02*
X2282429Y-11785714D01*
X2282429Y-11814286D02*
X2296714Y-11800000D01*
X2325286Y-11785714D01*
X2368143Y-11785714D01*
X2396714Y-11800000D01*
X2411000Y-11828571D01*
X2411000Y-11985714D01*
X2411000Y-11828571D02*
X2425286Y-11800000D01*
X2453857Y-11785714D01*
X2496714Y-11785714D01*
X2525286Y-11800000D01*
X2539571Y-11828571D01*
X2539571Y-11985714D01*
X2682429Y-11985714D02*
X2682429Y-11785714D01*
X2682429Y-11814286D02*
X2696714Y-11800000D01*
X2725286Y-11785714D01*
X2768143Y-11785714D01*
X2796714Y-11800000D01*
X2811000Y-11828571D01*
X2811000Y-11985714D01*
X2811000Y-11828571D02*
X2825286Y-11800000D01*
X2853857Y-11785714D01*
X2896714Y-11785714D01*
X2925286Y-11800000D01*
X2939571Y-11828571D01*
X2939571Y-11985714D01*
X3525286Y-11671429D02*
X3268143Y-12057143D01*
X3911000Y-11685714D02*
X3939571Y-11685714D01*
X3968143Y-11700000D01*
X3982428Y-11714286D01*
X3996714Y-11742857D01*
X4011000Y-11800000D01*
X4011000Y-11871429D01*
X3996714Y-11928571D01*
X3982428Y-11957143D01*
X3968143Y-11971429D01*
X3939571Y-11985714D01*
X3911000Y-11985714D01*
X3882428Y-11971429D01*
X3868143Y-11957143D01*
X3853857Y-11928571D01*
X3839571Y-11871429D01*
X3839571Y-11800000D01*
X3853857Y-11742857D01*
X3868143Y-11714286D01*
X3882428Y-11700000D01*
X3911000Y-11685714D01*
X4139571Y-11957143D02*
X4153857Y-11971429D01*
X4139571Y-11985714D01*
X4125286Y-11971429D01*
X4139571Y-11957143D01*
X4139571Y-11985714D01*
X4439571Y-11985714D02*
X4268143Y-11985714D01*
X4353857Y-11985714D02*
X4353857Y-11685714D01*
X4325286Y-11728571D01*
X4296714Y-11757143D01*
X4268143Y-11771429D01*
X4725286Y-11985714D02*
X4553857Y-11985714D01*
X4639571Y-11985714D02*
X4639571Y-11685714D01*
X4611000Y-11728571D01*
X4582428Y-11757143D01*
X4553857Y-11771429D01*
X4896714Y-11814286D02*
X4868143Y-11800000D01*
X4853857Y-11785714D01*
X4839571Y-11757143D01*
X4839571Y-11742857D01*
X4853857Y-11714286D01*
X4868143Y-11700000D01*
X4896714Y-11685714D01*
X4953857Y-11685714D01*
X4982428Y-11700000D01*
X4996714Y-11714286D01*
X5011000Y-11742857D01*
X5011000Y-11757143D01*
X4996714Y-11785714D01*
X4982428Y-11800000D01*
X4953857Y-11814286D01*
X4896714Y-11814286D01*
X4868143Y-11828571D01*
X4853857Y-11842857D01*
X4839571Y-11871429D01*
X4839571Y-11928571D01*
X4853857Y-11957143D01*
X4868143Y-11971429D01*
X4896714Y-11985714D01*
X4953857Y-11985714D01*
X4982428Y-11971429D01*
X4996714Y-11957143D01*
X5011000Y-11928571D01*
X5011000Y-11871429D01*
X4996714Y-11842857D01*
X4982428Y-11828571D01*
X4953857Y-11814286D01*
X5125286Y-11685714D02*
X5125286Y-11742857D01*
X5239571Y-11685714D02*
X5239571Y-11742857D01*
X5682428Y-12100000D02*
X5668143Y-12085714D01*
X5639571Y-12042857D01*
X5625285Y-12014286D01*
X5611000Y-11971429D01*
X5596714Y-11900000D01*
X5596714Y-11842857D01*
X5611000Y-11771429D01*
X5625285Y-11728571D01*
X5639571Y-11700000D01*
X5668143Y-11657143D01*
X5682428Y-11642857D01*
X5925285Y-11785714D02*
X5925285Y-11985714D01*
X5853857Y-11671429D02*
X5782428Y-11885714D01*
X5968143Y-11885714D01*
X6311000Y-11985714D02*
X6311000Y-11685714D01*
X6439571Y-11985714D02*
X6439571Y-11828571D01*
X6425285Y-11800000D01*
X6396714Y-11785714D01*
X6353857Y-11785714D01*
X6325285Y-11800000D01*
X6311000Y-11814286D01*
X6625285Y-11985714D02*
X6596714Y-11971429D01*
X6582428Y-11957143D01*
X6568143Y-11928571D01*
X6568143Y-11842857D01*
X6582428Y-11814286D01*
X6596714Y-11800000D01*
X6625285Y-11785714D01*
X6668143Y-11785714D01*
X6696714Y-11800000D01*
X6711000Y-11814286D01*
X6725285Y-11842857D01*
X6725285Y-11928571D01*
X6711000Y-11957143D01*
X6696714Y-11971429D01*
X6668143Y-11985714D01*
X6625285Y-11985714D01*
X6896714Y-11985714D02*
X6868143Y-11971429D01*
X6853857Y-11942857D01*
X6853857Y-11685714D01*
X7125286Y-11971429D02*
X7096714Y-11985714D01*
X7039571Y-11985714D01*
X7011000Y-11971429D01*
X6996714Y-11942857D01*
X6996714Y-11828571D01*
X7011000Y-11800000D01*
X7039571Y-11785714D01*
X7096714Y-11785714D01*
X7125286Y-11800000D01*
X7139571Y-11828571D01*
X7139571Y-11857143D01*
X6996714Y-11885714D01*
X7253857Y-11971429D02*
X7282428Y-11985714D01*
X7339571Y-11985714D01*
X7368143Y-11971429D01*
X7382428Y-11942857D01*
X7382428Y-11928571D01*
X7368143Y-11900000D01*
X7339571Y-11885714D01*
X7296714Y-11885714D01*
X7268143Y-11871429D01*
X7253857Y-11842857D01*
X7253857Y-11828571D01*
X7268143Y-11800000D01*
X7296714Y-11785714D01*
X7339571Y-11785714D01*
X7368143Y-11800000D01*
X7482428Y-12100000D02*
X7496714Y-12085714D01*
X7525286Y-12042857D01*
X7539571Y-12014286D01*
X7553857Y-11971429D01*
X7568143Y-11900000D01*
X7568143Y-11842857D01*
X7553857Y-11771429D01*
X7539571Y-11728571D01*
X7525286Y-11700000D01*
X7496714Y-11657143D01*
X7482428Y-11642857D01*
M02*
