%FSLAX45Y45*%
G04 Gerber Fmt 4.5, Leading zero omitted, Abs format (unit mm)*
G04 Created by KiCad (PCBNEW (after 2015-mar-04 BZR unknown)-product) date Wed 02 Nov 2016 01:14:23 AM CET*
%MOMM*%
G01*
G04 APERTURE LIST*
%ADD10C,0.127000*%
%ADD11C,0.100000*%
%ADD12C,0.200000*%
%ADD13C,0.300000*%
G04 APERTURE END LIST*
D10*
D11*
X1016000Y-8509000D02*
X1016000Y-1016000D01*
X6477000Y-8509000D02*
X1016000Y-8509000D01*
X6477000Y-1016000D02*
X6477000Y-8509000D01*
X1016000Y-1016000D02*
X6477000Y-1016000D01*
D12*
X1120500Y-2263500D02*
X1165500Y-2308500D01*
X1165500Y-2263500D02*
X1120500Y-2308500D01*
X1120500Y-2517500D02*
X1165500Y-2562500D01*
X1165500Y-2517500D02*
X1120500Y-2562500D01*
X1120500Y-2771500D02*
X1165500Y-2816500D01*
X1165500Y-2771500D02*
X1120500Y-2816500D01*
X1120500Y-4676500D02*
X1165500Y-4721500D01*
X1165500Y-4676500D02*
X1120500Y-4721500D01*
X1120500Y-4867000D02*
X1165500Y-4912000D01*
X1165500Y-4867000D02*
X1120500Y-4912000D01*
X1120500Y-5057500D02*
X1165500Y-5102500D01*
X1165500Y-5057500D02*
X1120500Y-5102500D01*
X1120500Y-5248000D02*
X1165500Y-5293000D01*
X1165500Y-5248000D02*
X1120500Y-5293000D01*
X1120500Y-5438500D02*
X1165500Y-5483500D01*
X1165500Y-5438500D02*
X1120500Y-5483500D01*
X1120500Y-5629000D02*
X1165500Y-5674000D01*
X1165500Y-5629000D02*
X1120500Y-5674000D01*
X1311000Y-5438500D02*
X1356000Y-5483500D01*
X1356000Y-5438500D02*
X1311000Y-5483500D01*
X1311000Y-5629000D02*
X1356000Y-5674000D01*
X1356000Y-5629000D02*
X1311000Y-5674000D01*
X1311000Y-5819500D02*
X1356000Y-5864500D01*
X1356000Y-5819500D02*
X1311000Y-5864500D01*
X1311000Y-6010000D02*
X1356000Y-6055000D01*
X1356000Y-6010000D02*
X1311000Y-6055000D01*
X1311000Y-6200500D02*
X1356000Y-6245500D01*
X1356000Y-6200500D02*
X1311000Y-6245500D01*
X1311000Y-6200500D02*
X1356000Y-6245500D01*
X1356000Y-6200500D02*
X1311000Y-6245500D01*
X1311000Y-6200500D02*
X1356000Y-6245500D01*
X1356000Y-6200500D02*
X1311000Y-6245500D01*
X1311000Y-6200500D02*
X1356000Y-6245500D01*
X1356000Y-6200500D02*
X1311000Y-6245500D01*
X1311000Y-6391000D02*
X1356000Y-6436000D01*
X1356000Y-6391000D02*
X1311000Y-6436000D01*
X1311000Y-6391000D02*
X1356000Y-6436000D01*
X1356000Y-6391000D02*
X1311000Y-6436000D01*
X1311000Y-6391000D02*
X1356000Y-6436000D01*
X1356000Y-6391000D02*
X1311000Y-6436000D01*
X1311000Y-6391000D02*
X1356000Y-6436000D01*
X1356000Y-6391000D02*
X1311000Y-6436000D01*
X1311000Y-6581500D02*
X1356000Y-6626500D01*
X1356000Y-6581500D02*
X1311000Y-6626500D01*
X1311000Y-6581500D02*
X1356000Y-6626500D01*
X1356000Y-6581500D02*
X1311000Y-6626500D01*
X1311000Y-6581500D02*
X1356000Y-6626500D01*
X1356000Y-6581500D02*
X1311000Y-6626500D01*
X1311000Y-6581500D02*
X1356000Y-6626500D01*
X1356000Y-6581500D02*
X1311000Y-6626500D01*
X1819000Y-7915000D02*
X1864000Y-7960000D01*
X1864000Y-7915000D02*
X1819000Y-7960000D01*
X1946000Y-2454000D02*
X1991000Y-2499000D01*
X1991000Y-2454000D02*
X1946000Y-2499000D01*
X1946000Y-2644500D02*
X1991000Y-2689500D01*
X1991000Y-2644500D02*
X1946000Y-2689500D01*
X2009500Y-7915000D02*
X2054500Y-7960000D01*
X2054500Y-7915000D02*
X2009500Y-7960000D01*
X2136500Y-2454000D02*
X2181500Y-2499000D01*
X2181500Y-2454000D02*
X2136500Y-2499000D01*
X2136500Y-2644500D02*
X2181500Y-2689500D01*
X2181500Y-2644500D02*
X2136500Y-2689500D01*
X2200000Y-3914500D02*
X2245000Y-3959500D01*
X2245000Y-3914500D02*
X2200000Y-3959500D01*
X2200000Y-7915000D02*
X2245000Y-7960000D01*
X2245000Y-7915000D02*
X2200000Y-7960000D01*
X2263500Y-5883000D02*
X2308500Y-5928000D01*
X2308500Y-5883000D02*
X2263500Y-5928000D01*
X2327000Y-2454000D02*
X2372000Y-2499000D01*
X2372000Y-2454000D02*
X2327000Y-2499000D01*
X2327000Y-2644500D02*
X2372000Y-2689500D01*
X2372000Y-2644500D02*
X2327000Y-2689500D01*
X2327000Y-4105000D02*
X2372000Y-4150000D01*
X2372000Y-4105000D02*
X2327000Y-4150000D01*
X2390500Y-3914500D02*
X2435500Y-3959500D01*
X2435500Y-3914500D02*
X2390500Y-3959500D01*
X2390500Y-7915000D02*
X2435500Y-7960000D01*
X2435500Y-7915000D02*
X2390500Y-7960000D01*
X2454000Y-5883000D02*
X2499000Y-5928000D01*
X2499000Y-5883000D02*
X2454000Y-5928000D01*
X2517500Y-5311500D02*
X2562500Y-5356500D01*
X2562500Y-5311500D02*
X2517500Y-5356500D01*
X2517500Y-7407000D02*
X2562500Y-7452000D01*
X2562500Y-7407000D02*
X2517500Y-7452000D01*
X2644500Y-7026000D02*
X2689500Y-7071000D01*
X2689500Y-7026000D02*
X2644500Y-7071000D01*
X2708000Y-5311500D02*
X2753000Y-5356500D01*
X2753000Y-5311500D02*
X2708000Y-5356500D01*
X2708000Y-5883000D02*
X2753000Y-5928000D01*
X2753000Y-5883000D02*
X2708000Y-5928000D01*
X2708000Y-7407000D02*
X2753000Y-7452000D01*
X2753000Y-7407000D02*
X2708000Y-7452000D01*
X2835000Y-5057500D02*
X2880000Y-5102500D01*
X2880000Y-5057500D02*
X2835000Y-5102500D01*
X2835000Y-7026000D02*
X2880000Y-7071000D01*
X2880000Y-7026000D02*
X2835000Y-7071000D01*
X2898500Y-5311500D02*
X2943500Y-5356500D01*
X2943500Y-5311500D02*
X2898500Y-5356500D01*
X2898500Y-5883000D02*
X2943500Y-5928000D01*
X2943500Y-5883000D02*
X2898500Y-5928000D01*
X2962000Y-4105000D02*
X3007000Y-4150000D01*
X3007000Y-4105000D02*
X2962000Y-4150000D01*
X2962000Y-4295500D02*
X3007000Y-4340500D01*
X3007000Y-4295500D02*
X2962000Y-4340500D01*
X3025500Y-5057500D02*
X3070500Y-5102500D01*
X3070500Y-5057500D02*
X3025500Y-5102500D01*
X3089000Y-5311500D02*
X3134000Y-5356500D01*
X3134000Y-5311500D02*
X3089000Y-5356500D01*
X3089000Y-5883000D02*
X3134000Y-5928000D01*
X3134000Y-5883000D02*
X3089000Y-5928000D01*
X3152500Y-2454000D02*
X3197500Y-2499000D01*
X3197500Y-2454000D02*
X3152500Y-2499000D01*
X3152500Y-4105000D02*
X3197500Y-4150000D01*
X3197500Y-4105000D02*
X3152500Y-4150000D01*
X3152500Y-4295500D02*
X3197500Y-4340500D01*
X3197500Y-4295500D02*
X3152500Y-4340500D01*
X3216000Y-5057500D02*
X3261000Y-5102500D01*
X3261000Y-5057500D02*
X3216000Y-5102500D01*
X3343000Y-2454000D02*
X3388000Y-2499000D01*
X3388000Y-2454000D02*
X3343000Y-2499000D01*
X3343000Y-4105000D02*
X3388000Y-4150000D01*
X3388000Y-4105000D02*
X3343000Y-4150000D01*
X3406500Y-5057500D02*
X3451500Y-5102500D01*
X3451500Y-5057500D02*
X3406500Y-5102500D01*
X3533500Y-2454000D02*
X3578500Y-2499000D01*
X3578500Y-2454000D02*
X3533500Y-2499000D01*
X3533500Y-4930500D02*
X3578500Y-4975500D01*
X3578500Y-4930500D02*
X3533500Y-4975500D01*
X3660500Y-4803500D02*
X3705500Y-4848500D01*
X3705500Y-4803500D02*
X3660500Y-4848500D01*
X3724000Y-2454000D02*
X3769000Y-2499000D01*
X3769000Y-2454000D02*
X3724000Y-2499000D01*
X3724000Y-7280000D02*
X3769000Y-7325000D01*
X3769000Y-7280000D02*
X3724000Y-7325000D01*
X3724000Y-7661000D02*
X3769000Y-7706000D01*
X3769000Y-7661000D02*
X3724000Y-7706000D01*
X3787500Y-4676500D02*
X3832500Y-4721500D01*
X3832500Y-4676500D02*
X3787500Y-4721500D01*
X3914500Y-2454000D02*
X3959500Y-2499000D01*
X3959500Y-2454000D02*
X3914500Y-2499000D01*
X3914500Y-4549500D02*
X3959500Y-4594500D01*
X3959500Y-4549500D02*
X3914500Y-4594500D01*
X3914500Y-7280000D02*
X3959500Y-7325000D01*
X3959500Y-7280000D02*
X3914500Y-7325000D01*
X3914500Y-7661000D02*
X3959500Y-7706000D01*
X3959500Y-7661000D02*
X3914500Y-7706000D01*
X4105000Y-2454000D02*
X4150000Y-2499000D01*
X4150000Y-2454000D02*
X4105000Y-2499000D01*
X4105000Y-5819500D02*
X4150000Y-5864500D01*
X4150000Y-5819500D02*
X4105000Y-5864500D01*
X4105000Y-6200500D02*
X4150000Y-6245500D01*
X4150000Y-6200500D02*
X4105000Y-6245500D01*
X4105000Y-7280000D02*
X4150000Y-7325000D01*
X4150000Y-7280000D02*
X4105000Y-7325000D01*
X4295500Y-2454000D02*
X4340500Y-2499000D01*
X4340500Y-2454000D02*
X4295500Y-2499000D01*
X4295500Y-5819500D02*
X4340500Y-5864500D01*
X4340500Y-5819500D02*
X4295500Y-5864500D01*
X4295500Y-6200500D02*
X4340500Y-6245500D01*
X4340500Y-6200500D02*
X4295500Y-6245500D01*
X4486000Y-2454000D02*
X4531000Y-2499000D01*
X4531000Y-2454000D02*
X4486000Y-2499000D01*
X4486000Y-5819500D02*
X4531000Y-5864500D01*
X4531000Y-5819500D02*
X4486000Y-5864500D01*
X4486000Y-6200500D02*
X4531000Y-6245500D01*
X4531000Y-6200500D02*
X4486000Y-6245500D01*
X4676500Y-5819500D02*
X4721500Y-5864500D01*
X4721500Y-5819500D02*
X4676500Y-5864500D01*
X4676500Y-6200500D02*
X4721500Y-6245500D01*
X4721500Y-6200500D02*
X4676500Y-6245500D01*
X4740000Y-7026000D02*
X4785000Y-7071000D01*
X4785000Y-7026000D02*
X4740000Y-7071000D01*
X4867000Y-6899000D02*
X4912000Y-6944000D01*
X4912000Y-6899000D02*
X4867000Y-6944000D01*
X4994000Y-6772000D02*
X5039000Y-6817000D01*
X5039000Y-6772000D02*
X4994000Y-6817000D01*
X5121000Y-6645000D02*
X5166000Y-6690000D01*
X5166000Y-6645000D02*
X5121000Y-6690000D01*
X3850005Y-4381500D02*
G75*
G03X3850005Y-4381500I-40005J0D01*
G01*
X3850005Y-5143500D02*
G75*
G03X3850005Y-5143500I-40005J0D01*
G01*
X3850005Y-6032500D02*
G75*
G03X3850005Y-6032500I-40005J0D01*
G01*
X3850005Y-6794500D02*
G75*
G03X3850005Y-6794500I-40005J0D01*
G01*
X5628005Y-4381500D02*
G75*
G03X5628005Y-4381500I-40005J0D01*
G01*
X5628005Y-5143500D02*
G75*
G03X5628005Y-5143500I-40005J0D01*
G01*
X5628005Y-6032500D02*
G75*
G03X5628005Y-6032500I-40005J0D01*
G01*
X5628005Y-6794500D02*
G75*
G03X5628005Y-6794500I-40005J0D01*
G01*
X1524000Y-3257000D02*
X1524000Y-3347000D01*
X1479000Y-3302000D02*
X1569000Y-3302000D01*
X1524000Y-3765000D02*
X1524000Y-3855000D01*
X1479000Y-3810000D02*
X1569000Y-3810000D01*
X2032000Y-3257000D02*
X2032000Y-3347000D01*
X1987000Y-3302000D02*
X2077000Y-3302000D01*
X2032000Y-3765000D02*
X2032000Y-3855000D01*
X1987000Y-3810000D02*
X2077000Y-3810000D01*
X2384883Y-5635382D02*
X2384883Y-5564618D01*
X2314118Y-5564618D01*
X2314118Y-5635382D01*
X2384883Y-5635382D01*
X2384883Y-7135382D02*
X2384883Y-7064617D01*
X2314118Y-7064617D01*
X2314118Y-7135382D01*
X2384883Y-7135382D01*
X2765883Y-4873383D02*
X2765883Y-4802618D01*
X2695118Y-4802618D01*
X2695118Y-4873383D01*
X2765883Y-4873383D01*
X2765883Y-6373382D02*
X2765883Y-6302617D01*
X2695118Y-6302617D01*
X2695118Y-6373382D01*
X2765883Y-6373382D01*
X1397000Y-2343150D02*
X1454150Y-2286000D01*
X1397000Y-2228850D01*
X1339850Y-2286000D01*
X1397000Y-2343150D01*
X1397000Y-2597150D02*
X1454150Y-2540000D01*
X1397000Y-2482850D01*
X1339850Y-2540000D01*
X1397000Y-2597150D01*
X1397000Y-2851150D02*
X1454150Y-2794000D01*
X1397000Y-2736850D01*
X1339850Y-2794000D01*
X1397000Y-2851150D01*
X1397000Y-4756150D02*
X1454150Y-4699000D01*
X1397000Y-4641850D01*
X1339850Y-4699000D01*
X1397000Y-4756150D01*
X1397000Y-5010150D02*
X1454150Y-4953000D01*
X1397000Y-4895850D01*
X1339850Y-4953000D01*
X1397000Y-5010150D01*
X1397000Y-5264150D02*
X1454150Y-5207000D01*
X1397000Y-5149850D01*
X1339850Y-5207000D01*
X1397000Y-5264150D01*
X1397000Y-6915150D02*
X1454150Y-6858000D01*
X1397000Y-6800850D01*
X1339850Y-6858000D01*
X1397000Y-6915150D01*
X1397000Y-7169150D02*
X1454150Y-7112000D01*
X1397000Y-7054850D01*
X1339850Y-7112000D01*
X1397000Y-7169150D01*
X1397000Y-7423150D02*
X1454150Y-7366000D01*
X1397000Y-7308850D01*
X1339850Y-7366000D01*
X1397000Y-7423150D01*
X2099056Y-1464056D02*
X2218944Y-1583944D01*
X2218944Y-1464056D02*
X2099056Y-1583944D01*
X2218944Y-1524000D02*
G75*
G03X2218944Y-1524000I-59944J0D01*
G01*
X2607056Y-1464056D02*
X2726944Y-1583944D01*
X2726944Y-1464056D02*
X2607056Y-1583944D01*
X2726944Y-1524000D02*
G75*
G03X2726944Y-1524000I-59944J0D01*
G01*
X2734056Y-7941056D02*
X2853944Y-8060944D01*
X2853944Y-7941056D02*
X2734056Y-8060944D01*
X2853944Y-8001000D02*
G75*
G03X2853944Y-8001000I-59944J0D01*
G01*
X3242056Y-7941056D02*
X3361944Y-8060944D01*
X3361944Y-7941056D02*
X3242056Y-8060944D01*
X3361944Y-8001000D02*
G75*
G03X3361944Y-8001000I-59944J0D01*
G01*
X3750056Y-7941056D02*
X3869944Y-8060944D01*
X3869944Y-7941056D02*
X3750056Y-8060944D01*
X3869944Y-8001000D02*
G75*
G03X3869944Y-8001000I-59944J0D01*
G01*
X4258056Y-7941056D02*
X4377944Y-8060944D01*
X4377944Y-7941056D02*
X4258056Y-8060944D01*
X4377944Y-8001000D02*
G75*
G03X4377944Y-8001000I-59944J0D01*
G01*
X4766056Y-7941056D02*
X4885944Y-8060944D01*
X4885944Y-7941056D02*
X4766056Y-8060944D01*
X4885944Y-8001000D02*
G75*
G03X4885944Y-8001000I-59944J0D01*
G01*
X5274056Y-7941056D02*
X5393944Y-8060944D01*
X5393944Y-7941056D02*
X5274056Y-8060944D01*
X5393944Y-8001000D02*
G75*
G03X5393944Y-8001000I-59944J0D01*
G01*
X5909056Y-2099056D02*
X6028944Y-2218944D01*
X6028944Y-2099056D02*
X5909056Y-2218944D01*
X6028944Y-2159000D02*
G75*
G03X6028944Y-2159000I-59944J0D01*
G01*
X5909056Y-2607056D02*
X6028944Y-2726944D01*
X6028944Y-2607056D02*
X5909056Y-2726944D01*
X6028944Y-2667000D02*
G75*
G03X6028944Y-2667000I-59944J0D01*
G01*
X5909056Y-3115056D02*
X6028944Y-3234944D01*
X6028944Y-3115056D02*
X5909056Y-3234944D01*
X6028944Y-3175000D02*
G75*
G03X6028944Y-3175000I-59944J0D01*
G01*
X5909056Y-3623056D02*
X6028944Y-3742944D01*
X6028944Y-3623056D02*
X5909056Y-3742944D01*
X6028944Y-3683000D02*
G75*
G03X6028944Y-3683000I-59944J0D01*
G01*
X2591943Y-2591943D02*
X2742057Y-2742057D01*
X2742057Y-2591943D02*
X2591943Y-2742057D01*
X2667000Y-2591943D02*
X2667000Y-2742057D01*
X2591943Y-2667000D02*
X2742057Y-2667000D01*
X2591943Y-3099943D02*
X2742057Y-3250057D01*
X2742057Y-3099943D02*
X2591943Y-3250057D01*
X2667000Y-3099943D02*
X2667000Y-3250057D01*
X2591943Y-3175000D02*
X2742057Y-3175000D01*
X2591943Y-3607943D02*
X2742057Y-3758057D01*
X2742057Y-3607943D02*
X2591943Y-3758057D01*
X2667000Y-3607943D02*
X2667000Y-3758057D01*
X2591943Y-3683000D02*
X2742057Y-3683000D01*
X2591943Y-4115943D02*
X2742057Y-4266057D01*
X2742057Y-4115943D02*
X2591943Y-4266057D01*
X2667000Y-4115943D02*
X2667000Y-4266057D01*
X2591943Y-4191000D02*
X2742057Y-4191000D01*
X3480943Y-1364869D02*
X3631057Y-1514983D01*
X3631057Y-1364869D02*
X3480943Y-1514983D01*
X3556000Y-1364869D02*
X3556000Y-1514983D01*
X3480943Y-1439926D02*
X3631057Y-1439926D01*
X3480943Y-3565017D02*
X3631057Y-3715131D01*
X3631057Y-3565017D02*
X3480943Y-3715131D01*
X3556000Y-3565017D02*
X3556000Y-3715131D01*
X3480943Y-3640074D02*
X3631057Y-3640074D01*
X4623943Y-1364869D02*
X4774057Y-1514983D01*
X4774057Y-1364869D02*
X4623943Y-1514983D01*
X4699000Y-1364869D02*
X4699000Y-1514983D01*
X4623943Y-1439926D02*
X4774057Y-1439926D01*
X4623943Y-3565017D02*
X4774057Y-3715131D01*
X4774057Y-3565017D02*
X4623943Y-3715131D01*
X4699000Y-3565017D02*
X4699000Y-3715131D01*
X4623943Y-3640074D02*
X4774057Y-3640074D01*
X1247013Y-1247013D02*
X1546987Y-1546987D01*
X1546987Y-1247013D02*
X1247013Y-1546987D01*
X1503058Y-1503058D02*
X1503058Y-1290942D01*
X1290942Y-1290942D01*
X1290942Y-1503058D01*
X1503058Y-1503058D01*
X1247013Y-7978013D02*
X1546987Y-8277987D01*
X1546987Y-7978013D02*
X1247013Y-8277987D01*
X1503058Y-8234058D02*
X1503058Y-8021942D01*
X1290942Y-8021942D01*
X1290942Y-8234058D01*
X1503058Y-8234058D01*
X5946013Y-1247013D02*
X6245987Y-1546987D01*
X6245987Y-1247013D02*
X5946013Y-1546987D01*
X6202058Y-1503058D02*
X6202058Y-1290942D01*
X5989942Y-1290942D01*
X5989942Y-1503058D01*
X6202058Y-1503058D01*
X5946013Y-7978013D02*
X6245987Y-8277987D01*
X6245987Y-7978013D02*
X5946013Y-8277987D01*
X6202058Y-8234058D02*
X6202058Y-8021942D01*
X5989942Y-8021942D01*
X5989942Y-8234058D01*
X6202058Y-8234058D01*
D13*
X1282429Y-8979714D02*
X1282429Y-8679714D01*
X1353857Y-8679714D01*
X1396714Y-8694000D01*
X1425286Y-8722572D01*
X1439571Y-8751143D01*
X1453857Y-8808286D01*
X1453857Y-8851143D01*
X1439571Y-8908286D01*
X1425286Y-8936857D01*
X1396714Y-8965429D01*
X1353857Y-8979714D01*
X1282429Y-8979714D01*
X1582428Y-8979714D02*
X1582428Y-8779714D01*
X1582428Y-8836857D02*
X1596714Y-8808286D01*
X1611000Y-8794000D01*
X1639571Y-8779714D01*
X1668143Y-8779714D01*
X1768143Y-8979714D02*
X1768143Y-8779714D01*
X1768143Y-8679714D02*
X1753857Y-8694000D01*
X1768143Y-8708286D01*
X1782428Y-8694000D01*
X1768143Y-8679714D01*
X1768143Y-8708286D01*
X1953857Y-8979714D02*
X1925286Y-8965429D01*
X1911000Y-8936857D01*
X1911000Y-8679714D01*
X2111000Y-8979714D02*
X2082428Y-8965429D01*
X2068143Y-8936857D01*
X2068143Y-8679714D01*
X2453857Y-8979714D02*
X2453857Y-8679714D01*
X2553857Y-8894000D01*
X2653857Y-8679714D01*
X2653857Y-8979714D01*
X2925286Y-8979714D02*
X2925286Y-8822572D01*
X2911000Y-8794000D01*
X2882428Y-8779714D01*
X2825286Y-8779714D01*
X2796714Y-8794000D01*
X2925286Y-8965429D02*
X2896714Y-8979714D01*
X2825286Y-8979714D01*
X2796714Y-8965429D01*
X2782429Y-8936857D01*
X2782429Y-8908286D01*
X2796714Y-8879714D01*
X2825286Y-8865429D01*
X2896714Y-8865429D01*
X2925286Y-8851143D01*
X3068143Y-8779714D02*
X3068143Y-9079714D01*
X3068143Y-8794000D02*
X3096714Y-8779714D01*
X3153857Y-8779714D01*
X3182428Y-8794000D01*
X3196714Y-8808286D01*
X3211000Y-8836857D01*
X3211000Y-8922572D01*
X3196714Y-8951143D01*
X3182428Y-8965429D01*
X3153857Y-8979714D01*
X3096714Y-8979714D01*
X3068143Y-8965429D01*
X3339571Y-8951143D02*
X3353857Y-8965429D01*
X3339571Y-8979714D01*
X3325286Y-8965429D01*
X3339571Y-8951143D01*
X3339571Y-8979714D01*
X3339571Y-8794000D02*
X3353857Y-8808286D01*
X3339571Y-8822572D01*
X3325286Y-8808286D01*
X3339571Y-8794000D01*
X3339571Y-8822572D01*
X966000Y-9451500D02*
X1011000Y-9496500D01*
X1011000Y-9451500D02*
X966000Y-9496500D01*
X1339571Y-9309714D02*
X1368143Y-9309714D01*
X1396714Y-9324000D01*
X1411000Y-9338286D01*
X1425286Y-9366857D01*
X1439571Y-9424000D01*
X1439571Y-9495429D01*
X1425286Y-9552572D01*
X1411000Y-9581143D01*
X1396714Y-9595429D01*
X1368143Y-9609714D01*
X1339571Y-9609714D01*
X1311000Y-9595429D01*
X1296714Y-9581143D01*
X1282429Y-9552572D01*
X1268143Y-9495429D01*
X1268143Y-9424000D01*
X1282429Y-9366857D01*
X1296714Y-9338286D01*
X1311000Y-9324000D01*
X1339571Y-9309714D01*
X1568143Y-9581143D02*
X1582428Y-9595429D01*
X1568143Y-9609714D01*
X1553857Y-9595429D01*
X1568143Y-9581143D01*
X1568143Y-9609714D01*
X1839571Y-9409714D02*
X1839571Y-9609714D01*
X1768143Y-9295429D02*
X1696714Y-9509714D01*
X1882428Y-9509714D01*
X2139571Y-9309714D02*
X1996714Y-9309714D01*
X1982428Y-9452572D01*
X1996714Y-9438286D01*
X2025286Y-9424000D01*
X2096714Y-9424000D01*
X2125286Y-9438286D01*
X2139571Y-9452572D01*
X2153857Y-9481143D01*
X2153857Y-9552572D01*
X2139571Y-9581143D01*
X2125286Y-9595429D01*
X2096714Y-9609714D01*
X2025286Y-9609714D01*
X1996714Y-9595429D01*
X1982428Y-9581143D01*
X2282429Y-9609714D02*
X2282429Y-9409714D01*
X2282429Y-9438286D02*
X2296714Y-9424000D01*
X2325286Y-9409714D01*
X2368143Y-9409714D01*
X2396714Y-9424000D01*
X2411000Y-9452572D01*
X2411000Y-9609714D01*
X2411000Y-9452572D02*
X2425286Y-9424000D01*
X2453857Y-9409714D01*
X2496714Y-9409714D01*
X2525286Y-9424000D01*
X2539571Y-9452572D01*
X2539571Y-9609714D01*
X2682429Y-9609714D02*
X2682429Y-9409714D01*
X2682429Y-9438286D02*
X2696714Y-9424000D01*
X2725286Y-9409714D01*
X2768143Y-9409714D01*
X2796714Y-9424000D01*
X2811000Y-9452572D01*
X2811000Y-9609714D01*
X2811000Y-9452572D02*
X2825286Y-9424000D01*
X2853857Y-9409714D01*
X2896714Y-9409714D01*
X2925286Y-9424000D01*
X2939571Y-9452572D01*
X2939571Y-9609714D01*
X3525286Y-9295429D02*
X3268143Y-9681143D01*
X3911000Y-9309714D02*
X3939571Y-9309714D01*
X3968143Y-9324000D01*
X3982428Y-9338286D01*
X3996714Y-9366857D01*
X4011000Y-9424000D01*
X4011000Y-9495429D01*
X3996714Y-9552572D01*
X3982428Y-9581143D01*
X3968143Y-9595429D01*
X3939571Y-9609714D01*
X3911000Y-9609714D01*
X3882428Y-9595429D01*
X3868143Y-9581143D01*
X3853857Y-9552572D01*
X3839571Y-9495429D01*
X3839571Y-9424000D01*
X3853857Y-9366857D01*
X3868143Y-9338286D01*
X3882428Y-9324000D01*
X3911000Y-9309714D01*
X4139571Y-9581143D02*
X4153857Y-9595429D01*
X4139571Y-9609714D01*
X4125286Y-9595429D01*
X4139571Y-9581143D01*
X4139571Y-9609714D01*
X4339571Y-9309714D02*
X4368143Y-9309714D01*
X4396714Y-9324000D01*
X4411000Y-9338286D01*
X4425286Y-9366857D01*
X4439571Y-9424000D01*
X4439571Y-9495429D01*
X4425286Y-9552572D01*
X4411000Y-9581143D01*
X4396714Y-9595429D01*
X4368143Y-9609714D01*
X4339571Y-9609714D01*
X4311000Y-9595429D01*
X4296714Y-9581143D01*
X4282428Y-9552572D01*
X4268143Y-9495429D01*
X4268143Y-9424000D01*
X4282428Y-9366857D01*
X4296714Y-9338286D01*
X4311000Y-9324000D01*
X4339571Y-9309714D01*
X4725286Y-9609714D02*
X4553857Y-9609714D01*
X4639571Y-9609714D02*
X4639571Y-9309714D01*
X4611000Y-9352572D01*
X4582428Y-9381143D01*
X4553857Y-9395429D01*
X4896714Y-9438286D02*
X4868143Y-9424000D01*
X4853857Y-9409714D01*
X4839571Y-9381143D01*
X4839571Y-9366857D01*
X4853857Y-9338286D01*
X4868143Y-9324000D01*
X4896714Y-9309714D01*
X4953857Y-9309714D01*
X4982428Y-9324000D01*
X4996714Y-9338286D01*
X5011000Y-9366857D01*
X5011000Y-9381143D01*
X4996714Y-9409714D01*
X4982428Y-9424000D01*
X4953857Y-9438286D01*
X4896714Y-9438286D01*
X4868143Y-9452572D01*
X4853857Y-9466857D01*
X4839571Y-9495429D01*
X4839571Y-9552572D01*
X4853857Y-9581143D01*
X4868143Y-9595429D01*
X4896714Y-9609714D01*
X4953857Y-9609714D01*
X4982428Y-9595429D01*
X4996714Y-9581143D01*
X5011000Y-9552572D01*
X5011000Y-9495429D01*
X4996714Y-9466857D01*
X4982428Y-9452572D01*
X4953857Y-9438286D01*
X5125286Y-9309714D02*
X5125286Y-9366857D01*
X5239571Y-9309714D02*
X5239571Y-9366857D01*
X5682428Y-9724000D02*
X5668143Y-9709714D01*
X5639571Y-9666857D01*
X5625285Y-9638286D01*
X5611000Y-9595429D01*
X5596714Y-9524000D01*
X5596714Y-9466857D01*
X5611000Y-9395429D01*
X5625285Y-9352572D01*
X5639571Y-9324000D01*
X5668143Y-9281143D01*
X5682428Y-9266857D01*
X5839571Y-9438286D02*
X5811000Y-9424000D01*
X5796714Y-9409714D01*
X5782428Y-9381143D01*
X5782428Y-9366857D01*
X5796714Y-9338286D01*
X5811000Y-9324000D01*
X5839571Y-9309714D01*
X5896714Y-9309714D01*
X5925285Y-9324000D01*
X5939571Y-9338286D01*
X5953857Y-9366857D01*
X5953857Y-9381143D01*
X5939571Y-9409714D01*
X5925285Y-9424000D01*
X5896714Y-9438286D01*
X5839571Y-9438286D01*
X5811000Y-9452572D01*
X5796714Y-9466857D01*
X5782428Y-9495429D01*
X5782428Y-9552572D01*
X5796714Y-9581143D01*
X5811000Y-9595429D01*
X5839571Y-9609714D01*
X5896714Y-9609714D01*
X5925285Y-9595429D01*
X5939571Y-9581143D01*
X5953857Y-9552572D01*
X5953857Y-9495429D01*
X5939571Y-9466857D01*
X5925285Y-9452572D01*
X5896714Y-9438286D01*
X6096714Y-9609714D02*
X6153857Y-9609714D01*
X6182428Y-9595429D01*
X6196714Y-9581143D01*
X6225285Y-9538286D01*
X6239571Y-9481143D01*
X6239571Y-9366857D01*
X6225285Y-9338286D01*
X6211000Y-9324000D01*
X6182428Y-9309714D01*
X6125285Y-9309714D01*
X6096714Y-9324000D01*
X6082428Y-9338286D01*
X6068143Y-9366857D01*
X6068143Y-9438286D01*
X6082428Y-9466857D01*
X6096714Y-9481143D01*
X6125285Y-9495429D01*
X6182428Y-9495429D01*
X6211000Y-9481143D01*
X6225285Y-9466857D01*
X6239571Y-9438286D01*
X6596714Y-9609714D02*
X6596714Y-9309714D01*
X6725285Y-9609714D02*
X6725285Y-9452572D01*
X6711000Y-9424000D01*
X6682428Y-9409714D01*
X6639571Y-9409714D01*
X6611000Y-9424000D01*
X6596714Y-9438286D01*
X6911000Y-9609714D02*
X6882428Y-9595429D01*
X6868143Y-9581143D01*
X6853857Y-9552572D01*
X6853857Y-9466857D01*
X6868143Y-9438286D01*
X6882428Y-9424000D01*
X6911000Y-9409714D01*
X6953857Y-9409714D01*
X6982428Y-9424000D01*
X6996714Y-9438286D01*
X7011000Y-9466857D01*
X7011000Y-9552572D01*
X6996714Y-9581143D01*
X6982428Y-9595429D01*
X6953857Y-9609714D01*
X6911000Y-9609714D01*
X7182428Y-9609714D02*
X7153857Y-9595429D01*
X7139571Y-9566857D01*
X7139571Y-9309714D01*
X7411000Y-9595429D02*
X7382428Y-9609714D01*
X7325286Y-9609714D01*
X7296714Y-9595429D01*
X7282428Y-9566857D01*
X7282428Y-9452572D01*
X7296714Y-9424000D01*
X7325286Y-9409714D01*
X7382428Y-9409714D01*
X7411000Y-9424000D01*
X7425286Y-9452572D01*
X7425286Y-9481143D01*
X7282428Y-9509714D01*
X7539571Y-9595429D02*
X7568143Y-9609714D01*
X7625286Y-9609714D01*
X7653857Y-9595429D01*
X7668143Y-9566857D01*
X7668143Y-9552572D01*
X7653857Y-9524000D01*
X7625286Y-9509714D01*
X7582428Y-9509714D01*
X7553857Y-9495429D01*
X7539571Y-9466857D01*
X7539571Y-9452572D01*
X7553857Y-9424000D01*
X7582428Y-9409714D01*
X7625286Y-9409714D01*
X7653857Y-9424000D01*
X7768143Y-9724000D02*
X7782428Y-9709714D01*
X7811000Y-9666857D01*
X7825286Y-9638286D01*
X7839571Y-9595429D01*
X7853857Y-9524000D01*
X7853857Y-9466857D01*
X7839571Y-9395429D01*
X7825286Y-9352572D01*
X7811000Y-9324000D01*
X7782428Y-9281143D01*
X7768143Y-9266857D01*
X1011000Y-9870000D02*
G75*
G03X1011000Y-9870000I-40005J0D01*
G01*
X1339571Y-9705714D02*
X1368143Y-9705714D01*
X1396714Y-9720000D01*
X1411000Y-9734286D01*
X1425286Y-9762857D01*
X1439571Y-9820000D01*
X1439571Y-9891429D01*
X1425286Y-9948572D01*
X1411000Y-9977143D01*
X1396714Y-9991429D01*
X1368143Y-10005714D01*
X1339571Y-10005714D01*
X1311000Y-9991429D01*
X1296714Y-9977143D01*
X1282429Y-9948572D01*
X1268143Y-9891429D01*
X1268143Y-9820000D01*
X1282429Y-9762857D01*
X1296714Y-9734286D01*
X1311000Y-9720000D01*
X1339571Y-9705714D01*
X1568143Y-9977143D02*
X1582428Y-9991429D01*
X1568143Y-10005714D01*
X1553857Y-9991429D01*
X1568143Y-9977143D01*
X1568143Y-10005714D01*
X1753857Y-9834286D02*
X1725286Y-9820000D01*
X1711000Y-9805714D01*
X1696714Y-9777143D01*
X1696714Y-9762857D01*
X1711000Y-9734286D01*
X1725286Y-9720000D01*
X1753857Y-9705714D01*
X1811000Y-9705714D01*
X1839571Y-9720000D01*
X1853857Y-9734286D01*
X1868143Y-9762857D01*
X1868143Y-9777143D01*
X1853857Y-9805714D01*
X1839571Y-9820000D01*
X1811000Y-9834286D01*
X1753857Y-9834286D01*
X1725286Y-9848572D01*
X1711000Y-9862857D01*
X1696714Y-9891429D01*
X1696714Y-9948572D01*
X1711000Y-9977143D01*
X1725286Y-9991429D01*
X1753857Y-10005714D01*
X1811000Y-10005714D01*
X1839571Y-9991429D01*
X1853857Y-9977143D01*
X1868143Y-9948572D01*
X1868143Y-9891429D01*
X1853857Y-9862857D01*
X1839571Y-9848572D01*
X1811000Y-9834286D01*
X2053857Y-9705714D02*
X2082428Y-9705714D01*
X2111000Y-9720000D01*
X2125286Y-9734286D01*
X2139571Y-9762857D01*
X2153857Y-9820000D01*
X2153857Y-9891429D01*
X2139571Y-9948572D01*
X2125286Y-9977143D01*
X2111000Y-9991429D01*
X2082428Y-10005714D01*
X2053857Y-10005714D01*
X2025286Y-9991429D01*
X2011000Y-9977143D01*
X1996714Y-9948572D01*
X1982428Y-9891429D01*
X1982428Y-9820000D01*
X1996714Y-9762857D01*
X2011000Y-9734286D01*
X2025286Y-9720000D01*
X2053857Y-9705714D01*
X2282429Y-10005714D02*
X2282429Y-9805714D01*
X2282429Y-9834286D02*
X2296714Y-9820000D01*
X2325286Y-9805714D01*
X2368143Y-9805714D01*
X2396714Y-9820000D01*
X2411000Y-9848572D01*
X2411000Y-10005714D01*
X2411000Y-9848572D02*
X2425286Y-9820000D01*
X2453857Y-9805714D01*
X2496714Y-9805714D01*
X2525286Y-9820000D01*
X2539571Y-9848572D01*
X2539571Y-10005714D01*
X2682429Y-10005714D02*
X2682429Y-9805714D01*
X2682429Y-9834286D02*
X2696714Y-9820000D01*
X2725286Y-9805714D01*
X2768143Y-9805714D01*
X2796714Y-9820000D01*
X2811000Y-9848572D01*
X2811000Y-10005714D01*
X2811000Y-9848572D02*
X2825286Y-9820000D01*
X2853857Y-9805714D01*
X2896714Y-9805714D01*
X2925286Y-9820000D01*
X2939571Y-9848572D01*
X2939571Y-10005714D01*
X3525286Y-9691429D02*
X3268143Y-10077143D01*
X3911000Y-9705714D02*
X3939571Y-9705714D01*
X3968143Y-9720000D01*
X3982428Y-9734286D01*
X3996714Y-9762857D01*
X4011000Y-9820000D01*
X4011000Y-9891429D01*
X3996714Y-9948572D01*
X3982428Y-9977143D01*
X3968143Y-9991429D01*
X3939571Y-10005714D01*
X3911000Y-10005714D01*
X3882428Y-9991429D01*
X3868143Y-9977143D01*
X3853857Y-9948572D01*
X3839571Y-9891429D01*
X3839571Y-9820000D01*
X3853857Y-9762857D01*
X3868143Y-9734286D01*
X3882428Y-9720000D01*
X3911000Y-9705714D01*
X4139571Y-9977143D02*
X4153857Y-9991429D01*
X4139571Y-10005714D01*
X4125286Y-9991429D01*
X4139571Y-9977143D01*
X4139571Y-10005714D01*
X4339571Y-9705714D02*
X4368143Y-9705714D01*
X4396714Y-9720000D01*
X4411000Y-9734286D01*
X4425286Y-9762857D01*
X4439571Y-9820000D01*
X4439571Y-9891429D01*
X4425286Y-9948572D01*
X4411000Y-9977143D01*
X4396714Y-9991429D01*
X4368143Y-10005714D01*
X4339571Y-10005714D01*
X4311000Y-9991429D01*
X4296714Y-9977143D01*
X4282428Y-9948572D01*
X4268143Y-9891429D01*
X4268143Y-9820000D01*
X4282428Y-9762857D01*
X4296714Y-9734286D01*
X4311000Y-9720000D01*
X4339571Y-9705714D01*
X4539571Y-9705714D02*
X4725286Y-9705714D01*
X4625286Y-9820000D01*
X4668143Y-9820000D01*
X4696714Y-9834286D01*
X4711000Y-9848572D01*
X4725286Y-9877143D01*
X4725286Y-9948572D01*
X4711000Y-9977143D01*
X4696714Y-9991429D01*
X4668143Y-10005714D01*
X4582428Y-10005714D01*
X4553857Y-9991429D01*
X4539571Y-9977143D01*
X4839571Y-9734286D02*
X4853857Y-9720000D01*
X4882428Y-9705714D01*
X4953857Y-9705714D01*
X4982428Y-9720000D01*
X4996714Y-9734286D01*
X5011000Y-9762857D01*
X5011000Y-9791429D01*
X4996714Y-9834286D01*
X4825286Y-10005714D01*
X5011000Y-10005714D01*
X5125286Y-9705714D02*
X5125286Y-9762857D01*
X5239571Y-9705714D02*
X5239571Y-9762857D01*
X5682428Y-10120000D02*
X5668143Y-10105714D01*
X5639571Y-10062857D01*
X5625285Y-10034286D01*
X5611000Y-9991429D01*
X5596714Y-9920000D01*
X5596714Y-9862857D01*
X5611000Y-9791429D01*
X5625285Y-9748572D01*
X5639571Y-9720000D01*
X5668143Y-9677143D01*
X5682428Y-9662857D01*
X5839571Y-9834286D02*
X5811000Y-9820000D01*
X5796714Y-9805714D01*
X5782428Y-9777143D01*
X5782428Y-9762857D01*
X5796714Y-9734286D01*
X5811000Y-9720000D01*
X5839571Y-9705714D01*
X5896714Y-9705714D01*
X5925285Y-9720000D01*
X5939571Y-9734286D01*
X5953857Y-9762857D01*
X5953857Y-9777143D01*
X5939571Y-9805714D01*
X5925285Y-9820000D01*
X5896714Y-9834286D01*
X5839571Y-9834286D01*
X5811000Y-9848572D01*
X5796714Y-9862857D01*
X5782428Y-9891429D01*
X5782428Y-9948572D01*
X5796714Y-9977143D01*
X5811000Y-9991429D01*
X5839571Y-10005714D01*
X5896714Y-10005714D01*
X5925285Y-9991429D01*
X5939571Y-9977143D01*
X5953857Y-9948572D01*
X5953857Y-9891429D01*
X5939571Y-9862857D01*
X5925285Y-9848572D01*
X5896714Y-9834286D01*
X6311000Y-10005714D02*
X6311000Y-9705714D01*
X6439571Y-10005714D02*
X6439571Y-9848572D01*
X6425285Y-9820000D01*
X6396714Y-9805714D01*
X6353857Y-9805714D01*
X6325285Y-9820000D01*
X6311000Y-9834286D01*
X6625285Y-10005714D02*
X6596714Y-9991429D01*
X6582428Y-9977143D01*
X6568143Y-9948572D01*
X6568143Y-9862857D01*
X6582428Y-9834286D01*
X6596714Y-9820000D01*
X6625285Y-9805714D01*
X6668143Y-9805714D01*
X6696714Y-9820000D01*
X6711000Y-9834286D01*
X6725285Y-9862857D01*
X6725285Y-9948572D01*
X6711000Y-9977143D01*
X6696714Y-9991429D01*
X6668143Y-10005714D01*
X6625285Y-10005714D01*
X6896714Y-10005714D02*
X6868143Y-9991429D01*
X6853857Y-9962857D01*
X6853857Y-9705714D01*
X7125286Y-9991429D02*
X7096714Y-10005714D01*
X7039571Y-10005714D01*
X7011000Y-9991429D01*
X6996714Y-9962857D01*
X6996714Y-9848572D01*
X7011000Y-9820000D01*
X7039571Y-9805714D01*
X7096714Y-9805714D01*
X7125286Y-9820000D01*
X7139571Y-9848572D01*
X7139571Y-9877143D01*
X6996714Y-9905714D01*
X7253857Y-9991429D02*
X7282428Y-10005714D01*
X7339571Y-10005714D01*
X7368143Y-9991429D01*
X7382428Y-9962857D01*
X7382428Y-9948572D01*
X7368143Y-9920000D01*
X7339571Y-9905714D01*
X7296714Y-9905714D01*
X7268143Y-9891429D01*
X7253857Y-9862857D01*
X7253857Y-9848572D01*
X7268143Y-9820000D01*
X7296714Y-9805714D01*
X7339571Y-9805714D01*
X7368143Y-9820000D01*
X7482428Y-10120000D02*
X7496714Y-10105714D01*
X7525286Y-10062857D01*
X7539571Y-10034286D01*
X7553857Y-9991429D01*
X7568143Y-9920000D01*
X7568143Y-9862857D01*
X7553857Y-9791429D01*
X7539571Y-9748572D01*
X7525286Y-9720000D01*
X7496714Y-9677143D01*
X7482428Y-9662857D01*
X966000Y-10221000D02*
X966000Y-10311000D01*
X921000Y-10266000D02*
X1011000Y-10266000D01*
X1339571Y-10101714D02*
X1368143Y-10101714D01*
X1396714Y-10116000D01*
X1411000Y-10130286D01*
X1425286Y-10158857D01*
X1439571Y-10216000D01*
X1439571Y-10287429D01*
X1425286Y-10344572D01*
X1411000Y-10373143D01*
X1396714Y-10387429D01*
X1368143Y-10401714D01*
X1339571Y-10401714D01*
X1311000Y-10387429D01*
X1296714Y-10373143D01*
X1282429Y-10344572D01*
X1268143Y-10287429D01*
X1268143Y-10216000D01*
X1282429Y-10158857D01*
X1296714Y-10130286D01*
X1311000Y-10116000D01*
X1339571Y-10101714D01*
X1568143Y-10373143D02*
X1582428Y-10387429D01*
X1568143Y-10401714D01*
X1553857Y-10387429D01*
X1568143Y-10373143D01*
X1568143Y-10401714D01*
X1725286Y-10401714D02*
X1782428Y-10401714D01*
X1811000Y-10387429D01*
X1825286Y-10373143D01*
X1853857Y-10330286D01*
X1868143Y-10273143D01*
X1868143Y-10158857D01*
X1853857Y-10130286D01*
X1839571Y-10116000D01*
X1811000Y-10101714D01*
X1753857Y-10101714D01*
X1725286Y-10116000D01*
X1711000Y-10130286D01*
X1696714Y-10158857D01*
X1696714Y-10230286D01*
X1711000Y-10258857D01*
X1725286Y-10273143D01*
X1753857Y-10287429D01*
X1811000Y-10287429D01*
X1839571Y-10273143D01*
X1853857Y-10258857D01*
X1868143Y-10230286D01*
X2053857Y-10101714D02*
X2082428Y-10101714D01*
X2111000Y-10116000D01*
X2125286Y-10130286D01*
X2139571Y-10158857D01*
X2153857Y-10216000D01*
X2153857Y-10287429D01*
X2139571Y-10344572D01*
X2125286Y-10373143D01*
X2111000Y-10387429D01*
X2082428Y-10401714D01*
X2053857Y-10401714D01*
X2025286Y-10387429D01*
X2011000Y-10373143D01*
X1996714Y-10344572D01*
X1982428Y-10287429D01*
X1982428Y-10216000D01*
X1996714Y-10158857D01*
X2011000Y-10130286D01*
X2025286Y-10116000D01*
X2053857Y-10101714D01*
X2282429Y-10401714D02*
X2282429Y-10201714D01*
X2282429Y-10230286D02*
X2296714Y-10216000D01*
X2325286Y-10201714D01*
X2368143Y-10201714D01*
X2396714Y-10216000D01*
X2411000Y-10244572D01*
X2411000Y-10401714D01*
X2411000Y-10244572D02*
X2425286Y-10216000D01*
X2453857Y-10201714D01*
X2496714Y-10201714D01*
X2525286Y-10216000D01*
X2539571Y-10244572D01*
X2539571Y-10401714D01*
X2682429Y-10401714D02*
X2682429Y-10201714D01*
X2682429Y-10230286D02*
X2696714Y-10216000D01*
X2725286Y-10201714D01*
X2768143Y-10201714D01*
X2796714Y-10216000D01*
X2811000Y-10244572D01*
X2811000Y-10401714D01*
X2811000Y-10244572D02*
X2825286Y-10216000D01*
X2853857Y-10201714D01*
X2896714Y-10201714D01*
X2925286Y-10216000D01*
X2939571Y-10244572D01*
X2939571Y-10401714D01*
X3525286Y-10087429D02*
X3268143Y-10473143D01*
X3911000Y-10101714D02*
X3939571Y-10101714D01*
X3968143Y-10116000D01*
X3982428Y-10130286D01*
X3996714Y-10158857D01*
X4011000Y-10216000D01*
X4011000Y-10287429D01*
X3996714Y-10344572D01*
X3982428Y-10373143D01*
X3968143Y-10387429D01*
X3939571Y-10401714D01*
X3911000Y-10401714D01*
X3882428Y-10387429D01*
X3868143Y-10373143D01*
X3853857Y-10344572D01*
X3839571Y-10287429D01*
X3839571Y-10216000D01*
X3853857Y-10158857D01*
X3868143Y-10130286D01*
X3882428Y-10116000D01*
X3911000Y-10101714D01*
X4139571Y-10373143D02*
X4153857Y-10387429D01*
X4139571Y-10401714D01*
X4125286Y-10387429D01*
X4139571Y-10373143D01*
X4139571Y-10401714D01*
X4339571Y-10101714D02*
X4368143Y-10101714D01*
X4396714Y-10116000D01*
X4411000Y-10130286D01*
X4425286Y-10158857D01*
X4439571Y-10216000D01*
X4439571Y-10287429D01*
X4425286Y-10344572D01*
X4411000Y-10373143D01*
X4396714Y-10387429D01*
X4368143Y-10401714D01*
X4339571Y-10401714D01*
X4311000Y-10387429D01*
X4296714Y-10373143D01*
X4282428Y-10344572D01*
X4268143Y-10287429D01*
X4268143Y-10216000D01*
X4282428Y-10158857D01*
X4296714Y-10130286D01*
X4311000Y-10116000D01*
X4339571Y-10101714D01*
X4539571Y-10101714D02*
X4725286Y-10101714D01*
X4625286Y-10216000D01*
X4668143Y-10216000D01*
X4696714Y-10230286D01*
X4711000Y-10244572D01*
X4725286Y-10273143D01*
X4725286Y-10344572D01*
X4711000Y-10373143D01*
X4696714Y-10387429D01*
X4668143Y-10401714D01*
X4582428Y-10401714D01*
X4553857Y-10387429D01*
X4539571Y-10373143D01*
X4996714Y-10101714D02*
X4853857Y-10101714D01*
X4839571Y-10244572D01*
X4853857Y-10230286D01*
X4882428Y-10216000D01*
X4953857Y-10216000D01*
X4982428Y-10230286D01*
X4996714Y-10244572D01*
X5011000Y-10273143D01*
X5011000Y-10344572D01*
X4996714Y-10373143D01*
X4982428Y-10387429D01*
X4953857Y-10401714D01*
X4882428Y-10401714D01*
X4853857Y-10387429D01*
X4839571Y-10373143D01*
X5125286Y-10101714D02*
X5125286Y-10158857D01*
X5239571Y-10101714D02*
X5239571Y-10158857D01*
X5682428Y-10516000D02*
X5668143Y-10501714D01*
X5639571Y-10458857D01*
X5625285Y-10430286D01*
X5611000Y-10387429D01*
X5596714Y-10316000D01*
X5596714Y-10258857D01*
X5611000Y-10187429D01*
X5625285Y-10144572D01*
X5639571Y-10116000D01*
X5668143Y-10073143D01*
X5682428Y-10058857D01*
X5925285Y-10201714D02*
X5925285Y-10401714D01*
X5853857Y-10087429D02*
X5782428Y-10301714D01*
X5968143Y-10301714D01*
X6311000Y-10401714D02*
X6311000Y-10101714D01*
X6439571Y-10401714D02*
X6439571Y-10244572D01*
X6425285Y-10216000D01*
X6396714Y-10201714D01*
X6353857Y-10201714D01*
X6325285Y-10216000D01*
X6311000Y-10230286D01*
X6625285Y-10401714D02*
X6596714Y-10387429D01*
X6582428Y-10373143D01*
X6568143Y-10344572D01*
X6568143Y-10258857D01*
X6582428Y-10230286D01*
X6596714Y-10216000D01*
X6625285Y-10201714D01*
X6668143Y-10201714D01*
X6696714Y-10216000D01*
X6711000Y-10230286D01*
X6725285Y-10258857D01*
X6725285Y-10344572D01*
X6711000Y-10373143D01*
X6696714Y-10387429D01*
X6668143Y-10401714D01*
X6625285Y-10401714D01*
X6896714Y-10401714D02*
X6868143Y-10387429D01*
X6853857Y-10358857D01*
X6853857Y-10101714D01*
X7125286Y-10387429D02*
X7096714Y-10401714D01*
X7039571Y-10401714D01*
X7011000Y-10387429D01*
X6996714Y-10358857D01*
X6996714Y-10244572D01*
X7011000Y-10216000D01*
X7039571Y-10201714D01*
X7096714Y-10201714D01*
X7125286Y-10216000D01*
X7139571Y-10244572D01*
X7139571Y-10273143D01*
X6996714Y-10301714D01*
X7253857Y-10387429D02*
X7282428Y-10401714D01*
X7339571Y-10401714D01*
X7368143Y-10387429D01*
X7382428Y-10358857D01*
X7382428Y-10344572D01*
X7368143Y-10316000D01*
X7339571Y-10301714D01*
X7296714Y-10301714D01*
X7268143Y-10287429D01*
X7253857Y-10258857D01*
X7253857Y-10244572D01*
X7268143Y-10216000D01*
X7296714Y-10201714D01*
X7339571Y-10201714D01*
X7368143Y-10216000D01*
X7482428Y-10516000D02*
X7496714Y-10501714D01*
X7525286Y-10458857D01*
X7539571Y-10430286D01*
X7553857Y-10387429D01*
X7568143Y-10316000D01*
X7568143Y-10258857D01*
X7553857Y-10187429D01*
X7539571Y-10144572D01*
X7525286Y-10116000D01*
X7496714Y-10073143D01*
X7482428Y-10058857D01*
X996344Y-10697383D02*
X996344Y-10626618D01*
X925579Y-10626618D01*
X925579Y-10697383D01*
X996344Y-10697383D01*
X1439571Y-10797714D02*
X1268143Y-10797714D01*
X1353857Y-10797714D02*
X1353857Y-10497714D01*
X1325286Y-10540572D01*
X1296714Y-10569143D01*
X1268143Y-10583429D01*
X1568143Y-10769143D02*
X1582428Y-10783429D01*
X1568143Y-10797714D01*
X1553857Y-10783429D01*
X1568143Y-10769143D01*
X1568143Y-10797714D01*
X1768143Y-10497714D02*
X1796714Y-10497714D01*
X1825286Y-10512000D01*
X1839571Y-10526286D01*
X1853857Y-10554857D01*
X1868143Y-10612000D01*
X1868143Y-10683429D01*
X1853857Y-10740572D01*
X1839571Y-10769143D01*
X1825286Y-10783429D01*
X1796714Y-10797714D01*
X1768143Y-10797714D01*
X1739571Y-10783429D01*
X1725286Y-10769143D01*
X1711000Y-10740572D01*
X1696714Y-10683429D01*
X1696714Y-10612000D01*
X1711000Y-10554857D01*
X1725286Y-10526286D01*
X1739571Y-10512000D01*
X1768143Y-10497714D01*
X2053857Y-10497714D02*
X2082428Y-10497714D01*
X2111000Y-10512000D01*
X2125286Y-10526286D01*
X2139571Y-10554857D01*
X2153857Y-10612000D01*
X2153857Y-10683429D01*
X2139571Y-10740572D01*
X2125286Y-10769143D01*
X2111000Y-10783429D01*
X2082428Y-10797714D01*
X2053857Y-10797714D01*
X2025286Y-10783429D01*
X2011000Y-10769143D01*
X1996714Y-10740572D01*
X1982428Y-10683429D01*
X1982428Y-10612000D01*
X1996714Y-10554857D01*
X2011000Y-10526286D01*
X2025286Y-10512000D01*
X2053857Y-10497714D01*
X2282429Y-10797714D02*
X2282429Y-10597714D01*
X2282429Y-10626286D02*
X2296714Y-10612000D01*
X2325286Y-10597714D01*
X2368143Y-10597714D01*
X2396714Y-10612000D01*
X2411000Y-10640572D01*
X2411000Y-10797714D01*
X2411000Y-10640572D02*
X2425286Y-10612000D01*
X2453857Y-10597714D01*
X2496714Y-10597714D01*
X2525286Y-10612000D01*
X2539571Y-10640572D01*
X2539571Y-10797714D01*
X2682429Y-10797714D02*
X2682429Y-10597714D01*
X2682429Y-10626286D02*
X2696714Y-10612000D01*
X2725286Y-10597714D01*
X2768143Y-10597714D01*
X2796714Y-10612000D01*
X2811000Y-10640572D01*
X2811000Y-10797714D01*
X2811000Y-10640572D02*
X2825286Y-10612000D01*
X2853857Y-10597714D01*
X2896714Y-10597714D01*
X2925286Y-10612000D01*
X2939571Y-10640572D01*
X2939571Y-10797714D01*
X3525286Y-10483429D02*
X3268143Y-10869143D01*
X3911000Y-10497714D02*
X3939571Y-10497714D01*
X3968143Y-10512000D01*
X3982428Y-10526286D01*
X3996714Y-10554857D01*
X4011000Y-10612000D01*
X4011000Y-10683429D01*
X3996714Y-10740572D01*
X3982428Y-10769143D01*
X3968143Y-10783429D01*
X3939571Y-10797714D01*
X3911000Y-10797714D01*
X3882428Y-10783429D01*
X3868143Y-10769143D01*
X3853857Y-10740572D01*
X3839571Y-10683429D01*
X3839571Y-10612000D01*
X3853857Y-10554857D01*
X3868143Y-10526286D01*
X3882428Y-10512000D01*
X3911000Y-10497714D01*
X4139571Y-10769143D02*
X4153857Y-10783429D01*
X4139571Y-10797714D01*
X4125286Y-10783429D01*
X4139571Y-10769143D01*
X4139571Y-10797714D01*
X4339571Y-10497714D02*
X4368143Y-10497714D01*
X4396714Y-10512000D01*
X4411000Y-10526286D01*
X4425286Y-10554857D01*
X4439571Y-10612000D01*
X4439571Y-10683429D01*
X4425286Y-10740572D01*
X4411000Y-10769143D01*
X4396714Y-10783429D01*
X4368143Y-10797714D01*
X4339571Y-10797714D01*
X4311000Y-10783429D01*
X4296714Y-10769143D01*
X4282428Y-10740572D01*
X4268143Y-10683429D01*
X4268143Y-10612000D01*
X4282428Y-10554857D01*
X4296714Y-10526286D01*
X4311000Y-10512000D01*
X4339571Y-10497714D01*
X4539571Y-10497714D02*
X4725286Y-10497714D01*
X4625286Y-10612000D01*
X4668143Y-10612000D01*
X4696714Y-10626286D01*
X4711000Y-10640572D01*
X4725286Y-10669143D01*
X4725286Y-10740572D01*
X4711000Y-10769143D01*
X4696714Y-10783429D01*
X4668143Y-10797714D01*
X4582428Y-10797714D01*
X4553857Y-10783429D01*
X4539571Y-10769143D01*
X4868143Y-10797714D02*
X4925286Y-10797714D01*
X4953857Y-10783429D01*
X4968143Y-10769143D01*
X4996714Y-10726286D01*
X5011000Y-10669143D01*
X5011000Y-10554857D01*
X4996714Y-10526286D01*
X4982428Y-10512000D01*
X4953857Y-10497714D01*
X4896714Y-10497714D01*
X4868143Y-10512000D01*
X4853857Y-10526286D01*
X4839571Y-10554857D01*
X4839571Y-10626286D01*
X4853857Y-10654857D01*
X4868143Y-10669143D01*
X4896714Y-10683429D01*
X4953857Y-10683429D01*
X4982428Y-10669143D01*
X4996714Y-10654857D01*
X5011000Y-10626286D01*
X5125286Y-10497714D02*
X5125286Y-10554857D01*
X5239571Y-10497714D02*
X5239571Y-10554857D01*
X5682428Y-10912000D02*
X5668143Y-10897714D01*
X5639571Y-10854857D01*
X5625285Y-10826286D01*
X5611000Y-10783429D01*
X5596714Y-10712000D01*
X5596714Y-10654857D01*
X5611000Y-10583429D01*
X5625285Y-10540572D01*
X5639571Y-10512000D01*
X5668143Y-10469143D01*
X5682428Y-10454857D01*
X5925285Y-10597714D02*
X5925285Y-10797714D01*
X5853857Y-10483429D02*
X5782428Y-10697714D01*
X5968143Y-10697714D01*
X6311000Y-10797714D02*
X6311000Y-10497714D01*
X6439571Y-10797714D02*
X6439571Y-10640572D01*
X6425285Y-10612000D01*
X6396714Y-10597714D01*
X6353857Y-10597714D01*
X6325285Y-10612000D01*
X6311000Y-10626286D01*
X6625285Y-10797714D02*
X6596714Y-10783429D01*
X6582428Y-10769143D01*
X6568143Y-10740572D01*
X6568143Y-10654857D01*
X6582428Y-10626286D01*
X6596714Y-10612000D01*
X6625285Y-10597714D01*
X6668143Y-10597714D01*
X6696714Y-10612000D01*
X6711000Y-10626286D01*
X6725285Y-10654857D01*
X6725285Y-10740572D01*
X6711000Y-10769143D01*
X6696714Y-10783429D01*
X6668143Y-10797714D01*
X6625285Y-10797714D01*
X6896714Y-10797714D02*
X6868143Y-10783429D01*
X6853857Y-10754857D01*
X6853857Y-10497714D01*
X7125286Y-10783429D02*
X7096714Y-10797714D01*
X7039571Y-10797714D01*
X7011000Y-10783429D01*
X6996714Y-10754857D01*
X6996714Y-10640572D01*
X7011000Y-10612000D01*
X7039571Y-10597714D01*
X7096714Y-10597714D01*
X7125286Y-10612000D01*
X7139571Y-10640572D01*
X7139571Y-10669143D01*
X6996714Y-10697714D01*
X7253857Y-10783429D02*
X7282428Y-10797714D01*
X7339571Y-10797714D01*
X7368143Y-10783429D01*
X7382428Y-10754857D01*
X7382428Y-10740572D01*
X7368143Y-10712000D01*
X7339571Y-10697714D01*
X7296714Y-10697714D01*
X7268143Y-10683429D01*
X7253857Y-10654857D01*
X7253857Y-10640572D01*
X7268143Y-10612000D01*
X7296714Y-10597714D01*
X7339571Y-10597714D01*
X7368143Y-10612000D01*
X7482428Y-10912000D02*
X7496714Y-10897714D01*
X7525286Y-10854857D01*
X7539571Y-10826286D01*
X7553857Y-10783429D01*
X7568143Y-10712000D01*
X7568143Y-10654857D01*
X7553857Y-10583429D01*
X7539571Y-10540572D01*
X7525286Y-10512000D01*
X7496714Y-10469143D01*
X7482428Y-10454857D01*
X953850Y-11115150D02*
X1011000Y-11058000D01*
X953850Y-11000850D01*
X896700Y-11058000D01*
X953850Y-11115150D01*
X1439571Y-11193714D02*
X1268143Y-11193714D01*
X1353857Y-11193714D02*
X1353857Y-10893714D01*
X1325286Y-10936572D01*
X1296714Y-10965143D01*
X1268143Y-10979429D01*
X1568143Y-11165143D02*
X1582428Y-11179429D01*
X1568143Y-11193714D01*
X1553857Y-11179429D01*
X1568143Y-11165143D01*
X1568143Y-11193714D01*
X1868143Y-11193714D02*
X1696714Y-11193714D01*
X1782428Y-11193714D02*
X1782428Y-10893714D01*
X1753857Y-10936572D01*
X1725286Y-10965143D01*
X1696714Y-10979429D01*
X2125286Y-10993714D02*
X2125286Y-11193714D01*
X2053857Y-10879429D02*
X1982428Y-11093714D01*
X2168143Y-11093714D01*
X2282429Y-11193714D02*
X2282429Y-10993714D01*
X2282429Y-11022286D02*
X2296714Y-11008000D01*
X2325286Y-10993714D01*
X2368143Y-10993714D01*
X2396714Y-11008000D01*
X2411000Y-11036572D01*
X2411000Y-11193714D01*
X2411000Y-11036572D02*
X2425286Y-11008000D01*
X2453857Y-10993714D01*
X2496714Y-10993714D01*
X2525286Y-11008000D01*
X2539571Y-11036572D01*
X2539571Y-11193714D01*
X2682429Y-11193714D02*
X2682429Y-10993714D01*
X2682429Y-11022286D02*
X2696714Y-11008000D01*
X2725286Y-10993714D01*
X2768143Y-10993714D01*
X2796714Y-11008000D01*
X2811000Y-11036572D01*
X2811000Y-11193714D01*
X2811000Y-11036572D02*
X2825286Y-11008000D01*
X2853857Y-10993714D01*
X2896714Y-10993714D01*
X2925286Y-11008000D01*
X2939571Y-11036572D01*
X2939571Y-11193714D01*
X3525286Y-10879429D02*
X3268143Y-11265143D01*
X3911000Y-10893714D02*
X3939571Y-10893714D01*
X3968143Y-10908000D01*
X3982428Y-10922286D01*
X3996714Y-10950857D01*
X4011000Y-11008000D01*
X4011000Y-11079429D01*
X3996714Y-11136572D01*
X3982428Y-11165143D01*
X3968143Y-11179429D01*
X3939571Y-11193714D01*
X3911000Y-11193714D01*
X3882428Y-11179429D01*
X3868143Y-11165143D01*
X3853857Y-11136572D01*
X3839571Y-11079429D01*
X3839571Y-11008000D01*
X3853857Y-10950857D01*
X3868143Y-10922286D01*
X3882428Y-10908000D01*
X3911000Y-10893714D01*
X4139571Y-11165143D02*
X4153857Y-11179429D01*
X4139571Y-11193714D01*
X4125286Y-11179429D01*
X4139571Y-11165143D01*
X4139571Y-11193714D01*
X4339571Y-10893714D02*
X4368143Y-10893714D01*
X4396714Y-10908000D01*
X4411000Y-10922286D01*
X4425286Y-10950857D01*
X4439571Y-11008000D01*
X4439571Y-11079429D01*
X4425286Y-11136572D01*
X4411000Y-11165143D01*
X4396714Y-11179429D01*
X4368143Y-11193714D01*
X4339571Y-11193714D01*
X4311000Y-11179429D01*
X4296714Y-11165143D01*
X4282428Y-11136572D01*
X4268143Y-11079429D01*
X4268143Y-11008000D01*
X4282428Y-10950857D01*
X4296714Y-10922286D01*
X4311000Y-10908000D01*
X4339571Y-10893714D01*
X4696714Y-10993714D02*
X4696714Y-11193714D01*
X4625286Y-10879429D02*
X4553857Y-11093714D01*
X4739571Y-11093714D01*
X4996714Y-10893714D02*
X4853857Y-10893714D01*
X4839571Y-11036572D01*
X4853857Y-11022286D01*
X4882428Y-11008000D01*
X4953857Y-11008000D01*
X4982428Y-11022286D01*
X4996714Y-11036572D01*
X5011000Y-11065143D01*
X5011000Y-11136572D01*
X4996714Y-11165143D01*
X4982428Y-11179429D01*
X4953857Y-11193714D01*
X4882428Y-11193714D01*
X4853857Y-11179429D01*
X4839571Y-11165143D01*
X5125286Y-10893714D02*
X5125286Y-10950857D01*
X5239571Y-10893714D02*
X5239571Y-10950857D01*
X5682428Y-11308000D02*
X5668143Y-11293714D01*
X5639571Y-11250857D01*
X5625285Y-11222286D01*
X5611000Y-11179429D01*
X5596714Y-11108000D01*
X5596714Y-11050857D01*
X5611000Y-10979429D01*
X5625285Y-10936572D01*
X5639571Y-10908000D01*
X5668143Y-10865143D01*
X5682428Y-10850857D01*
X5811000Y-11193714D02*
X5868143Y-11193714D01*
X5896714Y-11179429D01*
X5911000Y-11165143D01*
X5939571Y-11122286D01*
X5953857Y-11065143D01*
X5953857Y-10950857D01*
X5939571Y-10922286D01*
X5925285Y-10908000D01*
X5896714Y-10893714D01*
X5839571Y-10893714D01*
X5811000Y-10908000D01*
X5796714Y-10922286D01*
X5782428Y-10950857D01*
X5782428Y-11022286D01*
X5796714Y-11050857D01*
X5811000Y-11065143D01*
X5839571Y-11079429D01*
X5896714Y-11079429D01*
X5925285Y-11065143D01*
X5939571Y-11050857D01*
X5953857Y-11022286D01*
X6311000Y-11193714D02*
X6311000Y-10893714D01*
X6439571Y-11193714D02*
X6439571Y-11036572D01*
X6425285Y-11008000D01*
X6396714Y-10993714D01*
X6353857Y-10993714D01*
X6325285Y-11008000D01*
X6311000Y-11022286D01*
X6625285Y-11193714D02*
X6596714Y-11179429D01*
X6582428Y-11165143D01*
X6568143Y-11136572D01*
X6568143Y-11050857D01*
X6582428Y-11022286D01*
X6596714Y-11008000D01*
X6625285Y-10993714D01*
X6668143Y-10993714D01*
X6696714Y-11008000D01*
X6711000Y-11022286D01*
X6725285Y-11050857D01*
X6725285Y-11136572D01*
X6711000Y-11165143D01*
X6696714Y-11179429D01*
X6668143Y-11193714D01*
X6625285Y-11193714D01*
X6896714Y-11193714D02*
X6868143Y-11179429D01*
X6853857Y-11150857D01*
X6853857Y-10893714D01*
X7125286Y-11179429D02*
X7096714Y-11193714D01*
X7039571Y-11193714D01*
X7011000Y-11179429D01*
X6996714Y-11150857D01*
X6996714Y-11036572D01*
X7011000Y-11008000D01*
X7039571Y-10993714D01*
X7096714Y-10993714D01*
X7125286Y-11008000D01*
X7139571Y-11036572D01*
X7139571Y-11065143D01*
X6996714Y-11093714D01*
X7253857Y-11179429D02*
X7282428Y-11193714D01*
X7339571Y-11193714D01*
X7368143Y-11179429D01*
X7382428Y-11150857D01*
X7382428Y-11136572D01*
X7368143Y-11108000D01*
X7339571Y-11093714D01*
X7296714Y-11093714D01*
X7268143Y-11079429D01*
X7253857Y-11050857D01*
X7253857Y-11036572D01*
X7268143Y-11008000D01*
X7296714Y-10993714D01*
X7339571Y-10993714D01*
X7368143Y-11008000D01*
X7482428Y-11308000D02*
X7496714Y-11293714D01*
X7525286Y-11250857D01*
X7539571Y-11222286D01*
X7553857Y-11179429D01*
X7568143Y-11108000D01*
X7568143Y-11050857D01*
X7553857Y-10979429D01*
X7539571Y-10936572D01*
X7525286Y-10908000D01*
X7496714Y-10865143D01*
X7482428Y-10850857D01*
X891112Y-11394056D02*
X1011000Y-11513944D01*
X1011000Y-11394056D02*
X891112Y-11513944D01*
X1011000Y-11454000D02*
G75*
G03X1011000Y-11454000I-59944J0D01*
G01*
X1439571Y-11589714D02*
X1268143Y-11589714D01*
X1353857Y-11589714D02*
X1353857Y-11289714D01*
X1325286Y-11332571D01*
X1296714Y-11361143D01*
X1268143Y-11375429D01*
X1568143Y-11561143D02*
X1582428Y-11575429D01*
X1568143Y-11589714D01*
X1553857Y-11575429D01*
X1568143Y-11561143D01*
X1568143Y-11589714D01*
X1696714Y-11318286D02*
X1711000Y-11304000D01*
X1739571Y-11289714D01*
X1811000Y-11289714D01*
X1839571Y-11304000D01*
X1853857Y-11318286D01*
X1868143Y-11346857D01*
X1868143Y-11375429D01*
X1853857Y-11418286D01*
X1682428Y-11589714D01*
X1868143Y-11589714D01*
X2053857Y-11289714D02*
X2082428Y-11289714D01*
X2111000Y-11304000D01*
X2125286Y-11318286D01*
X2139571Y-11346857D01*
X2153857Y-11404000D01*
X2153857Y-11475429D01*
X2139571Y-11532571D01*
X2125286Y-11561143D01*
X2111000Y-11575429D01*
X2082428Y-11589714D01*
X2053857Y-11589714D01*
X2025286Y-11575429D01*
X2011000Y-11561143D01*
X1996714Y-11532571D01*
X1982428Y-11475429D01*
X1982428Y-11404000D01*
X1996714Y-11346857D01*
X2011000Y-11318286D01*
X2025286Y-11304000D01*
X2053857Y-11289714D01*
X2282429Y-11589714D02*
X2282429Y-11389714D01*
X2282429Y-11418286D02*
X2296714Y-11404000D01*
X2325286Y-11389714D01*
X2368143Y-11389714D01*
X2396714Y-11404000D01*
X2411000Y-11432571D01*
X2411000Y-11589714D01*
X2411000Y-11432571D02*
X2425286Y-11404000D01*
X2453857Y-11389714D01*
X2496714Y-11389714D01*
X2525286Y-11404000D01*
X2539571Y-11432571D01*
X2539571Y-11589714D01*
X2682429Y-11589714D02*
X2682429Y-11389714D01*
X2682429Y-11418286D02*
X2696714Y-11404000D01*
X2725286Y-11389714D01*
X2768143Y-11389714D01*
X2796714Y-11404000D01*
X2811000Y-11432571D01*
X2811000Y-11589714D01*
X2811000Y-11432571D02*
X2825286Y-11404000D01*
X2853857Y-11389714D01*
X2896714Y-11389714D01*
X2925286Y-11404000D01*
X2939571Y-11432571D01*
X2939571Y-11589714D01*
X3525286Y-11275429D02*
X3268143Y-11661143D01*
X3911000Y-11289714D02*
X3939571Y-11289714D01*
X3968143Y-11304000D01*
X3982428Y-11318286D01*
X3996714Y-11346857D01*
X4011000Y-11404000D01*
X4011000Y-11475429D01*
X3996714Y-11532571D01*
X3982428Y-11561143D01*
X3968143Y-11575429D01*
X3939571Y-11589714D01*
X3911000Y-11589714D01*
X3882428Y-11575429D01*
X3868143Y-11561143D01*
X3853857Y-11532571D01*
X3839571Y-11475429D01*
X3839571Y-11404000D01*
X3853857Y-11346857D01*
X3868143Y-11318286D01*
X3882428Y-11304000D01*
X3911000Y-11289714D01*
X4139571Y-11561143D02*
X4153857Y-11575429D01*
X4139571Y-11589714D01*
X4125286Y-11575429D01*
X4139571Y-11561143D01*
X4139571Y-11589714D01*
X4339571Y-11289714D02*
X4368143Y-11289714D01*
X4396714Y-11304000D01*
X4411000Y-11318286D01*
X4425286Y-11346857D01*
X4439571Y-11404000D01*
X4439571Y-11475429D01*
X4425286Y-11532571D01*
X4411000Y-11561143D01*
X4396714Y-11575429D01*
X4368143Y-11589714D01*
X4339571Y-11589714D01*
X4311000Y-11575429D01*
X4296714Y-11561143D01*
X4282428Y-11532571D01*
X4268143Y-11475429D01*
X4268143Y-11404000D01*
X4282428Y-11346857D01*
X4296714Y-11318286D01*
X4311000Y-11304000D01*
X4339571Y-11289714D01*
X4696714Y-11389714D02*
X4696714Y-11589714D01*
X4625286Y-11275429D02*
X4553857Y-11489714D01*
X4739571Y-11489714D01*
X4825286Y-11289714D02*
X5025286Y-11289714D01*
X4896714Y-11589714D01*
X5125286Y-11289714D02*
X5125286Y-11346857D01*
X5239571Y-11289714D02*
X5239571Y-11346857D01*
X5682428Y-11704000D02*
X5668143Y-11689714D01*
X5639571Y-11646857D01*
X5625285Y-11618286D01*
X5611000Y-11575429D01*
X5596714Y-11504000D01*
X5596714Y-11446857D01*
X5611000Y-11375429D01*
X5625285Y-11332571D01*
X5639571Y-11304000D01*
X5668143Y-11261143D01*
X5682428Y-11246857D01*
X5953857Y-11589714D02*
X5782428Y-11589714D01*
X5868143Y-11589714D02*
X5868143Y-11289714D01*
X5839571Y-11332571D01*
X5811000Y-11361143D01*
X5782428Y-11375429D01*
X6068143Y-11318286D02*
X6082428Y-11304000D01*
X6111000Y-11289714D01*
X6182428Y-11289714D01*
X6211000Y-11304000D01*
X6225285Y-11318286D01*
X6239571Y-11346857D01*
X6239571Y-11375429D01*
X6225285Y-11418286D01*
X6053857Y-11589714D01*
X6239571Y-11589714D01*
X6596714Y-11589714D02*
X6596714Y-11289714D01*
X6725285Y-11589714D02*
X6725285Y-11432571D01*
X6711000Y-11404000D01*
X6682428Y-11389714D01*
X6639571Y-11389714D01*
X6611000Y-11404000D01*
X6596714Y-11418286D01*
X6911000Y-11589714D02*
X6882428Y-11575429D01*
X6868143Y-11561143D01*
X6853857Y-11532571D01*
X6853857Y-11446857D01*
X6868143Y-11418286D01*
X6882428Y-11404000D01*
X6911000Y-11389714D01*
X6953857Y-11389714D01*
X6982428Y-11404000D01*
X6996714Y-11418286D01*
X7011000Y-11446857D01*
X7011000Y-11532571D01*
X6996714Y-11561143D01*
X6982428Y-11575429D01*
X6953857Y-11589714D01*
X6911000Y-11589714D01*
X7182428Y-11589714D02*
X7153857Y-11575429D01*
X7139571Y-11546857D01*
X7139571Y-11289714D01*
X7411000Y-11575429D02*
X7382428Y-11589714D01*
X7325286Y-11589714D01*
X7296714Y-11575429D01*
X7282428Y-11546857D01*
X7282428Y-11432571D01*
X7296714Y-11404000D01*
X7325286Y-11389714D01*
X7382428Y-11389714D01*
X7411000Y-11404000D01*
X7425286Y-11432571D01*
X7425286Y-11461143D01*
X7282428Y-11489714D01*
X7539571Y-11575429D02*
X7568143Y-11589714D01*
X7625286Y-11589714D01*
X7653857Y-11575429D01*
X7668143Y-11546857D01*
X7668143Y-11532571D01*
X7653857Y-11504000D01*
X7625286Y-11489714D01*
X7582428Y-11489714D01*
X7553857Y-11475429D01*
X7539571Y-11446857D01*
X7539571Y-11432571D01*
X7553857Y-11404000D01*
X7582428Y-11389714D01*
X7625286Y-11389714D01*
X7653857Y-11404000D01*
X7768143Y-11704000D02*
X7782428Y-11689714D01*
X7811000Y-11646857D01*
X7825286Y-11618286D01*
X7839571Y-11575429D01*
X7853857Y-11504000D01*
X7853857Y-11446857D01*
X7839571Y-11375429D01*
X7825286Y-11332571D01*
X7811000Y-11304000D01*
X7782428Y-11261143D01*
X7768143Y-11246857D01*
X860886Y-11774943D02*
X1011000Y-11925057D01*
X1011000Y-11774943D02*
X860886Y-11925057D01*
X935943Y-11774943D02*
X935943Y-11925057D01*
X860886Y-11850000D02*
X1011000Y-11850000D01*
X1439571Y-11985714D02*
X1268143Y-11985714D01*
X1353857Y-11985714D02*
X1353857Y-11685714D01*
X1325286Y-11728571D01*
X1296714Y-11757143D01*
X1268143Y-11771429D01*
X1568143Y-11957143D02*
X1582428Y-11971429D01*
X1568143Y-11985714D01*
X1553857Y-11971429D01*
X1568143Y-11957143D01*
X1568143Y-11985714D01*
X1853857Y-11685714D02*
X1711000Y-11685714D01*
X1696714Y-11828571D01*
X1711000Y-11814286D01*
X1739571Y-11800000D01*
X1811000Y-11800000D01*
X1839571Y-11814286D01*
X1853857Y-11828571D01*
X1868143Y-11857143D01*
X1868143Y-11928571D01*
X1853857Y-11957143D01*
X1839571Y-11971429D01*
X1811000Y-11985714D01*
X1739571Y-11985714D01*
X1711000Y-11971429D01*
X1696714Y-11957143D01*
X2053857Y-11685714D02*
X2082428Y-11685714D01*
X2111000Y-11700000D01*
X2125286Y-11714286D01*
X2139571Y-11742857D01*
X2153857Y-11800000D01*
X2153857Y-11871429D01*
X2139571Y-11928571D01*
X2125286Y-11957143D01*
X2111000Y-11971429D01*
X2082428Y-11985714D01*
X2053857Y-11985714D01*
X2025286Y-11971429D01*
X2011000Y-11957143D01*
X1996714Y-11928571D01*
X1982428Y-11871429D01*
X1982428Y-11800000D01*
X1996714Y-11742857D01*
X2011000Y-11714286D01*
X2025286Y-11700000D01*
X2053857Y-11685714D01*
X2282429Y-11985714D02*
X2282429Y-11785714D01*
X2282429Y-11814286D02*
X2296714Y-11800000D01*
X2325286Y-11785714D01*
X2368143Y-11785714D01*
X2396714Y-11800000D01*
X2411000Y-11828571D01*
X2411000Y-11985714D01*
X2411000Y-11828571D02*
X2425286Y-11800000D01*
X2453857Y-11785714D01*
X2496714Y-11785714D01*
X2525286Y-11800000D01*
X2539571Y-11828571D01*
X2539571Y-11985714D01*
X2682429Y-11985714D02*
X2682429Y-11785714D01*
X2682429Y-11814286D02*
X2696714Y-11800000D01*
X2725286Y-11785714D01*
X2768143Y-11785714D01*
X2796714Y-11800000D01*
X2811000Y-11828571D01*
X2811000Y-11985714D01*
X2811000Y-11828571D02*
X2825286Y-11800000D01*
X2853857Y-11785714D01*
X2896714Y-11785714D01*
X2925286Y-11800000D01*
X2939571Y-11828571D01*
X2939571Y-11985714D01*
X3525286Y-11671429D02*
X3268143Y-12057143D01*
X3911000Y-11685714D02*
X3939571Y-11685714D01*
X3968143Y-11700000D01*
X3982428Y-11714286D01*
X3996714Y-11742857D01*
X4011000Y-11800000D01*
X4011000Y-11871429D01*
X3996714Y-11928571D01*
X3982428Y-11957143D01*
X3968143Y-11971429D01*
X3939571Y-11985714D01*
X3911000Y-11985714D01*
X3882428Y-11971429D01*
X3868143Y-11957143D01*
X3853857Y-11928571D01*
X3839571Y-11871429D01*
X3839571Y-11800000D01*
X3853857Y-11742857D01*
X3868143Y-11714286D01*
X3882428Y-11700000D01*
X3911000Y-11685714D01*
X4139571Y-11957143D02*
X4153857Y-11971429D01*
X4139571Y-11985714D01*
X4125286Y-11971429D01*
X4139571Y-11957143D01*
X4139571Y-11985714D01*
X4339571Y-11685714D02*
X4368143Y-11685714D01*
X4396714Y-11700000D01*
X4411000Y-11714286D01*
X4425286Y-11742857D01*
X4439571Y-11800000D01*
X4439571Y-11871429D01*
X4425286Y-11928571D01*
X4411000Y-11957143D01*
X4396714Y-11971429D01*
X4368143Y-11985714D01*
X4339571Y-11985714D01*
X4311000Y-11971429D01*
X4296714Y-11957143D01*
X4282428Y-11928571D01*
X4268143Y-11871429D01*
X4268143Y-11800000D01*
X4282428Y-11742857D01*
X4296714Y-11714286D01*
X4311000Y-11700000D01*
X4339571Y-11685714D01*
X4711000Y-11685714D02*
X4568143Y-11685714D01*
X4553857Y-11828571D01*
X4568143Y-11814286D01*
X4596714Y-11800000D01*
X4668143Y-11800000D01*
X4696714Y-11814286D01*
X4711000Y-11828571D01*
X4725286Y-11857143D01*
X4725286Y-11928571D01*
X4711000Y-11957143D01*
X4696714Y-11971429D01*
X4668143Y-11985714D01*
X4596714Y-11985714D01*
X4568143Y-11971429D01*
X4553857Y-11957143D01*
X4868143Y-11985714D02*
X4925286Y-11985714D01*
X4953857Y-11971429D01*
X4968143Y-11957143D01*
X4996714Y-11914286D01*
X5011000Y-11857143D01*
X5011000Y-11742857D01*
X4996714Y-11714286D01*
X4982428Y-11700000D01*
X4953857Y-11685714D01*
X4896714Y-11685714D01*
X4868143Y-11700000D01*
X4853857Y-11714286D01*
X4839571Y-11742857D01*
X4839571Y-11814286D01*
X4853857Y-11842857D01*
X4868143Y-11857143D01*
X4896714Y-11871429D01*
X4953857Y-11871429D01*
X4982428Y-11857143D01*
X4996714Y-11842857D01*
X5011000Y-11814286D01*
X5125286Y-11685714D02*
X5125286Y-11742857D01*
X5239571Y-11685714D02*
X5239571Y-11742857D01*
X5682428Y-12100000D02*
X5668143Y-12085714D01*
X5639571Y-12042857D01*
X5625285Y-12014286D01*
X5611000Y-11971429D01*
X5596714Y-11900000D01*
X5596714Y-11842857D01*
X5611000Y-11771429D01*
X5625285Y-11728571D01*
X5639571Y-11700000D01*
X5668143Y-11657143D01*
X5682428Y-11642857D01*
X5839571Y-11814286D02*
X5811000Y-11800000D01*
X5796714Y-11785714D01*
X5782428Y-11757143D01*
X5782428Y-11742857D01*
X5796714Y-11714286D01*
X5811000Y-11700000D01*
X5839571Y-11685714D01*
X5896714Y-11685714D01*
X5925285Y-11700000D01*
X5939571Y-11714286D01*
X5953857Y-11742857D01*
X5953857Y-11757143D01*
X5939571Y-11785714D01*
X5925285Y-11800000D01*
X5896714Y-11814286D01*
X5839571Y-11814286D01*
X5811000Y-11828571D01*
X5796714Y-11842857D01*
X5782428Y-11871429D01*
X5782428Y-11928571D01*
X5796714Y-11957143D01*
X5811000Y-11971429D01*
X5839571Y-11985714D01*
X5896714Y-11985714D01*
X5925285Y-11971429D01*
X5939571Y-11957143D01*
X5953857Y-11928571D01*
X5953857Y-11871429D01*
X5939571Y-11842857D01*
X5925285Y-11828571D01*
X5896714Y-11814286D01*
X6311000Y-11985714D02*
X6311000Y-11685714D01*
X6439571Y-11985714D02*
X6439571Y-11828571D01*
X6425285Y-11800000D01*
X6396714Y-11785714D01*
X6353857Y-11785714D01*
X6325285Y-11800000D01*
X6311000Y-11814286D01*
X6625285Y-11985714D02*
X6596714Y-11971429D01*
X6582428Y-11957143D01*
X6568143Y-11928571D01*
X6568143Y-11842857D01*
X6582428Y-11814286D01*
X6596714Y-11800000D01*
X6625285Y-11785714D01*
X6668143Y-11785714D01*
X6696714Y-11800000D01*
X6711000Y-11814286D01*
X6725285Y-11842857D01*
X6725285Y-11928571D01*
X6711000Y-11957143D01*
X6696714Y-11971429D01*
X6668143Y-11985714D01*
X6625285Y-11985714D01*
X6896714Y-11985714D02*
X6868143Y-11971429D01*
X6853857Y-11942857D01*
X6853857Y-11685714D01*
X7125286Y-11971429D02*
X7096714Y-11985714D01*
X7039571Y-11985714D01*
X7011000Y-11971429D01*
X6996714Y-11942857D01*
X6996714Y-11828571D01*
X7011000Y-11800000D01*
X7039571Y-11785714D01*
X7096714Y-11785714D01*
X7125286Y-11800000D01*
X7139571Y-11828571D01*
X7139571Y-11857143D01*
X6996714Y-11885714D01*
X7253857Y-11971429D02*
X7282428Y-11985714D01*
X7339571Y-11985714D01*
X7368143Y-11971429D01*
X7382428Y-11942857D01*
X7382428Y-11928571D01*
X7368143Y-11900000D01*
X7339571Y-11885714D01*
X7296714Y-11885714D01*
X7268143Y-11871429D01*
X7253857Y-11842857D01*
X7253857Y-11828571D01*
X7268143Y-11800000D01*
X7296714Y-11785714D01*
X7339571Y-11785714D01*
X7368143Y-11800000D01*
X7482428Y-12100000D02*
X7496714Y-12085714D01*
X7525286Y-12042857D01*
X7539571Y-12014286D01*
X7553857Y-11971429D01*
X7568143Y-11900000D01*
X7568143Y-11842857D01*
X7553857Y-11771429D01*
X7539571Y-11728571D01*
X7525286Y-11700000D01*
X7496714Y-11657143D01*
X7482428Y-11642857D01*
X711026Y-12096013D02*
X1011000Y-12395987D01*
X1011000Y-12096013D02*
X711026Y-12395987D01*
X967071Y-12352058D02*
X967071Y-12139942D01*
X754955Y-12139942D01*
X754955Y-12352058D01*
X967071Y-12352058D01*
X1253857Y-12081714D02*
X1439571Y-12081714D01*
X1339571Y-12196000D01*
X1382429Y-12196000D01*
X1411000Y-12210286D01*
X1425286Y-12224571D01*
X1439571Y-12253143D01*
X1439571Y-12324571D01*
X1425286Y-12353143D01*
X1411000Y-12367429D01*
X1382429Y-12381714D01*
X1296714Y-12381714D01*
X1268143Y-12367429D01*
X1253857Y-12353143D01*
X1568143Y-12353143D02*
X1582428Y-12367429D01*
X1568143Y-12381714D01*
X1553857Y-12367429D01*
X1568143Y-12353143D01*
X1568143Y-12381714D01*
X1768143Y-12081714D02*
X1796714Y-12081714D01*
X1825286Y-12096000D01*
X1839571Y-12110286D01*
X1853857Y-12138857D01*
X1868143Y-12196000D01*
X1868143Y-12267429D01*
X1853857Y-12324571D01*
X1839571Y-12353143D01*
X1825286Y-12367429D01*
X1796714Y-12381714D01*
X1768143Y-12381714D01*
X1739571Y-12367429D01*
X1725286Y-12353143D01*
X1711000Y-12324571D01*
X1696714Y-12267429D01*
X1696714Y-12196000D01*
X1711000Y-12138857D01*
X1725286Y-12110286D01*
X1739571Y-12096000D01*
X1768143Y-12081714D01*
X2053857Y-12081714D02*
X2082428Y-12081714D01*
X2111000Y-12096000D01*
X2125286Y-12110286D01*
X2139571Y-12138857D01*
X2153857Y-12196000D01*
X2153857Y-12267429D01*
X2139571Y-12324571D01*
X2125286Y-12353143D01*
X2111000Y-12367429D01*
X2082428Y-12381714D01*
X2053857Y-12381714D01*
X2025286Y-12367429D01*
X2011000Y-12353143D01*
X1996714Y-12324571D01*
X1982428Y-12267429D01*
X1982428Y-12196000D01*
X1996714Y-12138857D01*
X2011000Y-12110286D01*
X2025286Y-12096000D01*
X2053857Y-12081714D01*
X2282429Y-12381714D02*
X2282429Y-12181714D01*
X2282429Y-12210286D02*
X2296714Y-12196000D01*
X2325286Y-12181714D01*
X2368143Y-12181714D01*
X2396714Y-12196000D01*
X2411000Y-12224571D01*
X2411000Y-12381714D01*
X2411000Y-12224571D02*
X2425286Y-12196000D01*
X2453857Y-12181714D01*
X2496714Y-12181714D01*
X2525286Y-12196000D01*
X2539571Y-12224571D01*
X2539571Y-12381714D01*
X2682429Y-12381714D02*
X2682429Y-12181714D01*
X2682429Y-12210286D02*
X2696714Y-12196000D01*
X2725286Y-12181714D01*
X2768143Y-12181714D01*
X2796714Y-12196000D01*
X2811000Y-12224571D01*
X2811000Y-12381714D01*
X2811000Y-12224571D02*
X2825286Y-12196000D01*
X2853857Y-12181714D01*
X2896714Y-12181714D01*
X2925286Y-12196000D01*
X2939571Y-12224571D01*
X2939571Y-12381714D01*
X3525286Y-12067429D02*
X3268143Y-12453143D01*
X3911000Y-12081714D02*
X3939571Y-12081714D01*
X3968143Y-12096000D01*
X3982428Y-12110286D01*
X3996714Y-12138857D01*
X4011000Y-12196000D01*
X4011000Y-12267429D01*
X3996714Y-12324571D01*
X3982428Y-12353143D01*
X3968143Y-12367429D01*
X3939571Y-12381714D01*
X3911000Y-12381714D01*
X3882428Y-12367429D01*
X3868143Y-12353143D01*
X3853857Y-12324571D01*
X3839571Y-12267429D01*
X3839571Y-12196000D01*
X3853857Y-12138857D01*
X3868143Y-12110286D01*
X3882428Y-12096000D01*
X3911000Y-12081714D01*
X4139571Y-12353143D02*
X4153857Y-12367429D01*
X4139571Y-12381714D01*
X4125286Y-12367429D01*
X4139571Y-12353143D01*
X4139571Y-12381714D01*
X4439571Y-12381714D02*
X4268143Y-12381714D01*
X4353857Y-12381714D02*
X4353857Y-12081714D01*
X4325286Y-12124571D01*
X4296714Y-12153143D01*
X4268143Y-12167429D01*
X4725286Y-12381714D02*
X4553857Y-12381714D01*
X4639571Y-12381714D02*
X4639571Y-12081714D01*
X4611000Y-12124571D01*
X4582428Y-12153143D01*
X4553857Y-12167429D01*
X4896714Y-12210286D02*
X4868143Y-12196000D01*
X4853857Y-12181714D01*
X4839571Y-12153143D01*
X4839571Y-12138857D01*
X4853857Y-12110286D01*
X4868143Y-12096000D01*
X4896714Y-12081714D01*
X4953857Y-12081714D01*
X4982428Y-12096000D01*
X4996714Y-12110286D01*
X5011000Y-12138857D01*
X5011000Y-12153143D01*
X4996714Y-12181714D01*
X4982428Y-12196000D01*
X4953857Y-12210286D01*
X4896714Y-12210286D01*
X4868143Y-12224571D01*
X4853857Y-12238857D01*
X4839571Y-12267429D01*
X4839571Y-12324571D01*
X4853857Y-12353143D01*
X4868143Y-12367429D01*
X4896714Y-12381714D01*
X4953857Y-12381714D01*
X4982428Y-12367429D01*
X4996714Y-12353143D01*
X5011000Y-12324571D01*
X5011000Y-12267429D01*
X4996714Y-12238857D01*
X4982428Y-12224571D01*
X4953857Y-12210286D01*
X5125286Y-12081714D02*
X5125286Y-12138857D01*
X5239571Y-12081714D02*
X5239571Y-12138857D01*
X5682428Y-12496000D02*
X5668143Y-12481714D01*
X5639571Y-12438857D01*
X5625285Y-12410286D01*
X5611000Y-12367429D01*
X5596714Y-12296000D01*
X5596714Y-12238857D01*
X5611000Y-12167429D01*
X5625285Y-12124571D01*
X5639571Y-12096000D01*
X5668143Y-12053143D01*
X5682428Y-12038857D01*
X5925285Y-12181714D02*
X5925285Y-12381714D01*
X5853857Y-12067429D02*
X5782428Y-12281714D01*
X5968143Y-12281714D01*
X6311000Y-12381714D02*
X6311000Y-12081714D01*
X6439571Y-12381714D02*
X6439571Y-12224571D01*
X6425285Y-12196000D01*
X6396714Y-12181714D01*
X6353857Y-12181714D01*
X6325285Y-12196000D01*
X6311000Y-12210286D01*
X6625285Y-12381714D02*
X6596714Y-12367429D01*
X6582428Y-12353143D01*
X6568143Y-12324571D01*
X6568143Y-12238857D01*
X6582428Y-12210286D01*
X6596714Y-12196000D01*
X6625285Y-12181714D01*
X6668143Y-12181714D01*
X6696714Y-12196000D01*
X6711000Y-12210286D01*
X6725285Y-12238857D01*
X6725285Y-12324571D01*
X6711000Y-12353143D01*
X6696714Y-12367429D01*
X6668143Y-12381714D01*
X6625285Y-12381714D01*
X6896714Y-12381714D02*
X6868143Y-12367429D01*
X6853857Y-12338857D01*
X6853857Y-12081714D01*
X7125286Y-12367429D02*
X7096714Y-12381714D01*
X7039571Y-12381714D01*
X7011000Y-12367429D01*
X6996714Y-12338857D01*
X6996714Y-12224571D01*
X7011000Y-12196000D01*
X7039571Y-12181714D01*
X7096714Y-12181714D01*
X7125286Y-12196000D01*
X7139571Y-12224571D01*
X7139571Y-12253143D01*
X6996714Y-12281714D01*
X7253857Y-12367429D02*
X7282428Y-12381714D01*
X7339571Y-12381714D01*
X7368143Y-12367429D01*
X7382428Y-12338857D01*
X7382428Y-12324571D01*
X7368143Y-12296000D01*
X7339571Y-12281714D01*
X7296714Y-12281714D01*
X7268143Y-12267429D01*
X7253857Y-12238857D01*
X7253857Y-12224571D01*
X7268143Y-12196000D01*
X7296714Y-12181714D01*
X7339571Y-12181714D01*
X7368143Y-12196000D01*
X7482428Y-12496000D02*
X7496714Y-12481714D01*
X7525286Y-12438857D01*
X7539571Y-12410286D01*
X7553857Y-12367429D01*
X7568143Y-12296000D01*
X7568143Y-12238857D01*
X7553857Y-12167429D01*
X7539571Y-12124571D01*
X7525286Y-12096000D01*
X7496714Y-12053143D01*
X7482428Y-12038857D01*
M02*
