G04 #@! TF.FileFunction,Copper,L1,Top,Signal*
%FSLAX46Y46*%
G04 Gerber Fmt 4.6, Leading zero omitted, Abs format (unit mm)*
G04 Created by KiCad (PCBNEW (after 2015-mar-04 BZR unknown)-product) date Sat 22 Oct 2016 07:01:28 PM CEST*
%MOMM*%
G01*
G04 APERTURE LIST*
%ADD10C,0.100000*%
%ADD11C,0.150000*%
%ADD12C,1.778000*%
%ADD13R,1.778000X1.778000*%
%ADD14C,1.501140*%
%ADD15C,1.524000*%
%ADD16O,2.499360X4.000500*%
%ADD17O,3.500120X1.998980*%
%ADD18O,1.998980X3.500120*%
%ADD19C,1.998980*%
%ADD20C,1.000000*%
%ADD21C,0.254000*%
G04 APERTURE END LIST*
D10*
D11*
X58420000Y-46482000D02*
X57150000Y-46482000D01*
X57785000Y-45847000D02*
X57785000Y-46990000D01*
X58420000Y-62992000D02*
X57150000Y-62992000D01*
X57785000Y-62357000D02*
X57785000Y-63500000D01*
X40640000Y-46482000D02*
X39370000Y-46482000D01*
X40005000Y-45847000D02*
X40005000Y-46990000D01*
X40640000Y-62992000D02*
X39370000Y-62992000D01*
X40005000Y-62357000D02*
X40005000Y-63500000D01*
D12*
X13970000Y-73660000D03*
D13*
X13970000Y-71120000D03*
D12*
X13970000Y-68580000D03*
X13970000Y-52070000D03*
D13*
X13970000Y-49530000D03*
D12*
X13970000Y-46990000D03*
X13970000Y-27940000D03*
D13*
X13970000Y-25400000D03*
D12*
X13970000Y-22860000D03*
D14*
X55880000Y-49530000D03*
X55880000Y-46990000D03*
X55880000Y-66040000D03*
X55880000Y-63500000D03*
X38100000Y-49530000D03*
X38100000Y-46990000D03*
X38100000Y-66040000D03*
X38100000Y-63500000D03*
D15*
X26670000Y-26670000D03*
X26670000Y-36830000D03*
X26670000Y-31750000D03*
X26670000Y-41910000D03*
X15240000Y-40640000D03*
X20320000Y-40640000D03*
X20320000Y-35560000D03*
X15240000Y-35560000D03*
D16*
X46990000Y-36400740D03*
X46990000Y-14399260D03*
X35560000Y-36400740D03*
X35560000Y-14399260D03*
D17*
X59690000Y-26670000D03*
X59690000Y-21590000D03*
X59690000Y-36830000D03*
X59690000Y-31750000D03*
D18*
X27940000Y-80010000D03*
X33020000Y-80010000D03*
X38100000Y-80010000D03*
X43180000Y-80010000D03*
X48260000Y-80010000D03*
X53340000Y-80010000D03*
X26670000Y-15240000D03*
X21590000Y-15240000D03*
D19*
X26670000Y-47110000D03*
X26670000Y-62110000D03*
X21590000Y-56000000D03*
X21590000Y-71000000D03*
D20*
X26670000Y-26670000D02*
X39344600Y-26670000D01*
X39344600Y-26670000D02*
X43180000Y-29409572D01*
X43180000Y-29409572D02*
X43180000Y-44450000D01*
X43180000Y-44450000D02*
X38100000Y-46990000D01*
X21590000Y-19050000D02*
X26670000Y-19050000D01*
X21590000Y-15240000D02*
X21590000Y-19050000D01*
X26670000Y-19050000D02*
X26670000Y-26670000D01*
X20320000Y-35560000D02*
X23495000Y-35560000D01*
X23495000Y-53975000D02*
X21590000Y-55880000D01*
X23495000Y-35560000D02*
X23495000Y-53975000D01*
X21590000Y-55880000D02*
X21590000Y-56000000D01*
X13970000Y-27940000D02*
X13970000Y-29210000D01*
X13970000Y-29210000D02*
X20320000Y-35560000D01*
X33020000Y-80010000D02*
X33020000Y-74930000D01*
X15240000Y-67310000D02*
X13970000Y-68580000D01*
X28575000Y-67310000D02*
X15240000Y-67310000D01*
X33020000Y-71755000D02*
X28575000Y-67310000D01*
X33020000Y-74930000D02*
X33020000Y-71755000D01*
X43180000Y-80010000D02*
X43180000Y-74930000D01*
X43180000Y-74930000D02*
X43180000Y-72390000D01*
X40640000Y-69850000D02*
X35560000Y-69850000D01*
X43180000Y-72390000D02*
X40640000Y-69850000D01*
X35560000Y-69850000D02*
X30480000Y-64770000D01*
X30480000Y-64770000D02*
X16510000Y-64770000D01*
X16510000Y-64770000D02*
X16510000Y-57150000D01*
X16510000Y-57150000D02*
X20955000Y-52705000D01*
X20955000Y-52705000D02*
X20955000Y-46990000D01*
X20955000Y-46990000D02*
X13970000Y-46990000D01*
X13970000Y-46990000D02*
X20955000Y-46990000D01*
X16510000Y-57150000D02*
X16510000Y-64770000D01*
X20955000Y-52705000D02*
X16510000Y-57150000D01*
X20955000Y-46990000D02*
X20955000Y-52705000D01*
X53340000Y-80010000D02*
X53340000Y-74930000D01*
X53340000Y-74930000D02*
X53340000Y-69850000D01*
X53340000Y-69850000D02*
X46990000Y-63500000D01*
X46990000Y-63500000D02*
X46990000Y-60325000D01*
X46990000Y-60325000D02*
X43180000Y-56515000D01*
X43180000Y-56515000D02*
X36830000Y-56515000D01*
X36830000Y-56515000D02*
X31750000Y-51435000D01*
X31750000Y-51435000D02*
X31750000Y-47625000D01*
X31750000Y-47625000D02*
X40005000Y-39370000D01*
X40005000Y-39370000D02*
X40005000Y-32385000D01*
X40005000Y-32385000D02*
X37084000Y-29464000D01*
X37084000Y-29464000D02*
X21082000Y-29464000D01*
X21082000Y-29464000D02*
X20955000Y-29337000D01*
X20955000Y-29337000D02*
X20955000Y-22860000D01*
X20955000Y-22860000D02*
X13970000Y-22860000D01*
X53340000Y-69850000D02*
X46990000Y-63500000D01*
X21082000Y-22860000D02*
X13970000Y-22860000D01*
X21082000Y-22860000D02*
X21082000Y-29464000D01*
X13970000Y-22860000D02*
X21082000Y-22860000D01*
D21*
G36*
X64085000Y-84405000D02*
X63095240Y-84405000D01*
X63095240Y-80857211D01*
X63095240Y-13547211D01*
X62770910Y-12762273D01*
X62170886Y-12161200D01*
X61386515Y-11835501D01*
X60537211Y-11834760D01*
X59752273Y-12159090D01*
X59151200Y-12759114D01*
X58825501Y-13543485D01*
X58824760Y-14392789D01*
X59149090Y-15177727D01*
X59749114Y-15778800D01*
X60533485Y-16104499D01*
X61382789Y-16105240D01*
X62167727Y-15780910D01*
X62768800Y-15180886D01*
X63094499Y-14396515D01*
X63095240Y-13547211D01*
X63095240Y-80857211D01*
X62770910Y-80072273D01*
X62170886Y-79471200D01*
X62121786Y-79450811D01*
X62121786Y-36830000D01*
X62121786Y-31750000D01*
X62121786Y-26670000D01*
X62121786Y-21590000D01*
X61997368Y-20964508D01*
X61643055Y-20434241D01*
X61112788Y-20079928D01*
X60487296Y-19955510D01*
X58892704Y-19955510D01*
X58267212Y-20079928D01*
X57736945Y-20434241D01*
X57382632Y-20964508D01*
X57258214Y-21590000D01*
X57382632Y-22215492D01*
X57736945Y-22745759D01*
X58267212Y-23100072D01*
X58892704Y-23224490D01*
X60487296Y-23224490D01*
X61112788Y-23100072D01*
X61643055Y-22745759D01*
X61997368Y-22215492D01*
X62121786Y-21590000D01*
X62121786Y-26670000D01*
X61997368Y-26044508D01*
X61643055Y-25514241D01*
X61112788Y-25159928D01*
X60487296Y-25035510D01*
X58892704Y-25035510D01*
X58267212Y-25159928D01*
X57736945Y-25514241D01*
X57382632Y-26044508D01*
X57258214Y-26670000D01*
X57382632Y-27295492D01*
X57736945Y-27825759D01*
X58267212Y-28180072D01*
X58892704Y-28304490D01*
X60487296Y-28304490D01*
X61112788Y-28180072D01*
X61643055Y-27825759D01*
X61997368Y-27295492D01*
X62121786Y-26670000D01*
X62121786Y-31750000D01*
X61997368Y-31124508D01*
X61643055Y-30594241D01*
X61112788Y-30239928D01*
X60487296Y-30115510D01*
X58892704Y-30115510D01*
X58267212Y-30239928D01*
X57736945Y-30594241D01*
X57382632Y-31124508D01*
X57258214Y-31750000D01*
X57382632Y-32375492D01*
X57736945Y-32905759D01*
X58267212Y-33260072D01*
X58892704Y-33384490D01*
X60487296Y-33384490D01*
X61112788Y-33260072D01*
X61643055Y-32905759D01*
X61997368Y-32375492D01*
X62121786Y-31750000D01*
X62121786Y-36830000D01*
X61997368Y-36204508D01*
X61643055Y-35674241D01*
X61112788Y-35319928D01*
X60487296Y-35195510D01*
X58892704Y-35195510D01*
X58267212Y-35319928D01*
X57736945Y-35674241D01*
X57382632Y-36204508D01*
X57258214Y-36830000D01*
X57382632Y-37455492D01*
X57736945Y-37985759D01*
X58267212Y-38340072D01*
X58892704Y-38464490D01*
X60487296Y-38464490D01*
X61112788Y-38340072D01*
X61643055Y-37985759D01*
X61997368Y-37455492D01*
X62121786Y-36830000D01*
X62121786Y-79450811D01*
X61386515Y-79145501D01*
X60537211Y-79144760D01*
X59752273Y-79469090D01*
X59151200Y-80069114D01*
X59130000Y-80120169D01*
X59130000Y-62992000D01*
X59130000Y-46482000D01*
X59075954Y-46210295D01*
X58922046Y-45979954D01*
X58691705Y-45826046D01*
X58482556Y-45784443D01*
X58440954Y-45575295D01*
X58287046Y-45344954D01*
X58056705Y-45191046D01*
X57785000Y-45137000D01*
X57513295Y-45191046D01*
X57282954Y-45344954D01*
X57129046Y-45575295D01*
X57087443Y-45784443D01*
X56878295Y-45826046D01*
X56756858Y-45907186D01*
X56665887Y-45816056D01*
X56156816Y-45604671D01*
X55605602Y-45604190D01*
X55096163Y-45814686D01*
X54706056Y-46204113D01*
X54494671Y-46713184D01*
X54494190Y-47264398D01*
X54704686Y-47773837D01*
X55094113Y-48163944D01*
X55309496Y-48253378D01*
X55155735Y-48317069D01*
X55087675Y-48558070D01*
X55880000Y-49350395D01*
X56672325Y-48558070D01*
X56604265Y-48317069D01*
X56438959Y-48258231D01*
X56663837Y-48165314D01*
X57053944Y-47775887D01*
X57214404Y-47389454D01*
X57282954Y-47492046D01*
X57513295Y-47645954D01*
X57785000Y-47700000D01*
X58056705Y-47645954D01*
X58287046Y-47492046D01*
X58440954Y-47261705D01*
X58456253Y-47184788D01*
X58691705Y-47137954D01*
X58922046Y-46984046D01*
X59075954Y-46753705D01*
X59130000Y-46482000D01*
X59130000Y-62992000D01*
X59075954Y-62720295D01*
X58922046Y-62489954D01*
X58691705Y-62336046D01*
X58482556Y-62294443D01*
X58440954Y-62085295D01*
X58287046Y-61854954D01*
X58056705Y-61701046D01*
X57785000Y-61647000D01*
X57513295Y-61701046D01*
X57282954Y-61854954D01*
X57277767Y-61862716D01*
X57277767Y-49734966D01*
X57249805Y-49184462D01*
X57092931Y-48805735D01*
X56851930Y-48737675D01*
X56059605Y-49530000D01*
X56851930Y-50322325D01*
X57092931Y-50254265D01*
X57277767Y-49734966D01*
X57277767Y-61862716D01*
X57129046Y-62085295D01*
X57087443Y-62294443D01*
X56878295Y-62336046D01*
X56756858Y-62417186D01*
X56672325Y-62332505D01*
X56672325Y-50501930D01*
X55880000Y-49709605D01*
X55700395Y-49889210D01*
X55700395Y-49530000D01*
X54908070Y-48737675D01*
X54667069Y-48805735D01*
X54482233Y-49325034D01*
X54510195Y-49875538D01*
X54667069Y-50254265D01*
X54908070Y-50322325D01*
X55700395Y-49530000D01*
X55700395Y-49889210D01*
X55087675Y-50501930D01*
X55155735Y-50742931D01*
X55675034Y-50927767D01*
X56225538Y-50899805D01*
X56604265Y-50742931D01*
X56672325Y-50501930D01*
X56672325Y-62332505D01*
X56665887Y-62326056D01*
X56156816Y-62114671D01*
X55605602Y-62114190D01*
X55096163Y-62324686D01*
X54706056Y-62714113D01*
X54494671Y-63223184D01*
X54494190Y-63774398D01*
X54704686Y-64283837D01*
X55094113Y-64673944D01*
X55309496Y-64763378D01*
X55155735Y-64827069D01*
X55087675Y-65068070D01*
X55880000Y-65860395D01*
X56672325Y-65068070D01*
X56604265Y-64827069D01*
X56438959Y-64768231D01*
X56663837Y-64675314D01*
X57053944Y-64285887D01*
X57214404Y-63899454D01*
X57282954Y-64002046D01*
X57513295Y-64155954D01*
X57785000Y-64210000D01*
X58056705Y-64155954D01*
X58287046Y-64002046D01*
X58440954Y-63771705D01*
X58456253Y-63694788D01*
X58691705Y-63647954D01*
X58922046Y-63494046D01*
X59075954Y-63263705D01*
X59130000Y-62992000D01*
X59130000Y-80120169D01*
X58825501Y-80853485D01*
X58824760Y-81702789D01*
X59149090Y-82487727D01*
X59749114Y-83088800D01*
X60533485Y-83414499D01*
X61382789Y-83415240D01*
X62167727Y-83090910D01*
X62768800Y-82490886D01*
X63094499Y-81706515D01*
X63095240Y-80857211D01*
X63095240Y-84405000D01*
X57277767Y-84405000D01*
X57277767Y-66244966D01*
X57249805Y-65694462D01*
X57092931Y-65315735D01*
X56851930Y-65247675D01*
X56059605Y-66040000D01*
X56851930Y-66832325D01*
X57092931Y-66764265D01*
X57277767Y-66244966D01*
X57277767Y-84405000D01*
X56672325Y-84405000D01*
X56672325Y-67011930D01*
X55880000Y-66219605D01*
X55700395Y-66399210D01*
X55700395Y-66040000D01*
X54908070Y-65247675D01*
X54667069Y-65315735D01*
X54482233Y-65835034D01*
X54510195Y-66385538D01*
X54667069Y-66764265D01*
X54908070Y-66832325D01*
X55700395Y-66040000D01*
X55700395Y-66399210D01*
X55087675Y-67011930D01*
X55155735Y-67252931D01*
X55675034Y-67437767D01*
X56225538Y-67409805D01*
X56604265Y-67252931D01*
X56672325Y-67011930D01*
X56672325Y-84405000D01*
X54974490Y-84405000D01*
X54974490Y-80807296D01*
X54974490Y-79212704D01*
X54850072Y-78587212D01*
X54495759Y-78056945D01*
X54475000Y-78043074D01*
X54475000Y-74930000D01*
X54475000Y-69850000D01*
X54388603Y-69415655D01*
X54388603Y-69415654D01*
X54142566Y-69047434D01*
X48874680Y-63779548D01*
X48874680Y-37202938D01*
X48874680Y-35598542D01*
X48874680Y-15201458D01*
X48874680Y-13597062D01*
X48731217Y-12875826D01*
X48322670Y-12264392D01*
X47711236Y-11855845D01*
X46990000Y-11712382D01*
X46268764Y-11855845D01*
X45657330Y-12264392D01*
X45248783Y-12875826D01*
X45105320Y-13597062D01*
X45105320Y-15201458D01*
X45248783Y-15922694D01*
X45657330Y-16534128D01*
X46268764Y-16942675D01*
X46990000Y-17086138D01*
X47711236Y-16942675D01*
X48322670Y-16534128D01*
X48731217Y-15922694D01*
X48874680Y-15201458D01*
X48874680Y-35598542D01*
X48731217Y-34877306D01*
X48322670Y-34265872D01*
X47711236Y-33857325D01*
X46990000Y-33713862D01*
X46268764Y-33857325D01*
X45657330Y-34265872D01*
X45248783Y-34877306D01*
X45105320Y-35598542D01*
X45105320Y-37202938D01*
X45248783Y-37924174D01*
X45657330Y-38535608D01*
X46268764Y-38944155D01*
X46990000Y-39087618D01*
X47711236Y-38944155D01*
X48322670Y-38535608D01*
X48731217Y-37924174D01*
X48874680Y-37202938D01*
X48874680Y-63779548D01*
X48125000Y-63029868D01*
X48125000Y-60325000D01*
X48038604Y-59890655D01*
X48038603Y-59890654D01*
X47792566Y-59522434D01*
X44315000Y-56044868D01*
X44315000Y-44450000D01*
X44315000Y-29409572D01*
X44296617Y-29317157D01*
X44299557Y-29222979D01*
X44253827Y-29102038D01*
X44228603Y-28975226D01*
X44176255Y-28896881D01*
X44142930Y-28808747D01*
X44054399Y-28714511D01*
X43982566Y-28607006D01*
X43904222Y-28554658D01*
X43839705Y-28485984D01*
X40004305Y-25746413D01*
X39886453Y-25693231D01*
X39778946Y-25621397D01*
X39686531Y-25603014D01*
X39600646Y-25564258D01*
X39471412Y-25560224D01*
X39344600Y-25535000D01*
X37444680Y-25535000D01*
X37444680Y-15201458D01*
X37444680Y-13597062D01*
X37301217Y-12875826D01*
X36892670Y-12264392D01*
X36281236Y-11855845D01*
X35560000Y-11712382D01*
X34838764Y-11855845D01*
X34227330Y-12264392D01*
X33818783Y-12875826D01*
X33675320Y-13597062D01*
X33675320Y-15201458D01*
X33818783Y-15922694D01*
X34227330Y-16534128D01*
X34838764Y-16942675D01*
X35560000Y-17086138D01*
X36281236Y-16942675D01*
X36892670Y-16534128D01*
X37301217Y-15922694D01*
X37444680Y-15201458D01*
X37444680Y-25535000D01*
X28304490Y-25535000D01*
X28304490Y-16117570D01*
X28304490Y-15367000D01*
X28304490Y-15113000D01*
X28304490Y-14362430D01*
X28131471Y-13746605D01*
X27735956Y-13243868D01*
X27178159Y-12930757D01*
X27050354Y-12899811D01*
X26797000Y-13019165D01*
X26797000Y-15113000D01*
X28304490Y-15113000D01*
X28304490Y-15367000D01*
X26797000Y-15367000D01*
X26797000Y-17460835D01*
X27050354Y-17580189D01*
X27178159Y-17549243D01*
X27735956Y-17236132D01*
X28131471Y-16733395D01*
X28304490Y-16117570D01*
X28304490Y-25535000D01*
X27805000Y-25535000D01*
X27805000Y-19050000D01*
X27718603Y-18615654D01*
X27472566Y-18247434D01*
X27104346Y-18001397D01*
X26670000Y-17915000D01*
X26543000Y-17915000D01*
X26543000Y-17460835D01*
X26543000Y-15367000D01*
X26543000Y-15113000D01*
X26543000Y-13019165D01*
X26289646Y-12899811D01*
X26161841Y-12930757D01*
X25604044Y-13243868D01*
X25208529Y-13746605D01*
X25035510Y-14362430D01*
X25035510Y-15113000D01*
X26543000Y-15113000D01*
X26543000Y-15367000D01*
X25035510Y-15367000D01*
X25035510Y-16117570D01*
X25208529Y-16733395D01*
X25604044Y-17236132D01*
X26161841Y-17549243D01*
X26289646Y-17580189D01*
X26543000Y-17460835D01*
X26543000Y-17915000D01*
X22725000Y-17915000D01*
X22725000Y-17206925D01*
X22745759Y-17193055D01*
X23100072Y-16662788D01*
X23224490Y-16037296D01*
X23224490Y-14442704D01*
X23100072Y-13817212D01*
X22745759Y-13286945D01*
X22215492Y-12932632D01*
X21590000Y-12808214D01*
X20964508Y-12932632D01*
X20434241Y-13286945D01*
X20079928Y-13817212D01*
X19955510Y-14442704D01*
X19955510Y-16037296D01*
X20079928Y-16662788D01*
X20434241Y-17193055D01*
X20455000Y-17206925D01*
X20455000Y-19050000D01*
X20541397Y-19484346D01*
X20787434Y-19852566D01*
X21155654Y-20098603D01*
X21590000Y-20185000D01*
X25535000Y-20185000D01*
X25535000Y-25829085D01*
X25486371Y-25877630D01*
X25273243Y-26390900D01*
X25272758Y-26946661D01*
X25484990Y-27460303D01*
X25877630Y-27853629D01*
X26390900Y-28066757D01*
X26946661Y-28067242D01*
X27460303Y-27855010D01*
X27510400Y-27805000D01*
X38980873Y-27805000D01*
X42045000Y-29993663D01*
X42045000Y-43748531D01*
X38332797Y-45604632D01*
X37825602Y-45604190D01*
X37316163Y-45814686D01*
X36926056Y-46204113D01*
X36714671Y-46713184D01*
X36714190Y-47264398D01*
X36924686Y-47773837D01*
X37314113Y-48163944D01*
X37529496Y-48253378D01*
X37375735Y-48317069D01*
X37307675Y-48558070D01*
X38100000Y-49350395D01*
X38892325Y-48558070D01*
X38824265Y-48317069D01*
X38658959Y-48258231D01*
X38883837Y-48165314D01*
X39273944Y-47775887D01*
X39328386Y-47644775D01*
X39558977Y-47529479D01*
X39733295Y-47645954D01*
X40005000Y-47700000D01*
X40276705Y-47645954D01*
X40507046Y-47492046D01*
X40660954Y-47261705D01*
X40676253Y-47184788D01*
X40911705Y-47137954D01*
X41142046Y-46984046D01*
X41295954Y-46753705D01*
X41316432Y-46650752D01*
X43687588Y-45465175D01*
X43831307Y-45353633D01*
X43982566Y-45252566D01*
X44005222Y-45218657D01*
X44037441Y-45193653D01*
X44127535Y-45035604D01*
X44228603Y-44884346D01*
X44236558Y-44844348D01*
X44256756Y-44808918D01*
X44279510Y-44628418D01*
X44315000Y-44450000D01*
X44315000Y-56044868D01*
X43982566Y-55712434D01*
X43614346Y-55466397D01*
X43180000Y-55380000D01*
X39497767Y-55380000D01*
X39497767Y-49734966D01*
X39469805Y-49184462D01*
X39312931Y-48805735D01*
X39071930Y-48737675D01*
X38279605Y-49530000D01*
X39071930Y-50322325D01*
X39312931Y-50254265D01*
X39497767Y-49734966D01*
X39497767Y-55380000D01*
X38892325Y-55380000D01*
X38892325Y-50501930D01*
X38100000Y-49709605D01*
X37920395Y-49889210D01*
X37920395Y-49530000D01*
X37128070Y-48737675D01*
X36887069Y-48805735D01*
X36702233Y-49325034D01*
X36730195Y-49875538D01*
X36887069Y-50254265D01*
X37128070Y-50322325D01*
X37920395Y-49530000D01*
X37920395Y-49889210D01*
X37307675Y-50501930D01*
X37375735Y-50742931D01*
X37895034Y-50927767D01*
X38445538Y-50899805D01*
X38824265Y-50742931D01*
X38892325Y-50501930D01*
X38892325Y-55380000D01*
X37300132Y-55380000D01*
X32885000Y-50964868D01*
X32885000Y-48095132D01*
X40807566Y-40172566D01*
X41053603Y-39804346D01*
X41053603Y-39804345D01*
X41140000Y-39370000D01*
X41140000Y-32385000D01*
X41053603Y-31950655D01*
X41053603Y-31950654D01*
X40807566Y-31582434D01*
X37886566Y-28661434D01*
X37518346Y-28415397D01*
X37084000Y-28329000D01*
X22217000Y-28329000D01*
X22217000Y-22860000D01*
X22130603Y-22425654D01*
X21884566Y-22057434D01*
X21516346Y-21811397D01*
X21082000Y-21725000D01*
X20955000Y-21725000D01*
X16105240Y-21725000D01*
X16105240Y-13547211D01*
X15780910Y-12762273D01*
X15180886Y-12161200D01*
X14396515Y-11835501D01*
X13547211Y-11834760D01*
X12762273Y-12159090D01*
X12161200Y-12759114D01*
X11835501Y-13543485D01*
X11834760Y-14392789D01*
X12159090Y-15177727D01*
X12759114Y-15778800D01*
X13543485Y-16104499D01*
X14392789Y-16105240D01*
X15177727Y-15780910D01*
X15778800Y-15180886D01*
X16104499Y-14396515D01*
X16105240Y-13547211D01*
X16105240Y-21725000D01*
X14990362Y-21725000D01*
X14834404Y-21568769D01*
X14274472Y-21336265D01*
X13668188Y-21335736D01*
X13107851Y-21567262D01*
X12678769Y-21995596D01*
X12446265Y-22555528D01*
X12445736Y-23161812D01*
X12677262Y-23722149D01*
X12867073Y-23912292D01*
X12721302Y-23972673D01*
X12542673Y-24151301D01*
X12446000Y-24384690D01*
X12446000Y-24637309D01*
X12446000Y-25114250D01*
X12604750Y-25273000D01*
X13843000Y-25273000D01*
X13843000Y-25253000D01*
X14097000Y-25253000D01*
X14097000Y-25273000D01*
X15335250Y-25273000D01*
X15494000Y-25114250D01*
X15494000Y-24637309D01*
X15494000Y-24384690D01*
X15397327Y-24151301D01*
X15241025Y-23995000D01*
X19820000Y-23995000D01*
X19820000Y-29337000D01*
X19906397Y-29771346D01*
X20152434Y-30139566D01*
X20279434Y-30266566D01*
X20647654Y-30512603D01*
X20647655Y-30512603D01*
X21082000Y-30599000D01*
X25845627Y-30599000D01*
X25486371Y-30957630D01*
X25273243Y-31470900D01*
X25272758Y-32026661D01*
X25484990Y-32540303D01*
X25877630Y-32933629D01*
X26390900Y-33146757D01*
X26946661Y-33147242D01*
X27460303Y-32935010D01*
X27853629Y-32542370D01*
X28066757Y-32029100D01*
X28067242Y-31473339D01*
X27855010Y-30959697D01*
X27494942Y-30599000D01*
X36613868Y-30599000D01*
X38870000Y-32855132D01*
X38870000Y-38899868D01*
X37444680Y-40325188D01*
X37444680Y-37202938D01*
X37444680Y-35598542D01*
X37301217Y-34877306D01*
X36892670Y-34265872D01*
X36281236Y-33857325D01*
X35560000Y-33713862D01*
X34838764Y-33857325D01*
X34227330Y-34265872D01*
X33818783Y-34877306D01*
X33675320Y-35598542D01*
X33675320Y-37202938D01*
X33818783Y-37924174D01*
X34227330Y-38535608D01*
X34838764Y-38944155D01*
X35560000Y-39087618D01*
X36281236Y-38944155D01*
X36892670Y-38535608D01*
X37301217Y-37924174D01*
X37444680Y-37202938D01*
X37444680Y-40325188D01*
X30947434Y-46822434D01*
X30701397Y-47190654D01*
X30615000Y-47625000D01*
X30615000Y-51435000D01*
X30701397Y-51869346D01*
X30947434Y-52237566D01*
X36027434Y-57317566D01*
X36395654Y-57563603D01*
X36395655Y-57563603D01*
X36830000Y-57650000D01*
X42709868Y-57650000D01*
X45855000Y-60795132D01*
X45855000Y-63500000D01*
X45941397Y-63934346D01*
X46187434Y-64302566D01*
X52205000Y-70320132D01*
X52205000Y-74930000D01*
X52205000Y-78043074D01*
X52184241Y-78056945D01*
X51829928Y-78587212D01*
X51705510Y-79212704D01*
X51705510Y-80807296D01*
X51829928Y-81432788D01*
X52184241Y-81963055D01*
X52714508Y-82317368D01*
X53340000Y-82441786D01*
X53965492Y-82317368D01*
X54495759Y-81963055D01*
X54850072Y-81432788D01*
X54974490Y-80807296D01*
X54974490Y-84405000D01*
X49894490Y-84405000D01*
X49894490Y-80887570D01*
X49894490Y-80137000D01*
X49894490Y-79883000D01*
X49894490Y-79132430D01*
X49721471Y-78516605D01*
X49325956Y-78013868D01*
X48768159Y-77700757D01*
X48640354Y-77669811D01*
X48387000Y-77789165D01*
X48387000Y-79883000D01*
X49894490Y-79883000D01*
X49894490Y-80137000D01*
X48387000Y-80137000D01*
X48387000Y-82230835D01*
X48640354Y-82350189D01*
X48768159Y-82319243D01*
X49325956Y-82006132D01*
X49721471Y-81503395D01*
X49894490Y-80887570D01*
X49894490Y-84405000D01*
X48133000Y-84405000D01*
X48133000Y-82230835D01*
X48133000Y-80137000D01*
X48133000Y-79883000D01*
X48133000Y-77789165D01*
X47879646Y-77669811D01*
X47751841Y-77700757D01*
X47194044Y-78013868D01*
X46798529Y-78516605D01*
X46625510Y-79132430D01*
X46625510Y-79883000D01*
X48133000Y-79883000D01*
X48133000Y-80137000D01*
X46625510Y-80137000D01*
X46625510Y-80887570D01*
X46798529Y-81503395D01*
X47194044Y-82006132D01*
X47751841Y-82319243D01*
X47879646Y-82350189D01*
X48133000Y-82230835D01*
X48133000Y-84405000D01*
X44814490Y-84405000D01*
X44814490Y-80807296D01*
X44814490Y-79212704D01*
X44690072Y-78587212D01*
X44335759Y-78056945D01*
X44315000Y-78043074D01*
X44315000Y-74930000D01*
X44315000Y-72390000D01*
X44228603Y-71955654D01*
X43982566Y-71587434D01*
X43982566Y-71587433D01*
X41442566Y-69047434D01*
X41350000Y-68985583D01*
X41350000Y-62992000D01*
X41295954Y-62720295D01*
X41142046Y-62489954D01*
X40911705Y-62336046D01*
X40702556Y-62294443D01*
X40660954Y-62085295D01*
X40507046Y-61854954D01*
X40276705Y-61701046D01*
X40005000Y-61647000D01*
X39733295Y-61701046D01*
X39502954Y-61854954D01*
X39349046Y-62085295D01*
X39307443Y-62294443D01*
X39098295Y-62336046D01*
X38976858Y-62417186D01*
X38885887Y-62326056D01*
X38376816Y-62114671D01*
X37825602Y-62114190D01*
X37316163Y-62324686D01*
X36926056Y-62714113D01*
X36714671Y-63223184D01*
X36714190Y-63774398D01*
X36924686Y-64283837D01*
X37314113Y-64673944D01*
X37529496Y-64763378D01*
X37375735Y-64827069D01*
X37307675Y-65068070D01*
X38100000Y-65860395D01*
X38892325Y-65068070D01*
X38824265Y-64827069D01*
X38658959Y-64768231D01*
X38883837Y-64675314D01*
X39273944Y-64285887D01*
X39434404Y-63899454D01*
X39502954Y-64002046D01*
X39733295Y-64155954D01*
X40005000Y-64210000D01*
X40276705Y-64155954D01*
X40507046Y-64002046D01*
X40660954Y-63771705D01*
X40676253Y-63694788D01*
X40911705Y-63647954D01*
X41142046Y-63494046D01*
X41295954Y-63263705D01*
X41350000Y-62992000D01*
X41350000Y-68985583D01*
X41074346Y-68801397D01*
X40640000Y-68715000D01*
X39497767Y-68715000D01*
X39497767Y-66244966D01*
X39469805Y-65694462D01*
X39312931Y-65315735D01*
X39071930Y-65247675D01*
X38279605Y-66040000D01*
X39071930Y-66832325D01*
X39312931Y-66764265D01*
X39497767Y-66244966D01*
X39497767Y-68715000D01*
X38892325Y-68715000D01*
X38892325Y-67011930D01*
X38100000Y-66219605D01*
X37920395Y-66399210D01*
X37920395Y-66040000D01*
X37128070Y-65247675D01*
X36887069Y-65315735D01*
X36702233Y-65835034D01*
X36730195Y-66385538D01*
X36887069Y-66764265D01*
X37128070Y-66832325D01*
X37920395Y-66040000D01*
X37920395Y-66399210D01*
X37307675Y-67011930D01*
X37375735Y-67252931D01*
X37895034Y-67437767D01*
X38445538Y-67409805D01*
X38824265Y-67252931D01*
X38892325Y-67011930D01*
X38892325Y-68715000D01*
X36030132Y-68715000D01*
X31282566Y-63967434D01*
X30914346Y-63721397D01*
X30480000Y-63635000D01*
X28315401Y-63635000D01*
X28315401Y-62374418D01*
X28304774Y-62087411D01*
X28304774Y-46786306D01*
X28079144Y-46240239D01*
X28079144Y-42117698D01*
X28067242Y-41879903D01*
X28067242Y-36553339D01*
X27855010Y-36039697D01*
X27462370Y-35646371D01*
X26949100Y-35433243D01*
X26393339Y-35432758D01*
X25879697Y-35644990D01*
X25486371Y-36037630D01*
X25273243Y-36550900D01*
X25272758Y-37106661D01*
X25484990Y-37620303D01*
X25877630Y-38013629D01*
X26390900Y-38226757D01*
X26946661Y-38227242D01*
X27460303Y-38015010D01*
X27853629Y-37622370D01*
X28066757Y-37109100D01*
X28067242Y-36553339D01*
X28067242Y-41879903D01*
X28051362Y-41562632D01*
X27892397Y-41178857D01*
X27650213Y-41109392D01*
X27470608Y-41288997D01*
X27470608Y-40929787D01*
X27401143Y-40687603D01*
X26877698Y-40500856D01*
X26322632Y-40528638D01*
X25938857Y-40687603D01*
X25869392Y-40929787D01*
X26670000Y-41730395D01*
X27470608Y-40929787D01*
X27470608Y-41288997D01*
X26849605Y-41910000D01*
X27650213Y-42710608D01*
X27892397Y-42641143D01*
X28079144Y-42117698D01*
X28079144Y-46240239D01*
X28056462Y-46185345D01*
X27597073Y-45725154D01*
X27470608Y-45672641D01*
X27470608Y-42890213D01*
X26670000Y-42089605D01*
X26490395Y-42269210D01*
X26490395Y-41910000D01*
X25689787Y-41109392D01*
X25447603Y-41178857D01*
X25260856Y-41702302D01*
X25288638Y-42257368D01*
X25447603Y-42641143D01*
X25689787Y-42710608D01*
X26490395Y-41910000D01*
X26490395Y-42269210D01*
X25869392Y-42890213D01*
X25938857Y-43132397D01*
X26462302Y-43319144D01*
X27017368Y-43291362D01*
X27401143Y-43132397D01*
X27470608Y-42890213D01*
X27470608Y-45672641D01*
X26996547Y-45475794D01*
X26346306Y-45475226D01*
X25745345Y-45723538D01*
X25285154Y-46182927D01*
X25035794Y-46783453D01*
X25035226Y-47433694D01*
X25283538Y-48034655D01*
X25742927Y-48494846D01*
X26343453Y-48744206D01*
X26993694Y-48744774D01*
X27594655Y-48496462D01*
X28054846Y-48037073D01*
X28304206Y-47436547D01*
X28304774Y-46786306D01*
X28304774Y-62087411D01*
X28291341Y-61724623D01*
X28088965Y-61236042D01*
X27822163Y-61137443D01*
X27642557Y-61317048D01*
X27642557Y-60957837D01*
X27543958Y-60691035D01*
X26934418Y-60464599D01*
X26284623Y-60488659D01*
X25796042Y-60691035D01*
X25697443Y-60957837D01*
X26670000Y-61930395D01*
X27642557Y-60957837D01*
X27642557Y-61317048D01*
X26849605Y-62110000D01*
X27822163Y-63082557D01*
X28088965Y-62983958D01*
X28315401Y-62374418D01*
X28315401Y-63635000D01*
X27287965Y-63635000D01*
X27543958Y-63528965D01*
X27642557Y-63262163D01*
X26670000Y-62289605D01*
X26490395Y-62469210D01*
X26490395Y-62110000D01*
X25517837Y-61137443D01*
X25251035Y-61236042D01*
X25024599Y-61845582D01*
X25048659Y-62495377D01*
X25251035Y-62983958D01*
X25517837Y-63082557D01*
X26490395Y-62110000D01*
X26490395Y-62469210D01*
X25697443Y-63262163D01*
X25796042Y-63528965D01*
X26081476Y-63635000D01*
X24630000Y-63635000D01*
X24630000Y-53975000D01*
X24630000Y-35560000D01*
X24543603Y-35125654D01*
X24297566Y-34757434D01*
X23929346Y-34511397D01*
X23495000Y-34425000D01*
X21160914Y-34425000D01*
X21112370Y-34376371D01*
X20599100Y-34163243D01*
X20528313Y-34163181D01*
X15215343Y-28850211D01*
X15261231Y-28804404D01*
X15493735Y-28244472D01*
X15494264Y-27638188D01*
X15262738Y-27077851D01*
X15072926Y-26887707D01*
X15218698Y-26827327D01*
X15397327Y-26648699D01*
X15494000Y-26415310D01*
X15494000Y-26162691D01*
X15494000Y-25685750D01*
X15335250Y-25527000D01*
X14097000Y-25527000D01*
X14097000Y-25547000D01*
X13843000Y-25547000D01*
X13843000Y-25527000D01*
X12604750Y-25527000D01*
X12446000Y-25685750D01*
X12446000Y-26162691D01*
X12446000Y-26415310D01*
X12542673Y-26648699D01*
X12721302Y-26827327D01*
X12867011Y-26887681D01*
X12678769Y-27075596D01*
X12446265Y-27635528D01*
X12445736Y-28241812D01*
X12677262Y-28802149D01*
X12835000Y-28960162D01*
X12835000Y-29210000D01*
X12921397Y-29644346D01*
X13167434Y-30012566D01*
X18922817Y-35767949D01*
X18922758Y-35836661D01*
X19134990Y-36350303D01*
X19527630Y-36743629D01*
X20040900Y-36956757D01*
X20596661Y-36957242D01*
X21110303Y-36745010D01*
X21160400Y-36695000D01*
X22360000Y-36695000D01*
X22360000Y-53504868D01*
X21499438Y-54365429D01*
X21266306Y-54365226D01*
X20665345Y-54613538D01*
X20205154Y-55072927D01*
X19955794Y-55673453D01*
X19955226Y-56323694D01*
X20203538Y-56924655D01*
X20662927Y-57384846D01*
X21263453Y-57634206D01*
X21913694Y-57634774D01*
X22514655Y-57386462D01*
X22974846Y-56927073D01*
X23224206Y-56326547D01*
X23224621Y-55850510D01*
X24297566Y-54777566D01*
X24543603Y-54409346D01*
X24543603Y-54409345D01*
X24630000Y-53975000D01*
X24630000Y-63635000D01*
X17645000Y-63635000D01*
X17645000Y-57620132D01*
X21757566Y-53507566D01*
X22003603Y-53139346D01*
X22003603Y-53139345D01*
X22090000Y-52705000D01*
X22090000Y-46990000D01*
X22003603Y-46555654D01*
X21757566Y-46187434D01*
X21717242Y-46160490D01*
X21717242Y-40363339D01*
X21505010Y-39849697D01*
X21112370Y-39456371D01*
X20599100Y-39243243D01*
X20043339Y-39242758D01*
X19529697Y-39454990D01*
X19136371Y-39847630D01*
X18923243Y-40360900D01*
X18922758Y-40916661D01*
X19134990Y-41430303D01*
X19527630Y-41823629D01*
X20040900Y-42036757D01*
X20596661Y-42037242D01*
X21110303Y-41825010D01*
X21503629Y-41432370D01*
X21716757Y-40919100D01*
X21717242Y-40363339D01*
X21717242Y-46160490D01*
X21389346Y-45941397D01*
X20955000Y-45855000D01*
X16649144Y-45855000D01*
X16649144Y-40847698D01*
X16637242Y-40609903D01*
X16637242Y-35283339D01*
X16425010Y-34769697D01*
X16032370Y-34376371D01*
X15519100Y-34163243D01*
X14963339Y-34162758D01*
X14449697Y-34374990D01*
X14056371Y-34767630D01*
X13843243Y-35280900D01*
X13842758Y-35836661D01*
X14054990Y-36350303D01*
X14447630Y-36743629D01*
X14960900Y-36956757D01*
X15516661Y-36957242D01*
X16030303Y-36745010D01*
X16423629Y-36352370D01*
X16636757Y-35839100D01*
X16637242Y-35283339D01*
X16637242Y-40609903D01*
X16621362Y-40292632D01*
X16462397Y-39908857D01*
X16220213Y-39839392D01*
X16040608Y-40018997D01*
X16040608Y-39659787D01*
X15971143Y-39417603D01*
X15447698Y-39230856D01*
X14892632Y-39258638D01*
X14508857Y-39417603D01*
X14439392Y-39659787D01*
X15240000Y-40460395D01*
X16040608Y-39659787D01*
X16040608Y-40018997D01*
X15419605Y-40640000D01*
X16220213Y-41440608D01*
X16462397Y-41371143D01*
X16649144Y-40847698D01*
X16649144Y-45855000D01*
X16040608Y-45855000D01*
X16040608Y-41620213D01*
X15240000Y-40819605D01*
X15060395Y-40999210D01*
X15060395Y-40640000D01*
X14259787Y-39839392D01*
X14017603Y-39908857D01*
X13830856Y-40432302D01*
X13858638Y-40987368D01*
X14017603Y-41371143D01*
X14259787Y-41440608D01*
X15060395Y-40640000D01*
X15060395Y-40999210D01*
X14439392Y-41620213D01*
X14508857Y-41862397D01*
X15032302Y-42049144D01*
X15587368Y-42021362D01*
X15971143Y-41862397D01*
X16040608Y-41620213D01*
X16040608Y-45855000D01*
X14990362Y-45855000D01*
X14834404Y-45698769D01*
X14274472Y-45466265D01*
X13668188Y-45465736D01*
X13107851Y-45697262D01*
X12678769Y-46125596D01*
X12446265Y-46685528D01*
X12445736Y-47291812D01*
X12677262Y-47852149D01*
X12867073Y-48042292D01*
X12721302Y-48102673D01*
X12542673Y-48281301D01*
X12446000Y-48514690D01*
X12446000Y-48767309D01*
X12446000Y-49244250D01*
X12604750Y-49403000D01*
X13843000Y-49403000D01*
X13843000Y-49383000D01*
X14097000Y-49383000D01*
X14097000Y-49403000D01*
X15335250Y-49403000D01*
X15494000Y-49244250D01*
X15494000Y-48767309D01*
X15494000Y-48514690D01*
X15397327Y-48281301D01*
X15241025Y-48125000D01*
X19820000Y-48125000D01*
X19820000Y-52234868D01*
X15707434Y-56347434D01*
X15494264Y-56666465D01*
X15494264Y-51768188D01*
X15262738Y-51207851D01*
X15072926Y-51017707D01*
X15218698Y-50957327D01*
X15397327Y-50778699D01*
X15494000Y-50545310D01*
X15494000Y-50292691D01*
X15494000Y-49815750D01*
X15335250Y-49657000D01*
X14097000Y-49657000D01*
X14097000Y-49677000D01*
X13843000Y-49677000D01*
X13843000Y-49657000D01*
X12604750Y-49657000D01*
X12446000Y-49815750D01*
X12446000Y-50292691D01*
X12446000Y-50545310D01*
X12542673Y-50778699D01*
X12721302Y-50957327D01*
X12867011Y-51017681D01*
X12678769Y-51205596D01*
X12446265Y-51765528D01*
X12445736Y-52371812D01*
X12677262Y-52932149D01*
X13105596Y-53361231D01*
X13665528Y-53593735D01*
X14271812Y-53594264D01*
X14832149Y-53362738D01*
X15261231Y-52934404D01*
X15493735Y-52374472D01*
X15494264Y-51768188D01*
X15494264Y-56666465D01*
X15461397Y-56715654D01*
X15375000Y-57150000D01*
X15375000Y-64770000D01*
X15461397Y-65204346D01*
X15707434Y-65572566D01*
X16075654Y-65818603D01*
X16510000Y-65905000D01*
X30009868Y-65905000D01*
X34757434Y-70652566D01*
X35125654Y-70898603D01*
X35125655Y-70898603D01*
X35560000Y-70985000D01*
X40169867Y-70985000D01*
X42045000Y-72860132D01*
X42045000Y-74930000D01*
X42045000Y-78043074D01*
X42024241Y-78056945D01*
X41669928Y-78587212D01*
X41545510Y-79212704D01*
X41545510Y-80807296D01*
X41669928Y-81432788D01*
X42024241Y-81963055D01*
X42554508Y-82317368D01*
X43180000Y-82441786D01*
X43805492Y-82317368D01*
X44335759Y-81963055D01*
X44690072Y-81432788D01*
X44814490Y-80807296D01*
X44814490Y-84405000D01*
X39734490Y-84405000D01*
X39734490Y-80887570D01*
X39734490Y-80137000D01*
X39734490Y-79883000D01*
X39734490Y-79132430D01*
X39561471Y-78516605D01*
X39165956Y-78013868D01*
X38608159Y-77700757D01*
X38480354Y-77669811D01*
X38227000Y-77789165D01*
X38227000Y-79883000D01*
X39734490Y-79883000D01*
X39734490Y-80137000D01*
X38227000Y-80137000D01*
X38227000Y-82230835D01*
X38480354Y-82350189D01*
X38608159Y-82319243D01*
X39165956Y-82006132D01*
X39561471Y-81503395D01*
X39734490Y-80887570D01*
X39734490Y-84405000D01*
X37973000Y-84405000D01*
X37973000Y-82230835D01*
X37973000Y-80137000D01*
X37973000Y-79883000D01*
X37973000Y-77789165D01*
X37719646Y-77669811D01*
X37591841Y-77700757D01*
X37034044Y-78013868D01*
X36638529Y-78516605D01*
X36465510Y-79132430D01*
X36465510Y-79883000D01*
X37973000Y-79883000D01*
X37973000Y-80137000D01*
X36465510Y-80137000D01*
X36465510Y-80887570D01*
X36638529Y-81503395D01*
X37034044Y-82006132D01*
X37591841Y-82319243D01*
X37719646Y-82350189D01*
X37973000Y-82230835D01*
X37973000Y-84405000D01*
X34654490Y-84405000D01*
X34654490Y-80807296D01*
X34654490Y-79212704D01*
X34530072Y-78587212D01*
X34175759Y-78056945D01*
X34155000Y-78043074D01*
X34155000Y-74930000D01*
X34155000Y-71755000D01*
X34068603Y-71320655D01*
X34068603Y-71320654D01*
X33822566Y-70952434D01*
X29377566Y-66507434D01*
X29009346Y-66261397D01*
X28575000Y-66175000D01*
X15240000Y-66175000D01*
X14805654Y-66261397D01*
X14437434Y-66507434D01*
X13888939Y-67055928D01*
X13668188Y-67055736D01*
X13107851Y-67287262D01*
X12678769Y-67715596D01*
X12446265Y-68275528D01*
X12445736Y-68881812D01*
X12677262Y-69442149D01*
X12867073Y-69632292D01*
X12721302Y-69692673D01*
X12542673Y-69871301D01*
X12446000Y-70104690D01*
X12446000Y-70357309D01*
X12446000Y-70834250D01*
X12604750Y-70993000D01*
X13843000Y-70993000D01*
X13843000Y-70973000D01*
X14097000Y-70973000D01*
X14097000Y-70993000D01*
X15335250Y-70993000D01*
X15494000Y-70834250D01*
X15494000Y-70357309D01*
X15494000Y-70104690D01*
X15397327Y-69871301D01*
X15218698Y-69692673D01*
X15072988Y-69632318D01*
X15261231Y-69444404D01*
X15493735Y-68884472D01*
X15493929Y-68661202D01*
X15710132Y-68445000D01*
X28104868Y-68445000D01*
X31885000Y-72225132D01*
X31885000Y-74930000D01*
X31885000Y-78043074D01*
X31864241Y-78056945D01*
X31509928Y-78587212D01*
X31385510Y-79212704D01*
X31385510Y-80807296D01*
X31509928Y-81432788D01*
X31864241Y-81963055D01*
X32394508Y-82317368D01*
X33020000Y-82441786D01*
X33645492Y-82317368D01*
X34175759Y-81963055D01*
X34530072Y-81432788D01*
X34654490Y-80807296D01*
X34654490Y-84405000D01*
X29574490Y-84405000D01*
X29574490Y-80887570D01*
X29574490Y-80137000D01*
X29574490Y-79883000D01*
X29574490Y-79132430D01*
X29401471Y-78516605D01*
X29005956Y-78013868D01*
X28448159Y-77700757D01*
X28320354Y-77669811D01*
X28067000Y-77789165D01*
X28067000Y-79883000D01*
X29574490Y-79883000D01*
X29574490Y-80137000D01*
X28067000Y-80137000D01*
X28067000Y-82230835D01*
X28320354Y-82350189D01*
X28448159Y-82319243D01*
X29005956Y-82006132D01*
X29401471Y-81503395D01*
X29574490Y-80887570D01*
X29574490Y-84405000D01*
X27813000Y-84405000D01*
X27813000Y-82230835D01*
X27813000Y-80137000D01*
X27813000Y-79883000D01*
X27813000Y-77789165D01*
X27559646Y-77669811D01*
X27431841Y-77700757D01*
X26874044Y-78013868D01*
X26478529Y-78516605D01*
X26305510Y-79132430D01*
X26305510Y-79883000D01*
X27813000Y-79883000D01*
X27813000Y-80137000D01*
X26305510Y-80137000D01*
X26305510Y-80887570D01*
X26478529Y-81503395D01*
X26874044Y-82006132D01*
X27431841Y-82319243D01*
X27559646Y-82350189D01*
X27813000Y-82230835D01*
X27813000Y-84405000D01*
X23235401Y-84405000D01*
X23235401Y-71264418D01*
X23211341Y-70614623D01*
X23008965Y-70126042D01*
X22742163Y-70027443D01*
X22562557Y-70207048D01*
X22562557Y-69847837D01*
X22463958Y-69581035D01*
X21854418Y-69354599D01*
X21204623Y-69378659D01*
X20716042Y-69581035D01*
X20617443Y-69847837D01*
X21590000Y-70820395D01*
X22562557Y-69847837D01*
X22562557Y-70207048D01*
X21769605Y-71000000D01*
X22742163Y-71972557D01*
X23008965Y-71873958D01*
X23235401Y-71264418D01*
X23235401Y-84405000D01*
X22562557Y-84405000D01*
X22562557Y-72152163D01*
X21590000Y-71179605D01*
X21410395Y-71359210D01*
X21410395Y-71000000D01*
X20437837Y-70027443D01*
X20171035Y-70126042D01*
X19944599Y-70735582D01*
X19968659Y-71385377D01*
X20171035Y-71873958D01*
X20437837Y-71972557D01*
X21410395Y-71000000D01*
X21410395Y-71359210D01*
X20617443Y-72152163D01*
X20716042Y-72418965D01*
X21325582Y-72645401D01*
X21975377Y-72621341D01*
X22463958Y-72418965D01*
X22562557Y-72152163D01*
X22562557Y-84405000D01*
X16105240Y-84405000D01*
X16105240Y-80857211D01*
X15780910Y-80072273D01*
X15494264Y-79785125D01*
X15494264Y-73358188D01*
X15262738Y-72797851D01*
X15072926Y-72607707D01*
X15218698Y-72547327D01*
X15397327Y-72368699D01*
X15494000Y-72135310D01*
X15494000Y-71882691D01*
X15494000Y-71405750D01*
X15335250Y-71247000D01*
X14097000Y-71247000D01*
X14097000Y-71267000D01*
X13843000Y-71267000D01*
X13843000Y-71247000D01*
X12604750Y-71247000D01*
X12446000Y-71405750D01*
X12446000Y-71882691D01*
X12446000Y-72135310D01*
X12542673Y-72368699D01*
X12721302Y-72547327D01*
X12867011Y-72607681D01*
X12678769Y-72795596D01*
X12446265Y-73355528D01*
X12445736Y-73961812D01*
X12677262Y-74522149D01*
X13105596Y-74951231D01*
X13665528Y-75183735D01*
X14271812Y-75184264D01*
X14832149Y-74952738D01*
X15261231Y-74524404D01*
X15493735Y-73964472D01*
X15494264Y-73358188D01*
X15494264Y-79785125D01*
X15180886Y-79471200D01*
X14396515Y-79145501D01*
X13547211Y-79144760D01*
X12762273Y-79469090D01*
X12161200Y-80069114D01*
X11835501Y-80853485D01*
X11834760Y-81702789D01*
X12159090Y-82487727D01*
X12759114Y-83088800D01*
X13543485Y-83414499D01*
X14392789Y-83415240D01*
X15177727Y-83090910D01*
X15778800Y-82490886D01*
X16104499Y-81706515D01*
X16105240Y-80857211D01*
X16105240Y-84405000D01*
X10845000Y-84405000D01*
X10845000Y-10845000D01*
X64085000Y-10845000D01*
X64085000Y-84405000D01*
X64085000Y-84405000D01*
G37*
X64085000Y-84405000D02*
X63095240Y-84405000D01*
X63095240Y-80857211D01*
X63095240Y-13547211D01*
X62770910Y-12762273D01*
X62170886Y-12161200D01*
X61386515Y-11835501D01*
X60537211Y-11834760D01*
X59752273Y-12159090D01*
X59151200Y-12759114D01*
X58825501Y-13543485D01*
X58824760Y-14392789D01*
X59149090Y-15177727D01*
X59749114Y-15778800D01*
X60533485Y-16104499D01*
X61382789Y-16105240D01*
X62167727Y-15780910D01*
X62768800Y-15180886D01*
X63094499Y-14396515D01*
X63095240Y-13547211D01*
X63095240Y-80857211D01*
X62770910Y-80072273D01*
X62170886Y-79471200D01*
X62121786Y-79450811D01*
X62121786Y-36830000D01*
X62121786Y-31750000D01*
X62121786Y-26670000D01*
X62121786Y-21590000D01*
X61997368Y-20964508D01*
X61643055Y-20434241D01*
X61112788Y-20079928D01*
X60487296Y-19955510D01*
X58892704Y-19955510D01*
X58267212Y-20079928D01*
X57736945Y-20434241D01*
X57382632Y-20964508D01*
X57258214Y-21590000D01*
X57382632Y-22215492D01*
X57736945Y-22745759D01*
X58267212Y-23100072D01*
X58892704Y-23224490D01*
X60487296Y-23224490D01*
X61112788Y-23100072D01*
X61643055Y-22745759D01*
X61997368Y-22215492D01*
X62121786Y-21590000D01*
X62121786Y-26670000D01*
X61997368Y-26044508D01*
X61643055Y-25514241D01*
X61112788Y-25159928D01*
X60487296Y-25035510D01*
X58892704Y-25035510D01*
X58267212Y-25159928D01*
X57736945Y-25514241D01*
X57382632Y-26044508D01*
X57258214Y-26670000D01*
X57382632Y-27295492D01*
X57736945Y-27825759D01*
X58267212Y-28180072D01*
X58892704Y-28304490D01*
X60487296Y-28304490D01*
X61112788Y-28180072D01*
X61643055Y-27825759D01*
X61997368Y-27295492D01*
X62121786Y-26670000D01*
X62121786Y-31750000D01*
X61997368Y-31124508D01*
X61643055Y-30594241D01*
X61112788Y-30239928D01*
X60487296Y-30115510D01*
X58892704Y-30115510D01*
X58267212Y-30239928D01*
X57736945Y-30594241D01*
X57382632Y-31124508D01*
X57258214Y-31750000D01*
X57382632Y-32375492D01*
X57736945Y-32905759D01*
X58267212Y-33260072D01*
X58892704Y-33384490D01*
X60487296Y-33384490D01*
X61112788Y-33260072D01*
X61643055Y-32905759D01*
X61997368Y-32375492D01*
X62121786Y-31750000D01*
X62121786Y-36830000D01*
X61997368Y-36204508D01*
X61643055Y-35674241D01*
X61112788Y-35319928D01*
X60487296Y-35195510D01*
X58892704Y-35195510D01*
X58267212Y-35319928D01*
X57736945Y-35674241D01*
X57382632Y-36204508D01*
X57258214Y-36830000D01*
X57382632Y-37455492D01*
X57736945Y-37985759D01*
X58267212Y-38340072D01*
X58892704Y-38464490D01*
X60487296Y-38464490D01*
X61112788Y-38340072D01*
X61643055Y-37985759D01*
X61997368Y-37455492D01*
X62121786Y-36830000D01*
X62121786Y-79450811D01*
X61386515Y-79145501D01*
X60537211Y-79144760D01*
X59752273Y-79469090D01*
X59151200Y-80069114D01*
X59130000Y-80120169D01*
X59130000Y-62992000D01*
X59130000Y-46482000D01*
X59075954Y-46210295D01*
X58922046Y-45979954D01*
X58691705Y-45826046D01*
X58482556Y-45784443D01*
X58440954Y-45575295D01*
X58287046Y-45344954D01*
X58056705Y-45191046D01*
X57785000Y-45137000D01*
X57513295Y-45191046D01*
X57282954Y-45344954D01*
X57129046Y-45575295D01*
X57087443Y-45784443D01*
X56878295Y-45826046D01*
X56756858Y-45907186D01*
X56665887Y-45816056D01*
X56156816Y-45604671D01*
X55605602Y-45604190D01*
X55096163Y-45814686D01*
X54706056Y-46204113D01*
X54494671Y-46713184D01*
X54494190Y-47264398D01*
X54704686Y-47773837D01*
X55094113Y-48163944D01*
X55309496Y-48253378D01*
X55155735Y-48317069D01*
X55087675Y-48558070D01*
X55880000Y-49350395D01*
X56672325Y-48558070D01*
X56604265Y-48317069D01*
X56438959Y-48258231D01*
X56663837Y-48165314D01*
X57053944Y-47775887D01*
X57214404Y-47389454D01*
X57282954Y-47492046D01*
X57513295Y-47645954D01*
X57785000Y-47700000D01*
X58056705Y-47645954D01*
X58287046Y-47492046D01*
X58440954Y-47261705D01*
X58456253Y-47184788D01*
X58691705Y-47137954D01*
X58922046Y-46984046D01*
X59075954Y-46753705D01*
X59130000Y-46482000D01*
X59130000Y-62992000D01*
X59075954Y-62720295D01*
X58922046Y-62489954D01*
X58691705Y-62336046D01*
X58482556Y-62294443D01*
X58440954Y-62085295D01*
X58287046Y-61854954D01*
X58056705Y-61701046D01*
X57785000Y-61647000D01*
X57513295Y-61701046D01*
X57282954Y-61854954D01*
X57277767Y-61862716D01*
X57277767Y-49734966D01*
X57249805Y-49184462D01*
X57092931Y-48805735D01*
X56851930Y-48737675D01*
X56059605Y-49530000D01*
X56851930Y-50322325D01*
X57092931Y-50254265D01*
X57277767Y-49734966D01*
X57277767Y-61862716D01*
X57129046Y-62085295D01*
X57087443Y-62294443D01*
X56878295Y-62336046D01*
X56756858Y-62417186D01*
X56672325Y-62332505D01*
X56672325Y-50501930D01*
X55880000Y-49709605D01*
X55700395Y-49889210D01*
X55700395Y-49530000D01*
X54908070Y-48737675D01*
X54667069Y-48805735D01*
X54482233Y-49325034D01*
X54510195Y-49875538D01*
X54667069Y-50254265D01*
X54908070Y-50322325D01*
X55700395Y-49530000D01*
X55700395Y-49889210D01*
X55087675Y-50501930D01*
X55155735Y-50742931D01*
X55675034Y-50927767D01*
X56225538Y-50899805D01*
X56604265Y-50742931D01*
X56672325Y-50501930D01*
X56672325Y-62332505D01*
X56665887Y-62326056D01*
X56156816Y-62114671D01*
X55605602Y-62114190D01*
X55096163Y-62324686D01*
X54706056Y-62714113D01*
X54494671Y-63223184D01*
X54494190Y-63774398D01*
X54704686Y-64283837D01*
X55094113Y-64673944D01*
X55309496Y-64763378D01*
X55155735Y-64827069D01*
X55087675Y-65068070D01*
X55880000Y-65860395D01*
X56672325Y-65068070D01*
X56604265Y-64827069D01*
X56438959Y-64768231D01*
X56663837Y-64675314D01*
X57053944Y-64285887D01*
X57214404Y-63899454D01*
X57282954Y-64002046D01*
X57513295Y-64155954D01*
X57785000Y-64210000D01*
X58056705Y-64155954D01*
X58287046Y-64002046D01*
X58440954Y-63771705D01*
X58456253Y-63694788D01*
X58691705Y-63647954D01*
X58922046Y-63494046D01*
X59075954Y-63263705D01*
X59130000Y-62992000D01*
X59130000Y-80120169D01*
X58825501Y-80853485D01*
X58824760Y-81702789D01*
X59149090Y-82487727D01*
X59749114Y-83088800D01*
X60533485Y-83414499D01*
X61382789Y-83415240D01*
X62167727Y-83090910D01*
X62768800Y-82490886D01*
X63094499Y-81706515D01*
X63095240Y-80857211D01*
X63095240Y-84405000D01*
X57277767Y-84405000D01*
X57277767Y-66244966D01*
X57249805Y-65694462D01*
X57092931Y-65315735D01*
X56851930Y-65247675D01*
X56059605Y-66040000D01*
X56851930Y-66832325D01*
X57092931Y-66764265D01*
X57277767Y-66244966D01*
X57277767Y-84405000D01*
X56672325Y-84405000D01*
X56672325Y-67011930D01*
X55880000Y-66219605D01*
X55700395Y-66399210D01*
X55700395Y-66040000D01*
X54908070Y-65247675D01*
X54667069Y-65315735D01*
X54482233Y-65835034D01*
X54510195Y-66385538D01*
X54667069Y-66764265D01*
X54908070Y-66832325D01*
X55700395Y-66040000D01*
X55700395Y-66399210D01*
X55087675Y-67011930D01*
X55155735Y-67252931D01*
X55675034Y-67437767D01*
X56225538Y-67409805D01*
X56604265Y-67252931D01*
X56672325Y-67011930D01*
X56672325Y-84405000D01*
X54974490Y-84405000D01*
X54974490Y-80807296D01*
X54974490Y-79212704D01*
X54850072Y-78587212D01*
X54495759Y-78056945D01*
X54475000Y-78043074D01*
X54475000Y-74930000D01*
X54475000Y-69850000D01*
X54388603Y-69415655D01*
X54388603Y-69415654D01*
X54142566Y-69047434D01*
X48874680Y-63779548D01*
X48874680Y-37202938D01*
X48874680Y-35598542D01*
X48874680Y-15201458D01*
X48874680Y-13597062D01*
X48731217Y-12875826D01*
X48322670Y-12264392D01*
X47711236Y-11855845D01*
X46990000Y-11712382D01*
X46268764Y-11855845D01*
X45657330Y-12264392D01*
X45248783Y-12875826D01*
X45105320Y-13597062D01*
X45105320Y-15201458D01*
X45248783Y-15922694D01*
X45657330Y-16534128D01*
X46268764Y-16942675D01*
X46990000Y-17086138D01*
X47711236Y-16942675D01*
X48322670Y-16534128D01*
X48731217Y-15922694D01*
X48874680Y-15201458D01*
X48874680Y-35598542D01*
X48731217Y-34877306D01*
X48322670Y-34265872D01*
X47711236Y-33857325D01*
X46990000Y-33713862D01*
X46268764Y-33857325D01*
X45657330Y-34265872D01*
X45248783Y-34877306D01*
X45105320Y-35598542D01*
X45105320Y-37202938D01*
X45248783Y-37924174D01*
X45657330Y-38535608D01*
X46268764Y-38944155D01*
X46990000Y-39087618D01*
X47711236Y-38944155D01*
X48322670Y-38535608D01*
X48731217Y-37924174D01*
X48874680Y-37202938D01*
X48874680Y-63779548D01*
X48125000Y-63029868D01*
X48125000Y-60325000D01*
X48038604Y-59890655D01*
X48038603Y-59890654D01*
X47792566Y-59522434D01*
X44315000Y-56044868D01*
X44315000Y-44450000D01*
X44315000Y-29409572D01*
X44296617Y-29317157D01*
X44299557Y-29222979D01*
X44253827Y-29102038D01*
X44228603Y-28975226D01*
X44176255Y-28896881D01*
X44142930Y-28808747D01*
X44054399Y-28714511D01*
X43982566Y-28607006D01*
X43904222Y-28554658D01*
X43839705Y-28485984D01*
X40004305Y-25746413D01*
X39886453Y-25693231D01*
X39778946Y-25621397D01*
X39686531Y-25603014D01*
X39600646Y-25564258D01*
X39471412Y-25560224D01*
X39344600Y-25535000D01*
X37444680Y-25535000D01*
X37444680Y-15201458D01*
X37444680Y-13597062D01*
X37301217Y-12875826D01*
X36892670Y-12264392D01*
X36281236Y-11855845D01*
X35560000Y-11712382D01*
X34838764Y-11855845D01*
X34227330Y-12264392D01*
X33818783Y-12875826D01*
X33675320Y-13597062D01*
X33675320Y-15201458D01*
X33818783Y-15922694D01*
X34227330Y-16534128D01*
X34838764Y-16942675D01*
X35560000Y-17086138D01*
X36281236Y-16942675D01*
X36892670Y-16534128D01*
X37301217Y-15922694D01*
X37444680Y-15201458D01*
X37444680Y-25535000D01*
X28304490Y-25535000D01*
X28304490Y-16117570D01*
X28304490Y-15367000D01*
X28304490Y-15113000D01*
X28304490Y-14362430D01*
X28131471Y-13746605D01*
X27735956Y-13243868D01*
X27178159Y-12930757D01*
X27050354Y-12899811D01*
X26797000Y-13019165D01*
X26797000Y-15113000D01*
X28304490Y-15113000D01*
X28304490Y-15367000D01*
X26797000Y-15367000D01*
X26797000Y-17460835D01*
X27050354Y-17580189D01*
X27178159Y-17549243D01*
X27735956Y-17236132D01*
X28131471Y-16733395D01*
X28304490Y-16117570D01*
X28304490Y-25535000D01*
X27805000Y-25535000D01*
X27805000Y-19050000D01*
X27718603Y-18615654D01*
X27472566Y-18247434D01*
X27104346Y-18001397D01*
X26670000Y-17915000D01*
X26543000Y-17915000D01*
X26543000Y-17460835D01*
X26543000Y-15367000D01*
X26543000Y-15113000D01*
X26543000Y-13019165D01*
X26289646Y-12899811D01*
X26161841Y-12930757D01*
X25604044Y-13243868D01*
X25208529Y-13746605D01*
X25035510Y-14362430D01*
X25035510Y-15113000D01*
X26543000Y-15113000D01*
X26543000Y-15367000D01*
X25035510Y-15367000D01*
X25035510Y-16117570D01*
X25208529Y-16733395D01*
X25604044Y-17236132D01*
X26161841Y-17549243D01*
X26289646Y-17580189D01*
X26543000Y-17460835D01*
X26543000Y-17915000D01*
X22725000Y-17915000D01*
X22725000Y-17206925D01*
X22745759Y-17193055D01*
X23100072Y-16662788D01*
X23224490Y-16037296D01*
X23224490Y-14442704D01*
X23100072Y-13817212D01*
X22745759Y-13286945D01*
X22215492Y-12932632D01*
X21590000Y-12808214D01*
X20964508Y-12932632D01*
X20434241Y-13286945D01*
X20079928Y-13817212D01*
X19955510Y-14442704D01*
X19955510Y-16037296D01*
X20079928Y-16662788D01*
X20434241Y-17193055D01*
X20455000Y-17206925D01*
X20455000Y-19050000D01*
X20541397Y-19484346D01*
X20787434Y-19852566D01*
X21155654Y-20098603D01*
X21590000Y-20185000D01*
X25535000Y-20185000D01*
X25535000Y-25829085D01*
X25486371Y-25877630D01*
X25273243Y-26390900D01*
X25272758Y-26946661D01*
X25484990Y-27460303D01*
X25877630Y-27853629D01*
X26390900Y-28066757D01*
X26946661Y-28067242D01*
X27460303Y-27855010D01*
X27510400Y-27805000D01*
X38980873Y-27805000D01*
X42045000Y-29993663D01*
X42045000Y-43748531D01*
X38332797Y-45604632D01*
X37825602Y-45604190D01*
X37316163Y-45814686D01*
X36926056Y-46204113D01*
X36714671Y-46713184D01*
X36714190Y-47264398D01*
X36924686Y-47773837D01*
X37314113Y-48163944D01*
X37529496Y-48253378D01*
X37375735Y-48317069D01*
X37307675Y-48558070D01*
X38100000Y-49350395D01*
X38892325Y-48558070D01*
X38824265Y-48317069D01*
X38658959Y-48258231D01*
X38883837Y-48165314D01*
X39273944Y-47775887D01*
X39328386Y-47644775D01*
X39558977Y-47529479D01*
X39733295Y-47645954D01*
X40005000Y-47700000D01*
X40276705Y-47645954D01*
X40507046Y-47492046D01*
X40660954Y-47261705D01*
X40676253Y-47184788D01*
X40911705Y-47137954D01*
X41142046Y-46984046D01*
X41295954Y-46753705D01*
X41316432Y-46650752D01*
X43687588Y-45465175D01*
X43831307Y-45353633D01*
X43982566Y-45252566D01*
X44005222Y-45218657D01*
X44037441Y-45193653D01*
X44127535Y-45035604D01*
X44228603Y-44884346D01*
X44236558Y-44844348D01*
X44256756Y-44808918D01*
X44279510Y-44628418D01*
X44315000Y-44450000D01*
X44315000Y-56044868D01*
X43982566Y-55712434D01*
X43614346Y-55466397D01*
X43180000Y-55380000D01*
X39497767Y-55380000D01*
X39497767Y-49734966D01*
X39469805Y-49184462D01*
X39312931Y-48805735D01*
X39071930Y-48737675D01*
X38279605Y-49530000D01*
X39071930Y-50322325D01*
X39312931Y-50254265D01*
X39497767Y-49734966D01*
X39497767Y-55380000D01*
X38892325Y-55380000D01*
X38892325Y-50501930D01*
X38100000Y-49709605D01*
X37920395Y-49889210D01*
X37920395Y-49530000D01*
X37128070Y-48737675D01*
X36887069Y-48805735D01*
X36702233Y-49325034D01*
X36730195Y-49875538D01*
X36887069Y-50254265D01*
X37128070Y-50322325D01*
X37920395Y-49530000D01*
X37920395Y-49889210D01*
X37307675Y-50501930D01*
X37375735Y-50742931D01*
X37895034Y-50927767D01*
X38445538Y-50899805D01*
X38824265Y-50742931D01*
X38892325Y-50501930D01*
X38892325Y-55380000D01*
X37300132Y-55380000D01*
X32885000Y-50964868D01*
X32885000Y-48095132D01*
X40807566Y-40172566D01*
X41053603Y-39804346D01*
X41053603Y-39804345D01*
X41140000Y-39370000D01*
X41140000Y-32385000D01*
X41053603Y-31950655D01*
X41053603Y-31950654D01*
X40807566Y-31582434D01*
X37886566Y-28661434D01*
X37518346Y-28415397D01*
X37084000Y-28329000D01*
X22217000Y-28329000D01*
X22217000Y-22860000D01*
X22130603Y-22425654D01*
X21884566Y-22057434D01*
X21516346Y-21811397D01*
X21082000Y-21725000D01*
X20955000Y-21725000D01*
X16105240Y-21725000D01*
X16105240Y-13547211D01*
X15780910Y-12762273D01*
X15180886Y-12161200D01*
X14396515Y-11835501D01*
X13547211Y-11834760D01*
X12762273Y-12159090D01*
X12161200Y-12759114D01*
X11835501Y-13543485D01*
X11834760Y-14392789D01*
X12159090Y-15177727D01*
X12759114Y-15778800D01*
X13543485Y-16104499D01*
X14392789Y-16105240D01*
X15177727Y-15780910D01*
X15778800Y-15180886D01*
X16104499Y-14396515D01*
X16105240Y-13547211D01*
X16105240Y-21725000D01*
X14990362Y-21725000D01*
X14834404Y-21568769D01*
X14274472Y-21336265D01*
X13668188Y-21335736D01*
X13107851Y-21567262D01*
X12678769Y-21995596D01*
X12446265Y-22555528D01*
X12445736Y-23161812D01*
X12677262Y-23722149D01*
X12867073Y-23912292D01*
X12721302Y-23972673D01*
X12542673Y-24151301D01*
X12446000Y-24384690D01*
X12446000Y-24637309D01*
X12446000Y-25114250D01*
X12604750Y-25273000D01*
X13843000Y-25273000D01*
X13843000Y-25253000D01*
X14097000Y-25253000D01*
X14097000Y-25273000D01*
X15335250Y-25273000D01*
X15494000Y-25114250D01*
X15494000Y-24637309D01*
X15494000Y-24384690D01*
X15397327Y-24151301D01*
X15241025Y-23995000D01*
X19820000Y-23995000D01*
X19820000Y-29337000D01*
X19906397Y-29771346D01*
X20152434Y-30139566D01*
X20279434Y-30266566D01*
X20647654Y-30512603D01*
X20647655Y-30512603D01*
X21082000Y-30599000D01*
X25845627Y-30599000D01*
X25486371Y-30957630D01*
X25273243Y-31470900D01*
X25272758Y-32026661D01*
X25484990Y-32540303D01*
X25877630Y-32933629D01*
X26390900Y-33146757D01*
X26946661Y-33147242D01*
X27460303Y-32935010D01*
X27853629Y-32542370D01*
X28066757Y-32029100D01*
X28067242Y-31473339D01*
X27855010Y-30959697D01*
X27494942Y-30599000D01*
X36613868Y-30599000D01*
X38870000Y-32855132D01*
X38870000Y-38899868D01*
X37444680Y-40325188D01*
X37444680Y-37202938D01*
X37444680Y-35598542D01*
X37301217Y-34877306D01*
X36892670Y-34265872D01*
X36281236Y-33857325D01*
X35560000Y-33713862D01*
X34838764Y-33857325D01*
X34227330Y-34265872D01*
X33818783Y-34877306D01*
X33675320Y-35598542D01*
X33675320Y-37202938D01*
X33818783Y-37924174D01*
X34227330Y-38535608D01*
X34838764Y-38944155D01*
X35560000Y-39087618D01*
X36281236Y-38944155D01*
X36892670Y-38535608D01*
X37301217Y-37924174D01*
X37444680Y-37202938D01*
X37444680Y-40325188D01*
X30947434Y-46822434D01*
X30701397Y-47190654D01*
X30615000Y-47625000D01*
X30615000Y-51435000D01*
X30701397Y-51869346D01*
X30947434Y-52237566D01*
X36027434Y-57317566D01*
X36395654Y-57563603D01*
X36395655Y-57563603D01*
X36830000Y-57650000D01*
X42709868Y-57650000D01*
X45855000Y-60795132D01*
X45855000Y-63500000D01*
X45941397Y-63934346D01*
X46187434Y-64302566D01*
X52205000Y-70320132D01*
X52205000Y-74930000D01*
X52205000Y-78043074D01*
X52184241Y-78056945D01*
X51829928Y-78587212D01*
X51705510Y-79212704D01*
X51705510Y-80807296D01*
X51829928Y-81432788D01*
X52184241Y-81963055D01*
X52714508Y-82317368D01*
X53340000Y-82441786D01*
X53965492Y-82317368D01*
X54495759Y-81963055D01*
X54850072Y-81432788D01*
X54974490Y-80807296D01*
X54974490Y-84405000D01*
X49894490Y-84405000D01*
X49894490Y-80887570D01*
X49894490Y-80137000D01*
X49894490Y-79883000D01*
X49894490Y-79132430D01*
X49721471Y-78516605D01*
X49325956Y-78013868D01*
X48768159Y-77700757D01*
X48640354Y-77669811D01*
X48387000Y-77789165D01*
X48387000Y-79883000D01*
X49894490Y-79883000D01*
X49894490Y-80137000D01*
X48387000Y-80137000D01*
X48387000Y-82230835D01*
X48640354Y-82350189D01*
X48768159Y-82319243D01*
X49325956Y-82006132D01*
X49721471Y-81503395D01*
X49894490Y-80887570D01*
X49894490Y-84405000D01*
X48133000Y-84405000D01*
X48133000Y-82230835D01*
X48133000Y-80137000D01*
X48133000Y-79883000D01*
X48133000Y-77789165D01*
X47879646Y-77669811D01*
X47751841Y-77700757D01*
X47194044Y-78013868D01*
X46798529Y-78516605D01*
X46625510Y-79132430D01*
X46625510Y-79883000D01*
X48133000Y-79883000D01*
X48133000Y-80137000D01*
X46625510Y-80137000D01*
X46625510Y-80887570D01*
X46798529Y-81503395D01*
X47194044Y-82006132D01*
X47751841Y-82319243D01*
X47879646Y-82350189D01*
X48133000Y-82230835D01*
X48133000Y-84405000D01*
X44814490Y-84405000D01*
X44814490Y-80807296D01*
X44814490Y-79212704D01*
X44690072Y-78587212D01*
X44335759Y-78056945D01*
X44315000Y-78043074D01*
X44315000Y-74930000D01*
X44315000Y-72390000D01*
X44228603Y-71955654D01*
X43982566Y-71587434D01*
X43982566Y-71587433D01*
X41442566Y-69047434D01*
X41350000Y-68985583D01*
X41350000Y-62992000D01*
X41295954Y-62720295D01*
X41142046Y-62489954D01*
X40911705Y-62336046D01*
X40702556Y-62294443D01*
X40660954Y-62085295D01*
X40507046Y-61854954D01*
X40276705Y-61701046D01*
X40005000Y-61647000D01*
X39733295Y-61701046D01*
X39502954Y-61854954D01*
X39349046Y-62085295D01*
X39307443Y-62294443D01*
X39098295Y-62336046D01*
X38976858Y-62417186D01*
X38885887Y-62326056D01*
X38376816Y-62114671D01*
X37825602Y-62114190D01*
X37316163Y-62324686D01*
X36926056Y-62714113D01*
X36714671Y-63223184D01*
X36714190Y-63774398D01*
X36924686Y-64283837D01*
X37314113Y-64673944D01*
X37529496Y-64763378D01*
X37375735Y-64827069D01*
X37307675Y-65068070D01*
X38100000Y-65860395D01*
X38892325Y-65068070D01*
X38824265Y-64827069D01*
X38658959Y-64768231D01*
X38883837Y-64675314D01*
X39273944Y-64285887D01*
X39434404Y-63899454D01*
X39502954Y-64002046D01*
X39733295Y-64155954D01*
X40005000Y-64210000D01*
X40276705Y-64155954D01*
X40507046Y-64002046D01*
X40660954Y-63771705D01*
X40676253Y-63694788D01*
X40911705Y-63647954D01*
X41142046Y-63494046D01*
X41295954Y-63263705D01*
X41350000Y-62992000D01*
X41350000Y-68985583D01*
X41074346Y-68801397D01*
X40640000Y-68715000D01*
X39497767Y-68715000D01*
X39497767Y-66244966D01*
X39469805Y-65694462D01*
X39312931Y-65315735D01*
X39071930Y-65247675D01*
X38279605Y-66040000D01*
X39071930Y-66832325D01*
X39312931Y-66764265D01*
X39497767Y-66244966D01*
X39497767Y-68715000D01*
X38892325Y-68715000D01*
X38892325Y-67011930D01*
X38100000Y-66219605D01*
X37920395Y-66399210D01*
X37920395Y-66040000D01*
X37128070Y-65247675D01*
X36887069Y-65315735D01*
X36702233Y-65835034D01*
X36730195Y-66385538D01*
X36887069Y-66764265D01*
X37128070Y-66832325D01*
X37920395Y-66040000D01*
X37920395Y-66399210D01*
X37307675Y-67011930D01*
X37375735Y-67252931D01*
X37895034Y-67437767D01*
X38445538Y-67409805D01*
X38824265Y-67252931D01*
X38892325Y-67011930D01*
X38892325Y-68715000D01*
X36030132Y-68715000D01*
X31282566Y-63967434D01*
X30914346Y-63721397D01*
X30480000Y-63635000D01*
X28315401Y-63635000D01*
X28315401Y-62374418D01*
X28304774Y-62087411D01*
X28304774Y-46786306D01*
X28079144Y-46240239D01*
X28079144Y-42117698D01*
X28067242Y-41879903D01*
X28067242Y-36553339D01*
X27855010Y-36039697D01*
X27462370Y-35646371D01*
X26949100Y-35433243D01*
X26393339Y-35432758D01*
X25879697Y-35644990D01*
X25486371Y-36037630D01*
X25273243Y-36550900D01*
X25272758Y-37106661D01*
X25484990Y-37620303D01*
X25877630Y-38013629D01*
X26390900Y-38226757D01*
X26946661Y-38227242D01*
X27460303Y-38015010D01*
X27853629Y-37622370D01*
X28066757Y-37109100D01*
X28067242Y-36553339D01*
X28067242Y-41879903D01*
X28051362Y-41562632D01*
X27892397Y-41178857D01*
X27650213Y-41109392D01*
X27470608Y-41288997D01*
X27470608Y-40929787D01*
X27401143Y-40687603D01*
X26877698Y-40500856D01*
X26322632Y-40528638D01*
X25938857Y-40687603D01*
X25869392Y-40929787D01*
X26670000Y-41730395D01*
X27470608Y-40929787D01*
X27470608Y-41288997D01*
X26849605Y-41910000D01*
X27650213Y-42710608D01*
X27892397Y-42641143D01*
X28079144Y-42117698D01*
X28079144Y-46240239D01*
X28056462Y-46185345D01*
X27597073Y-45725154D01*
X27470608Y-45672641D01*
X27470608Y-42890213D01*
X26670000Y-42089605D01*
X26490395Y-42269210D01*
X26490395Y-41910000D01*
X25689787Y-41109392D01*
X25447603Y-41178857D01*
X25260856Y-41702302D01*
X25288638Y-42257368D01*
X25447603Y-42641143D01*
X25689787Y-42710608D01*
X26490395Y-41910000D01*
X26490395Y-42269210D01*
X25869392Y-42890213D01*
X25938857Y-43132397D01*
X26462302Y-43319144D01*
X27017368Y-43291362D01*
X27401143Y-43132397D01*
X27470608Y-42890213D01*
X27470608Y-45672641D01*
X26996547Y-45475794D01*
X26346306Y-45475226D01*
X25745345Y-45723538D01*
X25285154Y-46182927D01*
X25035794Y-46783453D01*
X25035226Y-47433694D01*
X25283538Y-48034655D01*
X25742927Y-48494846D01*
X26343453Y-48744206D01*
X26993694Y-48744774D01*
X27594655Y-48496462D01*
X28054846Y-48037073D01*
X28304206Y-47436547D01*
X28304774Y-46786306D01*
X28304774Y-62087411D01*
X28291341Y-61724623D01*
X28088965Y-61236042D01*
X27822163Y-61137443D01*
X27642557Y-61317048D01*
X27642557Y-60957837D01*
X27543958Y-60691035D01*
X26934418Y-60464599D01*
X26284623Y-60488659D01*
X25796042Y-60691035D01*
X25697443Y-60957837D01*
X26670000Y-61930395D01*
X27642557Y-60957837D01*
X27642557Y-61317048D01*
X26849605Y-62110000D01*
X27822163Y-63082557D01*
X28088965Y-62983958D01*
X28315401Y-62374418D01*
X28315401Y-63635000D01*
X27287965Y-63635000D01*
X27543958Y-63528965D01*
X27642557Y-63262163D01*
X26670000Y-62289605D01*
X26490395Y-62469210D01*
X26490395Y-62110000D01*
X25517837Y-61137443D01*
X25251035Y-61236042D01*
X25024599Y-61845582D01*
X25048659Y-62495377D01*
X25251035Y-62983958D01*
X25517837Y-63082557D01*
X26490395Y-62110000D01*
X26490395Y-62469210D01*
X25697443Y-63262163D01*
X25796042Y-63528965D01*
X26081476Y-63635000D01*
X24630000Y-63635000D01*
X24630000Y-53975000D01*
X24630000Y-35560000D01*
X24543603Y-35125654D01*
X24297566Y-34757434D01*
X23929346Y-34511397D01*
X23495000Y-34425000D01*
X21160914Y-34425000D01*
X21112370Y-34376371D01*
X20599100Y-34163243D01*
X20528313Y-34163181D01*
X15215343Y-28850211D01*
X15261231Y-28804404D01*
X15493735Y-28244472D01*
X15494264Y-27638188D01*
X15262738Y-27077851D01*
X15072926Y-26887707D01*
X15218698Y-26827327D01*
X15397327Y-26648699D01*
X15494000Y-26415310D01*
X15494000Y-26162691D01*
X15494000Y-25685750D01*
X15335250Y-25527000D01*
X14097000Y-25527000D01*
X14097000Y-25547000D01*
X13843000Y-25547000D01*
X13843000Y-25527000D01*
X12604750Y-25527000D01*
X12446000Y-25685750D01*
X12446000Y-26162691D01*
X12446000Y-26415310D01*
X12542673Y-26648699D01*
X12721302Y-26827327D01*
X12867011Y-26887681D01*
X12678769Y-27075596D01*
X12446265Y-27635528D01*
X12445736Y-28241812D01*
X12677262Y-28802149D01*
X12835000Y-28960162D01*
X12835000Y-29210000D01*
X12921397Y-29644346D01*
X13167434Y-30012566D01*
X18922817Y-35767949D01*
X18922758Y-35836661D01*
X19134990Y-36350303D01*
X19527630Y-36743629D01*
X20040900Y-36956757D01*
X20596661Y-36957242D01*
X21110303Y-36745010D01*
X21160400Y-36695000D01*
X22360000Y-36695000D01*
X22360000Y-53504868D01*
X21499438Y-54365429D01*
X21266306Y-54365226D01*
X20665345Y-54613538D01*
X20205154Y-55072927D01*
X19955794Y-55673453D01*
X19955226Y-56323694D01*
X20203538Y-56924655D01*
X20662927Y-57384846D01*
X21263453Y-57634206D01*
X21913694Y-57634774D01*
X22514655Y-57386462D01*
X22974846Y-56927073D01*
X23224206Y-56326547D01*
X23224621Y-55850510D01*
X24297566Y-54777566D01*
X24543603Y-54409346D01*
X24543603Y-54409345D01*
X24630000Y-53975000D01*
X24630000Y-63635000D01*
X17645000Y-63635000D01*
X17645000Y-57620132D01*
X21757566Y-53507566D01*
X22003603Y-53139346D01*
X22003603Y-53139345D01*
X22090000Y-52705000D01*
X22090000Y-46990000D01*
X22003603Y-46555654D01*
X21757566Y-46187434D01*
X21717242Y-46160490D01*
X21717242Y-40363339D01*
X21505010Y-39849697D01*
X21112370Y-39456371D01*
X20599100Y-39243243D01*
X20043339Y-39242758D01*
X19529697Y-39454990D01*
X19136371Y-39847630D01*
X18923243Y-40360900D01*
X18922758Y-40916661D01*
X19134990Y-41430303D01*
X19527630Y-41823629D01*
X20040900Y-42036757D01*
X20596661Y-42037242D01*
X21110303Y-41825010D01*
X21503629Y-41432370D01*
X21716757Y-40919100D01*
X21717242Y-40363339D01*
X21717242Y-46160490D01*
X21389346Y-45941397D01*
X20955000Y-45855000D01*
X16649144Y-45855000D01*
X16649144Y-40847698D01*
X16637242Y-40609903D01*
X16637242Y-35283339D01*
X16425010Y-34769697D01*
X16032370Y-34376371D01*
X15519100Y-34163243D01*
X14963339Y-34162758D01*
X14449697Y-34374990D01*
X14056371Y-34767630D01*
X13843243Y-35280900D01*
X13842758Y-35836661D01*
X14054990Y-36350303D01*
X14447630Y-36743629D01*
X14960900Y-36956757D01*
X15516661Y-36957242D01*
X16030303Y-36745010D01*
X16423629Y-36352370D01*
X16636757Y-35839100D01*
X16637242Y-35283339D01*
X16637242Y-40609903D01*
X16621362Y-40292632D01*
X16462397Y-39908857D01*
X16220213Y-39839392D01*
X16040608Y-40018997D01*
X16040608Y-39659787D01*
X15971143Y-39417603D01*
X15447698Y-39230856D01*
X14892632Y-39258638D01*
X14508857Y-39417603D01*
X14439392Y-39659787D01*
X15240000Y-40460395D01*
X16040608Y-39659787D01*
X16040608Y-40018997D01*
X15419605Y-40640000D01*
X16220213Y-41440608D01*
X16462397Y-41371143D01*
X16649144Y-40847698D01*
X16649144Y-45855000D01*
X16040608Y-45855000D01*
X16040608Y-41620213D01*
X15240000Y-40819605D01*
X15060395Y-40999210D01*
X15060395Y-40640000D01*
X14259787Y-39839392D01*
X14017603Y-39908857D01*
X13830856Y-40432302D01*
X13858638Y-40987368D01*
X14017603Y-41371143D01*
X14259787Y-41440608D01*
X15060395Y-40640000D01*
X15060395Y-40999210D01*
X14439392Y-41620213D01*
X14508857Y-41862397D01*
X15032302Y-42049144D01*
X15587368Y-42021362D01*
X15971143Y-41862397D01*
X16040608Y-41620213D01*
X16040608Y-45855000D01*
X14990362Y-45855000D01*
X14834404Y-45698769D01*
X14274472Y-45466265D01*
X13668188Y-45465736D01*
X13107851Y-45697262D01*
X12678769Y-46125596D01*
X12446265Y-46685528D01*
X12445736Y-47291812D01*
X12677262Y-47852149D01*
X12867073Y-48042292D01*
X12721302Y-48102673D01*
X12542673Y-48281301D01*
X12446000Y-48514690D01*
X12446000Y-48767309D01*
X12446000Y-49244250D01*
X12604750Y-49403000D01*
X13843000Y-49403000D01*
X13843000Y-49383000D01*
X14097000Y-49383000D01*
X14097000Y-49403000D01*
X15335250Y-49403000D01*
X15494000Y-49244250D01*
X15494000Y-48767309D01*
X15494000Y-48514690D01*
X15397327Y-48281301D01*
X15241025Y-48125000D01*
X19820000Y-48125000D01*
X19820000Y-52234868D01*
X15707434Y-56347434D01*
X15494264Y-56666465D01*
X15494264Y-51768188D01*
X15262738Y-51207851D01*
X15072926Y-51017707D01*
X15218698Y-50957327D01*
X15397327Y-50778699D01*
X15494000Y-50545310D01*
X15494000Y-50292691D01*
X15494000Y-49815750D01*
X15335250Y-49657000D01*
X14097000Y-49657000D01*
X14097000Y-49677000D01*
X13843000Y-49677000D01*
X13843000Y-49657000D01*
X12604750Y-49657000D01*
X12446000Y-49815750D01*
X12446000Y-50292691D01*
X12446000Y-50545310D01*
X12542673Y-50778699D01*
X12721302Y-50957327D01*
X12867011Y-51017681D01*
X12678769Y-51205596D01*
X12446265Y-51765528D01*
X12445736Y-52371812D01*
X12677262Y-52932149D01*
X13105596Y-53361231D01*
X13665528Y-53593735D01*
X14271812Y-53594264D01*
X14832149Y-53362738D01*
X15261231Y-52934404D01*
X15493735Y-52374472D01*
X15494264Y-51768188D01*
X15494264Y-56666465D01*
X15461397Y-56715654D01*
X15375000Y-57150000D01*
X15375000Y-64770000D01*
X15461397Y-65204346D01*
X15707434Y-65572566D01*
X16075654Y-65818603D01*
X16510000Y-65905000D01*
X30009868Y-65905000D01*
X34757434Y-70652566D01*
X35125654Y-70898603D01*
X35125655Y-70898603D01*
X35560000Y-70985000D01*
X40169867Y-70985000D01*
X42045000Y-72860132D01*
X42045000Y-74930000D01*
X42045000Y-78043074D01*
X42024241Y-78056945D01*
X41669928Y-78587212D01*
X41545510Y-79212704D01*
X41545510Y-80807296D01*
X41669928Y-81432788D01*
X42024241Y-81963055D01*
X42554508Y-82317368D01*
X43180000Y-82441786D01*
X43805492Y-82317368D01*
X44335759Y-81963055D01*
X44690072Y-81432788D01*
X44814490Y-80807296D01*
X44814490Y-84405000D01*
X39734490Y-84405000D01*
X39734490Y-80887570D01*
X39734490Y-80137000D01*
X39734490Y-79883000D01*
X39734490Y-79132430D01*
X39561471Y-78516605D01*
X39165956Y-78013868D01*
X38608159Y-77700757D01*
X38480354Y-77669811D01*
X38227000Y-77789165D01*
X38227000Y-79883000D01*
X39734490Y-79883000D01*
X39734490Y-80137000D01*
X38227000Y-80137000D01*
X38227000Y-82230835D01*
X38480354Y-82350189D01*
X38608159Y-82319243D01*
X39165956Y-82006132D01*
X39561471Y-81503395D01*
X39734490Y-80887570D01*
X39734490Y-84405000D01*
X37973000Y-84405000D01*
X37973000Y-82230835D01*
X37973000Y-80137000D01*
X37973000Y-79883000D01*
X37973000Y-77789165D01*
X37719646Y-77669811D01*
X37591841Y-77700757D01*
X37034044Y-78013868D01*
X36638529Y-78516605D01*
X36465510Y-79132430D01*
X36465510Y-79883000D01*
X37973000Y-79883000D01*
X37973000Y-80137000D01*
X36465510Y-80137000D01*
X36465510Y-80887570D01*
X36638529Y-81503395D01*
X37034044Y-82006132D01*
X37591841Y-82319243D01*
X37719646Y-82350189D01*
X37973000Y-82230835D01*
X37973000Y-84405000D01*
X34654490Y-84405000D01*
X34654490Y-80807296D01*
X34654490Y-79212704D01*
X34530072Y-78587212D01*
X34175759Y-78056945D01*
X34155000Y-78043074D01*
X34155000Y-74930000D01*
X34155000Y-71755000D01*
X34068603Y-71320655D01*
X34068603Y-71320654D01*
X33822566Y-70952434D01*
X29377566Y-66507434D01*
X29009346Y-66261397D01*
X28575000Y-66175000D01*
X15240000Y-66175000D01*
X14805654Y-66261397D01*
X14437434Y-66507434D01*
X13888939Y-67055928D01*
X13668188Y-67055736D01*
X13107851Y-67287262D01*
X12678769Y-67715596D01*
X12446265Y-68275528D01*
X12445736Y-68881812D01*
X12677262Y-69442149D01*
X12867073Y-69632292D01*
X12721302Y-69692673D01*
X12542673Y-69871301D01*
X12446000Y-70104690D01*
X12446000Y-70357309D01*
X12446000Y-70834250D01*
X12604750Y-70993000D01*
X13843000Y-70993000D01*
X13843000Y-70973000D01*
X14097000Y-70973000D01*
X14097000Y-70993000D01*
X15335250Y-70993000D01*
X15494000Y-70834250D01*
X15494000Y-70357309D01*
X15494000Y-70104690D01*
X15397327Y-69871301D01*
X15218698Y-69692673D01*
X15072988Y-69632318D01*
X15261231Y-69444404D01*
X15493735Y-68884472D01*
X15493929Y-68661202D01*
X15710132Y-68445000D01*
X28104868Y-68445000D01*
X31885000Y-72225132D01*
X31885000Y-74930000D01*
X31885000Y-78043074D01*
X31864241Y-78056945D01*
X31509928Y-78587212D01*
X31385510Y-79212704D01*
X31385510Y-80807296D01*
X31509928Y-81432788D01*
X31864241Y-81963055D01*
X32394508Y-82317368D01*
X33020000Y-82441786D01*
X33645492Y-82317368D01*
X34175759Y-81963055D01*
X34530072Y-81432788D01*
X34654490Y-80807296D01*
X34654490Y-84405000D01*
X29574490Y-84405000D01*
X29574490Y-80887570D01*
X29574490Y-80137000D01*
X29574490Y-79883000D01*
X29574490Y-79132430D01*
X29401471Y-78516605D01*
X29005956Y-78013868D01*
X28448159Y-77700757D01*
X28320354Y-77669811D01*
X28067000Y-77789165D01*
X28067000Y-79883000D01*
X29574490Y-79883000D01*
X29574490Y-80137000D01*
X28067000Y-80137000D01*
X28067000Y-82230835D01*
X28320354Y-82350189D01*
X28448159Y-82319243D01*
X29005956Y-82006132D01*
X29401471Y-81503395D01*
X29574490Y-80887570D01*
X29574490Y-84405000D01*
X27813000Y-84405000D01*
X27813000Y-82230835D01*
X27813000Y-80137000D01*
X27813000Y-79883000D01*
X27813000Y-77789165D01*
X27559646Y-77669811D01*
X27431841Y-77700757D01*
X26874044Y-78013868D01*
X26478529Y-78516605D01*
X26305510Y-79132430D01*
X26305510Y-79883000D01*
X27813000Y-79883000D01*
X27813000Y-80137000D01*
X26305510Y-80137000D01*
X26305510Y-80887570D01*
X26478529Y-81503395D01*
X26874044Y-82006132D01*
X27431841Y-82319243D01*
X27559646Y-82350189D01*
X27813000Y-82230835D01*
X27813000Y-84405000D01*
X23235401Y-84405000D01*
X23235401Y-71264418D01*
X23211341Y-70614623D01*
X23008965Y-70126042D01*
X22742163Y-70027443D01*
X22562557Y-70207048D01*
X22562557Y-69847837D01*
X22463958Y-69581035D01*
X21854418Y-69354599D01*
X21204623Y-69378659D01*
X20716042Y-69581035D01*
X20617443Y-69847837D01*
X21590000Y-70820395D01*
X22562557Y-69847837D01*
X22562557Y-70207048D01*
X21769605Y-71000000D01*
X22742163Y-71972557D01*
X23008965Y-71873958D01*
X23235401Y-71264418D01*
X23235401Y-84405000D01*
X22562557Y-84405000D01*
X22562557Y-72152163D01*
X21590000Y-71179605D01*
X21410395Y-71359210D01*
X21410395Y-71000000D01*
X20437837Y-70027443D01*
X20171035Y-70126042D01*
X19944599Y-70735582D01*
X19968659Y-71385377D01*
X20171035Y-71873958D01*
X20437837Y-71972557D01*
X21410395Y-71000000D01*
X21410395Y-71359210D01*
X20617443Y-72152163D01*
X20716042Y-72418965D01*
X21325582Y-72645401D01*
X21975377Y-72621341D01*
X22463958Y-72418965D01*
X22562557Y-72152163D01*
X22562557Y-84405000D01*
X16105240Y-84405000D01*
X16105240Y-80857211D01*
X15780910Y-80072273D01*
X15494264Y-79785125D01*
X15494264Y-73358188D01*
X15262738Y-72797851D01*
X15072926Y-72607707D01*
X15218698Y-72547327D01*
X15397327Y-72368699D01*
X15494000Y-72135310D01*
X15494000Y-71882691D01*
X15494000Y-71405750D01*
X15335250Y-71247000D01*
X14097000Y-71247000D01*
X14097000Y-71267000D01*
X13843000Y-71267000D01*
X13843000Y-71247000D01*
X12604750Y-71247000D01*
X12446000Y-71405750D01*
X12446000Y-71882691D01*
X12446000Y-72135310D01*
X12542673Y-72368699D01*
X12721302Y-72547327D01*
X12867011Y-72607681D01*
X12678769Y-72795596D01*
X12446265Y-73355528D01*
X12445736Y-73961812D01*
X12677262Y-74522149D01*
X13105596Y-74951231D01*
X13665528Y-75183735D01*
X14271812Y-75184264D01*
X14832149Y-74952738D01*
X15261231Y-74524404D01*
X15493735Y-73964472D01*
X15494264Y-73358188D01*
X15494264Y-79785125D01*
X15180886Y-79471200D01*
X14396515Y-79145501D01*
X13547211Y-79144760D01*
X12762273Y-79469090D01*
X12161200Y-80069114D01*
X11835501Y-80853485D01*
X11834760Y-81702789D01*
X12159090Y-82487727D01*
X12759114Y-83088800D01*
X13543485Y-83414499D01*
X14392789Y-83415240D01*
X15177727Y-83090910D01*
X15778800Y-82490886D01*
X16104499Y-81706515D01*
X16105240Y-80857211D01*
X16105240Y-84405000D01*
X10845000Y-84405000D01*
X10845000Y-10845000D01*
X64085000Y-10845000D01*
X64085000Y-84405000D01*
M02*
