G04 #@! TF.FileFunction,Legend,Bot*
%FSLAX46Y46*%
G04 Gerber Fmt 4.6, Leading zero omitted, Abs format (unit mm)*
G04 Created by KiCad (PCBNEW (after 2015-mar-04 BZR unknown)-product) date Thu 29 Dec 2016 04:21:00 PM CET*
%MOMM*%
G01*
G04 APERTURE LIST*
%ADD10C,0.100000*%
%ADD11C,0.150000*%
%ADD12C,0.203200*%
%ADD13C,0.127000*%
G04 APERTURE END LIST*
D10*
X148411429Y-84548286D02*
X148411429Y-85298286D01*
X148411429Y-84584000D02*
X148340000Y-84548286D01*
X148197143Y-84548286D01*
X148125714Y-84584000D01*
X148090000Y-84619714D01*
X148054286Y-84691143D01*
X148054286Y-84905429D01*
X148090000Y-84976857D01*
X148125714Y-85012571D01*
X148197143Y-85048286D01*
X148340000Y-85048286D01*
X148411429Y-85012571D01*
X147411429Y-85048286D02*
X147411429Y-84655429D01*
X147447143Y-84584000D01*
X147518572Y-84548286D01*
X147661429Y-84548286D01*
X147732858Y-84584000D01*
X147411429Y-85012571D02*
X147482858Y-85048286D01*
X147661429Y-85048286D01*
X147732858Y-85012571D01*
X147768572Y-84941143D01*
X147768572Y-84869714D01*
X147732858Y-84798286D01*
X147661429Y-84762571D01*
X147482858Y-84762571D01*
X147411429Y-84726857D01*
X147125715Y-84298286D02*
X146661429Y-84298286D01*
X146911429Y-84584000D01*
X146804287Y-84584000D01*
X146732858Y-84619714D01*
X146697144Y-84655429D01*
X146661429Y-84726857D01*
X146661429Y-84905429D01*
X146697144Y-84976857D01*
X146732858Y-85012571D01*
X146804287Y-85048286D01*
X147018572Y-85048286D01*
X147090001Y-85012571D01*
X147125715Y-84976857D01*
X146018572Y-84548286D02*
X146018572Y-85155429D01*
X146054286Y-85226857D01*
X146090001Y-85262571D01*
X146161429Y-85298286D01*
X146268572Y-85298286D01*
X146340001Y-85262571D01*
X146018572Y-85012571D02*
X146090001Y-85048286D01*
X146232858Y-85048286D01*
X146304286Y-85012571D01*
X146340001Y-84976857D01*
X146375715Y-84905429D01*
X146375715Y-84691143D01*
X146340001Y-84619714D01*
X146304286Y-84584000D01*
X146232858Y-84548286D01*
X146090001Y-84548286D01*
X146018572Y-84584000D01*
X145732858Y-84548286D02*
X145554287Y-85048286D01*
X145375715Y-84548286D02*
X145554287Y-85048286D01*
X145625715Y-85226857D01*
X145661430Y-85262571D01*
X145732858Y-85298286D01*
X145197143Y-84548286D02*
X144911429Y-84548286D01*
X145090001Y-85048286D02*
X145090001Y-84405429D01*
X145054286Y-84334000D01*
X144982858Y-84298286D01*
X144911429Y-84298286D01*
X144125715Y-84369714D02*
X144090001Y-84334000D01*
X144018572Y-84298286D01*
X143840001Y-84298286D01*
X143768572Y-84334000D01*
X143732858Y-84369714D01*
X143697143Y-84441143D01*
X143697143Y-84512571D01*
X143732858Y-84619714D01*
X144161429Y-85048286D01*
X143697143Y-85048286D01*
X143232857Y-84298286D02*
X143161429Y-84298286D01*
X143090000Y-84334000D01*
X143054286Y-84369714D01*
X143018572Y-84441143D01*
X142982857Y-84584000D01*
X142982857Y-84762571D01*
X143018572Y-84905429D01*
X143054286Y-84976857D01*
X143090000Y-85012571D01*
X143161429Y-85048286D01*
X143232857Y-85048286D01*
X143304286Y-85012571D01*
X143340000Y-84976857D01*
X143375715Y-84905429D01*
X143411429Y-84762571D01*
X143411429Y-84584000D01*
X143375715Y-84441143D01*
X143340000Y-84369714D01*
X143304286Y-84334000D01*
X143232857Y-84298286D01*
X142268571Y-85048286D02*
X142697143Y-85048286D01*
X142482857Y-85048286D02*
X142482857Y-84298286D01*
X142554286Y-84405429D01*
X142625714Y-84476857D01*
X142697143Y-84512571D01*
X141625714Y-84298286D02*
X141768571Y-84298286D01*
X141840000Y-84334000D01*
X141875714Y-84369714D01*
X141947143Y-84476857D01*
X141982857Y-84619714D01*
X141982857Y-84905429D01*
X141947143Y-84976857D01*
X141911428Y-85012571D01*
X141840000Y-85048286D01*
X141697143Y-85048286D01*
X141625714Y-85012571D01*
X141590000Y-84976857D01*
X141554285Y-84905429D01*
X141554285Y-84726857D01*
X141590000Y-84655429D01*
X141625714Y-84619714D01*
X141697143Y-84584000D01*
X141840000Y-84584000D01*
X141911428Y-84619714D01*
X141947143Y-84655429D01*
X141982857Y-84726857D01*
X148197143Y-85568286D02*
X148197143Y-86104000D01*
X148232857Y-86211143D01*
X148304286Y-86282571D01*
X148411429Y-86318286D01*
X148482857Y-86318286D01*
X147518571Y-86318286D02*
X147518571Y-85925429D01*
X147554285Y-85854000D01*
X147625714Y-85818286D01*
X147768571Y-85818286D01*
X147840000Y-85854000D01*
X147518571Y-86282571D02*
X147590000Y-86318286D01*
X147768571Y-86318286D01*
X147840000Y-86282571D01*
X147875714Y-86211143D01*
X147875714Y-86139714D01*
X147840000Y-86068286D01*
X147768571Y-86032571D01*
X147590000Y-86032571D01*
X147518571Y-85996857D01*
X147161429Y-85818286D02*
X147161429Y-86318286D01*
X147161429Y-85889714D02*
X147125714Y-85854000D01*
X147054286Y-85818286D01*
X146947143Y-85818286D01*
X146875714Y-85854000D01*
X146840000Y-85925429D01*
X146840000Y-86318286D01*
X145590000Y-86318286D02*
X145590000Y-85568286D01*
X145590000Y-86282571D02*
X145661429Y-86318286D01*
X145804286Y-86318286D01*
X145875714Y-86282571D01*
X145911429Y-86246857D01*
X145947143Y-86175429D01*
X145947143Y-85961143D01*
X145911429Y-85889714D01*
X145875714Y-85854000D01*
X145804286Y-85818286D01*
X145661429Y-85818286D01*
X145590000Y-85854000D01*
X144947143Y-86282571D02*
X145018572Y-86318286D01*
X145161429Y-86318286D01*
X145232858Y-86282571D01*
X145268572Y-86211143D01*
X145268572Y-85925429D01*
X145232858Y-85854000D01*
X145161429Y-85818286D01*
X145018572Y-85818286D01*
X144947143Y-85854000D01*
X144911429Y-85925429D01*
X144911429Y-85996857D01*
X145268572Y-86068286D01*
X143804286Y-85568286D02*
X143804286Y-86104000D01*
X143840000Y-86211143D01*
X143911429Y-86282571D01*
X144018572Y-86318286D01*
X144090000Y-86318286D01*
X143340000Y-86318286D02*
X143411428Y-86282571D01*
X143447143Y-86246857D01*
X143482857Y-86175429D01*
X143482857Y-85961143D01*
X143447143Y-85889714D01*
X143411428Y-85854000D01*
X143340000Y-85818286D01*
X143232857Y-85818286D01*
X143161428Y-85854000D01*
X143125714Y-85889714D01*
X143090000Y-85961143D01*
X143090000Y-86175429D01*
X143125714Y-86246857D01*
X143161428Y-86282571D01*
X143232857Y-86318286D01*
X143340000Y-86318286D01*
X142768572Y-85818286D02*
X142768572Y-86318286D01*
X142768572Y-85889714D02*
X142732857Y-85854000D01*
X142661429Y-85818286D01*
X142554286Y-85818286D01*
X142482857Y-85854000D01*
X142447143Y-85925429D01*
X142447143Y-86318286D01*
X141768572Y-85818286D02*
X141768572Y-86425429D01*
X141804286Y-86496857D01*
X141840001Y-86532571D01*
X141911429Y-86568286D01*
X142018572Y-86568286D01*
X142090001Y-86532571D01*
X141768572Y-86282571D02*
X141840001Y-86318286D01*
X141982858Y-86318286D01*
X142054286Y-86282571D01*
X142090001Y-86246857D01*
X142125715Y-86175429D01*
X142125715Y-85961143D01*
X142090001Y-85889714D01*
X142054286Y-85854000D01*
X141982858Y-85818286D01*
X141840001Y-85818286D01*
X141768572Y-85854000D01*
X141411430Y-86318286D02*
X141411430Y-85568286D01*
X141090001Y-86318286D02*
X141090001Y-85925429D01*
X141125715Y-85854000D01*
X141197144Y-85818286D01*
X141304287Y-85818286D01*
X141375715Y-85854000D01*
X141411430Y-85889714D01*
D11*
X147295820Y-70408800D02*
X147295820Y-69707760D01*
X147295820Y-69707760D02*
X147046900Y-69707760D01*
X144496840Y-69707760D02*
X144296180Y-69707760D01*
X144296180Y-69707760D02*
X144296180Y-70408800D01*
X144510000Y-62620000D02*
X142510000Y-62620000D01*
X142510000Y-60570000D02*
X144510000Y-60570000D01*
X144510000Y-52900000D02*
X142510000Y-52900000D01*
X142510000Y-55050000D02*
X144510000Y-55050000D01*
X144510000Y-57980000D02*
X142510000Y-57980000D01*
X142510000Y-60130000D02*
X144510000Y-60130000D01*
X142680000Y-67675000D02*
X142680000Y-65675000D01*
X140530000Y-65675000D02*
X140530000Y-67675000D01*
D12*
X137541000Y-71501000D02*
X138811000Y-71501000D01*
X138811000Y-71501000D02*
X138811000Y-71628000D01*
X138811000Y-71628000D02*
X137541000Y-71628000D01*
X137541000Y-71628000D02*
X137541000Y-71755000D01*
X137541000Y-71755000D02*
X138811000Y-71755000D01*
X137414000Y-71374000D02*
X137414000Y-71882000D01*
X137414000Y-71882000D02*
X138938000Y-71882000D01*
X138938000Y-71882000D02*
X138938000Y-71374000D01*
X138938000Y-71374000D02*
X137414000Y-71374000D01*
D13*
X137414000Y-69088000D02*
X137414000Y-72644000D01*
X138938000Y-72644000D02*
X138938000Y-69088000D01*
D12*
X142875000Y-55880000D02*
X142875000Y-57150000D01*
X142875000Y-57150000D02*
X142748000Y-57150000D01*
X142748000Y-57150000D02*
X142748000Y-55880000D01*
X142748000Y-55880000D02*
X142621000Y-55880000D01*
X142621000Y-55880000D02*
X142621000Y-57150000D01*
X143002000Y-55753000D02*
X142494000Y-55753000D01*
X142494000Y-55753000D02*
X142494000Y-57277000D01*
X142494000Y-57277000D02*
X143002000Y-57277000D01*
X143002000Y-57277000D02*
X143002000Y-55753000D01*
D13*
X145288000Y-55753000D02*
X141732000Y-55753000D01*
X141732000Y-57277000D02*
X145288000Y-57277000D01*
D12*
X151003000Y-71755000D02*
X149733000Y-71755000D01*
X149733000Y-71755000D02*
X149733000Y-71628000D01*
X149733000Y-71628000D02*
X151003000Y-71628000D01*
X151003000Y-71628000D02*
X151003000Y-71501000D01*
X151003000Y-71501000D02*
X149733000Y-71501000D01*
X151130000Y-71882000D02*
X151130000Y-71374000D01*
X151130000Y-71374000D02*
X149606000Y-71374000D01*
X149606000Y-71374000D02*
X149606000Y-71882000D01*
X149606000Y-71882000D02*
X151130000Y-71882000D01*
D13*
X151130000Y-74168000D02*
X151130000Y-70612000D01*
X149606000Y-70612000D02*
X149606000Y-74168000D01*
D11*
X129803000Y-79899000D02*
X129803000Y-81899000D01*
X127753000Y-81899000D02*
X127753000Y-79899000D01*
X147923238Y-68111619D02*
X148018476Y-68064000D01*
X148113714Y-67968762D01*
X148256571Y-67825905D01*
X148351810Y-67778286D01*
X148447048Y-67778286D01*
X148399429Y-68016381D02*
X148494667Y-67968762D01*
X148589905Y-67873524D01*
X148637524Y-67683048D01*
X148637524Y-67349714D01*
X148589905Y-67159238D01*
X148494667Y-67064000D01*
X148399429Y-67016381D01*
X148208952Y-67016381D01*
X148113714Y-67064000D01*
X148018476Y-67159238D01*
X147970857Y-67349714D01*
X147970857Y-67683048D01*
X148018476Y-67873524D01*
X148113714Y-67968762D01*
X148208952Y-68016381D01*
X148399429Y-68016381D01*
X147018476Y-68016381D02*
X147589905Y-68016381D01*
X147304191Y-68016381D02*
X147304191Y-67016381D01*
X147399429Y-67159238D01*
X147494667Y-67254476D01*
X147589905Y-67302095D01*
X139358666Y-61952143D02*
X139406285Y-61999762D01*
X139549142Y-62047381D01*
X139644380Y-62047381D01*
X139787238Y-61999762D01*
X139882476Y-61904524D01*
X139930095Y-61809286D01*
X139977714Y-61618810D01*
X139977714Y-61475952D01*
X139930095Y-61285476D01*
X139882476Y-61190238D01*
X139787238Y-61095000D01*
X139644380Y-61047381D01*
X139549142Y-61047381D01*
X139406285Y-61095000D01*
X139358666Y-61142619D01*
X138501523Y-61380714D02*
X138501523Y-62047381D01*
X138739619Y-60999762D02*
X138977714Y-61714048D01*
X138358666Y-61714048D01*
X139231666Y-54427381D02*
X139565000Y-53951190D01*
X139803095Y-54427381D02*
X139803095Y-53427381D01*
X139422142Y-53427381D01*
X139326904Y-53475000D01*
X139279285Y-53522619D01*
X139231666Y-53617857D01*
X139231666Y-53760714D01*
X139279285Y-53855952D01*
X139326904Y-53903571D01*
X139422142Y-53951190D01*
X139803095Y-53951190D01*
X138898333Y-53427381D02*
X138279285Y-53427381D01*
X138612619Y-53808333D01*
X138469761Y-53808333D01*
X138374523Y-53855952D01*
X138326904Y-53903571D01*
X138279285Y-53998810D01*
X138279285Y-54236905D01*
X138326904Y-54332143D01*
X138374523Y-54379762D01*
X138469761Y-54427381D01*
X138755476Y-54427381D01*
X138850714Y-54379762D01*
X138898333Y-54332143D01*
X139231666Y-59507381D02*
X139565000Y-59031190D01*
X139803095Y-59507381D02*
X139803095Y-58507381D01*
X139422142Y-58507381D01*
X139326904Y-58555000D01*
X139279285Y-58602619D01*
X139231666Y-58697857D01*
X139231666Y-58840714D01*
X139279285Y-58935952D01*
X139326904Y-58983571D01*
X139422142Y-59031190D01*
X139803095Y-59031190D01*
X138326904Y-58507381D02*
X138803095Y-58507381D01*
X138850714Y-58983571D01*
X138803095Y-58935952D01*
X138707857Y-58888333D01*
X138469761Y-58888333D01*
X138374523Y-58935952D01*
X138326904Y-58983571D01*
X138279285Y-59078810D01*
X138279285Y-59316905D01*
X138326904Y-59412143D01*
X138374523Y-59459762D01*
X138469761Y-59507381D01*
X138707857Y-59507381D01*
X138803095Y-59459762D01*
X138850714Y-59412143D01*
X145295857Y-66873381D02*
X145629191Y-66397190D01*
X145867286Y-66873381D02*
X145867286Y-65873381D01*
X145486333Y-65873381D01*
X145391095Y-65921000D01*
X145343476Y-65968619D01*
X145295857Y-66063857D01*
X145295857Y-66206714D01*
X145343476Y-66301952D01*
X145391095Y-66349571D01*
X145486333Y-66397190D01*
X145867286Y-66397190D01*
X144343476Y-66873381D02*
X144914905Y-66873381D01*
X144629191Y-66873381D02*
X144629191Y-65873381D01*
X144724429Y-66016238D01*
X144819667Y-66111476D01*
X144914905Y-66159095D01*
X144010143Y-65873381D02*
X143391095Y-65873381D01*
X143724429Y-66254333D01*
X143581571Y-66254333D01*
X143486333Y-66301952D01*
X143438714Y-66349571D01*
X143391095Y-66444810D01*
X143391095Y-66682905D01*
X143438714Y-66778143D01*
X143486333Y-66825762D01*
X143581571Y-66873381D01*
X143867286Y-66873381D01*
X143962524Y-66825762D01*
X144010143Y-66778143D01*
X141327095Y-72207381D02*
X141327095Y-71207381D01*
X141089000Y-71207381D01*
X140946142Y-71255000D01*
X140850904Y-71350238D01*
X140803285Y-71445476D01*
X140755666Y-71635952D01*
X140755666Y-71778810D01*
X140803285Y-71969286D01*
X140850904Y-72064524D01*
X140946142Y-72159762D01*
X141089000Y-72207381D01*
X141327095Y-72207381D01*
X140422333Y-71207381D02*
X139803285Y-71207381D01*
X140136619Y-71588333D01*
X139993761Y-71588333D01*
X139898523Y-71635952D01*
X139850904Y-71683571D01*
X139803285Y-71778810D01*
X139803285Y-72016905D01*
X139850904Y-72112143D01*
X139898523Y-72159762D01*
X139993761Y-72207381D01*
X140279476Y-72207381D01*
X140374714Y-72159762D01*
X140422333Y-72112143D01*
X139930095Y-56967381D02*
X139930095Y-55967381D01*
X139692000Y-55967381D01*
X139549142Y-56015000D01*
X139453904Y-56110238D01*
X139406285Y-56205476D01*
X139358666Y-56395952D01*
X139358666Y-56538810D01*
X139406285Y-56729286D01*
X139453904Y-56824524D01*
X139549142Y-56919762D01*
X139692000Y-56967381D01*
X139930095Y-56967381D01*
X138501523Y-56300714D02*
X138501523Y-56967381D01*
X138739619Y-55919762D02*
X138977714Y-56634048D01*
X138358666Y-56634048D01*
X148820095Y-74366381D02*
X148820095Y-73366381D01*
X148582000Y-73366381D01*
X148439142Y-73414000D01*
X148343904Y-73509238D01*
X148296285Y-73604476D01*
X148248666Y-73794952D01*
X148248666Y-73937810D01*
X148296285Y-74128286D01*
X148343904Y-74223524D01*
X148439142Y-74318762D01*
X148582000Y-74366381D01*
X148820095Y-74366381D01*
X147343904Y-73366381D02*
X147820095Y-73366381D01*
X147867714Y-73842571D01*
X147820095Y-73794952D01*
X147724857Y-73747333D01*
X147486761Y-73747333D01*
X147391523Y-73794952D01*
X147343904Y-73842571D01*
X147296285Y-73937810D01*
X147296285Y-74175905D01*
X147343904Y-74271143D01*
X147391523Y-74318762D01*
X147486761Y-74366381D01*
X147724857Y-74366381D01*
X147820095Y-74318762D01*
X147867714Y-74271143D01*
X126404666Y-79224143D02*
X126452285Y-79271762D01*
X126595142Y-79319381D01*
X126690380Y-79319381D01*
X126833238Y-79271762D01*
X126928476Y-79176524D01*
X126976095Y-79081286D01*
X127023714Y-78890810D01*
X127023714Y-78747952D01*
X126976095Y-78557476D01*
X126928476Y-78462238D01*
X126833238Y-78367000D01*
X126690380Y-78319381D01*
X126595142Y-78319381D01*
X126452285Y-78367000D01*
X126404666Y-78414619D01*
X125452285Y-79319381D02*
X126023714Y-79319381D01*
X125738000Y-79319381D02*
X125738000Y-78319381D01*
X125833238Y-78462238D01*
X125928476Y-78557476D01*
X126023714Y-78605095D01*
M02*
