M48
;DRILL file {kicad (after 2015-mar-04 BZR unknown)-product} date Fri 28 Oct 2016 10:27:23 AM CEST
;FORMAT={-:-/ absolute / inch / decimal}
FMAT,2
INCH,TZ
T1C0.018
T2C0.028
T3C0.032
T4C0.032
T5C0.039
T6C0.039
T7C0.040
%
G90
G05
M72
T1
X6.325Y-2.6
X6.47Y-2.66
X6.66Y-2.68
T2
X6.425Y-2.45
X6.425Y-2.85
X6.55Y-2.45
X6.55Y-2.85
X8.15Y-2.725
X8.15Y-3.125
T3
X7.55Y-3.675
X7.65Y-3.675
T4
X6.92Y-2.52
X6.92Y-2.62
X6.92Y-2.72
X6.92Y-2.82
X6.92Y-2.92
X6.92Y-3.02
X6.92Y-3.12
X6.92Y-3.22
X6.92Y-3.32
X6.92Y-3.42
X7.22Y-2.52
X7.22Y-2.62
X7.22Y-2.72
X7.22Y-2.82
X7.22Y-2.92
X7.22Y-3.02
X7.22Y-3.12
X7.22Y-3.22
X7.22Y-3.32
X7.22Y-3.42
T5
X6.425Y-3.25
X6.525Y-3.15
X6.625Y-3.25
T6
X6.25Y-2.975
X6.275Y-3.5
X6.65Y-2.975
X6.675Y-2.45
X6.675Y-2.85
X6.675Y-3.5
X7.625Y-2.325
X7.625Y-2.725
X7.775Y-2.325
X7.775Y-2.725
X7.925Y-2.725
X7.925Y-3.125
T7
X6.025Y-2.375
X6.025Y-2.475
X6.025Y-2.575
X6.025Y-2.975
X6.025Y-3.075
X6.025Y-3.175
X6.025Y-3.6
X6.025Y-3.7
X6.025Y-3.8
X6.125Y-2.375
X6.125Y-2.475
X6.125Y-2.575
X6.125Y-2.975
X6.125Y-3.075
X6.125Y-3.175
X6.125Y-3.6
X6.125Y-3.7
X6.125Y-3.8
X6.5865Y-2.134
X6.6865Y-2.134
X6.7865Y-2.134
X6.8865Y-2.134
X6.9465Y-4.034
X6.9865Y-2.134
X7.0465Y-4.034
X7.0865Y-2.134
X7.1465Y-4.034
X7.1865Y-2.134
X7.2465Y-4.034
X7.2865Y-2.134
X7.3465Y-4.034
X7.3865Y-2.134
X7.4465Y-4.034
X7.4865Y-2.134
X7.5465Y-4.034
X7.6465Y-2.134
X7.6465Y-4.034
X7.7465Y-2.134
X7.8465Y-2.134
X7.8465Y-4.034
X7.9465Y-2.134
X7.9465Y-4.034
X8.0465Y-2.134
X8.0465Y-4.034
X8.1465Y-2.134
X8.1465Y-4.034
X8.2465Y-2.134
X8.2465Y-4.034
X8.3465Y-2.134
X8.3465Y-4.034
T0
M30
