%FSLAX45Y45*%
G04 Gerber Fmt 4.5, Leading zero omitted, Abs format (unit mm)*
G04 Created by KiCad (PCBNEW (after 2015-mar-04 BZR unknown)-product) date Fri 28 Oct 2016 10:27:26 AM CEST*
%MOMM*%
G01*
G04 APERTURE LIST*
%ADD10C,0.127000*%
%ADD11C,0.100000*%
%ADD12C,0.200000*%
%ADD13C,0.300000*%
G04 APERTURE END LIST*
D10*
D11*
X14833600Y-10515600D02*
X14833600Y-5156200D01*
X21742400Y-10515600D02*
X14833600Y-10515600D01*
X21742400Y-5156200D02*
X21742400Y-10515600D01*
X14833600Y-5156200D02*
X21742400Y-5156200D01*
D12*
X16043000Y-6581500D02*
X16088000Y-6626500D01*
X16088000Y-6581500D02*
X16043000Y-6626500D01*
X16411300Y-6733900D02*
X16456300Y-6778900D01*
X16456300Y-6733900D02*
X16411300Y-6778900D01*
X16893900Y-6784700D02*
X16938900Y-6829700D01*
X16938900Y-6784700D02*
X16893900Y-6829700D01*
X16354552Y-6223000D02*
G75*
G03X16354552Y-6223000I-35052J0D01*
G01*
X16354552Y-7239000D02*
G75*
G03X16354552Y-7239000I-35052J0D01*
G01*
X16672052Y-6223000D02*
G75*
G03X16672052Y-6223000I-35052J0D01*
G01*
X16672052Y-7239000D02*
G75*
G03X16672052Y-7239000I-35052J0D01*
G01*
X20736052Y-6921500D02*
G75*
G03X20736052Y-6921500I-35052J0D01*
G01*
X20736052Y-7937500D02*
G75*
G03X20736052Y-7937500I-35052J0D01*
G01*
X19177000Y-9294495D02*
X19177000Y-9374505D01*
X19136995Y-9334500D02*
X19217005Y-9334500D01*
X19431000Y-9294495D02*
X19431000Y-9374505D01*
X19390995Y-9334500D02*
X19471005Y-9334500D01*
X17605537Y-6429537D02*
X17605537Y-6372063D01*
X17548063Y-6372063D01*
X17548063Y-6429537D01*
X17605537Y-6429537D01*
X17605537Y-6683537D02*
X17605537Y-6626063D01*
X17548063Y-6626063D01*
X17548063Y-6683537D01*
X17605537Y-6683537D01*
X17605537Y-6937537D02*
X17605537Y-6880063D01*
X17548063Y-6880063D01*
X17548063Y-6937537D01*
X17605537Y-6937537D01*
X17605537Y-7191537D02*
X17605537Y-7134063D01*
X17548063Y-7134063D01*
X17548063Y-7191537D01*
X17605537Y-7191537D01*
X17605537Y-7445537D02*
X17605537Y-7388063D01*
X17548063Y-7388063D01*
X17548063Y-7445537D01*
X17605537Y-7445537D01*
X17605537Y-7699537D02*
X17605537Y-7642063D01*
X17548063Y-7642063D01*
X17548063Y-7699537D01*
X17605537Y-7699537D01*
X17605537Y-7953537D02*
X17605537Y-7896063D01*
X17548063Y-7896063D01*
X17548063Y-7953537D01*
X17605537Y-7953537D01*
X17605537Y-8207537D02*
X17605537Y-8150063D01*
X17548063Y-8150063D01*
X17548063Y-8207537D01*
X17605537Y-8207537D01*
X17605537Y-8461537D02*
X17605537Y-8404063D01*
X17548063Y-8404063D01*
X17548063Y-8461537D01*
X17605537Y-8461537D01*
X17605537Y-8715537D02*
X17605537Y-8658063D01*
X17548063Y-8658063D01*
X17548063Y-8715537D01*
X17605537Y-8715537D01*
X18367537Y-6429537D02*
X18367537Y-6372063D01*
X18310063Y-6372063D01*
X18310063Y-6429537D01*
X18367537Y-6429537D01*
X18367537Y-6683537D02*
X18367537Y-6626063D01*
X18310063Y-6626063D01*
X18310063Y-6683537D01*
X18367537Y-6683537D01*
X18367537Y-6937537D02*
X18367537Y-6880063D01*
X18310063Y-6880063D01*
X18310063Y-6937537D01*
X18367537Y-6937537D01*
X18367537Y-7191537D02*
X18367537Y-7134063D01*
X18310063Y-7134063D01*
X18310063Y-7191537D01*
X18367537Y-7191537D01*
X18367537Y-7445537D02*
X18367537Y-7388063D01*
X18310063Y-7388063D01*
X18310063Y-7445537D01*
X18367537Y-7445537D01*
X18367537Y-7699537D02*
X18367537Y-7642063D01*
X18310063Y-7642063D01*
X18310063Y-7699537D01*
X18367537Y-7699537D01*
X18367537Y-7953537D02*
X18367537Y-7896063D01*
X18310063Y-7896063D01*
X18310063Y-7953537D01*
X18367537Y-7953537D01*
X18367537Y-8207537D02*
X18367537Y-8150063D01*
X18310063Y-8150063D01*
X18310063Y-8207537D01*
X18367537Y-8207537D01*
X18367537Y-8461537D02*
X18367537Y-8404063D01*
X18310063Y-8404063D01*
X18310063Y-8461537D01*
X18367537Y-8461537D01*
X18367537Y-8715537D02*
X18367537Y-8658063D01*
X18310063Y-8658063D01*
X18310063Y-8715537D01*
X18367537Y-8715537D01*
X16319500Y-8305000D02*
X16369500Y-8255000D01*
X16319500Y-8205000D01*
X16269500Y-8255000D01*
X16319500Y-8305000D01*
X16573500Y-8051000D02*
X16623500Y-8001000D01*
X16573500Y-7951000D01*
X16523500Y-8001000D01*
X16573500Y-8051000D01*
X16827500Y-8305000D02*
X16877500Y-8255000D01*
X16827500Y-8205000D01*
X16777500Y-8255000D01*
X16827500Y-8305000D01*
X15824962Y-7506462D02*
X15925038Y-7606538D01*
X15925038Y-7506462D02*
X15824962Y-7606538D01*
X15925038Y-7556500D02*
G75*
G03X15925038Y-7556500I-50038J0D01*
G01*
X15888462Y-8839962D02*
X15988538Y-8940038D01*
X15988538Y-8839962D02*
X15888462Y-8940038D01*
X15988538Y-8890000D02*
G75*
G03X15988538Y-8890000I-50038J0D01*
G01*
X16840962Y-7506462D02*
X16941038Y-7606538D01*
X16941038Y-7506462D02*
X16840962Y-7606538D01*
X16941038Y-7556500D02*
G75*
G03X16941038Y-7556500I-50038J0D01*
G01*
X16904462Y-6172962D02*
X17004538Y-6273038D01*
X17004538Y-6172962D02*
X16904462Y-6273038D01*
X17004538Y-6223000D02*
G75*
G03X17004538Y-6223000I-50038J0D01*
G01*
X16904462Y-7188962D02*
X17004538Y-7289038D01*
X17004538Y-7188962D02*
X16904462Y-7289038D01*
X17004538Y-7239000D02*
G75*
G03X17004538Y-7239000I-50038J0D01*
G01*
X16904462Y-8839962D02*
X17004538Y-8940038D01*
X17004538Y-8839962D02*
X16904462Y-8940038D01*
X17004538Y-8890000D02*
G75*
G03X17004538Y-8890000I-50038J0D01*
G01*
X19317462Y-5855462D02*
X19417538Y-5955538D01*
X19417538Y-5855462D02*
X19317462Y-5955538D01*
X19417538Y-5905500D02*
G75*
G03X19417538Y-5905500I-50038J0D01*
G01*
X19317462Y-6871462D02*
X19417538Y-6971538D01*
X19417538Y-6871462D02*
X19317462Y-6971538D01*
X19417538Y-6921500D02*
G75*
G03X19417538Y-6921500I-50038J0D01*
G01*
X19698462Y-5855462D02*
X19798538Y-5955538D01*
X19798538Y-5855462D02*
X19698462Y-5955538D01*
X19798538Y-5905500D02*
G75*
G03X19798538Y-5905500I-50038J0D01*
G01*
X19698462Y-6871462D02*
X19798538Y-6971538D01*
X19798538Y-6871462D02*
X19698462Y-6971538D01*
X19798538Y-6921500D02*
G75*
G03X19798538Y-6921500I-50038J0D01*
G01*
X20079462Y-6871462D02*
X20179538Y-6971538D01*
X20179538Y-6871462D02*
X20079462Y-6971538D01*
X20179538Y-6921500D02*
G75*
G03X20179538Y-6921500I-50038J0D01*
G01*
X20079462Y-7887462D02*
X20179538Y-7987538D01*
X20179538Y-7887462D02*
X20079462Y-7987538D01*
X20179538Y-7937500D02*
G75*
G03X20179538Y-7937500I-50038J0D01*
G01*
X15252700Y-5981700D02*
X15354300Y-6083300D01*
X15354300Y-5981700D02*
X15252700Y-6083300D01*
X15303500Y-5981700D02*
X15303500Y-6083300D01*
X15252700Y-6032500D02*
X15354300Y-6032500D01*
X15252700Y-6235700D02*
X15354300Y-6337300D01*
X15354300Y-6235700D02*
X15252700Y-6337300D01*
X15303500Y-6235700D02*
X15303500Y-6337300D01*
X15252700Y-6286500D02*
X15354300Y-6286500D01*
X15252700Y-6489700D02*
X15354300Y-6591300D01*
X15354300Y-6489700D02*
X15252700Y-6591300D01*
X15303500Y-6489700D02*
X15303500Y-6591300D01*
X15252700Y-6540500D02*
X15354300Y-6540500D01*
X15252700Y-7505700D02*
X15354300Y-7607300D01*
X15354300Y-7505700D02*
X15252700Y-7607300D01*
X15303500Y-7505700D02*
X15303500Y-7607300D01*
X15252700Y-7556500D02*
X15354300Y-7556500D01*
X15252700Y-7759700D02*
X15354300Y-7861300D01*
X15354300Y-7759700D02*
X15252700Y-7861300D01*
X15303500Y-7759700D02*
X15303500Y-7861300D01*
X15252700Y-7810500D02*
X15354300Y-7810500D01*
X15252700Y-8013700D02*
X15354300Y-8115300D01*
X15354300Y-8013700D02*
X15252700Y-8115300D01*
X15303500Y-8013700D02*
X15303500Y-8115300D01*
X15252700Y-8064500D02*
X15354300Y-8064500D01*
X15252700Y-9093200D02*
X15354300Y-9194800D01*
X15354300Y-9093200D02*
X15252700Y-9194800D01*
X15303500Y-9093200D02*
X15303500Y-9194800D01*
X15252700Y-9144000D02*
X15354300Y-9144000D01*
X15252700Y-9347200D02*
X15354300Y-9448800D01*
X15354300Y-9347200D02*
X15252700Y-9448800D01*
X15303500Y-9347200D02*
X15303500Y-9448800D01*
X15252700Y-9398000D02*
X15354300Y-9398000D01*
X15252700Y-9601200D02*
X15354300Y-9702800D01*
X15354300Y-9601200D02*
X15252700Y-9702800D01*
X15303500Y-9601200D02*
X15303500Y-9702800D01*
X15252700Y-9652000D02*
X15354300Y-9652000D01*
X15506700Y-5981700D02*
X15608300Y-6083300D01*
X15608300Y-5981700D02*
X15506700Y-6083300D01*
X15557500Y-5981700D02*
X15557500Y-6083300D01*
X15506700Y-6032500D02*
X15608300Y-6032500D01*
X15506700Y-6235700D02*
X15608300Y-6337300D01*
X15608300Y-6235700D02*
X15506700Y-6337300D01*
X15557500Y-6235700D02*
X15557500Y-6337300D01*
X15506700Y-6286500D02*
X15608300Y-6286500D01*
X15506700Y-6489700D02*
X15608300Y-6591300D01*
X15608300Y-6489700D02*
X15506700Y-6591300D01*
X15557500Y-6489700D02*
X15557500Y-6591300D01*
X15506700Y-6540500D02*
X15608300Y-6540500D01*
X15506700Y-7505700D02*
X15608300Y-7607300D01*
X15608300Y-7505700D02*
X15506700Y-7607300D01*
X15557500Y-7505700D02*
X15557500Y-7607300D01*
X15506700Y-7556500D02*
X15608300Y-7556500D01*
X15506700Y-7759700D02*
X15608300Y-7861300D01*
X15608300Y-7759700D02*
X15506700Y-7861300D01*
X15557500Y-7759700D02*
X15557500Y-7861300D01*
X15506700Y-7810500D02*
X15608300Y-7810500D01*
X15506700Y-8013700D02*
X15608300Y-8115300D01*
X15608300Y-8013700D02*
X15506700Y-8115300D01*
X15557500Y-8013700D02*
X15557500Y-8115300D01*
X15506700Y-8064500D02*
X15608300Y-8064500D01*
X15506700Y-9093200D02*
X15608300Y-9194800D01*
X15608300Y-9093200D02*
X15506700Y-9194800D01*
X15557500Y-9093200D02*
X15557500Y-9194800D01*
X15506700Y-9144000D02*
X15608300Y-9144000D01*
X15506700Y-9347200D02*
X15608300Y-9448800D01*
X15608300Y-9347200D02*
X15506700Y-9448800D01*
X15557500Y-9347200D02*
X15557500Y-9448800D01*
X15506700Y-9398000D02*
X15608300Y-9398000D01*
X15506700Y-9601200D02*
X15608300Y-9702800D01*
X15608300Y-9601200D02*
X15506700Y-9702800D01*
X15557500Y-9601200D02*
X15557500Y-9702800D01*
X15506700Y-9652000D02*
X15608300Y-9652000D01*
X16678910Y-5369560D02*
X16780510Y-5471160D01*
X16780510Y-5369560D02*
X16678910Y-5471160D01*
X16729710Y-5369560D02*
X16729710Y-5471160D01*
X16678910Y-5420360D02*
X16780510Y-5420360D01*
X16932910Y-5369560D02*
X17034510Y-5471160D01*
X17034510Y-5369560D02*
X16932910Y-5471160D01*
X16983710Y-5369560D02*
X16983710Y-5471160D01*
X16932910Y-5420360D02*
X17034510Y-5420360D01*
X17186910Y-5369560D02*
X17288510Y-5471160D01*
X17288510Y-5369560D02*
X17186910Y-5471160D01*
X17237710Y-5369560D02*
X17237710Y-5471160D01*
X17186910Y-5420360D02*
X17288510Y-5420360D01*
X17440910Y-5369560D02*
X17542510Y-5471160D01*
X17542510Y-5369560D02*
X17440910Y-5471160D01*
X17491710Y-5369560D02*
X17491710Y-5471160D01*
X17440910Y-5420360D02*
X17542510Y-5420360D01*
X17593310Y-10195560D02*
X17694910Y-10297160D01*
X17694910Y-10195560D02*
X17593310Y-10297160D01*
X17644110Y-10195560D02*
X17644110Y-10297160D01*
X17593310Y-10246360D02*
X17694910Y-10246360D01*
X17694910Y-5369560D02*
X17796510Y-5471160D01*
X17796510Y-5369560D02*
X17694910Y-5471160D01*
X17745710Y-5369560D02*
X17745710Y-5471160D01*
X17694910Y-5420360D02*
X17796510Y-5420360D01*
X17847310Y-10195560D02*
X17948910Y-10297160D01*
X17948910Y-10195560D02*
X17847310Y-10297160D01*
X17898110Y-10195560D02*
X17898110Y-10297160D01*
X17847310Y-10246360D02*
X17948910Y-10246360D01*
X17948910Y-5369560D02*
X18050510Y-5471160D01*
X18050510Y-5369560D02*
X17948910Y-5471160D01*
X17999710Y-5369560D02*
X17999710Y-5471160D01*
X17948910Y-5420360D02*
X18050510Y-5420360D01*
X18101310Y-10195560D02*
X18202910Y-10297160D01*
X18202910Y-10195560D02*
X18101310Y-10297160D01*
X18152110Y-10195560D02*
X18152110Y-10297160D01*
X18101310Y-10246360D02*
X18202910Y-10246360D01*
X18202910Y-5369560D02*
X18304510Y-5471160D01*
X18304510Y-5369560D02*
X18202910Y-5471160D01*
X18253710Y-5369560D02*
X18253710Y-5471160D01*
X18202910Y-5420360D02*
X18304510Y-5420360D01*
X18355310Y-10195560D02*
X18456910Y-10297160D01*
X18456910Y-10195560D02*
X18355310Y-10297160D01*
X18406110Y-10195560D02*
X18406110Y-10297160D01*
X18355310Y-10246360D02*
X18456910Y-10246360D01*
X18456910Y-5369560D02*
X18558510Y-5471160D01*
X18558510Y-5369560D02*
X18456910Y-5471160D01*
X18507710Y-5369560D02*
X18507710Y-5471160D01*
X18456910Y-5420360D02*
X18558510Y-5420360D01*
X18609310Y-10195560D02*
X18710910Y-10297160D01*
X18710910Y-10195560D02*
X18609310Y-10297160D01*
X18660110Y-10195560D02*
X18660110Y-10297160D01*
X18609310Y-10246360D02*
X18710910Y-10246360D01*
X18710910Y-5369560D02*
X18812510Y-5471160D01*
X18812510Y-5369560D02*
X18710910Y-5471160D01*
X18761710Y-5369560D02*
X18761710Y-5471160D01*
X18710910Y-5420360D02*
X18812510Y-5420360D01*
X18863310Y-10195560D02*
X18964910Y-10297160D01*
X18964910Y-10195560D02*
X18863310Y-10297160D01*
X18914110Y-10195560D02*
X18914110Y-10297160D01*
X18863310Y-10246360D02*
X18964910Y-10246360D01*
X18964910Y-5369560D02*
X19066510Y-5471160D01*
X19066510Y-5369560D02*
X18964910Y-5471160D01*
X19015710Y-5369560D02*
X19015710Y-5471160D01*
X18964910Y-5420360D02*
X19066510Y-5420360D01*
X19117310Y-10195560D02*
X19218910Y-10297160D01*
X19218910Y-10195560D02*
X19117310Y-10297160D01*
X19168110Y-10195560D02*
X19168110Y-10297160D01*
X19117310Y-10246360D02*
X19218910Y-10246360D01*
X19371310Y-5369560D02*
X19472910Y-5471160D01*
X19472910Y-5369560D02*
X19371310Y-5471160D01*
X19422110Y-5369560D02*
X19422110Y-5471160D01*
X19371310Y-5420360D02*
X19472910Y-5420360D01*
X19371310Y-10195560D02*
X19472910Y-10297160D01*
X19472910Y-10195560D02*
X19371310Y-10297160D01*
X19422110Y-10195560D02*
X19422110Y-10297160D01*
X19371310Y-10246360D02*
X19472910Y-10246360D01*
X19625310Y-5369560D02*
X19726910Y-5471160D01*
X19726910Y-5369560D02*
X19625310Y-5471160D01*
X19676110Y-5369560D02*
X19676110Y-5471160D01*
X19625310Y-5420360D02*
X19726910Y-5420360D01*
X19879310Y-5369560D02*
X19980910Y-5471160D01*
X19980910Y-5369560D02*
X19879310Y-5471160D01*
X19930110Y-5369560D02*
X19930110Y-5471160D01*
X19879310Y-5420360D02*
X19980910Y-5420360D01*
X19879310Y-10195560D02*
X19980910Y-10297160D01*
X19980910Y-10195560D02*
X19879310Y-10297160D01*
X19930110Y-10195560D02*
X19930110Y-10297160D01*
X19879310Y-10246360D02*
X19980910Y-10246360D01*
X20133310Y-5369560D02*
X20234910Y-5471160D01*
X20234910Y-5369560D02*
X20133310Y-5471160D01*
X20184110Y-5369560D02*
X20184110Y-5471160D01*
X20133310Y-5420360D02*
X20234910Y-5420360D01*
X20133310Y-10195560D02*
X20234910Y-10297160D01*
X20234910Y-10195560D02*
X20133310Y-10297160D01*
X20184110Y-10195560D02*
X20184110Y-10297160D01*
X20133310Y-10246360D02*
X20234910Y-10246360D01*
X20387310Y-5369560D02*
X20488910Y-5471160D01*
X20488910Y-5369560D02*
X20387310Y-5471160D01*
X20438110Y-5369560D02*
X20438110Y-5471160D01*
X20387310Y-5420360D02*
X20488910Y-5420360D01*
X20387310Y-10195560D02*
X20488910Y-10297160D01*
X20488910Y-10195560D02*
X20387310Y-10297160D01*
X20438110Y-10195560D02*
X20438110Y-10297160D01*
X20387310Y-10246360D02*
X20488910Y-10246360D01*
X20641310Y-5369560D02*
X20742910Y-5471160D01*
X20742910Y-5369560D02*
X20641310Y-5471160D01*
X20692110Y-5369560D02*
X20692110Y-5471160D01*
X20641310Y-5420360D02*
X20742910Y-5420360D01*
X20641310Y-10195560D02*
X20742910Y-10297160D01*
X20742910Y-10195560D02*
X20641310Y-10297160D01*
X20692110Y-10195560D02*
X20692110Y-10297160D01*
X20641310Y-10246360D02*
X20742910Y-10246360D01*
X20895310Y-5369560D02*
X20996910Y-5471160D01*
X20996910Y-5369560D02*
X20895310Y-5471160D01*
X20946110Y-5369560D02*
X20946110Y-5471160D01*
X20895310Y-5420360D02*
X20996910Y-5420360D01*
X20895310Y-10195560D02*
X20996910Y-10297160D01*
X20996910Y-10195560D02*
X20895310Y-10297160D01*
X20946110Y-10195560D02*
X20946110Y-10297160D01*
X20895310Y-10246360D02*
X20996910Y-10246360D01*
X21149310Y-5369560D02*
X21250910Y-5471160D01*
X21250910Y-5369560D02*
X21149310Y-5471160D01*
X21200110Y-5369560D02*
X21200110Y-5471160D01*
X21149310Y-5420360D02*
X21250910Y-5420360D01*
X21149310Y-10195560D02*
X21250910Y-10297160D01*
X21250910Y-10195560D02*
X21149310Y-10297160D01*
X21200110Y-10195560D02*
X21200110Y-10297160D01*
X21149310Y-10246360D02*
X21250910Y-10246360D01*
D13*
X15100028Y-10986314D02*
X15100028Y-10686314D01*
X15171457Y-10686314D01*
X15214314Y-10700600D01*
X15242886Y-10729172D01*
X15257171Y-10757743D01*
X15271457Y-10814886D01*
X15271457Y-10857743D01*
X15257171Y-10914886D01*
X15242886Y-10943457D01*
X15214314Y-10972029D01*
X15171457Y-10986314D01*
X15100028Y-10986314D01*
X15400028Y-10986314D02*
X15400028Y-10786314D01*
X15400028Y-10843457D02*
X15414314Y-10814886D01*
X15428600Y-10800600D01*
X15457171Y-10786314D01*
X15485743Y-10786314D01*
X15585743Y-10986314D02*
X15585743Y-10786314D01*
X15585743Y-10686314D02*
X15571457Y-10700600D01*
X15585743Y-10714886D01*
X15600028Y-10700600D01*
X15585743Y-10686314D01*
X15585743Y-10714886D01*
X15771457Y-10986314D02*
X15742886Y-10972029D01*
X15728600Y-10943457D01*
X15728600Y-10686314D01*
X15928600Y-10986314D02*
X15900028Y-10972029D01*
X15885743Y-10943457D01*
X15885743Y-10686314D01*
X16271457Y-10986314D02*
X16271457Y-10686314D01*
X16371457Y-10900600D01*
X16471457Y-10686314D01*
X16471457Y-10986314D01*
X16742886Y-10986314D02*
X16742886Y-10829172D01*
X16728600Y-10800600D01*
X16700028Y-10786314D01*
X16642886Y-10786314D01*
X16614314Y-10800600D01*
X16742886Y-10972029D02*
X16714314Y-10986314D01*
X16642886Y-10986314D01*
X16614314Y-10972029D01*
X16600028Y-10943457D01*
X16600028Y-10914886D01*
X16614314Y-10886314D01*
X16642886Y-10872029D01*
X16714314Y-10872029D01*
X16742886Y-10857743D01*
X16885743Y-10786314D02*
X16885743Y-11086314D01*
X16885743Y-10800600D02*
X16914314Y-10786314D01*
X16971457Y-10786314D01*
X17000029Y-10800600D01*
X17014314Y-10814886D01*
X17028600Y-10843457D01*
X17028600Y-10929172D01*
X17014314Y-10957743D01*
X17000029Y-10972029D01*
X16971457Y-10986314D01*
X16914314Y-10986314D01*
X16885743Y-10972029D01*
X17157171Y-10957743D02*
X17171457Y-10972029D01*
X17157171Y-10986314D01*
X17142886Y-10972029D01*
X17157171Y-10957743D01*
X17157171Y-10986314D01*
X17157171Y-10800600D02*
X17171457Y-10814886D01*
X17157171Y-10829172D01*
X17142886Y-10814886D01*
X17157171Y-10800600D01*
X17157171Y-10829172D01*
X14783600Y-11458100D02*
X14828600Y-11503100D01*
X14828600Y-11458100D02*
X14783600Y-11503100D01*
X15157171Y-11316314D02*
X15185743Y-11316314D01*
X15214314Y-11330600D01*
X15228600Y-11344886D01*
X15242886Y-11373457D01*
X15257171Y-11430600D01*
X15257171Y-11502029D01*
X15242886Y-11559171D01*
X15228600Y-11587743D01*
X15214314Y-11602029D01*
X15185743Y-11616314D01*
X15157171Y-11616314D01*
X15128600Y-11602029D01*
X15114314Y-11587743D01*
X15100028Y-11559171D01*
X15085743Y-11502029D01*
X15085743Y-11430600D01*
X15100028Y-11373457D01*
X15114314Y-11344886D01*
X15128600Y-11330600D01*
X15157171Y-11316314D01*
X15385743Y-11587743D02*
X15400028Y-11602029D01*
X15385743Y-11616314D01*
X15371457Y-11602029D01*
X15385743Y-11587743D01*
X15385743Y-11616314D01*
X15657171Y-11416314D02*
X15657171Y-11616314D01*
X15585743Y-11302029D02*
X15514314Y-11516314D01*
X15700028Y-11516314D01*
X15957171Y-11316314D02*
X15814314Y-11316314D01*
X15800028Y-11459171D01*
X15814314Y-11444886D01*
X15842886Y-11430600D01*
X15914314Y-11430600D01*
X15942886Y-11444886D01*
X15957171Y-11459171D01*
X15971457Y-11487743D01*
X15971457Y-11559171D01*
X15957171Y-11587743D01*
X15942886Y-11602029D01*
X15914314Y-11616314D01*
X15842886Y-11616314D01*
X15814314Y-11602029D01*
X15800028Y-11587743D01*
X16100028Y-11616314D02*
X16100028Y-11416314D01*
X16100028Y-11444886D02*
X16114314Y-11430600D01*
X16142886Y-11416314D01*
X16185743Y-11416314D01*
X16214314Y-11430600D01*
X16228600Y-11459171D01*
X16228600Y-11616314D01*
X16228600Y-11459171D02*
X16242886Y-11430600D01*
X16271457Y-11416314D01*
X16314314Y-11416314D01*
X16342886Y-11430600D01*
X16357171Y-11459171D01*
X16357171Y-11616314D01*
X16500028Y-11616314D02*
X16500028Y-11416314D01*
X16500028Y-11444886D02*
X16514314Y-11430600D01*
X16542886Y-11416314D01*
X16585743Y-11416314D01*
X16614314Y-11430600D01*
X16628600Y-11459171D01*
X16628600Y-11616314D01*
X16628600Y-11459171D02*
X16642886Y-11430600D01*
X16671457Y-11416314D01*
X16714314Y-11416314D01*
X16742886Y-11430600D01*
X16757171Y-11459171D01*
X16757171Y-11616314D01*
X17342886Y-11302029D02*
X17085743Y-11687743D01*
X17728600Y-11316314D02*
X17757171Y-11316314D01*
X17785743Y-11330600D01*
X17800028Y-11344886D01*
X17814314Y-11373457D01*
X17828600Y-11430600D01*
X17828600Y-11502029D01*
X17814314Y-11559171D01*
X17800028Y-11587743D01*
X17785743Y-11602029D01*
X17757171Y-11616314D01*
X17728600Y-11616314D01*
X17700028Y-11602029D01*
X17685743Y-11587743D01*
X17671457Y-11559171D01*
X17657171Y-11502029D01*
X17657171Y-11430600D01*
X17671457Y-11373457D01*
X17685743Y-11344886D01*
X17700028Y-11330600D01*
X17728600Y-11316314D01*
X17957171Y-11587743D02*
X17971457Y-11602029D01*
X17957171Y-11616314D01*
X17942886Y-11602029D01*
X17957171Y-11587743D01*
X17957171Y-11616314D01*
X18157171Y-11316314D02*
X18185743Y-11316314D01*
X18214314Y-11330600D01*
X18228600Y-11344886D01*
X18242886Y-11373457D01*
X18257171Y-11430600D01*
X18257171Y-11502029D01*
X18242886Y-11559171D01*
X18228600Y-11587743D01*
X18214314Y-11602029D01*
X18185743Y-11616314D01*
X18157171Y-11616314D01*
X18128600Y-11602029D01*
X18114314Y-11587743D01*
X18100028Y-11559171D01*
X18085743Y-11502029D01*
X18085743Y-11430600D01*
X18100028Y-11373457D01*
X18114314Y-11344886D01*
X18128600Y-11330600D01*
X18157171Y-11316314D01*
X18542886Y-11616314D02*
X18371457Y-11616314D01*
X18457171Y-11616314D02*
X18457171Y-11316314D01*
X18428600Y-11359171D01*
X18400028Y-11387743D01*
X18371457Y-11402029D01*
X18714314Y-11444886D02*
X18685743Y-11430600D01*
X18671457Y-11416314D01*
X18657171Y-11387743D01*
X18657171Y-11373457D01*
X18671457Y-11344886D01*
X18685743Y-11330600D01*
X18714314Y-11316314D01*
X18771457Y-11316314D01*
X18800028Y-11330600D01*
X18814314Y-11344886D01*
X18828600Y-11373457D01*
X18828600Y-11387743D01*
X18814314Y-11416314D01*
X18800028Y-11430600D01*
X18771457Y-11444886D01*
X18714314Y-11444886D01*
X18685743Y-11459171D01*
X18671457Y-11473457D01*
X18657171Y-11502029D01*
X18657171Y-11559171D01*
X18671457Y-11587743D01*
X18685743Y-11602029D01*
X18714314Y-11616314D01*
X18771457Y-11616314D01*
X18800028Y-11602029D01*
X18814314Y-11587743D01*
X18828600Y-11559171D01*
X18828600Y-11502029D01*
X18814314Y-11473457D01*
X18800028Y-11459171D01*
X18771457Y-11444886D01*
X18942886Y-11316314D02*
X18942886Y-11373457D01*
X19057171Y-11316314D02*
X19057171Y-11373457D01*
X19500028Y-11730600D02*
X19485743Y-11716314D01*
X19457171Y-11673457D01*
X19442886Y-11644886D01*
X19428600Y-11602029D01*
X19414314Y-11530600D01*
X19414314Y-11473457D01*
X19428600Y-11402029D01*
X19442886Y-11359171D01*
X19457171Y-11330600D01*
X19485743Y-11287743D01*
X19500028Y-11273457D01*
X19585743Y-11316314D02*
X19771457Y-11316314D01*
X19671457Y-11430600D01*
X19714314Y-11430600D01*
X19742886Y-11444886D01*
X19757171Y-11459171D01*
X19771457Y-11487743D01*
X19771457Y-11559171D01*
X19757171Y-11587743D01*
X19742886Y-11602029D01*
X19714314Y-11616314D01*
X19628600Y-11616314D01*
X19600028Y-11602029D01*
X19585743Y-11587743D01*
X20128600Y-11616314D02*
X20128600Y-11316314D01*
X20257171Y-11616314D02*
X20257171Y-11459171D01*
X20242886Y-11430600D01*
X20214314Y-11416314D01*
X20171457Y-11416314D01*
X20142886Y-11430600D01*
X20128600Y-11444886D01*
X20442886Y-11616314D02*
X20414314Y-11602029D01*
X20400028Y-11587743D01*
X20385743Y-11559171D01*
X20385743Y-11473457D01*
X20400028Y-11444886D01*
X20414314Y-11430600D01*
X20442886Y-11416314D01*
X20485743Y-11416314D01*
X20514314Y-11430600D01*
X20528600Y-11444886D01*
X20542886Y-11473457D01*
X20542886Y-11559171D01*
X20528600Y-11587743D01*
X20514314Y-11602029D01*
X20485743Y-11616314D01*
X20442886Y-11616314D01*
X20714314Y-11616314D02*
X20685743Y-11602029D01*
X20671457Y-11573457D01*
X20671457Y-11316314D01*
X20942886Y-11602029D02*
X20914314Y-11616314D01*
X20857171Y-11616314D01*
X20828600Y-11602029D01*
X20814314Y-11573457D01*
X20814314Y-11459171D01*
X20828600Y-11430600D01*
X20857171Y-11416314D01*
X20914314Y-11416314D01*
X20942886Y-11430600D01*
X20957171Y-11459171D01*
X20957171Y-11487743D01*
X20814314Y-11516314D01*
X21071457Y-11602029D02*
X21100029Y-11616314D01*
X21157171Y-11616314D01*
X21185743Y-11602029D01*
X21200029Y-11573457D01*
X21200029Y-11559171D01*
X21185743Y-11530600D01*
X21157171Y-11516314D01*
X21114314Y-11516314D01*
X21085743Y-11502029D01*
X21071457Y-11473457D01*
X21071457Y-11459171D01*
X21085743Y-11430600D01*
X21114314Y-11416314D01*
X21157171Y-11416314D01*
X21185743Y-11430600D01*
X21300028Y-11730600D02*
X21314314Y-11716314D01*
X21342886Y-11673457D01*
X21357171Y-11644886D01*
X21371457Y-11602029D01*
X21385743Y-11530600D01*
X21385743Y-11473457D01*
X21371457Y-11402029D01*
X21357171Y-11359171D01*
X21342886Y-11330600D01*
X21314314Y-11287743D01*
X21300028Y-11273457D01*
X14828600Y-11876600D02*
G75*
G03X14828600Y-11876600I-35052J0D01*
G01*
X15157171Y-11712314D02*
X15185743Y-11712314D01*
X15214314Y-11726600D01*
X15228600Y-11740886D01*
X15242886Y-11769457D01*
X15257171Y-11826600D01*
X15257171Y-11898029D01*
X15242886Y-11955171D01*
X15228600Y-11983743D01*
X15214314Y-11998029D01*
X15185743Y-12012314D01*
X15157171Y-12012314D01*
X15128600Y-11998029D01*
X15114314Y-11983743D01*
X15100028Y-11955171D01*
X15085743Y-11898029D01*
X15085743Y-11826600D01*
X15100028Y-11769457D01*
X15114314Y-11740886D01*
X15128600Y-11726600D01*
X15157171Y-11712314D01*
X15385743Y-11983743D02*
X15400028Y-11998029D01*
X15385743Y-12012314D01*
X15371457Y-11998029D01*
X15385743Y-11983743D01*
X15385743Y-12012314D01*
X15500028Y-11712314D02*
X15700028Y-11712314D01*
X15571457Y-12012314D01*
X15871457Y-11712314D02*
X15900028Y-11712314D01*
X15928600Y-11726600D01*
X15942886Y-11740886D01*
X15957171Y-11769457D01*
X15971457Y-11826600D01*
X15971457Y-11898029D01*
X15957171Y-11955171D01*
X15942886Y-11983743D01*
X15928600Y-11998029D01*
X15900028Y-12012314D01*
X15871457Y-12012314D01*
X15842886Y-11998029D01*
X15828600Y-11983743D01*
X15814314Y-11955171D01*
X15800028Y-11898029D01*
X15800028Y-11826600D01*
X15814314Y-11769457D01*
X15828600Y-11740886D01*
X15842886Y-11726600D01*
X15871457Y-11712314D01*
X16100028Y-12012314D02*
X16100028Y-11812314D01*
X16100028Y-11840886D02*
X16114314Y-11826600D01*
X16142886Y-11812314D01*
X16185743Y-11812314D01*
X16214314Y-11826600D01*
X16228600Y-11855171D01*
X16228600Y-12012314D01*
X16228600Y-11855171D02*
X16242886Y-11826600D01*
X16271457Y-11812314D01*
X16314314Y-11812314D01*
X16342886Y-11826600D01*
X16357171Y-11855171D01*
X16357171Y-12012314D01*
X16500028Y-12012314D02*
X16500028Y-11812314D01*
X16500028Y-11840886D02*
X16514314Y-11826600D01*
X16542886Y-11812314D01*
X16585743Y-11812314D01*
X16614314Y-11826600D01*
X16628600Y-11855171D01*
X16628600Y-12012314D01*
X16628600Y-11855171D02*
X16642886Y-11826600D01*
X16671457Y-11812314D01*
X16714314Y-11812314D01*
X16742886Y-11826600D01*
X16757171Y-11855171D01*
X16757171Y-12012314D01*
X17342886Y-11698029D02*
X17085743Y-12083743D01*
X17728600Y-11712314D02*
X17757171Y-11712314D01*
X17785743Y-11726600D01*
X17800028Y-11740886D01*
X17814314Y-11769457D01*
X17828600Y-11826600D01*
X17828600Y-11898029D01*
X17814314Y-11955171D01*
X17800028Y-11983743D01*
X17785743Y-11998029D01*
X17757171Y-12012314D01*
X17728600Y-12012314D01*
X17700028Y-11998029D01*
X17685743Y-11983743D01*
X17671457Y-11955171D01*
X17657171Y-11898029D01*
X17657171Y-11826600D01*
X17671457Y-11769457D01*
X17685743Y-11740886D01*
X17700028Y-11726600D01*
X17728600Y-11712314D01*
X17957171Y-11983743D02*
X17971457Y-11998029D01*
X17957171Y-12012314D01*
X17942886Y-11998029D01*
X17957171Y-11983743D01*
X17957171Y-12012314D01*
X18157171Y-11712314D02*
X18185743Y-11712314D01*
X18214314Y-11726600D01*
X18228600Y-11740886D01*
X18242886Y-11769457D01*
X18257171Y-11826600D01*
X18257171Y-11898029D01*
X18242886Y-11955171D01*
X18228600Y-11983743D01*
X18214314Y-11998029D01*
X18185743Y-12012314D01*
X18157171Y-12012314D01*
X18128600Y-11998029D01*
X18114314Y-11983743D01*
X18100028Y-11955171D01*
X18085743Y-11898029D01*
X18085743Y-11826600D01*
X18100028Y-11769457D01*
X18114314Y-11740886D01*
X18128600Y-11726600D01*
X18157171Y-11712314D01*
X18371457Y-11740886D02*
X18385743Y-11726600D01*
X18414314Y-11712314D01*
X18485743Y-11712314D01*
X18514314Y-11726600D01*
X18528600Y-11740886D01*
X18542886Y-11769457D01*
X18542886Y-11798029D01*
X18528600Y-11840886D01*
X18357171Y-12012314D01*
X18542886Y-12012314D01*
X18714314Y-11840886D02*
X18685743Y-11826600D01*
X18671457Y-11812314D01*
X18657171Y-11783743D01*
X18657171Y-11769457D01*
X18671457Y-11740886D01*
X18685743Y-11726600D01*
X18714314Y-11712314D01*
X18771457Y-11712314D01*
X18800028Y-11726600D01*
X18814314Y-11740886D01*
X18828600Y-11769457D01*
X18828600Y-11783743D01*
X18814314Y-11812314D01*
X18800028Y-11826600D01*
X18771457Y-11840886D01*
X18714314Y-11840886D01*
X18685743Y-11855171D01*
X18671457Y-11869457D01*
X18657171Y-11898029D01*
X18657171Y-11955171D01*
X18671457Y-11983743D01*
X18685743Y-11998029D01*
X18714314Y-12012314D01*
X18771457Y-12012314D01*
X18800028Y-11998029D01*
X18814314Y-11983743D01*
X18828600Y-11955171D01*
X18828600Y-11898029D01*
X18814314Y-11869457D01*
X18800028Y-11855171D01*
X18771457Y-11840886D01*
X18942886Y-11712314D02*
X18942886Y-11769457D01*
X19057171Y-11712314D02*
X19057171Y-11769457D01*
X19500028Y-12126600D02*
X19485743Y-12112314D01*
X19457171Y-12069457D01*
X19442886Y-12040886D01*
X19428600Y-11998029D01*
X19414314Y-11926600D01*
X19414314Y-11869457D01*
X19428600Y-11798029D01*
X19442886Y-11755171D01*
X19457171Y-11726600D01*
X19485743Y-11683743D01*
X19500028Y-11669457D01*
X19742886Y-11712314D02*
X19685743Y-11712314D01*
X19657171Y-11726600D01*
X19642886Y-11740886D01*
X19614314Y-11783743D01*
X19600028Y-11840886D01*
X19600028Y-11955171D01*
X19614314Y-11983743D01*
X19628600Y-11998029D01*
X19657171Y-12012314D01*
X19714314Y-12012314D01*
X19742886Y-11998029D01*
X19757171Y-11983743D01*
X19771457Y-11955171D01*
X19771457Y-11883743D01*
X19757171Y-11855171D01*
X19742886Y-11840886D01*
X19714314Y-11826600D01*
X19657171Y-11826600D01*
X19628600Y-11840886D01*
X19614314Y-11855171D01*
X19600028Y-11883743D01*
X20128600Y-12012314D02*
X20128600Y-11712314D01*
X20257171Y-12012314D02*
X20257171Y-11855171D01*
X20242886Y-11826600D01*
X20214314Y-11812314D01*
X20171457Y-11812314D01*
X20142886Y-11826600D01*
X20128600Y-11840886D01*
X20442886Y-12012314D02*
X20414314Y-11998029D01*
X20400028Y-11983743D01*
X20385743Y-11955171D01*
X20385743Y-11869457D01*
X20400028Y-11840886D01*
X20414314Y-11826600D01*
X20442886Y-11812314D01*
X20485743Y-11812314D01*
X20514314Y-11826600D01*
X20528600Y-11840886D01*
X20542886Y-11869457D01*
X20542886Y-11955171D01*
X20528600Y-11983743D01*
X20514314Y-11998029D01*
X20485743Y-12012314D01*
X20442886Y-12012314D01*
X20714314Y-12012314D02*
X20685743Y-11998029D01*
X20671457Y-11969457D01*
X20671457Y-11712314D01*
X20942886Y-11998029D02*
X20914314Y-12012314D01*
X20857171Y-12012314D01*
X20828600Y-11998029D01*
X20814314Y-11969457D01*
X20814314Y-11855171D01*
X20828600Y-11826600D01*
X20857171Y-11812314D01*
X20914314Y-11812314D01*
X20942886Y-11826600D01*
X20957171Y-11855171D01*
X20957171Y-11883743D01*
X20814314Y-11912314D01*
X21071457Y-11998029D02*
X21100029Y-12012314D01*
X21157171Y-12012314D01*
X21185743Y-11998029D01*
X21200029Y-11969457D01*
X21200029Y-11955171D01*
X21185743Y-11926600D01*
X21157171Y-11912314D01*
X21114314Y-11912314D01*
X21085743Y-11898029D01*
X21071457Y-11869457D01*
X21071457Y-11855171D01*
X21085743Y-11826600D01*
X21114314Y-11812314D01*
X21157171Y-11812314D01*
X21185743Y-11826600D01*
X21300028Y-12126600D02*
X21314314Y-12112314D01*
X21342886Y-12069457D01*
X21357171Y-12040886D01*
X21371457Y-11998029D01*
X21385743Y-11926600D01*
X21385743Y-11869457D01*
X21371457Y-11798029D01*
X21357171Y-11755171D01*
X21342886Y-11726600D01*
X21314314Y-11683743D01*
X21300028Y-11669457D01*
X14788595Y-12232595D02*
X14788595Y-12312605D01*
X14748590Y-12272600D02*
X14828600Y-12272600D01*
X15157171Y-12108314D02*
X15185743Y-12108314D01*
X15214314Y-12122600D01*
X15228600Y-12136886D01*
X15242886Y-12165457D01*
X15257171Y-12222600D01*
X15257171Y-12294029D01*
X15242886Y-12351171D01*
X15228600Y-12379743D01*
X15214314Y-12394029D01*
X15185743Y-12408314D01*
X15157171Y-12408314D01*
X15128600Y-12394029D01*
X15114314Y-12379743D01*
X15100028Y-12351171D01*
X15085743Y-12294029D01*
X15085743Y-12222600D01*
X15100028Y-12165457D01*
X15114314Y-12136886D01*
X15128600Y-12122600D01*
X15157171Y-12108314D01*
X15385743Y-12379743D02*
X15400028Y-12394029D01*
X15385743Y-12408314D01*
X15371457Y-12394029D01*
X15385743Y-12379743D01*
X15385743Y-12408314D01*
X15571457Y-12236886D02*
X15542886Y-12222600D01*
X15528600Y-12208314D01*
X15514314Y-12179743D01*
X15514314Y-12165457D01*
X15528600Y-12136886D01*
X15542886Y-12122600D01*
X15571457Y-12108314D01*
X15628600Y-12108314D01*
X15657171Y-12122600D01*
X15671457Y-12136886D01*
X15685743Y-12165457D01*
X15685743Y-12179743D01*
X15671457Y-12208314D01*
X15657171Y-12222600D01*
X15628600Y-12236886D01*
X15571457Y-12236886D01*
X15542886Y-12251171D01*
X15528600Y-12265457D01*
X15514314Y-12294029D01*
X15514314Y-12351171D01*
X15528600Y-12379743D01*
X15542886Y-12394029D01*
X15571457Y-12408314D01*
X15628600Y-12408314D01*
X15657171Y-12394029D01*
X15671457Y-12379743D01*
X15685743Y-12351171D01*
X15685743Y-12294029D01*
X15671457Y-12265457D01*
X15657171Y-12251171D01*
X15628600Y-12236886D01*
X15871457Y-12108314D02*
X15900028Y-12108314D01*
X15928600Y-12122600D01*
X15942886Y-12136886D01*
X15957171Y-12165457D01*
X15971457Y-12222600D01*
X15971457Y-12294029D01*
X15957171Y-12351171D01*
X15942886Y-12379743D01*
X15928600Y-12394029D01*
X15900028Y-12408314D01*
X15871457Y-12408314D01*
X15842886Y-12394029D01*
X15828600Y-12379743D01*
X15814314Y-12351171D01*
X15800028Y-12294029D01*
X15800028Y-12222600D01*
X15814314Y-12165457D01*
X15828600Y-12136886D01*
X15842886Y-12122600D01*
X15871457Y-12108314D01*
X16100028Y-12408314D02*
X16100028Y-12208314D01*
X16100028Y-12236886D02*
X16114314Y-12222600D01*
X16142886Y-12208314D01*
X16185743Y-12208314D01*
X16214314Y-12222600D01*
X16228600Y-12251171D01*
X16228600Y-12408314D01*
X16228600Y-12251171D02*
X16242886Y-12222600D01*
X16271457Y-12208314D01*
X16314314Y-12208314D01*
X16342886Y-12222600D01*
X16357171Y-12251171D01*
X16357171Y-12408314D01*
X16500028Y-12408314D02*
X16500028Y-12208314D01*
X16500028Y-12236886D02*
X16514314Y-12222600D01*
X16542886Y-12208314D01*
X16585743Y-12208314D01*
X16614314Y-12222600D01*
X16628600Y-12251171D01*
X16628600Y-12408314D01*
X16628600Y-12251171D02*
X16642886Y-12222600D01*
X16671457Y-12208314D01*
X16714314Y-12208314D01*
X16742886Y-12222600D01*
X16757171Y-12251171D01*
X16757171Y-12408314D01*
X17342886Y-12094029D02*
X17085743Y-12479743D01*
X17728600Y-12108314D02*
X17757171Y-12108314D01*
X17785743Y-12122600D01*
X17800028Y-12136886D01*
X17814314Y-12165457D01*
X17828600Y-12222600D01*
X17828600Y-12294029D01*
X17814314Y-12351171D01*
X17800028Y-12379743D01*
X17785743Y-12394029D01*
X17757171Y-12408314D01*
X17728600Y-12408314D01*
X17700028Y-12394029D01*
X17685743Y-12379743D01*
X17671457Y-12351171D01*
X17657171Y-12294029D01*
X17657171Y-12222600D01*
X17671457Y-12165457D01*
X17685743Y-12136886D01*
X17700028Y-12122600D01*
X17728600Y-12108314D01*
X17957171Y-12379743D02*
X17971457Y-12394029D01*
X17957171Y-12408314D01*
X17942886Y-12394029D01*
X17957171Y-12379743D01*
X17957171Y-12408314D01*
X18157171Y-12108314D02*
X18185743Y-12108314D01*
X18214314Y-12122600D01*
X18228600Y-12136886D01*
X18242886Y-12165457D01*
X18257171Y-12222600D01*
X18257171Y-12294029D01*
X18242886Y-12351171D01*
X18228600Y-12379743D01*
X18214314Y-12394029D01*
X18185743Y-12408314D01*
X18157171Y-12408314D01*
X18128600Y-12394029D01*
X18114314Y-12379743D01*
X18100028Y-12351171D01*
X18085743Y-12294029D01*
X18085743Y-12222600D01*
X18100028Y-12165457D01*
X18114314Y-12136886D01*
X18128600Y-12122600D01*
X18157171Y-12108314D01*
X18357171Y-12108314D02*
X18542886Y-12108314D01*
X18442886Y-12222600D01*
X18485743Y-12222600D01*
X18514314Y-12236886D01*
X18528600Y-12251171D01*
X18542886Y-12279743D01*
X18542886Y-12351171D01*
X18528600Y-12379743D01*
X18514314Y-12394029D01*
X18485743Y-12408314D01*
X18400028Y-12408314D01*
X18371457Y-12394029D01*
X18357171Y-12379743D01*
X18657171Y-12136886D02*
X18671457Y-12122600D01*
X18700028Y-12108314D01*
X18771457Y-12108314D01*
X18800028Y-12122600D01*
X18814314Y-12136886D01*
X18828600Y-12165457D01*
X18828600Y-12194029D01*
X18814314Y-12236886D01*
X18642886Y-12408314D01*
X18828600Y-12408314D01*
X18942886Y-12108314D02*
X18942886Y-12165457D01*
X19057171Y-12108314D02*
X19057171Y-12165457D01*
X19500028Y-12522600D02*
X19485743Y-12508314D01*
X19457171Y-12465457D01*
X19442886Y-12436886D01*
X19428600Y-12394029D01*
X19414314Y-12322600D01*
X19414314Y-12265457D01*
X19428600Y-12194029D01*
X19442886Y-12151171D01*
X19457171Y-12122600D01*
X19485743Y-12079743D01*
X19500028Y-12065457D01*
X19600028Y-12136886D02*
X19614314Y-12122600D01*
X19642886Y-12108314D01*
X19714314Y-12108314D01*
X19742886Y-12122600D01*
X19757171Y-12136886D01*
X19771457Y-12165457D01*
X19771457Y-12194029D01*
X19757171Y-12236886D01*
X19585743Y-12408314D01*
X19771457Y-12408314D01*
X20128600Y-12408314D02*
X20128600Y-12108314D01*
X20257171Y-12408314D02*
X20257171Y-12251171D01*
X20242886Y-12222600D01*
X20214314Y-12208314D01*
X20171457Y-12208314D01*
X20142886Y-12222600D01*
X20128600Y-12236886D01*
X20442886Y-12408314D02*
X20414314Y-12394029D01*
X20400028Y-12379743D01*
X20385743Y-12351171D01*
X20385743Y-12265457D01*
X20400028Y-12236886D01*
X20414314Y-12222600D01*
X20442886Y-12208314D01*
X20485743Y-12208314D01*
X20514314Y-12222600D01*
X20528600Y-12236886D01*
X20542886Y-12265457D01*
X20542886Y-12351171D01*
X20528600Y-12379743D01*
X20514314Y-12394029D01*
X20485743Y-12408314D01*
X20442886Y-12408314D01*
X20714314Y-12408314D02*
X20685743Y-12394029D01*
X20671457Y-12365457D01*
X20671457Y-12108314D01*
X20942886Y-12394029D02*
X20914314Y-12408314D01*
X20857171Y-12408314D01*
X20828600Y-12394029D01*
X20814314Y-12365457D01*
X20814314Y-12251171D01*
X20828600Y-12222600D01*
X20857171Y-12208314D01*
X20914314Y-12208314D01*
X20942886Y-12222600D01*
X20957171Y-12251171D01*
X20957171Y-12279743D01*
X20814314Y-12308314D01*
X21071457Y-12394029D02*
X21100029Y-12408314D01*
X21157171Y-12408314D01*
X21185743Y-12394029D01*
X21200029Y-12365457D01*
X21200029Y-12351171D01*
X21185743Y-12322600D01*
X21157171Y-12308314D01*
X21114314Y-12308314D01*
X21085743Y-12294029D01*
X21071457Y-12265457D01*
X21071457Y-12251171D01*
X21085743Y-12222600D01*
X21114314Y-12208314D01*
X21157171Y-12208314D01*
X21185743Y-12222600D01*
X21300028Y-12522600D02*
X21314314Y-12508314D01*
X21342886Y-12465457D01*
X21357171Y-12436886D01*
X21371457Y-12394029D01*
X21385743Y-12322600D01*
X21385743Y-12265457D01*
X21371457Y-12194029D01*
X21357171Y-12151171D01*
X21342886Y-12122600D01*
X21314314Y-12079743D01*
X21300028Y-12065457D01*
X14816697Y-12697337D02*
X14816697Y-12639863D01*
X14759223Y-12639863D01*
X14759223Y-12697337D01*
X14816697Y-12697337D01*
X15157171Y-12504314D02*
X15185743Y-12504314D01*
X15214314Y-12518600D01*
X15228600Y-12532886D01*
X15242886Y-12561457D01*
X15257171Y-12618600D01*
X15257171Y-12690029D01*
X15242886Y-12747171D01*
X15228600Y-12775743D01*
X15214314Y-12790029D01*
X15185743Y-12804314D01*
X15157171Y-12804314D01*
X15128600Y-12790029D01*
X15114314Y-12775743D01*
X15100028Y-12747171D01*
X15085743Y-12690029D01*
X15085743Y-12618600D01*
X15100028Y-12561457D01*
X15114314Y-12532886D01*
X15128600Y-12518600D01*
X15157171Y-12504314D01*
X15385743Y-12775743D02*
X15400028Y-12790029D01*
X15385743Y-12804314D01*
X15371457Y-12790029D01*
X15385743Y-12775743D01*
X15385743Y-12804314D01*
X15571457Y-12632886D02*
X15542886Y-12618600D01*
X15528600Y-12604314D01*
X15514314Y-12575743D01*
X15514314Y-12561457D01*
X15528600Y-12532886D01*
X15542886Y-12518600D01*
X15571457Y-12504314D01*
X15628600Y-12504314D01*
X15657171Y-12518600D01*
X15671457Y-12532886D01*
X15685743Y-12561457D01*
X15685743Y-12575743D01*
X15671457Y-12604314D01*
X15657171Y-12618600D01*
X15628600Y-12632886D01*
X15571457Y-12632886D01*
X15542886Y-12647171D01*
X15528600Y-12661457D01*
X15514314Y-12690029D01*
X15514314Y-12747171D01*
X15528600Y-12775743D01*
X15542886Y-12790029D01*
X15571457Y-12804314D01*
X15628600Y-12804314D01*
X15657171Y-12790029D01*
X15671457Y-12775743D01*
X15685743Y-12747171D01*
X15685743Y-12690029D01*
X15671457Y-12661457D01*
X15657171Y-12647171D01*
X15628600Y-12632886D01*
X15971457Y-12804314D02*
X15800028Y-12804314D01*
X15885743Y-12804314D02*
X15885743Y-12504314D01*
X15857171Y-12547171D01*
X15828600Y-12575743D01*
X15800028Y-12590029D01*
X16100028Y-12804314D02*
X16100028Y-12604314D01*
X16100028Y-12632886D02*
X16114314Y-12618600D01*
X16142886Y-12604314D01*
X16185743Y-12604314D01*
X16214314Y-12618600D01*
X16228600Y-12647171D01*
X16228600Y-12804314D01*
X16228600Y-12647171D02*
X16242886Y-12618600D01*
X16271457Y-12604314D01*
X16314314Y-12604314D01*
X16342886Y-12618600D01*
X16357171Y-12647171D01*
X16357171Y-12804314D01*
X16500028Y-12804314D02*
X16500028Y-12604314D01*
X16500028Y-12632886D02*
X16514314Y-12618600D01*
X16542886Y-12604314D01*
X16585743Y-12604314D01*
X16614314Y-12618600D01*
X16628600Y-12647171D01*
X16628600Y-12804314D01*
X16628600Y-12647171D02*
X16642886Y-12618600D01*
X16671457Y-12604314D01*
X16714314Y-12604314D01*
X16742886Y-12618600D01*
X16757171Y-12647171D01*
X16757171Y-12804314D01*
X17342886Y-12490029D02*
X17085743Y-12875743D01*
X17728600Y-12504314D02*
X17757171Y-12504314D01*
X17785743Y-12518600D01*
X17800028Y-12532886D01*
X17814314Y-12561457D01*
X17828600Y-12618600D01*
X17828600Y-12690029D01*
X17814314Y-12747171D01*
X17800028Y-12775743D01*
X17785743Y-12790029D01*
X17757171Y-12804314D01*
X17728600Y-12804314D01*
X17700028Y-12790029D01*
X17685743Y-12775743D01*
X17671457Y-12747171D01*
X17657171Y-12690029D01*
X17657171Y-12618600D01*
X17671457Y-12561457D01*
X17685743Y-12532886D01*
X17700028Y-12518600D01*
X17728600Y-12504314D01*
X17957171Y-12775743D02*
X17971457Y-12790029D01*
X17957171Y-12804314D01*
X17942886Y-12790029D01*
X17957171Y-12775743D01*
X17957171Y-12804314D01*
X18157171Y-12504314D02*
X18185743Y-12504314D01*
X18214314Y-12518600D01*
X18228600Y-12532886D01*
X18242886Y-12561457D01*
X18257171Y-12618600D01*
X18257171Y-12690029D01*
X18242886Y-12747171D01*
X18228600Y-12775743D01*
X18214314Y-12790029D01*
X18185743Y-12804314D01*
X18157171Y-12804314D01*
X18128600Y-12790029D01*
X18114314Y-12775743D01*
X18100028Y-12747171D01*
X18085743Y-12690029D01*
X18085743Y-12618600D01*
X18100028Y-12561457D01*
X18114314Y-12532886D01*
X18128600Y-12518600D01*
X18157171Y-12504314D01*
X18357171Y-12504314D02*
X18542886Y-12504314D01*
X18442886Y-12618600D01*
X18485743Y-12618600D01*
X18514314Y-12632886D01*
X18528600Y-12647171D01*
X18542886Y-12675743D01*
X18542886Y-12747171D01*
X18528600Y-12775743D01*
X18514314Y-12790029D01*
X18485743Y-12804314D01*
X18400028Y-12804314D01*
X18371457Y-12790029D01*
X18357171Y-12775743D01*
X18657171Y-12532886D02*
X18671457Y-12518600D01*
X18700028Y-12504314D01*
X18771457Y-12504314D01*
X18800028Y-12518600D01*
X18814314Y-12532886D01*
X18828600Y-12561457D01*
X18828600Y-12590029D01*
X18814314Y-12632886D01*
X18642886Y-12804314D01*
X18828600Y-12804314D01*
X18942886Y-12504314D02*
X18942886Y-12561457D01*
X19057171Y-12504314D02*
X19057171Y-12561457D01*
X19500028Y-12918600D02*
X19485743Y-12904314D01*
X19457171Y-12861457D01*
X19442886Y-12832886D01*
X19428600Y-12790029D01*
X19414314Y-12718600D01*
X19414314Y-12661457D01*
X19428600Y-12590029D01*
X19442886Y-12547171D01*
X19457171Y-12518600D01*
X19485743Y-12475743D01*
X19500028Y-12461457D01*
X19600028Y-12532886D02*
X19614314Y-12518600D01*
X19642886Y-12504314D01*
X19714314Y-12504314D01*
X19742886Y-12518600D01*
X19757171Y-12532886D01*
X19771457Y-12561457D01*
X19771457Y-12590029D01*
X19757171Y-12632886D01*
X19585743Y-12804314D01*
X19771457Y-12804314D01*
X19957171Y-12504314D02*
X19985743Y-12504314D01*
X20014314Y-12518600D01*
X20028600Y-12532886D01*
X20042886Y-12561457D01*
X20057171Y-12618600D01*
X20057171Y-12690029D01*
X20042886Y-12747171D01*
X20028600Y-12775743D01*
X20014314Y-12790029D01*
X19985743Y-12804314D01*
X19957171Y-12804314D01*
X19928600Y-12790029D01*
X19914314Y-12775743D01*
X19900028Y-12747171D01*
X19885743Y-12690029D01*
X19885743Y-12618600D01*
X19900028Y-12561457D01*
X19914314Y-12532886D01*
X19928600Y-12518600D01*
X19957171Y-12504314D01*
X20414314Y-12804314D02*
X20414314Y-12504314D01*
X20542886Y-12804314D02*
X20542886Y-12647171D01*
X20528600Y-12618600D01*
X20500028Y-12604314D01*
X20457171Y-12604314D01*
X20428600Y-12618600D01*
X20414314Y-12632886D01*
X20728600Y-12804314D02*
X20700028Y-12790029D01*
X20685743Y-12775743D01*
X20671457Y-12747171D01*
X20671457Y-12661457D01*
X20685743Y-12632886D01*
X20700028Y-12618600D01*
X20728600Y-12604314D01*
X20771457Y-12604314D01*
X20800028Y-12618600D01*
X20814314Y-12632886D01*
X20828600Y-12661457D01*
X20828600Y-12747171D01*
X20814314Y-12775743D01*
X20800028Y-12790029D01*
X20771457Y-12804314D01*
X20728600Y-12804314D01*
X21000028Y-12804314D02*
X20971457Y-12790029D01*
X20957171Y-12761457D01*
X20957171Y-12504314D01*
X21228600Y-12790029D02*
X21200029Y-12804314D01*
X21142886Y-12804314D01*
X21114314Y-12790029D01*
X21100029Y-12761457D01*
X21100029Y-12647171D01*
X21114314Y-12618600D01*
X21142886Y-12604314D01*
X21200029Y-12604314D01*
X21228600Y-12618600D01*
X21242886Y-12647171D01*
X21242886Y-12675743D01*
X21100029Y-12704314D01*
X21357171Y-12790029D02*
X21385743Y-12804314D01*
X21442886Y-12804314D01*
X21471457Y-12790029D01*
X21485743Y-12761457D01*
X21485743Y-12747171D01*
X21471457Y-12718600D01*
X21442886Y-12704314D01*
X21400029Y-12704314D01*
X21371457Y-12690029D01*
X21357171Y-12661457D01*
X21357171Y-12647171D01*
X21371457Y-12618600D01*
X21400029Y-12604314D01*
X21442886Y-12604314D01*
X21471457Y-12618600D01*
X21585743Y-12918600D02*
X21600029Y-12904314D01*
X21628600Y-12861457D01*
X21642886Y-12832886D01*
X21657171Y-12790029D01*
X21671457Y-12718600D01*
X21671457Y-12661457D01*
X21657171Y-12590029D01*
X21642886Y-12547171D01*
X21628600Y-12518600D01*
X21600029Y-12475743D01*
X21585743Y-12461457D01*
X14778600Y-13114600D02*
X14828600Y-13064600D01*
X14778600Y-13014600D01*
X14728600Y-13064600D01*
X14778600Y-13114600D01*
X15257171Y-13200314D02*
X15085743Y-13200314D01*
X15171457Y-13200314D02*
X15171457Y-12900314D01*
X15142886Y-12943171D01*
X15114314Y-12971743D01*
X15085743Y-12986029D01*
X15385743Y-13171743D02*
X15400028Y-13186029D01*
X15385743Y-13200314D01*
X15371457Y-13186029D01*
X15385743Y-13171743D01*
X15385743Y-13200314D01*
X15585743Y-12900314D02*
X15614314Y-12900314D01*
X15642886Y-12914600D01*
X15657171Y-12928886D01*
X15671457Y-12957457D01*
X15685743Y-13014600D01*
X15685743Y-13086029D01*
X15671457Y-13143171D01*
X15657171Y-13171743D01*
X15642886Y-13186029D01*
X15614314Y-13200314D01*
X15585743Y-13200314D01*
X15557171Y-13186029D01*
X15542886Y-13171743D01*
X15528600Y-13143171D01*
X15514314Y-13086029D01*
X15514314Y-13014600D01*
X15528600Y-12957457D01*
X15542886Y-12928886D01*
X15557171Y-12914600D01*
X15585743Y-12900314D01*
X15871457Y-12900314D02*
X15900028Y-12900314D01*
X15928600Y-12914600D01*
X15942886Y-12928886D01*
X15957171Y-12957457D01*
X15971457Y-13014600D01*
X15971457Y-13086029D01*
X15957171Y-13143171D01*
X15942886Y-13171743D01*
X15928600Y-13186029D01*
X15900028Y-13200314D01*
X15871457Y-13200314D01*
X15842886Y-13186029D01*
X15828600Y-13171743D01*
X15814314Y-13143171D01*
X15800028Y-13086029D01*
X15800028Y-13014600D01*
X15814314Y-12957457D01*
X15828600Y-12928886D01*
X15842886Y-12914600D01*
X15871457Y-12900314D01*
X16100028Y-13200314D02*
X16100028Y-13000314D01*
X16100028Y-13028886D02*
X16114314Y-13014600D01*
X16142886Y-13000314D01*
X16185743Y-13000314D01*
X16214314Y-13014600D01*
X16228600Y-13043171D01*
X16228600Y-13200314D01*
X16228600Y-13043171D02*
X16242886Y-13014600D01*
X16271457Y-13000314D01*
X16314314Y-13000314D01*
X16342886Y-13014600D01*
X16357171Y-13043171D01*
X16357171Y-13200314D01*
X16500028Y-13200314D02*
X16500028Y-13000314D01*
X16500028Y-13028886D02*
X16514314Y-13014600D01*
X16542886Y-13000314D01*
X16585743Y-13000314D01*
X16614314Y-13014600D01*
X16628600Y-13043171D01*
X16628600Y-13200314D01*
X16628600Y-13043171D02*
X16642886Y-13014600D01*
X16671457Y-13000314D01*
X16714314Y-13000314D01*
X16742886Y-13014600D01*
X16757171Y-13043171D01*
X16757171Y-13200314D01*
X17342886Y-12886029D02*
X17085743Y-13271743D01*
X17728600Y-12900314D02*
X17757171Y-12900314D01*
X17785743Y-12914600D01*
X17800028Y-12928886D01*
X17814314Y-12957457D01*
X17828600Y-13014600D01*
X17828600Y-13086029D01*
X17814314Y-13143171D01*
X17800028Y-13171743D01*
X17785743Y-13186029D01*
X17757171Y-13200314D01*
X17728600Y-13200314D01*
X17700028Y-13186029D01*
X17685743Y-13171743D01*
X17671457Y-13143171D01*
X17657171Y-13086029D01*
X17657171Y-13014600D01*
X17671457Y-12957457D01*
X17685743Y-12928886D01*
X17700028Y-12914600D01*
X17728600Y-12900314D01*
X17957171Y-13171743D02*
X17971457Y-13186029D01*
X17957171Y-13200314D01*
X17942886Y-13186029D01*
X17957171Y-13171743D01*
X17957171Y-13200314D01*
X18157171Y-12900314D02*
X18185743Y-12900314D01*
X18214314Y-12914600D01*
X18228600Y-12928886D01*
X18242886Y-12957457D01*
X18257171Y-13014600D01*
X18257171Y-13086029D01*
X18242886Y-13143171D01*
X18228600Y-13171743D01*
X18214314Y-13186029D01*
X18185743Y-13200314D01*
X18157171Y-13200314D01*
X18128600Y-13186029D01*
X18114314Y-13171743D01*
X18100028Y-13143171D01*
X18085743Y-13086029D01*
X18085743Y-13014600D01*
X18100028Y-12957457D01*
X18114314Y-12928886D01*
X18128600Y-12914600D01*
X18157171Y-12900314D01*
X18357171Y-12900314D02*
X18542886Y-12900314D01*
X18442886Y-13014600D01*
X18485743Y-13014600D01*
X18514314Y-13028886D01*
X18528600Y-13043171D01*
X18542886Y-13071743D01*
X18542886Y-13143171D01*
X18528600Y-13171743D01*
X18514314Y-13186029D01*
X18485743Y-13200314D01*
X18400028Y-13200314D01*
X18371457Y-13186029D01*
X18357171Y-13171743D01*
X18685743Y-13200314D02*
X18742886Y-13200314D01*
X18771457Y-13186029D01*
X18785743Y-13171743D01*
X18814314Y-13128886D01*
X18828600Y-13071743D01*
X18828600Y-12957457D01*
X18814314Y-12928886D01*
X18800028Y-12914600D01*
X18771457Y-12900314D01*
X18714314Y-12900314D01*
X18685743Y-12914600D01*
X18671457Y-12928886D01*
X18657171Y-12957457D01*
X18657171Y-13028886D01*
X18671457Y-13057457D01*
X18685743Y-13071743D01*
X18714314Y-13086029D01*
X18771457Y-13086029D01*
X18800028Y-13071743D01*
X18814314Y-13057457D01*
X18828600Y-13028886D01*
X18942886Y-12900314D02*
X18942886Y-12957457D01*
X19057171Y-12900314D02*
X19057171Y-12957457D01*
X19500028Y-13314600D02*
X19485743Y-13300314D01*
X19457171Y-13257457D01*
X19442886Y-13228886D01*
X19428600Y-13186029D01*
X19414314Y-13114600D01*
X19414314Y-13057457D01*
X19428600Y-12986029D01*
X19442886Y-12943171D01*
X19457171Y-12914600D01*
X19485743Y-12871743D01*
X19500028Y-12857457D01*
X19585743Y-12900314D02*
X19771457Y-12900314D01*
X19671457Y-13014600D01*
X19714314Y-13014600D01*
X19742886Y-13028886D01*
X19757171Y-13043171D01*
X19771457Y-13071743D01*
X19771457Y-13143171D01*
X19757171Y-13171743D01*
X19742886Y-13186029D01*
X19714314Y-13200314D01*
X19628600Y-13200314D01*
X19600028Y-13186029D01*
X19585743Y-13171743D01*
X20128600Y-13200314D02*
X20128600Y-12900314D01*
X20257171Y-13200314D02*
X20257171Y-13043171D01*
X20242886Y-13014600D01*
X20214314Y-13000314D01*
X20171457Y-13000314D01*
X20142886Y-13014600D01*
X20128600Y-13028886D01*
X20442886Y-13200314D02*
X20414314Y-13186029D01*
X20400028Y-13171743D01*
X20385743Y-13143171D01*
X20385743Y-13057457D01*
X20400028Y-13028886D01*
X20414314Y-13014600D01*
X20442886Y-13000314D01*
X20485743Y-13000314D01*
X20514314Y-13014600D01*
X20528600Y-13028886D01*
X20542886Y-13057457D01*
X20542886Y-13143171D01*
X20528600Y-13171743D01*
X20514314Y-13186029D01*
X20485743Y-13200314D01*
X20442886Y-13200314D01*
X20714314Y-13200314D02*
X20685743Y-13186029D01*
X20671457Y-13157457D01*
X20671457Y-12900314D01*
X20942886Y-13186029D02*
X20914314Y-13200314D01*
X20857171Y-13200314D01*
X20828600Y-13186029D01*
X20814314Y-13157457D01*
X20814314Y-13043171D01*
X20828600Y-13014600D01*
X20857171Y-13000314D01*
X20914314Y-13000314D01*
X20942886Y-13014600D01*
X20957171Y-13043171D01*
X20957171Y-13071743D01*
X20814314Y-13100314D01*
X21071457Y-13186029D02*
X21100029Y-13200314D01*
X21157171Y-13200314D01*
X21185743Y-13186029D01*
X21200029Y-13157457D01*
X21200029Y-13143171D01*
X21185743Y-13114600D01*
X21157171Y-13100314D01*
X21114314Y-13100314D01*
X21085743Y-13086029D01*
X21071457Y-13057457D01*
X21071457Y-13043171D01*
X21085743Y-13014600D01*
X21114314Y-13000314D01*
X21157171Y-13000314D01*
X21185743Y-13014600D01*
X21300028Y-13314600D02*
X21314314Y-13300314D01*
X21342886Y-13257457D01*
X21357171Y-13228886D01*
X21371457Y-13186029D01*
X21385743Y-13114600D01*
X21385743Y-13057457D01*
X21371457Y-12986029D01*
X21357171Y-12943171D01*
X21342886Y-12914600D01*
X21314314Y-12871743D01*
X21300028Y-12857457D01*
X14728524Y-13410562D02*
X14828600Y-13510638D01*
X14828600Y-13410562D02*
X14728524Y-13510638D01*
X14828600Y-13460600D02*
G75*
G03X14828600Y-13460600I-50038J0D01*
G01*
X15257171Y-13596314D02*
X15085743Y-13596314D01*
X15171457Y-13596314D02*
X15171457Y-13296314D01*
X15142886Y-13339171D01*
X15114314Y-13367743D01*
X15085743Y-13382029D01*
X15385743Y-13567743D02*
X15400028Y-13582029D01*
X15385743Y-13596314D01*
X15371457Y-13582029D01*
X15385743Y-13567743D01*
X15385743Y-13596314D01*
X15585743Y-13296314D02*
X15614314Y-13296314D01*
X15642886Y-13310600D01*
X15657171Y-13324886D01*
X15671457Y-13353457D01*
X15685743Y-13410600D01*
X15685743Y-13482029D01*
X15671457Y-13539171D01*
X15657171Y-13567743D01*
X15642886Y-13582029D01*
X15614314Y-13596314D01*
X15585743Y-13596314D01*
X15557171Y-13582029D01*
X15542886Y-13567743D01*
X15528600Y-13539171D01*
X15514314Y-13482029D01*
X15514314Y-13410600D01*
X15528600Y-13353457D01*
X15542886Y-13324886D01*
X15557171Y-13310600D01*
X15585743Y-13296314D01*
X15871457Y-13296314D02*
X15900028Y-13296314D01*
X15928600Y-13310600D01*
X15942886Y-13324886D01*
X15957171Y-13353457D01*
X15971457Y-13410600D01*
X15971457Y-13482029D01*
X15957171Y-13539171D01*
X15942886Y-13567743D01*
X15928600Y-13582029D01*
X15900028Y-13596314D01*
X15871457Y-13596314D01*
X15842886Y-13582029D01*
X15828600Y-13567743D01*
X15814314Y-13539171D01*
X15800028Y-13482029D01*
X15800028Y-13410600D01*
X15814314Y-13353457D01*
X15828600Y-13324886D01*
X15842886Y-13310600D01*
X15871457Y-13296314D01*
X16100028Y-13596314D02*
X16100028Y-13396314D01*
X16100028Y-13424886D02*
X16114314Y-13410600D01*
X16142886Y-13396314D01*
X16185743Y-13396314D01*
X16214314Y-13410600D01*
X16228600Y-13439171D01*
X16228600Y-13596314D01*
X16228600Y-13439171D02*
X16242886Y-13410600D01*
X16271457Y-13396314D01*
X16314314Y-13396314D01*
X16342886Y-13410600D01*
X16357171Y-13439171D01*
X16357171Y-13596314D01*
X16500028Y-13596314D02*
X16500028Y-13396314D01*
X16500028Y-13424886D02*
X16514314Y-13410600D01*
X16542886Y-13396314D01*
X16585743Y-13396314D01*
X16614314Y-13410600D01*
X16628600Y-13439171D01*
X16628600Y-13596314D01*
X16628600Y-13439171D02*
X16642886Y-13410600D01*
X16671457Y-13396314D01*
X16714314Y-13396314D01*
X16742886Y-13410600D01*
X16757171Y-13439171D01*
X16757171Y-13596314D01*
X17342886Y-13282029D02*
X17085743Y-13667743D01*
X17728600Y-13296314D02*
X17757171Y-13296314D01*
X17785743Y-13310600D01*
X17800028Y-13324886D01*
X17814314Y-13353457D01*
X17828600Y-13410600D01*
X17828600Y-13482029D01*
X17814314Y-13539171D01*
X17800028Y-13567743D01*
X17785743Y-13582029D01*
X17757171Y-13596314D01*
X17728600Y-13596314D01*
X17700028Y-13582029D01*
X17685743Y-13567743D01*
X17671457Y-13539171D01*
X17657171Y-13482029D01*
X17657171Y-13410600D01*
X17671457Y-13353457D01*
X17685743Y-13324886D01*
X17700028Y-13310600D01*
X17728600Y-13296314D01*
X17957171Y-13567743D02*
X17971457Y-13582029D01*
X17957171Y-13596314D01*
X17942886Y-13582029D01*
X17957171Y-13567743D01*
X17957171Y-13596314D01*
X18157171Y-13296314D02*
X18185743Y-13296314D01*
X18214314Y-13310600D01*
X18228600Y-13324886D01*
X18242886Y-13353457D01*
X18257171Y-13410600D01*
X18257171Y-13482029D01*
X18242886Y-13539171D01*
X18228600Y-13567743D01*
X18214314Y-13582029D01*
X18185743Y-13596314D01*
X18157171Y-13596314D01*
X18128600Y-13582029D01*
X18114314Y-13567743D01*
X18100028Y-13539171D01*
X18085743Y-13482029D01*
X18085743Y-13410600D01*
X18100028Y-13353457D01*
X18114314Y-13324886D01*
X18128600Y-13310600D01*
X18157171Y-13296314D01*
X18357171Y-13296314D02*
X18542886Y-13296314D01*
X18442886Y-13410600D01*
X18485743Y-13410600D01*
X18514314Y-13424886D01*
X18528600Y-13439171D01*
X18542886Y-13467743D01*
X18542886Y-13539171D01*
X18528600Y-13567743D01*
X18514314Y-13582029D01*
X18485743Y-13596314D01*
X18400028Y-13596314D01*
X18371457Y-13582029D01*
X18357171Y-13567743D01*
X18685743Y-13596314D02*
X18742886Y-13596314D01*
X18771457Y-13582029D01*
X18785743Y-13567743D01*
X18814314Y-13524886D01*
X18828600Y-13467743D01*
X18828600Y-13353457D01*
X18814314Y-13324886D01*
X18800028Y-13310600D01*
X18771457Y-13296314D01*
X18714314Y-13296314D01*
X18685743Y-13310600D01*
X18671457Y-13324886D01*
X18657171Y-13353457D01*
X18657171Y-13424886D01*
X18671457Y-13453457D01*
X18685743Y-13467743D01*
X18714314Y-13482029D01*
X18771457Y-13482029D01*
X18800028Y-13467743D01*
X18814314Y-13453457D01*
X18828600Y-13424886D01*
X18942886Y-13296314D02*
X18942886Y-13353457D01*
X19057171Y-13296314D02*
X19057171Y-13353457D01*
X19500028Y-13710600D02*
X19485743Y-13696314D01*
X19457171Y-13653457D01*
X19442886Y-13624886D01*
X19428600Y-13582029D01*
X19414314Y-13510600D01*
X19414314Y-13453457D01*
X19428600Y-13382029D01*
X19442886Y-13339171D01*
X19457171Y-13310600D01*
X19485743Y-13267743D01*
X19500028Y-13253457D01*
X19771457Y-13596314D02*
X19600028Y-13596314D01*
X19685743Y-13596314D02*
X19685743Y-13296314D01*
X19657171Y-13339171D01*
X19628600Y-13367743D01*
X19600028Y-13382029D01*
X19885743Y-13324886D02*
X19900028Y-13310600D01*
X19928600Y-13296314D01*
X20000028Y-13296314D01*
X20028600Y-13310600D01*
X20042886Y-13324886D01*
X20057171Y-13353457D01*
X20057171Y-13382029D01*
X20042886Y-13424886D01*
X19871457Y-13596314D01*
X20057171Y-13596314D01*
X20414314Y-13596314D02*
X20414314Y-13296314D01*
X20542886Y-13596314D02*
X20542886Y-13439171D01*
X20528600Y-13410600D01*
X20500028Y-13396314D01*
X20457171Y-13396314D01*
X20428600Y-13410600D01*
X20414314Y-13424886D01*
X20728600Y-13596314D02*
X20700028Y-13582029D01*
X20685743Y-13567743D01*
X20671457Y-13539171D01*
X20671457Y-13453457D01*
X20685743Y-13424886D01*
X20700028Y-13410600D01*
X20728600Y-13396314D01*
X20771457Y-13396314D01*
X20800028Y-13410600D01*
X20814314Y-13424886D01*
X20828600Y-13453457D01*
X20828600Y-13539171D01*
X20814314Y-13567743D01*
X20800028Y-13582029D01*
X20771457Y-13596314D01*
X20728600Y-13596314D01*
X21000028Y-13596314D02*
X20971457Y-13582029D01*
X20957171Y-13553457D01*
X20957171Y-13296314D01*
X21228600Y-13582029D02*
X21200029Y-13596314D01*
X21142886Y-13596314D01*
X21114314Y-13582029D01*
X21100029Y-13553457D01*
X21100029Y-13439171D01*
X21114314Y-13410600D01*
X21142886Y-13396314D01*
X21200029Y-13396314D01*
X21228600Y-13410600D01*
X21242886Y-13439171D01*
X21242886Y-13467743D01*
X21100029Y-13496314D01*
X21357171Y-13582029D02*
X21385743Y-13596314D01*
X21442886Y-13596314D01*
X21471457Y-13582029D01*
X21485743Y-13553457D01*
X21485743Y-13539171D01*
X21471457Y-13510600D01*
X21442886Y-13496314D01*
X21400029Y-13496314D01*
X21371457Y-13482029D01*
X21357171Y-13453457D01*
X21357171Y-13439171D01*
X21371457Y-13410600D01*
X21400029Y-13396314D01*
X21442886Y-13396314D01*
X21471457Y-13410600D01*
X21585743Y-13710600D02*
X21600029Y-13696314D01*
X21628600Y-13653457D01*
X21642886Y-13624886D01*
X21657171Y-13582029D01*
X21671457Y-13510600D01*
X21671457Y-13453457D01*
X21657171Y-13382029D01*
X21642886Y-13339171D01*
X21628600Y-13310600D01*
X21600029Y-13267743D01*
X21585743Y-13253457D01*
X14727000Y-13805800D02*
X14828600Y-13907400D01*
X14828600Y-13805800D02*
X14727000Y-13907400D01*
X14777800Y-13805800D02*
X14777800Y-13907400D01*
X14727000Y-13856600D02*
X14828600Y-13856600D01*
X15257171Y-13992314D02*
X15085743Y-13992314D01*
X15171457Y-13992314D02*
X15171457Y-13692314D01*
X15142886Y-13735171D01*
X15114314Y-13763743D01*
X15085743Y-13778029D01*
X15385743Y-13963743D02*
X15400028Y-13978029D01*
X15385743Y-13992314D01*
X15371457Y-13978029D01*
X15385743Y-13963743D01*
X15385743Y-13992314D01*
X15585743Y-13692314D02*
X15614314Y-13692314D01*
X15642886Y-13706600D01*
X15657171Y-13720886D01*
X15671457Y-13749457D01*
X15685743Y-13806600D01*
X15685743Y-13878029D01*
X15671457Y-13935171D01*
X15657171Y-13963743D01*
X15642886Y-13978029D01*
X15614314Y-13992314D01*
X15585743Y-13992314D01*
X15557171Y-13978029D01*
X15542886Y-13963743D01*
X15528600Y-13935171D01*
X15514314Y-13878029D01*
X15514314Y-13806600D01*
X15528600Y-13749457D01*
X15542886Y-13720886D01*
X15557171Y-13706600D01*
X15585743Y-13692314D01*
X15800028Y-13720886D02*
X15814314Y-13706600D01*
X15842886Y-13692314D01*
X15914314Y-13692314D01*
X15942886Y-13706600D01*
X15957171Y-13720886D01*
X15971457Y-13749457D01*
X15971457Y-13778029D01*
X15957171Y-13820886D01*
X15785743Y-13992314D01*
X15971457Y-13992314D01*
X16100028Y-13992314D02*
X16100028Y-13792314D01*
X16100028Y-13820886D02*
X16114314Y-13806600D01*
X16142886Y-13792314D01*
X16185743Y-13792314D01*
X16214314Y-13806600D01*
X16228600Y-13835171D01*
X16228600Y-13992314D01*
X16228600Y-13835171D02*
X16242886Y-13806600D01*
X16271457Y-13792314D01*
X16314314Y-13792314D01*
X16342886Y-13806600D01*
X16357171Y-13835171D01*
X16357171Y-13992314D01*
X16500028Y-13992314D02*
X16500028Y-13792314D01*
X16500028Y-13820886D02*
X16514314Y-13806600D01*
X16542886Y-13792314D01*
X16585743Y-13792314D01*
X16614314Y-13806600D01*
X16628600Y-13835171D01*
X16628600Y-13992314D01*
X16628600Y-13835171D02*
X16642886Y-13806600D01*
X16671457Y-13792314D01*
X16714314Y-13792314D01*
X16742886Y-13806600D01*
X16757171Y-13835171D01*
X16757171Y-13992314D01*
X17342886Y-13678029D02*
X17085743Y-14063743D01*
X17728600Y-13692314D02*
X17757171Y-13692314D01*
X17785743Y-13706600D01*
X17800028Y-13720886D01*
X17814314Y-13749457D01*
X17828600Y-13806600D01*
X17828600Y-13878029D01*
X17814314Y-13935171D01*
X17800028Y-13963743D01*
X17785743Y-13978029D01*
X17757171Y-13992314D01*
X17728600Y-13992314D01*
X17700028Y-13978029D01*
X17685743Y-13963743D01*
X17671457Y-13935171D01*
X17657171Y-13878029D01*
X17657171Y-13806600D01*
X17671457Y-13749457D01*
X17685743Y-13720886D01*
X17700028Y-13706600D01*
X17728600Y-13692314D01*
X17957171Y-13963743D02*
X17971457Y-13978029D01*
X17957171Y-13992314D01*
X17942886Y-13978029D01*
X17957171Y-13963743D01*
X17957171Y-13992314D01*
X18157171Y-13692314D02*
X18185743Y-13692314D01*
X18214314Y-13706600D01*
X18228600Y-13720886D01*
X18242886Y-13749457D01*
X18257171Y-13806600D01*
X18257171Y-13878029D01*
X18242886Y-13935171D01*
X18228600Y-13963743D01*
X18214314Y-13978029D01*
X18185743Y-13992314D01*
X18157171Y-13992314D01*
X18128600Y-13978029D01*
X18114314Y-13963743D01*
X18100028Y-13935171D01*
X18085743Y-13878029D01*
X18085743Y-13806600D01*
X18100028Y-13749457D01*
X18114314Y-13720886D01*
X18128600Y-13706600D01*
X18157171Y-13692314D01*
X18514314Y-13792314D02*
X18514314Y-13992314D01*
X18442886Y-13678029D02*
X18371457Y-13892314D01*
X18557171Y-13892314D01*
X18728600Y-13692314D02*
X18757171Y-13692314D01*
X18785743Y-13706600D01*
X18800028Y-13720886D01*
X18814314Y-13749457D01*
X18828600Y-13806600D01*
X18828600Y-13878029D01*
X18814314Y-13935171D01*
X18800028Y-13963743D01*
X18785743Y-13978029D01*
X18757171Y-13992314D01*
X18728600Y-13992314D01*
X18700028Y-13978029D01*
X18685743Y-13963743D01*
X18671457Y-13935171D01*
X18657171Y-13878029D01*
X18657171Y-13806600D01*
X18671457Y-13749457D01*
X18685743Y-13720886D01*
X18700028Y-13706600D01*
X18728600Y-13692314D01*
X18942886Y-13692314D02*
X18942886Y-13749457D01*
X19057171Y-13692314D02*
X19057171Y-13749457D01*
X19500028Y-14106600D02*
X19485743Y-14092314D01*
X19457171Y-14049457D01*
X19442886Y-14020886D01*
X19428600Y-13978029D01*
X19414314Y-13906600D01*
X19414314Y-13849457D01*
X19428600Y-13778029D01*
X19442886Y-13735171D01*
X19457171Y-13706600D01*
X19485743Y-13663743D01*
X19500028Y-13649457D01*
X19757171Y-13692314D02*
X19614314Y-13692314D01*
X19600028Y-13835171D01*
X19614314Y-13820886D01*
X19642886Y-13806600D01*
X19714314Y-13806600D01*
X19742886Y-13820886D01*
X19757171Y-13835171D01*
X19771457Y-13863743D01*
X19771457Y-13935171D01*
X19757171Y-13963743D01*
X19742886Y-13978029D01*
X19714314Y-13992314D01*
X19642886Y-13992314D01*
X19614314Y-13978029D01*
X19600028Y-13963743D01*
X19957171Y-13692314D02*
X19985743Y-13692314D01*
X20014314Y-13706600D01*
X20028600Y-13720886D01*
X20042886Y-13749457D01*
X20057171Y-13806600D01*
X20057171Y-13878029D01*
X20042886Y-13935171D01*
X20028600Y-13963743D01*
X20014314Y-13978029D01*
X19985743Y-13992314D01*
X19957171Y-13992314D01*
X19928600Y-13978029D01*
X19914314Y-13963743D01*
X19900028Y-13935171D01*
X19885743Y-13878029D01*
X19885743Y-13806600D01*
X19900028Y-13749457D01*
X19914314Y-13720886D01*
X19928600Y-13706600D01*
X19957171Y-13692314D01*
X20414314Y-13992314D02*
X20414314Y-13692314D01*
X20542886Y-13992314D02*
X20542886Y-13835171D01*
X20528600Y-13806600D01*
X20500028Y-13792314D01*
X20457171Y-13792314D01*
X20428600Y-13806600D01*
X20414314Y-13820886D01*
X20728600Y-13992314D02*
X20700028Y-13978029D01*
X20685743Y-13963743D01*
X20671457Y-13935171D01*
X20671457Y-13849457D01*
X20685743Y-13820886D01*
X20700028Y-13806600D01*
X20728600Y-13792314D01*
X20771457Y-13792314D01*
X20800028Y-13806600D01*
X20814314Y-13820886D01*
X20828600Y-13849457D01*
X20828600Y-13935171D01*
X20814314Y-13963743D01*
X20800028Y-13978029D01*
X20771457Y-13992314D01*
X20728600Y-13992314D01*
X21000028Y-13992314D02*
X20971457Y-13978029D01*
X20957171Y-13949457D01*
X20957171Y-13692314D01*
X21228600Y-13978029D02*
X21200029Y-13992314D01*
X21142886Y-13992314D01*
X21114314Y-13978029D01*
X21100029Y-13949457D01*
X21100029Y-13835171D01*
X21114314Y-13806600D01*
X21142886Y-13792314D01*
X21200029Y-13792314D01*
X21228600Y-13806600D01*
X21242886Y-13835171D01*
X21242886Y-13863743D01*
X21100029Y-13892314D01*
X21357171Y-13978029D02*
X21385743Y-13992314D01*
X21442886Y-13992314D01*
X21471457Y-13978029D01*
X21485743Y-13949457D01*
X21485743Y-13935171D01*
X21471457Y-13906600D01*
X21442886Y-13892314D01*
X21400029Y-13892314D01*
X21371457Y-13878029D01*
X21357171Y-13849457D01*
X21357171Y-13835171D01*
X21371457Y-13806600D01*
X21400029Y-13792314D01*
X21442886Y-13792314D01*
X21471457Y-13806600D01*
X21585743Y-14106600D02*
X21600029Y-14092314D01*
X21628600Y-14049457D01*
X21642886Y-14020886D01*
X21657171Y-13978029D01*
X21671457Y-13906600D01*
X21671457Y-13849457D01*
X21657171Y-13778029D01*
X21642886Y-13735171D01*
X21628600Y-13706600D01*
X21600029Y-13663743D01*
X21585743Y-13649457D01*
M02*
