G04 #@! TF.FileFunction,Copper,L2,Bot,Signal*
%FSLAX46Y46*%
G04 Gerber Fmt 4.6, Leading zero omitted, Abs format (unit mm)*
G04 Created by KiCad (PCBNEW (after 2015-mar-04 BZR unknown)-product) date Sat 22 Oct 2016 07:01:29 PM CEST*
%MOMM*%
G01*
G04 APERTURE LIST*
%ADD10C,0.100000*%
%ADD11R,1.200000X0.750000*%
%ADD12R,0.750000X1.200000*%
%ADD13C,1.778000*%
%ADD14R,1.778000X1.778000*%
%ADD15C,1.501140*%
%ADD16C,1.524000*%
%ADD17O,2.499360X4.000500*%
%ADD18O,3.500120X1.998980*%
%ADD19O,1.998980X3.500120*%
%ADD20C,1.998980*%
%ADD21R,0.800000X0.750000*%
%ADD22R,0.750000X0.800000*%
%ADD23C,0.250000*%
%ADD24C,1.000000*%
%ADD25C,2.000000*%
%ADD26C,0.254000*%
G04 APERTURE END LIST*
D10*
D11*
X19700200Y-77089000D03*
X21600200Y-77089000D03*
D12*
X17576800Y-27950200D03*
X17576800Y-26050200D03*
D11*
X32700000Y-74930000D03*
X30800000Y-74930000D03*
X42860000Y-74930000D03*
X40960000Y-74930000D03*
D13*
X13970000Y-73660000D03*
D14*
X13970000Y-71120000D03*
D13*
X13970000Y-68580000D03*
X13970000Y-52070000D03*
D14*
X13970000Y-49530000D03*
D13*
X13970000Y-46990000D03*
X13970000Y-27940000D03*
D14*
X13970000Y-25400000D03*
D13*
X13970000Y-22860000D03*
D15*
X55880000Y-49530000D03*
X55880000Y-46990000D03*
X55880000Y-66040000D03*
X55880000Y-63500000D03*
X38100000Y-49530000D03*
X38100000Y-46990000D03*
X38100000Y-66040000D03*
X38100000Y-63500000D03*
D16*
X26670000Y-26670000D03*
X26670000Y-36830000D03*
X26670000Y-31750000D03*
X26670000Y-41910000D03*
X15240000Y-40640000D03*
X20320000Y-40640000D03*
X20320000Y-35560000D03*
X15240000Y-35560000D03*
D17*
X46990000Y-36400740D03*
X46990000Y-14399260D03*
X35560000Y-36400740D03*
X35560000Y-14399260D03*
D18*
X59690000Y-26670000D03*
X59690000Y-21590000D03*
X59690000Y-36830000D03*
X59690000Y-31750000D03*
D19*
X27940000Y-80010000D03*
X33020000Y-80010000D03*
X38100000Y-80010000D03*
X43180000Y-80010000D03*
X48260000Y-80010000D03*
X53340000Y-80010000D03*
X26670000Y-15240000D03*
X21590000Y-15240000D03*
D20*
X26670000Y-47110000D03*
X26670000Y-62110000D03*
X21590000Y-56000000D03*
X21590000Y-71000000D03*
D21*
X53074000Y-74930000D03*
X51574000Y-74930000D03*
D22*
X17780000Y-51550000D03*
X17780000Y-50050000D03*
D21*
X23380000Y-15240000D03*
X24880000Y-15240000D03*
D23*
X26670000Y-15240000D02*
X24880000Y-15240000D01*
X13970000Y-73660000D02*
X16271200Y-73660000D01*
X16271200Y-73660000D02*
X19700200Y-77089000D01*
D24*
X13970000Y-73660000D02*
X17780000Y-73660000D01*
X17780000Y-55880000D02*
X17780000Y-73660000D01*
X17780000Y-55880000D02*
X13970000Y-52070000D01*
X26670000Y-47110000D02*
X26670000Y-52070000D01*
X26670000Y-52070000D02*
X13970000Y-52070000D01*
X26670000Y-47110000D02*
X37980000Y-47110000D01*
D25*
X37980000Y-47110000D02*
X38100000Y-46990000D01*
D24*
X55880000Y-46990000D02*
X38100000Y-46990000D01*
D23*
X21590000Y-15240000D02*
X23380000Y-15240000D01*
X17260000Y-52070000D02*
X17780000Y-51550000D01*
X13970000Y-52070000D02*
X17260000Y-52070000D01*
D24*
X21590000Y-56000000D02*
X30600000Y-56000000D01*
X30600000Y-56000000D02*
X38100000Y-63500000D01*
X55880000Y-63500000D02*
X38100000Y-63500000D01*
D23*
X17566600Y-27940000D02*
X17576800Y-27950200D01*
X13970000Y-27940000D02*
X17566600Y-27940000D01*
X33020000Y-80010000D02*
X33020000Y-74930000D01*
X43180000Y-74930000D02*
X43180000Y-80010000D01*
X53340000Y-74930000D02*
X53020000Y-74930000D01*
X53340000Y-80010000D02*
X53340000Y-74930000D01*
D24*
X20320000Y-40640000D02*
X22860000Y-40640000D01*
X22860000Y-40640000D02*
X26670000Y-36830000D01*
X59690000Y-36830000D02*
X57150000Y-36830000D01*
X57150000Y-36830000D02*
X50800000Y-43815000D01*
X50800000Y-43815000D02*
X33020000Y-43815000D01*
X33020000Y-43815000D02*
X26670000Y-36830000D01*
X26670000Y-31750000D02*
X42339260Y-31750000D01*
X42339260Y-31750000D02*
X46990000Y-36400740D01*
X35560000Y-36400740D02*
X31955740Y-36400740D01*
X19050000Y-31750000D02*
X15240000Y-35560000D01*
X22225000Y-31750000D02*
X19050000Y-31750000D01*
X24765000Y-34290000D02*
X22225000Y-31750000D01*
X29845000Y-34290000D02*
X24765000Y-34290000D01*
X31955740Y-36400740D02*
X29845000Y-34290000D01*
X59690000Y-21590000D02*
X54180740Y-21590000D01*
X54180740Y-21590000D02*
X46990000Y-14399260D01*
X59690000Y-26670000D02*
X47830740Y-26670000D01*
X47830740Y-26670000D02*
X35560000Y-14399260D01*
X59690000Y-26670000D02*
X59690000Y-31750000D01*
D26*
G36*
X64085000Y-84405000D02*
X63095240Y-84405000D01*
X63095240Y-80857211D01*
X63095240Y-13547211D01*
X62770910Y-12762273D01*
X62170886Y-12161200D01*
X61386515Y-11835501D01*
X60537211Y-11834760D01*
X59752273Y-12159090D01*
X59151200Y-12759114D01*
X58825501Y-13543485D01*
X58824760Y-14392789D01*
X59149090Y-15177727D01*
X59749114Y-15778800D01*
X60533485Y-16104499D01*
X61382789Y-16105240D01*
X62167727Y-15780910D01*
X62768800Y-15180886D01*
X63094499Y-14396515D01*
X63095240Y-13547211D01*
X63095240Y-80857211D01*
X62770910Y-80072273D01*
X62170886Y-79471200D01*
X62121786Y-79450811D01*
X62121786Y-36830000D01*
X62121786Y-31750000D01*
X61997368Y-31124508D01*
X61643055Y-30594241D01*
X61112788Y-30239928D01*
X60825000Y-30182683D01*
X60825000Y-28237316D01*
X61112788Y-28180072D01*
X61643055Y-27825759D01*
X61997368Y-27295492D01*
X62121786Y-26670000D01*
X62121786Y-21590000D01*
X61997368Y-20964508D01*
X61643055Y-20434241D01*
X61112788Y-20079928D01*
X60487296Y-19955510D01*
X58892704Y-19955510D01*
X58267212Y-20079928D01*
X57736945Y-20434241D01*
X57723074Y-20455000D01*
X54650872Y-20455000D01*
X48874680Y-14678808D01*
X48874680Y-13597062D01*
X48731217Y-12875826D01*
X48322670Y-12264392D01*
X47711236Y-11855845D01*
X46990000Y-11712382D01*
X46268764Y-11855845D01*
X45657330Y-12264392D01*
X45248783Y-12875826D01*
X45105320Y-13597062D01*
X45105320Y-15201458D01*
X45248783Y-15922694D01*
X45657330Y-16534128D01*
X46268764Y-16942675D01*
X46990000Y-17086138D01*
X47711236Y-16942675D01*
X47841346Y-16855738D01*
X53378174Y-22392566D01*
X53746394Y-22638603D01*
X53746395Y-22638603D01*
X54180740Y-22725000D01*
X57723074Y-22725000D01*
X57736945Y-22745759D01*
X58267212Y-23100072D01*
X58892704Y-23224490D01*
X60487296Y-23224490D01*
X61112788Y-23100072D01*
X61643055Y-22745759D01*
X61997368Y-22215492D01*
X62121786Y-21590000D01*
X62121786Y-26670000D01*
X61997368Y-26044508D01*
X61643055Y-25514241D01*
X61112788Y-25159928D01*
X60487296Y-25035510D01*
X58892704Y-25035510D01*
X58267212Y-25159928D01*
X57736945Y-25514241D01*
X57723074Y-25535000D01*
X48300871Y-25535000D01*
X37444680Y-14678808D01*
X37444680Y-13597062D01*
X37301217Y-12875826D01*
X36892670Y-12264392D01*
X36281236Y-11855845D01*
X35560000Y-11712382D01*
X34838764Y-11855845D01*
X34227330Y-12264392D01*
X33818783Y-12875826D01*
X33675320Y-13597062D01*
X33675320Y-15201458D01*
X33818783Y-15922694D01*
X34227330Y-16534128D01*
X34838764Y-16942675D01*
X35560000Y-17086138D01*
X36281236Y-16942675D01*
X36411346Y-16855738D01*
X47028174Y-27472566D01*
X47396394Y-27718603D01*
X47396395Y-27718603D01*
X47830740Y-27805000D01*
X57723074Y-27805000D01*
X57736945Y-27825759D01*
X58267212Y-28180072D01*
X58555000Y-28237316D01*
X58555000Y-30182683D01*
X58267212Y-30239928D01*
X57736945Y-30594241D01*
X57382632Y-31124508D01*
X57258214Y-31750000D01*
X57382632Y-32375492D01*
X57736945Y-32905759D01*
X58267212Y-33260072D01*
X58892704Y-33384490D01*
X60487296Y-33384490D01*
X61112788Y-33260072D01*
X61643055Y-32905759D01*
X61997368Y-32375492D01*
X62121786Y-31750000D01*
X62121786Y-36830000D01*
X61997368Y-36204508D01*
X61643055Y-35674241D01*
X61112788Y-35319928D01*
X60487296Y-35195510D01*
X58892704Y-35195510D01*
X58267212Y-35319928D01*
X57736945Y-35674241D01*
X57723074Y-35695000D01*
X57150000Y-35695000D01*
X57123118Y-35700347D01*
X57096014Y-35696285D01*
X56906848Y-35743365D01*
X56715654Y-35781397D01*
X56692865Y-35796623D01*
X56666270Y-35803243D01*
X56509516Y-35919133D01*
X56347434Y-36027434D01*
X56332207Y-36050221D01*
X56310168Y-36066516D01*
X50297909Y-42680000D01*
X48874680Y-42680000D01*
X48874680Y-37202938D01*
X48874680Y-35598542D01*
X48731217Y-34877306D01*
X48322670Y-34265872D01*
X47711236Y-33857325D01*
X46990000Y-33713862D01*
X46268764Y-33857325D01*
X46138653Y-33944261D01*
X43141826Y-30947434D01*
X42773606Y-30701397D01*
X42339260Y-30615000D01*
X28304490Y-30615000D01*
X28304490Y-16117570D01*
X28304490Y-15367000D01*
X28304490Y-15113000D01*
X28304490Y-14362430D01*
X28131471Y-13746605D01*
X27735956Y-13243868D01*
X27178159Y-12930757D01*
X27050354Y-12899811D01*
X26797000Y-13019165D01*
X26797000Y-15113000D01*
X28304490Y-15113000D01*
X28304490Y-15367000D01*
X26797000Y-15367000D01*
X26797000Y-17460835D01*
X27050354Y-17580189D01*
X27178159Y-17549243D01*
X27735956Y-17236132D01*
X28131471Y-16733395D01*
X28304490Y-16117570D01*
X28304490Y-30615000D01*
X28067242Y-30615000D01*
X28067242Y-26393339D01*
X27855010Y-25879697D01*
X27462370Y-25486371D01*
X26949100Y-25273243D01*
X26543000Y-25272888D01*
X26543000Y-17460835D01*
X26543000Y-15367000D01*
X26543000Y-15113000D01*
X26543000Y-13019165D01*
X26289646Y-12899811D01*
X26161841Y-12930757D01*
X25604044Y-13243868D01*
X25208529Y-13746605D01*
X25036365Y-14359384D01*
X25007000Y-14388750D01*
X25007000Y-15113000D01*
X25035510Y-15113000D01*
X25756250Y-15113000D01*
X26543000Y-15113000D01*
X26543000Y-15367000D01*
X25756250Y-15367000D01*
X25035510Y-15367000D01*
X25007000Y-15367000D01*
X25007000Y-16091250D01*
X25036365Y-16120615D01*
X25208529Y-16733395D01*
X25604044Y-17236132D01*
X26161841Y-17549243D01*
X26289646Y-17580189D01*
X26543000Y-17460835D01*
X26543000Y-25272888D01*
X26393339Y-25272758D01*
X25879697Y-25484990D01*
X25486371Y-25877630D01*
X25273243Y-26390900D01*
X25272758Y-26946661D01*
X25484990Y-27460303D01*
X25877630Y-27853629D01*
X26390900Y-28066757D01*
X26946661Y-28067242D01*
X27460303Y-27855010D01*
X27853629Y-27462370D01*
X28066757Y-26949100D01*
X28067242Y-26393339D01*
X28067242Y-30615000D01*
X27510914Y-30615000D01*
X27462370Y-30566371D01*
X26949100Y-30353243D01*
X26393339Y-30352758D01*
X25879697Y-30564990D01*
X25486371Y-30957630D01*
X25273243Y-31470900D01*
X25272758Y-32026661D01*
X25484990Y-32540303D01*
X25877630Y-32933629D01*
X26390900Y-33146757D01*
X26946661Y-33147242D01*
X27460303Y-32935010D01*
X27510400Y-32885000D01*
X41869128Y-32885000D01*
X45105320Y-36121192D01*
X45105320Y-37202938D01*
X45248783Y-37924174D01*
X45657330Y-38535608D01*
X46268764Y-38944155D01*
X46990000Y-39087618D01*
X47711236Y-38944155D01*
X48322670Y-38535608D01*
X48731217Y-37924174D01*
X48874680Y-37202938D01*
X48874680Y-42680000D01*
X37444680Y-42680000D01*
X37444680Y-37202938D01*
X37444680Y-35598542D01*
X37301217Y-34877306D01*
X36892670Y-34265872D01*
X36281236Y-33857325D01*
X35560000Y-33713862D01*
X34838764Y-33857325D01*
X34227330Y-34265872D01*
X33818783Y-34877306D01*
X33741518Y-35265740D01*
X32425872Y-35265740D01*
X30647566Y-33487434D01*
X30279346Y-33241397D01*
X29845000Y-33155000D01*
X25235132Y-33155000D01*
X24753000Y-32672868D01*
X24753000Y-16091250D01*
X24753000Y-15367000D01*
X24733000Y-15367000D01*
X24733000Y-15113000D01*
X24753000Y-15113000D01*
X24753000Y-14388750D01*
X24594250Y-14230000D01*
X24353691Y-14230000D01*
X24120302Y-14326673D01*
X24119019Y-14327955D01*
X24029640Y-14267623D01*
X23780000Y-14217560D01*
X23179706Y-14217560D01*
X23100072Y-13817212D01*
X22745759Y-13286945D01*
X22215492Y-12932632D01*
X21590000Y-12808214D01*
X20964508Y-12932632D01*
X20434241Y-13286945D01*
X20079928Y-13817212D01*
X19955510Y-14442704D01*
X19955510Y-16037296D01*
X20079928Y-16662788D01*
X20434241Y-17193055D01*
X20964508Y-17547368D01*
X21590000Y-17671786D01*
X22215492Y-17547368D01*
X22745759Y-17193055D01*
X23100072Y-16662788D01*
X23179706Y-16262440D01*
X23780000Y-16262440D01*
X24022123Y-16215463D01*
X24118879Y-16151904D01*
X24120302Y-16153327D01*
X24353691Y-16250000D01*
X24594250Y-16250000D01*
X24753000Y-16091250D01*
X24753000Y-32672868D01*
X23027566Y-30947434D01*
X22659346Y-30701397D01*
X22225000Y-30615000D01*
X19050000Y-30615000D01*
X18615655Y-30701396D01*
X18599240Y-30712364D01*
X18599240Y-28550200D01*
X18599240Y-27350200D01*
X18552263Y-27108077D01*
X18488704Y-27011320D01*
X18490127Y-27009898D01*
X18586800Y-26776509D01*
X18586800Y-26335950D01*
X18586800Y-25764450D01*
X18586800Y-25323891D01*
X18490127Y-25090502D01*
X18311499Y-24911873D01*
X18078110Y-24815200D01*
X17862550Y-24815200D01*
X17703800Y-24973950D01*
X17703800Y-25923200D01*
X18428050Y-25923200D01*
X18586800Y-25764450D01*
X18586800Y-26335950D01*
X18428050Y-26177200D01*
X17703800Y-26177200D01*
X17703800Y-26197200D01*
X17449800Y-26197200D01*
X17449800Y-26177200D01*
X17449800Y-25923200D01*
X17449800Y-24973950D01*
X17291050Y-24815200D01*
X17075490Y-24815200D01*
X16842101Y-24911873D01*
X16663473Y-25090502D01*
X16566800Y-25323891D01*
X16566800Y-25764450D01*
X16725550Y-25923200D01*
X17449800Y-25923200D01*
X17449800Y-26177200D01*
X16725550Y-26177200D01*
X16566800Y-26335950D01*
X16566800Y-26776509D01*
X16663473Y-27009898D01*
X16664755Y-27011180D01*
X16604423Y-27100560D01*
X16588492Y-27180000D01*
X16105240Y-27180000D01*
X16105240Y-13547211D01*
X15780910Y-12762273D01*
X15180886Y-12161200D01*
X14396515Y-11835501D01*
X13547211Y-11834760D01*
X12762273Y-12159090D01*
X12161200Y-12759114D01*
X11835501Y-13543485D01*
X11834760Y-14392789D01*
X12159090Y-15177727D01*
X12759114Y-15778800D01*
X13543485Y-16104499D01*
X14392789Y-16105240D01*
X15177727Y-15780910D01*
X15778800Y-15180886D01*
X16104499Y-14396515D01*
X16105240Y-13547211D01*
X16105240Y-27180000D01*
X15494264Y-27180000D01*
X15494264Y-22558188D01*
X15262738Y-21997851D01*
X14834404Y-21568769D01*
X14274472Y-21336265D01*
X13668188Y-21335736D01*
X13107851Y-21567262D01*
X12678769Y-21995596D01*
X12446265Y-22555528D01*
X12445736Y-23161812D01*
X12677262Y-23722149D01*
X12867073Y-23912292D01*
X12721302Y-23972673D01*
X12542673Y-24151301D01*
X12446000Y-24384690D01*
X12446000Y-24637309D01*
X12446000Y-25114250D01*
X12604750Y-25273000D01*
X13843000Y-25273000D01*
X13843000Y-25253000D01*
X14097000Y-25253000D01*
X14097000Y-25273000D01*
X15335250Y-25273000D01*
X15494000Y-25114250D01*
X15494000Y-24637309D01*
X15494000Y-24384690D01*
X15397327Y-24151301D01*
X15218698Y-23972673D01*
X15072988Y-23912318D01*
X15261231Y-23724404D01*
X15493735Y-23164472D01*
X15494264Y-22558188D01*
X15494264Y-27180000D01*
X15304945Y-27180000D01*
X15262738Y-27077851D01*
X15072926Y-26887707D01*
X15218698Y-26827327D01*
X15397327Y-26648699D01*
X15494000Y-26415310D01*
X15494000Y-26162691D01*
X15494000Y-25685750D01*
X15335250Y-25527000D01*
X14097000Y-25527000D01*
X14097000Y-25547000D01*
X13843000Y-25547000D01*
X13843000Y-25527000D01*
X12604750Y-25527000D01*
X12446000Y-25685750D01*
X12446000Y-26162691D01*
X12446000Y-26415310D01*
X12542673Y-26648699D01*
X12721302Y-26827327D01*
X12867011Y-26887681D01*
X12678769Y-27075596D01*
X12446265Y-27635528D01*
X12445736Y-28241812D01*
X12677262Y-28802149D01*
X13105596Y-29231231D01*
X13665528Y-29463735D01*
X14271812Y-29464264D01*
X14832149Y-29232738D01*
X15261231Y-28804404D01*
X15304583Y-28700000D01*
X16583424Y-28700000D01*
X16601337Y-28792323D01*
X16741127Y-29005127D01*
X16952160Y-29147577D01*
X17201800Y-29197640D01*
X17951800Y-29197640D01*
X18193923Y-29150663D01*
X18406727Y-29010873D01*
X18549177Y-28799840D01*
X18599240Y-28550200D01*
X18599240Y-30712364D01*
X18247434Y-30947434D01*
X15032050Y-34162817D01*
X14963339Y-34162758D01*
X14449697Y-34374990D01*
X14056371Y-34767630D01*
X13843243Y-35280900D01*
X13842758Y-35836661D01*
X14054990Y-36350303D01*
X14447630Y-36743629D01*
X14960900Y-36956757D01*
X15516661Y-36957242D01*
X16030303Y-36745010D01*
X16423629Y-36352370D01*
X16636757Y-35839100D01*
X16636818Y-35768313D01*
X19520132Y-32885000D01*
X21754867Y-32885000D01*
X23962433Y-35092566D01*
X23962434Y-35092566D01*
X24330654Y-35338603D01*
X24765000Y-35425000D01*
X29374868Y-35425000D01*
X31153174Y-37203306D01*
X31521394Y-37449343D01*
X31521395Y-37449343D01*
X31955740Y-37535740D01*
X33741518Y-37535740D01*
X33818783Y-37924174D01*
X34227330Y-38535608D01*
X34838764Y-38944155D01*
X35560000Y-39087618D01*
X36281236Y-38944155D01*
X36892670Y-38535608D01*
X37301217Y-37924174D01*
X37444680Y-37202938D01*
X37444680Y-42680000D01*
X33522089Y-42680000D01*
X28067131Y-36679545D01*
X28067242Y-36553339D01*
X27855010Y-36039697D01*
X27462370Y-35646371D01*
X26949100Y-35433243D01*
X26393339Y-35432758D01*
X25879697Y-35644990D01*
X25486371Y-36037630D01*
X25273243Y-36550900D01*
X25273181Y-36621686D01*
X22389868Y-39505000D01*
X21717242Y-39505000D01*
X21717242Y-35283339D01*
X21505010Y-34769697D01*
X21112370Y-34376371D01*
X20599100Y-34163243D01*
X20043339Y-34162758D01*
X19529697Y-34374990D01*
X19136371Y-34767630D01*
X18923243Y-35280900D01*
X18922758Y-35836661D01*
X19134990Y-36350303D01*
X19527630Y-36743629D01*
X20040900Y-36956757D01*
X20596661Y-36957242D01*
X21110303Y-36745010D01*
X21503629Y-36352370D01*
X21716757Y-35839100D01*
X21717242Y-35283339D01*
X21717242Y-39505000D01*
X21160914Y-39505000D01*
X21112370Y-39456371D01*
X20599100Y-39243243D01*
X20043339Y-39242758D01*
X19529697Y-39454990D01*
X19136371Y-39847630D01*
X18923243Y-40360900D01*
X18922758Y-40916661D01*
X19134990Y-41430303D01*
X19527630Y-41823629D01*
X20040900Y-42036757D01*
X20596661Y-42037242D01*
X21110303Y-41825010D01*
X21160400Y-41775000D01*
X22860000Y-41775000D01*
X23294345Y-41688603D01*
X23294346Y-41688603D01*
X23662566Y-41442566D01*
X26630872Y-38474259D01*
X32180168Y-44578484D01*
X32202207Y-44594778D01*
X32217434Y-44617566D01*
X32379516Y-44725866D01*
X32536270Y-44841757D01*
X32562865Y-44848376D01*
X32585654Y-44863603D01*
X32776848Y-44901634D01*
X32966014Y-44948715D01*
X32993118Y-44944652D01*
X33020000Y-44950000D01*
X50800000Y-44950000D01*
X50826881Y-44944652D01*
X50853986Y-44948715D01*
X51043153Y-44901633D01*
X51234346Y-44863603D01*
X51257133Y-44848376D01*
X51283731Y-44841757D01*
X51440488Y-44725862D01*
X51602566Y-44617566D01*
X51617792Y-44594778D01*
X51639832Y-44578484D01*
X57652089Y-37965000D01*
X57723074Y-37965000D01*
X57736945Y-37985759D01*
X58267212Y-38340072D01*
X58892704Y-38464490D01*
X60487296Y-38464490D01*
X61112788Y-38340072D01*
X61643055Y-37985759D01*
X61997368Y-37455492D01*
X62121786Y-36830000D01*
X62121786Y-79450811D01*
X61386515Y-79145501D01*
X60537211Y-79144760D01*
X59752273Y-79469090D01*
X59151200Y-80069114D01*
X58825501Y-80853485D01*
X58824760Y-81702789D01*
X59149090Y-82487727D01*
X59749114Y-83088800D01*
X60533485Y-83414499D01*
X61382789Y-83415240D01*
X62167727Y-83090910D01*
X62768800Y-82490886D01*
X63094499Y-81706515D01*
X63095240Y-80857211D01*
X63095240Y-84405000D01*
X57277767Y-84405000D01*
X57277767Y-66244966D01*
X57277767Y-49734966D01*
X57265810Y-49499561D01*
X57265810Y-46715602D01*
X57055314Y-46206163D01*
X56665887Y-45816056D01*
X56156816Y-45604671D01*
X55605602Y-45604190D01*
X55096163Y-45814686D01*
X55055778Y-45855000D01*
X39270231Y-45855000D01*
X39256120Y-45833880D01*
X38725688Y-45479457D01*
X38100000Y-45354999D01*
X37474313Y-45479457D01*
X36943881Y-45833880D01*
X36823880Y-45953880D01*
X36809768Y-45975000D01*
X28079144Y-45975000D01*
X28079144Y-42117698D01*
X28051362Y-41562632D01*
X27892397Y-41178857D01*
X27650213Y-41109392D01*
X27470608Y-41288997D01*
X27470608Y-40929787D01*
X27401143Y-40687603D01*
X26877698Y-40500856D01*
X26322632Y-40528638D01*
X25938857Y-40687603D01*
X25869392Y-40929787D01*
X26670000Y-41730395D01*
X27470608Y-40929787D01*
X27470608Y-41288997D01*
X26849605Y-41910000D01*
X27650213Y-42710608D01*
X27892397Y-42641143D01*
X28079144Y-42117698D01*
X28079144Y-45975000D01*
X27846483Y-45975000D01*
X27597073Y-45725154D01*
X27470608Y-45672641D01*
X27470608Y-42890213D01*
X26670000Y-42089605D01*
X26490395Y-42269210D01*
X26490395Y-41910000D01*
X25689787Y-41109392D01*
X25447603Y-41178857D01*
X25260856Y-41702302D01*
X25288638Y-42257368D01*
X25447603Y-42641143D01*
X25689787Y-42710608D01*
X26490395Y-41910000D01*
X26490395Y-42269210D01*
X25869392Y-42890213D01*
X25938857Y-43132397D01*
X26462302Y-43319144D01*
X27017368Y-43291362D01*
X27401143Y-43132397D01*
X27470608Y-42890213D01*
X27470608Y-45672641D01*
X26996547Y-45475794D01*
X26346306Y-45475226D01*
X25745345Y-45723538D01*
X25285154Y-46182927D01*
X25035794Y-46783453D01*
X25035226Y-47433694D01*
X25283538Y-48034655D01*
X25535000Y-48286556D01*
X25535000Y-50935000D01*
X18760725Y-50935000D01*
X18755463Y-50907877D01*
X18691904Y-50811120D01*
X18693327Y-50809698D01*
X18790000Y-50576309D01*
X18790000Y-50335750D01*
X18790000Y-49764250D01*
X18790000Y-49523691D01*
X18693327Y-49290302D01*
X18514699Y-49111673D01*
X18281310Y-49015000D01*
X18065750Y-49015000D01*
X17907000Y-49173750D01*
X17907000Y-49923000D01*
X18631250Y-49923000D01*
X18790000Y-49764250D01*
X18790000Y-50335750D01*
X18631250Y-50177000D01*
X17907000Y-50177000D01*
X17907000Y-50197000D01*
X17653000Y-50197000D01*
X17653000Y-50177000D01*
X17653000Y-49923000D01*
X17653000Y-49173750D01*
X17494250Y-49015000D01*
X17278690Y-49015000D01*
X17045301Y-49111673D01*
X16866673Y-49290302D01*
X16770000Y-49523691D01*
X16770000Y-49764250D01*
X16928750Y-49923000D01*
X17653000Y-49923000D01*
X17653000Y-50177000D01*
X16928750Y-50177000D01*
X16770000Y-50335750D01*
X16770000Y-50576309D01*
X16866673Y-50809698D01*
X16867955Y-50810980D01*
X16807623Y-50900360D01*
X16800676Y-50935000D01*
X16649144Y-50935000D01*
X16649144Y-40847698D01*
X16621362Y-40292632D01*
X16462397Y-39908857D01*
X16220213Y-39839392D01*
X16040608Y-40018997D01*
X16040608Y-39659787D01*
X15971143Y-39417603D01*
X15447698Y-39230856D01*
X14892632Y-39258638D01*
X14508857Y-39417603D01*
X14439392Y-39659787D01*
X15240000Y-40460395D01*
X16040608Y-39659787D01*
X16040608Y-40018997D01*
X15419605Y-40640000D01*
X16220213Y-41440608D01*
X16462397Y-41371143D01*
X16649144Y-40847698D01*
X16649144Y-50935000D01*
X16040608Y-50935000D01*
X16040608Y-41620213D01*
X15240000Y-40819605D01*
X15060395Y-40999210D01*
X15060395Y-40640000D01*
X14259787Y-39839392D01*
X14017603Y-39908857D01*
X13830856Y-40432302D01*
X13858638Y-40987368D01*
X14017603Y-41371143D01*
X14259787Y-41440608D01*
X15060395Y-40640000D01*
X15060395Y-40999210D01*
X14439392Y-41620213D01*
X14508857Y-41862397D01*
X15032302Y-42049144D01*
X15587368Y-42021362D01*
X15971143Y-41862397D01*
X16040608Y-41620213D01*
X16040608Y-50935000D01*
X15494264Y-50935000D01*
X15494264Y-46688188D01*
X15262738Y-46127851D01*
X14834404Y-45698769D01*
X14274472Y-45466265D01*
X13668188Y-45465736D01*
X13107851Y-45697262D01*
X12678769Y-46125596D01*
X12446265Y-46685528D01*
X12445736Y-47291812D01*
X12677262Y-47852149D01*
X12867073Y-48042292D01*
X12721302Y-48102673D01*
X12542673Y-48281301D01*
X12446000Y-48514690D01*
X12446000Y-48767309D01*
X12446000Y-49244250D01*
X12604750Y-49403000D01*
X13843000Y-49403000D01*
X13843000Y-49383000D01*
X14097000Y-49383000D01*
X14097000Y-49403000D01*
X15335250Y-49403000D01*
X15494000Y-49244250D01*
X15494000Y-48767309D01*
X15494000Y-48514690D01*
X15397327Y-48281301D01*
X15218698Y-48102673D01*
X15072988Y-48042318D01*
X15261231Y-47854404D01*
X15493735Y-47294472D01*
X15494264Y-46688188D01*
X15494264Y-50935000D01*
X15241025Y-50935000D01*
X15397327Y-50778699D01*
X15494000Y-50545310D01*
X15494000Y-50292691D01*
X15494000Y-49815750D01*
X15335250Y-49657000D01*
X14097000Y-49657000D01*
X14097000Y-49677000D01*
X13843000Y-49677000D01*
X13843000Y-49657000D01*
X12604750Y-49657000D01*
X12446000Y-49815750D01*
X12446000Y-50292691D01*
X12446000Y-50545310D01*
X12542673Y-50778699D01*
X12721302Y-50957327D01*
X12867011Y-51017681D01*
X12678769Y-51205596D01*
X12446265Y-51765528D01*
X12445736Y-52371812D01*
X12677262Y-52932149D01*
X13105596Y-53361231D01*
X13665528Y-53593735D01*
X13888797Y-53593929D01*
X16645000Y-56350132D01*
X16645000Y-72525000D01*
X15494264Y-72525000D01*
X15494264Y-68278188D01*
X15262738Y-67717851D01*
X14834404Y-67288769D01*
X14274472Y-67056265D01*
X13668188Y-67055736D01*
X13107851Y-67287262D01*
X12678769Y-67715596D01*
X12446265Y-68275528D01*
X12445736Y-68881812D01*
X12677262Y-69442149D01*
X12867073Y-69632292D01*
X12721302Y-69692673D01*
X12542673Y-69871301D01*
X12446000Y-70104690D01*
X12446000Y-70357309D01*
X12446000Y-70834250D01*
X12604750Y-70993000D01*
X13843000Y-70993000D01*
X13843000Y-70973000D01*
X14097000Y-70973000D01*
X14097000Y-70993000D01*
X15335250Y-70993000D01*
X15494000Y-70834250D01*
X15494000Y-70357309D01*
X15494000Y-70104690D01*
X15397327Y-69871301D01*
X15218698Y-69692673D01*
X15072988Y-69632318D01*
X15261231Y-69444404D01*
X15493735Y-68884472D01*
X15494264Y-68278188D01*
X15494264Y-72525000D01*
X15241025Y-72525000D01*
X15397327Y-72368699D01*
X15494000Y-72135310D01*
X15494000Y-71882691D01*
X15494000Y-71405750D01*
X15335250Y-71247000D01*
X14097000Y-71247000D01*
X14097000Y-71267000D01*
X13843000Y-71267000D01*
X13843000Y-71247000D01*
X12604750Y-71247000D01*
X12446000Y-71405750D01*
X12446000Y-71882691D01*
X12446000Y-72135310D01*
X12542673Y-72368699D01*
X12721302Y-72547327D01*
X12867011Y-72607681D01*
X12678769Y-72795596D01*
X12446265Y-73355528D01*
X12445736Y-73961812D01*
X12677262Y-74522149D01*
X13105596Y-74951231D01*
X13665528Y-75183735D01*
X14271812Y-75184264D01*
X14832149Y-74952738D01*
X14990162Y-74795000D01*
X16331398Y-74795000D01*
X18452760Y-76916362D01*
X18452760Y-77464000D01*
X18499737Y-77706123D01*
X18639527Y-77918927D01*
X18850560Y-78061377D01*
X19100200Y-78111440D01*
X20300200Y-78111440D01*
X20542323Y-78064463D01*
X20639079Y-78000904D01*
X20640502Y-78002327D01*
X20873891Y-78099000D01*
X21314450Y-78099000D01*
X21473200Y-77940250D01*
X21473200Y-77216000D01*
X21453200Y-77216000D01*
X21453200Y-76962000D01*
X21473200Y-76962000D01*
X21473200Y-76237750D01*
X21314450Y-76079000D01*
X20873891Y-76079000D01*
X20640502Y-76175673D01*
X20639219Y-76176955D01*
X20549840Y-76116623D01*
X20300200Y-76066560D01*
X19752562Y-76066560D01*
X18322403Y-74636401D01*
X18582566Y-74462566D01*
X18828603Y-74094346D01*
X18915000Y-73660000D01*
X18915000Y-55880000D01*
X18828604Y-55445655D01*
X18828603Y-55445654D01*
X18582566Y-55077434D01*
X16710132Y-53205000D01*
X26670000Y-53205000D01*
X27104346Y-53118603D01*
X27472566Y-52872566D01*
X27718603Y-52504346D01*
X27805000Y-52070000D01*
X27805000Y-48286483D01*
X27846556Y-48245000D01*
X36809768Y-48245000D01*
X36823880Y-48266120D01*
X37354312Y-48620543D01*
X37374080Y-48624475D01*
X38100000Y-49350395D01*
X38892325Y-48558070D01*
X38861665Y-48449504D01*
X39136120Y-48266120D01*
X39256120Y-48146119D01*
X39270231Y-48125000D01*
X55055236Y-48125000D01*
X55094113Y-48163944D01*
X55309496Y-48253378D01*
X55155735Y-48317069D01*
X55087675Y-48558070D01*
X55880000Y-49350395D01*
X56672325Y-48558070D01*
X56604265Y-48317069D01*
X56438959Y-48258231D01*
X56663837Y-48165314D01*
X57053944Y-47775887D01*
X57265329Y-47266816D01*
X57265810Y-46715602D01*
X57265810Y-49499561D01*
X57249805Y-49184462D01*
X57092931Y-48805735D01*
X56851930Y-48737675D01*
X56059605Y-49530000D01*
X56851930Y-50322325D01*
X57092931Y-50254265D01*
X57277767Y-49734966D01*
X57277767Y-66244966D01*
X57265810Y-66009561D01*
X57265810Y-63225602D01*
X57055314Y-62716163D01*
X56672325Y-62332505D01*
X56672325Y-50501930D01*
X55880000Y-49709605D01*
X55700395Y-49889210D01*
X55700395Y-49530000D01*
X54908070Y-48737675D01*
X54667069Y-48805735D01*
X54482233Y-49325034D01*
X54510195Y-49875538D01*
X54667069Y-50254265D01*
X54908070Y-50322325D01*
X55700395Y-49530000D01*
X55700395Y-49889210D01*
X55087675Y-50501930D01*
X55155735Y-50742931D01*
X55675034Y-50927767D01*
X56225538Y-50899805D01*
X56604265Y-50742931D01*
X56672325Y-50501930D01*
X56672325Y-62332505D01*
X56665887Y-62326056D01*
X56156816Y-62114671D01*
X55605602Y-62114190D01*
X55096163Y-62324686D01*
X55055778Y-62365000D01*
X39497767Y-62365000D01*
X39497767Y-49734966D01*
X39469805Y-49184462D01*
X39312931Y-48805735D01*
X39071930Y-48737675D01*
X38279605Y-49530000D01*
X39071930Y-50322325D01*
X39312931Y-50254265D01*
X39497767Y-49734966D01*
X39497767Y-62365000D01*
X38924763Y-62365000D01*
X38892325Y-62332505D01*
X38892325Y-50501930D01*
X38100000Y-49709605D01*
X37920395Y-49889210D01*
X37920395Y-49530000D01*
X37128070Y-48737675D01*
X36887069Y-48805735D01*
X36702233Y-49325034D01*
X36730195Y-49875538D01*
X36887069Y-50254265D01*
X37128070Y-50322325D01*
X37920395Y-49530000D01*
X37920395Y-49889210D01*
X37307675Y-50501930D01*
X37375735Y-50742931D01*
X37895034Y-50927767D01*
X38445538Y-50899805D01*
X38824265Y-50742931D01*
X38892325Y-50501930D01*
X38892325Y-62332505D01*
X38885887Y-62326056D01*
X38376816Y-62114671D01*
X38319753Y-62114621D01*
X31402566Y-55197434D01*
X31034346Y-54951397D01*
X30600000Y-54865000D01*
X22766483Y-54865000D01*
X22517073Y-54615154D01*
X21916547Y-54365794D01*
X21266306Y-54365226D01*
X20665345Y-54613538D01*
X20205154Y-55072927D01*
X19955794Y-55673453D01*
X19955226Y-56323694D01*
X20203538Y-56924655D01*
X20662927Y-57384846D01*
X21263453Y-57634206D01*
X21913694Y-57634774D01*
X22514655Y-57386462D01*
X22766556Y-57135000D01*
X30129868Y-57135000D01*
X36714238Y-63719370D01*
X36714190Y-63774398D01*
X36924686Y-64283837D01*
X37314113Y-64673944D01*
X37529496Y-64763378D01*
X37375735Y-64827069D01*
X37307675Y-65068070D01*
X38100000Y-65860395D01*
X38892325Y-65068070D01*
X38824265Y-64827069D01*
X38658959Y-64768231D01*
X38883837Y-64675314D01*
X38924221Y-64635000D01*
X55055236Y-64635000D01*
X55094113Y-64673944D01*
X55309496Y-64763378D01*
X55155735Y-64827069D01*
X55087675Y-65068070D01*
X55880000Y-65860395D01*
X56672325Y-65068070D01*
X56604265Y-64827069D01*
X56438959Y-64768231D01*
X56663837Y-64675314D01*
X57053944Y-64285887D01*
X57265329Y-63776816D01*
X57265810Y-63225602D01*
X57265810Y-66009561D01*
X57249805Y-65694462D01*
X57092931Y-65315735D01*
X56851930Y-65247675D01*
X56059605Y-66040000D01*
X56851930Y-66832325D01*
X57092931Y-66764265D01*
X57277767Y-66244966D01*
X57277767Y-84405000D01*
X56672325Y-84405000D01*
X56672325Y-67011930D01*
X55880000Y-66219605D01*
X55700395Y-66399210D01*
X55700395Y-66040000D01*
X54908070Y-65247675D01*
X54667069Y-65315735D01*
X54482233Y-65835034D01*
X54510195Y-66385538D01*
X54667069Y-66764265D01*
X54908070Y-66832325D01*
X55700395Y-66040000D01*
X55700395Y-66399210D01*
X55087675Y-67011930D01*
X55155735Y-67252931D01*
X55675034Y-67437767D01*
X56225538Y-67409805D01*
X56604265Y-67252931D01*
X56672325Y-67011930D01*
X56672325Y-84405000D01*
X54974490Y-84405000D01*
X54974490Y-80807296D01*
X54974490Y-79212704D01*
X54850072Y-78587212D01*
X54495759Y-78056945D01*
X54100000Y-77792507D01*
X54100000Y-75411910D01*
X54121440Y-75305000D01*
X54121440Y-74555000D01*
X54074463Y-74312877D01*
X53934673Y-74100073D01*
X53723640Y-73957623D01*
X53474000Y-73907560D01*
X52674000Y-73907560D01*
X52431877Y-73954537D01*
X52335120Y-74018095D01*
X52333698Y-74016673D01*
X52100309Y-73920000D01*
X51859750Y-73920000D01*
X51701000Y-74078750D01*
X51701000Y-74803000D01*
X51721000Y-74803000D01*
X51721000Y-75057000D01*
X51701000Y-75057000D01*
X51701000Y-75781250D01*
X51859750Y-75940000D01*
X52100309Y-75940000D01*
X52333698Y-75843327D01*
X52334980Y-75842044D01*
X52424360Y-75902377D01*
X52580000Y-75933589D01*
X52580000Y-77792507D01*
X52184241Y-78056945D01*
X51829928Y-78587212D01*
X51705510Y-79212704D01*
X51705510Y-80807296D01*
X51829928Y-81432788D01*
X52184241Y-81963055D01*
X52714508Y-82317368D01*
X53340000Y-82441786D01*
X53965492Y-82317368D01*
X54495759Y-81963055D01*
X54850072Y-81432788D01*
X54974490Y-80807296D01*
X54974490Y-84405000D01*
X51447000Y-84405000D01*
X51447000Y-75781250D01*
X51447000Y-75057000D01*
X51447000Y-74803000D01*
X51447000Y-74078750D01*
X51288250Y-73920000D01*
X51047691Y-73920000D01*
X50814302Y-74016673D01*
X50635673Y-74195301D01*
X50539000Y-74428690D01*
X50539000Y-74644250D01*
X50697750Y-74803000D01*
X51447000Y-74803000D01*
X51447000Y-75057000D01*
X50697750Y-75057000D01*
X50539000Y-75215750D01*
X50539000Y-75431310D01*
X50635673Y-75664699D01*
X50814302Y-75843327D01*
X51047691Y-75940000D01*
X51288250Y-75940000D01*
X51447000Y-75781250D01*
X51447000Y-84405000D01*
X49894490Y-84405000D01*
X49894490Y-80887570D01*
X49894490Y-80137000D01*
X49894490Y-79883000D01*
X49894490Y-79132430D01*
X49721471Y-78516605D01*
X49325956Y-78013868D01*
X48768159Y-77700757D01*
X48640354Y-77669811D01*
X48387000Y-77789165D01*
X48387000Y-79883000D01*
X49894490Y-79883000D01*
X49894490Y-80137000D01*
X48387000Y-80137000D01*
X48387000Y-82230835D01*
X48640354Y-82350189D01*
X48768159Y-82319243D01*
X49325956Y-82006132D01*
X49721471Y-81503395D01*
X49894490Y-80887570D01*
X49894490Y-84405000D01*
X48133000Y-84405000D01*
X48133000Y-82230835D01*
X48133000Y-80137000D01*
X48133000Y-79883000D01*
X48133000Y-77789165D01*
X47879646Y-77669811D01*
X47751841Y-77700757D01*
X47194044Y-78013868D01*
X46798529Y-78516605D01*
X46625510Y-79132430D01*
X46625510Y-79883000D01*
X48133000Y-79883000D01*
X48133000Y-80137000D01*
X46625510Y-80137000D01*
X46625510Y-80887570D01*
X46798529Y-81503395D01*
X47194044Y-82006132D01*
X47751841Y-82319243D01*
X47879646Y-82350189D01*
X48133000Y-82230835D01*
X48133000Y-84405000D01*
X44814490Y-84405000D01*
X44814490Y-80807296D01*
X44814490Y-79212704D01*
X44690072Y-78587212D01*
X44335759Y-78056945D01*
X43940000Y-77792507D01*
X43940000Y-75728528D01*
X44057377Y-75554640D01*
X44107440Y-75305000D01*
X44107440Y-74555000D01*
X44060463Y-74312877D01*
X43920673Y-74100073D01*
X43709640Y-73957623D01*
X43460000Y-73907560D01*
X42260000Y-73907560D01*
X42017877Y-73954537D01*
X41921120Y-74018095D01*
X41919698Y-74016673D01*
X41686309Y-73920000D01*
X41245750Y-73920000D01*
X41087000Y-74078750D01*
X41087000Y-74803000D01*
X41107000Y-74803000D01*
X41107000Y-75057000D01*
X41087000Y-75057000D01*
X41087000Y-75781250D01*
X41245750Y-75940000D01*
X41686309Y-75940000D01*
X41919698Y-75843327D01*
X41920980Y-75842044D01*
X42010360Y-75902377D01*
X42260000Y-75952440D01*
X42420000Y-75952440D01*
X42420000Y-77792507D01*
X42024241Y-78056945D01*
X41669928Y-78587212D01*
X41545510Y-79212704D01*
X41545510Y-80807296D01*
X41669928Y-81432788D01*
X42024241Y-81963055D01*
X42554508Y-82317368D01*
X43180000Y-82441786D01*
X43805492Y-82317368D01*
X44335759Y-81963055D01*
X44690072Y-81432788D01*
X44814490Y-80807296D01*
X44814490Y-84405000D01*
X40833000Y-84405000D01*
X40833000Y-75781250D01*
X40833000Y-75057000D01*
X40833000Y-74803000D01*
X40833000Y-74078750D01*
X40674250Y-73920000D01*
X40233691Y-73920000D01*
X40000302Y-74016673D01*
X39821673Y-74195301D01*
X39725000Y-74428690D01*
X39725000Y-74644250D01*
X39883750Y-74803000D01*
X40833000Y-74803000D01*
X40833000Y-75057000D01*
X39883750Y-75057000D01*
X39725000Y-75215750D01*
X39725000Y-75431310D01*
X39821673Y-75664699D01*
X40000302Y-75843327D01*
X40233691Y-75940000D01*
X40674250Y-75940000D01*
X40833000Y-75781250D01*
X40833000Y-84405000D01*
X39734490Y-84405000D01*
X39734490Y-80887570D01*
X39734490Y-80137000D01*
X39734490Y-79883000D01*
X39734490Y-79132430D01*
X39561471Y-78516605D01*
X39497767Y-78435631D01*
X39497767Y-66244966D01*
X39469805Y-65694462D01*
X39312931Y-65315735D01*
X39071930Y-65247675D01*
X38279605Y-66040000D01*
X39071930Y-66832325D01*
X39312931Y-66764265D01*
X39497767Y-66244966D01*
X39497767Y-78435631D01*
X39165956Y-78013868D01*
X38892325Y-77860269D01*
X38892325Y-67011930D01*
X38100000Y-66219605D01*
X37920395Y-66399210D01*
X37920395Y-66040000D01*
X37128070Y-65247675D01*
X36887069Y-65315735D01*
X36702233Y-65835034D01*
X36730195Y-66385538D01*
X36887069Y-66764265D01*
X37128070Y-66832325D01*
X37920395Y-66040000D01*
X37920395Y-66399210D01*
X37307675Y-67011930D01*
X37375735Y-67252931D01*
X37895034Y-67437767D01*
X38445538Y-67409805D01*
X38824265Y-67252931D01*
X38892325Y-67011930D01*
X38892325Y-77860269D01*
X38608159Y-77700757D01*
X38480354Y-77669811D01*
X38227000Y-77789165D01*
X38227000Y-79883000D01*
X39734490Y-79883000D01*
X39734490Y-80137000D01*
X38227000Y-80137000D01*
X38227000Y-82230835D01*
X38480354Y-82350189D01*
X38608159Y-82319243D01*
X39165956Y-82006132D01*
X39561471Y-81503395D01*
X39734490Y-80887570D01*
X39734490Y-84405000D01*
X37973000Y-84405000D01*
X37973000Y-82230835D01*
X37973000Y-80137000D01*
X37973000Y-79883000D01*
X37973000Y-77789165D01*
X37719646Y-77669811D01*
X37591841Y-77700757D01*
X37034044Y-78013868D01*
X36638529Y-78516605D01*
X36465510Y-79132430D01*
X36465510Y-79883000D01*
X37973000Y-79883000D01*
X37973000Y-80137000D01*
X36465510Y-80137000D01*
X36465510Y-80887570D01*
X36638529Y-81503395D01*
X37034044Y-82006132D01*
X37591841Y-82319243D01*
X37719646Y-82350189D01*
X37973000Y-82230835D01*
X37973000Y-84405000D01*
X34654490Y-84405000D01*
X34654490Y-80807296D01*
X34654490Y-79212704D01*
X34530072Y-78587212D01*
X34175759Y-78056945D01*
X33780000Y-77792507D01*
X33780000Y-75728528D01*
X33897377Y-75554640D01*
X33947440Y-75305000D01*
X33947440Y-74555000D01*
X33900463Y-74312877D01*
X33760673Y-74100073D01*
X33549640Y-73957623D01*
X33300000Y-73907560D01*
X32100000Y-73907560D01*
X31857877Y-73954537D01*
X31761120Y-74018095D01*
X31759698Y-74016673D01*
X31526309Y-73920000D01*
X31085750Y-73920000D01*
X30927000Y-74078750D01*
X30927000Y-74803000D01*
X30947000Y-74803000D01*
X30947000Y-75057000D01*
X30927000Y-75057000D01*
X30927000Y-75781250D01*
X31085750Y-75940000D01*
X31526309Y-75940000D01*
X31759698Y-75843327D01*
X31760980Y-75842044D01*
X31850360Y-75902377D01*
X32100000Y-75952440D01*
X32260000Y-75952440D01*
X32260000Y-77792507D01*
X31864241Y-78056945D01*
X31509928Y-78587212D01*
X31385510Y-79212704D01*
X31385510Y-80807296D01*
X31509928Y-81432788D01*
X31864241Y-81963055D01*
X32394508Y-82317368D01*
X33020000Y-82441786D01*
X33645492Y-82317368D01*
X34175759Y-81963055D01*
X34530072Y-81432788D01*
X34654490Y-80807296D01*
X34654490Y-84405000D01*
X30673000Y-84405000D01*
X30673000Y-75781250D01*
X30673000Y-75057000D01*
X30673000Y-74803000D01*
X30673000Y-74078750D01*
X30514250Y-73920000D01*
X30073691Y-73920000D01*
X29840302Y-74016673D01*
X29661673Y-74195301D01*
X29565000Y-74428690D01*
X29565000Y-74644250D01*
X29723750Y-74803000D01*
X30673000Y-74803000D01*
X30673000Y-75057000D01*
X29723750Y-75057000D01*
X29565000Y-75215750D01*
X29565000Y-75431310D01*
X29661673Y-75664699D01*
X29840302Y-75843327D01*
X30073691Y-75940000D01*
X30514250Y-75940000D01*
X30673000Y-75781250D01*
X30673000Y-84405000D01*
X29574490Y-84405000D01*
X29574490Y-80887570D01*
X29574490Y-80137000D01*
X29574490Y-79883000D01*
X29574490Y-79132430D01*
X29401471Y-78516605D01*
X29005956Y-78013868D01*
X28448159Y-77700757D01*
X28320354Y-77669811D01*
X28315401Y-77672144D01*
X28315401Y-62374418D01*
X28291341Y-61724623D01*
X28088965Y-61236042D01*
X27822163Y-61137443D01*
X27642557Y-61317048D01*
X27642557Y-60957837D01*
X27543958Y-60691035D01*
X26934418Y-60464599D01*
X26284623Y-60488659D01*
X25796042Y-60691035D01*
X25697443Y-60957837D01*
X26670000Y-61930395D01*
X27642557Y-60957837D01*
X27642557Y-61317048D01*
X26849605Y-62110000D01*
X27822163Y-63082557D01*
X28088965Y-62983958D01*
X28315401Y-62374418D01*
X28315401Y-77672144D01*
X28067000Y-77789165D01*
X28067000Y-79883000D01*
X29574490Y-79883000D01*
X29574490Y-80137000D01*
X28067000Y-80137000D01*
X28067000Y-82230835D01*
X28320354Y-82350189D01*
X28448159Y-82319243D01*
X29005956Y-82006132D01*
X29401471Y-81503395D01*
X29574490Y-80887570D01*
X29574490Y-84405000D01*
X27813000Y-84405000D01*
X27813000Y-82230835D01*
X27813000Y-80137000D01*
X27813000Y-79883000D01*
X27813000Y-77789165D01*
X27642557Y-77708870D01*
X27642557Y-63262163D01*
X26670000Y-62289605D01*
X26490395Y-62469210D01*
X26490395Y-62110000D01*
X25517837Y-61137443D01*
X25251035Y-61236042D01*
X25024599Y-61845582D01*
X25048659Y-62495377D01*
X25251035Y-62983958D01*
X25517837Y-63082557D01*
X26490395Y-62110000D01*
X26490395Y-62469210D01*
X25697443Y-63262163D01*
X25796042Y-63528965D01*
X26405582Y-63755401D01*
X27055377Y-63731341D01*
X27543958Y-63528965D01*
X27642557Y-63262163D01*
X27642557Y-77708870D01*
X27559646Y-77669811D01*
X27431841Y-77700757D01*
X26874044Y-78013868D01*
X26478529Y-78516605D01*
X26305510Y-79132430D01*
X26305510Y-79883000D01*
X27813000Y-79883000D01*
X27813000Y-80137000D01*
X26305510Y-80137000D01*
X26305510Y-80887570D01*
X26478529Y-81503395D01*
X26874044Y-82006132D01*
X27431841Y-82319243D01*
X27559646Y-82350189D01*
X27813000Y-82230835D01*
X27813000Y-84405000D01*
X23235401Y-84405000D01*
X23235401Y-71264418D01*
X23211341Y-70614623D01*
X23008965Y-70126042D01*
X22742163Y-70027443D01*
X22562557Y-70207048D01*
X22562557Y-69847837D01*
X22463958Y-69581035D01*
X21854418Y-69354599D01*
X21204623Y-69378659D01*
X20716042Y-69581035D01*
X20617443Y-69847837D01*
X21590000Y-70820395D01*
X22562557Y-69847837D01*
X22562557Y-70207048D01*
X21769605Y-71000000D01*
X22742163Y-71972557D01*
X23008965Y-71873958D01*
X23235401Y-71264418D01*
X23235401Y-84405000D01*
X22835200Y-84405000D01*
X22835200Y-77590310D01*
X22835200Y-77374750D01*
X22835200Y-76803250D01*
X22835200Y-76587690D01*
X22738527Y-76354301D01*
X22562557Y-76178331D01*
X22562557Y-72152163D01*
X21590000Y-71179605D01*
X21410395Y-71359210D01*
X21410395Y-71000000D01*
X20437837Y-70027443D01*
X20171035Y-70126042D01*
X19944599Y-70735582D01*
X19968659Y-71385377D01*
X20171035Y-71873958D01*
X20437837Y-71972557D01*
X21410395Y-71000000D01*
X21410395Y-71359210D01*
X20617443Y-72152163D01*
X20716042Y-72418965D01*
X21325582Y-72645401D01*
X21975377Y-72621341D01*
X22463958Y-72418965D01*
X22562557Y-72152163D01*
X22562557Y-76178331D01*
X22559898Y-76175673D01*
X22326509Y-76079000D01*
X21885950Y-76079000D01*
X21727200Y-76237750D01*
X21727200Y-76962000D01*
X22676450Y-76962000D01*
X22835200Y-76803250D01*
X22835200Y-77374750D01*
X22676450Y-77216000D01*
X21727200Y-77216000D01*
X21727200Y-77940250D01*
X21885950Y-78099000D01*
X22326509Y-78099000D01*
X22559898Y-78002327D01*
X22738527Y-77823699D01*
X22835200Y-77590310D01*
X22835200Y-84405000D01*
X16105240Y-84405000D01*
X16105240Y-80857211D01*
X15780910Y-80072273D01*
X15180886Y-79471200D01*
X14396515Y-79145501D01*
X13547211Y-79144760D01*
X12762273Y-79469090D01*
X12161200Y-80069114D01*
X11835501Y-80853485D01*
X11834760Y-81702789D01*
X12159090Y-82487727D01*
X12759114Y-83088800D01*
X13543485Y-83414499D01*
X14392789Y-83415240D01*
X15177727Y-83090910D01*
X15778800Y-82490886D01*
X16104499Y-81706515D01*
X16105240Y-80857211D01*
X16105240Y-84405000D01*
X10845000Y-84405000D01*
X10845000Y-10845000D01*
X64085000Y-10845000D01*
X64085000Y-84405000D01*
X64085000Y-84405000D01*
G37*
X64085000Y-84405000D02*
X63095240Y-84405000D01*
X63095240Y-80857211D01*
X63095240Y-13547211D01*
X62770910Y-12762273D01*
X62170886Y-12161200D01*
X61386515Y-11835501D01*
X60537211Y-11834760D01*
X59752273Y-12159090D01*
X59151200Y-12759114D01*
X58825501Y-13543485D01*
X58824760Y-14392789D01*
X59149090Y-15177727D01*
X59749114Y-15778800D01*
X60533485Y-16104499D01*
X61382789Y-16105240D01*
X62167727Y-15780910D01*
X62768800Y-15180886D01*
X63094499Y-14396515D01*
X63095240Y-13547211D01*
X63095240Y-80857211D01*
X62770910Y-80072273D01*
X62170886Y-79471200D01*
X62121786Y-79450811D01*
X62121786Y-36830000D01*
X62121786Y-31750000D01*
X61997368Y-31124508D01*
X61643055Y-30594241D01*
X61112788Y-30239928D01*
X60825000Y-30182683D01*
X60825000Y-28237316D01*
X61112788Y-28180072D01*
X61643055Y-27825759D01*
X61997368Y-27295492D01*
X62121786Y-26670000D01*
X62121786Y-21590000D01*
X61997368Y-20964508D01*
X61643055Y-20434241D01*
X61112788Y-20079928D01*
X60487296Y-19955510D01*
X58892704Y-19955510D01*
X58267212Y-20079928D01*
X57736945Y-20434241D01*
X57723074Y-20455000D01*
X54650872Y-20455000D01*
X48874680Y-14678808D01*
X48874680Y-13597062D01*
X48731217Y-12875826D01*
X48322670Y-12264392D01*
X47711236Y-11855845D01*
X46990000Y-11712382D01*
X46268764Y-11855845D01*
X45657330Y-12264392D01*
X45248783Y-12875826D01*
X45105320Y-13597062D01*
X45105320Y-15201458D01*
X45248783Y-15922694D01*
X45657330Y-16534128D01*
X46268764Y-16942675D01*
X46990000Y-17086138D01*
X47711236Y-16942675D01*
X47841346Y-16855738D01*
X53378174Y-22392566D01*
X53746394Y-22638603D01*
X53746395Y-22638603D01*
X54180740Y-22725000D01*
X57723074Y-22725000D01*
X57736945Y-22745759D01*
X58267212Y-23100072D01*
X58892704Y-23224490D01*
X60487296Y-23224490D01*
X61112788Y-23100072D01*
X61643055Y-22745759D01*
X61997368Y-22215492D01*
X62121786Y-21590000D01*
X62121786Y-26670000D01*
X61997368Y-26044508D01*
X61643055Y-25514241D01*
X61112788Y-25159928D01*
X60487296Y-25035510D01*
X58892704Y-25035510D01*
X58267212Y-25159928D01*
X57736945Y-25514241D01*
X57723074Y-25535000D01*
X48300871Y-25535000D01*
X37444680Y-14678808D01*
X37444680Y-13597062D01*
X37301217Y-12875826D01*
X36892670Y-12264392D01*
X36281236Y-11855845D01*
X35560000Y-11712382D01*
X34838764Y-11855845D01*
X34227330Y-12264392D01*
X33818783Y-12875826D01*
X33675320Y-13597062D01*
X33675320Y-15201458D01*
X33818783Y-15922694D01*
X34227330Y-16534128D01*
X34838764Y-16942675D01*
X35560000Y-17086138D01*
X36281236Y-16942675D01*
X36411346Y-16855738D01*
X47028174Y-27472566D01*
X47396394Y-27718603D01*
X47396395Y-27718603D01*
X47830740Y-27805000D01*
X57723074Y-27805000D01*
X57736945Y-27825759D01*
X58267212Y-28180072D01*
X58555000Y-28237316D01*
X58555000Y-30182683D01*
X58267212Y-30239928D01*
X57736945Y-30594241D01*
X57382632Y-31124508D01*
X57258214Y-31750000D01*
X57382632Y-32375492D01*
X57736945Y-32905759D01*
X58267212Y-33260072D01*
X58892704Y-33384490D01*
X60487296Y-33384490D01*
X61112788Y-33260072D01*
X61643055Y-32905759D01*
X61997368Y-32375492D01*
X62121786Y-31750000D01*
X62121786Y-36830000D01*
X61997368Y-36204508D01*
X61643055Y-35674241D01*
X61112788Y-35319928D01*
X60487296Y-35195510D01*
X58892704Y-35195510D01*
X58267212Y-35319928D01*
X57736945Y-35674241D01*
X57723074Y-35695000D01*
X57150000Y-35695000D01*
X57123118Y-35700347D01*
X57096014Y-35696285D01*
X56906848Y-35743365D01*
X56715654Y-35781397D01*
X56692865Y-35796623D01*
X56666270Y-35803243D01*
X56509516Y-35919133D01*
X56347434Y-36027434D01*
X56332207Y-36050221D01*
X56310168Y-36066516D01*
X50297909Y-42680000D01*
X48874680Y-42680000D01*
X48874680Y-37202938D01*
X48874680Y-35598542D01*
X48731217Y-34877306D01*
X48322670Y-34265872D01*
X47711236Y-33857325D01*
X46990000Y-33713862D01*
X46268764Y-33857325D01*
X46138653Y-33944261D01*
X43141826Y-30947434D01*
X42773606Y-30701397D01*
X42339260Y-30615000D01*
X28304490Y-30615000D01*
X28304490Y-16117570D01*
X28304490Y-15367000D01*
X28304490Y-15113000D01*
X28304490Y-14362430D01*
X28131471Y-13746605D01*
X27735956Y-13243868D01*
X27178159Y-12930757D01*
X27050354Y-12899811D01*
X26797000Y-13019165D01*
X26797000Y-15113000D01*
X28304490Y-15113000D01*
X28304490Y-15367000D01*
X26797000Y-15367000D01*
X26797000Y-17460835D01*
X27050354Y-17580189D01*
X27178159Y-17549243D01*
X27735956Y-17236132D01*
X28131471Y-16733395D01*
X28304490Y-16117570D01*
X28304490Y-30615000D01*
X28067242Y-30615000D01*
X28067242Y-26393339D01*
X27855010Y-25879697D01*
X27462370Y-25486371D01*
X26949100Y-25273243D01*
X26543000Y-25272888D01*
X26543000Y-17460835D01*
X26543000Y-15367000D01*
X26543000Y-15113000D01*
X26543000Y-13019165D01*
X26289646Y-12899811D01*
X26161841Y-12930757D01*
X25604044Y-13243868D01*
X25208529Y-13746605D01*
X25036365Y-14359384D01*
X25007000Y-14388750D01*
X25007000Y-15113000D01*
X25035510Y-15113000D01*
X25756250Y-15113000D01*
X26543000Y-15113000D01*
X26543000Y-15367000D01*
X25756250Y-15367000D01*
X25035510Y-15367000D01*
X25007000Y-15367000D01*
X25007000Y-16091250D01*
X25036365Y-16120615D01*
X25208529Y-16733395D01*
X25604044Y-17236132D01*
X26161841Y-17549243D01*
X26289646Y-17580189D01*
X26543000Y-17460835D01*
X26543000Y-25272888D01*
X26393339Y-25272758D01*
X25879697Y-25484990D01*
X25486371Y-25877630D01*
X25273243Y-26390900D01*
X25272758Y-26946661D01*
X25484990Y-27460303D01*
X25877630Y-27853629D01*
X26390900Y-28066757D01*
X26946661Y-28067242D01*
X27460303Y-27855010D01*
X27853629Y-27462370D01*
X28066757Y-26949100D01*
X28067242Y-26393339D01*
X28067242Y-30615000D01*
X27510914Y-30615000D01*
X27462370Y-30566371D01*
X26949100Y-30353243D01*
X26393339Y-30352758D01*
X25879697Y-30564990D01*
X25486371Y-30957630D01*
X25273243Y-31470900D01*
X25272758Y-32026661D01*
X25484990Y-32540303D01*
X25877630Y-32933629D01*
X26390900Y-33146757D01*
X26946661Y-33147242D01*
X27460303Y-32935010D01*
X27510400Y-32885000D01*
X41869128Y-32885000D01*
X45105320Y-36121192D01*
X45105320Y-37202938D01*
X45248783Y-37924174D01*
X45657330Y-38535608D01*
X46268764Y-38944155D01*
X46990000Y-39087618D01*
X47711236Y-38944155D01*
X48322670Y-38535608D01*
X48731217Y-37924174D01*
X48874680Y-37202938D01*
X48874680Y-42680000D01*
X37444680Y-42680000D01*
X37444680Y-37202938D01*
X37444680Y-35598542D01*
X37301217Y-34877306D01*
X36892670Y-34265872D01*
X36281236Y-33857325D01*
X35560000Y-33713862D01*
X34838764Y-33857325D01*
X34227330Y-34265872D01*
X33818783Y-34877306D01*
X33741518Y-35265740D01*
X32425872Y-35265740D01*
X30647566Y-33487434D01*
X30279346Y-33241397D01*
X29845000Y-33155000D01*
X25235132Y-33155000D01*
X24753000Y-32672868D01*
X24753000Y-16091250D01*
X24753000Y-15367000D01*
X24733000Y-15367000D01*
X24733000Y-15113000D01*
X24753000Y-15113000D01*
X24753000Y-14388750D01*
X24594250Y-14230000D01*
X24353691Y-14230000D01*
X24120302Y-14326673D01*
X24119019Y-14327955D01*
X24029640Y-14267623D01*
X23780000Y-14217560D01*
X23179706Y-14217560D01*
X23100072Y-13817212D01*
X22745759Y-13286945D01*
X22215492Y-12932632D01*
X21590000Y-12808214D01*
X20964508Y-12932632D01*
X20434241Y-13286945D01*
X20079928Y-13817212D01*
X19955510Y-14442704D01*
X19955510Y-16037296D01*
X20079928Y-16662788D01*
X20434241Y-17193055D01*
X20964508Y-17547368D01*
X21590000Y-17671786D01*
X22215492Y-17547368D01*
X22745759Y-17193055D01*
X23100072Y-16662788D01*
X23179706Y-16262440D01*
X23780000Y-16262440D01*
X24022123Y-16215463D01*
X24118879Y-16151904D01*
X24120302Y-16153327D01*
X24353691Y-16250000D01*
X24594250Y-16250000D01*
X24753000Y-16091250D01*
X24753000Y-32672868D01*
X23027566Y-30947434D01*
X22659346Y-30701397D01*
X22225000Y-30615000D01*
X19050000Y-30615000D01*
X18615655Y-30701396D01*
X18599240Y-30712364D01*
X18599240Y-28550200D01*
X18599240Y-27350200D01*
X18552263Y-27108077D01*
X18488704Y-27011320D01*
X18490127Y-27009898D01*
X18586800Y-26776509D01*
X18586800Y-26335950D01*
X18586800Y-25764450D01*
X18586800Y-25323891D01*
X18490127Y-25090502D01*
X18311499Y-24911873D01*
X18078110Y-24815200D01*
X17862550Y-24815200D01*
X17703800Y-24973950D01*
X17703800Y-25923200D01*
X18428050Y-25923200D01*
X18586800Y-25764450D01*
X18586800Y-26335950D01*
X18428050Y-26177200D01*
X17703800Y-26177200D01*
X17703800Y-26197200D01*
X17449800Y-26197200D01*
X17449800Y-26177200D01*
X17449800Y-25923200D01*
X17449800Y-24973950D01*
X17291050Y-24815200D01*
X17075490Y-24815200D01*
X16842101Y-24911873D01*
X16663473Y-25090502D01*
X16566800Y-25323891D01*
X16566800Y-25764450D01*
X16725550Y-25923200D01*
X17449800Y-25923200D01*
X17449800Y-26177200D01*
X16725550Y-26177200D01*
X16566800Y-26335950D01*
X16566800Y-26776509D01*
X16663473Y-27009898D01*
X16664755Y-27011180D01*
X16604423Y-27100560D01*
X16588492Y-27180000D01*
X16105240Y-27180000D01*
X16105240Y-13547211D01*
X15780910Y-12762273D01*
X15180886Y-12161200D01*
X14396515Y-11835501D01*
X13547211Y-11834760D01*
X12762273Y-12159090D01*
X12161200Y-12759114D01*
X11835501Y-13543485D01*
X11834760Y-14392789D01*
X12159090Y-15177727D01*
X12759114Y-15778800D01*
X13543485Y-16104499D01*
X14392789Y-16105240D01*
X15177727Y-15780910D01*
X15778800Y-15180886D01*
X16104499Y-14396515D01*
X16105240Y-13547211D01*
X16105240Y-27180000D01*
X15494264Y-27180000D01*
X15494264Y-22558188D01*
X15262738Y-21997851D01*
X14834404Y-21568769D01*
X14274472Y-21336265D01*
X13668188Y-21335736D01*
X13107851Y-21567262D01*
X12678769Y-21995596D01*
X12446265Y-22555528D01*
X12445736Y-23161812D01*
X12677262Y-23722149D01*
X12867073Y-23912292D01*
X12721302Y-23972673D01*
X12542673Y-24151301D01*
X12446000Y-24384690D01*
X12446000Y-24637309D01*
X12446000Y-25114250D01*
X12604750Y-25273000D01*
X13843000Y-25273000D01*
X13843000Y-25253000D01*
X14097000Y-25253000D01*
X14097000Y-25273000D01*
X15335250Y-25273000D01*
X15494000Y-25114250D01*
X15494000Y-24637309D01*
X15494000Y-24384690D01*
X15397327Y-24151301D01*
X15218698Y-23972673D01*
X15072988Y-23912318D01*
X15261231Y-23724404D01*
X15493735Y-23164472D01*
X15494264Y-22558188D01*
X15494264Y-27180000D01*
X15304945Y-27180000D01*
X15262738Y-27077851D01*
X15072926Y-26887707D01*
X15218698Y-26827327D01*
X15397327Y-26648699D01*
X15494000Y-26415310D01*
X15494000Y-26162691D01*
X15494000Y-25685750D01*
X15335250Y-25527000D01*
X14097000Y-25527000D01*
X14097000Y-25547000D01*
X13843000Y-25547000D01*
X13843000Y-25527000D01*
X12604750Y-25527000D01*
X12446000Y-25685750D01*
X12446000Y-26162691D01*
X12446000Y-26415310D01*
X12542673Y-26648699D01*
X12721302Y-26827327D01*
X12867011Y-26887681D01*
X12678769Y-27075596D01*
X12446265Y-27635528D01*
X12445736Y-28241812D01*
X12677262Y-28802149D01*
X13105596Y-29231231D01*
X13665528Y-29463735D01*
X14271812Y-29464264D01*
X14832149Y-29232738D01*
X15261231Y-28804404D01*
X15304583Y-28700000D01*
X16583424Y-28700000D01*
X16601337Y-28792323D01*
X16741127Y-29005127D01*
X16952160Y-29147577D01*
X17201800Y-29197640D01*
X17951800Y-29197640D01*
X18193923Y-29150663D01*
X18406727Y-29010873D01*
X18549177Y-28799840D01*
X18599240Y-28550200D01*
X18599240Y-30712364D01*
X18247434Y-30947434D01*
X15032050Y-34162817D01*
X14963339Y-34162758D01*
X14449697Y-34374990D01*
X14056371Y-34767630D01*
X13843243Y-35280900D01*
X13842758Y-35836661D01*
X14054990Y-36350303D01*
X14447630Y-36743629D01*
X14960900Y-36956757D01*
X15516661Y-36957242D01*
X16030303Y-36745010D01*
X16423629Y-36352370D01*
X16636757Y-35839100D01*
X16636818Y-35768313D01*
X19520132Y-32885000D01*
X21754867Y-32885000D01*
X23962433Y-35092566D01*
X23962434Y-35092566D01*
X24330654Y-35338603D01*
X24765000Y-35425000D01*
X29374868Y-35425000D01*
X31153174Y-37203306D01*
X31521394Y-37449343D01*
X31521395Y-37449343D01*
X31955740Y-37535740D01*
X33741518Y-37535740D01*
X33818783Y-37924174D01*
X34227330Y-38535608D01*
X34838764Y-38944155D01*
X35560000Y-39087618D01*
X36281236Y-38944155D01*
X36892670Y-38535608D01*
X37301217Y-37924174D01*
X37444680Y-37202938D01*
X37444680Y-42680000D01*
X33522089Y-42680000D01*
X28067131Y-36679545D01*
X28067242Y-36553339D01*
X27855010Y-36039697D01*
X27462370Y-35646371D01*
X26949100Y-35433243D01*
X26393339Y-35432758D01*
X25879697Y-35644990D01*
X25486371Y-36037630D01*
X25273243Y-36550900D01*
X25273181Y-36621686D01*
X22389868Y-39505000D01*
X21717242Y-39505000D01*
X21717242Y-35283339D01*
X21505010Y-34769697D01*
X21112370Y-34376371D01*
X20599100Y-34163243D01*
X20043339Y-34162758D01*
X19529697Y-34374990D01*
X19136371Y-34767630D01*
X18923243Y-35280900D01*
X18922758Y-35836661D01*
X19134990Y-36350303D01*
X19527630Y-36743629D01*
X20040900Y-36956757D01*
X20596661Y-36957242D01*
X21110303Y-36745010D01*
X21503629Y-36352370D01*
X21716757Y-35839100D01*
X21717242Y-35283339D01*
X21717242Y-39505000D01*
X21160914Y-39505000D01*
X21112370Y-39456371D01*
X20599100Y-39243243D01*
X20043339Y-39242758D01*
X19529697Y-39454990D01*
X19136371Y-39847630D01*
X18923243Y-40360900D01*
X18922758Y-40916661D01*
X19134990Y-41430303D01*
X19527630Y-41823629D01*
X20040900Y-42036757D01*
X20596661Y-42037242D01*
X21110303Y-41825010D01*
X21160400Y-41775000D01*
X22860000Y-41775000D01*
X23294345Y-41688603D01*
X23294346Y-41688603D01*
X23662566Y-41442566D01*
X26630872Y-38474259D01*
X32180168Y-44578484D01*
X32202207Y-44594778D01*
X32217434Y-44617566D01*
X32379516Y-44725866D01*
X32536270Y-44841757D01*
X32562865Y-44848376D01*
X32585654Y-44863603D01*
X32776848Y-44901634D01*
X32966014Y-44948715D01*
X32993118Y-44944652D01*
X33020000Y-44950000D01*
X50800000Y-44950000D01*
X50826881Y-44944652D01*
X50853986Y-44948715D01*
X51043153Y-44901633D01*
X51234346Y-44863603D01*
X51257133Y-44848376D01*
X51283731Y-44841757D01*
X51440488Y-44725862D01*
X51602566Y-44617566D01*
X51617792Y-44594778D01*
X51639832Y-44578484D01*
X57652089Y-37965000D01*
X57723074Y-37965000D01*
X57736945Y-37985759D01*
X58267212Y-38340072D01*
X58892704Y-38464490D01*
X60487296Y-38464490D01*
X61112788Y-38340072D01*
X61643055Y-37985759D01*
X61997368Y-37455492D01*
X62121786Y-36830000D01*
X62121786Y-79450811D01*
X61386515Y-79145501D01*
X60537211Y-79144760D01*
X59752273Y-79469090D01*
X59151200Y-80069114D01*
X58825501Y-80853485D01*
X58824760Y-81702789D01*
X59149090Y-82487727D01*
X59749114Y-83088800D01*
X60533485Y-83414499D01*
X61382789Y-83415240D01*
X62167727Y-83090910D01*
X62768800Y-82490886D01*
X63094499Y-81706515D01*
X63095240Y-80857211D01*
X63095240Y-84405000D01*
X57277767Y-84405000D01*
X57277767Y-66244966D01*
X57277767Y-49734966D01*
X57265810Y-49499561D01*
X57265810Y-46715602D01*
X57055314Y-46206163D01*
X56665887Y-45816056D01*
X56156816Y-45604671D01*
X55605602Y-45604190D01*
X55096163Y-45814686D01*
X55055778Y-45855000D01*
X39270231Y-45855000D01*
X39256120Y-45833880D01*
X38725688Y-45479457D01*
X38100000Y-45354999D01*
X37474313Y-45479457D01*
X36943881Y-45833880D01*
X36823880Y-45953880D01*
X36809768Y-45975000D01*
X28079144Y-45975000D01*
X28079144Y-42117698D01*
X28051362Y-41562632D01*
X27892397Y-41178857D01*
X27650213Y-41109392D01*
X27470608Y-41288997D01*
X27470608Y-40929787D01*
X27401143Y-40687603D01*
X26877698Y-40500856D01*
X26322632Y-40528638D01*
X25938857Y-40687603D01*
X25869392Y-40929787D01*
X26670000Y-41730395D01*
X27470608Y-40929787D01*
X27470608Y-41288997D01*
X26849605Y-41910000D01*
X27650213Y-42710608D01*
X27892397Y-42641143D01*
X28079144Y-42117698D01*
X28079144Y-45975000D01*
X27846483Y-45975000D01*
X27597073Y-45725154D01*
X27470608Y-45672641D01*
X27470608Y-42890213D01*
X26670000Y-42089605D01*
X26490395Y-42269210D01*
X26490395Y-41910000D01*
X25689787Y-41109392D01*
X25447603Y-41178857D01*
X25260856Y-41702302D01*
X25288638Y-42257368D01*
X25447603Y-42641143D01*
X25689787Y-42710608D01*
X26490395Y-41910000D01*
X26490395Y-42269210D01*
X25869392Y-42890213D01*
X25938857Y-43132397D01*
X26462302Y-43319144D01*
X27017368Y-43291362D01*
X27401143Y-43132397D01*
X27470608Y-42890213D01*
X27470608Y-45672641D01*
X26996547Y-45475794D01*
X26346306Y-45475226D01*
X25745345Y-45723538D01*
X25285154Y-46182927D01*
X25035794Y-46783453D01*
X25035226Y-47433694D01*
X25283538Y-48034655D01*
X25535000Y-48286556D01*
X25535000Y-50935000D01*
X18760725Y-50935000D01*
X18755463Y-50907877D01*
X18691904Y-50811120D01*
X18693327Y-50809698D01*
X18790000Y-50576309D01*
X18790000Y-50335750D01*
X18790000Y-49764250D01*
X18790000Y-49523691D01*
X18693327Y-49290302D01*
X18514699Y-49111673D01*
X18281310Y-49015000D01*
X18065750Y-49015000D01*
X17907000Y-49173750D01*
X17907000Y-49923000D01*
X18631250Y-49923000D01*
X18790000Y-49764250D01*
X18790000Y-50335750D01*
X18631250Y-50177000D01*
X17907000Y-50177000D01*
X17907000Y-50197000D01*
X17653000Y-50197000D01*
X17653000Y-50177000D01*
X17653000Y-49923000D01*
X17653000Y-49173750D01*
X17494250Y-49015000D01*
X17278690Y-49015000D01*
X17045301Y-49111673D01*
X16866673Y-49290302D01*
X16770000Y-49523691D01*
X16770000Y-49764250D01*
X16928750Y-49923000D01*
X17653000Y-49923000D01*
X17653000Y-50177000D01*
X16928750Y-50177000D01*
X16770000Y-50335750D01*
X16770000Y-50576309D01*
X16866673Y-50809698D01*
X16867955Y-50810980D01*
X16807623Y-50900360D01*
X16800676Y-50935000D01*
X16649144Y-50935000D01*
X16649144Y-40847698D01*
X16621362Y-40292632D01*
X16462397Y-39908857D01*
X16220213Y-39839392D01*
X16040608Y-40018997D01*
X16040608Y-39659787D01*
X15971143Y-39417603D01*
X15447698Y-39230856D01*
X14892632Y-39258638D01*
X14508857Y-39417603D01*
X14439392Y-39659787D01*
X15240000Y-40460395D01*
X16040608Y-39659787D01*
X16040608Y-40018997D01*
X15419605Y-40640000D01*
X16220213Y-41440608D01*
X16462397Y-41371143D01*
X16649144Y-40847698D01*
X16649144Y-50935000D01*
X16040608Y-50935000D01*
X16040608Y-41620213D01*
X15240000Y-40819605D01*
X15060395Y-40999210D01*
X15060395Y-40640000D01*
X14259787Y-39839392D01*
X14017603Y-39908857D01*
X13830856Y-40432302D01*
X13858638Y-40987368D01*
X14017603Y-41371143D01*
X14259787Y-41440608D01*
X15060395Y-40640000D01*
X15060395Y-40999210D01*
X14439392Y-41620213D01*
X14508857Y-41862397D01*
X15032302Y-42049144D01*
X15587368Y-42021362D01*
X15971143Y-41862397D01*
X16040608Y-41620213D01*
X16040608Y-50935000D01*
X15494264Y-50935000D01*
X15494264Y-46688188D01*
X15262738Y-46127851D01*
X14834404Y-45698769D01*
X14274472Y-45466265D01*
X13668188Y-45465736D01*
X13107851Y-45697262D01*
X12678769Y-46125596D01*
X12446265Y-46685528D01*
X12445736Y-47291812D01*
X12677262Y-47852149D01*
X12867073Y-48042292D01*
X12721302Y-48102673D01*
X12542673Y-48281301D01*
X12446000Y-48514690D01*
X12446000Y-48767309D01*
X12446000Y-49244250D01*
X12604750Y-49403000D01*
X13843000Y-49403000D01*
X13843000Y-49383000D01*
X14097000Y-49383000D01*
X14097000Y-49403000D01*
X15335250Y-49403000D01*
X15494000Y-49244250D01*
X15494000Y-48767309D01*
X15494000Y-48514690D01*
X15397327Y-48281301D01*
X15218698Y-48102673D01*
X15072988Y-48042318D01*
X15261231Y-47854404D01*
X15493735Y-47294472D01*
X15494264Y-46688188D01*
X15494264Y-50935000D01*
X15241025Y-50935000D01*
X15397327Y-50778699D01*
X15494000Y-50545310D01*
X15494000Y-50292691D01*
X15494000Y-49815750D01*
X15335250Y-49657000D01*
X14097000Y-49657000D01*
X14097000Y-49677000D01*
X13843000Y-49677000D01*
X13843000Y-49657000D01*
X12604750Y-49657000D01*
X12446000Y-49815750D01*
X12446000Y-50292691D01*
X12446000Y-50545310D01*
X12542673Y-50778699D01*
X12721302Y-50957327D01*
X12867011Y-51017681D01*
X12678769Y-51205596D01*
X12446265Y-51765528D01*
X12445736Y-52371812D01*
X12677262Y-52932149D01*
X13105596Y-53361231D01*
X13665528Y-53593735D01*
X13888797Y-53593929D01*
X16645000Y-56350132D01*
X16645000Y-72525000D01*
X15494264Y-72525000D01*
X15494264Y-68278188D01*
X15262738Y-67717851D01*
X14834404Y-67288769D01*
X14274472Y-67056265D01*
X13668188Y-67055736D01*
X13107851Y-67287262D01*
X12678769Y-67715596D01*
X12446265Y-68275528D01*
X12445736Y-68881812D01*
X12677262Y-69442149D01*
X12867073Y-69632292D01*
X12721302Y-69692673D01*
X12542673Y-69871301D01*
X12446000Y-70104690D01*
X12446000Y-70357309D01*
X12446000Y-70834250D01*
X12604750Y-70993000D01*
X13843000Y-70993000D01*
X13843000Y-70973000D01*
X14097000Y-70973000D01*
X14097000Y-70993000D01*
X15335250Y-70993000D01*
X15494000Y-70834250D01*
X15494000Y-70357309D01*
X15494000Y-70104690D01*
X15397327Y-69871301D01*
X15218698Y-69692673D01*
X15072988Y-69632318D01*
X15261231Y-69444404D01*
X15493735Y-68884472D01*
X15494264Y-68278188D01*
X15494264Y-72525000D01*
X15241025Y-72525000D01*
X15397327Y-72368699D01*
X15494000Y-72135310D01*
X15494000Y-71882691D01*
X15494000Y-71405750D01*
X15335250Y-71247000D01*
X14097000Y-71247000D01*
X14097000Y-71267000D01*
X13843000Y-71267000D01*
X13843000Y-71247000D01*
X12604750Y-71247000D01*
X12446000Y-71405750D01*
X12446000Y-71882691D01*
X12446000Y-72135310D01*
X12542673Y-72368699D01*
X12721302Y-72547327D01*
X12867011Y-72607681D01*
X12678769Y-72795596D01*
X12446265Y-73355528D01*
X12445736Y-73961812D01*
X12677262Y-74522149D01*
X13105596Y-74951231D01*
X13665528Y-75183735D01*
X14271812Y-75184264D01*
X14832149Y-74952738D01*
X14990162Y-74795000D01*
X16331398Y-74795000D01*
X18452760Y-76916362D01*
X18452760Y-77464000D01*
X18499737Y-77706123D01*
X18639527Y-77918927D01*
X18850560Y-78061377D01*
X19100200Y-78111440D01*
X20300200Y-78111440D01*
X20542323Y-78064463D01*
X20639079Y-78000904D01*
X20640502Y-78002327D01*
X20873891Y-78099000D01*
X21314450Y-78099000D01*
X21473200Y-77940250D01*
X21473200Y-77216000D01*
X21453200Y-77216000D01*
X21453200Y-76962000D01*
X21473200Y-76962000D01*
X21473200Y-76237750D01*
X21314450Y-76079000D01*
X20873891Y-76079000D01*
X20640502Y-76175673D01*
X20639219Y-76176955D01*
X20549840Y-76116623D01*
X20300200Y-76066560D01*
X19752562Y-76066560D01*
X18322403Y-74636401D01*
X18582566Y-74462566D01*
X18828603Y-74094346D01*
X18915000Y-73660000D01*
X18915000Y-55880000D01*
X18828604Y-55445655D01*
X18828603Y-55445654D01*
X18582566Y-55077434D01*
X16710132Y-53205000D01*
X26670000Y-53205000D01*
X27104346Y-53118603D01*
X27472566Y-52872566D01*
X27718603Y-52504346D01*
X27805000Y-52070000D01*
X27805000Y-48286483D01*
X27846556Y-48245000D01*
X36809768Y-48245000D01*
X36823880Y-48266120D01*
X37354312Y-48620543D01*
X37374080Y-48624475D01*
X38100000Y-49350395D01*
X38892325Y-48558070D01*
X38861665Y-48449504D01*
X39136120Y-48266120D01*
X39256120Y-48146119D01*
X39270231Y-48125000D01*
X55055236Y-48125000D01*
X55094113Y-48163944D01*
X55309496Y-48253378D01*
X55155735Y-48317069D01*
X55087675Y-48558070D01*
X55880000Y-49350395D01*
X56672325Y-48558070D01*
X56604265Y-48317069D01*
X56438959Y-48258231D01*
X56663837Y-48165314D01*
X57053944Y-47775887D01*
X57265329Y-47266816D01*
X57265810Y-46715602D01*
X57265810Y-49499561D01*
X57249805Y-49184462D01*
X57092931Y-48805735D01*
X56851930Y-48737675D01*
X56059605Y-49530000D01*
X56851930Y-50322325D01*
X57092931Y-50254265D01*
X57277767Y-49734966D01*
X57277767Y-66244966D01*
X57265810Y-66009561D01*
X57265810Y-63225602D01*
X57055314Y-62716163D01*
X56672325Y-62332505D01*
X56672325Y-50501930D01*
X55880000Y-49709605D01*
X55700395Y-49889210D01*
X55700395Y-49530000D01*
X54908070Y-48737675D01*
X54667069Y-48805735D01*
X54482233Y-49325034D01*
X54510195Y-49875538D01*
X54667069Y-50254265D01*
X54908070Y-50322325D01*
X55700395Y-49530000D01*
X55700395Y-49889210D01*
X55087675Y-50501930D01*
X55155735Y-50742931D01*
X55675034Y-50927767D01*
X56225538Y-50899805D01*
X56604265Y-50742931D01*
X56672325Y-50501930D01*
X56672325Y-62332505D01*
X56665887Y-62326056D01*
X56156816Y-62114671D01*
X55605602Y-62114190D01*
X55096163Y-62324686D01*
X55055778Y-62365000D01*
X39497767Y-62365000D01*
X39497767Y-49734966D01*
X39469805Y-49184462D01*
X39312931Y-48805735D01*
X39071930Y-48737675D01*
X38279605Y-49530000D01*
X39071930Y-50322325D01*
X39312931Y-50254265D01*
X39497767Y-49734966D01*
X39497767Y-62365000D01*
X38924763Y-62365000D01*
X38892325Y-62332505D01*
X38892325Y-50501930D01*
X38100000Y-49709605D01*
X37920395Y-49889210D01*
X37920395Y-49530000D01*
X37128070Y-48737675D01*
X36887069Y-48805735D01*
X36702233Y-49325034D01*
X36730195Y-49875538D01*
X36887069Y-50254265D01*
X37128070Y-50322325D01*
X37920395Y-49530000D01*
X37920395Y-49889210D01*
X37307675Y-50501930D01*
X37375735Y-50742931D01*
X37895034Y-50927767D01*
X38445538Y-50899805D01*
X38824265Y-50742931D01*
X38892325Y-50501930D01*
X38892325Y-62332505D01*
X38885887Y-62326056D01*
X38376816Y-62114671D01*
X38319753Y-62114621D01*
X31402566Y-55197434D01*
X31034346Y-54951397D01*
X30600000Y-54865000D01*
X22766483Y-54865000D01*
X22517073Y-54615154D01*
X21916547Y-54365794D01*
X21266306Y-54365226D01*
X20665345Y-54613538D01*
X20205154Y-55072927D01*
X19955794Y-55673453D01*
X19955226Y-56323694D01*
X20203538Y-56924655D01*
X20662927Y-57384846D01*
X21263453Y-57634206D01*
X21913694Y-57634774D01*
X22514655Y-57386462D01*
X22766556Y-57135000D01*
X30129868Y-57135000D01*
X36714238Y-63719370D01*
X36714190Y-63774398D01*
X36924686Y-64283837D01*
X37314113Y-64673944D01*
X37529496Y-64763378D01*
X37375735Y-64827069D01*
X37307675Y-65068070D01*
X38100000Y-65860395D01*
X38892325Y-65068070D01*
X38824265Y-64827069D01*
X38658959Y-64768231D01*
X38883837Y-64675314D01*
X38924221Y-64635000D01*
X55055236Y-64635000D01*
X55094113Y-64673944D01*
X55309496Y-64763378D01*
X55155735Y-64827069D01*
X55087675Y-65068070D01*
X55880000Y-65860395D01*
X56672325Y-65068070D01*
X56604265Y-64827069D01*
X56438959Y-64768231D01*
X56663837Y-64675314D01*
X57053944Y-64285887D01*
X57265329Y-63776816D01*
X57265810Y-63225602D01*
X57265810Y-66009561D01*
X57249805Y-65694462D01*
X57092931Y-65315735D01*
X56851930Y-65247675D01*
X56059605Y-66040000D01*
X56851930Y-66832325D01*
X57092931Y-66764265D01*
X57277767Y-66244966D01*
X57277767Y-84405000D01*
X56672325Y-84405000D01*
X56672325Y-67011930D01*
X55880000Y-66219605D01*
X55700395Y-66399210D01*
X55700395Y-66040000D01*
X54908070Y-65247675D01*
X54667069Y-65315735D01*
X54482233Y-65835034D01*
X54510195Y-66385538D01*
X54667069Y-66764265D01*
X54908070Y-66832325D01*
X55700395Y-66040000D01*
X55700395Y-66399210D01*
X55087675Y-67011930D01*
X55155735Y-67252931D01*
X55675034Y-67437767D01*
X56225538Y-67409805D01*
X56604265Y-67252931D01*
X56672325Y-67011930D01*
X56672325Y-84405000D01*
X54974490Y-84405000D01*
X54974490Y-80807296D01*
X54974490Y-79212704D01*
X54850072Y-78587212D01*
X54495759Y-78056945D01*
X54100000Y-77792507D01*
X54100000Y-75411910D01*
X54121440Y-75305000D01*
X54121440Y-74555000D01*
X54074463Y-74312877D01*
X53934673Y-74100073D01*
X53723640Y-73957623D01*
X53474000Y-73907560D01*
X52674000Y-73907560D01*
X52431877Y-73954537D01*
X52335120Y-74018095D01*
X52333698Y-74016673D01*
X52100309Y-73920000D01*
X51859750Y-73920000D01*
X51701000Y-74078750D01*
X51701000Y-74803000D01*
X51721000Y-74803000D01*
X51721000Y-75057000D01*
X51701000Y-75057000D01*
X51701000Y-75781250D01*
X51859750Y-75940000D01*
X52100309Y-75940000D01*
X52333698Y-75843327D01*
X52334980Y-75842044D01*
X52424360Y-75902377D01*
X52580000Y-75933589D01*
X52580000Y-77792507D01*
X52184241Y-78056945D01*
X51829928Y-78587212D01*
X51705510Y-79212704D01*
X51705510Y-80807296D01*
X51829928Y-81432788D01*
X52184241Y-81963055D01*
X52714508Y-82317368D01*
X53340000Y-82441786D01*
X53965492Y-82317368D01*
X54495759Y-81963055D01*
X54850072Y-81432788D01*
X54974490Y-80807296D01*
X54974490Y-84405000D01*
X51447000Y-84405000D01*
X51447000Y-75781250D01*
X51447000Y-75057000D01*
X51447000Y-74803000D01*
X51447000Y-74078750D01*
X51288250Y-73920000D01*
X51047691Y-73920000D01*
X50814302Y-74016673D01*
X50635673Y-74195301D01*
X50539000Y-74428690D01*
X50539000Y-74644250D01*
X50697750Y-74803000D01*
X51447000Y-74803000D01*
X51447000Y-75057000D01*
X50697750Y-75057000D01*
X50539000Y-75215750D01*
X50539000Y-75431310D01*
X50635673Y-75664699D01*
X50814302Y-75843327D01*
X51047691Y-75940000D01*
X51288250Y-75940000D01*
X51447000Y-75781250D01*
X51447000Y-84405000D01*
X49894490Y-84405000D01*
X49894490Y-80887570D01*
X49894490Y-80137000D01*
X49894490Y-79883000D01*
X49894490Y-79132430D01*
X49721471Y-78516605D01*
X49325956Y-78013868D01*
X48768159Y-77700757D01*
X48640354Y-77669811D01*
X48387000Y-77789165D01*
X48387000Y-79883000D01*
X49894490Y-79883000D01*
X49894490Y-80137000D01*
X48387000Y-80137000D01*
X48387000Y-82230835D01*
X48640354Y-82350189D01*
X48768159Y-82319243D01*
X49325956Y-82006132D01*
X49721471Y-81503395D01*
X49894490Y-80887570D01*
X49894490Y-84405000D01*
X48133000Y-84405000D01*
X48133000Y-82230835D01*
X48133000Y-80137000D01*
X48133000Y-79883000D01*
X48133000Y-77789165D01*
X47879646Y-77669811D01*
X47751841Y-77700757D01*
X47194044Y-78013868D01*
X46798529Y-78516605D01*
X46625510Y-79132430D01*
X46625510Y-79883000D01*
X48133000Y-79883000D01*
X48133000Y-80137000D01*
X46625510Y-80137000D01*
X46625510Y-80887570D01*
X46798529Y-81503395D01*
X47194044Y-82006132D01*
X47751841Y-82319243D01*
X47879646Y-82350189D01*
X48133000Y-82230835D01*
X48133000Y-84405000D01*
X44814490Y-84405000D01*
X44814490Y-80807296D01*
X44814490Y-79212704D01*
X44690072Y-78587212D01*
X44335759Y-78056945D01*
X43940000Y-77792507D01*
X43940000Y-75728528D01*
X44057377Y-75554640D01*
X44107440Y-75305000D01*
X44107440Y-74555000D01*
X44060463Y-74312877D01*
X43920673Y-74100073D01*
X43709640Y-73957623D01*
X43460000Y-73907560D01*
X42260000Y-73907560D01*
X42017877Y-73954537D01*
X41921120Y-74018095D01*
X41919698Y-74016673D01*
X41686309Y-73920000D01*
X41245750Y-73920000D01*
X41087000Y-74078750D01*
X41087000Y-74803000D01*
X41107000Y-74803000D01*
X41107000Y-75057000D01*
X41087000Y-75057000D01*
X41087000Y-75781250D01*
X41245750Y-75940000D01*
X41686309Y-75940000D01*
X41919698Y-75843327D01*
X41920980Y-75842044D01*
X42010360Y-75902377D01*
X42260000Y-75952440D01*
X42420000Y-75952440D01*
X42420000Y-77792507D01*
X42024241Y-78056945D01*
X41669928Y-78587212D01*
X41545510Y-79212704D01*
X41545510Y-80807296D01*
X41669928Y-81432788D01*
X42024241Y-81963055D01*
X42554508Y-82317368D01*
X43180000Y-82441786D01*
X43805492Y-82317368D01*
X44335759Y-81963055D01*
X44690072Y-81432788D01*
X44814490Y-80807296D01*
X44814490Y-84405000D01*
X40833000Y-84405000D01*
X40833000Y-75781250D01*
X40833000Y-75057000D01*
X40833000Y-74803000D01*
X40833000Y-74078750D01*
X40674250Y-73920000D01*
X40233691Y-73920000D01*
X40000302Y-74016673D01*
X39821673Y-74195301D01*
X39725000Y-74428690D01*
X39725000Y-74644250D01*
X39883750Y-74803000D01*
X40833000Y-74803000D01*
X40833000Y-75057000D01*
X39883750Y-75057000D01*
X39725000Y-75215750D01*
X39725000Y-75431310D01*
X39821673Y-75664699D01*
X40000302Y-75843327D01*
X40233691Y-75940000D01*
X40674250Y-75940000D01*
X40833000Y-75781250D01*
X40833000Y-84405000D01*
X39734490Y-84405000D01*
X39734490Y-80887570D01*
X39734490Y-80137000D01*
X39734490Y-79883000D01*
X39734490Y-79132430D01*
X39561471Y-78516605D01*
X39497767Y-78435631D01*
X39497767Y-66244966D01*
X39469805Y-65694462D01*
X39312931Y-65315735D01*
X39071930Y-65247675D01*
X38279605Y-66040000D01*
X39071930Y-66832325D01*
X39312931Y-66764265D01*
X39497767Y-66244966D01*
X39497767Y-78435631D01*
X39165956Y-78013868D01*
X38892325Y-77860269D01*
X38892325Y-67011930D01*
X38100000Y-66219605D01*
X37920395Y-66399210D01*
X37920395Y-66040000D01*
X37128070Y-65247675D01*
X36887069Y-65315735D01*
X36702233Y-65835034D01*
X36730195Y-66385538D01*
X36887069Y-66764265D01*
X37128070Y-66832325D01*
X37920395Y-66040000D01*
X37920395Y-66399210D01*
X37307675Y-67011930D01*
X37375735Y-67252931D01*
X37895034Y-67437767D01*
X38445538Y-67409805D01*
X38824265Y-67252931D01*
X38892325Y-67011930D01*
X38892325Y-77860269D01*
X38608159Y-77700757D01*
X38480354Y-77669811D01*
X38227000Y-77789165D01*
X38227000Y-79883000D01*
X39734490Y-79883000D01*
X39734490Y-80137000D01*
X38227000Y-80137000D01*
X38227000Y-82230835D01*
X38480354Y-82350189D01*
X38608159Y-82319243D01*
X39165956Y-82006132D01*
X39561471Y-81503395D01*
X39734490Y-80887570D01*
X39734490Y-84405000D01*
X37973000Y-84405000D01*
X37973000Y-82230835D01*
X37973000Y-80137000D01*
X37973000Y-79883000D01*
X37973000Y-77789165D01*
X37719646Y-77669811D01*
X37591841Y-77700757D01*
X37034044Y-78013868D01*
X36638529Y-78516605D01*
X36465510Y-79132430D01*
X36465510Y-79883000D01*
X37973000Y-79883000D01*
X37973000Y-80137000D01*
X36465510Y-80137000D01*
X36465510Y-80887570D01*
X36638529Y-81503395D01*
X37034044Y-82006132D01*
X37591841Y-82319243D01*
X37719646Y-82350189D01*
X37973000Y-82230835D01*
X37973000Y-84405000D01*
X34654490Y-84405000D01*
X34654490Y-80807296D01*
X34654490Y-79212704D01*
X34530072Y-78587212D01*
X34175759Y-78056945D01*
X33780000Y-77792507D01*
X33780000Y-75728528D01*
X33897377Y-75554640D01*
X33947440Y-75305000D01*
X33947440Y-74555000D01*
X33900463Y-74312877D01*
X33760673Y-74100073D01*
X33549640Y-73957623D01*
X33300000Y-73907560D01*
X32100000Y-73907560D01*
X31857877Y-73954537D01*
X31761120Y-74018095D01*
X31759698Y-74016673D01*
X31526309Y-73920000D01*
X31085750Y-73920000D01*
X30927000Y-74078750D01*
X30927000Y-74803000D01*
X30947000Y-74803000D01*
X30947000Y-75057000D01*
X30927000Y-75057000D01*
X30927000Y-75781250D01*
X31085750Y-75940000D01*
X31526309Y-75940000D01*
X31759698Y-75843327D01*
X31760980Y-75842044D01*
X31850360Y-75902377D01*
X32100000Y-75952440D01*
X32260000Y-75952440D01*
X32260000Y-77792507D01*
X31864241Y-78056945D01*
X31509928Y-78587212D01*
X31385510Y-79212704D01*
X31385510Y-80807296D01*
X31509928Y-81432788D01*
X31864241Y-81963055D01*
X32394508Y-82317368D01*
X33020000Y-82441786D01*
X33645492Y-82317368D01*
X34175759Y-81963055D01*
X34530072Y-81432788D01*
X34654490Y-80807296D01*
X34654490Y-84405000D01*
X30673000Y-84405000D01*
X30673000Y-75781250D01*
X30673000Y-75057000D01*
X30673000Y-74803000D01*
X30673000Y-74078750D01*
X30514250Y-73920000D01*
X30073691Y-73920000D01*
X29840302Y-74016673D01*
X29661673Y-74195301D01*
X29565000Y-74428690D01*
X29565000Y-74644250D01*
X29723750Y-74803000D01*
X30673000Y-74803000D01*
X30673000Y-75057000D01*
X29723750Y-75057000D01*
X29565000Y-75215750D01*
X29565000Y-75431310D01*
X29661673Y-75664699D01*
X29840302Y-75843327D01*
X30073691Y-75940000D01*
X30514250Y-75940000D01*
X30673000Y-75781250D01*
X30673000Y-84405000D01*
X29574490Y-84405000D01*
X29574490Y-80887570D01*
X29574490Y-80137000D01*
X29574490Y-79883000D01*
X29574490Y-79132430D01*
X29401471Y-78516605D01*
X29005956Y-78013868D01*
X28448159Y-77700757D01*
X28320354Y-77669811D01*
X28315401Y-77672144D01*
X28315401Y-62374418D01*
X28291341Y-61724623D01*
X28088965Y-61236042D01*
X27822163Y-61137443D01*
X27642557Y-61317048D01*
X27642557Y-60957837D01*
X27543958Y-60691035D01*
X26934418Y-60464599D01*
X26284623Y-60488659D01*
X25796042Y-60691035D01*
X25697443Y-60957837D01*
X26670000Y-61930395D01*
X27642557Y-60957837D01*
X27642557Y-61317048D01*
X26849605Y-62110000D01*
X27822163Y-63082557D01*
X28088965Y-62983958D01*
X28315401Y-62374418D01*
X28315401Y-77672144D01*
X28067000Y-77789165D01*
X28067000Y-79883000D01*
X29574490Y-79883000D01*
X29574490Y-80137000D01*
X28067000Y-80137000D01*
X28067000Y-82230835D01*
X28320354Y-82350189D01*
X28448159Y-82319243D01*
X29005956Y-82006132D01*
X29401471Y-81503395D01*
X29574490Y-80887570D01*
X29574490Y-84405000D01*
X27813000Y-84405000D01*
X27813000Y-82230835D01*
X27813000Y-80137000D01*
X27813000Y-79883000D01*
X27813000Y-77789165D01*
X27642557Y-77708870D01*
X27642557Y-63262163D01*
X26670000Y-62289605D01*
X26490395Y-62469210D01*
X26490395Y-62110000D01*
X25517837Y-61137443D01*
X25251035Y-61236042D01*
X25024599Y-61845582D01*
X25048659Y-62495377D01*
X25251035Y-62983958D01*
X25517837Y-63082557D01*
X26490395Y-62110000D01*
X26490395Y-62469210D01*
X25697443Y-63262163D01*
X25796042Y-63528965D01*
X26405582Y-63755401D01*
X27055377Y-63731341D01*
X27543958Y-63528965D01*
X27642557Y-63262163D01*
X27642557Y-77708870D01*
X27559646Y-77669811D01*
X27431841Y-77700757D01*
X26874044Y-78013868D01*
X26478529Y-78516605D01*
X26305510Y-79132430D01*
X26305510Y-79883000D01*
X27813000Y-79883000D01*
X27813000Y-80137000D01*
X26305510Y-80137000D01*
X26305510Y-80887570D01*
X26478529Y-81503395D01*
X26874044Y-82006132D01*
X27431841Y-82319243D01*
X27559646Y-82350189D01*
X27813000Y-82230835D01*
X27813000Y-84405000D01*
X23235401Y-84405000D01*
X23235401Y-71264418D01*
X23211341Y-70614623D01*
X23008965Y-70126042D01*
X22742163Y-70027443D01*
X22562557Y-70207048D01*
X22562557Y-69847837D01*
X22463958Y-69581035D01*
X21854418Y-69354599D01*
X21204623Y-69378659D01*
X20716042Y-69581035D01*
X20617443Y-69847837D01*
X21590000Y-70820395D01*
X22562557Y-69847837D01*
X22562557Y-70207048D01*
X21769605Y-71000000D01*
X22742163Y-71972557D01*
X23008965Y-71873958D01*
X23235401Y-71264418D01*
X23235401Y-84405000D01*
X22835200Y-84405000D01*
X22835200Y-77590310D01*
X22835200Y-77374750D01*
X22835200Y-76803250D01*
X22835200Y-76587690D01*
X22738527Y-76354301D01*
X22562557Y-76178331D01*
X22562557Y-72152163D01*
X21590000Y-71179605D01*
X21410395Y-71359210D01*
X21410395Y-71000000D01*
X20437837Y-70027443D01*
X20171035Y-70126042D01*
X19944599Y-70735582D01*
X19968659Y-71385377D01*
X20171035Y-71873958D01*
X20437837Y-71972557D01*
X21410395Y-71000000D01*
X21410395Y-71359210D01*
X20617443Y-72152163D01*
X20716042Y-72418965D01*
X21325582Y-72645401D01*
X21975377Y-72621341D01*
X22463958Y-72418965D01*
X22562557Y-72152163D01*
X22562557Y-76178331D01*
X22559898Y-76175673D01*
X22326509Y-76079000D01*
X21885950Y-76079000D01*
X21727200Y-76237750D01*
X21727200Y-76962000D01*
X22676450Y-76962000D01*
X22835200Y-76803250D01*
X22835200Y-77374750D01*
X22676450Y-77216000D01*
X21727200Y-77216000D01*
X21727200Y-77940250D01*
X21885950Y-78099000D01*
X22326509Y-78099000D01*
X22559898Y-78002327D01*
X22738527Y-77823699D01*
X22835200Y-77590310D01*
X22835200Y-84405000D01*
X16105240Y-84405000D01*
X16105240Y-80857211D01*
X15780910Y-80072273D01*
X15180886Y-79471200D01*
X14396515Y-79145501D01*
X13547211Y-79144760D01*
X12762273Y-79469090D01*
X12161200Y-80069114D01*
X11835501Y-80853485D01*
X11834760Y-81702789D01*
X12159090Y-82487727D01*
X12759114Y-83088800D01*
X13543485Y-83414499D01*
X14392789Y-83415240D01*
X15177727Y-83090910D01*
X15778800Y-82490886D01*
X16104499Y-81706515D01*
X16105240Y-80857211D01*
X16105240Y-84405000D01*
X10845000Y-84405000D01*
X10845000Y-10845000D01*
X64085000Y-10845000D01*
X64085000Y-84405000D01*
M02*
