G04 #@! TF.FileFunction,Soldermask,Top*
%FSLAX46Y46*%
G04 Gerber Fmt 4.6, Leading zero omitted, Abs format (unit mm)*
G04 Created by KiCad (PCBNEW (after 2015-mar-04 BZR unknown)-product) date Sat 14 Jan 2017 07:57:05 PM CET*
%MOMM*%
G01*
G04 APERTURE LIST*
%ADD10C,0.100000*%
%ADD11R,2.235200X2.235200*%
%ADD12R,2.032000X1.727200*%
%ADD13O,2.032000X1.727200*%
%ADD14R,2.286000X1.574800*%
%ADD15O,2.286000X1.574800*%
%ADD16R,2.032000X2.032000*%
%ADD17O,2.032000X2.032000*%
%ADD18R,1.727200X1.727200*%
%ADD19O,1.727200X1.727200*%
%ADD20C,1.699260*%
%ADD21R,1.699260X1.699260*%
%ADD22R,2.000000X1.700000*%
%ADD23R,1.700000X2.000000*%
%ADD24R,2.000000X1.600000*%
%ADD25R,1.600000X2.000000*%
%ADD26R,1.250000X1.500000*%
%ADD27R,1.500000X1.250000*%
%ADD28C,1.998980*%
%ADD29R,1.300000X1.300000*%
%ADD30C,1.300000*%
%ADD31C,2.500000*%
%ADD32C,3.000000*%
%ADD33R,1.400000X0.508000*%
%ADD34C,1.524000*%
G04 APERTURE END LIST*
D10*
X192722500Y-52006500D02*
X192722500Y-116776500D01*
X68262500Y-52006500D02*
X192722500Y-52006500D01*
X68262500Y-116776500D02*
X68262500Y-52006500D01*
X192722500Y-116776500D02*
X68262500Y-116776500D01*
D11*
X103632000Y-101600000D03*
X130175000Y-113665000D03*
X170815000Y-90805000D03*
X109855000Y-65405000D03*
X99695000Y-90805000D03*
X99695000Y-80645000D03*
X103505000Y-70485000D03*
X130175000Y-103505000D03*
X147955000Y-70485000D03*
X147955000Y-56515000D03*
X117475000Y-100965000D03*
X182499000Y-81915000D03*
D12*
X147650200Y-93294200D03*
D13*
X147650200Y-90754200D03*
X147650200Y-88214200D03*
X147650200Y-85674200D03*
X147650200Y-83134200D03*
X147650200Y-80594200D03*
X147650200Y-78054200D03*
X147650200Y-75514200D03*
D14*
X103505000Y-78105000D03*
D15*
X103505000Y-80645000D03*
X103505000Y-83185000D03*
X103505000Y-85725000D03*
X103505000Y-88265000D03*
X103505000Y-90805000D03*
X103505000Y-93345000D03*
X111125000Y-93345000D03*
X111125000Y-90805000D03*
X111125000Y-88265000D03*
X111125000Y-85725000D03*
X111125000Y-83185000D03*
X111125000Y-80645000D03*
X111125000Y-78105000D03*
D14*
X73025000Y-75565000D03*
D15*
X73025000Y-78105000D03*
X73025000Y-80645000D03*
X73025000Y-83185000D03*
X73025000Y-85725000D03*
X73025000Y-88265000D03*
X73025000Y-90805000D03*
X73025000Y-93345000D03*
X80645000Y-93345000D03*
X80645000Y-90805000D03*
X80645000Y-88265000D03*
X80645000Y-85725000D03*
X80645000Y-83185000D03*
X80645000Y-80645000D03*
X80645000Y-78105000D03*
X80645000Y-75565000D03*
D14*
X88265000Y-75565000D03*
D15*
X88265000Y-78105000D03*
X88265000Y-80645000D03*
X88265000Y-83185000D03*
X88265000Y-85725000D03*
X88265000Y-88265000D03*
X88265000Y-90805000D03*
X88265000Y-93345000D03*
X95885000Y-93345000D03*
X95885000Y-90805000D03*
X95885000Y-88265000D03*
X95885000Y-85725000D03*
X95885000Y-83185000D03*
X95885000Y-80645000D03*
X95885000Y-78105000D03*
X95885000Y-75565000D03*
D16*
X183515000Y-69850000D03*
D17*
X180975000Y-69850000D03*
D14*
X131445000Y-59055000D03*
D15*
X131445000Y-61595000D03*
X131445000Y-64135000D03*
X131445000Y-66675000D03*
X139065000Y-66675000D03*
X139065000Y-64135000D03*
X139065000Y-61595000D03*
X139065000Y-59055000D03*
D14*
X88265000Y-54610000D03*
D15*
X88265000Y-57150000D03*
X88265000Y-59690000D03*
X88265000Y-62230000D03*
X88265000Y-64770000D03*
X88265000Y-67310000D03*
X88265000Y-69850000D03*
X95885000Y-69850000D03*
X95885000Y-67310000D03*
X95885000Y-64770000D03*
X95885000Y-62230000D03*
X95885000Y-59690000D03*
X95885000Y-57150000D03*
X95885000Y-54610000D03*
D14*
X88265000Y-99060000D03*
D15*
X88265000Y-101600000D03*
X88265000Y-104140000D03*
X88265000Y-106680000D03*
X88265000Y-109220000D03*
X88265000Y-111760000D03*
X88265000Y-114300000D03*
X95885000Y-114300000D03*
X95885000Y-111760000D03*
X95885000Y-109220000D03*
X95885000Y-106680000D03*
X95885000Y-104140000D03*
X95885000Y-101600000D03*
X95885000Y-99060000D03*
D16*
X109855000Y-57785000D03*
D17*
X109855000Y-55245000D03*
D16*
X71120000Y-64770000D03*
D17*
X71120000Y-67310000D03*
D16*
X189865000Y-69850000D03*
D17*
X189865000Y-72390000D03*
D16*
X180975000Y-111125000D03*
D17*
X180975000Y-113665000D03*
D16*
X170815000Y-57785000D03*
D17*
X170815000Y-55245000D03*
D16*
X142875000Y-57785000D03*
D17*
X142875000Y-55245000D03*
D16*
X71755000Y-101600000D03*
D17*
X71755000Y-104140000D03*
D18*
X165735000Y-85725000D03*
D19*
X163195000Y-85725000D03*
X165735000Y-83185000D03*
X163195000Y-83185000D03*
D20*
X168275000Y-55245000D03*
D21*
X168275000Y-65405000D03*
D22*
X78645000Y-58420000D03*
X82645000Y-58420000D03*
X78645000Y-61595000D03*
X82645000Y-61595000D03*
X78645000Y-64770000D03*
X82645000Y-64770000D03*
X78645000Y-67945000D03*
X82645000Y-67945000D03*
X78645000Y-102489000D03*
X82645000Y-102489000D03*
X78645000Y-105664000D03*
X82645000Y-105664000D03*
X78645000Y-108839000D03*
X82645000Y-108839000D03*
X78645000Y-112014000D03*
X82645000Y-112014000D03*
D23*
X105029000Y-58515000D03*
X105029000Y-54515000D03*
D22*
X102267000Y-63627000D03*
X106267000Y-63627000D03*
D23*
X99695000Y-63722000D03*
X99695000Y-59722000D03*
X100330000Y-105505000D03*
X100330000Y-101505000D03*
X100330000Y-108490000D03*
X100330000Y-112490000D03*
D24*
X122460000Y-84455000D03*
X126460000Y-84455000D03*
D22*
X115475000Y-81915000D03*
X119475000Y-81915000D03*
X122460000Y-81915000D03*
X126460000Y-81915000D03*
D24*
X165195000Y-74295000D03*
X161195000Y-74295000D03*
X151035000Y-88900000D03*
X155035000Y-88900000D03*
X162655000Y-80010000D03*
X158655000Y-80010000D03*
X162655000Y-88900000D03*
X158655000Y-88900000D03*
X154210000Y-74295000D03*
X158210000Y-74295000D03*
D25*
X151130000Y-81185000D03*
X151130000Y-85185000D03*
D26*
X165735000Y-76855000D03*
X165735000Y-79355000D03*
D27*
X151150000Y-91440000D03*
X153650000Y-91440000D03*
D28*
X113616740Y-61544200D03*
X123776740Y-61544200D03*
X109933740Y-98171000D03*
X120093740Y-98171000D03*
D29*
X130175000Y-90805000D03*
D30*
X132675000Y-90805000D03*
D29*
X170180000Y-69850000D03*
D30*
X170180000Y-72350000D03*
D31*
X153335000Y-56560000D03*
D32*
X153335000Y-68760000D03*
X165385000Y-68810000D03*
D31*
X165335000Y-56560000D03*
D32*
X159385000Y-54610000D03*
D23*
X167640000Y-115030000D03*
X167640000Y-111030000D03*
D29*
X120015000Y-94615000D03*
D30*
X117515000Y-94615000D03*
D33*
X144145000Y-109220000D03*
X144145000Y-107950000D03*
X144145000Y-106680000D03*
X144145000Y-105410000D03*
X150495000Y-105410000D03*
X150495000Y-106680000D03*
X150495000Y-107950000D03*
X150495000Y-109220000D03*
D29*
X175895000Y-69850000D03*
D30*
X175895000Y-87850000D03*
D24*
X163100000Y-107950000D03*
X167100000Y-107950000D03*
D29*
X142621000Y-90805000D03*
D30*
X142621000Y-72805000D03*
D29*
X188595000Y-92075000D03*
D30*
X191095000Y-92075000D03*
D24*
X145320000Y-103505000D03*
X149320000Y-103505000D03*
D28*
X186055000Y-92153740D03*
X186055000Y-102313740D03*
D12*
X173355000Y-102997000D03*
D13*
X173355000Y-105537000D03*
X173355000Y-108077000D03*
X173355000Y-110617000D03*
D12*
X137795000Y-102997000D03*
D13*
X137795000Y-105537000D03*
X137795000Y-108077000D03*
X137795000Y-110617000D03*
D16*
X130175000Y-85725000D03*
D17*
X132715000Y-85725000D03*
D16*
X130175000Y-70485000D03*
D17*
X132715000Y-70485000D03*
D22*
X181070000Y-104775000D03*
X177070000Y-104775000D03*
X160115000Y-107950000D03*
X156115000Y-107950000D03*
X142970000Y-114300000D03*
X138970000Y-114300000D03*
X134207000Y-110617000D03*
X130207000Y-110617000D03*
X134207000Y-108077000D03*
X130207000Y-108077000D03*
X119475000Y-88265000D03*
X115475000Y-88265000D03*
D23*
X132715000Y-79470000D03*
X132715000Y-75470000D03*
D22*
X149320000Y-111125000D03*
X145320000Y-111125000D03*
D34*
X149860000Y-114300000D03*
X147320000Y-114300000D03*
X152400000Y-114300000D03*
D22*
X115475000Y-90805000D03*
X119475000Y-90805000D03*
X135541000Y-90805000D03*
X139541000Y-90805000D03*
D28*
X123746260Y-71755000D03*
X113586260Y-71755000D03*
X123746260Y-78105000D03*
X113586260Y-78105000D03*
D24*
X115475000Y-107315000D03*
X119475000Y-107315000D03*
D28*
X106807000Y-101551740D03*
X106807000Y-111711740D03*
D29*
X120015000Y-65405000D03*
D30*
X117515000Y-65405000D03*
D23*
X135255000Y-75470000D03*
X135255000Y-79470000D03*
D26*
X151130000Y-74950000D03*
X151130000Y-77450000D03*
D24*
X119475000Y-85725000D03*
X115475000Y-85725000D03*
M02*
