G04 #@! TF.FileFunction,Soldermask,Bot*
%FSLAX46Y46*%
G04 Gerber Fmt 4.6, Leading zero omitted, Abs format (unit mm)*
G04 Created by KiCad (PCBNEW (after 2015-mar-04 BZR unknown)-product) date Sat 14 Jan 2017 07:57:05 PM CET*
%MOMM*%
G01*
G04 APERTURE LIST*
%ADD10C,0.100000*%
%ADD11R,2.235200X2.235200*%
%ADD12R,2.032000X1.727200*%
%ADD13O,2.032000X1.727200*%
%ADD14R,1.600000X2.000000*%
%ADD15R,2.286000X1.574800*%
%ADD16O,2.286000X1.574800*%
%ADD17R,2.032000X2.032000*%
%ADD18O,2.032000X2.032000*%
%ADD19R,1.727200X1.727200*%
%ADD20O,1.727200X1.727200*%
%ADD21C,1.699260*%
%ADD22R,1.699260X1.699260*%
%ADD23C,1.998980*%
%ADD24R,1.300000X1.300000*%
%ADD25C,1.300000*%
%ADD26C,2.500000*%
%ADD27C,3.000000*%
%ADD28R,2.000000X1.600000*%
%ADD29R,2.000000X1.700000*%
%ADD30R,1.700000X2.000000*%
%ADD31C,1.524000*%
G04 APERTURE END LIST*
D10*
X192722500Y-52006500D02*
X192722500Y-116776500D01*
X68262500Y-52006500D02*
X192722500Y-52006500D01*
X68262500Y-116776500D02*
X68262500Y-52006500D01*
X192722500Y-116776500D02*
X68262500Y-116776500D01*
D11*
X103632000Y-101600000D03*
X130175000Y-113665000D03*
X170815000Y-90805000D03*
X109855000Y-65405000D03*
X99695000Y-90805000D03*
X99695000Y-80645000D03*
X103505000Y-70485000D03*
X130175000Y-103505000D03*
X147955000Y-70485000D03*
X147955000Y-56515000D03*
X117475000Y-100965000D03*
X182499000Y-81915000D03*
D12*
X147650200Y-93294200D03*
D13*
X147650200Y-90754200D03*
X147650200Y-88214200D03*
X147650200Y-85674200D03*
X147650200Y-83134200D03*
X147650200Y-80594200D03*
X147650200Y-78054200D03*
X147650200Y-75514200D03*
D14*
X77470000Y-75470000D03*
X77470000Y-79470000D03*
X92710000Y-75470000D03*
X92710000Y-79470000D03*
X107950000Y-78010000D03*
X107950000Y-82010000D03*
D15*
X103505000Y-78105000D03*
D16*
X103505000Y-80645000D03*
X103505000Y-83185000D03*
X103505000Y-85725000D03*
X103505000Y-88265000D03*
X103505000Y-90805000D03*
X103505000Y-93345000D03*
X111125000Y-93345000D03*
X111125000Y-90805000D03*
X111125000Y-88265000D03*
X111125000Y-85725000D03*
X111125000Y-83185000D03*
X111125000Y-80645000D03*
X111125000Y-78105000D03*
D15*
X73025000Y-75565000D03*
D16*
X73025000Y-78105000D03*
X73025000Y-80645000D03*
X73025000Y-83185000D03*
X73025000Y-85725000D03*
X73025000Y-88265000D03*
X73025000Y-90805000D03*
X73025000Y-93345000D03*
X80645000Y-93345000D03*
X80645000Y-90805000D03*
X80645000Y-88265000D03*
X80645000Y-85725000D03*
X80645000Y-83185000D03*
X80645000Y-80645000D03*
X80645000Y-78105000D03*
X80645000Y-75565000D03*
D15*
X88265000Y-75565000D03*
D16*
X88265000Y-78105000D03*
X88265000Y-80645000D03*
X88265000Y-83185000D03*
X88265000Y-85725000D03*
X88265000Y-88265000D03*
X88265000Y-90805000D03*
X88265000Y-93345000D03*
X95885000Y-93345000D03*
X95885000Y-90805000D03*
X95885000Y-88265000D03*
X95885000Y-85725000D03*
X95885000Y-83185000D03*
X95885000Y-80645000D03*
X95885000Y-78105000D03*
X95885000Y-75565000D03*
D17*
X183515000Y-69850000D03*
D18*
X180975000Y-69850000D03*
D15*
X131445000Y-59055000D03*
D16*
X131445000Y-61595000D03*
X131445000Y-64135000D03*
X131445000Y-66675000D03*
X139065000Y-66675000D03*
X139065000Y-64135000D03*
X139065000Y-61595000D03*
X139065000Y-59055000D03*
D15*
X88265000Y-54610000D03*
D16*
X88265000Y-57150000D03*
X88265000Y-59690000D03*
X88265000Y-62230000D03*
X88265000Y-64770000D03*
X88265000Y-67310000D03*
X88265000Y-69850000D03*
X95885000Y-69850000D03*
X95885000Y-67310000D03*
X95885000Y-64770000D03*
X95885000Y-62230000D03*
X95885000Y-59690000D03*
X95885000Y-57150000D03*
X95885000Y-54610000D03*
D15*
X88265000Y-99060000D03*
D16*
X88265000Y-101600000D03*
X88265000Y-104140000D03*
X88265000Y-106680000D03*
X88265000Y-109220000D03*
X88265000Y-111760000D03*
X88265000Y-114300000D03*
X95885000Y-114300000D03*
X95885000Y-111760000D03*
X95885000Y-109220000D03*
X95885000Y-106680000D03*
X95885000Y-104140000D03*
X95885000Y-101600000D03*
X95885000Y-99060000D03*
D17*
X109855000Y-57785000D03*
D18*
X109855000Y-55245000D03*
D17*
X71120000Y-64770000D03*
D18*
X71120000Y-67310000D03*
D17*
X189865000Y-69850000D03*
D18*
X189865000Y-72390000D03*
D17*
X180975000Y-111125000D03*
D18*
X180975000Y-113665000D03*
D17*
X170815000Y-57785000D03*
D18*
X170815000Y-55245000D03*
D17*
X142875000Y-57785000D03*
D18*
X142875000Y-55245000D03*
D17*
X71755000Y-101600000D03*
D18*
X71755000Y-104140000D03*
D19*
X165735000Y-85725000D03*
D20*
X163195000Y-85725000D03*
X165735000Y-83185000D03*
X163195000Y-83185000D03*
D21*
X168275000Y-55245000D03*
D22*
X168275000Y-65405000D03*
D14*
X99695000Y-54515000D03*
X99695000Y-58515000D03*
X93345000Y-98965000D03*
X93345000Y-102965000D03*
X135255000Y-62135000D03*
X135255000Y-66135000D03*
D23*
X113616740Y-61544200D03*
X123776740Y-61544200D03*
X109933740Y-98171000D03*
X120093740Y-98171000D03*
D14*
X178435000Y-69755000D03*
X178435000Y-73755000D03*
D24*
X130175000Y-90805000D03*
D25*
X132675000Y-90805000D03*
D24*
X170180000Y-69850000D03*
D25*
X170180000Y-72350000D03*
D26*
X153335000Y-56560000D03*
D27*
X153335000Y-68760000D03*
X165385000Y-68810000D03*
D26*
X165335000Y-56560000D03*
D27*
X159385000Y-54610000D03*
D24*
X120015000Y-94615000D03*
D25*
X117515000Y-94615000D03*
D24*
X175895000Y-69850000D03*
D25*
X175895000Y-87850000D03*
D14*
X170307000Y-109887000D03*
X170307000Y-113887000D03*
X151257000Y-106712000D03*
X151257000Y-110712000D03*
D24*
X142621000Y-90805000D03*
D25*
X142621000Y-72805000D03*
D14*
X176403000Y-103029000D03*
X176403000Y-107029000D03*
D28*
X142780000Y-107950000D03*
X146780000Y-107950000D03*
D24*
X188595000Y-92075000D03*
D25*
X191095000Y-92075000D03*
D23*
X186055000Y-92153740D03*
X186055000Y-102313740D03*
D12*
X173355000Y-102997000D03*
D13*
X173355000Y-105537000D03*
X173355000Y-108077000D03*
X173355000Y-110617000D03*
D12*
X137795000Y-102997000D03*
D13*
X137795000Y-105537000D03*
X137795000Y-108077000D03*
X137795000Y-110617000D03*
D17*
X130175000Y-85725000D03*
D18*
X132715000Y-85725000D03*
D17*
X130175000Y-70485000D03*
D18*
X132715000Y-70485000D03*
D29*
X154210000Y-111125000D03*
X158210000Y-111125000D03*
D30*
X160909000Y-111093000D03*
X160909000Y-107093000D03*
X170307000Y-107029000D03*
X170307000Y-103029000D03*
D29*
X163735000Y-107061000D03*
X167735000Y-107061000D03*
D31*
X149860000Y-114300000D03*
X147320000Y-114300000D03*
X152400000Y-114300000D03*
D23*
X123746260Y-71755000D03*
X113586260Y-71755000D03*
X123746260Y-78105000D03*
X113586260Y-78105000D03*
D14*
X112395000Y-109125000D03*
X112395000Y-113125000D03*
D23*
X106807000Y-101551740D03*
X106807000Y-111711740D03*
D30*
X109855000Y-101505000D03*
X109855000Y-105505000D03*
X109855000Y-109125000D03*
X109855000Y-113125000D03*
D24*
X120015000Y-65405000D03*
D25*
X117515000Y-65405000D03*
D14*
X134874000Y-103029000D03*
X134874000Y-107029000D03*
D28*
X120999000Y-61595000D03*
X116999000Y-61595000D03*
X120999000Y-71755000D03*
X116999000Y-71755000D03*
X122523000Y-78105000D03*
X118523000Y-78105000D03*
X120491000Y-96393000D03*
X116491000Y-96393000D03*
D14*
X112395000Y-101505000D03*
X112395000Y-105505000D03*
M02*
