M48
;DRILL file {kicad (after 2015-mar-04 BZR unknown)-product} date Sat 14 Jan 2017 07:57:12 PM CET
;FORMAT={-:-/ absolute / inch / decimal}
FMAT,2
INCH,TZ
T1C0.016
T2C0.018
T3C0.028
T4C0.031
T5C0.032
T6C0.039
T7C0.039
T8C0.040
T9C0.051
T10C0.138
%
G90
G05
M72
T1
X2.725Y-2.855
X2.825Y-2.855
X2.825Y-2.855
X2.925Y-2.855
X3.025Y-2.855
X3.125Y-2.855
X3.225Y-2.855
X3.285Y-3.165
X3.285Y-3.445
X3.325Y-2.855
X3.365Y-3.165
X3.365Y-3.445
X3.425Y-2.855
X3.525Y-2.855
X3.625Y-2.855
X3.725Y-2.855
X3.825Y-2.855
X3.925Y-2.855
X4.485Y-3.285
X4.485Y-3.675
X5.6213Y-4.25
X5.885Y-4.2
X6.075Y-2.425
X6.375Y-2.425
X7.185Y-3.225
T2
X2.725Y-3.775
X2.825Y-3.775
X2.925Y-3.775
X3.025Y-3.775
X3.125Y-3.775
X3.225Y-3.775
X3.325Y-3.775
X3.425Y-3.775
X3.525Y-3.775
X3.555Y-4.2
X3.56Y-2.25
X3.56Y-2.45
X3.56Y-4.
X3.575Y-4.4
X3.585Y-3.9
X3.612Y-4.294
X3.625Y-3.775
X3.675Y-4.4
X3.695Y-4.155
X3.725Y-3.775
X3.825Y-3.775
X3.85Y-2.3
X3.85Y-2.4
X3.925Y-2.675
X3.925Y-2.765
X3.925Y-2.975
X3.925Y-3.775
X4.Y-2.425
X4.025Y-2.675
X4.025Y-2.975
X4.025Y-3.775
X4.125Y-2.675
X4.125Y-2.975
X4.125Y-3.775
X4.225Y-2.675
X4.225Y-2.975
X4.225Y-3.775
X4.325Y-2.675
X4.325Y-2.975
X4.325Y-3.775
X4.425Y-2.675
X4.425Y-2.975
X4.425Y-3.775
X4.525Y-2.675
X4.525Y-2.975
X4.525Y-3.775
X4.625Y-2.095
X4.625Y-2.175
X4.625Y-2.275
X4.625Y-2.375
X4.625Y-2.475
X4.625Y-2.575
X4.625Y-2.675
X4.625Y-2.775
X4.625Y-2.875
X4.625Y-2.975
X4.625Y-3.075
X4.625Y-3.175
X4.625Y-3.275
X4.625Y-3.375
X4.625Y-3.475
X4.625Y-3.575
X4.625Y-3.675
X4.625Y-3.775
X4.625Y-3.875
X4.625Y-3.975
X4.625Y-4.075
X4.625Y-4.175
X4.625Y-4.275
X4.625Y-4.375
X4.625Y-4.475
X4.625Y-4.555
X4.825Y-4.175
X4.825Y-4.275
X4.925Y-4.175
X4.925Y-4.275
X5.025Y-2.1
X5.025Y-2.175
X5.025Y-2.275
X5.025Y-2.375
X5.025Y-2.475
X5.025Y-2.575
X5.025Y-2.675
X5.025Y-2.775
X5.025Y-2.875
X5.025Y-2.975
X5.025Y-3.075
X5.025Y-3.175
X5.025Y-3.275
X5.025Y-3.375
X5.025Y-3.475
X5.025Y-3.575
X5.025Y-3.675
X5.025Y-3.975
X5.025Y-4.075
X5.025Y-4.175
X5.025Y-4.275
X5.025Y-4.375
X5.025Y-4.475
X5.025Y-4.555
X5.125Y-3.675
X5.125Y-3.975
X5.225Y-3.675
X5.225Y-3.975
X5.325Y-3.675
X5.325Y-3.975
X5.425Y-3.675
X5.425Y-3.975
X5.525Y-3.675
X5.525Y-3.975
X5.625Y-3.675
X5.625Y-3.975
X5.725Y-3.675
X5.725Y-3.975
X5.795Y-4.145
X5.795Y-4.145
X5.795Y-4.195
X5.795Y-4.245
X5.795Y-4.295
X5.825Y-3.975
X5.925Y-3.675
X5.925Y-3.975
X6.025Y-3.675
X6.025Y-3.975
X6.125Y-3.675
X6.125Y-3.975
X6.225Y-3.675
X6.225Y-3.975
X6.325Y-3.675
X6.325Y-3.975
X6.425Y-3.675
X6.425Y-3.975
X6.525Y-3.675
X6.525Y-3.975
X6.625Y-3.675
X6.625Y-3.975
X6.725Y-3.675
X6.725Y-3.975
X6.825Y-2.1
X6.825Y-2.175
X6.825Y-2.275
X6.825Y-2.375
X6.825Y-2.475
X6.825Y-2.575
X6.825Y-2.675
X6.825Y-2.875
X6.825Y-2.975
X6.825Y-2.975
X6.825Y-3.075
X6.825Y-3.175
X6.825Y-3.275
X6.825Y-3.375
X6.825Y-3.475
X6.825Y-3.575
X6.825Y-3.675
X6.825Y-3.975
X6.925Y-3.975
X7.025Y-3.975
X7.125Y-3.975
X7.225Y-3.975
X7.425Y-3.975
X7.525Y-3.975
T3
X6.625Y-2.175
X6.625Y-2.575
T4
X4.6266Y-2.575
X4.6266Y-3.725
X4.725Y-2.575
X4.725Y-3.725
X5.125Y-3.575
X5.2234Y-3.575
X5.615Y-2.8663
X5.615Y-3.575
X6.7Y-2.75
X6.7Y-2.8484
X6.925Y-2.75
X6.925Y-3.4587
X7.425Y-3.625
X7.5234Y-3.625
T5
X2.875Y-2.975
X2.875Y-3.075
X2.875Y-3.175
X2.875Y-3.275
X2.875Y-3.375
X2.875Y-3.475
X2.875Y-3.575
X2.875Y-3.675
X3.175Y-2.975
X3.175Y-3.075
X3.175Y-3.175
X3.175Y-3.275
X3.175Y-3.375
X3.175Y-3.475
X3.175Y-3.575
X3.175Y-3.675
X3.475Y-2.15
X3.475Y-2.25
X3.475Y-2.35
X3.475Y-2.45
X3.475Y-2.55
X3.475Y-2.65
X3.475Y-2.75
X3.475Y-2.975
X3.475Y-3.075
X3.475Y-3.175
X3.475Y-3.275
X3.475Y-3.375
X3.475Y-3.475
X3.475Y-3.575
X3.475Y-3.675
X3.475Y-3.9
X3.475Y-4.
X3.475Y-4.1
X3.475Y-4.2
X3.475Y-4.3
X3.475Y-4.4
X3.475Y-4.5
X3.775Y-2.15
X3.775Y-2.25
X3.775Y-2.35
X3.775Y-2.45
X3.775Y-2.55
X3.775Y-2.65
X3.775Y-2.75
X3.775Y-2.975
X3.775Y-3.075
X3.775Y-3.175
X3.775Y-3.275
X3.775Y-3.375
X3.775Y-3.475
X3.775Y-3.575
X3.775Y-3.675
X3.775Y-3.9
X3.775Y-4.
X3.775Y-4.1
X3.775Y-4.2
X3.775Y-4.3
X3.775Y-4.4
X3.775Y-4.5
X4.075Y-3.075
X4.075Y-3.175
X4.075Y-3.275
X4.075Y-3.375
X4.075Y-3.475
X4.075Y-3.575
X4.075Y-3.675
X4.375Y-3.075
X4.375Y-3.175
X4.375Y-3.275
X4.375Y-3.375
X4.375Y-3.475
X4.375Y-3.575
X4.375Y-3.675
X5.175Y-2.325
X5.175Y-2.425
X5.175Y-2.525
X5.175Y-2.625
X5.475Y-2.325
X5.475Y-2.425
X5.475Y-2.525
X5.475Y-2.625
X5.8Y-4.5
X5.9Y-4.5
X6.Y-4.5
T6
X6.0368Y-2.2268
X6.5093Y-2.2268
T7
X4.205Y-3.9981
X4.205Y-4.3981
X4.3281Y-3.865
X4.4719Y-2.825
X4.4719Y-3.075
X4.4731Y-2.423
X4.7281Y-3.865
X4.8719Y-2.825
X4.8719Y-3.075
X4.8731Y-2.423
X7.325Y-3.6281
X7.325Y-4.0281
T8
X2.8Y-2.55
X2.8Y-2.65
X2.825Y-4.
X2.825Y-4.1
X3.925Y-3.175
X3.925Y-3.575
X4.075Y-2.775
X4.08Y-4.
X4.325Y-2.175
X4.325Y-2.275
X4.325Y-2.575
X4.625Y-3.975
X5.125Y-2.775
X5.125Y-3.375
X5.125Y-4.075
X5.125Y-4.475
X5.225Y-2.775
X5.225Y-3.375
X5.425Y-4.055
X5.425Y-4.155
X5.425Y-4.255
X5.425Y-4.355
X5.625Y-2.175
X5.625Y-2.275
X5.813Y-2.973
X5.813Y-3.073
X5.813Y-3.173
X5.813Y-3.273
X5.813Y-3.373
X5.813Y-3.473
X5.813Y-3.573
X5.813Y-3.673
X5.825Y-2.225
X5.825Y-2.775
X6.425Y-3.275
X6.425Y-3.375
X6.525Y-3.275
X6.525Y-3.375
X6.725Y-2.175
X6.725Y-2.275
X6.725Y-3.575
X6.825Y-4.055
X6.825Y-4.155
X6.825Y-4.255
X6.825Y-4.355
X7.125Y-2.75
X7.125Y-4.375
X7.125Y-4.475
X7.185Y-3.225
X7.225Y-2.75
X7.475Y-2.75
X7.475Y-2.85
T9
X6.0368Y-2.7071
X6.275Y-2.15
X6.5112Y-2.7091
T10
X2.8625Y-2.2225
X2.8625Y-2.2225
X2.8625Y-2.2225
X2.8625Y-4.4225
X4.8125Y-2.2225
X4.8125Y-4.4225
X7.4125Y-2.2225
X7.4125Y-4.4225
T0
M30
