G04 #@! TF.FileFunction,Copper,L2,Bot,Signal*
%FSLAX46Y46*%
G04 Gerber Fmt 4.6, Leading zero omitted, Abs format (unit mm)*
G04 Created by KiCad (PCBNEW (after 2015-mar-04 BZR unknown)-product) date Thu 29 Dec 2016 04:21:00 PM CET*
%MOMM*%
G01*
G04 APERTURE LIST*
%ADD10C,0.100000*%
%ADD11C,0.970000*%
%ADD12C,1.200000*%
%ADD13R,1.200000X1.200000*%
%ADD14R,2.286000X1.574800*%
%ADD15O,2.286000X1.574800*%
%ADD16R,1.727200X1.727200*%
%ADD17O,1.727200X1.727200*%
%ADD18R,2.032000X2.032000*%
%ADD19O,2.032000X2.032000*%
%ADD20R,0.800100X1.800860*%
%ADD21R,2.000000X1.600000*%
%ADD22R,2.000000X1.700000*%
%ADD23C,1.501140*%
%ADD24R,1.700000X2.000000*%
%ADD25R,1.600000X2.000000*%
%ADD26C,0.600000*%
%ADD27C,0.500000*%
%ADD28C,1.000000*%
%ADD29C,0.250000*%
%ADD30C,0.254000*%
G04 APERTURE END LIST*
D10*
D11*
X107696000Y-96012000D03*
X107696000Y-94234000D03*
X125730000Y-50419000D03*
X125730000Y-47371000D03*
X125730000Y-48895000D03*
X127254000Y-47371000D03*
X127254000Y-48895000D03*
X146558000Y-48260000D03*
X145542000Y-48260000D03*
X127254000Y-50419000D03*
X92075000Y-59309000D03*
X93091000Y-60071000D03*
X93091000Y-58547000D03*
X132334000Y-93599000D03*
X132334000Y-94615000D03*
X99695000Y-73533000D03*
X103632000Y-73660000D03*
X99695000Y-73533000D03*
X99949000Y-85852000D03*
X99949000Y-83820000D03*
X99949000Y-81280000D03*
X99949000Y-78740000D03*
X99949000Y-76708000D03*
X122809000Y-84709000D03*
X121793000Y-84709000D03*
X120777000Y-84709000D03*
X117221000Y-84074000D03*
X116205000Y-84074000D03*
X115189000Y-84074000D03*
X114173000Y-84074000D03*
X153670000Y-97663000D03*
X153670000Y-94615000D03*
X153670000Y-95631000D03*
X153670000Y-96647000D03*
X145415000Y-97663000D03*
X145415000Y-96647000D03*
X145415000Y-95631000D03*
X145415000Y-94615000D03*
X132334000Y-96647000D03*
X132334000Y-97663000D03*
X93091000Y-54483000D03*
X94107000Y-54483000D03*
X95123000Y-54483000D03*
X96139000Y-54483000D03*
X97790000Y-69215000D03*
X96774000Y-69215000D03*
X95758000Y-69215000D03*
X94742000Y-69215000D03*
X106553000Y-67437000D03*
X106045000Y-67945000D03*
X109220000Y-67183000D03*
X109220000Y-68199000D03*
X109220000Y-69215000D03*
X105029000Y-70612000D03*
X104013000Y-70612000D03*
X102997000Y-70866000D03*
X101981000Y-70866000D03*
X105029000Y-67945000D03*
X104013000Y-67945000D03*
X102997000Y-67945000D03*
X101981000Y-67945000D03*
X106934000Y-73660000D03*
X106934000Y-76200000D03*
X106934000Y-81407000D03*
X106807000Y-83820000D03*
X106807000Y-86360000D03*
X108204000Y-90424000D03*
X106807000Y-88900000D03*
X103505000Y-86360000D03*
X102489000Y-86360000D03*
X103505000Y-83820000D03*
X102489000Y-83820000D03*
X102489000Y-81788000D03*
X103505000Y-81788000D03*
X102997000Y-88900000D03*
X101981000Y-88900000D03*
X100965000Y-88900000D03*
X99949000Y-88900000D03*
X99949000Y-92837000D03*
X100965000Y-92837000D03*
X101981000Y-92837000D03*
X103124000Y-92837000D03*
X102997000Y-95885000D03*
X101981000Y-95885000D03*
X100965000Y-95885000D03*
X99949000Y-95885000D03*
X95885000Y-96139000D03*
X95885000Y-93980000D03*
X95885000Y-91440000D03*
X95885000Y-88900000D03*
X95885000Y-83820000D03*
X95885000Y-86487000D03*
X90805000Y-97663000D03*
X89789000Y-97663000D03*
X88773000Y-97663000D03*
X87757000Y-97663000D03*
X87757000Y-85725000D03*
X88773000Y-85725000D03*
X89789000Y-85725000D03*
X90805000Y-85725000D03*
X90805000Y-76708000D03*
X89789000Y-76708000D03*
X88773000Y-76708000D03*
X87757000Y-76708000D03*
X87757000Y-72136000D03*
X88773000Y-72136000D03*
X88646000Y-59055000D03*
X87630000Y-59055000D03*
X131318000Y-88392000D03*
X130302000Y-88392000D03*
X129286000Y-88392000D03*
X128270000Y-88392000D03*
X127254000Y-88392000D03*
X126238000Y-88392000D03*
X131572000Y-85217000D03*
X126111000Y-76327000D03*
X126111000Y-75311000D03*
X126111000Y-74295000D03*
X120777000Y-74295000D03*
X121793000Y-74295000D03*
X122809000Y-74295000D03*
X112395000Y-73152000D03*
X113411000Y-73152000D03*
X114427000Y-73152000D03*
X115443000Y-73152000D03*
X116459000Y-73152000D03*
X117475000Y-73152000D03*
X111252000Y-68199000D03*
X110236000Y-69215000D03*
X109220000Y-70231000D03*
X110998000Y-72136000D03*
X112014000Y-71120000D03*
X113030000Y-70104000D03*
X117602000Y-67818000D03*
X120777000Y-67691000D03*
X117475000Y-70104000D03*
X120777000Y-70104000D03*
X123444000Y-68580000D03*
X124460000Y-68580000D03*
X125476000Y-68580000D03*
X125476000Y-58420000D03*
X124460000Y-58420000D03*
X123444000Y-58420000D03*
X146558000Y-47244000D03*
X145542000Y-47244000D03*
X153670000Y-88900000D03*
X151638000Y-88900000D03*
X151638000Y-90932000D03*
X153670000Y-77978000D03*
X151638000Y-77978000D03*
X149860000Y-77978000D03*
X153670000Y-68326000D03*
X151638000Y-68326000D03*
X149860000Y-68326000D03*
X151892000Y-53340000D03*
X150876000Y-53340000D03*
X149860000Y-53340000D03*
X121666000Y-54356000D03*
X120904000Y-53594000D03*
X120142000Y-52832000D03*
X128270000Y-55118000D03*
X130556000Y-53086000D03*
X131572000Y-53086000D03*
X126238000Y-55118000D03*
X128270000Y-55118000D03*
D12*
X119144000Y-95560000D03*
X119144000Y-93020000D03*
X119144000Y-90480000D03*
X119144000Y-87940000D03*
X119144000Y-85400000D03*
X119144000Y-82860000D03*
X119144000Y-80320000D03*
X119144000Y-77780000D03*
X119144000Y-75240000D03*
X119144000Y-72700000D03*
X119144000Y-70160000D03*
X119144000Y-67620000D03*
X119144000Y-65080000D03*
X119144000Y-62540000D03*
X119144000Y-60000000D03*
X119144000Y-57460000D03*
X119144000Y-54920000D03*
D13*
X134636000Y-95560000D03*
D12*
X134636000Y-93020000D03*
X134636000Y-90480000D03*
X134636000Y-87940000D03*
X134636000Y-85400000D03*
X134636000Y-82860000D03*
X134636000Y-80320000D03*
X134636000Y-77780000D03*
X134636000Y-75240000D03*
X134636000Y-72700000D03*
X134636000Y-70160000D03*
X134636000Y-67620000D03*
X134636000Y-65080000D03*
X134636000Y-62540000D03*
X134636000Y-60000000D03*
X134636000Y-57460000D03*
X134636000Y-54920000D03*
D14*
X105410000Y-95250000D03*
D15*
X105410000Y-92710000D03*
X105410000Y-90170000D03*
X105410000Y-87630000D03*
X105410000Y-85090000D03*
X105410000Y-82550000D03*
X105410000Y-80010000D03*
X105410000Y-77470000D03*
X105410000Y-74930000D03*
X105410000Y-72390000D03*
X97790000Y-72390000D03*
X97790000Y-74930000D03*
X97790000Y-77470000D03*
X97790000Y-80010000D03*
X97790000Y-82550000D03*
X97790000Y-85090000D03*
X97790000Y-87630000D03*
X97790000Y-90170000D03*
X97790000Y-92710000D03*
X97790000Y-95250000D03*
D16*
X109855000Y-85090000D03*
D17*
X112395000Y-85090000D03*
X109855000Y-87630000D03*
X112395000Y-87630000D03*
X109855000Y-90170000D03*
X112395000Y-90170000D03*
D16*
X90487500Y-66357500D03*
D17*
X87947500Y-66357500D03*
X90487500Y-63817500D03*
X87947500Y-63817500D03*
X90487500Y-61277500D03*
X87947500Y-61277500D03*
D16*
X103822500Y-48577500D03*
D17*
X106362500Y-48577500D03*
X103822500Y-51117500D03*
X106362500Y-51117500D03*
X103822500Y-53657500D03*
X106362500Y-53657500D03*
D16*
X150812500Y-56197500D03*
D17*
X153352500Y-56197500D03*
X150812500Y-58737500D03*
X153352500Y-58737500D03*
X150812500Y-61277500D03*
X153352500Y-61277500D03*
X150812500Y-63817500D03*
X153352500Y-63817500D03*
X150812500Y-66357500D03*
X153352500Y-66357500D03*
D18*
X153162000Y-71120000D03*
D19*
X153162000Y-73660000D03*
D20*
X146746000Y-71859140D03*
X144846000Y-71859140D03*
X145796000Y-68856860D03*
D16*
X150495000Y-81915000D03*
D17*
X153035000Y-81915000D03*
X150495000Y-84455000D03*
X153035000Y-84455000D03*
D21*
X141510000Y-61595000D03*
X145510000Y-61595000D03*
D18*
X151892000Y-51054000D03*
D19*
X151892000Y-48514000D03*
D22*
X141510000Y-53975000D03*
X145510000Y-53975000D03*
X141510000Y-59055000D03*
X145510000Y-59055000D03*
D23*
X110744000Y-77597000D03*
X110744000Y-80137000D03*
X114300000Y-96647000D03*
X114300000Y-94107000D03*
D18*
X132969000Y-48514000D03*
D19*
X135509000Y-48514000D03*
D24*
X141605000Y-64675000D03*
X141605000Y-68675000D03*
X138176000Y-68866000D03*
X138176000Y-72866000D03*
D22*
X145510000Y-56515000D03*
X141510000Y-56515000D03*
D24*
X150368000Y-74390000D03*
X150368000Y-70390000D03*
D11*
X127254000Y-55118000D03*
D25*
X128778000Y-82899000D03*
X128778000Y-78899000D03*
D26*
X138176000Y-89154000D03*
X138684000Y-78740000D03*
X127508000Y-65024000D03*
X129540000Y-62484000D03*
X111506000Y-59944000D03*
X105156000Y-66294000D03*
X117348000Y-50927000D03*
X131572000Y-75438000D03*
X130556000Y-60452000D03*
X104648000Y-59690000D03*
X98171000Y-54483000D03*
X113442500Y-51117500D03*
X92964000Y-65278000D03*
X92964000Y-69850000D03*
X103759000Y-61976000D03*
X147828000Y-53619400D03*
D27*
X103505000Y-86360000D02*
X106807000Y-86360000D01*
X132842000Y-88646000D02*
X133350000Y-89154000D01*
X133350000Y-89154000D02*
X138176000Y-89154000D01*
X132842000Y-84074000D02*
X132842000Y-88646000D01*
X138176000Y-79248000D02*
X138684000Y-78740000D01*
X138176000Y-72866000D02*
X138176000Y-79248000D01*
X138176000Y-82296000D02*
X138176000Y-79248000D01*
X136398000Y-84074000D02*
X138176000Y-82296000D01*
X132842000Y-84074000D02*
X136398000Y-84074000D01*
D28*
X131628000Y-82860000D02*
X132842000Y-84074000D01*
X119144000Y-82860000D02*
X131628000Y-82860000D01*
X128739000Y-82860000D02*
X128778000Y-82899000D01*
X119144000Y-82860000D02*
X128739000Y-82860000D01*
D27*
X141510000Y-53975000D02*
X141510000Y-56515000D01*
X141510000Y-56515000D02*
X141510000Y-59055000D01*
X141510000Y-59055000D02*
X141510000Y-61595000D01*
X138176000Y-62484000D02*
X139065000Y-61595000D01*
X139065000Y-61595000D02*
X141510000Y-61595000D01*
X138176000Y-68866000D02*
X138176000Y-62484000D01*
X120160000Y-66604000D02*
X119144000Y-67620000D01*
X138176000Y-68866000D02*
X130080000Y-68866000D01*
X130080000Y-68866000D02*
X127818000Y-66604000D01*
X127818000Y-66604000D02*
X120160000Y-66604000D01*
X120086000Y-65080000D02*
X119144000Y-65080000D01*
X120142000Y-65024000D02*
X120086000Y-65080000D01*
X127508000Y-65024000D02*
X120142000Y-65024000D01*
X129484000Y-62540000D02*
X119144000Y-62540000D01*
X129540000Y-62484000D02*
X129484000Y-62540000D01*
X90487500Y-66357500D02*
X105092500Y-66357500D01*
X116657000Y-54920000D02*
X119144000Y-54920000D01*
X111506000Y-59944000D02*
X116657000Y-54920000D01*
X105092500Y-66357500D02*
X105156000Y-66294000D01*
X130556000Y-55626000D02*
X128778000Y-53848000D01*
X128778000Y-53848000D02*
X122936000Y-53848000D01*
X117348000Y-50927000D02*
X120015000Y-50927000D01*
X120015000Y-50927000D02*
X122936000Y-53848000D01*
X131572000Y-78994000D02*
X132842000Y-80391000D01*
X131572000Y-75438000D02*
X131572000Y-78994000D01*
X132842000Y-80391000D02*
X134636000Y-80320000D01*
X130556000Y-60452000D02*
X130556000Y-55626000D01*
X134636000Y-72700000D02*
X122230000Y-72700000D01*
X116332000Y-71374000D02*
X104648000Y-59690000D01*
X120904000Y-71374000D02*
X116332000Y-71374000D01*
X122230000Y-72700000D02*
X120904000Y-71374000D01*
X121285000Y-68834000D02*
X122611000Y-70160000D01*
X122611000Y-70160000D02*
X129215000Y-70160000D01*
X98171000Y-54483000D02*
X100838000Y-57150000D01*
X129215000Y-70160000D02*
X134636000Y-70160000D01*
X116713000Y-68834000D02*
X104902000Y-57150000D01*
X100838000Y-57150000D02*
X104902000Y-57150000D01*
X116713000Y-68834000D02*
X121285000Y-68834000D01*
X134636000Y-67620000D02*
X133914000Y-67620000D01*
X132842000Y-66548000D02*
X133914000Y-67620000D01*
X132842000Y-51816000D02*
X132842000Y-66548000D01*
X123444000Y-51816000D02*
X132842000Y-51816000D01*
X120269000Y-48641000D02*
X123444000Y-51816000D01*
X115919000Y-48641000D02*
X120269000Y-48641000D01*
X115919000Y-48641000D02*
X113442500Y-51117500D01*
X105410000Y-95250000D02*
X105410000Y-97282000D01*
X92265500Y-61277500D02*
X90487500Y-61277500D01*
X92964000Y-61976000D02*
X92265500Y-61277500D01*
X92964000Y-65278000D02*
X92964000Y-61976000D01*
X92964000Y-97282000D02*
X92964000Y-69850000D01*
X92964000Y-97282000D02*
X92964000Y-97282000D01*
X105410000Y-97282000D02*
X92964000Y-97282000D01*
X105410000Y-97282000D02*
X105410000Y-97282000D01*
X106172000Y-64389000D02*
X106426000Y-64389000D01*
X106426000Y-64389000D02*
X107948867Y-65911867D01*
X107948867Y-65911867D02*
X107843647Y-89387353D01*
X107843647Y-89387353D02*
X107061000Y-90170000D01*
X107061000Y-90170000D02*
X105410000Y-90170000D01*
X103759000Y-61976000D02*
X106172000Y-64389000D01*
X105410000Y-72390000D02*
X101346000Y-72390000D01*
X94996000Y-85090000D02*
X97790000Y-85090000D01*
X93980000Y-84074000D02*
X94996000Y-85090000D01*
X93980000Y-72644000D02*
X93980000Y-84074000D01*
X95758000Y-70866000D02*
X93980000Y-72644000D01*
X99822000Y-70866000D02*
X95758000Y-70866000D01*
X101346000Y-72390000D02*
X99822000Y-70866000D01*
X97790000Y-72390000D02*
X95631000Y-72390000D01*
X95631000Y-82550000D02*
X97790000Y-82550000D01*
X95123000Y-82042000D02*
X95631000Y-82550000D01*
X95123000Y-72898000D02*
X95123000Y-82042000D01*
X95631000Y-72390000D02*
X95123000Y-72898000D01*
X97790000Y-74930000D02*
X99822000Y-74930000D01*
X99695000Y-87630000D02*
X97790000Y-87630000D01*
X101219000Y-86106000D02*
X99695000Y-87630000D01*
X101219000Y-76327000D02*
X101219000Y-86106000D01*
X99822000Y-74930000D02*
X101219000Y-76327000D01*
X97790000Y-90170000D02*
X100965000Y-90170000D01*
X108585000Y-91440000D02*
X109855000Y-90170000D01*
X102235000Y-91440000D02*
X108585000Y-91440000D01*
X100965000Y-90170000D02*
X102235000Y-91440000D01*
X149529800Y-62534800D02*
X148209000Y-61214000D01*
X148209000Y-54000400D02*
X147828000Y-53619400D01*
X148209000Y-61214000D02*
X148209000Y-54000400D01*
X153352500Y-61277500D02*
X152095200Y-62534800D01*
X147389600Y-64675000D02*
X141605000Y-64675000D01*
X149529800Y-62534800D02*
X147389600Y-64675000D01*
D29*
X152095200Y-62534800D02*
X149529800Y-62534800D01*
D27*
X150368000Y-70390000D02*
X152432000Y-70390000D01*
X152432000Y-70390000D02*
X153162000Y-71120000D01*
X146746000Y-71859140D02*
X147342860Y-71859140D01*
X148812000Y-70390000D02*
X150368000Y-70390000D01*
X147342860Y-71859140D02*
X148812000Y-70390000D01*
X141605000Y-68675000D02*
X141605000Y-70485000D01*
X142979140Y-71859140D02*
X144846000Y-71859140D01*
X141605000Y-70485000D02*
X142979140Y-71859140D01*
X145510000Y-52864000D02*
X147320000Y-51054000D01*
X147320000Y-51054000D02*
X151892000Y-51054000D01*
X145510000Y-53975000D02*
X145510000Y-52864000D01*
D30*
G36*
X96789198Y-83820000D02*
X96393778Y-84084211D01*
X96313069Y-84205000D01*
X95362579Y-84205000D01*
X94865000Y-83707420D01*
X94865000Y-83035579D01*
X95005207Y-83175786D01*
X95005210Y-83175790D01*
X95292325Y-83367633D01*
X95631000Y-83435000D01*
X96313069Y-83435000D01*
X96393778Y-83555789D01*
X96789198Y-83820000D01*
X96789198Y-83820000D01*
G37*
X96789198Y-83820000D02*
X96393778Y-84084211D01*
X96313069Y-84205000D01*
X95362579Y-84205000D01*
X94865000Y-83707420D01*
X94865000Y-83035579D01*
X95005207Y-83175786D01*
X95005210Y-83175790D01*
X95292325Y-83367633D01*
X95631000Y-83435000D01*
X96313069Y-83435000D01*
X96393778Y-83555789D01*
X96789198Y-83820000D01*
G36*
X96789198Y-93980000D02*
X96393778Y-94244211D01*
X96085441Y-94705671D01*
X95977167Y-95250000D01*
X96085441Y-95794329D01*
X96393778Y-96255789D01*
X96605115Y-96397000D01*
X93849000Y-96397000D01*
X93849000Y-85194579D01*
X94370207Y-85715786D01*
X94370210Y-85715790D01*
X94370211Y-85715790D01*
X94657325Y-85907633D01*
X94657326Y-85907633D01*
X94713515Y-85918810D01*
X94996000Y-85975001D01*
X94996000Y-85975000D01*
X94996005Y-85975000D01*
X96313069Y-85975000D01*
X96393778Y-86095789D01*
X96789198Y-86360000D01*
X96393778Y-86624211D01*
X96085441Y-87085671D01*
X95977167Y-87630000D01*
X96085441Y-88174329D01*
X96393778Y-88635789D01*
X96789198Y-88900000D01*
X96393778Y-89164211D01*
X96085441Y-89625671D01*
X95977167Y-90170000D01*
X96085441Y-90714329D01*
X96393778Y-91175789D01*
X96789198Y-91440000D01*
X96393778Y-91704211D01*
X96085441Y-92165671D01*
X95977167Y-92710000D01*
X96085441Y-93254329D01*
X96393778Y-93715789D01*
X96789198Y-93980000D01*
X96789198Y-93980000D01*
G37*
X96789198Y-93980000D02*
X96393778Y-94244211D01*
X96085441Y-94705671D01*
X95977167Y-95250000D01*
X96085441Y-95794329D01*
X96393778Y-96255789D01*
X96605115Y-96397000D01*
X93849000Y-96397000D01*
X93849000Y-85194579D01*
X94370207Y-85715786D01*
X94370210Y-85715790D01*
X94370211Y-85715790D01*
X94657325Y-85907633D01*
X94657326Y-85907633D01*
X94713515Y-85918810D01*
X94996000Y-85975001D01*
X94996000Y-85975000D01*
X94996005Y-85975000D01*
X96313069Y-85975000D01*
X96393778Y-86095789D01*
X96789198Y-86360000D01*
X96393778Y-86624211D01*
X96085441Y-87085671D01*
X95977167Y-87630000D01*
X96085441Y-88174329D01*
X96393778Y-88635789D01*
X96789198Y-88900000D01*
X96393778Y-89164211D01*
X96085441Y-89625671D01*
X95977167Y-90170000D01*
X96085441Y-90714329D01*
X96393778Y-91175789D01*
X96789198Y-91440000D01*
X96393778Y-91704211D01*
X96085441Y-92165671D01*
X95977167Y-92710000D01*
X96085441Y-93254329D01*
X96393778Y-93715789D01*
X96789198Y-93980000D01*
G36*
X100334000Y-85739420D02*
X99328420Y-86745000D01*
X99266930Y-86745000D01*
X99186222Y-86624211D01*
X98790801Y-86360000D01*
X99186222Y-86095789D01*
X99494559Y-85634329D01*
X99602833Y-85090000D01*
X99494559Y-84545671D01*
X99186222Y-84084211D01*
X98790801Y-83820000D01*
X99186222Y-83555789D01*
X99494559Y-83094329D01*
X99602833Y-82550000D01*
X99494559Y-82005671D01*
X99186222Y-81544211D01*
X98790801Y-81280000D01*
X99186222Y-81015789D01*
X99494559Y-80554329D01*
X99602833Y-80010000D01*
X99494559Y-79465671D01*
X99186222Y-79004211D01*
X98790801Y-78740000D01*
X99186222Y-78475789D01*
X99494559Y-78014329D01*
X99602833Y-77470000D01*
X99494559Y-76925671D01*
X99186222Y-76464211D01*
X98790801Y-76200000D01*
X99186222Y-75935789D01*
X99266930Y-75815000D01*
X99455420Y-75815000D01*
X100334000Y-76693579D01*
X100334000Y-85739420D01*
X100334000Y-85739420D01*
G37*
X100334000Y-85739420D02*
X99328420Y-86745000D01*
X99266930Y-86745000D01*
X99186222Y-86624211D01*
X98790801Y-86360000D01*
X99186222Y-86095789D01*
X99494559Y-85634329D01*
X99602833Y-85090000D01*
X99494559Y-84545671D01*
X99186222Y-84084211D01*
X98790801Y-83820000D01*
X99186222Y-83555789D01*
X99494559Y-83094329D01*
X99602833Y-82550000D01*
X99494559Y-82005671D01*
X99186222Y-81544211D01*
X98790801Y-81280000D01*
X99186222Y-81015789D01*
X99494559Y-80554329D01*
X99602833Y-80010000D01*
X99494559Y-79465671D01*
X99186222Y-79004211D01*
X98790801Y-78740000D01*
X99186222Y-78475789D01*
X99494559Y-78014329D01*
X99602833Y-77470000D01*
X99494559Y-76925671D01*
X99186222Y-76464211D01*
X98790801Y-76200000D01*
X99186222Y-75935789D01*
X99266930Y-75815000D01*
X99455420Y-75815000D01*
X100334000Y-76693579D01*
X100334000Y-85739420D01*
G36*
X104186013Y-93830873D02*
X104024877Y-93862137D01*
X103812073Y-94001927D01*
X103669623Y-94212960D01*
X103619560Y-94462600D01*
X103619560Y-96037400D01*
X103666537Y-96279523D01*
X103743707Y-96397000D01*
X98974884Y-96397000D01*
X99186222Y-96255789D01*
X99494559Y-95794329D01*
X99602833Y-95250000D01*
X99494559Y-94705671D01*
X99186222Y-94244211D01*
X98790801Y-93980000D01*
X99186222Y-93715789D01*
X99494559Y-93254329D01*
X99602833Y-92710000D01*
X99494559Y-92165671D01*
X99186222Y-91704211D01*
X98790801Y-91440000D01*
X99186222Y-91175789D01*
X99266930Y-91055000D01*
X100598420Y-91055000D01*
X101609207Y-92065786D01*
X101609210Y-92065790D01*
X101896325Y-92257633D01*
X102235000Y-92325001D01*
X102235000Y-92325000D01*
X102235005Y-92325000D01*
X103673748Y-92325000D01*
X103597167Y-92710000D01*
X103705441Y-93254329D01*
X104013778Y-93715789D01*
X104186013Y-93830873D01*
X104186013Y-93830873D01*
G37*
X104186013Y-93830873D02*
X104024877Y-93862137D01*
X103812073Y-94001927D01*
X103669623Y-94212960D01*
X103619560Y-94462600D01*
X103619560Y-96037400D01*
X103666537Y-96279523D01*
X103743707Y-96397000D01*
X98974884Y-96397000D01*
X99186222Y-96255789D01*
X99494559Y-95794329D01*
X99602833Y-95250000D01*
X99494559Y-94705671D01*
X99186222Y-94244211D01*
X98790801Y-93980000D01*
X99186222Y-93715789D01*
X99494559Y-93254329D01*
X99602833Y-92710000D01*
X99494559Y-92165671D01*
X99186222Y-91704211D01*
X98790801Y-91440000D01*
X99186222Y-91175789D01*
X99266930Y-91055000D01*
X100598420Y-91055000D01*
X101609207Y-92065786D01*
X101609210Y-92065790D01*
X101896325Y-92257633D01*
X102235000Y-92325001D01*
X102235000Y-92325000D01*
X102235005Y-92325000D01*
X103673748Y-92325000D01*
X103597167Y-92710000D01*
X103705441Y-93254329D01*
X104013778Y-93715789D01*
X104186013Y-93830873D01*
G36*
X105557000Y-82677000D02*
X105537000Y-82677000D01*
X105537000Y-82697000D01*
X105283000Y-82697000D01*
X105283000Y-82677000D01*
X103797148Y-82677000D01*
X103674990Y-82897060D01*
X103691673Y-82976996D01*
X103958809Y-83465986D01*
X104392738Y-83815525D01*
X104408829Y-83820246D01*
X104013778Y-84084211D01*
X103705441Y-84545671D01*
X103597167Y-85090000D01*
X103705441Y-85634329D01*
X104013778Y-86095789D01*
X104409198Y-86360000D01*
X104013778Y-86624211D01*
X103705441Y-87085671D01*
X103597167Y-87630000D01*
X103705441Y-88174329D01*
X104013778Y-88635789D01*
X104409198Y-88900000D01*
X104013778Y-89164211D01*
X103705441Y-89625671D01*
X103597167Y-90170000D01*
X103673748Y-90555000D01*
X102601579Y-90555000D01*
X101590790Y-89544210D01*
X101303675Y-89352367D01*
X101247484Y-89341189D01*
X100965000Y-89284999D01*
X100964994Y-89285000D01*
X99266930Y-89285000D01*
X99186222Y-89164211D01*
X98790801Y-88900000D01*
X99186222Y-88635789D01*
X99266930Y-88515000D01*
X99694994Y-88515000D01*
X99695000Y-88515001D01*
X99695000Y-88515000D01*
X99977484Y-88458810D01*
X100033674Y-88447633D01*
X100033675Y-88447633D01*
X100320790Y-88255790D01*
X101844786Y-86731792D01*
X101844789Y-86731790D01*
X101844790Y-86731790D01*
X102036633Y-86444675D01*
X102104000Y-86106000D01*
X102104000Y-76327000D01*
X102036633Y-75988325D01*
X101844790Y-75701210D01*
X101844786Y-75701207D01*
X100447790Y-74304210D01*
X100160675Y-74112367D01*
X100104484Y-74101189D01*
X99822000Y-74044999D01*
X99821994Y-74045000D01*
X99266930Y-74045000D01*
X99186222Y-73924211D01*
X98790801Y-73660000D01*
X99186222Y-73395789D01*
X99494559Y-72934329D01*
X99602833Y-72390000D01*
X99494559Y-71845671D01*
X99431302Y-71751000D01*
X99455420Y-71751000D01*
X100720207Y-73015786D01*
X100720210Y-73015790D01*
X101007325Y-73207633D01*
X101346000Y-73275000D01*
X103933069Y-73275000D01*
X104013778Y-73395789D01*
X104408829Y-73659753D01*
X104392738Y-73664475D01*
X103958809Y-74014014D01*
X103691673Y-74503004D01*
X103674990Y-74582940D01*
X103797148Y-74803000D01*
X105283000Y-74803000D01*
X105283000Y-74783000D01*
X105537000Y-74783000D01*
X105537000Y-74803000D01*
X105557000Y-74803000D01*
X105557000Y-75057000D01*
X105537000Y-75057000D01*
X105537000Y-75077000D01*
X105283000Y-75077000D01*
X105283000Y-75057000D01*
X103797148Y-75057000D01*
X103674990Y-75277060D01*
X103691673Y-75356996D01*
X103958809Y-75845986D01*
X104392738Y-76195525D01*
X104408829Y-76200246D01*
X104013778Y-76464211D01*
X103705441Y-76925671D01*
X103597167Y-77470000D01*
X103705441Y-78014329D01*
X104013778Y-78475789D01*
X104409198Y-78740000D01*
X104013778Y-79004211D01*
X103705441Y-79465671D01*
X103597167Y-80010000D01*
X103705441Y-80554329D01*
X104013778Y-81015789D01*
X104408829Y-81279753D01*
X104392738Y-81284475D01*
X103958809Y-81634014D01*
X103691673Y-82123004D01*
X103674990Y-82202940D01*
X103797148Y-82423000D01*
X105283000Y-82423000D01*
X105283000Y-82403000D01*
X105537000Y-82403000D01*
X105537000Y-82423000D01*
X105557000Y-82423000D01*
X105557000Y-82677000D01*
X105557000Y-82677000D01*
G37*
X105557000Y-82677000D02*
X105537000Y-82677000D01*
X105537000Y-82697000D01*
X105283000Y-82697000D01*
X105283000Y-82677000D01*
X103797148Y-82677000D01*
X103674990Y-82897060D01*
X103691673Y-82976996D01*
X103958809Y-83465986D01*
X104392738Y-83815525D01*
X104408829Y-83820246D01*
X104013778Y-84084211D01*
X103705441Y-84545671D01*
X103597167Y-85090000D01*
X103705441Y-85634329D01*
X104013778Y-86095789D01*
X104409198Y-86360000D01*
X104013778Y-86624211D01*
X103705441Y-87085671D01*
X103597167Y-87630000D01*
X103705441Y-88174329D01*
X104013778Y-88635789D01*
X104409198Y-88900000D01*
X104013778Y-89164211D01*
X103705441Y-89625671D01*
X103597167Y-90170000D01*
X103673748Y-90555000D01*
X102601579Y-90555000D01*
X101590790Y-89544210D01*
X101303675Y-89352367D01*
X101247484Y-89341189D01*
X100965000Y-89284999D01*
X100964994Y-89285000D01*
X99266930Y-89285000D01*
X99186222Y-89164211D01*
X98790801Y-88900000D01*
X99186222Y-88635789D01*
X99266930Y-88515000D01*
X99694994Y-88515000D01*
X99695000Y-88515001D01*
X99695000Y-88515000D01*
X99977484Y-88458810D01*
X100033674Y-88447633D01*
X100033675Y-88447633D01*
X100320790Y-88255790D01*
X101844786Y-86731792D01*
X101844789Y-86731790D01*
X101844790Y-86731790D01*
X102036633Y-86444675D01*
X102104000Y-86106000D01*
X102104000Y-76327000D01*
X102036633Y-75988325D01*
X101844790Y-75701210D01*
X101844786Y-75701207D01*
X100447790Y-74304210D01*
X100160675Y-74112367D01*
X100104484Y-74101189D01*
X99822000Y-74044999D01*
X99821994Y-74045000D01*
X99266930Y-74045000D01*
X99186222Y-73924211D01*
X98790801Y-73660000D01*
X99186222Y-73395789D01*
X99494559Y-72934329D01*
X99602833Y-72390000D01*
X99494559Y-71845671D01*
X99431302Y-71751000D01*
X99455420Y-71751000D01*
X100720207Y-73015786D01*
X100720210Y-73015790D01*
X101007325Y-73207633D01*
X101346000Y-73275000D01*
X103933069Y-73275000D01*
X104013778Y-73395789D01*
X104408829Y-73659753D01*
X104392738Y-73664475D01*
X103958809Y-74014014D01*
X103691673Y-74503004D01*
X103674990Y-74582940D01*
X103797148Y-74803000D01*
X105283000Y-74803000D01*
X105283000Y-74783000D01*
X105537000Y-74783000D01*
X105537000Y-74803000D01*
X105557000Y-74803000D01*
X105557000Y-75057000D01*
X105537000Y-75057000D01*
X105537000Y-75077000D01*
X105283000Y-75077000D01*
X105283000Y-75057000D01*
X103797148Y-75057000D01*
X103674990Y-75277060D01*
X103691673Y-75356996D01*
X103958809Y-75845986D01*
X104392738Y-76195525D01*
X104408829Y-76200246D01*
X104013778Y-76464211D01*
X103705441Y-76925671D01*
X103597167Y-77470000D01*
X103705441Y-78014329D01*
X104013778Y-78475789D01*
X104409198Y-78740000D01*
X104013778Y-79004211D01*
X103705441Y-79465671D01*
X103597167Y-80010000D01*
X103705441Y-80554329D01*
X104013778Y-81015789D01*
X104408829Y-81279753D01*
X104392738Y-81284475D01*
X103958809Y-81634014D01*
X103691673Y-82123004D01*
X103674990Y-82202940D01*
X103797148Y-82423000D01*
X105283000Y-82423000D01*
X105283000Y-82403000D01*
X105537000Y-82403000D01*
X105537000Y-82423000D01*
X105557000Y-82423000D01*
X105557000Y-82677000D01*
G36*
X106963058Y-88401065D02*
X106960288Y-89019132D01*
X106809821Y-89169598D01*
X106806222Y-89164211D01*
X106410801Y-88900000D01*
X106806222Y-88635789D01*
X106963058Y-88401065D01*
X106963058Y-88401065D01*
G37*
X106963058Y-88401065D02*
X106960288Y-89019132D01*
X106809821Y-89169598D01*
X106806222Y-89164211D01*
X106410801Y-88900000D01*
X106806222Y-88635789D01*
X106963058Y-88401065D01*
G36*
X106974520Y-85843912D02*
X106969924Y-86869210D01*
X106806222Y-86624211D01*
X106410801Y-86360000D01*
X106806222Y-86095789D01*
X106974520Y-85843912D01*
X106974520Y-85843912D01*
G37*
X106974520Y-85843912D02*
X106969924Y-86869210D01*
X106806222Y-86624211D01*
X106410801Y-86360000D01*
X106806222Y-86095789D01*
X106974520Y-85843912D01*
G36*
X106986204Y-83237150D02*
X106981233Y-84346134D01*
X106806222Y-84084211D01*
X106411170Y-83820246D01*
X106427262Y-83815525D01*
X106861191Y-83465986D01*
X106986204Y-83237150D01*
X106986204Y-83237150D01*
G37*
X106986204Y-83237150D02*
X106981233Y-84346134D01*
X106806222Y-84084211D01*
X106411170Y-83820246D01*
X106427262Y-83815525D01*
X106861191Y-83465986D01*
X106986204Y-83237150D01*
G36*
X106997443Y-80729605D02*
X106992313Y-81874033D01*
X106861191Y-81634014D01*
X106427262Y-81284475D01*
X106411170Y-81279753D01*
X106806222Y-81015789D01*
X106997443Y-80729605D01*
X106997443Y-80729605D01*
G37*
X106997443Y-80729605D02*
X106992313Y-81874033D01*
X106861191Y-81634014D01*
X106427262Y-81284475D01*
X106411170Y-81279753D01*
X106806222Y-81015789D01*
X106997443Y-80729605D01*
G36*
X107020640Y-75554115D02*
X107015159Y-76776909D01*
X106806222Y-76464211D01*
X106411170Y-76200246D01*
X106427262Y-76195525D01*
X106861191Y-75845986D01*
X107020640Y-75554115D01*
X107020640Y-75554115D01*
G37*
X107020640Y-75554115D02*
X107015159Y-76776909D01*
X106806222Y-76464211D01*
X106411170Y-76200246D01*
X106427262Y-76195525D01*
X106861191Y-75845986D01*
X107020640Y-75554115D01*
G36*
X107031827Y-73058145D02*
X107026189Y-74316042D01*
X106861191Y-74014014D01*
X106427262Y-73664475D01*
X106411170Y-73659753D01*
X106806222Y-73395789D01*
X107031827Y-73058145D01*
X107031827Y-73058145D01*
G37*
X107031827Y-73058145D02*
X107026189Y-74316042D01*
X106861191Y-74014014D01*
X106427262Y-73664475D01*
X106411170Y-73659753D01*
X106806222Y-73395789D01*
X107031827Y-73058145D01*
G36*
X108372895Y-90400525D02*
X108218420Y-90555000D01*
X107927579Y-90555000D01*
X108330631Y-90151947D01*
X108327041Y-90170000D01*
X108372895Y-90400525D01*
X108372895Y-90400525D01*
G37*
X108372895Y-90400525D02*
X108218420Y-90555000D01*
X107927579Y-90555000D01*
X108330631Y-90151947D01*
X108327041Y-90170000D01*
X108372895Y-90400525D01*
G36*
X129237420Y-69275000D02*
X129215000Y-69275000D01*
X122977579Y-69275000D01*
X121910790Y-68208210D01*
X121623675Y-68016367D01*
X121567484Y-68005189D01*
X121285000Y-67948999D01*
X121284994Y-67949000D01*
X120344625Y-67949000D01*
X120378785Y-67866734D01*
X120378985Y-67636593D01*
X120526579Y-67489000D01*
X127451420Y-67489000D01*
X129237420Y-69275000D01*
X129237420Y-69275000D01*
G37*
X129237420Y-69275000D02*
X129215000Y-69275000D01*
X122977579Y-69275000D01*
X121910790Y-68208210D01*
X121623675Y-68016367D01*
X121567484Y-68005189D01*
X121285000Y-67948999D01*
X121284994Y-67949000D01*
X120344625Y-67949000D01*
X120378785Y-67866734D01*
X120378985Y-67636593D01*
X120526579Y-67489000D01*
X127451420Y-67489000D01*
X129237420Y-69275000D01*
G36*
X154255000Y-98375000D02*
X152908000Y-98375000D01*
X152908000Y-85789469D01*
X152908000Y-84582000D01*
X152888000Y-84582000D01*
X152888000Y-84328000D01*
X152908000Y-84328000D01*
X152908000Y-83249469D01*
X152908000Y-83120531D01*
X152908000Y-82042000D01*
X152888000Y-82042000D01*
X152888000Y-81788000D01*
X152908000Y-81788000D01*
X152908000Y-80580531D01*
X152675973Y-80460032D01*
X152146510Y-80708179D01*
X151975746Y-80895263D01*
X151959063Y-80809277D01*
X151853000Y-80647816D01*
X151819273Y-80596473D01*
X151608240Y-80454023D01*
X151358600Y-80403960D01*
X150241000Y-80403960D01*
X150241000Y-75866250D01*
X150241000Y-74517000D01*
X150241000Y-74263000D01*
X150241000Y-72913750D01*
X150082250Y-72755000D01*
X149644309Y-72755000D01*
X149391690Y-72755000D01*
X149158301Y-72851673D01*
X148979673Y-73030302D01*
X148883000Y-73263691D01*
X148883000Y-74104250D01*
X149041750Y-74263000D01*
X150241000Y-74263000D01*
X150241000Y-74517000D01*
X149041750Y-74517000D01*
X148883000Y-74675750D01*
X148883000Y-75516309D01*
X148979673Y-75749698D01*
X149158301Y-75928327D01*
X149391690Y-76025000D01*
X149644309Y-76025000D01*
X150082250Y-76025000D01*
X150241000Y-75866250D01*
X150241000Y-80403960D01*
X149631400Y-80403960D01*
X149389277Y-80450937D01*
X149176473Y-80590727D01*
X149034023Y-80801760D01*
X148983960Y-81051400D01*
X148983960Y-82778600D01*
X149030937Y-83020723D01*
X149170727Y-83233527D01*
X149381760Y-83375977D01*
X149422659Y-83384179D01*
X149405971Y-83395330D01*
X149081115Y-83881511D01*
X148967041Y-84455000D01*
X149081115Y-85028489D01*
X149405971Y-85514670D01*
X149892152Y-85839526D01*
X150465641Y-85953600D01*
X150524359Y-85953600D01*
X151097848Y-85839526D01*
X151584029Y-85514670D01*
X151764992Y-85243839D01*
X152146510Y-85661821D01*
X152675973Y-85909968D01*
X152908000Y-85789469D01*
X152908000Y-98375000D01*
X141217690Y-98375000D01*
X141720776Y-97872792D01*
X142084645Y-96996499D01*
X142085473Y-96047664D01*
X141723134Y-95170737D01*
X141052792Y-94499224D01*
X140176499Y-94135355D01*
X139673440Y-94134916D01*
X139673440Y-73866000D01*
X139673440Y-71866000D01*
X139626463Y-71623877D01*
X139486673Y-71411073D01*
X139275640Y-71268623D01*
X139026000Y-71218560D01*
X137326000Y-71218560D01*
X137083877Y-71265537D01*
X136871073Y-71405327D01*
X136728623Y-71616360D01*
X136678560Y-71866000D01*
X136678560Y-73866000D01*
X136725537Y-74108123D01*
X136865327Y-74320927D01*
X137076360Y-74463377D01*
X137291000Y-74506421D01*
X137291000Y-79247994D01*
X137290999Y-79248000D01*
X137291000Y-79248005D01*
X137291000Y-81929420D01*
X136031420Y-83189000D01*
X135828822Y-83189000D01*
X135883807Y-83028964D01*
X135871214Y-82825326D01*
X135871214Y-80075421D01*
X135871214Y-77535421D01*
X135871214Y-74995421D01*
X135683592Y-74541343D01*
X135336485Y-74193629D01*
X134882734Y-74005215D01*
X134391421Y-74004786D01*
X133937343Y-74192408D01*
X133589629Y-74539515D01*
X133401215Y-74993266D01*
X133400786Y-75484579D01*
X133588408Y-75938657D01*
X133935515Y-76286371D01*
X134389266Y-76474785D01*
X134880579Y-76475214D01*
X135334657Y-76287592D01*
X135682371Y-75940485D01*
X135870785Y-75486734D01*
X135871214Y-74995421D01*
X135871214Y-77535421D01*
X135683592Y-77081343D01*
X135336485Y-76733629D01*
X134882734Y-76545215D01*
X134391421Y-76544786D01*
X133937343Y-76732408D01*
X133589629Y-77079515D01*
X133401215Y-77533266D01*
X133400786Y-78024579D01*
X133588408Y-78478657D01*
X133935515Y-78826371D01*
X134389266Y-79014785D01*
X134880579Y-79015214D01*
X135334657Y-78827592D01*
X135682371Y-78480485D01*
X135870785Y-78026734D01*
X135871214Y-77535421D01*
X135871214Y-80075421D01*
X135683592Y-79621343D01*
X135336485Y-79273629D01*
X134882734Y-79085215D01*
X134391421Y-79084786D01*
X133937343Y-79272408D01*
X133739623Y-79469782D01*
X133219292Y-79490375D01*
X132457000Y-78651853D01*
X132457000Y-75744821D01*
X132506838Y-75624799D01*
X132507162Y-75252833D01*
X132365117Y-74909057D01*
X132102327Y-74645808D01*
X131758799Y-74503162D01*
X131386833Y-74502838D01*
X131043057Y-74644883D01*
X130779808Y-74907673D01*
X130637162Y-75251201D01*
X130636838Y-75623167D01*
X130687000Y-75744568D01*
X130687000Y-78994000D01*
X130716652Y-79143071D01*
X130739183Y-79293400D01*
X130750197Y-79311714D01*
X130754367Y-79332675D01*
X130838818Y-79459066D01*
X130917153Y-79589315D01*
X132187153Y-80986316D01*
X132218513Y-81009501D01*
X132241447Y-81041048D01*
X132356414Y-81111454D01*
X132464818Y-81191599D01*
X132502666Y-81201019D01*
X132535924Y-81221386D01*
X132669073Y-81242436D01*
X132799905Y-81274999D01*
X132838476Y-81269218D01*
X132876998Y-81275308D01*
X133807836Y-81238468D01*
X133935515Y-81366371D01*
X134389266Y-81554785D01*
X134880579Y-81555214D01*
X135334657Y-81367592D01*
X135682371Y-81020485D01*
X135870785Y-80566734D01*
X135871214Y-80075421D01*
X135871214Y-82825326D01*
X135853482Y-82538587D01*
X135724164Y-82226383D01*
X135498735Y-82176870D01*
X135319130Y-82356475D01*
X135319130Y-81997265D01*
X135269617Y-81771836D01*
X134804964Y-81612193D01*
X134314587Y-81642518D01*
X134002383Y-81771836D01*
X133952870Y-81997265D01*
X134636000Y-82680395D01*
X135319130Y-81997265D01*
X135319130Y-82356475D01*
X134815605Y-82860000D01*
X134829747Y-82874142D01*
X134650142Y-83053747D01*
X134636000Y-83039605D01*
X134621857Y-83053747D01*
X134442252Y-82874142D01*
X134456395Y-82860000D01*
X133773265Y-82176870D01*
X133547836Y-82226383D01*
X133388193Y-82691036D01*
X133409551Y-83036419D01*
X132430566Y-82057434D01*
X132062346Y-81811397D01*
X131628000Y-81725000D01*
X130213000Y-81725000D01*
X130213000Y-80025309D01*
X130213000Y-79184750D01*
X130213000Y-78613250D01*
X130213000Y-77772691D01*
X130116327Y-77539302D01*
X129937699Y-77360673D01*
X129704310Y-77264000D01*
X129451691Y-77264000D01*
X129063750Y-77264000D01*
X128905000Y-77422750D01*
X128905000Y-78772000D01*
X130054250Y-78772000D01*
X130213000Y-78613250D01*
X130213000Y-79184750D01*
X130054250Y-79026000D01*
X128905000Y-79026000D01*
X128905000Y-80375250D01*
X129063750Y-80534000D01*
X129451691Y-80534000D01*
X129704310Y-80534000D01*
X129937699Y-80437327D01*
X130116327Y-80258698D01*
X130213000Y-80025309D01*
X130213000Y-81725000D01*
X130191680Y-81725000D01*
X130178463Y-81656877D01*
X130038673Y-81444073D01*
X129827640Y-81301623D01*
X129578000Y-81251560D01*
X128651000Y-81251560D01*
X128651000Y-80375250D01*
X128651000Y-79026000D01*
X128651000Y-78772000D01*
X128651000Y-77422750D01*
X128492250Y-77264000D01*
X128104309Y-77264000D01*
X127851690Y-77264000D01*
X127618301Y-77360673D01*
X127439673Y-77539302D01*
X127343000Y-77772691D01*
X127343000Y-78613250D01*
X127501750Y-78772000D01*
X128651000Y-78772000D01*
X128651000Y-79026000D01*
X127501750Y-79026000D01*
X127343000Y-79184750D01*
X127343000Y-80025309D01*
X127439673Y-80258698D01*
X127618301Y-80437327D01*
X127851690Y-80534000D01*
X128104309Y-80534000D01*
X128492250Y-80534000D01*
X128651000Y-80375250D01*
X128651000Y-81251560D01*
X127978000Y-81251560D01*
X127735877Y-81298537D01*
X127523073Y-81438327D01*
X127380623Y-81649360D01*
X127365454Y-81725000D01*
X120379214Y-81725000D01*
X120379214Y-80075421D01*
X120379214Y-77535421D01*
X120379214Y-74995421D01*
X120191592Y-74541343D01*
X119844485Y-74193629D01*
X119390734Y-74005215D01*
X118899421Y-74004786D01*
X118445343Y-74192408D01*
X118097629Y-74539515D01*
X117909215Y-74993266D01*
X117908786Y-75484579D01*
X118096408Y-75938657D01*
X118443515Y-76286371D01*
X118897266Y-76474785D01*
X119388579Y-76475214D01*
X119842657Y-76287592D01*
X120190371Y-75940485D01*
X120378785Y-75486734D01*
X120379214Y-74995421D01*
X120379214Y-77535421D01*
X120191592Y-77081343D01*
X119844485Y-76733629D01*
X119390734Y-76545215D01*
X118899421Y-76544786D01*
X118445343Y-76732408D01*
X118097629Y-77079515D01*
X117909215Y-77533266D01*
X117908786Y-78024579D01*
X118096408Y-78478657D01*
X118443515Y-78826371D01*
X118897266Y-79014785D01*
X119388579Y-79015214D01*
X119842657Y-78827592D01*
X120190371Y-78480485D01*
X120378785Y-78026734D01*
X120379214Y-77535421D01*
X120379214Y-80075421D01*
X120191592Y-79621343D01*
X119844485Y-79273629D01*
X119390734Y-79085215D01*
X118899421Y-79084786D01*
X118445343Y-79272408D01*
X118097629Y-79619515D01*
X117909215Y-80073266D01*
X117908786Y-80564579D01*
X118096408Y-81018657D01*
X118443515Y-81366371D01*
X118897266Y-81554785D01*
X119388579Y-81555214D01*
X119842657Y-81367592D01*
X120190371Y-81020485D01*
X120378785Y-80566734D01*
X120379214Y-80075421D01*
X120379214Y-81725000D01*
X119631042Y-81725000D01*
X119390734Y-81625215D01*
X118899421Y-81624786D01*
X118445343Y-81812408D01*
X118097629Y-82159515D01*
X117909215Y-82613266D01*
X117908786Y-83104579D01*
X118096408Y-83558657D01*
X118443515Y-83906371D01*
X118897266Y-84094785D01*
X119388579Y-84095214D01*
X119631114Y-83995000D01*
X127349186Y-83995000D01*
X127377537Y-84141123D01*
X127517327Y-84353927D01*
X127728360Y-84496377D01*
X127978000Y-84546440D01*
X129578000Y-84546440D01*
X129820123Y-84499463D01*
X130032927Y-84359673D01*
X130175377Y-84148640D01*
X130206188Y-83995000D01*
X131157868Y-83995000D01*
X131957000Y-84794132D01*
X131957000Y-88645994D01*
X131956999Y-88646000D01*
X132013189Y-88928484D01*
X132024367Y-88984675D01*
X132216210Y-89271790D01*
X132724207Y-89779786D01*
X132724210Y-89779790D01*
X133011325Y-89971633D01*
X133350000Y-90039000D01*
X133481881Y-90039000D01*
X133401215Y-90233266D01*
X133400786Y-90724579D01*
X133588408Y-91178657D01*
X133935515Y-91526371D01*
X134389266Y-91714785D01*
X134880579Y-91715214D01*
X135334657Y-91527592D01*
X135682371Y-91180485D01*
X135870785Y-90726734D01*
X135871214Y-90235421D01*
X135790054Y-90039000D01*
X137869178Y-90039000D01*
X137989201Y-90088838D01*
X138361167Y-90089162D01*
X138704943Y-89947117D01*
X138968192Y-89684327D01*
X139110838Y-89340799D01*
X139111162Y-88968833D01*
X138969117Y-88625057D01*
X138706327Y-88361808D01*
X138362799Y-88219162D01*
X137990833Y-88218838D01*
X137869431Y-88269000D01*
X135836625Y-88269000D01*
X135870785Y-88186734D01*
X135871214Y-87695421D01*
X135683592Y-87241343D01*
X135336485Y-86893629D01*
X134882734Y-86705215D01*
X134391421Y-86704786D01*
X133937343Y-86892408D01*
X133727000Y-87102383D01*
X133727000Y-86237491D01*
X133935515Y-86446371D01*
X134389266Y-86634785D01*
X134880579Y-86635214D01*
X135334657Y-86447592D01*
X135682371Y-86100485D01*
X135870785Y-85646734D01*
X135871214Y-85155421D01*
X135790054Y-84959000D01*
X136397994Y-84959000D01*
X136398000Y-84959001D01*
X136398000Y-84959000D01*
X136680484Y-84902810D01*
X136736674Y-84891633D01*
X136736675Y-84891633D01*
X137023790Y-84699790D01*
X138801786Y-82921792D01*
X138801790Y-82921790D01*
X138801790Y-82921789D01*
X138993633Y-82634675D01*
X138993633Y-82634674D01*
X139004810Y-82578484D01*
X139061000Y-82296000D01*
X139061001Y-82296000D01*
X139061000Y-82295994D01*
X139061000Y-79614579D01*
X139092834Y-79582744D01*
X139212943Y-79533117D01*
X139476192Y-79270327D01*
X139618838Y-78926799D01*
X139619162Y-78554833D01*
X139477117Y-78211057D01*
X139214327Y-77947808D01*
X139061000Y-77884140D01*
X139061000Y-74506649D01*
X139268123Y-74466463D01*
X139480927Y-74326673D01*
X139623377Y-74115640D01*
X139673440Y-73866000D01*
X139673440Y-94134916D01*
X139227664Y-94134527D01*
X138350737Y-94496866D01*
X137679224Y-95167208D01*
X137315355Y-96043501D01*
X137314527Y-96992336D01*
X137676866Y-97869263D01*
X138181721Y-98375000D01*
X135883440Y-98375000D01*
X135883440Y-96160000D01*
X135883440Y-94960000D01*
X135871214Y-94896986D01*
X135871214Y-92775421D01*
X135683592Y-92321343D01*
X135336485Y-91973629D01*
X134882734Y-91785215D01*
X134391421Y-91784786D01*
X133937343Y-91972408D01*
X133589629Y-92319515D01*
X133401215Y-92773266D01*
X133400786Y-93264579D01*
X133588408Y-93718657D01*
X133935515Y-94066371D01*
X134389266Y-94254785D01*
X134880579Y-94255214D01*
X135334657Y-94067592D01*
X135682371Y-93720485D01*
X135870785Y-93266734D01*
X135871214Y-92775421D01*
X135871214Y-94896986D01*
X135836463Y-94717877D01*
X135696673Y-94505073D01*
X135485640Y-94362623D01*
X135236000Y-94312560D01*
X134036000Y-94312560D01*
X133793877Y-94359537D01*
X133581073Y-94499327D01*
X133438623Y-94710360D01*
X133388560Y-94960000D01*
X133388560Y-96160000D01*
X133435537Y-96402123D01*
X133575327Y-96614927D01*
X133786360Y-96757377D01*
X134036000Y-96807440D01*
X135236000Y-96807440D01*
X135478123Y-96760463D01*
X135690927Y-96620673D01*
X135833377Y-96409640D01*
X135883440Y-96160000D01*
X135883440Y-98375000D01*
X120391807Y-98375000D01*
X120391807Y-88108964D01*
X120379214Y-87905326D01*
X120379214Y-85155421D01*
X120191592Y-84701343D01*
X119844485Y-84353629D01*
X119390734Y-84165215D01*
X118899421Y-84164786D01*
X118445343Y-84352408D01*
X118097629Y-84699515D01*
X117909215Y-85153266D01*
X117908786Y-85644579D01*
X118096408Y-86098657D01*
X118443515Y-86446371D01*
X118897266Y-86634785D01*
X119388579Y-86635214D01*
X119842657Y-86447592D01*
X120190371Y-86100485D01*
X120378785Y-85646734D01*
X120379214Y-85155421D01*
X120379214Y-87905326D01*
X120361482Y-87618587D01*
X120232164Y-87306383D01*
X120006735Y-87256870D01*
X119827130Y-87436475D01*
X119827130Y-87077265D01*
X119777617Y-86851836D01*
X119312964Y-86692193D01*
X118822587Y-86722518D01*
X118510383Y-86851836D01*
X118460870Y-87077265D01*
X119144000Y-87760395D01*
X119827130Y-87077265D01*
X119827130Y-87436475D01*
X119323605Y-87940000D01*
X120006735Y-88623130D01*
X120232164Y-88573617D01*
X120391807Y-88108964D01*
X120391807Y-98375000D01*
X120379214Y-98375000D01*
X120379214Y-95315421D01*
X120379214Y-92775421D01*
X120379214Y-90235421D01*
X120191592Y-89781343D01*
X119844485Y-89433629D01*
X119827130Y-89426422D01*
X119827130Y-88802735D01*
X119144000Y-88119605D01*
X118964395Y-88299210D01*
X118964395Y-87940000D01*
X118281265Y-87256870D01*
X118055836Y-87306383D01*
X117896193Y-87771036D01*
X117926518Y-88261413D01*
X118055836Y-88573617D01*
X118281265Y-88623130D01*
X118964395Y-87940000D01*
X118964395Y-88299210D01*
X118460870Y-88802735D01*
X118510383Y-89028164D01*
X118975036Y-89187807D01*
X119465413Y-89157482D01*
X119777617Y-89028164D01*
X119827130Y-88802735D01*
X119827130Y-89426422D01*
X119390734Y-89245215D01*
X118899421Y-89244786D01*
X118445343Y-89432408D01*
X118097629Y-89779515D01*
X117909215Y-90233266D01*
X117908786Y-90724579D01*
X118096408Y-91178657D01*
X118443515Y-91526371D01*
X118897266Y-91714785D01*
X119388579Y-91715214D01*
X119842657Y-91527592D01*
X120190371Y-91180485D01*
X120378785Y-90726734D01*
X120379214Y-90235421D01*
X120379214Y-92775421D01*
X120191592Y-92321343D01*
X119844485Y-91973629D01*
X119390734Y-91785215D01*
X118899421Y-91784786D01*
X118445343Y-91972408D01*
X118097629Y-92319515D01*
X117909215Y-92773266D01*
X117908786Y-93264579D01*
X118096408Y-93718657D01*
X118443515Y-94066371D01*
X118897266Y-94254785D01*
X119388579Y-94255214D01*
X119842657Y-94067592D01*
X120190371Y-93720485D01*
X120378785Y-93266734D01*
X120379214Y-92775421D01*
X120379214Y-95315421D01*
X120191592Y-94861343D01*
X119844485Y-94513629D01*
X119390734Y-94325215D01*
X118899421Y-94324786D01*
X118445343Y-94512408D01*
X118097629Y-94859515D01*
X117909215Y-95313266D01*
X117908786Y-95804579D01*
X118096408Y-96258657D01*
X118443515Y-96606371D01*
X118897266Y-96794785D01*
X119388579Y-96795214D01*
X119842657Y-96607592D01*
X120190371Y-96260485D01*
X120378785Y-95806734D01*
X120379214Y-95315421D01*
X120379214Y-98375000D01*
X115697767Y-98375000D01*
X115697767Y-96851966D01*
X115685810Y-96616561D01*
X115685810Y-93832602D01*
X115475314Y-93323163D01*
X115085887Y-92933056D01*
X114576816Y-92721671D01*
X114025602Y-92721190D01*
X113849958Y-92793764D01*
X113849958Y-90529026D01*
X113849958Y-89810974D01*
X113677688Y-89395053D01*
X113283490Y-88963179D01*
X113148687Y-88900000D01*
X113283490Y-88836821D01*
X113677688Y-88404947D01*
X113849958Y-87989026D01*
X113849958Y-87270974D01*
X113677688Y-86855053D01*
X113283490Y-86423179D01*
X113148687Y-86360000D01*
X113283490Y-86296821D01*
X113677688Y-85864947D01*
X113849958Y-85449026D01*
X113849958Y-84730974D01*
X113677688Y-84315053D01*
X113283490Y-83883179D01*
X112754027Y-83635032D01*
X112522000Y-83755531D01*
X112522000Y-84963000D01*
X113728817Y-84963000D01*
X113849958Y-84730974D01*
X113849958Y-85449026D01*
X113728817Y-85217000D01*
X112522000Y-85217000D01*
X112522000Y-86295531D01*
X112522000Y-86424469D01*
X112522000Y-87503000D01*
X113728817Y-87503000D01*
X113849958Y-87270974D01*
X113849958Y-87989026D01*
X113728817Y-87757000D01*
X112522000Y-87757000D01*
X112522000Y-88835531D01*
X112522000Y-88964469D01*
X112522000Y-90043000D01*
X113728817Y-90043000D01*
X113849958Y-89810974D01*
X113849958Y-90529026D01*
X113728817Y-90297000D01*
X112522000Y-90297000D01*
X112522000Y-91504469D01*
X112754027Y-91624968D01*
X113283490Y-91376821D01*
X113677688Y-90944947D01*
X113849958Y-90529026D01*
X113849958Y-92793764D01*
X113516163Y-92931686D01*
X113126056Y-93321113D01*
X112914671Y-93830184D01*
X112914190Y-94381398D01*
X113124686Y-94890837D01*
X113514113Y-95280944D01*
X113729496Y-95370378D01*
X113575735Y-95434069D01*
X113507675Y-95675070D01*
X114300000Y-96467395D01*
X115092325Y-95675070D01*
X115024265Y-95434069D01*
X114858959Y-95375231D01*
X115083837Y-95282314D01*
X115473944Y-94892887D01*
X115685329Y-94383816D01*
X115685810Y-93832602D01*
X115685810Y-96616561D01*
X115669805Y-96301462D01*
X115512931Y-95922735D01*
X115271930Y-95854675D01*
X114479605Y-96647000D01*
X115271930Y-97439325D01*
X115512931Y-97371265D01*
X115697767Y-96851966D01*
X115697767Y-98375000D01*
X115092325Y-98375000D01*
X115092325Y-97618930D01*
X114300000Y-96826605D01*
X114120395Y-97006210D01*
X114120395Y-96647000D01*
X113328070Y-95854675D01*
X113087069Y-95922735D01*
X112902233Y-96442034D01*
X112930195Y-96992538D01*
X113087069Y-97371265D01*
X113328070Y-97439325D01*
X114120395Y-96647000D01*
X114120395Y-97006210D01*
X113507675Y-97618930D01*
X113575735Y-97859931D01*
X114095034Y-98044767D01*
X114645538Y-98016805D01*
X115024265Y-97859931D01*
X115092325Y-97618930D01*
X115092325Y-98375000D01*
X112268000Y-98375000D01*
X112268000Y-91504469D01*
X112268000Y-90297000D01*
X112248000Y-90297000D01*
X112248000Y-90043000D01*
X112268000Y-90043000D01*
X112268000Y-88964469D01*
X112268000Y-88835531D01*
X112268000Y-87757000D01*
X112248000Y-87757000D01*
X112248000Y-87503000D01*
X112268000Y-87503000D01*
X112268000Y-86424469D01*
X112268000Y-86295531D01*
X112268000Y-85217000D01*
X112248000Y-85217000D01*
X112248000Y-84963000D01*
X112268000Y-84963000D01*
X112268000Y-83755531D01*
X112141767Y-83689974D01*
X112141767Y-77801966D01*
X112113805Y-77251462D01*
X111956931Y-76872735D01*
X111715930Y-76804675D01*
X111536325Y-76984280D01*
X111536325Y-76625070D01*
X111468265Y-76384069D01*
X110948966Y-76199233D01*
X110398462Y-76227195D01*
X110019735Y-76384069D01*
X109951675Y-76625070D01*
X110744000Y-77417395D01*
X111536325Y-76625070D01*
X111536325Y-76984280D01*
X110923605Y-77597000D01*
X111715930Y-78389325D01*
X111956931Y-78321265D01*
X112141767Y-77801966D01*
X112141767Y-83689974D01*
X112129810Y-83683764D01*
X112129810Y-79862602D01*
X111919314Y-79353163D01*
X111529887Y-78963056D01*
X111314503Y-78873621D01*
X111468265Y-78809931D01*
X111536325Y-78568930D01*
X110744000Y-77776605D01*
X110564395Y-77956210D01*
X110564395Y-77597000D01*
X109772070Y-76804675D01*
X109531069Y-76872735D01*
X109346233Y-77392034D01*
X109374195Y-77942538D01*
X109531069Y-78321265D01*
X109772070Y-78389325D01*
X110564395Y-77597000D01*
X110564395Y-77956210D01*
X109951675Y-78568930D01*
X110019735Y-78809931D01*
X110185040Y-78868768D01*
X109960163Y-78961686D01*
X109570056Y-79351113D01*
X109358671Y-79860184D01*
X109358190Y-80411398D01*
X109568686Y-80920837D01*
X109958113Y-81310944D01*
X110467184Y-81522329D01*
X111018398Y-81522810D01*
X111527837Y-81312314D01*
X111917944Y-80922887D01*
X112129329Y-80413816D01*
X112129810Y-79862602D01*
X112129810Y-83683764D01*
X112035973Y-83635032D01*
X111506510Y-83883179D01*
X111335746Y-84070263D01*
X111319063Y-83984277D01*
X111179273Y-83771473D01*
X110968240Y-83629023D01*
X110718600Y-83578960D01*
X108991400Y-83578960D01*
X108754483Y-83624926D01*
X108833858Y-65915833D01*
X108833473Y-65913851D01*
X108833868Y-65911867D01*
X108800547Y-65744358D01*
X108768010Y-65576860D01*
X108766894Y-65575173D01*
X108766500Y-65573192D01*
X108671754Y-65431395D01*
X108577456Y-65288888D01*
X108575777Y-65287755D01*
X108574656Y-65286077D01*
X107051790Y-63763210D01*
X106764675Y-63571367D01*
X106708484Y-63560189D01*
X106566532Y-63531953D01*
X104601744Y-61567164D01*
X104552117Y-61447057D01*
X104289327Y-61183808D01*
X103945799Y-61041162D01*
X103573833Y-61040838D01*
X103230057Y-61182883D01*
X102966808Y-61445673D01*
X102824162Y-61789201D01*
X102823838Y-62161167D01*
X102965883Y-62504943D01*
X103228673Y-62768192D01*
X103349985Y-62818565D01*
X105546207Y-65014786D01*
X105546210Y-65014790D01*
X105833325Y-65206633D01*
X106031466Y-65246045D01*
X107062222Y-66276801D01*
X107037777Y-71730758D01*
X106806222Y-71384211D01*
X106344762Y-71075874D01*
X106091162Y-71025429D01*
X106091162Y-66108833D01*
X105949117Y-65765057D01*
X105686327Y-65501808D01*
X105342799Y-65359162D01*
X104970833Y-65358838D01*
X104695749Y-65472500D01*
X93895640Y-65472500D01*
X93898838Y-65464799D01*
X93899162Y-65092833D01*
X93849000Y-64971431D01*
X93849000Y-61976005D01*
X93849000Y-61976000D01*
X93849001Y-61976000D01*
X93781633Y-61637325D01*
X93589790Y-61350210D01*
X93589786Y-61350207D01*
X92891290Y-60651710D01*
X92604175Y-60459867D01*
X92547984Y-60448689D01*
X92265500Y-60392499D01*
X92265494Y-60392500D01*
X91693239Y-60392500D01*
X91576529Y-60217830D01*
X91090348Y-59892974D01*
X90516859Y-59778900D01*
X90458141Y-59778900D01*
X89884652Y-59892974D01*
X89398471Y-60217830D01*
X89217507Y-60488660D01*
X88835990Y-60070679D01*
X88306527Y-59822532D01*
X88074500Y-59943031D01*
X88074500Y-61150500D01*
X88094500Y-61150500D01*
X88094500Y-61404500D01*
X88074500Y-61404500D01*
X88074500Y-62483031D01*
X88074500Y-62611969D01*
X88074500Y-63690500D01*
X88094500Y-63690500D01*
X88094500Y-63944500D01*
X88074500Y-63944500D01*
X88074500Y-65023031D01*
X88074500Y-65151969D01*
X88074500Y-66230500D01*
X88094500Y-66230500D01*
X88094500Y-66484500D01*
X88074500Y-66484500D01*
X88074500Y-67691969D01*
X88306527Y-67812468D01*
X88835990Y-67564321D01*
X89006753Y-67377236D01*
X89023437Y-67463223D01*
X89163227Y-67676027D01*
X89374260Y-67818477D01*
X89623900Y-67868540D01*
X91351100Y-67868540D01*
X91593223Y-67821563D01*
X91806027Y-67681773D01*
X91948477Y-67470740D01*
X91994248Y-67242500D01*
X105092494Y-67242500D01*
X105092500Y-67242501D01*
X105092500Y-67242500D01*
X105160349Y-67229004D01*
X105341167Y-67229162D01*
X105684943Y-67087117D01*
X105948192Y-66824327D01*
X106090838Y-66480799D01*
X106091162Y-66108833D01*
X106091162Y-71025429D01*
X105800433Y-70967600D01*
X105019567Y-70967600D01*
X104475238Y-71075874D01*
X104013778Y-71384211D01*
X103933069Y-71505000D01*
X101712579Y-71505000D01*
X100447790Y-70240210D01*
X100160675Y-70048367D01*
X100104484Y-70037189D01*
X99822000Y-69980999D01*
X99821994Y-69981000D01*
X95758005Y-69981000D01*
X95758000Y-69980999D01*
X95475515Y-70037189D01*
X95419325Y-70048367D01*
X95132210Y-70240210D01*
X95132207Y-70240213D01*
X93849000Y-71523420D01*
X93849000Y-70156821D01*
X93898838Y-70036799D01*
X93899162Y-69664833D01*
X93757117Y-69321057D01*
X93494327Y-69057808D01*
X93150799Y-68915162D01*
X92778833Y-68914838D01*
X92435057Y-69056883D01*
X92171808Y-69319673D01*
X92029162Y-69663201D01*
X92028838Y-70035167D01*
X92079000Y-70156568D01*
X92079000Y-97282000D01*
X92146367Y-97620675D01*
X92338210Y-97907790D01*
X92625325Y-98099633D01*
X92964000Y-98167000D01*
X105410000Y-98167000D01*
X105748675Y-98099633D01*
X106035790Y-97907790D01*
X106227633Y-97620675D01*
X106295000Y-97282000D01*
X106295000Y-96684840D01*
X106553000Y-96684840D01*
X106795123Y-96637863D01*
X107007927Y-96498073D01*
X107150377Y-96287040D01*
X107200440Y-96037400D01*
X107200440Y-94462600D01*
X107153463Y-94220477D01*
X107013673Y-94007673D01*
X106802640Y-93865223D01*
X106633378Y-93831279D01*
X106806222Y-93715789D01*
X107114559Y-93254329D01*
X107222833Y-92710000D01*
X107146251Y-92325000D01*
X108584994Y-92325000D01*
X108585000Y-92325001D01*
X108585000Y-92325000D01*
X108867484Y-92268810D01*
X108923674Y-92257633D01*
X108923675Y-92257633D01*
X109210790Y-92065790D01*
X109644091Y-91632487D01*
X109825641Y-91668600D01*
X109884359Y-91668600D01*
X110457848Y-91554526D01*
X110944029Y-91229670D01*
X111124992Y-90958839D01*
X111506510Y-91376821D01*
X112035973Y-91624968D01*
X112268000Y-91504469D01*
X112268000Y-98375000D01*
X87045000Y-98375000D01*
X87045000Y-82797690D01*
X87547208Y-83300776D01*
X88423501Y-83664645D01*
X89372336Y-83665473D01*
X90249263Y-83303134D01*
X90920776Y-82632792D01*
X91284645Y-81756499D01*
X91285473Y-80807664D01*
X90923134Y-79930737D01*
X90252792Y-79259224D01*
X89376499Y-78895355D01*
X88427664Y-78894527D01*
X87550737Y-79256866D01*
X87045000Y-79761721D01*
X87045000Y-67548971D01*
X87059010Y-67564321D01*
X87588473Y-67812468D01*
X87820500Y-67691969D01*
X87820500Y-66484500D01*
X87800500Y-66484500D01*
X87800500Y-66230500D01*
X87820500Y-66230500D01*
X87820500Y-65151969D01*
X87820500Y-65023031D01*
X87820500Y-63944500D01*
X87800500Y-63944500D01*
X87800500Y-63690500D01*
X87820500Y-63690500D01*
X87820500Y-62611969D01*
X87820500Y-62483031D01*
X87820500Y-61404500D01*
X87800500Y-61404500D01*
X87800500Y-61150500D01*
X87820500Y-61150500D01*
X87820500Y-59943031D01*
X87588473Y-59822532D01*
X87059010Y-60070679D01*
X87045000Y-60086028D01*
X87045000Y-54857690D01*
X87547208Y-55360776D01*
X88423501Y-55724645D01*
X89372336Y-55725473D01*
X90249263Y-55363134D01*
X90920776Y-54692792D01*
X91284645Y-53816499D01*
X91285473Y-52867664D01*
X90923134Y-51990737D01*
X90252792Y-51319224D01*
X89376499Y-50955355D01*
X88427664Y-50954527D01*
X87550737Y-51316866D01*
X87045000Y-51821721D01*
X87045000Y-46405000D01*
X139452309Y-46405000D01*
X138949224Y-46907208D01*
X138585355Y-47783501D01*
X138584527Y-48732336D01*
X138946866Y-49609263D01*
X139617208Y-50280776D01*
X140493501Y-50644645D01*
X141442336Y-50645473D01*
X142319263Y-50283134D01*
X142990776Y-49612792D01*
X143354645Y-48736499D01*
X143355473Y-47787664D01*
X142993134Y-46910737D01*
X142488278Y-46405000D01*
X154255000Y-46405000D01*
X154255000Y-55006028D01*
X154240990Y-54990679D01*
X153711527Y-54742532D01*
X153479500Y-54863031D01*
X153479500Y-56070500D01*
X153499500Y-56070500D01*
X153499500Y-56324500D01*
X153479500Y-56324500D01*
X153479500Y-57403031D01*
X153479500Y-57531969D01*
X153479500Y-58610500D01*
X153499500Y-58610500D01*
X153499500Y-58864500D01*
X153479500Y-58864500D01*
X153479500Y-58884500D01*
X153225500Y-58884500D01*
X153225500Y-58864500D01*
X153205500Y-58864500D01*
X153205500Y-58610500D01*
X153225500Y-58610500D01*
X153225500Y-57531969D01*
X153225500Y-57403031D01*
X153225500Y-56324500D01*
X153205500Y-56324500D01*
X153205500Y-56070500D01*
X153225500Y-56070500D01*
X153225500Y-54863031D01*
X152993473Y-54742532D01*
X152464010Y-54990679D01*
X152293246Y-55177763D01*
X152276563Y-55091777D01*
X152136773Y-54878973D01*
X151925740Y-54736523D01*
X151676100Y-54686460D01*
X149948900Y-54686460D01*
X149706777Y-54733437D01*
X149493973Y-54873227D01*
X149351523Y-55084260D01*
X149301460Y-55333900D01*
X149301460Y-57061100D01*
X149348437Y-57303223D01*
X149488227Y-57516027D01*
X149699260Y-57658477D01*
X149740159Y-57666679D01*
X149723471Y-57677830D01*
X149398615Y-58164011D01*
X149284541Y-58737500D01*
X149398615Y-59310989D01*
X149723471Y-59797170D01*
X150038251Y-60007500D01*
X149723471Y-60217830D01*
X149398615Y-60704011D01*
X149324283Y-61077703D01*
X149094000Y-60847420D01*
X149094000Y-54000400D01*
X149026633Y-53661725D01*
X148834790Y-53374610D01*
X148834786Y-53374607D01*
X148670744Y-53210565D01*
X148621117Y-53090457D01*
X148358327Y-52827208D01*
X148014799Y-52684562D01*
X147642833Y-52684238D01*
X147299057Y-52826283D01*
X147131864Y-52993183D01*
X147110463Y-52882877D01*
X146970673Y-52670073D01*
X146961618Y-52663961D01*
X147686579Y-51939000D01*
X150228560Y-51939000D01*
X150228560Y-52070000D01*
X150275537Y-52312123D01*
X150415327Y-52524927D01*
X150626360Y-52667377D01*
X150876000Y-52717440D01*
X152908000Y-52717440D01*
X153150123Y-52670463D01*
X153362927Y-52530673D01*
X153505377Y-52319640D01*
X153555440Y-52070000D01*
X153555440Y-50038000D01*
X153508463Y-49795877D01*
X153368673Y-49583073D01*
X153208956Y-49475262D01*
X153298385Y-49378818D01*
X153497975Y-48896944D01*
X153497975Y-48131056D01*
X153298385Y-47649182D01*
X152860379Y-47176812D01*
X152274946Y-46908017D01*
X152019000Y-47026633D01*
X152019000Y-48387000D01*
X153378836Y-48387000D01*
X153497975Y-48131056D01*
X153497975Y-48896944D01*
X153378836Y-48641000D01*
X152019000Y-48641000D01*
X152019000Y-48661000D01*
X151765000Y-48661000D01*
X151765000Y-48641000D01*
X151765000Y-48387000D01*
X151765000Y-47026633D01*
X151509054Y-46908017D01*
X150923621Y-47176812D01*
X150485615Y-47649182D01*
X150286025Y-48131056D01*
X150405164Y-48387000D01*
X151765000Y-48387000D01*
X151765000Y-48641000D01*
X150405164Y-48641000D01*
X150286025Y-48896944D01*
X150485615Y-49378818D01*
X150575574Y-49475835D01*
X150421073Y-49577327D01*
X150278623Y-49788360D01*
X150228560Y-50038000D01*
X150228560Y-50169000D01*
X147320005Y-50169000D01*
X147320000Y-50168999D01*
X146981326Y-50236366D01*
X146886054Y-50300024D01*
X146694210Y-50428210D01*
X146694207Y-50428213D01*
X144884210Y-52238210D01*
X144724282Y-52477560D01*
X144510000Y-52477560D01*
X144267877Y-52524537D01*
X144055073Y-52664327D01*
X143912623Y-52875360D01*
X143862560Y-53125000D01*
X143862560Y-54825000D01*
X143909537Y-55067123D01*
X144028600Y-55248374D01*
X143971673Y-55305301D01*
X143875000Y-55538690D01*
X143875000Y-55791309D01*
X143875000Y-56229250D01*
X144033750Y-56388000D01*
X145383000Y-56388000D01*
X145383000Y-56368000D01*
X145637000Y-56368000D01*
X145637000Y-56388000D01*
X146986250Y-56388000D01*
X147145000Y-56229250D01*
X147145000Y-55791309D01*
X147145000Y-55538690D01*
X147048327Y-55305301D01*
X146990626Y-55247600D01*
X147107377Y-55074640D01*
X147157440Y-54825000D01*
X147157440Y-54271114D01*
X147297673Y-54411592D01*
X147324000Y-54422523D01*
X147324000Y-61213994D01*
X147323999Y-61214000D01*
X147380189Y-61496484D01*
X147391367Y-61552675D01*
X147583210Y-61839790D01*
X148278220Y-62534800D01*
X147145000Y-63668020D01*
X147145000Y-62521310D01*
X147145000Y-62268691D01*
X147145000Y-61880750D01*
X147145000Y-61309250D01*
X147145000Y-60921309D01*
X147145000Y-60668690D01*
X147048327Y-60435301D01*
X146963025Y-60350000D01*
X147048327Y-60264699D01*
X147145000Y-60031310D01*
X147145000Y-59778691D01*
X147145000Y-59340750D01*
X147145000Y-58769250D01*
X147145000Y-58331309D01*
X147145000Y-58078690D01*
X147048327Y-57845301D01*
X146988025Y-57785000D01*
X147048327Y-57724699D01*
X147145000Y-57491310D01*
X147145000Y-57238691D01*
X147145000Y-56800750D01*
X146986250Y-56642000D01*
X145637000Y-56642000D01*
X145637000Y-57728750D01*
X145637000Y-57841250D01*
X145637000Y-58928000D01*
X146986250Y-58928000D01*
X147145000Y-58769250D01*
X147145000Y-59340750D01*
X146986250Y-59182000D01*
X145637000Y-59182000D01*
X145637000Y-60318750D01*
X145637000Y-60381250D01*
X145637000Y-61468000D01*
X146986250Y-61468000D01*
X147145000Y-61309250D01*
X147145000Y-61880750D01*
X146986250Y-61722000D01*
X145637000Y-61722000D01*
X145637000Y-62871250D01*
X145795750Y-63030000D01*
X146636309Y-63030000D01*
X146869698Y-62933327D01*
X147048327Y-62754699D01*
X147145000Y-62521310D01*
X147145000Y-63668020D01*
X147023020Y-63790000D01*
X145383000Y-63790000D01*
X145383000Y-62871250D01*
X145383000Y-61722000D01*
X145383000Y-61468000D01*
X145383000Y-60381250D01*
X145383000Y-60318750D01*
X145383000Y-59182000D01*
X145383000Y-58928000D01*
X145383000Y-57841250D01*
X145383000Y-57728750D01*
X145383000Y-56642000D01*
X144033750Y-56642000D01*
X143875000Y-56800750D01*
X143875000Y-57238691D01*
X143875000Y-57491310D01*
X143971673Y-57724699D01*
X144031974Y-57785000D01*
X143971673Y-57845301D01*
X143875000Y-58078690D01*
X143875000Y-58331309D01*
X143875000Y-58769250D01*
X144033750Y-58928000D01*
X145383000Y-58928000D01*
X145383000Y-59182000D01*
X144033750Y-59182000D01*
X143875000Y-59340750D01*
X143875000Y-59778691D01*
X143875000Y-60031310D01*
X143971673Y-60264699D01*
X144056974Y-60350000D01*
X143971673Y-60435301D01*
X143875000Y-60668690D01*
X143875000Y-60921309D01*
X143875000Y-61309250D01*
X144033750Y-61468000D01*
X145383000Y-61468000D01*
X145383000Y-61722000D01*
X144033750Y-61722000D01*
X143875000Y-61880750D01*
X143875000Y-62268691D01*
X143875000Y-62521310D01*
X143971673Y-62754699D01*
X144150302Y-62933327D01*
X144383691Y-63030000D01*
X145224250Y-63030000D01*
X145383000Y-62871250D01*
X145383000Y-63790000D01*
X143102440Y-63790000D01*
X143102440Y-63675000D01*
X143055463Y-63432877D01*
X142915673Y-63220073D01*
X142704640Y-63077623D01*
X142519758Y-63040546D01*
X142752123Y-62995463D01*
X142964927Y-62855673D01*
X143107377Y-62644640D01*
X143157440Y-62395000D01*
X143157440Y-60795000D01*
X143110463Y-60552877D01*
X142976361Y-60348733D01*
X143107377Y-60154640D01*
X143157440Y-59905000D01*
X143157440Y-58205000D01*
X143110463Y-57962877D01*
X142993007Y-57784073D01*
X143107377Y-57614640D01*
X143157440Y-57365000D01*
X143157440Y-55665000D01*
X143110463Y-55422877D01*
X142993007Y-55244073D01*
X143107377Y-55074640D01*
X143157440Y-54825000D01*
X143157440Y-53125000D01*
X143110463Y-52882877D01*
X142970673Y-52670073D01*
X142759640Y-52527623D01*
X142510000Y-52477560D01*
X140510000Y-52477560D01*
X140267877Y-52524537D01*
X140055073Y-52664327D01*
X139912623Y-52875360D01*
X139862560Y-53125000D01*
X139862560Y-54825000D01*
X139909537Y-55067123D01*
X140026992Y-55245926D01*
X139912623Y-55415360D01*
X139862560Y-55665000D01*
X139862560Y-57365000D01*
X139909537Y-57607123D01*
X140026992Y-57785926D01*
X139912623Y-57955360D01*
X139862560Y-58205000D01*
X139862560Y-59905000D01*
X139909537Y-60147123D01*
X140043638Y-60351266D01*
X139912623Y-60545360D01*
X139879605Y-60710000D01*
X139065005Y-60710000D01*
X139065000Y-60709999D01*
X138782515Y-60766189D01*
X138726325Y-60777367D01*
X138439210Y-60969210D01*
X138439207Y-60969213D01*
X137550210Y-61858210D01*
X137358367Y-62145325D01*
X137347189Y-62201515D01*
X137290999Y-62484000D01*
X137291000Y-62484005D01*
X137291000Y-67225350D01*
X137114983Y-67259501D01*
X137114983Y-48896946D01*
X137114983Y-48131054D01*
X136846188Y-47545621D01*
X136373818Y-47107615D01*
X135891944Y-46908025D01*
X135636000Y-47027164D01*
X135636000Y-48387000D01*
X136996367Y-48387000D01*
X137114983Y-48131054D01*
X137114983Y-48896946D01*
X136996367Y-48641000D01*
X135636000Y-48641000D01*
X135636000Y-50000836D01*
X135891944Y-50119975D01*
X136373818Y-49920385D01*
X136846188Y-49482379D01*
X137114983Y-48896946D01*
X137114983Y-67259501D01*
X137083877Y-67265537D01*
X136871073Y-67405327D01*
X136728623Y-67616360D01*
X136678560Y-67866000D01*
X136678560Y-67981000D01*
X135823337Y-67981000D01*
X135870785Y-67866734D01*
X135871214Y-67375421D01*
X135683592Y-66921343D01*
X135336485Y-66573629D01*
X134882734Y-66385215D01*
X134391421Y-66384786D01*
X134065170Y-66519590D01*
X133727000Y-66181420D01*
X133727000Y-65917491D01*
X133935515Y-66126371D01*
X134389266Y-66314785D01*
X134880579Y-66315214D01*
X135334657Y-66127592D01*
X135682371Y-65780485D01*
X135870785Y-65326734D01*
X135871214Y-64835421D01*
X135683592Y-64381343D01*
X135336485Y-64033629D01*
X134882734Y-63845215D01*
X134391421Y-63844786D01*
X133937343Y-64032408D01*
X133727000Y-64242383D01*
X133727000Y-63377491D01*
X133935515Y-63586371D01*
X134389266Y-63774785D01*
X134880579Y-63775214D01*
X135334657Y-63587592D01*
X135682371Y-63240485D01*
X135870785Y-62786734D01*
X135871214Y-62295421D01*
X135683592Y-61841343D01*
X135336485Y-61493629D01*
X134882734Y-61305215D01*
X134391421Y-61304786D01*
X133937343Y-61492408D01*
X133727000Y-61702383D01*
X133727000Y-60837491D01*
X133935515Y-61046371D01*
X134389266Y-61234785D01*
X134880579Y-61235214D01*
X135334657Y-61047592D01*
X135682371Y-60700485D01*
X135870785Y-60246734D01*
X135871214Y-59755421D01*
X135683592Y-59301343D01*
X135336485Y-58953629D01*
X134882734Y-58765215D01*
X134391421Y-58764786D01*
X133937343Y-58952408D01*
X133727000Y-59162383D01*
X133727000Y-58297491D01*
X133935515Y-58506371D01*
X134389266Y-58694785D01*
X134880579Y-58695214D01*
X135334657Y-58507592D01*
X135682371Y-58160485D01*
X135870785Y-57706734D01*
X135871214Y-57215421D01*
X135683592Y-56761343D01*
X135336485Y-56413629D01*
X134882734Y-56225215D01*
X134391421Y-56224786D01*
X133937343Y-56412408D01*
X133727000Y-56622383D01*
X133727000Y-55757491D01*
X133935515Y-55966371D01*
X134389266Y-56154785D01*
X134880579Y-56155214D01*
X135334657Y-55967592D01*
X135682371Y-55620485D01*
X135870785Y-55166734D01*
X135871214Y-54675421D01*
X135683592Y-54221343D01*
X135382000Y-53919223D01*
X135382000Y-50000836D01*
X135382000Y-48641000D01*
X135362000Y-48641000D01*
X135362000Y-48387000D01*
X135382000Y-48387000D01*
X135382000Y-47027164D01*
X135126056Y-46908025D01*
X134644182Y-47107615D01*
X134547164Y-47197574D01*
X134445673Y-47043073D01*
X134234640Y-46900623D01*
X133985000Y-46850560D01*
X131953000Y-46850560D01*
X131710877Y-46897537D01*
X131498073Y-47037327D01*
X131355623Y-47248360D01*
X131305560Y-47498000D01*
X131305560Y-49530000D01*
X131352537Y-49772123D01*
X131492327Y-49984927D01*
X131703360Y-50127377D01*
X131953000Y-50177440D01*
X133985000Y-50177440D01*
X134227123Y-50130463D01*
X134439927Y-49990673D01*
X134547737Y-49830956D01*
X134644182Y-49920385D01*
X135126056Y-50119975D01*
X135382000Y-50000836D01*
X135382000Y-53919223D01*
X135336485Y-53873629D01*
X134882734Y-53685215D01*
X134391421Y-53684786D01*
X133937343Y-53872408D01*
X133727000Y-54082383D01*
X133727000Y-51816000D01*
X133659633Y-51477325D01*
X133467790Y-51190210D01*
X133180675Y-50998367D01*
X132842000Y-50931000D01*
X123810579Y-50931000D01*
X120894790Y-48015210D01*
X120607675Y-47823367D01*
X120551484Y-47812189D01*
X120269000Y-47755999D01*
X120268994Y-47756000D01*
X115919005Y-47756000D01*
X115919000Y-47755999D01*
X115636515Y-47812189D01*
X115580325Y-47823367D01*
X115293210Y-48015210D01*
X115293207Y-48015213D01*
X113033664Y-50274755D01*
X112913557Y-50324383D01*
X112650308Y-50587173D01*
X112507662Y-50930701D01*
X112507338Y-51302667D01*
X112649383Y-51646443D01*
X112912173Y-51909692D01*
X113255701Y-52052338D01*
X113627667Y-52052662D01*
X113971443Y-51910617D01*
X114234692Y-51647827D01*
X114285065Y-51526514D01*
X116285579Y-49526000D01*
X119902420Y-49526000D01*
X122818207Y-52441786D01*
X122818210Y-52441790D01*
X123105325Y-52633633D01*
X123105326Y-52633633D01*
X123161515Y-52644810D01*
X123444000Y-52701001D01*
X123444000Y-52701000D01*
X123444005Y-52701000D01*
X131957000Y-52701000D01*
X131957000Y-66547994D01*
X131956999Y-66548000D01*
X132013189Y-66830484D01*
X132024367Y-66886675D01*
X132216210Y-67173790D01*
X133023420Y-67981000D01*
X131491162Y-67981000D01*
X131491162Y-60266833D01*
X131441000Y-60145431D01*
X131441000Y-55626005D01*
X131441000Y-55626000D01*
X131441001Y-55626000D01*
X131384810Y-55343515D01*
X131373633Y-55287326D01*
X131373633Y-55287325D01*
X131181790Y-55000211D01*
X131181790Y-55000210D01*
X131181786Y-55000207D01*
X129403790Y-53222210D01*
X129116675Y-53030367D01*
X129060484Y-53019189D01*
X128778000Y-52962999D01*
X128777994Y-52963000D01*
X123302579Y-52963000D01*
X120640790Y-50301210D01*
X120353675Y-50109367D01*
X120297484Y-50098189D01*
X120015000Y-50041999D01*
X120014994Y-50042000D01*
X117654821Y-50042000D01*
X117534799Y-49992162D01*
X117162833Y-49991838D01*
X116819057Y-50133883D01*
X116555808Y-50396673D01*
X116413162Y-50740201D01*
X116412838Y-51112167D01*
X116554883Y-51455943D01*
X116817673Y-51719192D01*
X117161201Y-51861838D01*
X117533167Y-51862162D01*
X117654568Y-51812000D01*
X119648420Y-51812000D01*
X122310207Y-54473786D01*
X122310210Y-54473790D01*
X122310211Y-54473790D01*
X122597325Y-54665633D01*
X122597326Y-54665633D01*
X122653515Y-54676810D01*
X122936000Y-54733001D01*
X122936000Y-54733000D01*
X122936005Y-54733000D01*
X128411420Y-54733000D01*
X129671000Y-55992579D01*
X129671000Y-60145178D01*
X129621162Y-60265201D01*
X129620838Y-60637167D01*
X129762883Y-60980943D01*
X130025673Y-61244192D01*
X130369201Y-61386838D01*
X130741167Y-61387162D01*
X131084943Y-61245117D01*
X131348192Y-60982327D01*
X131490838Y-60638799D01*
X131491162Y-60266833D01*
X131491162Y-67981000D01*
X130475162Y-67981000D01*
X130475162Y-62298833D01*
X130333117Y-61955057D01*
X130070327Y-61691808D01*
X129726799Y-61549162D01*
X129354833Y-61548838D01*
X129097900Y-61655000D01*
X120379214Y-61655000D01*
X120379214Y-59755421D01*
X120379214Y-57215421D01*
X120379214Y-54675421D01*
X120191592Y-54221343D01*
X119844485Y-53873629D01*
X119390734Y-53685215D01*
X118899421Y-53684786D01*
X118445343Y-53872408D01*
X118282466Y-54035000D01*
X116657000Y-54035000D01*
X116492996Y-54067622D01*
X116328557Y-54098204D01*
X116323842Y-54101269D01*
X116318325Y-54102367D01*
X116179216Y-54195315D01*
X116039070Y-54286449D01*
X111106509Y-59097394D01*
X110977057Y-59150883D01*
X110713808Y-59413673D01*
X110571162Y-59757201D01*
X110570838Y-60129167D01*
X110712883Y-60472943D01*
X110975673Y-60736192D01*
X111319201Y-60878838D01*
X111691167Y-60879162D01*
X112034943Y-60737117D01*
X112298192Y-60474327D01*
X112344768Y-60362157D01*
X117017125Y-55805000D01*
X118282425Y-55805000D01*
X118443515Y-55966371D01*
X118897266Y-56154785D01*
X119388579Y-56155214D01*
X119842657Y-55967592D01*
X120190371Y-55620485D01*
X120378785Y-55166734D01*
X120379214Y-54675421D01*
X120379214Y-57215421D01*
X120191592Y-56761343D01*
X119844485Y-56413629D01*
X119390734Y-56225215D01*
X118899421Y-56224786D01*
X118445343Y-56412408D01*
X118097629Y-56759515D01*
X117909215Y-57213266D01*
X117908786Y-57704579D01*
X118096408Y-58158657D01*
X118443515Y-58506371D01*
X118897266Y-58694785D01*
X119388579Y-58695214D01*
X119842657Y-58507592D01*
X120190371Y-58160485D01*
X120378785Y-57706734D01*
X120379214Y-57215421D01*
X120379214Y-59755421D01*
X120191592Y-59301343D01*
X119844485Y-58953629D01*
X119390734Y-58765215D01*
X118899421Y-58764786D01*
X118445343Y-58952408D01*
X118097629Y-59299515D01*
X117909215Y-59753266D01*
X117908786Y-60244579D01*
X118096408Y-60698657D01*
X118443515Y-61046371D01*
X118897266Y-61234785D01*
X119388579Y-61235214D01*
X119842657Y-61047592D01*
X120190371Y-60700485D01*
X120378785Y-60246734D01*
X120379214Y-59755421D01*
X120379214Y-61655000D01*
X120005574Y-61655000D01*
X119844485Y-61493629D01*
X119390734Y-61305215D01*
X118899421Y-61304786D01*
X118445343Y-61492408D01*
X118097629Y-61839515D01*
X117909215Y-62293266D01*
X117908786Y-62784579D01*
X118096408Y-63238657D01*
X118443515Y-63586371D01*
X118897266Y-63774785D01*
X119388579Y-63775214D01*
X119842657Y-63587592D01*
X120005533Y-63425000D01*
X129483994Y-63425000D01*
X129484000Y-63425001D01*
X129484000Y-63425000D01*
X129514277Y-63418978D01*
X129725167Y-63419162D01*
X130068943Y-63277117D01*
X130332192Y-63014327D01*
X130474838Y-62670799D01*
X130475162Y-62298833D01*
X130475162Y-67981000D01*
X130446579Y-67981000D01*
X128443790Y-65978210D01*
X128156675Y-65786367D01*
X128100484Y-65775189D01*
X128082522Y-65771617D01*
X128300192Y-65554327D01*
X128442838Y-65210799D01*
X128443162Y-64838833D01*
X128301117Y-64495057D01*
X128038327Y-64231808D01*
X127694799Y-64089162D01*
X127322833Y-64088838D01*
X127201431Y-64139000D01*
X120142005Y-64139000D01*
X120142000Y-64138999D01*
X119981534Y-64170918D01*
X119844485Y-64033629D01*
X119390734Y-63845215D01*
X118899421Y-63844786D01*
X118445343Y-64032408D01*
X118097629Y-64379515D01*
X117909215Y-64833266D01*
X117908786Y-65324579D01*
X118096408Y-65778657D01*
X118443515Y-66126371D01*
X118897266Y-66314785D01*
X119197373Y-66315047D01*
X119127435Y-66384985D01*
X118899421Y-66384786D01*
X118445343Y-66572408D01*
X118097629Y-66919515D01*
X117909215Y-67373266D01*
X117908786Y-67864579D01*
X117943668Y-67949000D01*
X117076780Y-67949000D01*
X107890459Y-58861456D01*
X107890459Y-53657500D01*
X107776385Y-53084011D01*
X107451529Y-52597830D01*
X107136748Y-52387500D01*
X107451529Y-52177170D01*
X107776385Y-51690989D01*
X107890459Y-51117500D01*
X107776385Y-50544011D01*
X107451529Y-50057830D01*
X107136748Y-49847500D01*
X107451529Y-49637170D01*
X107776385Y-49150989D01*
X107890459Y-48577500D01*
X107776385Y-48004011D01*
X107451529Y-47517830D01*
X106965348Y-47192974D01*
X106391859Y-47078900D01*
X106333141Y-47078900D01*
X105759652Y-47192974D01*
X105288143Y-47508026D01*
X105224427Y-47354201D01*
X105045798Y-47175573D01*
X104812409Y-47078900D01*
X104108250Y-47078900D01*
X103949500Y-47237650D01*
X103949500Y-48450500D01*
X103969500Y-48450500D01*
X103969500Y-48704500D01*
X103949500Y-48704500D01*
X103949500Y-48724500D01*
X103695500Y-48724500D01*
X103695500Y-48704500D01*
X103695500Y-48450500D01*
X103695500Y-47237650D01*
X103536750Y-47078900D01*
X102832591Y-47078900D01*
X102599202Y-47175573D01*
X102420573Y-47354201D01*
X102323900Y-47587590D01*
X102323900Y-47840209D01*
X102323900Y-48291750D01*
X102482650Y-48450500D01*
X103695500Y-48450500D01*
X103695500Y-48704500D01*
X102482650Y-48704500D01*
X102323900Y-48863250D01*
X102323900Y-49314791D01*
X102323900Y-49567410D01*
X102420573Y-49800799D01*
X102599202Y-49979427D01*
X102754523Y-50043763D01*
X102733471Y-50057830D01*
X102408615Y-50544011D01*
X102294541Y-51117500D01*
X102408615Y-51690989D01*
X102733471Y-52177170D01*
X103056728Y-52393163D01*
X102934010Y-52450679D01*
X102539812Y-52882553D01*
X102367542Y-53298474D01*
X102488683Y-53530500D01*
X103695500Y-53530500D01*
X103695500Y-53510500D01*
X103949500Y-53510500D01*
X103949500Y-53530500D01*
X103969500Y-53530500D01*
X103969500Y-53784500D01*
X103949500Y-53784500D01*
X103949500Y-54991969D01*
X104181527Y-55112468D01*
X104710990Y-54864321D01*
X105092507Y-54446339D01*
X105273471Y-54717170D01*
X105759652Y-55042026D01*
X106333141Y-55156100D01*
X106391859Y-55156100D01*
X106965348Y-55042026D01*
X107451529Y-54717170D01*
X107776385Y-54230989D01*
X107890459Y-53657500D01*
X107890459Y-58861456D01*
X105524398Y-56520837D01*
X105382321Y-56427011D01*
X105240675Y-56332367D01*
X105238284Y-56331891D01*
X105236250Y-56330548D01*
X105068942Y-56298207D01*
X104902000Y-56265000D01*
X103695500Y-56265000D01*
X103695500Y-54991969D01*
X103695500Y-53784500D01*
X102488683Y-53784500D01*
X102367542Y-54016526D01*
X102539812Y-54432447D01*
X102934010Y-54864321D01*
X103463473Y-55112468D01*
X103695500Y-54991969D01*
X103695500Y-56265000D01*
X101204579Y-56265000D01*
X99013744Y-54074164D01*
X98964117Y-53954057D01*
X98701327Y-53690808D01*
X98357799Y-53548162D01*
X97985833Y-53547838D01*
X97642057Y-53689883D01*
X97378808Y-53952673D01*
X97236162Y-54296201D01*
X97235838Y-54668167D01*
X97377883Y-55011943D01*
X97640673Y-55275192D01*
X97761985Y-55325565D01*
X100212207Y-57775786D01*
X100212210Y-57775790D01*
X100212211Y-57775790D01*
X100404054Y-57903975D01*
X100499325Y-57967633D01*
X100499326Y-57967634D01*
X100838000Y-58035001D01*
X100838000Y-58035000D01*
X100838005Y-58035000D01*
X104538219Y-58035000D01*
X116090603Y-69463163D01*
X116232635Y-69556959D01*
X116374325Y-69651633D01*
X116376715Y-69652108D01*
X116378750Y-69653452D01*
X116546057Y-69685792D01*
X116713000Y-69719000D01*
X117989881Y-69719000D01*
X117909215Y-69913266D01*
X117908786Y-70404579D01*
X117943668Y-70489000D01*
X116698579Y-70489000D01*
X105490744Y-59281164D01*
X105441117Y-59161057D01*
X105178327Y-58897808D01*
X104834799Y-58755162D01*
X104462833Y-58754838D01*
X104119057Y-58896883D01*
X103855808Y-59159673D01*
X103713162Y-59503201D01*
X103712838Y-59875167D01*
X103854883Y-60218943D01*
X104117673Y-60482192D01*
X104238985Y-60532565D01*
X115706207Y-71999786D01*
X115706210Y-71999790D01*
X115993325Y-72191633D01*
X116332000Y-72259001D01*
X116332000Y-72259000D01*
X116332005Y-72259000D01*
X117989881Y-72259000D01*
X117909215Y-72453266D01*
X117908786Y-72944579D01*
X118096408Y-73398657D01*
X118443515Y-73746371D01*
X118897266Y-73934785D01*
X119388579Y-73935214D01*
X119842657Y-73747592D01*
X120190371Y-73400485D01*
X120378785Y-72946734D01*
X120379214Y-72455421D01*
X120298054Y-72259000D01*
X120537420Y-72259000D01*
X121604207Y-73325786D01*
X121604210Y-73325790D01*
X121891325Y-73517633D01*
X122230000Y-73585001D01*
X122230000Y-73585000D01*
X122230005Y-73585000D01*
X133774425Y-73585000D01*
X133935515Y-73746371D01*
X134389266Y-73934785D01*
X134880579Y-73935214D01*
X135334657Y-73747592D01*
X135682371Y-73400485D01*
X135870785Y-72946734D01*
X135871214Y-72455421D01*
X135683592Y-72001343D01*
X135336485Y-71653629D01*
X134882734Y-71465215D01*
X134391421Y-71464786D01*
X133937343Y-71652408D01*
X133774466Y-71815000D01*
X122596579Y-71815000D01*
X121529790Y-70748210D01*
X121242675Y-70556367D01*
X121186484Y-70545189D01*
X120904000Y-70488999D01*
X120903994Y-70489000D01*
X120344625Y-70489000D01*
X120378785Y-70406734D01*
X120379214Y-69915421D01*
X120298054Y-69719000D01*
X120918420Y-69719000D01*
X121985207Y-70785786D01*
X121985210Y-70785790D01*
X122272325Y-70977633D01*
X122611000Y-71045001D01*
X122611000Y-71045000D01*
X122611005Y-71045000D01*
X129215000Y-71045000D01*
X133774425Y-71045000D01*
X133935515Y-71206371D01*
X134389266Y-71394785D01*
X134880579Y-71395214D01*
X135334657Y-71207592D01*
X135682371Y-70860485D01*
X135870785Y-70406734D01*
X135871214Y-69915421D01*
X135803276Y-69751000D01*
X136678560Y-69751000D01*
X136678560Y-69866000D01*
X136725537Y-70108123D01*
X136865327Y-70320927D01*
X137076360Y-70463377D01*
X137326000Y-70513440D01*
X139026000Y-70513440D01*
X139268123Y-70466463D01*
X139480927Y-70326673D01*
X139623377Y-70115640D01*
X139673440Y-69866000D01*
X139673440Y-67866000D01*
X139626463Y-67623877D01*
X139486673Y-67411073D01*
X139275640Y-67268623D01*
X139061000Y-67225578D01*
X139061000Y-62850579D01*
X139431579Y-62480000D01*
X139879051Y-62480000D01*
X139909537Y-62637123D01*
X140049327Y-62849927D01*
X140260360Y-62992377D01*
X140510000Y-63042440D01*
X140678307Y-63042440D01*
X140512877Y-63074537D01*
X140300073Y-63214327D01*
X140157623Y-63425360D01*
X140107560Y-63675000D01*
X140107560Y-65675000D01*
X140154537Y-65917123D01*
X140294327Y-66129927D01*
X140505360Y-66272377D01*
X140755000Y-66322440D01*
X142455000Y-66322440D01*
X142697123Y-66275463D01*
X142909927Y-66135673D01*
X143052377Y-65924640D01*
X143102440Y-65675000D01*
X143102440Y-65560000D01*
X147389594Y-65560000D01*
X147389600Y-65560001D01*
X147389600Y-65560000D01*
X147672084Y-65503810D01*
X147728274Y-65492633D01*
X147728275Y-65492633D01*
X148015390Y-65300790D01*
X149320068Y-63996110D01*
X149398615Y-64390989D01*
X149723471Y-64877170D01*
X150038251Y-65087500D01*
X149723471Y-65297830D01*
X149398615Y-65784011D01*
X149284541Y-66357500D01*
X149398615Y-66930989D01*
X149723471Y-67417170D01*
X150209652Y-67742026D01*
X150783141Y-67856100D01*
X150841859Y-67856100D01*
X151415348Y-67742026D01*
X151901529Y-67417170D01*
X152082492Y-67146339D01*
X152464010Y-67564321D01*
X152993473Y-67812468D01*
X153225500Y-67691969D01*
X153225500Y-66484500D01*
X153205500Y-66484500D01*
X153205500Y-66230500D01*
X153225500Y-66230500D01*
X153225500Y-65151969D01*
X153225500Y-65023031D01*
X153225500Y-63944500D01*
X153205500Y-63944500D01*
X153205500Y-63690500D01*
X153225500Y-63690500D01*
X153225500Y-63670500D01*
X153479500Y-63670500D01*
X153479500Y-63690500D01*
X153499500Y-63690500D01*
X153499500Y-63944500D01*
X153479500Y-63944500D01*
X153479500Y-65023031D01*
X153479500Y-65151969D01*
X153479500Y-66230500D01*
X153499500Y-66230500D01*
X153499500Y-66484500D01*
X153479500Y-66484500D01*
X153479500Y-67691969D01*
X153711527Y-67812468D01*
X154240990Y-67564321D01*
X154255000Y-67548971D01*
X154255000Y-69472001D01*
X154178000Y-69456560D01*
X152146000Y-69456560D01*
X151903877Y-69503537D01*
X151901649Y-69505000D01*
X151865440Y-69505000D01*
X151865440Y-69390000D01*
X151818463Y-69147877D01*
X151678673Y-68935073D01*
X151467640Y-68792623D01*
X151218000Y-68742560D01*
X149518000Y-68742560D01*
X149275877Y-68789537D01*
X149063073Y-68929327D01*
X148920623Y-69140360D01*
X148870560Y-69390000D01*
X148870560Y-69505000D01*
X148812005Y-69505000D01*
X148812000Y-69504999D01*
X148529515Y-69561189D01*
X148473325Y-69572367D01*
X148186210Y-69764210D01*
X148186207Y-69764213D01*
X147511150Y-70439270D01*
X147395690Y-70361333D01*
X147146050Y-70311270D01*
X146517958Y-70311270D01*
X146555748Y-70295617D01*
X146734377Y-70116989D01*
X146831050Y-69883600D01*
X146831050Y-69630981D01*
X146831050Y-69142610D01*
X146831050Y-68571110D01*
X146831050Y-68082739D01*
X146831050Y-67830120D01*
X146734377Y-67596731D01*
X146555748Y-67418103D01*
X146322359Y-67321430D01*
X146081750Y-67321430D01*
X145923000Y-67480180D01*
X145923000Y-68729860D01*
X146672300Y-68729860D01*
X146831050Y-68571110D01*
X146831050Y-69142610D01*
X146672300Y-68983860D01*
X145923000Y-68983860D01*
X145923000Y-70233540D01*
X146069956Y-70380496D01*
X145891023Y-70498037D01*
X145795706Y-70639243D01*
X145706723Y-70503783D01*
X145522864Y-70379675D01*
X145669000Y-70233540D01*
X145669000Y-68983860D01*
X145669000Y-68729860D01*
X145669000Y-67480180D01*
X145510250Y-67321430D01*
X145269641Y-67321430D01*
X145036252Y-67418103D01*
X144857623Y-67596731D01*
X144760950Y-67830120D01*
X144760950Y-68082739D01*
X144760950Y-68571110D01*
X144919700Y-68729860D01*
X145669000Y-68729860D01*
X145669000Y-68983860D01*
X144919700Y-68983860D01*
X144760950Y-69142610D01*
X144760950Y-69630981D01*
X144760950Y-69883600D01*
X144857623Y-70116989D01*
X145036252Y-70295617D01*
X145074041Y-70311270D01*
X144445950Y-70311270D01*
X144203827Y-70358247D01*
X143991023Y-70498037D01*
X143848573Y-70709070D01*
X143798510Y-70958710D01*
X143798510Y-70974140D01*
X143345719Y-70974140D01*
X142655180Y-70283600D01*
X142697123Y-70275463D01*
X142909927Y-70135673D01*
X143052377Y-69924640D01*
X143102440Y-69675000D01*
X143102440Y-67675000D01*
X143055463Y-67432877D01*
X142915673Y-67220073D01*
X142704640Y-67077623D01*
X142455000Y-67027560D01*
X140755000Y-67027560D01*
X140512877Y-67074537D01*
X140300073Y-67214327D01*
X140157623Y-67425360D01*
X140107560Y-67675000D01*
X140107560Y-69675000D01*
X140154537Y-69917123D01*
X140294327Y-70129927D01*
X140505360Y-70272377D01*
X140720000Y-70315421D01*
X140720000Y-70484994D01*
X140719999Y-70485000D01*
X140776189Y-70767484D01*
X140787367Y-70823675D01*
X140979210Y-71110790D01*
X142353347Y-72484926D01*
X142353350Y-72484930D01*
X142640465Y-72676773D01*
X142979140Y-72744140D01*
X143798510Y-72744140D01*
X143798510Y-72759570D01*
X143845487Y-73001693D01*
X143985277Y-73214497D01*
X144196310Y-73356947D01*
X144445950Y-73407010D01*
X145246050Y-73407010D01*
X145488173Y-73360033D01*
X145700977Y-73220243D01*
X145796293Y-73079036D01*
X145885277Y-73214497D01*
X146096310Y-73356947D01*
X146345950Y-73407010D01*
X147146050Y-73407010D01*
X147388173Y-73360033D01*
X147600977Y-73220243D01*
X147743427Y-73009210D01*
X147793490Y-72759570D01*
X147793490Y-72601967D01*
X147968650Y-72484930D01*
X148901924Y-71551654D01*
X148917537Y-71632123D01*
X149057327Y-71844927D01*
X149268360Y-71987377D01*
X149518000Y-72037440D01*
X151218000Y-72037440D01*
X151460123Y-71990463D01*
X151498560Y-71965213D01*
X151498560Y-72136000D01*
X151545537Y-72378123D01*
X151685327Y-72590927D01*
X151845043Y-72698737D01*
X151755615Y-72795182D01*
X151686960Y-72960935D01*
X151577699Y-72851673D01*
X151344310Y-72755000D01*
X151091691Y-72755000D01*
X150653750Y-72755000D01*
X150495000Y-72913750D01*
X150495000Y-74263000D01*
X150515000Y-74263000D01*
X150515000Y-74517000D01*
X150495000Y-74517000D01*
X150495000Y-75866250D01*
X150653750Y-76025000D01*
X151091691Y-76025000D01*
X151344310Y-76025000D01*
X151577699Y-75928327D01*
X151756327Y-75749698D01*
X151853000Y-75516309D01*
X151853000Y-74675750D01*
X151694252Y-74517002D01*
X151752377Y-74517002D01*
X151755615Y-74524818D01*
X152193621Y-74997188D01*
X152779054Y-75265983D01*
X153035000Y-75147367D01*
X153035000Y-73787000D01*
X153015000Y-73787000D01*
X153015000Y-73533000D01*
X153035000Y-73533000D01*
X153035000Y-73513000D01*
X153289000Y-73513000D01*
X153289000Y-73533000D01*
X153309000Y-73533000D01*
X153309000Y-73787000D01*
X153289000Y-73787000D01*
X153289000Y-75147367D01*
X153544946Y-75265983D01*
X154130379Y-74997188D01*
X154255000Y-74862789D01*
X154255000Y-81071373D01*
X153923490Y-80708179D01*
X153394027Y-80460032D01*
X153162000Y-80580531D01*
X153162000Y-81788000D01*
X153182000Y-81788000D01*
X153182000Y-82042000D01*
X153162000Y-82042000D01*
X153162000Y-83120531D01*
X153162000Y-83249469D01*
X153162000Y-84328000D01*
X153182000Y-84328000D01*
X153182000Y-84582000D01*
X153162000Y-84582000D01*
X153162000Y-85789469D01*
X153394027Y-85909968D01*
X153923490Y-85661821D01*
X154255000Y-85298626D01*
X154255000Y-98375000D01*
X154255000Y-98375000D01*
G37*
X154255000Y-98375000D02*
X152908000Y-98375000D01*
X152908000Y-85789469D01*
X152908000Y-84582000D01*
X152888000Y-84582000D01*
X152888000Y-84328000D01*
X152908000Y-84328000D01*
X152908000Y-83249469D01*
X152908000Y-83120531D01*
X152908000Y-82042000D01*
X152888000Y-82042000D01*
X152888000Y-81788000D01*
X152908000Y-81788000D01*
X152908000Y-80580531D01*
X152675973Y-80460032D01*
X152146510Y-80708179D01*
X151975746Y-80895263D01*
X151959063Y-80809277D01*
X151853000Y-80647816D01*
X151819273Y-80596473D01*
X151608240Y-80454023D01*
X151358600Y-80403960D01*
X150241000Y-80403960D01*
X150241000Y-75866250D01*
X150241000Y-74517000D01*
X150241000Y-74263000D01*
X150241000Y-72913750D01*
X150082250Y-72755000D01*
X149644309Y-72755000D01*
X149391690Y-72755000D01*
X149158301Y-72851673D01*
X148979673Y-73030302D01*
X148883000Y-73263691D01*
X148883000Y-74104250D01*
X149041750Y-74263000D01*
X150241000Y-74263000D01*
X150241000Y-74517000D01*
X149041750Y-74517000D01*
X148883000Y-74675750D01*
X148883000Y-75516309D01*
X148979673Y-75749698D01*
X149158301Y-75928327D01*
X149391690Y-76025000D01*
X149644309Y-76025000D01*
X150082250Y-76025000D01*
X150241000Y-75866250D01*
X150241000Y-80403960D01*
X149631400Y-80403960D01*
X149389277Y-80450937D01*
X149176473Y-80590727D01*
X149034023Y-80801760D01*
X148983960Y-81051400D01*
X148983960Y-82778600D01*
X149030937Y-83020723D01*
X149170727Y-83233527D01*
X149381760Y-83375977D01*
X149422659Y-83384179D01*
X149405971Y-83395330D01*
X149081115Y-83881511D01*
X148967041Y-84455000D01*
X149081115Y-85028489D01*
X149405971Y-85514670D01*
X149892152Y-85839526D01*
X150465641Y-85953600D01*
X150524359Y-85953600D01*
X151097848Y-85839526D01*
X151584029Y-85514670D01*
X151764992Y-85243839D01*
X152146510Y-85661821D01*
X152675973Y-85909968D01*
X152908000Y-85789469D01*
X152908000Y-98375000D01*
X141217690Y-98375000D01*
X141720776Y-97872792D01*
X142084645Y-96996499D01*
X142085473Y-96047664D01*
X141723134Y-95170737D01*
X141052792Y-94499224D01*
X140176499Y-94135355D01*
X139673440Y-94134916D01*
X139673440Y-73866000D01*
X139673440Y-71866000D01*
X139626463Y-71623877D01*
X139486673Y-71411073D01*
X139275640Y-71268623D01*
X139026000Y-71218560D01*
X137326000Y-71218560D01*
X137083877Y-71265537D01*
X136871073Y-71405327D01*
X136728623Y-71616360D01*
X136678560Y-71866000D01*
X136678560Y-73866000D01*
X136725537Y-74108123D01*
X136865327Y-74320927D01*
X137076360Y-74463377D01*
X137291000Y-74506421D01*
X137291000Y-79247994D01*
X137290999Y-79248000D01*
X137291000Y-79248005D01*
X137291000Y-81929420D01*
X136031420Y-83189000D01*
X135828822Y-83189000D01*
X135883807Y-83028964D01*
X135871214Y-82825326D01*
X135871214Y-80075421D01*
X135871214Y-77535421D01*
X135871214Y-74995421D01*
X135683592Y-74541343D01*
X135336485Y-74193629D01*
X134882734Y-74005215D01*
X134391421Y-74004786D01*
X133937343Y-74192408D01*
X133589629Y-74539515D01*
X133401215Y-74993266D01*
X133400786Y-75484579D01*
X133588408Y-75938657D01*
X133935515Y-76286371D01*
X134389266Y-76474785D01*
X134880579Y-76475214D01*
X135334657Y-76287592D01*
X135682371Y-75940485D01*
X135870785Y-75486734D01*
X135871214Y-74995421D01*
X135871214Y-77535421D01*
X135683592Y-77081343D01*
X135336485Y-76733629D01*
X134882734Y-76545215D01*
X134391421Y-76544786D01*
X133937343Y-76732408D01*
X133589629Y-77079515D01*
X133401215Y-77533266D01*
X133400786Y-78024579D01*
X133588408Y-78478657D01*
X133935515Y-78826371D01*
X134389266Y-79014785D01*
X134880579Y-79015214D01*
X135334657Y-78827592D01*
X135682371Y-78480485D01*
X135870785Y-78026734D01*
X135871214Y-77535421D01*
X135871214Y-80075421D01*
X135683592Y-79621343D01*
X135336485Y-79273629D01*
X134882734Y-79085215D01*
X134391421Y-79084786D01*
X133937343Y-79272408D01*
X133739623Y-79469782D01*
X133219292Y-79490375D01*
X132457000Y-78651853D01*
X132457000Y-75744821D01*
X132506838Y-75624799D01*
X132507162Y-75252833D01*
X132365117Y-74909057D01*
X132102327Y-74645808D01*
X131758799Y-74503162D01*
X131386833Y-74502838D01*
X131043057Y-74644883D01*
X130779808Y-74907673D01*
X130637162Y-75251201D01*
X130636838Y-75623167D01*
X130687000Y-75744568D01*
X130687000Y-78994000D01*
X130716652Y-79143071D01*
X130739183Y-79293400D01*
X130750197Y-79311714D01*
X130754367Y-79332675D01*
X130838818Y-79459066D01*
X130917153Y-79589315D01*
X132187153Y-80986316D01*
X132218513Y-81009501D01*
X132241447Y-81041048D01*
X132356414Y-81111454D01*
X132464818Y-81191599D01*
X132502666Y-81201019D01*
X132535924Y-81221386D01*
X132669073Y-81242436D01*
X132799905Y-81274999D01*
X132838476Y-81269218D01*
X132876998Y-81275308D01*
X133807836Y-81238468D01*
X133935515Y-81366371D01*
X134389266Y-81554785D01*
X134880579Y-81555214D01*
X135334657Y-81367592D01*
X135682371Y-81020485D01*
X135870785Y-80566734D01*
X135871214Y-80075421D01*
X135871214Y-82825326D01*
X135853482Y-82538587D01*
X135724164Y-82226383D01*
X135498735Y-82176870D01*
X135319130Y-82356475D01*
X135319130Y-81997265D01*
X135269617Y-81771836D01*
X134804964Y-81612193D01*
X134314587Y-81642518D01*
X134002383Y-81771836D01*
X133952870Y-81997265D01*
X134636000Y-82680395D01*
X135319130Y-81997265D01*
X135319130Y-82356475D01*
X134815605Y-82860000D01*
X134829747Y-82874142D01*
X134650142Y-83053747D01*
X134636000Y-83039605D01*
X134621857Y-83053747D01*
X134442252Y-82874142D01*
X134456395Y-82860000D01*
X133773265Y-82176870D01*
X133547836Y-82226383D01*
X133388193Y-82691036D01*
X133409551Y-83036419D01*
X132430566Y-82057434D01*
X132062346Y-81811397D01*
X131628000Y-81725000D01*
X130213000Y-81725000D01*
X130213000Y-80025309D01*
X130213000Y-79184750D01*
X130213000Y-78613250D01*
X130213000Y-77772691D01*
X130116327Y-77539302D01*
X129937699Y-77360673D01*
X129704310Y-77264000D01*
X129451691Y-77264000D01*
X129063750Y-77264000D01*
X128905000Y-77422750D01*
X128905000Y-78772000D01*
X130054250Y-78772000D01*
X130213000Y-78613250D01*
X130213000Y-79184750D01*
X130054250Y-79026000D01*
X128905000Y-79026000D01*
X128905000Y-80375250D01*
X129063750Y-80534000D01*
X129451691Y-80534000D01*
X129704310Y-80534000D01*
X129937699Y-80437327D01*
X130116327Y-80258698D01*
X130213000Y-80025309D01*
X130213000Y-81725000D01*
X130191680Y-81725000D01*
X130178463Y-81656877D01*
X130038673Y-81444073D01*
X129827640Y-81301623D01*
X129578000Y-81251560D01*
X128651000Y-81251560D01*
X128651000Y-80375250D01*
X128651000Y-79026000D01*
X128651000Y-78772000D01*
X128651000Y-77422750D01*
X128492250Y-77264000D01*
X128104309Y-77264000D01*
X127851690Y-77264000D01*
X127618301Y-77360673D01*
X127439673Y-77539302D01*
X127343000Y-77772691D01*
X127343000Y-78613250D01*
X127501750Y-78772000D01*
X128651000Y-78772000D01*
X128651000Y-79026000D01*
X127501750Y-79026000D01*
X127343000Y-79184750D01*
X127343000Y-80025309D01*
X127439673Y-80258698D01*
X127618301Y-80437327D01*
X127851690Y-80534000D01*
X128104309Y-80534000D01*
X128492250Y-80534000D01*
X128651000Y-80375250D01*
X128651000Y-81251560D01*
X127978000Y-81251560D01*
X127735877Y-81298537D01*
X127523073Y-81438327D01*
X127380623Y-81649360D01*
X127365454Y-81725000D01*
X120379214Y-81725000D01*
X120379214Y-80075421D01*
X120379214Y-77535421D01*
X120379214Y-74995421D01*
X120191592Y-74541343D01*
X119844485Y-74193629D01*
X119390734Y-74005215D01*
X118899421Y-74004786D01*
X118445343Y-74192408D01*
X118097629Y-74539515D01*
X117909215Y-74993266D01*
X117908786Y-75484579D01*
X118096408Y-75938657D01*
X118443515Y-76286371D01*
X118897266Y-76474785D01*
X119388579Y-76475214D01*
X119842657Y-76287592D01*
X120190371Y-75940485D01*
X120378785Y-75486734D01*
X120379214Y-74995421D01*
X120379214Y-77535421D01*
X120191592Y-77081343D01*
X119844485Y-76733629D01*
X119390734Y-76545215D01*
X118899421Y-76544786D01*
X118445343Y-76732408D01*
X118097629Y-77079515D01*
X117909215Y-77533266D01*
X117908786Y-78024579D01*
X118096408Y-78478657D01*
X118443515Y-78826371D01*
X118897266Y-79014785D01*
X119388579Y-79015214D01*
X119842657Y-78827592D01*
X120190371Y-78480485D01*
X120378785Y-78026734D01*
X120379214Y-77535421D01*
X120379214Y-80075421D01*
X120191592Y-79621343D01*
X119844485Y-79273629D01*
X119390734Y-79085215D01*
X118899421Y-79084786D01*
X118445343Y-79272408D01*
X118097629Y-79619515D01*
X117909215Y-80073266D01*
X117908786Y-80564579D01*
X118096408Y-81018657D01*
X118443515Y-81366371D01*
X118897266Y-81554785D01*
X119388579Y-81555214D01*
X119842657Y-81367592D01*
X120190371Y-81020485D01*
X120378785Y-80566734D01*
X120379214Y-80075421D01*
X120379214Y-81725000D01*
X119631042Y-81725000D01*
X119390734Y-81625215D01*
X118899421Y-81624786D01*
X118445343Y-81812408D01*
X118097629Y-82159515D01*
X117909215Y-82613266D01*
X117908786Y-83104579D01*
X118096408Y-83558657D01*
X118443515Y-83906371D01*
X118897266Y-84094785D01*
X119388579Y-84095214D01*
X119631114Y-83995000D01*
X127349186Y-83995000D01*
X127377537Y-84141123D01*
X127517327Y-84353927D01*
X127728360Y-84496377D01*
X127978000Y-84546440D01*
X129578000Y-84546440D01*
X129820123Y-84499463D01*
X130032927Y-84359673D01*
X130175377Y-84148640D01*
X130206188Y-83995000D01*
X131157868Y-83995000D01*
X131957000Y-84794132D01*
X131957000Y-88645994D01*
X131956999Y-88646000D01*
X132013189Y-88928484D01*
X132024367Y-88984675D01*
X132216210Y-89271790D01*
X132724207Y-89779786D01*
X132724210Y-89779790D01*
X133011325Y-89971633D01*
X133350000Y-90039000D01*
X133481881Y-90039000D01*
X133401215Y-90233266D01*
X133400786Y-90724579D01*
X133588408Y-91178657D01*
X133935515Y-91526371D01*
X134389266Y-91714785D01*
X134880579Y-91715214D01*
X135334657Y-91527592D01*
X135682371Y-91180485D01*
X135870785Y-90726734D01*
X135871214Y-90235421D01*
X135790054Y-90039000D01*
X137869178Y-90039000D01*
X137989201Y-90088838D01*
X138361167Y-90089162D01*
X138704943Y-89947117D01*
X138968192Y-89684327D01*
X139110838Y-89340799D01*
X139111162Y-88968833D01*
X138969117Y-88625057D01*
X138706327Y-88361808D01*
X138362799Y-88219162D01*
X137990833Y-88218838D01*
X137869431Y-88269000D01*
X135836625Y-88269000D01*
X135870785Y-88186734D01*
X135871214Y-87695421D01*
X135683592Y-87241343D01*
X135336485Y-86893629D01*
X134882734Y-86705215D01*
X134391421Y-86704786D01*
X133937343Y-86892408D01*
X133727000Y-87102383D01*
X133727000Y-86237491D01*
X133935515Y-86446371D01*
X134389266Y-86634785D01*
X134880579Y-86635214D01*
X135334657Y-86447592D01*
X135682371Y-86100485D01*
X135870785Y-85646734D01*
X135871214Y-85155421D01*
X135790054Y-84959000D01*
X136397994Y-84959000D01*
X136398000Y-84959001D01*
X136398000Y-84959000D01*
X136680484Y-84902810D01*
X136736674Y-84891633D01*
X136736675Y-84891633D01*
X137023790Y-84699790D01*
X138801786Y-82921792D01*
X138801790Y-82921790D01*
X138801790Y-82921789D01*
X138993633Y-82634675D01*
X138993633Y-82634674D01*
X139004810Y-82578484D01*
X139061000Y-82296000D01*
X139061001Y-82296000D01*
X139061000Y-82295994D01*
X139061000Y-79614579D01*
X139092834Y-79582744D01*
X139212943Y-79533117D01*
X139476192Y-79270327D01*
X139618838Y-78926799D01*
X139619162Y-78554833D01*
X139477117Y-78211057D01*
X139214327Y-77947808D01*
X139061000Y-77884140D01*
X139061000Y-74506649D01*
X139268123Y-74466463D01*
X139480927Y-74326673D01*
X139623377Y-74115640D01*
X139673440Y-73866000D01*
X139673440Y-94134916D01*
X139227664Y-94134527D01*
X138350737Y-94496866D01*
X137679224Y-95167208D01*
X137315355Y-96043501D01*
X137314527Y-96992336D01*
X137676866Y-97869263D01*
X138181721Y-98375000D01*
X135883440Y-98375000D01*
X135883440Y-96160000D01*
X135883440Y-94960000D01*
X135871214Y-94896986D01*
X135871214Y-92775421D01*
X135683592Y-92321343D01*
X135336485Y-91973629D01*
X134882734Y-91785215D01*
X134391421Y-91784786D01*
X133937343Y-91972408D01*
X133589629Y-92319515D01*
X133401215Y-92773266D01*
X133400786Y-93264579D01*
X133588408Y-93718657D01*
X133935515Y-94066371D01*
X134389266Y-94254785D01*
X134880579Y-94255214D01*
X135334657Y-94067592D01*
X135682371Y-93720485D01*
X135870785Y-93266734D01*
X135871214Y-92775421D01*
X135871214Y-94896986D01*
X135836463Y-94717877D01*
X135696673Y-94505073D01*
X135485640Y-94362623D01*
X135236000Y-94312560D01*
X134036000Y-94312560D01*
X133793877Y-94359537D01*
X133581073Y-94499327D01*
X133438623Y-94710360D01*
X133388560Y-94960000D01*
X133388560Y-96160000D01*
X133435537Y-96402123D01*
X133575327Y-96614927D01*
X133786360Y-96757377D01*
X134036000Y-96807440D01*
X135236000Y-96807440D01*
X135478123Y-96760463D01*
X135690927Y-96620673D01*
X135833377Y-96409640D01*
X135883440Y-96160000D01*
X135883440Y-98375000D01*
X120391807Y-98375000D01*
X120391807Y-88108964D01*
X120379214Y-87905326D01*
X120379214Y-85155421D01*
X120191592Y-84701343D01*
X119844485Y-84353629D01*
X119390734Y-84165215D01*
X118899421Y-84164786D01*
X118445343Y-84352408D01*
X118097629Y-84699515D01*
X117909215Y-85153266D01*
X117908786Y-85644579D01*
X118096408Y-86098657D01*
X118443515Y-86446371D01*
X118897266Y-86634785D01*
X119388579Y-86635214D01*
X119842657Y-86447592D01*
X120190371Y-86100485D01*
X120378785Y-85646734D01*
X120379214Y-85155421D01*
X120379214Y-87905326D01*
X120361482Y-87618587D01*
X120232164Y-87306383D01*
X120006735Y-87256870D01*
X119827130Y-87436475D01*
X119827130Y-87077265D01*
X119777617Y-86851836D01*
X119312964Y-86692193D01*
X118822587Y-86722518D01*
X118510383Y-86851836D01*
X118460870Y-87077265D01*
X119144000Y-87760395D01*
X119827130Y-87077265D01*
X119827130Y-87436475D01*
X119323605Y-87940000D01*
X120006735Y-88623130D01*
X120232164Y-88573617D01*
X120391807Y-88108964D01*
X120391807Y-98375000D01*
X120379214Y-98375000D01*
X120379214Y-95315421D01*
X120379214Y-92775421D01*
X120379214Y-90235421D01*
X120191592Y-89781343D01*
X119844485Y-89433629D01*
X119827130Y-89426422D01*
X119827130Y-88802735D01*
X119144000Y-88119605D01*
X118964395Y-88299210D01*
X118964395Y-87940000D01*
X118281265Y-87256870D01*
X118055836Y-87306383D01*
X117896193Y-87771036D01*
X117926518Y-88261413D01*
X118055836Y-88573617D01*
X118281265Y-88623130D01*
X118964395Y-87940000D01*
X118964395Y-88299210D01*
X118460870Y-88802735D01*
X118510383Y-89028164D01*
X118975036Y-89187807D01*
X119465413Y-89157482D01*
X119777617Y-89028164D01*
X119827130Y-88802735D01*
X119827130Y-89426422D01*
X119390734Y-89245215D01*
X118899421Y-89244786D01*
X118445343Y-89432408D01*
X118097629Y-89779515D01*
X117909215Y-90233266D01*
X117908786Y-90724579D01*
X118096408Y-91178657D01*
X118443515Y-91526371D01*
X118897266Y-91714785D01*
X119388579Y-91715214D01*
X119842657Y-91527592D01*
X120190371Y-91180485D01*
X120378785Y-90726734D01*
X120379214Y-90235421D01*
X120379214Y-92775421D01*
X120191592Y-92321343D01*
X119844485Y-91973629D01*
X119390734Y-91785215D01*
X118899421Y-91784786D01*
X118445343Y-91972408D01*
X118097629Y-92319515D01*
X117909215Y-92773266D01*
X117908786Y-93264579D01*
X118096408Y-93718657D01*
X118443515Y-94066371D01*
X118897266Y-94254785D01*
X119388579Y-94255214D01*
X119842657Y-94067592D01*
X120190371Y-93720485D01*
X120378785Y-93266734D01*
X120379214Y-92775421D01*
X120379214Y-95315421D01*
X120191592Y-94861343D01*
X119844485Y-94513629D01*
X119390734Y-94325215D01*
X118899421Y-94324786D01*
X118445343Y-94512408D01*
X118097629Y-94859515D01*
X117909215Y-95313266D01*
X117908786Y-95804579D01*
X118096408Y-96258657D01*
X118443515Y-96606371D01*
X118897266Y-96794785D01*
X119388579Y-96795214D01*
X119842657Y-96607592D01*
X120190371Y-96260485D01*
X120378785Y-95806734D01*
X120379214Y-95315421D01*
X120379214Y-98375000D01*
X115697767Y-98375000D01*
X115697767Y-96851966D01*
X115685810Y-96616561D01*
X115685810Y-93832602D01*
X115475314Y-93323163D01*
X115085887Y-92933056D01*
X114576816Y-92721671D01*
X114025602Y-92721190D01*
X113849958Y-92793764D01*
X113849958Y-90529026D01*
X113849958Y-89810974D01*
X113677688Y-89395053D01*
X113283490Y-88963179D01*
X113148687Y-88900000D01*
X113283490Y-88836821D01*
X113677688Y-88404947D01*
X113849958Y-87989026D01*
X113849958Y-87270974D01*
X113677688Y-86855053D01*
X113283490Y-86423179D01*
X113148687Y-86360000D01*
X113283490Y-86296821D01*
X113677688Y-85864947D01*
X113849958Y-85449026D01*
X113849958Y-84730974D01*
X113677688Y-84315053D01*
X113283490Y-83883179D01*
X112754027Y-83635032D01*
X112522000Y-83755531D01*
X112522000Y-84963000D01*
X113728817Y-84963000D01*
X113849958Y-84730974D01*
X113849958Y-85449026D01*
X113728817Y-85217000D01*
X112522000Y-85217000D01*
X112522000Y-86295531D01*
X112522000Y-86424469D01*
X112522000Y-87503000D01*
X113728817Y-87503000D01*
X113849958Y-87270974D01*
X113849958Y-87989026D01*
X113728817Y-87757000D01*
X112522000Y-87757000D01*
X112522000Y-88835531D01*
X112522000Y-88964469D01*
X112522000Y-90043000D01*
X113728817Y-90043000D01*
X113849958Y-89810974D01*
X113849958Y-90529026D01*
X113728817Y-90297000D01*
X112522000Y-90297000D01*
X112522000Y-91504469D01*
X112754027Y-91624968D01*
X113283490Y-91376821D01*
X113677688Y-90944947D01*
X113849958Y-90529026D01*
X113849958Y-92793764D01*
X113516163Y-92931686D01*
X113126056Y-93321113D01*
X112914671Y-93830184D01*
X112914190Y-94381398D01*
X113124686Y-94890837D01*
X113514113Y-95280944D01*
X113729496Y-95370378D01*
X113575735Y-95434069D01*
X113507675Y-95675070D01*
X114300000Y-96467395D01*
X115092325Y-95675070D01*
X115024265Y-95434069D01*
X114858959Y-95375231D01*
X115083837Y-95282314D01*
X115473944Y-94892887D01*
X115685329Y-94383816D01*
X115685810Y-93832602D01*
X115685810Y-96616561D01*
X115669805Y-96301462D01*
X115512931Y-95922735D01*
X115271930Y-95854675D01*
X114479605Y-96647000D01*
X115271930Y-97439325D01*
X115512931Y-97371265D01*
X115697767Y-96851966D01*
X115697767Y-98375000D01*
X115092325Y-98375000D01*
X115092325Y-97618930D01*
X114300000Y-96826605D01*
X114120395Y-97006210D01*
X114120395Y-96647000D01*
X113328070Y-95854675D01*
X113087069Y-95922735D01*
X112902233Y-96442034D01*
X112930195Y-96992538D01*
X113087069Y-97371265D01*
X113328070Y-97439325D01*
X114120395Y-96647000D01*
X114120395Y-97006210D01*
X113507675Y-97618930D01*
X113575735Y-97859931D01*
X114095034Y-98044767D01*
X114645538Y-98016805D01*
X115024265Y-97859931D01*
X115092325Y-97618930D01*
X115092325Y-98375000D01*
X112268000Y-98375000D01*
X112268000Y-91504469D01*
X112268000Y-90297000D01*
X112248000Y-90297000D01*
X112248000Y-90043000D01*
X112268000Y-90043000D01*
X112268000Y-88964469D01*
X112268000Y-88835531D01*
X112268000Y-87757000D01*
X112248000Y-87757000D01*
X112248000Y-87503000D01*
X112268000Y-87503000D01*
X112268000Y-86424469D01*
X112268000Y-86295531D01*
X112268000Y-85217000D01*
X112248000Y-85217000D01*
X112248000Y-84963000D01*
X112268000Y-84963000D01*
X112268000Y-83755531D01*
X112141767Y-83689974D01*
X112141767Y-77801966D01*
X112113805Y-77251462D01*
X111956931Y-76872735D01*
X111715930Y-76804675D01*
X111536325Y-76984280D01*
X111536325Y-76625070D01*
X111468265Y-76384069D01*
X110948966Y-76199233D01*
X110398462Y-76227195D01*
X110019735Y-76384069D01*
X109951675Y-76625070D01*
X110744000Y-77417395D01*
X111536325Y-76625070D01*
X111536325Y-76984280D01*
X110923605Y-77597000D01*
X111715930Y-78389325D01*
X111956931Y-78321265D01*
X112141767Y-77801966D01*
X112141767Y-83689974D01*
X112129810Y-83683764D01*
X112129810Y-79862602D01*
X111919314Y-79353163D01*
X111529887Y-78963056D01*
X111314503Y-78873621D01*
X111468265Y-78809931D01*
X111536325Y-78568930D01*
X110744000Y-77776605D01*
X110564395Y-77956210D01*
X110564395Y-77597000D01*
X109772070Y-76804675D01*
X109531069Y-76872735D01*
X109346233Y-77392034D01*
X109374195Y-77942538D01*
X109531069Y-78321265D01*
X109772070Y-78389325D01*
X110564395Y-77597000D01*
X110564395Y-77956210D01*
X109951675Y-78568930D01*
X110019735Y-78809931D01*
X110185040Y-78868768D01*
X109960163Y-78961686D01*
X109570056Y-79351113D01*
X109358671Y-79860184D01*
X109358190Y-80411398D01*
X109568686Y-80920837D01*
X109958113Y-81310944D01*
X110467184Y-81522329D01*
X111018398Y-81522810D01*
X111527837Y-81312314D01*
X111917944Y-80922887D01*
X112129329Y-80413816D01*
X112129810Y-79862602D01*
X112129810Y-83683764D01*
X112035973Y-83635032D01*
X111506510Y-83883179D01*
X111335746Y-84070263D01*
X111319063Y-83984277D01*
X111179273Y-83771473D01*
X110968240Y-83629023D01*
X110718600Y-83578960D01*
X108991400Y-83578960D01*
X108754483Y-83624926D01*
X108833858Y-65915833D01*
X108833473Y-65913851D01*
X108833868Y-65911867D01*
X108800547Y-65744358D01*
X108768010Y-65576860D01*
X108766894Y-65575173D01*
X108766500Y-65573192D01*
X108671754Y-65431395D01*
X108577456Y-65288888D01*
X108575777Y-65287755D01*
X108574656Y-65286077D01*
X107051790Y-63763210D01*
X106764675Y-63571367D01*
X106708484Y-63560189D01*
X106566532Y-63531953D01*
X104601744Y-61567164D01*
X104552117Y-61447057D01*
X104289327Y-61183808D01*
X103945799Y-61041162D01*
X103573833Y-61040838D01*
X103230057Y-61182883D01*
X102966808Y-61445673D01*
X102824162Y-61789201D01*
X102823838Y-62161167D01*
X102965883Y-62504943D01*
X103228673Y-62768192D01*
X103349985Y-62818565D01*
X105546207Y-65014786D01*
X105546210Y-65014790D01*
X105833325Y-65206633D01*
X106031466Y-65246045D01*
X107062222Y-66276801D01*
X107037777Y-71730758D01*
X106806222Y-71384211D01*
X106344762Y-71075874D01*
X106091162Y-71025429D01*
X106091162Y-66108833D01*
X105949117Y-65765057D01*
X105686327Y-65501808D01*
X105342799Y-65359162D01*
X104970833Y-65358838D01*
X104695749Y-65472500D01*
X93895640Y-65472500D01*
X93898838Y-65464799D01*
X93899162Y-65092833D01*
X93849000Y-64971431D01*
X93849000Y-61976005D01*
X93849000Y-61976000D01*
X93849001Y-61976000D01*
X93781633Y-61637325D01*
X93589790Y-61350210D01*
X93589786Y-61350207D01*
X92891290Y-60651710D01*
X92604175Y-60459867D01*
X92547984Y-60448689D01*
X92265500Y-60392499D01*
X92265494Y-60392500D01*
X91693239Y-60392500D01*
X91576529Y-60217830D01*
X91090348Y-59892974D01*
X90516859Y-59778900D01*
X90458141Y-59778900D01*
X89884652Y-59892974D01*
X89398471Y-60217830D01*
X89217507Y-60488660D01*
X88835990Y-60070679D01*
X88306527Y-59822532D01*
X88074500Y-59943031D01*
X88074500Y-61150500D01*
X88094500Y-61150500D01*
X88094500Y-61404500D01*
X88074500Y-61404500D01*
X88074500Y-62483031D01*
X88074500Y-62611969D01*
X88074500Y-63690500D01*
X88094500Y-63690500D01*
X88094500Y-63944500D01*
X88074500Y-63944500D01*
X88074500Y-65023031D01*
X88074500Y-65151969D01*
X88074500Y-66230500D01*
X88094500Y-66230500D01*
X88094500Y-66484500D01*
X88074500Y-66484500D01*
X88074500Y-67691969D01*
X88306527Y-67812468D01*
X88835990Y-67564321D01*
X89006753Y-67377236D01*
X89023437Y-67463223D01*
X89163227Y-67676027D01*
X89374260Y-67818477D01*
X89623900Y-67868540D01*
X91351100Y-67868540D01*
X91593223Y-67821563D01*
X91806027Y-67681773D01*
X91948477Y-67470740D01*
X91994248Y-67242500D01*
X105092494Y-67242500D01*
X105092500Y-67242501D01*
X105092500Y-67242500D01*
X105160349Y-67229004D01*
X105341167Y-67229162D01*
X105684943Y-67087117D01*
X105948192Y-66824327D01*
X106090838Y-66480799D01*
X106091162Y-66108833D01*
X106091162Y-71025429D01*
X105800433Y-70967600D01*
X105019567Y-70967600D01*
X104475238Y-71075874D01*
X104013778Y-71384211D01*
X103933069Y-71505000D01*
X101712579Y-71505000D01*
X100447790Y-70240210D01*
X100160675Y-70048367D01*
X100104484Y-70037189D01*
X99822000Y-69980999D01*
X99821994Y-69981000D01*
X95758005Y-69981000D01*
X95758000Y-69980999D01*
X95475515Y-70037189D01*
X95419325Y-70048367D01*
X95132210Y-70240210D01*
X95132207Y-70240213D01*
X93849000Y-71523420D01*
X93849000Y-70156821D01*
X93898838Y-70036799D01*
X93899162Y-69664833D01*
X93757117Y-69321057D01*
X93494327Y-69057808D01*
X93150799Y-68915162D01*
X92778833Y-68914838D01*
X92435057Y-69056883D01*
X92171808Y-69319673D01*
X92029162Y-69663201D01*
X92028838Y-70035167D01*
X92079000Y-70156568D01*
X92079000Y-97282000D01*
X92146367Y-97620675D01*
X92338210Y-97907790D01*
X92625325Y-98099633D01*
X92964000Y-98167000D01*
X105410000Y-98167000D01*
X105748675Y-98099633D01*
X106035790Y-97907790D01*
X106227633Y-97620675D01*
X106295000Y-97282000D01*
X106295000Y-96684840D01*
X106553000Y-96684840D01*
X106795123Y-96637863D01*
X107007927Y-96498073D01*
X107150377Y-96287040D01*
X107200440Y-96037400D01*
X107200440Y-94462600D01*
X107153463Y-94220477D01*
X107013673Y-94007673D01*
X106802640Y-93865223D01*
X106633378Y-93831279D01*
X106806222Y-93715789D01*
X107114559Y-93254329D01*
X107222833Y-92710000D01*
X107146251Y-92325000D01*
X108584994Y-92325000D01*
X108585000Y-92325001D01*
X108585000Y-92325000D01*
X108867484Y-92268810D01*
X108923674Y-92257633D01*
X108923675Y-92257633D01*
X109210790Y-92065790D01*
X109644091Y-91632487D01*
X109825641Y-91668600D01*
X109884359Y-91668600D01*
X110457848Y-91554526D01*
X110944029Y-91229670D01*
X111124992Y-90958839D01*
X111506510Y-91376821D01*
X112035973Y-91624968D01*
X112268000Y-91504469D01*
X112268000Y-98375000D01*
X87045000Y-98375000D01*
X87045000Y-82797690D01*
X87547208Y-83300776D01*
X88423501Y-83664645D01*
X89372336Y-83665473D01*
X90249263Y-83303134D01*
X90920776Y-82632792D01*
X91284645Y-81756499D01*
X91285473Y-80807664D01*
X90923134Y-79930737D01*
X90252792Y-79259224D01*
X89376499Y-78895355D01*
X88427664Y-78894527D01*
X87550737Y-79256866D01*
X87045000Y-79761721D01*
X87045000Y-67548971D01*
X87059010Y-67564321D01*
X87588473Y-67812468D01*
X87820500Y-67691969D01*
X87820500Y-66484500D01*
X87800500Y-66484500D01*
X87800500Y-66230500D01*
X87820500Y-66230500D01*
X87820500Y-65151969D01*
X87820500Y-65023031D01*
X87820500Y-63944500D01*
X87800500Y-63944500D01*
X87800500Y-63690500D01*
X87820500Y-63690500D01*
X87820500Y-62611969D01*
X87820500Y-62483031D01*
X87820500Y-61404500D01*
X87800500Y-61404500D01*
X87800500Y-61150500D01*
X87820500Y-61150500D01*
X87820500Y-59943031D01*
X87588473Y-59822532D01*
X87059010Y-60070679D01*
X87045000Y-60086028D01*
X87045000Y-54857690D01*
X87547208Y-55360776D01*
X88423501Y-55724645D01*
X89372336Y-55725473D01*
X90249263Y-55363134D01*
X90920776Y-54692792D01*
X91284645Y-53816499D01*
X91285473Y-52867664D01*
X90923134Y-51990737D01*
X90252792Y-51319224D01*
X89376499Y-50955355D01*
X88427664Y-50954527D01*
X87550737Y-51316866D01*
X87045000Y-51821721D01*
X87045000Y-46405000D01*
X139452309Y-46405000D01*
X138949224Y-46907208D01*
X138585355Y-47783501D01*
X138584527Y-48732336D01*
X138946866Y-49609263D01*
X139617208Y-50280776D01*
X140493501Y-50644645D01*
X141442336Y-50645473D01*
X142319263Y-50283134D01*
X142990776Y-49612792D01*
X143354645Y-48736499D01*
X143355473Y-47787664D01*
X142993134Y-46910737D01*
X142488278Y-46405000D01*
X154255000Y-46405000D01*
X154255000Y-55006028D01*
X154240990Y-54990679D01*
X153711527Y-54742532D01*
X153479500Y-54863031D01*
X153479500Y-56070500D01*
X153499500Y-56070500D01*
X153499500Y-56324500D01*
X153479500Y-56324500D01*
X153479500Y-57403031D01*
X153479500Y-57531969D01*
X153479500Y-58610500D01*
X153499500Y-58610500D01*
X153499500Y-58864500D01*
X153479500Y-58864500D01*
X153479500Y-58884500D01*
X153225500Y-58884500D01*
X153225500Y-58864500D01*
X153205500Y-58864500D01*
X153205500Y-58610500D01*
X153225500Y-58610500D01*
X153225500Y-57531969D01*
X153225500Y-57403031D01*
X153225500Y-56324500D01*
X153205500Y-56324500D01*
X153205500Y-56070500D01*
X153225500Y-56070500D01*
X153225500Y-54863031D01*
X152993473Y-54742532D01*
X152464010Y-54990679D01*
X152293246Y-55177763D01*
X152276563Y-55091777D01*
X152136773Y-54878973D01*
X151925740Y-54736523D01*
X151676100Y-54686460D01*
X149948900Y-54686460D01*
X149706777Y-54733437D01*
X149493973Y-54873227D01*
X149351523Y-55084260D01*
X149301460Y-55333900D01*
X149301460Y-57061100D01*
X149348437Y-57303223D01*
X149488227Y-57516027D01*
X149699260Y-57658477D01*
X149740159Y-57666679D01*
X149723471Y-57677830D01*
X149398615Y-58164011D01*
X149284541Y-58737500D01*
X149398615Y-59310989D01*
X149723471Y-59797170D01*
X150038251Y-60007500D01*
X149723471Y-60217830D01*
X149398615Y-60704011D01*
X149324283Y-61077703D01*
X149094000Y-60847420D01*
X149094000Y-54000400D01*
X149026633Y-53661725D01*
X148834790Y-53374610D01*
X148834786Y-53374607D01*
X148670744Y-53210565D01*
X148621117Y-53090457D01*
X148358327Y-52827208D01*
X148014799Y-52684562D01*
X147642833Y-52684238D01*
X147299057Y-52826283D01*
X147131864Y-52993183D01*
X147110463Y-52882877D01*
X146970673Y-52670073D01*
X146961618Y-52663961D01*
X147686579Y-51939000D01*
X150228560Y-51939000D01*
X150228560Y-52070000D01*
X150275537Y-52312123D01*
X150415327Y-52524927D01*
X150626360Y-52667377D01*
X150876000Y-52717440D01*
X152908000Y-52717440D01*
X153150123Y-52670463D01*
X153362927Y-52530673D01*
X153505377Y-52319640D01*
X153555440Y-52070000D01*
X153555440Y-50038000D01*
X153508463Y-49795877D01*
X153368673Y-49583073D01*
X153208956Y-49475262D01*
X153298385Y-49378818D01*
X153497975Y-48896944D01*
X153497975Y-48131056D01*
X153298385Y-47649182D01*
X152860379Y-47176812D01*
X152274946Y-46908017D01*
X152019000Y-47026633D01*
X152019000Y-48387000D01*
X153378836Y-48387000D01*
X153497975Y-48131056D01*
X153497975Y-48896944D01*
X153378836Y-48641000D01*
X152019000Y-48641000D01*
X152019000Y-48661000D01*
X151765000Y-48661000D01*
X151765000Y-48641000D01*
X151765000Y-48387000D01*
X151765000Y-47026633D01*
X151509054Y-46908017D01*
X150923621Y-47176812D01*
X150485615Y-47649182D01*
X150286025Y-48131056D01*
X150405164Y-48387000D01*
X151765000Y-48387000D01*
X151765000Y-48641000D01*
X150405164Y-48641000D01*
X150286025Y-48896944D01*
X150485615Y-49378818D01*
X150575574Y-49475835D01*
X150421073Y-49577327D01*
X150278623Y-49788360D01*
X150228560Y-50038000D01*
X150228560Y-50169000D01*
X147320005Y-50169000D01*
X147320000Y-50168999D01*
X146981326Y-50236366D01*
X146886054Y-50300024D01*
X146694210Y-50428210D01*
X146694207Y-50428213D01*
X144884210Y-52238210D01*
X144724282Y-52477560D01*
X144510000Y-52477560D01*
X144267877Y-52524537D01*
X144055073Y-52664327D01*
X143912623Y-52875360D01*
X143862560Y-53125000D01*
X143862560Y-54825000D01*
X143909537Y-55067123D01*
X144028600Y-55248374D01*
X143971673Y-55305301D01*
X143875000Y-55538690D01*
X143875000Y-55791309D01*
X143875000Y-56229250D01*
X144033750Y-56388000D01*
X145383000Y-56388000D01*
X145383000Y-56368000D01*
X145637000Y-56368000D01*
X145637000Y-56388000D01*
X146986250Y-56388000D01*
X147145000Y-56229250D01*
X147145000Y-55791309D01*
X147145000Y-55538690D01*
X147048327Y-55305301D01*
X146990626Y-55247600D01*
X147107377Y-55074640D01*
X147157440Y-54825000D01*
X147157440Y-54271114D01*
X147297673Y-54411592D01*
X147324000Y-54422523D01*
X147324000Y-61213994D01*
X147323999Y-61214000D01*
X147380189Y-61496484D01*
X147391367Y-61552675D01*
X147583210Y-61839790D01*
X148278220Y-62534800D01*
X147145000Y-63668020D01*
X147145000Y-62521310D01*
X147145000Y-62268691D01*
X147145000Y-61880750D01*
X147145000Y-61309250D01*
X147145000Y-60921309D01*
X147145000Y-60668690D01*
X147048327Y-60435301D01*
X146963025Y-60350000D01*
X147048327Y-60264699D01*
X147145000Y-60031310D01*
X147145000Y-59778691D01*
X147145000Y-59340750D01*
X147145000Y-58769250D01*
X147145000Y-58331309D01*
X147145000Y-58078690D01*
X147048327Y-57845301D01*
X146988025Y-57785000D01*
X147048327Y-57724699D01*
X147145000Y-57491310D01*
X147145000Y-57238691D01*
X147145000Y-56800750D01*
X146986250Y-56642000D01*
X145637000Y-56642000D01*
X145637000Y-57728750D01*
X145637000Y-57841250D01*
X145637000Y-58928000D01*
X146986250Y-58928000D01*
X147145000Y-58769250D01*
X147145000Y-59340750D01*
X146986250Y-59182000D01*
X145637000Y-59182000D01*
X145637000Y-60318750D01*
X145637000Y-60381250D01*
X145637000Y-61468000D01*
X146986250Y-61468000D01*
X147145000Y-61309250D01*
X147145000Y-61880750D01*
X146986250Y-61722000D01*
X145637000Y-61722000D01*
X145637000Y-62871250D01*
X145795750Y-63030000D01*
X146636309Y-63030000D01*
X146869698Y-62933327D01*
X147048327Y-62754699D01*
X147145000Y-62521310D01*
X147145000Y-63668020D01*
X147023020Y-63790000D01*
X145383000Y-63790000D01*
X145383000Y-62871250D01*
X145383000Y-61722000D01*
X145383000Y-61468000D01*
X145383000Y-60381250D01*
X145383000Y-60318750D01*
X145383000Y-59182000D01*
X145383000Y-58928000D01*
X145383000Y-57841250D01*
X145383000Y-57728750D01*
X145383000Y-56642000D01*
X144033750Y-56642000D01*
X143875000Y-56800750D01*
X143875000Y-57238691D01*
X143875000Y-57491310D01*
X143971673Y-57724699D01*
X144031974Y-57785000D01*
X143971673Y-57845301D01*
X143875000Y-58078690D01*
X143875000Y-58331309D01*
X143875000Y-58769250D01*
X144033750Y-58928000D01*
X145383000Y-58928000D01*
X145383000Y-59182000D01*
X144033750Y-59182000D01*
X143875000Y-59340750D01*
X143875000Y-59778691D01*
X143875000Y-60031310D01*
X143971673Y-60264699D01*
X144056974Y-60350000D01*
X143971673Y-60435301D01*
X143875000Y-60668690D01*
X143875000Y-60921309D01*
X143875000Y-61309250D01*
X144033750Y-61468000D01*
X145383000Y-61468000D01*
X145383000Y-61722000D01*
X144033750Y-61722000D01*
X143875000Y-61880750D01*
X143875000Y-62268691D01*
X143875000Y-62521310D01*
X143971673Y-62754699D01*
X144150302Y-62933327D01*
X144383691Y-63030000D01*
X145224250Y-63030000D01*
X145383000Y-62871250D01*
X145383000Y-63790000D01*
X143102440Y-63790000D01*
X143102440Y-63675000D01*
X143055463Y-63432877D01*
X142915673Y-63220073D01*
X142704640Y-63077623D01*
X142519758Y-63040546D01*
X142752123Y-62995463D01*
X142964927Y-62855673D01*
X143107377Y-62644640D01*
X143157440Y-62395000D01*
X143157440Y-60795000D01*
X143110463Y-60552877D01*
X142976361Y-60348733D01*
X143107377Y-60154640D01*
X143157440Y-59905000D01*
X143157440Y-58205000D01*
X143110463Y-57962877D01*
X142993007Y-57784073D01*
X143107377Y-57614640D01*
X143157440Y-57365000D01*
X143157440Y-55665000D01*
X143110463Y-55422877D01*
X142993007Y-55244073D01*
X143107377Y-55074640D01*
X143157440Y-54825000D01*
X143157440Y-53125000D01*
X143110463Y-52882877D01*
X142970673Y-52670073D01*
X142759640Y-52527623D01*
X142510000Y-52477560D01*
X140510000Y-52477560D01*
X140267877Y-52524537D01*
X140055073Y-52664327D01*
X139912623Y-52875360D01*
X139862560Y-53125000D01*
X139862560Y-54825000D01*
X139909537Y-55067123D01*
X140026992Y-55245926D01*
X139912623Y-55415360D01*
X139862560Y-55665000D01*
X139862560Y-57365000D01*
X139909537Y-57607123D01*
X140026992Y-57785926D01*
X139912623Y-57955360D01*
X139862560Y-58205000D01*
X139862560Y-59905000D01*
X139909537Y-60147123D01*
X140043638Y-60351266D01*
X139912623Y-60545360D01*
X139879605Y-60710000D01*
X139065005Y-60710000D01*
X139065000Y-60709999D01*
X138782515Y-60766189D01*
X138726325Y-60777367D01*
X138439210Y-60969210D01*
X138439207Y-60969213D01*
X137550210Y-61858210D01*
X137358367Y-62145325D01*
X137347189Y-62201515D01*
X137290999Y-62484000D01*
X137291000Y-62484005D01*
X137291000Y-67225350D01*
X137114983Y-67259501D01*
X137114983Y-48896946D01*
X137114983Y-48131054D01*
X136846188Y-47545621D01*
X136373818Y-47107615D01*
X135891944Y-46908025D01*
X135636000Y-47027164D01*
X135636000Y-48387000D01*
X136996367Y-48387000D01*
X137114983Y-48131054D01*
X137114983Y-48896946D01*
X136996367Y-48641000D01*
X135636000Y-48641000D01*
X135636000Y-50000836D01*
X135891944Y-50119975D01*
X136373818Y-49920385D01*
X136846188Y-49482379D01*
X137114983Y-48896946D01*
X137114983Y-67259501D01*
X137083877Y-67265537D01*
X136871073Y-67405327D01*
X136728623Y-67616360D01*
X136678560Y-67866000D01*
X136678560Y-67981000D01*
X135823337Y-67981000D01*
X135870785Y-67866734D01*
X135871214Y-67375421D01*
X135683592Y-66921343D01*
X135336485Y-66573629D01*
X134882734Y-66385215D01*
X134391421Y-66384786D01*
X134065170Y-66519590D01*
X133727000Y-66181420D01*
X133727000Y-65917491D01*
X133935515Y-66126371D01*
X134389266Y-66314785D01*
X134880579Y-66315214D01*
X135334657Y-66127592D01*
X135682371Y-65780485D01*
X135870785Y-65326734D01*
X135871214Y-64835421D01*
X135683592Y-64381343D01*
X135336485Y-64033629D01*
X134882734Y-63845215D01*
X134391421Y-63844786D01*
X133937343Y-64032408D01*
X133727000Y-64242383D01*
X133727000Y-63377491D01*
X133935515Y-63586371D01*
X134389266Y-63774785D01*
X134880579Y-63775214D01*
X135334657Y-63587592D01*
X135682371Y-63240485D01*
X135870785Y-62786734D01*
X135871214Y-62295421D01*
X135683592Y-61841343D01*
X135336485Y-61493629D01*
X134882734Y-61305215D01*
X134391421Y-61304786D01*
X133937343Y-61492408D01*
X133727000Y-61702383D01*
X133727000Y-60837491D01*
X133935515Y-61046371D01*
X134389266Y-61234785D01*
X134880579Y-61235214D01*
X135334657Y-61047592D01*
X135682371Y-60700485D01*
X135870785Y-60246734D01*
X135871214Y-59755421D01*
X135683592Y-59301343D01*
X135336485Y-58953629D01*
X134882734Y-58765215D01*
X134391421Y-58764786D01*
X133937343Y-58952408D01*
X133727000Y-59162383D01*
X133727000Y-58297491D01*
X133935515Y-58506371D01*
X134389266Y-58694785D01*
X134880579Y-58695214D01*
X135334657Y-58507592D01*
X135682371Y-58160485D01*
X135870785Y-57706734D01*
X135871214Y-57215421D01*
X135683592Y-56761343D01*
X135336485Y-56413629D01*
X134882734Y-56225215D01*
X134391421Y-56224786D01*
X133937343Y-56412408D01*
X133727000Y-56622383D01*
X133727000Y-55757491D01*
X133935515Y-55966371D01*
X134389266Y-56154785D01*
X134880579Y-56155214D01*
X135334657Y-55967592D01*
X135682371Y-55620485D01*
X135870785Y-55166734D01*
X135871214Y-54675421D01*
X135683592Y-54221343D01*
X135382000Y-53919223D01*
X135382000Y-50000836D01*
X135382000Y-48641000D01*
X135362000Y-48641000D01*
X135362000Y-48387000D01*
X135382000Y-48387000D01*
X135382000Y-47027164D01*
X135126056Y-46908025D01*
X134644182Y-47107615D01*
X134547164Y-47197574D01*
X134445673Y-47043073D01*
X134234640Y-46900623D01*
X133985000Y-46850560D01*
X131953000Y-46850560D01*
X131710877Y-46897537D01*
X131498073Y-47037327D01*
X131355623Y-47248360D01*
X131305560Y-47498000D01*
X131305560Y-49530000D01*
X131352537Y-49772123D01*
X131492327Y-49984927D01*
X131703360Y-50127377D01*
X131953000Y-50177440D01*
X133985000Y-50177440D01*
X134227123Y-50130463D01*
X134439927Y-49990673D01*
X134547737Y-49830956D01*
X134644182Y-49920385D01*
X135126056Y-50119975D01*
X135382000Y-50000836D01*
X135382000Y-53919223D01*
X135336485Y-53873629D01*
X134882734Y-53685215D01*
X134391421Y-53684786D01*
X133937343Y-53872408D01*
X133727000Y-54082383D01*
X133727000Y-51816000D01*
X133659633Y-51477325D01*
X133467790Y-51190210D01*
X133180675Y-50998367D01*
X132842000Y-50931000D01*
X123810579Y-50931000D01*
X120894790Y-48015210D01*
X120607675Y-47823367D01*
X120551484Y-47812189D01*
X120269000Y-47755999D01*
X120268994Y-47756000D01*
X115919005Y-47756000D01*
X115919000Y-47755999D01*
X115636515Y-47812189D01*
X115580325Y-47823367D01*
X115293210Y-48015210D01*
X115293207Y-48015213D01*
X113033664Y-50274755D01*
X112913557Y-50324383D01*
X112650308Y-50587173D01*
X112507662Y-50930701D01*
X112507338Y-51302667D01*
X112649383Y-51646443D01*
X112912173Y-51909692D01*
X113255701Y-52052338D01*
X113627667Y-52052662D01*
X113971443Y-51910617D01*
X114234692Y-51647827D01*
X114285065Y-51526514D01*
X116285579Y-49526000D01*
X119902420Y-49526000D01*
X122818207Y-52441786D01*
X122818210Y-52441790D01*
X123105325Y-52633633D01*
X123105326Y-52633633D01*
X123161515Y-52644810D01*
X123444000Y-52701001D01*
X123444000Y-52701000D01*
X123444005Y-52701000D01*
X131957000Y-52701000D01*
X131957000Y-66547994D01*
X131956999Y-66548000D01*
X132013189Y-66830484D01*
X132024367Y-66886675D01*
X132216210Y-67173790D01*
X133023420Y-67981000D01*
X131491162Y-67981000D01*
X131491162Y-60266833D01*
X131441000Y-60145431D01*
X131441000Y-55626005D01*
X131441000Y-55626000D01*
X131441001Y-55626000D01*
X131384810Y-55343515D01*
X131373633Y-55287326D01*
X131373633Y-55287325D01*
X131181790Y-55000211D01*
X131181790Y-55000210D01*
X131181786Y-55000207D01*
X129403790Y-53222210D01*
X129116675Y-53030367D01*
X129060484Y-53019189D01*
X128778000Y-52962999D01*
X128777994Y-52963000D01*
X123302579Y-52963000D01*
X120640790Y-50301210D01*
X120353675Y-50109367D01*
X120297484Y-50098189D01*
X120015000Y-50041999D01*
X120014994Y-50042000D01*
X117654821Y-50042000D01*
X117534799Y-49992162D01*
X117162833Y-49991838D01*
X116819057Y-50133883D01*
X116555808Y-50396673D01*
X116413162Y-50740201D01*
X116412838Y-51112167D01*
X116554883Y-51455943D01*
X116817673Y-51719192D01*
X117161201Y-51861838D01*
X117533167Y-51862162D01*
X117654568Y-51812000D01*
X119648420Y-51812000D01*
X122310207Y-54473786D01*
X122310210Y-54473790D01*
X122310211Y-54473790D01*
X122597325Y-54665633D01*
X122597326Y-54665633D01*
X122653515Y-54676810D01*
X122936000Y-54733001D01*
X122936000Y-54733000D01*
X122936005Y-54733000D01*
X128411420Y-54733000D01*
X129671000Y-55992579D01*
X129671000Y-60145178D01*
X129621162Y-60265201D01*
X129620838Y-60637167D01*
X129762883Y-60980943D01*
X130025673Y-61244192D01*
X130369201Y-61386838D01*
X130741167Y-61387162D01*
X131084943Y-61245117D01*
X131348192Y-60982327D01*
X131490838Y-60638799D01*
X131491162Y-60266833D01*
X131491162Y-67981000D01*
X130475162Y-67981000D01*
X130475162Y-62298833D01*
X130333117Y-61955057D01*
X130070327Y-61691808D01*
X129726799Y-61549162D01*
X129354833Y-61548838D01*
X129097900Y-61655000D01*
X120379214Y-61655000D01*
X120379214Y-59755421D01*
X120379214Y-57215421D01*
X120379214Y-54675421D01*
X120191592Y-54221343D01*
X119844485Y-53873629D01*
X119390734Y-53685215D01*
X118899421Y-53684786D01*
X118445343Y-53872408D01*
X118282466Y-54035000D01*
X116657000Y-54035000D01*
X116492996Y-54067622D01*
X116328557Y-54098204D01*
X116323842Y-54101269D01*
X116318325Y-54102367D01*
X116179216Y-54195315D01*
X116039070Y-54286449D01*
X111106509Y-59097394D01*
X110977057Y-59150883D01*
X110713808Y-59413673D01*
X110571162Y-59757201D01*
X110570838Y-60129167D01*
X110712883Y-60472943D01*
X110975673Y-60736192D01*
X111319201Y-60878838D01*
X111691167Y-60879162D01*
X112034943Y-60737117D01*
X112298192Y-60474327D01*
X112344768Y-60362157D01*
X117017125Y-55805000D01*
X118282425Y-55805000D01*
X118443515Y-55966371D01*
X118897266Y-56154785D01*
X119388579Y-56155214D01*
X119842657Y-55967592D01*
X120190371Y-55620485D01*
X120378785Y-55166734D01*
X120379214Y-54675421D01*
X120379214Y-57215421D01*
X120191592Y-56761343D01*
X119844485Y-56413629D01*
X119390734Y-56225215D01*
X118899421Y-56224786D01*
X118445343Y-56412408D01*
X118097629Y-56759515D01*
X117909215Y-57213266D01*
X117908786Y-57704579D01*
X118096408Y-58158657D01*
X118443515Y-58506371D01*
X118897266Y-58694785D01*
X119388579Y-58695214D01*
X119842657Y-58507592D01*
X120190371Y-58160485D01*
X120378785Y-57706734D01*
X120379214Y-57215421D01*
X120379214Y-59755421D01*
X120191592Y-59301343D01*
X119844485Y-58953629D01*
X119390734Y-58765215D01*
X118899421Y-58764786D01*
X118445343Y-58952408D01*
X118097629Y-59299515D01*
X117909215Y-59753266D01*
X117908786Y-60244579D01*
X118096408Y-60698657D01*
X118443515Y-61046371D01*
X118897266Y-61234785D01*
X119388579Y-61235214D01*
X119842657Y-61047592D01*
X120190371Y-60700485D01*
X120378785Y-60246734D01*
X120379214Y-59755421D01*
X120379214Y-61655000D01*
X120005574Y-61655000D01*
X119844485Y-61493629D01*
X119390734Y-61305215D01*
X118899421Y-61304786D01*
X118445343Y-61492408D01*
X118097629Y-61839515D01*
X117909215Y-62293266D01*
X117908786Y-62784579D01*
X118096408Y-63238657D01*
X118443515Y-63586371D01*
X118897266Y-63774785D01*
X119388579Y-63775214D01*
X119842657Y-63587592D01*
X120005533Y-63425000D01*
X129483994Y-63425000D01*
X129484000Y-63425001D01*
X129484000Y-63425000D01*
X129514277Y-63418978D01*
X129725167Y-63419162D01*
X130068943Y-63277117D01*
X130332192Y-63014327D01*
X130474838Y-62670799D01*
X130475162Y-62298833D01*
X130475162Y-67981000D01*
X130446579Y-67981000D01*
X128443790Y-65978210D01*
X128156675Y-65786367D01*
X128100484Y-65775189D01*
X128082522Y-65771617D01*
X128300192Y-65554327D01*
X128442838Y-65210799D01*
X128443162Y-64838833D01*
X128301117Y-64495057D01*
X128038327Y-64231808D01*
X127694799Y-64089162D01*
X127322833Y-64088838D01*
X127201431Y-64139000D01*
X120142005Y-64139000D01*
X120142000Y-64138999D01*
X119981534Y-64170918D01*
X119844485Y-64033629D01*
X119390734Y-63845215D01*
X118899421Y-63844786D01*
X118445343Y-64032408D01*
X118097629Y-64379515D01*
X117909215Y-64833266D01*
X117908786Y-65324579D01*
X118096408Y-65778657D01*
X118443515Y-66126371D01*
X118897266Y-66314785D01*
X119197373Y-66315047D01*
X119127435Y-66384985D01*
X118899421Y-66384786D01*
X118445343Y-66572408D01*
X118097629Y-66919515D01*
X117909215Y-67373266D01*
X117908786Y-67864579D01*
X117943668Y-67949000D01*
X117076780Y-67949000D01*
X107890459Y-58861456D01*
X107890459Y-53657500D01*
X107776385Y-53084011D01*
X107451529Y-52597830D01*
X107136748Y-52387500D01*
X107451529Y-52177170D01*
X107776385Y-51690989D01*
X107890459Y-51117500D01*
X107776385Y-50544011D01*
X107451529Y-50057830D01*
X107136748Y-49847500D01*
X107451529Y-49637170D01*
X107776385Y-49150989D01*
X107890459Y-48577500D01*
X107776385Y-48004011D01*
X107451529Y-47517830D01*
X106965348Y-47192974D01*
X106391859Y-47078900D01*
X106333141Y-47078900D01*
X105759652Y-47192974D01*
X105288143Y-47508026D01*
X105224427Y-47354201D01*
X105045798Y-47175573D01*
X104812409Y-47078900D01*
X104108250Y-47078900D01*
X103949500Y-47237650D01*
X103949500Y-48450500D01*
X103969500Y-48450500D01*
X103969500Y-48704500D01*
X103949500Y-48704500D01*
X103949500Y-48724500D01*
X103695500Y-48724500D01*
X103695500Y-48704500D01*
X103695500Y-48450500D01*
X103695500Y-47237650D01*
X103536750Y-47078900D01*
X102832591Y-47078900D01*
X102599202Y-47175573D01*
X102420573Y-47354201D01*
X102323900Y-47587590D01*
X102323900Y-47840209D01*
X102323900Y-48291750D01*
X102482650Y-48450500D01*
X103695500Y-48450500D01*
X103695500Y-48704500D01*
X102482650Y-48704500D01*
X102323900Y-48863250D01*
X102323900Y-49314791D01*
X102323900Y-49567410D01*
X102420573Y-49800799D01*
X102599202Y-49979427D01*
X102754523Y-50043763D01*
X102733471Y-50057830D01*
X102408615Y-50544011D01*
X102294541Y-51117500D01*
X102408615Y-51690989D01*
X102733471Y-52177170D01*
X103056728Y-52393163D01*
X102934010Y-52450679D01*
X102539812Y-52882553D01*
X102367542Y-53298474D01*
X102488683Y-53530500D01*
X103695500Y-53530500D01*
X103695500Y-53510500D01*
X103949500Y-53510500D01*
X103949500Y-53530500D01*
X103969500Y-53530500D01*
X103969500Y-53784500D01*
X103949500Y-53784500D01*
X103949500Y-54991969D01*
X104181527Y-55112468D01*
X104710990Y-54864321D01*
X105092507Y-54446339D01*
X105273471Y-54717170D01*
X105759652Y-55042026D01*
X106333141Y-55156100D01*
X106391859Y-55156100D01*
X106965348Y-55042026D01*
X107451529Y-54717170D01*
X107776385Y-54230989D01*
X107890459Y-53657500D01*
X107890459Y-58861456D01*
X105524398Y-56520837D01*
X105382321Y-56427011D01*
X105240675Y-56332367D01*
X105238284Y-56331891D01*
X105236250Y-56330548D01*
X105068942Y-56298207D01*
X104902000Y-56265000D01*
X103695500Y-56265000D01*
X103695500Y-54991969D01*
X103695500Y-53784500D01*
X102488683Y-53784500D01*
X102367542Y-54016526D01*
X102539812Y-54432447D01*
X102934010Y-54864321D01*
X103463473Y-55112468D01*
X103695500Y-54991969D01*
X103695500Y-56265000D01*
X101204579Y-56265000D01*
X99013744Y-54074164D01*
X98964117Y-53954057D01*
X98701327Y-53690808D01*
X98357799Y-53548162D01*
X97985833Y-53547838D01*
X97642057Y-53689883D01*
X97378808Y-53952673D01*
X97236162Y-54296201D01*
X97235838Y-54668167D01*
X97377883Y-55011943D01*
X97640673Y-55275192D01*
X97761985Y-55325565D01*
X100212207Y-57775786D01*
X100212210Y-57775790D01*
X100212211Y-57775790D01*
X100404054Y-57903975D01*
X100499325Y-57967633D01*
X100499326Y-57967634D01*
X100838000Y-58035001D01*
X100838000Y-58035000D01*
X100838005Y-58035000D01*
X104538219Y-58035000D01*
X116090603Y-69463163D01*
X116232635Y-69556959D01*
X116374325Y-69651633D01*
X116376715Y-69652108D01*
X116378750Y-69653452D01*
X116546057Y-69685792D01*
X116713000Y-69719000D01*
X117989881Y-69719000D01*
X117909215Y-69913266D01*
X117908786Y-70404579D01*
X117943668Y-70489000D01*
X116698579Y-70489000D01*
X105490744Y-59281164D01*
X105441117Y-59161057D01*
X105178327Y-58897808D01*
X104834799Y-58755162D01*
X104462833Y-58754838D01*
X104119057Y-58896883D01*
X103855808Y-59159673D01*
X103713162Y-59503201D01*
X103712838Y-59875167D01*
X103854883Y-60218943D01*
X104117673Y-60482192D01*
X104238985Y-60532565D01*
X115706207Y-71999786D01*
X115706210Y-71999790D01*
X115993325Y-72191633D01*
X116332000Y-72259001D01*
X116332000Y-72259000D01*
X116332005Y-72259000D01*
X117989881Y-72259000D01*
X117909215Y-72453266D01*
X117908786Y-72944579D01*
X118096408Y-73398657D01*
X118443515Y-73746371D01*
X118897266Y-73934785D01*
X119388579Y-73935214D01*
X119842657Y-73747592D01*
X120190371Y-73400485D01*
X120378785Y-72946734D01*
X120379214Y-72455421D01*
X120298054Y-72259000D01*
X120537420Y-72259000D01*
X121604207Y-73325786D01*
X121604210Y-73325790D01*
X121891325Y-73517633D01*
X122230000Y-73585001D01*
X122230000Y-73585000D01*
X122230005Y-73585000D01*
X133774425Y-73585000D01*
X133935515Y-73746371D01*
X134389266Y-73934785D01*
X134880579Y-73935214D01*
X135334657Y-73747592D01*
X135682371Y-73400485D01*
X135870785Y-72946734D01*
X135871214Y-72455421D01*
X135683592Y-72001343D01*
X135336485Y-71653629D01*
X134882734Y-71465215D01*
X134391421Y-71464786D01*
X133937343Y-71652408D01*
X133774466Y-71815000D01*
X122596579Y-71815000D01*
X121529790Y-70748210D01*
X121242675Y-70556367D01*
X121186484Y-70545189D01*
X120904000Y-70488999D01*
X120903994Y-70489000D01*
X120344625Y-70489000D01*
X120378785Y-70406734D01*
X120379214Y-69915421D01*
X120298054Y-69719000D01*
X120918420Y-69719000D01*
X121985207Y-70785786D01*
X121985210Y-70785790D01*
X122272325Y-70977633D01*
X122611000Y-71045001D01*
X122611000Y-71045000D01*
X122611005Y-71045000D01*
X129215000Y-71045000D01*
X133774425Y-71045000D01*
X133935515Y-71206371D01*
X134389266Y-71394785D01*
X134880579Y-71395214D01*
X135334657Y-71207592D01*
X135682371Y-70860485D01*
X135870785Y-70406734D01*
X135871214Y-69915421D01*
X135803276Y-69751000D01*
X136678560Y-69751000D01*
X136678560Y-69866000D01*
X136725537Y-70108123D01*
X136865327Y-70320927D01*
X137076360Y-70463377D01*
X137326000Y-70513440D01*
X139026000Y-70513440D01*
X139268123Y-70466463D01*
X139480927Y-70326673D01*
X139623377Y-70115640D01*
X139673440Y-69866000D01*
X139673440Y-67866000D01*
X139626463Y-67623877D01*
X139486673Y-67411073D01*
X139275640Y-67268623D01*
X139061000Y-67225578D01*
X139061000Y-62850579D01*
X139431579Y-62480000D01*
X139879051Y-62480000D01*
X139909537Y-62637123D01*
X140049327Y-62849927D01*
X140260360Y-62992377D01*
X140510000Y-63042440D01*
X140678307Y-63042440D01*
X140512877Y-63074537D01*
X140300073Y-63214327D01*
X140157623Y-63425360D01*
X140107560Y-63675000D01*
X140107560Y-65675000D01*
X140154537Y-65917123D01*
X140294327Y-66129927D01*
X140505360Y-66272377D01*
X140755000Y-66322440D01*
X142455000Y-66322440D01*
X142697123Y-66275463D01*
X142909927Y-66135673D01*
X143052377Y-65924640D01*
X143102440Y-65675000D01*
X143102440Y-65560000D01*
X147389594Y-65560000D01*
X147389600Y-65560001D01*
X147389600Y-65560000D01*
X147672084Y-65503810D01*
X147728274Y-65492633D01*
X147728275Y-65492633D01*
X148015390Y-65300790D01*
X149320068Y-63996110D01*
X149398615Y-64390989D01*
X149723471Y-64877170D01*
X150038251Y-65087500D01*
X149723471Y-65297830D01*
X149398615Y-65784011D01*
X149284541Y-66357500D01*
X149398615Y-66930989D01*
X149723471Y-67417170D01*
X150209652Y-67742026D01*
X150783141Y-67856100D01*
X150841859Y-67856100D01*
X151415348Y-67742026D01*
X151901529Y-67417170D01*
X152082492Y-67146339D01*
X152464010Y-67564321D01*
X152993473Y-67812468D01*
X153225500Y-67691969D01*
X153225500Y-66484500D01*
X153205500Y-66484500D01*
X153205500Y-66230500D01*
X153225500Y-66230500D01*
X153225500Y-65151969D01*
X153225500Y-65023031D01*
X153225500Y-63944500D01*
X153205500Y-63944500D01*
X153205500Y-63690500D01*
X153225500Y-63690500D01*
X153225500Y-63670500D01*
X153479500Y-63670500D01*
X153479500Y-63690500D01*
X153499500Y-63690500D01*
X153499500Y-63944500D01*
X153479500Y-63944500D01*
X153479500Y-65023031D01*
X153479500Y-65151969D01*
X153479500Y-66230500D01*
X153499500Y-66230500D01*
X153499500Y-66484500D01*
X153479500Y-66484500D01*
X153479500Y-67691969D01*
X153711527Y-67812468D01*
X154240990Y-67564321D01*
X154255000Y-67548971D01*
X154255000Y-69472001D01*
X154178000Y-69456560D01*
X152146000Y-69456560D01*
X151903877Y-69503537D01*
X151901649Y-69505000D01*
X151865440Y-69505000D01*
X151865440Y-69390000D01*
X151818463Y-69147877D01*
X151678673Y-68935073D01*
X151467640Y-68792623D01*
X151218000Y-68742560D01*
X149518000Y-68742560D01*
X149275877Y-68789537D01*
X149063073Y-68929327D01*
X148920623Y-69140360D01*
X148870560Y-69390000D01*
X148870560Y-69505000D01*
X148812005Y-69505000D01*
X148812000Y-69504999D01*
X148529515Y-69561189D01*
X148473325Y-69572367D01*
X148186210Y-69764210D01*
X148186207Y-69764213D01*
X147511150Y-70439270D01*
X147395690Y-70361333D01*
X147146050Y-70311270D01*
X146517958Y-70311270D01*
X146555748Y-70295617D01*
X146734377Y-70116989D01*
X146831050Y-69883600D01*
X146831050Y-69630981D01*
X146831050Y-69142610D01*
X146831050Y-68571110D01*
X146831050Y-68082739D01*
X146831050Y-67830120D01*
X146734377Y-67596731D01*
X146555748Y-67418103D01*
X146322359Y-67321430D01*
X146081750Y-67321430D01*
X145923000Y-67480180D01*
X145923000Y-68729860D01*
X146672300Y-68729860D01*
X146831050Y-68571110D01*
X146831050Y-69142610D01*
X146672300Y-68983860D01*
X145923000Y-68983860D01*
X145923000Y-70233540D01*
X146069956Y-70380496D01*
X145891023Y-70498037D01*
X145795706Y-70639243D01*
X145706723Y-70503783D01*
X145522864Y-70379675D01*
X145669000Y-70233540D01*
X145669000Y-68983860D01*
X145669000Y-68729860D01*
X145669000Y-67480180D01*
X145510250Y-67321430D01*
X145269641Y-67321430D01*
X145036252Y-67418103D01*
X144857623Y-67596731D01*
X144760950Y-67830120D01*
X144760950Y-68082739D01*
X144760950Y-68571110D01*
X144919700Y-68729860D01*
X145669000Y-68729860D01*
X145669000Y-68983860D01*
X144919700Y-68983860D01*
X144760950Y-69142610D01*
X144760950Y-69630981D01*
X144760950Y-69883600D01*
X144857623Y-70116989D01*
X145036252Y-70295617D01*
X145074041Y-70311270D01*
X144445950Y-70311270D01*
X144203827Y-70358247D01*
X143991023Y-70498037D01*
X143848573Y-70709070D01*
X143798510Y-70958710D01*
X143798510Y-70974140D01*
X143345719Y-70974140D01*
X142655180Y-70283600D01*
X142697123Y-70275463D01*
X142909927Y-70135673D01*
X143052377Y-69924640D01*
X143102440Y-69675000D01*
X143102440Y-67675000D01*
X143055463Y-67432877D01*
X142915673Y-67220073D01*
X142704640Y-67077623D01*
X142455000Y-67027560D01*
X140755000Y-67027560D01*
X140512877Y-67074537D01*
X140300073Y-67214327D01*
X140157623Y-67425360D01*
X140107560Y-67675000D01*
X140107560Y-69675000D01*
X140154537Y-69917123D01*
X140294327Y-70129927D01*
X140505360Y-70272377D01*
X140720000Y-70315421D01*
X140720000Y-70484994D01*
X140719999Y-70485000D01*
X140776189Y-70767484D01*
X140787367Y-70823675D01*
X140979210Y-71110790D01*
X142353347Y-72484926D01*
X142353350Y-72484930D01*
X142640465Y-72676773D01*
X142979140Y-72744140D01*
X143798510Y-72744140D01*
X143798510Y-72759570D01*
X143845487Y-73001693D01*
X143985277Y-73214497D01*
X144196310Y-73356947D01*
X144445950Y-73407010D01*
X145246050Y-73407010D01*
X145488173Y-73360033D01*
X145700977Y-73220243D01*
X145796293Y-73079036D01*
X145885277Y-73214497D01*
X146096310Y-73356947D01*
X146345950Y-73407010D01*
X147146050Y-73407010D01*
X147388173Y-73360033D01*
X147600977Y-73220243D01*
X147743427Y-73009210D01*
X147793490Y-72759570D01*
X147793490Y-72601967D01*
X147968650Y-72484930D01*
X148901924Y-71551654D01*
X148917537Y-71632123D01*
X149057327Y-71844927D01*
X149268360Y-71987377D01*
X149518000Y-72037440D01*
X151218000Y-72037440D01*
X151460123Y-71990463D01*
X151498560Y-71965213D01*
X151498560Y-72136000D01*
X151545537Y-72378123D01*
X151685327Y-72590927D01*
X151845043Y-72698737D01*
X151755615Y-72795182D01*
X151686960Y-72960935D01*
X151577699Y-72851673D01*
X151344310Y-72755000D01*
X151091691Y-72755000D01*
X150653750Y-72755000D01*
X150495000Y-72913750D01*
X150495000Y-74263000D01*
X150515000Y-74263000D01*
X150515000Y-74517000D01*
X150495000Y-74517000D01*
X150495000Y-75866250D01*
X150653750Y-76025000D01*
X151091691Y-76025000D01*
X151344310Y-76025000D01*
X151577699Y-75928327D01*
X151756327Y-75749698D01*
X151853000Y-75516309D01*
X151853000Y-74675750D01*
X151694252Y-74517002D01*
X151752377Y-74517002D01*
X151755615Y-74524818D01*
X152193621Y-74997188D01*
X152779054Y-75265983D01*
X153035000Y-75147367D01*
X153035000Y-73787000D01*
X153015000Y-73787000D01*
X153015000Y-73533000D01*
X153035000Y-73533000D01*
X153035000Y-73513000D01*
X153289000Y-73513000D01*
X153289000Y-73533000D01*
X153309000Y-73533000D01*
X153309000Y-73787000D01*
X153289000Y-73787000D01*
X153289000Y-75147367D01*
X153544946Y-75265983D01*
X154130379Y-74997188D01*
X154255000Y-74862789D01*
X154255000Y-81071373D01*
X153923490Y-80708179D01*
X153394027Y-80460032D01*
X153162000Y-80580531D01*
X153162000Y-81788000D01*
X153182000Y-81788000D01*
X153182000Y-82042000D01*
X153162000Y-82042000D01*
X153162000Y-83120531D01*
X153162000Y-83249469D01*
X153162000Y-84328000D01*
X153182000Y-84328000D01*
X153182000Y-84582000D01*
X153162000Y-84582000D01*
X153162000Y-85789469D01*
X153394027Y-85909968D01*
X153923490Y-85661821D01*
X154255000Y-85298626D01*
X154255000Y-98375000D01*
M02*
