G04 #@! TF.FileFunction,Soldermask,Bot*
%FSLAX46Y46*%
G04 Gerber Fmt 4.6, Leading zero omitted, Abs format (unit mm)*
G04 Created by KiCad (PCBNEW (after 2015-mar-04 BZR unknown)-product) date Thu 29 Dec 2016 04:21:00 PM CET*
%MOMM*%
G01*
G04 APERTURE LIST*
%ADD10C,0.100000*%
%ADD11C,0.970000*%
%ADD12C,1.200000*%
%ADD13R,1.200000X1.200000*%
%ADD14R,2.286000X1.574800*%
%ADD15O,2.286000X1.574800*%
%ADD16R,1.727200X1.727200*%
%ADD17O,1.727200X1.727200*%
%ADD18R,2.032000X2.032000*%
%ADD19O,2.032000X2.032000*%
%ADD20R,0.800100X1.800860*%
%ADD21R,2.000000X1.600000*%
%ADD22R,2.000000X1.700000*%
%ADD23C,1.501140*%
%ADD24R,1.700000X2.000000*%
%ADD25R,1.600000X2.000000*%
G04 APERTURE END LIST*
D10*
D11*
X107696000Y-96012000D03*
X107696000Y-94234000D03*
X125730000Y-50419000D03*
X125730000Y-47371000D03*
X125730000Y-48895000D03*
X127254000Y-47371000D03*
X127254000Y-48895000D03*
X146558000Y-48260000D03*
X145542000Y-48260000D03*
X127254000Y-50419000D03*
X92075000Y-59309000D03*
X93091000Y-60071000D03*
X93091000Y-58547000D03*
X132334000Y-93599000D03*
X132334000Y-94615000D03*
X99695000Y-73533000D03*
X103632000Y-73660000D03*
X99695000Y-73533000D03*
X99949000Y-85852000D03*
X99949000Y-83820000D03*
X99949000Y-81280000D03*
X99949000Y-78740000D03*
X99949000Y-76708000D03*
X122809000Y-84709000D03*
X121793000Y-84709000D03*
X120777000Y-84709000D03*
X117221000Y-84074000D03*
X116205000Y-84074000D03*
X115189000Y-84074000D03*
X114173000Y-84074000D03*
X153670000Y-97663000D03*
X153670000Y-94615000D03*
X153670000Y-95631000D03*
X153670000Y-96647000D03*
X145415000Y-97663000D03*
X145415000Y-96647000D03*
X145415000Y-95631000D03*
X145415000Y-94615000D03*
X132334000Y-96647000D03*
X132334000Y-97663000D03*
X93091000Y-54483000D03*
X94107000Y-54483000D03*
X95123000Y-54483000D03*
X96139000Y-54483000D03*
X97790000Y-69215000D03*
X96774000Y-69215000D03*
X95758000Y-69215000D03*
X94742000Y-69215000D03*
X106553000Y-67437000D03*
X106045000Y-67945000D03*
X109220000Y-67183000D03*
X109220000Y-68199000D03*
X109220000Y-69215000D03*
X105029000Y-70612000D03*
X104013000Y-70612000D03*
X102997000Y-70866000D03*
X101981000Y-70866000D03*
X105029000Y-67945000D03*
X104013000Y-67945000D03*
X102997000Y-67945000D03*
X101981000Y-67945000D03*
X106934000Y-73660000D03*
X106934000Y-76200000D03*
X106934000Y-81407000D03*
X106807000Y-83820000D03*
X106807000Y-86360000D03*
X108204000Y-90424000D03*
X106807000Y-88900000D03*
X103505000Y-86360000D03*
X102489000Y-86360000D03*
X103505000Y-83820000D03*
X102489000Y-83820000D03*
X102489000Y-81788000D03*
X103505000Y-81788000D03*
X102997000Y-88900000D03*
X101981000Y-88900000D03*
X100965000Y-88900000D03*
X99949000Y-88900000D03*
X99949000Y-92837000D03*
X100965000Y-92837000D03*
X101981000Y-92837000D03*
X103124000Y-92837000D03*
X102997000Y-95885000D03*
X101981000Y-95885000D03*
X100965000Y-95885000D03*
X99949000Y-95885000D03*
X95885000Y-96139000D03*
X95885000Y-93980000D03*
X95885000Y-91440000D03*
X95885000Y-88900000D03*
X95885000Y-83820000D03*
X95885000Y-86487000D03*
X90805000Y-97663000D03*
X89789000Y-97663000D03*
X88773000Y-97663000D03*
X87757000Y-97663000D03*
X87757000Y-85725000D03*
X88773000Y-85725000D03*
X89789000Y-85725000D03*
X90805000Y-85725000D03*
X90805000Y-76708000D03*
X89789000Y-76708000D03*
X88773000Y-76708000D03*
X87757000Y-76708000D03*
X87757000Y-72136000D03*
X88773000Y-72136000D03*
X88646000Y-59055000D03*
X87630000Y-59055000D03*
X131318000Y-88392000D03*
X130302000Y-88392000D03*
X129286000Y-88392000D03*
X128270000Y-88392000D03*
X127254000Y-88392000D03*
X126238000Y-88392000D03*
X131572000Y-85217000D03*
X126111000Y-76327000D03*
X126111000Y-75311000D03*
X126111000Y-74295000D03*
X120777000Y-74295000D03*
X121793000Y-74295000D03*
X122809000Y-74295000D03*
X112395000Y-73152000D03*
X113411000Y-73152000D03*
X114427000Y-73152000D03*
X115443000Y-73152000D03*
X116459000Y-73152000D03*
X117475000Y-73152000D03*
X111252000Y-68199000D03*
X110236000Y-69215000D03*
X109220000Y-70231000D03*
X110998000Y-72136000D03*
X112014000Y-71120000D03*
X113030000Y-70104000D03*
X117602000Y-67818000D03*
X120777000Y-67691000D03*
X117475000Y-70104000D03*
X120777000Y-70104000D03*
X123444000Y-68580000D03*
X124460000Y-68580000D03*
X125476000Y-68580000D03*
X125476000Y-58420000D03*
X124460000Y-58420000D03*
X123444000Y-58420000D03*
X146558000Y-47244000D03*
X145542000Y-47244000D03*
X153670000Y-88900000D03*
X151638000Y-88900000D03*
X151638000Y-90932000D03*
X153670000Y-77978000D03*
X151638000Y-77978000D03*
X149860000Y-77978000D03*
X153670000Y-68326000D03*
X151638000Y-68326000D03*
X149860000Y-68326000D03*
X151892000Y-53340000D03*
X150876000Y-53340000D03*
X149860000Y-53340000D03*
X121666000Y-54356000D03*
X120904000Y-53594000D03*
X120142000Y-52832000D03*
X128270000Y-55118000D03*
X130556000Y-53086000D03*
X131572000Y-53086000D03*
X126238000Y-55118000D03*
X128270000Y-55118000D03*
D12*
X119144000Y-95560000D03*
X119144000Y-93020000D03*
X119144000Y-90480000D03*
X119144000Y-87940000D03*
X119144000Y-85400000D03*
X119144000Y-82860000D03*
X119144000Y-80320000D03*
X119144000Y-77780000D03*
X119144000Y-75240000D03*
X119144000Y-72700000D03*
X119144000Y-70160000D03*
X119144000Y-67620000D03*
X119144000Y-65080000D03*
X119144000Y-62540000D03*
X119144000Y-60000000D03*
X119144000Y-57460000D03*
X119144000Y-54920000D03*
D13*
X134636000Y-95560000D03*
D12*
X134636000Y-93020000D03*
X134636000Y-90480000D03*
X134636000Y-87940000D03*
X134636000Y-85400000D03*
X134636000Y-82860000D03*
X134636000Y-80320000D03*
X134636000Y-77780000D03*
X134636000Y-75240000D03*
X134636000Y-72700000D03*
X134636000Y-70160000D03*
X134636000Y-67620000D03*
X134636000Y-65080000D03*
X134636000Y-62540000D03*
X134636000Y-60000000D03*
X134636000Y-57460000D03*
X134636000Y-54920000D03*
D14*
X105410000Y-95250000D03*
D15*
X105410000Y-92710000D03*
X105410000Y-90170000D03*
X105410000Y-87630000D03*
X105410000Y-85090000D03*
X105410000Y-82550000D03*
X105410000Y-80010000D03*
X105410000Y-77470000D03*
X105410000Y-74930000D03*
X105410000Y-72390000D03*
X97790000Y-72390000D03*
X97790000Y-74930000D03*
X97790000Y-77470000D03*
X97790000Y-80010000D03*
X97790000Y-82550000D03*
X97790000Y-85090000D03*
X97790000Y-87630000D03*
X97790000Y-90170000D03*
X97790000Y-92710000D03*
X97790000Y-95250000D03*
D16*
X109855000Y-85090000D03*
D17*
X112395000Y-85090000D03*
X109855000Y-87630000D03*
X112395000Y-87630000D03*
X109855000Y-90170000D03*
X112395000Y-90170000D03*
D16*
X90487500Y-66357500D03*
D17*
X87947500Y-66357500D03*
X90487500Y-63817500D03*
X87947500Y-63817500D03*
X90487500Y-61277500D03*
X87947500Y-61277500D03*
D16*
X103822500Y-48577500D03*
D17*
X106362500Y-48577500D03*
X103822500Y-51117500D03*
X106362500Y-51117500D03*
X103822500Y-53657500D03*
X106362500Y-53657500D03*
D16*
X150812500Y-56197500D03*
D17*
X153352500Y-56197500D03*
X150812500Y-58737500D03*
X153352500Y-58737500D03*
X150812500Y-61277500D03*
X153352500Y-61277500D03*
X150812500Y-63817500D03*
X153352500Y-63817500D03*
X150812500Y-66357500D03*
X153352500Y-66357500D03*
D18*
X153162000Y-71120000D03*
D19*
X153162000Y-73660000D03*
D20*
X146746000Y-71859140D03*
X144846000Y-71859140D03*
X145796000Y-68856860D03*
D16*
X150495000Y-81915000D03*
D17*
X153035000Y-81915000D03*
X150495000Y-84455000D03*
X153035000Y-84455000D03*
D21*
X141510000Y-61595000D03*
X145510000Y-61595000D03*
D18*
X151892000Y-51054000D03*
D19*
X151892000Y-48514000D03*
D22*
X141510000Y-53975000D03*
X145510000Y-53975000D03*
X141510000Y-59055000D03*
X145510000Y-59055000D03*
D23*
X110744000Y-77597000D03*
X110744000Y-80137000D03*
X114300000Y-96647000D03*
X114300000Y-94107000D03*
D18*
X132969000Y-48514000D03*
D19*
X135509000Y-48514000D03*
D24*
X141605000Y-64675000D03*
X141605000Y-68675000D03*
X138176000Y-68866000D03*
X138176000Y-72866000D03*
D22*
X145510000Y-56515000D03*
X141510000Y-56515000D03*
D24*
X150368000Y-74390000D03*
X150368000Y-70390000D03*
D11*
X127254000Y-55118000D03*
D25*
X128778000Y-82899000D03*
X128778000Y-78899000D03*
M02*
