M48
;DRILL file {kicad (after 2015-mar-04 BZR unknown)-product} date Wed 02 Nov 2016 01:14:21 AM CET
;FORMAT={-:-/ absolute / inch / decimal}
FMAT,2
INCH,TZ
T1C0.018
T2C0.032
T3C0.035
T4C0.039
T5C0.045
T6C0.047
T7C0.059
T8C0.118
%
G90
G05
M72
T1
X0.45Y-0.9
X0.45Y-1.
X0.45Y-1.1
X0.45Y-1.85
X0.45Y-1.925
X0.45Y-2.
X0.45Y-2.075
X0.45Y-2.15
X0.45Y-2.225
X0.525Y-2.15
X0.525Y-2.225
X0.525Y-2.3
X0.525Y-2.375
X0.525Y-2.45
X0.525Y-2.45
X0.525Y-2.45
X0.525Y-2.45
X0.525Y-2.525
X0.525Y-2.525
X0.525Y-2.525
X0.525Y-2.525
X0.525Y-2.6
X0.525Y-2.6
X0.525Y-2.6
X0.525Y-2.6
X0.725Y-3.125
X0.775Y-0.975
X0.775Y-1.05
X0.8Y-3.125
X0.85Y-0.975
X0.85Y-1.05
X0.875Y-1.55
X0.875Y-3.125
X0.9Y-2.325
X0.925Y-0.975
X0.925Y-1.05
X0.925Y-1.625
X0.95Y-1.55
X0.95Y-3.125
X0.975Y-2.325
X1.Y-2.1
X1.Y-2.925
X1.05Y-2.775
X1.075Y-2.1
X1.075Y-2.325
X1.075Y-2.925
X1.125Y-2.
X1.125Y-2.775
X1.15Y-2.1
X1.15Y-2.325
X1.175Y-1.625
X1.175Y-1.7
X1.2Y-2.
X1.225Y-2.1
X1.225Y-2.325
X1.25Y-0.975
X1.25Y-1.625
X1.25Y-1.7
X1.275Y-2.
X1.325Y-0.975
X1.325Y-1.625
X1.35Y-2.
X1.4Y-0.975
X1.4Y-1.95
X1.45Y-1.9
X1.475Y-0.975
X1.475Y-2.875
X1.475Y-3.025
X1.5Y-1.85
X1.55Y-0.975
X1.55Y-1.8
X1.55Y-2.875
X1.55Y-3.025
X1.625Y-0.975
X1.625Y-2.3
X1.625Y-2.45
X1.625Y-2.875
X1.7Y-0.975
X1.7Y-2.3
X1.7Y-2.45
X1.775Y-0.975
X1.775Y-2.3
X1.775Y-2.45
X1.85Y-2.3
X1.85Y-2.45
X1.875Y-2.775
X1.925Y-2.725
X1.975Y-2.675
X2.025Y-2.625
T2
X1.5Y-1.725
X1.5Y-2.025
X1.5Y-2.375
X1.5Y-2.675
X2.2Y-1.725
X2.2Y-2.025
X2.2Y-2.375
X2.2Y-2.675
T3
X0.6Y-1.3
X0.6Y-1.5
X0.8Y-1.3
X0.8Y-1.5
T4
X0.925Y-2.2047
X0.925Y-2.7953
X1.075Y-1.9047
X1.075Y-2.4953
T5
X0.55Y-0.9
X0.55Y-1.
X0.55Y-1.1
X0.55Y-1.85
X0.55Y-1.95
X0.55Y-2.05
X0.55Y-2.7
X0.55Y-2.8
X0.55Y-2.9
T6
X0.85Y-0.6
X1.05Y-0.6
X1.1Y-3.15
X1.3Y-3.15
X1.5Y-3.15
X1.7Y-3.15
X1.9Y-3.15
X2.1Y-3.15
X2.35Y-0.85
X2.35Y-1.05
X2.35Y-1.25
X2.35Y-1.45
T7
X1.05Y-1.05
X1.05Y-1.25
X1.05Y-1.45
X1.05Y-1.65
X1.4Y-0.5669
X1.4Y-1.4331
X1.85Y-0.5669
X1.85Y-1.4331
T8
X0.55Y-0.55
X0.55Y-3.2
X2.4Y-0.55
X2.4Y-3.2
T0
M30
