G04 #@! TF.FileFunction,Soldermask,Bot*
%FSLAX46Y46*%
G04 Gerber Fmt 4.6, Leading zero omitted, Abs format (unit mm)*
G04 Created by KiCad (PCBNEW (after 2015-mar-04 BZR unknown)-product) date Wed 02 Nov 2016 01:14:16 AM CET*
%MOMM*%
G01*
G04 APERTURE LIST*
%ADD10C,0.100000*%
%ADD11C,0.970000*%
%ADD12C,1.778000*%
%ADD13R,1.778000X1.778000*%
%ADD14C,2.200000*%
%ADD15O,2.499360X4.000500*%
%ADD16O,3.500120X1.998980*%
%ADD17O,1.998980X3.500120*%
%ADD18C,1.998980*%
%ADD19C,1.501140*%
%ADD20C,3.000000*%
%ADD21C,2.000000*%
%ADD22R,1.500000X1.250000*%
%ADD23R,1.250000X1.500000*%
G04 APERTURE END LIST*
D10*
D11*
X23495000Y-26670000D03*
X23495000Y-24765000D03*
X28575000Y-50800000D03*
X30480000Y-50800000D03*
X32385000Y-50800000D03*
X34290000Y-50800000D03*
X35560000Y-49530000D03*
X36830000Y-48260000D03*
X38100000Y-46990000D03*
X39370000Y-45720000D03*
X25400000Y-53340000D03*
X27305000Y-53340000D03*
X29210000Y-53340000D03*
X31115000Y-53340000D03*
X41275000Y-62230000D03*
X43180000Y-62230000D03*
X45085000Y-62230000D03*
X46990000Y-62230000D03*
X46990000Y-58420000D03*
X45085000Y-58420000D03*
X43180000Y-58420000D03*
X41275000Y-58420000D03*
X51435000Y-66675000D03*
X50165000Y-67945000D03*
X48895000Y-69215000D03*
X47625000Y-70485000D03*
X39370000Y-76835000D03*
X37465000Y-76835000D03*
X41275000Y-73025000D03*
X39370000Y-73025000D03*
X37465000Y-73025000D03*
X24130000Y-79375000D03*
X22225000Y-79375000D03*
X20320000Y-79375000D03*
X18415000Y-79375000D03*
X27305000Y-74295000D03*
X25400000Y-74295000D03*
X28575000Y-70485000D03*
X26670000Y-70485000D03*
X13335000Y-62230000D03*
X13335000Y-64135000D03*
X13335000Y-66040000D03*
X13335000Y-66040000D03*
X13335000Y-64135000D03*
X13335000Y-62230000D03*
X13335000Y-62230000D03*
X13335000Y-64135000D03*
X13335000Y-66040000D03*
X13335000Y-66040000D03*
X13335000Y-64135000D03*
X13335000Y-62230000D03*
X13335000Y-60325000D03*
X13335000Y-58420000D03*
X11430000Y-56515000D03*
X13335000Y-56515000D03*
X13335000Y-54610000D03*
X11430000Y-54610000D03*
X11430000Y-52705000D03*
X11430000Y-50800000D03*
X11430000Y-48895000D03*
X11430000Y-46990000D03*
X24765000Y-59055000D03*
X31115000Y-59055000D03*
X22860000Y-59055000D03*
X29210000Y-59055000D03*
X27305000Y-59055000D03*
X23495000Y-41275000D03*
X22225000Y-39370000D03*
X24130000Y-39370000D03*
X45085000Y-24765000D03*
X43180000Y-24765000D03*
X41275000Y-24765000D03*
X39370000Y-24765000D03*
X37465000Y-24765000D03*
X35560000Y-24765000D03*
X33655000Y-24765000D03*
X31750000Y-24765000D03*
X11430000Y-27940000D03*
X11430000Y-22860000D03*
X11430000Y-25400000D03*
X19685000Y-26670000D03*
X21590000Y-26670000D03*
X21590000Y-24765000D03*
X19685000Y-24765000D03*
X29845000Y-43180000D03*
X29845000Y-41275000D03*
X33655000Y-41275000D03*
X31750000Y-41275000D03*
X31750000Y-43180000D03*
D12*
X13970000Y-73660000D03*
D13*
X13970000Y-71120000D03*
D12*
X13970000Y-68580000D03*
X13970000Y-52070000D03*
D13*
X13970000Y-49530000D03*
D12*
X13970000Y-46990000D03*
X13970000Y-27940000D03*
D13*
X13970000Y-25400000D03*
D14*
X13970000Y-22860000D03*
D15*
X46990000Y-36400740D03*
X46990000Y-14399260D03*
X35560000Y-36400740D03*
X35560000Y-14399260D03*
D16*
X59690000Y-26670000D03*
X59690000Y-21590000D03*
X59690000Y-36830000D03*
X59690000Y-31750000D03*
D17*
X27940000Y-80010000D03*
X33020000Y-80010000D03*
X38100000Y-80010000D03*
X43180000Y-80010000D03*
X48260000Y-80010000D03*
X53340000Y-80010000D03*
X26670000Y-15240000D03*
X21590000Y-15240000D03*
D18*
X27305000Y-48380000D03*
X27305000Y-63380000D03*
X23495000Y-56000000D03*
X23495000Y-71000000D03*
D19*
X55880000Y-51435000D03*
X55880000Y-43815000D03*
X55880000Y-67945000D03*
X55880000Y-60325000D03*
X38100000Y-51435000D03*
X38100000Y-43815000D03*
X38100000Y-67945000D03*
X38100000Y-60325000D03*
D20*
X26670000Y-26670000D03*
X26670000Y-36830000D03*
X26670000Y-31750000D03*
X26670000Y-41910000D03*
D21*
X20320000Y-38100000D03*
X20320000Y-33020000D03*
X15240000Y-33020000D03*
X15240000Y-38100000D03*
D22*
X19030000Y-18415000D03*
X16530000Y-18415000D03*
D23*
X17145000Y-27960000D03*
X17145000Y-30460000D03*
X17780000Y-52050000D03*
X17780000Y-49550000D03*
D22*
X19705000Y-74295000D03*
X22205000Y-74295000D03*
X31730000Y-74930000D03*
X29230000Y-74930000D03*
X42271000Y-74803000D03*
X39771000Y-74803000D03*
X53320000Y-74930000D03*
X50820000Y-74930000D03*
M02*
