G04 #@! TF.FileFunction,Copper,L2,Bot,Signal*
%FSLAX46Y46*%
G04 Gerber Fmt 4.6, Leading zero omitted, Abs format (unit mm)*
G04 Created by KiCad (PCBNEW (after 2015-mar-04 BZR unknown)-product) date Wed 02 Nov 2016 01:14:16 AM CET*
%MOMM*%
G01*
G04 APERTURE LIST*
%ADD10C,0.100000*%
%ADD11C,0.970000*%
%ADD12C,1.778000*%
%ADD13R,1.778000X1.778000*%
%ADD14C,2.200000*%
%ADD15O,2.499360X4.000500*%
%ADD16O,3.500120X1.998980*%
%ADD17O,1.998980X3.500120*%
%ADD18C,1.998980*%
%ADD19C,1.501140*%
%ADD20C,3.000000*%
%ADD21C,2.000000*%
%ADD22R,1.500000X1.250000*%
%ADD23R,1.250000X1.500000*%
%ADD24C,1.000000*%
%ADD25C,0.250000*%
%ADD26C,0.254000*%
G04 APERTURE END LIST*
D10*
D11*
X23495000Y-26670000D03*
X23495000Y-24765000D03*
X28575000Y-50800000D03*
X30480000Y-50800000D03*
X32385000Y-50800000D03*
X34290000Y-50800000D03*
X35560000Y-49530000D03*
X36830000Y-48260000D03*
X38100000Y-46990000D03*
X39370000Y-45720000D03*
X25400000Y-53340000D03*
X27305000Y-53340000D03*
X29210000Y-53340000D03*
X31115000Y-53340000D03*
X41275000Y-62230000D03*
X43180000Y-62230000D03*
X45085000Y-62230000D03*
X46990000Y-62230000D03*
X46990000Y-58420000D03*
X45085000Y-58420000D03*
X43180000Y-58420000D03*
X41275000Y-58420000D03*
X51435000Y-66675000D03*
X50165000Y-67945000D03*
X48895000Y-69215000D03*
X47625000Y-70485000D03*
X39370000Y-76835000D03*
X37465000Y-76835000D03*
X41275000Y-73025000D03*
X39370000Y-73025000D03*
X37465000Y-73025000D03*
X24130000Y-79375000D03*
X22225000Y-79375000D03*
X20320000Y-79375000D03*
X18415000Y-79375000D03*
X27305000Y-74295000D03*
X25400000Y-74295000D03*
X28575000Y-70485000D03*
X26670000Y-70485000D03*
X13335000Y-62230000D03*
X13335000Y-64135000D03*
X13335000Y-66040000D03*
X13335000Y-66040000D03*
X13335000Y-64135000D03*
X13335000Y-62230000D03*
X13335000Y-62230000D03*
X13335000Y-64135000D03*
X13335000Y-66040000D03*
X13335000Y-66040000D03*
X13335000Y-64135000D03*
X13335000Y-62230000D03*
X13335000Y-60325000D03*
X13335000Y-58420000D03*
X11430000Y-56515000D03*
X13335000Y-56515000D03*
X13335000Y-54610000D03*
X11430000Y-54610000D03*
X11430000Y-52705000D03*
X11430000Y-50800000D03*
X11430000Y-48895000D03*
X11430000Y-46990000D03*
X24765000Y-59055000D03*
X31115000Y-59055000D03*
X22860000Y-59055000D03*
X29210000Y-59055000D03*
X27305000Y-59055000D03*
X23495000Y-41275000D03*
X22225000Y-39370000D03*
X24130000Y-39370000D03*
X45085000Y-24765000D03*
X43180000Y-24765000D03*
X41275000Y-24765000D03*
X39370000Y-24765000D03*
X37465000Y-24765000D03*
X35560000Y-24765000D03*
X33655000Y-24765000D03*
X31750000Y-24765000D03*
X11430000Y-27940000D03*
X11430000Y-22860000D03*
X11430000Y-25400000D03*
X19685000Y-26670000D03*
X21590000Y-26670000D03*
X21590000Y-24765000D03*
X19685000Y-24765000D03*
X29845000Y-43180000D03*
X29845000Y-41275000D03*
X33655000Y-41275000D03*
X31750000Y-41275000D03*
X31750000Y-43180000D03*
D12*
X13970000Y-73660000D03*
D13*
X13970000Y-71120000D03*
D12*
X13970000Y-68580000D03*
X13970000Y-52070000D03*
D13*
X13970000Y-49530000D03*
D12*
X13970000Y-46990000D03*
X13970000Y-27940000D03*
D13*
X13970000Y-25400000D03*
D14*
X13970000Y-22860000D03*
D15*
X46990000Y-36400740D03*
X46990000Y-14399260D03*
X35560000Y-36400740D03*
X35560000Y-14399260D03*
D16*
X59690000Y-26670000D03*
X59690000Y-21590000D03*
X59690000Y-36830000D03*
X59690000Y-31750000D03*
D17*
X27940000Y-80010000D03*
X33020000Y-80010000D03*
X38100000Y-80010000D03*
X43180000Y-80010000D03*
X48260000Y-80010000D03*
X53340000Y-80010000D03*
X26670000Y-15240000D03*
X21590000Y-15240000D03*
D18*
X27305000Y-48380000D03*
X27305000Y-63380000D03*
X23495000Y-56000000D03*
X23495000Y-71000000D03*
D19*
X55880000Y-51435000D03*
X55880000Y-43815000D03*
X55880000Y-67945000D03*
X55880000Y-60325000D03*
X38100000Y-51435000D03*
X38100000Y-43815000D03*
X38100000Y-67945000D03*
X38100000Y-60325000D03*
D20*
X26670000Y-26670000D03*
X26670000Y-36830000D03*
X26670000Y-31750000D03*
X26670000Y-41910000D03*
D21*
X20320000Y-38100000D03*
X20320000Y-33020000D03*
X15240000Y-33020000D03*
X15240000Y-38100000D03*
D22*
X19030000Y-18415000D03*
X16530000Y-18415000D03*
D23*
X17145000Y-27960000D03*
X17145000Y-30460000D03*
X17780000Y-52050000D03*
X17780000Y-49550000D03*
D22*
X19705000Y-74295000D03*
X22205000Y-74295000D03*
X31730000Y-74930000D03*
X29230000Y-74930000D03*
X42271000Y-74803000D03*
X39771000Y-74803000D03*
X53320000Y-74930000D03*
X50820000Y-74930000D03*
D24*
X19685000Y-68580000D02*
X17145000Y-68580000D01*
X60960000Y-48895000D02*
X60960000Y-60960000D01*
X60960000Y-60960000D02*
X57785000Y-64135000D01*
X57785000Y-64135000D02*
X50800000Y-64135000D01*
X50800000Y-64135000D02*
X45720000Y-69215000D01*
X45720000Y-69215000D02*
X45720000Y-83185000D01*
X45720000Y-83185000D02*
X35560000Y-83185000D01*
X35560000Y-83185000D02*
X35560000Y-74295000D01*
X35560000Y-74295000D02*
X29845000Y-68580000D01*
X29845000Y-68580000D02*
X19685000Y-68580000D01*
X55880000Y-43815000D02*
X60960000Y-48895000D01*
X17145000Y-68580000D02*
X17145000Y-69850000D01*
X38100000Y-43815000D02*
X33655000Y-48260000D01*
X33655000Y-48260000D02*
X27425000Y-48260000D01*
X27425000Y-48260000D02*
X27305000Y-48380000D01*
X38100000Y-43815000D02*
X55880000Y-43815000D01*
D25*
X13970000Y-52070000D02*
X17260000Y-52070000D01*
X17260000Y-52070000D02*
X17780000Y-51550000D01*
D24*
X17145000Y-55245000D02*
X13970000Y-52070000D01*
X17145000Y-55245000D02*
X17145000Y-69850000D01*
X13970000Y-73660000D02*
X17145000Y-73660000D01*
X17145000Y-69850000D02*
X17145000Y-73660000D01*
X26670000Y-23495000D02*
X21590000Y-18415000D01*
X21590000Y-18415000D02*
X21590000Y-15240000D01*
X26670000Y-26670000D02*
X26670000Y-23495000D01*
X48260000Y-26670000D02*
X55880000Y-34290000D01*
X55880000Y-34290000D02*
X62865000Y-34290000D01*
X62865000Y-34290000D02*
X62865000Y-43815000D01*
X62865000Y-43815000D02*
X55880000Y-43815000D01*
X26670000Y-26670000D02*
X48260000Y-26670000D01*
D25*
X19050000Y-15240000D02*
X19030000Y-15260000D01*
X19030000Y-15260000D02*
X19030000Y-18415000D01*
X21590000Y-15240000D02*
X19050000Y-15240000D01*
X19070000Y-73660000D02*
X19705000Y-74295000D01*
X13970000Y-73660000D02*
X19070000Y-73660000D01*
D24*
X12065000Y-33020000D02*
X15240000Y-33020000D01*
X12065000Y-43815000D02*
X12065000Y-43815000D01*
X13970000Y-27940000D02*
X13970000Y-30480000D01*
X13970000Y-30480000D02*
X12065000Y-32385000D01*
X12065000Y-32385000D02*
X12065000Y-33020000D01*
X12065000Y-33020000D02*
X12065000Y-38100000D01*
X23495000Y-55245000D02*
X23495000Y-55245000D01*
X12065000Y-38100000D02*
X12065000Y-43815000D01*
X23495000Y-48260000D02*
X23495000Y-55245000D01*
X19050000Y-43815000D02*
X23495000Y-48260000D01*
X13335000Y-43815000D02*
X19050000Y-43815000D01*
X12065000Y-43815000D02*
X13335000Y-43815000D01*
X23495000Y-56000000D02*
X33775000Y-56000000D01*
X33775000Y-56000000D02*
X38100000Y-60325000D01*
X38100000Y-60325000D02*
X55880000Y-60325000D01*
D25*
X13970000Y-27940000D02*
X17566600Y-27940000D01*
X17566600Y-27940000D02*
X17576800Y-27950200D01*
D24*
X23495000Y-55245000D02*
X23495000Y-56000000D01*
D25*
X33020000Y-76220000D02*
X31730000Y-74930000D01*
X33020000Y-80010000D02*
X33020000Y-76220000D01*
D24*
X16510000Y-76835000D02*
X32999673Y-76835130D01*
X13970000Y-68580000D02*
X12065000Y-68580000D01*
X12065000Y-76835000D02*
X16510000Y-76835000D01*
X12065000Y-68580000D02*
X12065000Y-76835000D01*
X32999673Y-76835130D02*
X33020000Y-80010000D01*
X20320000Y-66040000D02*
X20320000Y-48895000D01*
X43180000Y-80010000D02*
X43180000Y-72390000D01*
X41275000Y-70485000D02*
X43180000Y-72390000D01*
X36195000Y-70485000D02*
X41275000Y-70485000D01*
X31750000Y-66040000D02*
X36195000Y-70485000D01*
X20320000Y-66040000D02*
X31750000Y-66040000D01*
X18415000Y-46990000D02*
X13970000Y-46990000D01*
X20320000Y-48895000D02*
X18415000Y-46990000D01*
D25*
X43180000Y-80010000D02*
X43180000Y-75450000D01*
X43180000Y-75450000D02*
X42660000Y-74930000D01*
X43180000Y-75712000D02*
X42271000Y-74803000D01*
X43180000Y-80010000D02*
X43180000Y-75712000D01*
X53340000Y-75450000D02*
X52820000Y-74930000D01*
X53086000Y-74930000D02*
X52766000Y-74930000D01*
X53340000Y-74950000D02*
X53320000Y-74930000D01*
X53340000Y-80010000D02*
X53340000Y-74950000D01*
D24*
X32385000Y-32385000D02*
X38735000Y-32385000D01*
X27940000Y-36830000D02*
X32385000Y-32385000D01*
X40005000Y-40640000D02*
X56515000Y-40640000D01*
X56515000Y-40640000D02*
X59690000Y-37465000D01*
X40005000Y-33655000D02*
X40005000Y-40640000D01*
X38735000Y-32385000D02*
X40005000Y-33655000D01*
X20320000Y-33020000D02*
X24130000Y-36830000D01*
X24130000Y-36830000D02*
X26670000Y-36830000D01*
X59690000Y-37465000D02*
X59690000Y-36830000D01*
X26670000Y-36830000D02*
X27940000Y-36830000D01*
X30480000Y-29845000D02*
X28575000Y-29845000D01*
X28575000Y-29845000D02*
X26670000Y-31750000D01*
X30274260Y-29845000D02*
X30480000Y-29845000D01*
X30480000Y-29845000D02*
X40640000Y-29845000D01*
X40640000Y-29845000D02*
X46990000Y-36195000D01*
X35560000Y-36400740D02*
X35560000Y-41910000D01*
X15240000Y-41275000D02*
X15240000Y-38100000D01*
X20320000Y-41275000D02*
X15240000Y-41275000D01*
X24765000Y-45720000D02*
X20320000Y-41275000D01*
X31750000Y-45720000D02*
X24765000Y-45720000D01*
X35560000Y-41910000D02*
X31750000Y-45720000D01*
X54180740Y-21590000D02*
X46990000Y-14399260D01*
X59690000Y-21590000D02*
X54180740Y-21590000D01*
X59690000Y-26670000D02*
X54610000Y-26670000D01*
X39575740Y-18415000D02*
X35560000Y-14399260D01*
X46355000Y-18415000D02*
X39575740Y-18415000D01*
X54610000Y-26670000D02*
X46355000Y-18415000D01*
X59690000Y-26670000D02*
X59690000Y-31750000D01*
D26*
G36*
X34425000Y-78429960D02*
X34175759Y-78056945D01*
X34142376Y-78034639D01*
X34134650Y-76827863D01*
X34090763Y-76614381D01*
X34048279Y-76400792D01*
X34046220Y-76397711D01*
X34045474Y-76394079D01*
X33923251Y-76213671D01*
X33802245Y-76032570D01*
X33799162Y-76030510D01*
X33797084Y-76027442D01*
X33733342Y-75985439D01*
X33722148Y-75929161D01*
X33722147Y-75929160D01*
X33667480Y-75847345D01*
X33557401Y-75682599D01*
X33557401Y-75682598D01*
X33127440Y-75252637D01*
X33127440Y-74305000D01*
X33080463Y-74062877D01*
X32940673Y-73850073D01*
X32729640Y-73707623D01*
X32480000Y-73657560D01*
X30980000Y-73657560D01*
X30737877Y-73704537D01*
X30525073Y-73844327D01*
X30382623Y-74055360D01*
X30332560Y-74305000D01*
X30332560Y-75555000D01*
X30360714Y-75700109D01*
X16510009Y-75700000D01*
X16510004Y-75700000D01*
X16510000Y-75700000D01*
X13200000Y-75700000D01*
X13200000Y-74990430D01*
X13665528Y-75183735D01*
X14271812Y-75184264D01*
X14832149Y-74952738D01*
X14990162Y-74795000D01*
X17145000Y-74795000D01*
X17579346Y-74708603D01*
X17947566Y-74462566D01*
X17976007Y-74420000D01*
X18307560Y-74420000D01*
X18307560Y-74920000D01*
X18354537Y-75162123D01*
X18494327Y-75374927D01*
X18705360Y-75517377D01*
X18955000Y-75567440D01*
X20455000Y-75567440D01*
X20697123Y-75520463D01*
X20909927Y-75380673D01*
X21052377Y-75169640D01*
X21102440Y-74920000D01*
X21102440Y-73670000D01*
X21055463Y-73427877D01*
X20915673Y-73215073D01*
X20704640Y-73072623D01*
X20455000Y-73022560D01*
X19457681Y-73022560D01*
X19360839Y-72957852D01*
X19070000Y-72900000D01*
X18280000Y-72900000D01*
X18280000Y-69850000D01*
X18280000Y-69715000D01*
X19685000Y-69715000D01*
X29374867Y-69715000D01*
X34425000Y-74765132D01*
X34425000Y-78429960D01*
X34425000Y-78429960D01*
G37*
X34425000Y-78429960D02*
X34175759Y-78056945D01*
X34142376Y-78034639D01*
X34134650Y-76827863D01*
X34090763Y-76614381D01*
X34048279Y-76400792D01*
X34046220Y-76397711D01*
X34045474Y-76394079D01*
X33923251Y-76213671D01*
X33802245Y-76032570D01*
X33799162Y-76030510D01*
X33797084Y-76027442D01*
X33733342Y-75985439D01*
X33722148Y-75929161D01*
X33722147Y-75929160D01*
X33667480Y-75847345D01*
X33557401Y-75682599D01*
X33557401Y-75682598D01*
X33127440Y-75252637D01*
X33127440Y-74305000D01*
X33080463Y-74062877D01*
X32940673Y-73850073D01*
X32729640Y-73707623D01*
X32480000Y-73657560D01*
X30980000Y-73657560D01*
X30737877Y-73704537D01*
X30525073Y-73844327D01*
X30382623Y-74055360D01*
X30332560Y-74305000D01*
X30332560Y-75555000D01*
X30360714Y-75700109D01*
X16510009Y-75700000D01*
X16510004Y-75700000D01*
X16510000Y-75700000D01*
X13200000Y-75700000D01*
X13200000Y-74990430D01*
X13665528Y-75183735D01*
X14271812Y-75184264D01*
X14832149Y-74952738D01*
X14990162Y-74795000D01*
X17145000Y-74795000D01*
X17579346Y-74708603D01*
X17947566Y-74462566D01*
X17976007Y-74420000D01*
X18307560Y-74420000D01*
X18307560Y-74920000D01*
X18354537Y-75162123D01*
X18494327Y-75374927D01*
X18705360Y-75517377D01*
X18955000Y-75567440D01*
X20455000Y-75567440D01*
X20697123Y-75520463D01*
X20909927Y-75380673D01*
X21052377Y-75169640D01*
X21102440Y-74920000D01*
X21102440Y-73670000D01*
X21055463Y-73427877D01*
X20915673Y-73215073D01*
X20704640Y-73072623D01*
X20455000Y-73022560D01*
X19457681Y-73022560D01*
X19360839Y-72957852D01*
X19070000Y-72900000D01*
X18280000Y-72900000D01*
X18280000Y-69850000D01*
X18280000Y-69715000D01*
X19685000Y-69715000D01*
X29374867Y-69715000D01*
X34425000Y-74765132D01*
X34425000Y-78429960D01*
G36*
X64085000Y-84405000D02*
X64000000Y-84405000D01*
X64000000Y-43815000D01*
X64000000Y-34290000D01*
X63913603Y-33855654D01*
X63667566Y-33487434D01*
X63299346Y-33241397D01*
X63095240Y-33200797D01*
X63095240Y-13547211D01*
X62770910Y-12762273D01*
X62170886Y-12161200D01*
X61386515Y-11835501D01*
X60537211Y-11834760D01*
X59752273Y-12159090D01*
X59151200Y-12759114D01*
X58825501Y-13543485D01*
X58824760Y-14392789D01*
X59149090Y-15177727D01*
X59749114Y-15778800D01*
X60533485Y-16104499D01*
X61382789Y-16105240D01*
X62167727Y-15780910D01*
X62768800Y-15180886D01*
X63094499Y-14396515D01*
X63095240Y-13547211D01*
X63095240Y-33200797D01*
X62865000Y-33155000D01*
X61270039Y-33155000D01*
X61643055Y-32905759D01*
X61997368Y-32375492D01*
X62121786Y-31750000D01*
X61997368Y-31124508D01*
X61643055Y-30594241D01*
X61112788Y-30239928D01*
X60825000Y-30182683D01*
X60825000Y-28237316D01*
X61112788Y-28180072D01*
X61643055Y-27825759D01*
X61997368Y-27295492D01*
X62121786Y-26670000D01*
X62121786Y-21590000D01*
X61997368Y-20964508D01*
X61643055Y-20434241D01*
X61112788Y-20079928D01*
X60487296Y-19955510D01*
X58892704Y-19955510D01*
X58267212Y-20079928D01*
X57736945Y-20434241D01*
X57723074Y-20455000D01*
X54650872Y-20455000D01*
X48874680Y-14678808D01*
X48874680Y-13597062D01*
X48731217Y-12875826D01*
X48322670Y-12264392D01*
X47711236Y-11855845D01*
X46990000Y-11712382D01*
X46268764Y-11855845D01*
X45657330Y-12264392D01*
X45248783Y-12875826D01*
X45105320Y-13597062D01*
X45105320Y-15201458D01*
X45248783Y-15922694D01*
X45657330Y-16534128D01*
X46268764Y-16942675D01*
X46990000Y-17086138D01*
X47711236Y-16942675D01*
X47841346Y-16855738D01*
X53378174Y-22392566D01*
X53746394Y-22638603D01*
X53746395Y-22638603D01*
X54180740Y-22725000D01*
X57723074Y-22725000D01*
X57736945Y-22745759D01*
X58267212Y-23100072D01*
X58892704Y-23224490D01*
X60487296Y-23224490D01*
X61112788Y-23100072D01*
X61643055Y-22745759D01*
X61997368Y-22215492D01*
X62121786Y-21590000D01*
X62121786Y-26670000D01*
X61997368Y-26044508D01*
X61643055Y-25514241D01*
X61112788Y-25159928D01*
X60487296Y-25035510D01*
X58892704Y-25035510D01*
X58267212Y-25159928D01*
X57736945Y-25514241D01*
X57723074Y-25535000D01*
X55080132Y-25535000D01*
X47157566Y-17612434D01*
X46789346Y-17366397D01*
X46355000Y-17280000D01*
X40045872Y-17280000D01*
X37444680Y-14678808D01*
X37444680Y-13597062D01*
X37301217Y-12875826D01*
X36892670Y-12264392D01*
X36281236Y-11855845D01*
X35560000Y-11712382D01*
X34838764Y-11855845D01*
X34227330Y-12264392D01*
X33818783Y-12875826D01*
X33675320Y-13597062D01*
X33675320Y-15201458D01*
X33818783Y-15922694D01*
X34227330Y-16534128D01*
X34838764Y-16942675D01*
X35560000Y-17086138D01*
X36281236Y-16942675D01*
X36411346Y-16855738D01*
X38773174Y-19217566D01*
X39141394Y-19463603D01*
X39141395Y-19463603D01*
X39575740Y-19550000D01*
X45884867Y-19550000D01*
X53807434Y-27472566D01*
X54175654Y-27718603D01*
X54175655Y-27718603D01*
X54610000Y-27805000D01*
X57723074Y-27805000D01*
X57736945Y-27825759D01*
X58267212Y-28180072D01*
X58555000Y-28237316D01*
X58555000Y-30182683D01*
X58267212Y-30239928D01*
X57736945Y-30594241D01*
X57382632Y-31124508D01*
X57258214Y-31750000D01*
X57382632Y-32375492D01*
X57736945Y-32905759D01*
X58109960Y-33155000D01*
X56350132Y-33155000D01*
X49062566Y-25867434D01*
X48694346Y-25621397D01*
X48260000Y-25535000D01*
X28511100Y-25535000D01*
X28481020Y-25462200D01*
X27880959Y-24861091D01*
X27805000Y-24829550D01*
X27805000Y-23495000D01*
X27718603Y-23060655D01*
X27718603Y-23060654D01*
X27472566Y-22692434D01*
X22725000Y-17944868D01*
X22725000Y-17206925D01*
X22745759Y-17193055D01*
X23100072Y-16662788D01*
X23224490Y-16037296D01*
X23224490Y-14442704D01*
X23100072Y-13817212D01*
X22745759Y-13286945D01*
X22215492Y-12932632D01*
X21590000Y-12808214D01*
X20964508Y-12932632D01*
X20434241Y-13286945D01*
X20079928Y-13817212D01*
X19955510Y-14442704D01*
X19955510Y-14480000D01*
X19050000Y-14480000D01*
X18759160Y-14537852D01*
X18512599Y-14702599D01*
X18492599Y-14722599D01*
X18327852Y-14969161D01*
X18270000Y-15260000D01*
X18270000Y-17144500D01*
X18037877Y-17189537D01*
X17825073Y-17329327D01*
X17682623Y-17540360D01*
X17632560Y-17790000D01*
X17632560Y-19040000D01*
X17679537Y-19282123D01*
X17819327Y-19494927D01*
X18030360Y-19637377D01*
X18280000Y-19687440D01*
X19780000Y-19687440D01*
X20022123Y-19640463D01*
X20234927Y-19500673D01*
X20377377Y-19289640D01*
X20427440Y-19040000D01*
X20427440Y-17790000D01*
X20380463Y-17547877D01*
X20240673Y-17335073D01*
X20029640Y-17192623D01*
X19790000Y-17144565D01*
X19790000Y-16000000D01*
X19955510Y-16000000D01*
X19955510Y-16037296D01*
X20079928Y-16662788D01*
X20434241Y-17193055D01*
X20455000Y-17206925D01*
X20455000Y-18415000D01*
X20541397Y-18849346D01*
X20787434Y-19217566D01*
X25535000Y-23965132D01*
X25535000Y-24828899D01*
X25462200Y-24858980D01*
X24861091Y-25459041D01*
X24535372Y-26243459D01*
X24534630Y-27092815D01*
X24858980Y-27877800D01*
X25459041Y-28478909D01*
X26243459Y-28804628D01*
X27092815Y-28805370D01*
X27877800Y-28481020D01*
X28478909Y-27880959D01*
X28510449Y-27805000D01*
X47789868Y-27805000D01*
X55077434Y-35092566D01*
X55445654Y-35338603D01*
X55880000Y-35425000D01*
X58109960Y-35425000D01*
X57736945Y-35674241D01*
X57382632Y-36204508D01*
X57258214Y-36830000D01*
X57382632Y-37455492D01*
X57667716Y-37882151D01*
X56044868Y-39505000D01*
X48874680Y-39505000D01*
X48874680Y-37202938D01*
X48874680Y-35598542D01*
X48731217Y-34877306D01*
X48322670Y-34265872D01*
X47711236Y-33857325D01*
X46990000Y-33713862D01*
X46268764Y-33857325D01*
X46261985Y-33861853D01*
X41442566Y-29042434D01*
X41074346Y-28796397D01*
X40640000Y-28710000D01*
X30480000Y-28710000D01*
X30274260Y-28710000D01*
X28575000Y-28710000D01*
X28140654Y-28796397D01*
X27772434Y-29042434D01*
X27169288Y-29645579D01*
X27096541Y-29615372D01*
X26247185Y-29614630D01*
X25462200Y-29938980D01*
X24861091Y-30539041D01*
X24535372Y-31323459D01*
X24534630Y-32172815D01*
X24858980Y-32957800D01*
X25459041Y-33558909D01*
X26243459Y-33884628D01*
X27092815Y-33885370D01*
X27877800Y-33561020D01*
X28478909Y-32960959D01*
X28804628Y-32176541D01*
X28805370Y-31327185D01*
X28773961Y-31251170D01*
X29045132Y-30980000D01*
X30274260Y-30980000D01*
X30480000Y-30980000D01*
X40169868Y-30980000D01*
X45105320Y-35915452D01*
X45105320Y-37202938D01*
X45248783Y-37924174D01*
X45657330Y-38535608D01*
X46268764Y-38944155D01*
X46990000Y-39087618D01*
X47711236Y-38944155D01*
X48322670Y-38535608D01*
X48731217Y-37924174D01*
X48874680Y-37202938D01*
X48874680Y-39505000D01*
X41140000Y-39505000D01*
X41140000Y-33655000D01*
X41053603Y-33220655D01*
X41053603Y-33220654D01*
X40807566Y-32852434D01*
X39537566Y-31582434D01*
X39169346Y-31336397D01*
X38735000Y-31250000D01*
X32385000Y-31250000D01*
X31950654Y-31336397D01*
X31582434Y-31582434D01*
X28012253Y-35152614D01*
X27880959Y-35021091D01*
X27096541Y-34695372D01*
X26247185Y-34694630D01*
X25462200Y-35018980D01*
X24861091Y-35619041D01*
X24829550Y-35695000D01*
X24600132Y-35695000D01*
X21954975Y-33049843D01*
X21955284Y-32696205D01*
X21706894Y-32095057D01*
X21247363Y-31634722D01*
X20646648Y-31385284D01*
X19996205Y-31384716D01*
X19395057Y-31633106D01*
X18934722Y-32092637D01*
X18685284Y-32693352D01*
X18684716Y-33343795D01*
X18933106Y-33944943D01*
X19392637Y-34405278D01*
X19993352Y-34654716D01*
X20349895Y-34655027D01*
X23327434Y-37632566D01*
X23695654Y-37878603D01*
X23695655Y-37878604D01*
X24130000Y-37965000D01*
X24828899Y-37965000D01*
X24858980Y-38037800D01*
X25459041Y-38638909D01*
X26243459Y-38964628D01*
X27092815Y-38965370D01*
X27877800Y-38641020D01*
X28478909Y-38040959D01*
X28612363Y-37719564D01*
X28742566Y-37632566D01*
X32855132Y-33520000D01*
X38264868Y-33520000D01*
X38870000Y-34125132D01*
X38870000Y-40640000D01*
X38956397Y-41074346D01*
X39202434Y-41442566D01*
X39570654Y-41688603D01*
X40005000Y-41775000D01*
X56515000Y-41775000D01*
X56949345Y-41688603D01*
X56949346Y-41688603D01*
X57317566Y-41442566D01*
X60295642Y-38464490D01*
X60487296Y-38464490D01*
X61112788Y-38340072D01*
X61643055Y-37985759D01*
X61730000Y-37855636D01*
X61730000Y-42680000D01*
X56704763Y-42680000D01*
X56665887Y-42641056D01*
X56156816Y-42429671D01*
X55605602Y-42429190D01*
X55096163Y-42639686D01*
X55055778Y-42680000D01*
X38924763Y-42680000D01*
X38885887Y-42641056D01*
X38376816Y-42429671D01*
X37825602Y-42429190D01*
X37316163Y-42639686D01*
X36926056Y-43029113D01*
X36714671Y-43538184D01*
X36714621Y-43595246D01*
X33184868Y-47125000D01*
X28361692Y-47125000D01*
X28232073Y-46995154D01*
X27894544Y-46855000D01*
X31750000Y-46855000D01*
X32184345Y-46768603D01*
X32184346Y-46768603D01*
X32552566Y-46522566D01*
X36362566Y-42712566D01*
X36608603Y-42344346D01*
X36608604Y-42344345D01*
X36695000Y-41910000D01*
X36695000Y-38667686D01*
X36892670Y-38535608D01*
X37301217Y-37924174D01*
X37444680Y-37202938D01*
X37444680Y-35598542D01*
X37301217Y-34877306D01*
X36892670Y-34265872D01*
X36281236Y-33857325D01*
X35560000Y-33713862D01*
X34838764Y-33857325D01*
X34227330Y-34265872D01*
X33818783Y-34877306D01*
X33675320Y-35598542D01*
X33675320Y-37202938D01*
X33818783Y-37924174D01*
X34227330Y-38535608D01*
X34425000Y-38667686D01*
X34425000Y-41439868D01*
X31279868Y-44585000D01*
X25235132Y-44585000D01*
X21122566Y-40472434D01*
X20754346Y-40226397D01*
X20320000Y-40140000D01*
X16375000Y-40140000D01*
X16375000Y-39277203D01*
X16625278Y-39027363D01*
X16874716Y-38426648D01*
X16875284Y-37776205D01*
X16626894Y-37175057D01*
X16167363Y-36714722D01*
X15566648Y-36465284D01*
X14916205Y-36464716D01*
X14315057Y-36713106D01*
X13854722Y-37172637D01*
X13605284Y-37773352D01*
X13604716Y-38423795D01*
X13853106Y-39024943D01*
X14105000Y-39277277D01*
X14105000Y-41275000D01*
X14191397Y-41709346D01*
X14437434Y-42077566D01*
X14805654Y-42323603D01*
X15240000Y-42410000D01*
X19849868Y-42410000D01*
X23962434Y-46522566D01*
X24330654Y-46768603D01*
X24330655Y-46768603D01*
X24765000Y-46855000D01*
X26715632Y-46855000D01*
X26380345Y-46993538D01*
X25920154Y-47452927D01*
X25670794Y-48053453D01*
X25670226Y-48703694D01*
X25918538Y-49304655D01*
X26377927Y-49764846D01*
X26978453Y-50014206D01*
X27628694Y-50014774D01*
X28229655Y-49766462D01*
X28601765Y-49395000D01*
X33655000Y-49395000D01*
X34089345Y-49308603D01*
X34089346Y-49308603D01*
X34457566Y-49062566D01*
X38319370Y-45200761D01*
X38374398Y-45200810D01*
X38883837Y-44990314D01*
X38924221Y-44950000D01*
X55055236Y-44950000D01*
X55094113Y-44988944D01*
X55603184Y-45200329D01*
X55660246Y-45200378D01*
X59825000Y-49365132D01*
X59825000Y-60489868D01*
X57314868Y-63000000D01*
X57265810Y-63000000D01*
X57265810Y-60050602D01*
X57055314Y-59541163D01*
X56665887Y-59151056D01*
X56156816Y-58939671D01*
X55605602Y-58939190D01*
X55096163Y-59149686D01*
X55055778Y-59190000D01*
X38924763Y-59190000D01*
X38885887Y-59151056D01*
X38376816Y-58939671D01*
X38319753Y-58939621D01*
X34577566Y-55197434D01*
X34209346Y-54951397D01*
X33775000Y-54865000D01*
X24671483Y-54865000D01*
X24630000Y-54823443D01*
X24630000Y-48260000D01*
X24543603Y-47825655D01*
X24543603Y-47825654D01*
X24297566Y-47457434D01*
X19852566Y-43012434D01*
X19484346Y-42766397D01*
X19050000Y-42680000D01*
X13335000Y-42680000D01*
X13200000Y-42680000D01*
X13200000Y-38100000D01*
X13200000Y-34155000D01*
X14062796Y-34155000D01*
X14312637Y-34405278D01*
X14913352Y-34654716D01*
X15563795Y-34655284D01*
X16164943Y-34406894D01*
X16625278Y-33947363D01*
X16874716Y-33346648D01*
X16875284Y-32696205D01*
X16626894Y-32095057D01*
X16167363Y-31634722D01*
X15566648Y-31385284D01*
X14916205Y-31384716D01*
X14497346Y-31557785D01*
X14772566Y-31282566D01*
X15018603Y-30914346D01*
X15018603Y-30914345D01*
X15105000Y-30480000D01*
X15105000Y-28960362D01*
X15261231Y-28804404D01*
X15304583Y-28700000D01*
X15872560Y-28700000D01*
X15872560Y-28710000D01*
X15919537Y-28952123D01*
X16059327Y-29164927D01*
X16270360Y-29307377D01*
X16520000Y-29357440D01*
X17770000Y-29357440D01*
X18012123Y-29310463D01*
X18224927Y-29170673D01*
X18367377Y-28959640D01*
X18417440Y-28710000D01*
X18417440Y-27210000D01*
X18370463Y-26967877D01*
X18230673Y-26755073D01*
X18019640Y-26612623D01*
X17770000Y-26562560D01*
X16520000Y-26562560D01*
X16277877Y-26609537D01*
X16105240Y-26722941D01*
X16105240Y-13547211D01*
X15780910Y-12762273D01*
X15180886Y-12161200D01*
X14396515Y-11835501D01*
X13547211Y-11834760D01*
X12762273Y-12159090D01*
X12161200Y-12759114D01*
X11835501Y-13543485D01*
X11834760Y-14392789D01*
X12159090Y-15177727D01*
X12759114Y-15778800D01*
X13543485Y-16104499D01*
X14392789Y-16105240D01*
X15177727Y-15780910D01*
X15778800Y-15180886D01*
X16104499Y-14396515D01*
X16105240Y-13547211D01*
X16105240Y-26722941D01*
X16065073Y-26749327D01*
X15922623Y-26960360D01*
X15878576Y-27180000D01*
X15705301Y-27180000D01*
X15705301Y-22516401D01*
X15441719Y-21878485D01*
X14954082Y-21389996D01*
X14316627Y-21125301D01*
X13626401Y-21124699D01*
X12988485Y-21388281D01*
X12499996Y-21875918D01*
X12235301Y-22513373D01*
X12234699Y-23203599D01*
X12498281Y-23841515D01*
X12985918Y-24330004D01*
X13623373Y-24594699D01*
X14313599Y-24595301D01*
X14951515Y-24331719D01*
X15440004Y-23844082D01*
X15704699Y-23206627D01*
X15705301Y-22516401D01*
X15705301Y-27180000D01*
X15304945Y-27180000D01*
X15262738Y-27077851D01*
X14834404Y-26648769D01*
X14274472Y-26416265D01*
X13668188Y-26415736D01*
X13107851Y-26647262D01*
X12678769Y-27075596D01*
X12446265Y-27635528D01*
X12445736Y-28241812D01*
X12677262Y-28802149D01*
X12835000Y-28960162D01*
X12835000Y-30009868D01*
X11262434Y-31582434D01*
X11016397Y-31950654D01*
X10930000Y-32385000D01*
X10930000Y-33020000D01*
X10930000Y-38100000D01*
X10930000Y-43815000D01*
X11016397Y-44249346D01*
X11262434Y-44617566D01*
X11630654Y-44863603D01*
X12065000Y-44950000D01*
X13335000Y-44950000D01*
X18579868Y-44950000D01*
X22360000Y-48730132D01*
X22360000Y-54823516D01*
X22110154Y-55072927D01*
X21860794Y-55673453D01*
X21860226Y-56323694D01*
X22108538Y-56924655D01*
X22567927Y-57384846D01*
X23168453Y-57634206D01*
X23818694Y-57634774D01*
X24419655Y-57386462D01*
X24671556Y-57135000D01*
X33304868Y-57135000D01*
X36714238Y-60544370D01*
X36714190Y-60599398D01*
X36924686Y-61108837D01*
X37314113Y-61498944D01*
X37823184Y-61710329D01*
X38374398Y-61710810D01*
X38883837Y-61500314D01*
X38924221Y-61460000D01*
X55055236Y-61460000D01*
X55094113Y-61498944D01*
X55603184Y-61710329D01*
X56154398Y-61710810D01*
X56663837Y-61500314D01*
X57053944Y-61110887D01*
X57265329Y-60601816D01*
X57265810Y-60050602D01*
X57265810Y-63000000D01*
X50800000Y-63000000D01*
X50365654Y-63086397D01*
X49997434Y-63332434D01*
X44917434Y-68412434D01*
X44671397Y-68780654D01*
X44585000Y-69215000D01*
X44585000Y-78429960D01*
X44335759Y-78056945D01*
X44315000Y-78043074D01*
X44315000Y-72390000D01*
X44228603Y-71955655D01*
X44228603Y-71955654D01*
X43982566Y-71587434D01*
X42077566Y-69682434D01*
X41709346Y-69436397D01*
X41275000Y-69350000D01*
X36665132Y-69350000D01*
X32552566Y-65237434D01*
X32184346Y-64991397D01*
X31750000Y-64905000D01*
X21455000Y-64905000D01*
X21455000Y-48895000D01*
X21368603Y-48460655D01*
X21368603Y-48460654D01*
X21122566Y-48092434D01*
X19217566Y-46187434D01*
X18849346Y-45941397D01*
X18415000Y-45855000D01*
X14990362Y-45855000D01*
X14834404Y-45698769D01*
X14274472Y-45466265D01*
X13668188Y-45465736D01*
X13107851Y-45697262D01*
X12678769Y-46125596D01*
X12446265Y-46685528D01*
X12445736Y-47291812D01*
X12677262Y-47852149D01*
X13105596Y-48281231D01*
X13665528Y-48513735D01*
X14271812Y-48514264D01*
X14832149Y-48282738D01*
X14990162Y-48125000D01*
X17944868Y-48125000D01*
X19185000Y-49365132D01*
X19185000Y-66040000D01*
X19271397Y-66474346D01*
X19517434Y-66842566D01*
X19885654Y-67088603D01*
X20320000Y-67175000D01*
X31279868Y-67175000D01*
X35392434Y-71287566D01*
X35760654Y-71533603D01*
X35760655Y-71533603D01*
X36195000Y-71620000D01*
X40804868Y-71620000D01*
X42045000Y-72860132D01*
X42045000Y-73530560D01*
X41521000Y-73530560D01*
X41278877Y-73577537D01*
X41066073Y-73717327D01*
X40923623Y-73928360D01*
X40873560Y-74178000D01*
X40873560Y-75428000D01*
X40920537Y-75670123D01*
X41060327Y-75882927D01*
X41271360Y-76025377D01*
X41521000Y-76075440D01*
X42045000Y-76075440D01*
X42045000Y-78043074D01*
X42024241Y-78056945D01*
X41669928Y-78587212D01*
X41545510Y-79212704D01*
X41545510Y-80807296D01*
X41669928Y-81432788D01*
X42024241Y-81963055D01*
X42154363Y-82050000D01*
X36695000Y-82050000D01*
X36695000Y-74295000D01*
X36608604Y-73860655D01*
X36608603Y-73860654D01*
X36362567Y-73492434D01*
X30647566Y-67777434D01*
X30279346Y-67531397D01*
X29845000Y-67445000D01*
X19685000Y-67445000D01*
X18280000Y-67445000D01*
X18280000Y-55245000D01*
X18193603Y-54810655D01*
X18193603Y-54810654D01*
X17947566Y-54442434D01*
X16896587Y-53391455D01*
X16905360Y-53397377D01*
X17155000Y-53447440D01*
X18405000Y-53447440D01*
X18647123Y-53400463D01*
X18859927Y-53260673D01*
X19002377Y-53049640D01*
X19052440Y-52800000D01*
X19052440Y-51300000D01*
X19005463Y-51057877D01*
X18865673Y-50845073D01*
X18654640Y-50702623D01*
X18405000Y-50652560D01*
X17155000Y-50652560D01*
X16912877Y-50699537D01*
X16700073Y-50839327D01*
X16557623Y-51050360D01*
X16507560Y-51300000D01*
X16507560Y-51310000D01*
X15304945Y-51310000D01*
X15262738Y-51207851D01*
X14834404Y-50778769D01*
X14274472Y-50546265D01*
X13668188Y-50545736D01*
X13107851Y-50777262D01*
X12678769Y-51205596D01*
X12446265Y-51765528D01*
X12445736Y-52371812D01*
X12677262Y-52932149D01*
X13105596Y-53361231D01*
X13665528Y-53593735D01*
X13888797Y-53593929D01*
X16010000Y-55715132D01*
X16010000Y-68580000D01*
X16010000Y-69850000D01*
X16010000Y-72525000D01*
X14990362Y-72525000D01*
X14834404Y-72368769D01*
X14274472Y-72136265D01*
X13668188Y-72135736D01*
X13200000Y-72329186D01*
X13200000Y-69910430D01*
X13665528Y-70103735D01*
X14271812Y-70104264D01*
X14832149Y-69872738D01*
X15261231Y-69444404D01*
X15493735Y-68884472D01*
X15494264Y-68278188D01*
X15262738Y-67717851D01*
X14834404Y-67288769D01*
X14274472Y-67056265D01*
X13668188Y-67055736D01*
X13107851Y-67287262D01*
X12949837Y-67445000D01*
X12065000Y-67445000D01*
X11630654Y-67531397D01*
X11262434Y-67777434D01*
X11016397Y-68145654D01*
X10930000Y-68580000D01*
X10930000Y-76835000D01*
X11016397Y-77269346D01*
X11262434Y-77637566D01*
X11630654Y-77883603D01*
X12065000Y-77970000D01*
X16509991Y-77970000D01*
X16510000Y-77970000D01*
X31871916Y-77970121D01*
X31872437Y-78051468D01*
X31864241Y-78056945D01*
X31509928Y-78587212D01*
X31385510Y-79212704D01*
X31385510Y-80807296D01*
X31509928Y-81432788D01*
X31864241Y-81963055D01*
X32394508Y-82317368D01*
X33020000Y-82441786D01*
X33645492Y-82317368D01*
X34175759Y-81963055D01*
X34425000Y-81590039D01*
X34425000Y-83185000D01*
X34511397Y-83619346D01*
X34757434Y-83987566D01*
X35125654Y-84233603D01*
X35560000Y-84320000D01*
X45720000Y-84320000D01*
X46154346Y-84233603D01*
X46522566Y-83987566D01*
X46768603Y-83619346D01*
X46855000Y-83185000D01*
X46855000Y-69685132D01*
X51270132Y-65270000D01*
X57785000Y-65270000D01*
X58219345Y-65183603D01*
X58219346Y-65183603D01*
X58587566Y-64937566D01*
X61762566Y-61762566D01*
X62008603Y-61394346D01*
X62008603Y-61394345D01*
X62095000Y-60960000D01*
X62095000Y-48895000D01*
X62008603Y-48460655D01*
X62008603Y-48460654D01*
X61762566Y-48092434D01*
X58620132Y-44950000D01*
X62865000Y-44950000D01*
X63299346Y-44863603D01*
X63667566Y-44617566D01*
X63913603Y-44249346D01*
X64000000Y-43815000D01*
X64000000Y-84405000D01*
X63095240Y-84405000D01*
X63095240Y-80857211D01*
X62770910Y-80072273D01*
X62170886Y-79471200D01*
X61386515Y-79145501D01*
X60537211Y-79144760D01*
X59752273Y-79469090D01*
X59151200Y-80069114D01*
X58825501Y-80853485D01*
X58824760Y-81702789D01*
X59149090Y-82487727D01*
X59749114Y-83088800D01*
X60533485Y-83414499D01*
X61382789Y-83415240D01*
X62167727Y-83090910D01*
X62768800Y-82490886D01*
X63094499Y-81706515D01*
X63095240Y-80857211D01*
X63095240Y-84405000D01*
X54974490Y-84405000D01*
X54974490Y-80807296D01*
X54974490Y-79212704D01*
X54850072Y-78587212D01*
X54495759Y-78056945D01*
X54100000Y-77792507D01*
X54100000Y-76196619D01*
X54312123Y-76155463D01*
X54524927Y-76015673D01*
X54667377Y-75804640D01*
X54717440Y-75555000D01*
X54717440Y-74305000D01*
X54670463Y-74062877D01*
X54530673Y-73850073D01*
X54319640Y-73707623D01*
X54070000Y-73657560D01*
X52570000Y-73657560D01*
X52327877Y-73704537D01*
X52115073Y-73844327D01*
X51972623Y-74055360D01*
X51922560Y-74305000D01*
X51922560Y-75555000D01*
X51969537Y-75797123D01*
X52109327Y-76009927D01*
X52320360Y-76152377D01*
X52570000Y-76202440D01*
X52580000Y-76202440D01*
X52580000Y-77792507D01*
X52184241Y-78056945D01*
X51829928Y-78587212D01*
X51705510Y-79212704D01*
X51705510Y-80807296D01*
X51829928Y-81432788D01*
X52184241Y-81963055D01*
X52714508Y-82317368D01*
X53340000Y-82441786D01*
X53965492Y-82317368D01*
X54495759Y-81963055D01*
X54850072Y-81432788D01*
X54974490Y-80807296D01*
X54974490Y-84405000D01*
X16105240Y-84405000D01*
X16105240Y-80857211D01*
X15780910Y-80072273D01*
X15180886Y-79471200D01*
X14396515Y-79145501D01*
X13547211Y-79144760D01*
X12762273Y-79469090D01*
X12161200Y-80069114D01*
X11835501Y-80853485D01*
X11834760Y-81702789D01*
X12159090Y-82487727D01*
X12759114Y-83088800D01*
X13543485Y-83414499D01*
X14392789Y-83415240D01*
X15177727Y-83090910D01*
X15778800Y-82490886D01*
X16104499Y-81706515D01*
X16105240Y-80857211D01*
X16105240Y-84405000D01*
X10845000Y-84405000D01*
X10845000Y-10845000D01*
X64085000Y-10845000D01*
X64085000Y-84405000D01*
X64085000Y-84405000D01*
G37*
X64085000Y-84405000D02*
X64000000Y-84405000D01*
X64000000Y-43815000D01*
X64000000Y-34290000D01*
X63913603Y-33855654D01*
X63667566Y-33487434D01*
X63299346Y-33241397D01*
X63095240Y-33200797D01*
X63095240Y-13547211D01*
X62770910Y-12762273D01*
X62170886Y-12161200D01*
X61386515Y-11835501D01*
X60537211Y-11834760D01*
X59752273Y-12159090D01*
X59151200Y-12759114D01*
X58825501Y-13543485D01*
X58824760Y-14392789D01*
X59149090Y-15177727D01*
X59749114Y-15778800D01*
X60533485Y-16104499D01*
X61382789Y-16105240D01*
X62167727Y-15780910D01*
X62768800Y-15180886D01*
X63094499Y-14396515D01*
X63095240Y-13547211D01*
X63095240Y-33200797D01*
X62865000Y-33155000D01*
X61270039Y-33155000D01*
X61643055Y-32905759D01*
X61997368Y-32375492D01*
X62121786Y-31750000D01*
X61997368Y-31124508D01*
X61643055Y-30594241D01*
X61112788Y-30239928D01*
X60825000Y-30182683D01*
X60825000Y-28237316D01*
X61112788Y-28180072D01*
X61643055Y-27825759D01*
X61997368Y-27295492D01*
X62121786Y-26670000D01*
X62121786Y-21590000D01*
X61997368Y-20964508D01*
X61643055Y-20434241D01*
X61112788Y-20079928D01*
X60487296Y-19955510D01*
X58892704Y-19955510D01*
X58267212Y-20079928D01*
X57736945Y-20434241D01*
X57723074Y-20455000D01*
X54650872Y-20455000D01*
X48874680Y-14678808D01*
X48874680Y-13597062D01*
X48731217Y-12875826D01*
X48322670Y-12264392D01*
X47711236Y-11855845D01*
X46990000Y-11712382D01*
X46268764Y-11855845D01*
X45657330Y-12264392D01*
X45248783Y-12875826D01*
X45105320Y-13597062D01*
X45105320Y-15201458D01*
X45248783Y-15922694D01*
X45657330Y-16534128D01*
X46268764Y-16942675D01*
X46990000Y-17086138D01*
X47711236Y-16942675D01*
X47841346Y-16855738D01*
X53378174Y-22392566D01*
X53746394Y-22638603D01*
X53746395Y-22638603D01*
X54180740Y-22725000D01*
X57723074Y-22725000D01*
X57736945Y-22745759D01*
X58267212Y-23100072D01*
X58892704Y-23224490D01*
X60487296Y-23224490D01*
X61112788Y-23100072D01*
X61643055Y-22745759D01*
X61997368Y-22215492D01*
X62121786Y-21590000D01*
X62121786Y-26670000D01*
X61997368Y-26044508D01*
X61643055Y-25514241D01*
X61112788Y-25159928D01*
X60487296Y-25035510D01*
X58892704Y-25035510D01*
X58267212Y-25159928D01*
X57736945Y-25514241D01*
X57723074Y-25535000D01*
X55080132Y-25535000D01*
X47157566Y-17612434D01*
X46789346Y-17366397D01*
X46355000Y-17280000D01*
X40045872Y-17280000D01*
X37444680Y-14678808D01*
X37444680Y-13597062D01*
X37301217Y-12875826D01*
X36892670Y-12264392D01*
X36281236Y-11855845D01*
X35560000Y-11712382D01*
X34838764Y-11855845D01*
X34227330Y-12264392D01*
X33818783Y-12875826D01*
X33675320Y-13597062D01*
X33675320Y-15201458D01*
X33818783Y-15922694D01*
X34227330Y-16534128D01*
X34838764Y-16942675D01*
X35560000Y-17086138D01*
X36281236Y-16942675D01*
X36411346Y-16855738D01*
X38773174Y-19217566D01*
X39141394Y-19463603D01*
X39141395Y-19463603D01*
X39575740Y-19550000D01*
X45884867Y-19550000D01*
X53807434Y-27472566D01*
X54175654Y-27718603D01*
X54175655Y-27718603D01*
X54610000Y-27805000D01*
X57723074Y-27805000D01*
X57736945Y-27825759D01*
X58267212Y-28180072D01*
X58555000Y-28237316D01*
X58555000Y-30182683D01*
X58267212Y-30239928D01*
X57736945Y-30594241D01*
X57382632Y-31124508D01*
X57258214Y-31750000D01*
X57382632Y-32375492D01*
X57736945Y-32905759D01*
X58109960Y-33155000D01*
X56350132Y-33155000D01*
X49062566Y-25867434D01*
X48694346Y-25621397D01*
X48260000Y-25535000D01*
X28511100Y-25535000D01*
X28481020Y-25462200D01*
X27880959Y-24861091D01*
X27805000Y-24829550D01*
X27805000Y-23495000D01*
X27718603Y-23060655D01*
X27718603Y-23060654D01*
X27472566Y-22692434D01*
X22725000Y-17944868D01*
X22725000Y-17206925D01*
X22745759Y-17193055D01*
X23100072Y-16662788D01*
X23224490Y-16037296D01*
X23224490Y-14442704D01*
X23100072Y-13817212D01*
X22745759Y-13286945D01*
X22215492Y-12932632D01*
X21590000Y-12808214D01*
X20964508Y-12932632D01*
X20434241Y-13286945D01*
X20079928Y-13817212D01*
X19955510Y-14442704D01*
X19955510Y-14480000D01*
X19050000Y-14480000D01*
X18759160Y-14537852D01*
X18512599Y-14702599D01*
X18492599Y-14722599D01*
X18327852Y-14969161D01*
X18270000Y-15260000D01*
X18270000Y-17144500D01*
X18037877Y-17189537D01*
X17825073Y-17329327D01*
X17682623Y-17540360D01*
X17632560Y-17790000D01*
X17632560Y-19040000D01*
X17679537Y-19282123D01*
X17819327Y-19494927D01*
X18030360Y-19637377D01*
X18280000Y-19687440D01*
X19780000Y-19687440D01*
X20022123Y-19640463D01*
X20234927Y-19500673D01*
X20377377Y-19289640D01*
X20427440Y-19040000D01*
X20427440Y-17790000D01*
X20380463Y-17547877D01*
X20240673Y-17335073D01*
X20029640Y-17192623D01*
X19790000Y-17144565D01*
X19790000Y-16000000D01*
X19955510Y-16000000D01*
X19955510Y-16037296D01*
X20079928Y-16662788D01*
X20434241Y-17193055D01*
X20455000Y-17206925D01*
X20455000Y-18415000D01*
X20541397Y-18849346D01*
X20787434Y-19217566D01*
X25535000Y-23965132D01*
X25535000Y-24828899D01*
X25462200Y-24858980D01*
X24861091Y-25459041D01*
X24535372Y-26243459D01*
X24534630Y-27092815D01*
X24858980Y-27877800D01*
X25459041Y-28478909D01*
X26243459Y-28804628D01*
X27092815Y-28805370D01*
X27877800Y-28481020D01*
X28478909Y-27880959D01*
X28510449Y-27805000D01*
X47789868Y-27805000D01*
X55077434Y-35092566D01*
X55445654Y-35338603D01*
X55880000Y-35425000D01*
X58109960Y-35425000D01*
X57736945Y-35674241D01*
X57382632Y-36204508D01*
X57258214Y-36830000D01*
X57382632Y-37455492D01*
X57667716Y-37882151D01*
X56044868Y-39505000D01*
X48874680Y-39505000D01*
X48874680Y-37202938D01*
X48874680Y-35598542D01*
X48731217Y-34877306D01*
X48322670Y-34265872D01*
X47711236Y-33857325D01*
X46990000Y-33713862D01*
X46268764Y-33857325D01*
X46261985Y-33861853D01*
X41442566Y-29042434D01*
X41074346Y-28796397D01*
X40640000Y-28710000D01*
X30480000Y-28710000D01*
X30274260Y-28710000D01*
X28575000Y-28710000D01*
X28140654Y-28796397D01*
X27772434Y-29042434D01*
X27169288Y-29645579D01*
X27096541Y-29615372D01*
X26247185Y-29614630D01*
X25462200Y-29938980D01*
X24861091Y-30539041D01*
X24535372Y-31323459D01*
X24534630Y-32172815D01*
X24858980Y-32957800D01*
X25459041Y-33558909D01*
X26243459Y-33884628D01*
X27092815Y-33885370D01*
X27877800Y-33561020D01*
X28478909Y-32960959D01*
X28804628Y-32176541D01*
X28805370Y-31327185D01*
X28773961Y-31251170D01*
X29045132Y-30980000D01*
X30274260Y-30980000D01*
X30480000Y-30980000D01*
X40169868Y-30980000D01*
X45105320Y-35915452D01*
X45105320Y-37202938D01*
X45248783Y-37924174D01*
X45657330Y-38535608D01*
X46268764Y-38944155D01*
X46990000Y-39087618D01*
X47711236Y-38944155D01*
X48322670Y-38535608D01*
X48731217Y-37924174D01*
X48874680Y-37202938D01*
X48874680Y-39505000D01*
X41140000Y-39505000D01*
X41140000Y-33655000D01*
X41053603Y-33220655D01*
X41053603Y-33220654D01*
X40807566Y-32852434D01*
X39537566Y-31582434D01*
X39169346Y-31336397D01*
X38735000Y-31250000D01*
X32385000Y-31250000D01*
X31950654Y-31336397D01*
X31582434Y-31582434D01*
X28012253Y-35152614D01*
X27880959Y-35021091D01*
X27096541Y-34695372D01*
X26247185Y-34694630D01*
X25462200Y-35018980D01*
X24861091Y-35619041D01*
X24829550Y-35695000D01*
X24600132Y-35695000D01*
X21954975Y-33049843D01*
X21955284Y-32696205D01*
X21706894Y-32095057D01*
X21247363Y-31634722D01*
X20646648Y-31385284D01*
X19996205Y-31384716D01*
X19395057Y-31633106D01*
X18934722Y-32092637D01*
X18685284Y-32693352D01*
X18684716Y-33343795D01*
X18933106Y-33944943D01*
X19392637Y-34405278D01*
X19993352Y-34654716D01*
X20349895Y-34655027D01*
X23327434Y-37632566D01*
X23695654Y-37878603D01*
X23695655Y-37878604D01*
X24130000Y-37965000D01*
X24828899Y-37965000D01*
X24858980Y-38037800D01*
X25459041Y-38638909D01*
X26243459Y-38964628D01*
X27092815Y-38965370D01*
X27877800Y-38641020D01*
X28478909Y-38040959D01*
X28612363Y-37719564D01*
X28742566Y-37632566D01*
X32855132Y-33520000D01*
X38264868Y-33520000D01*
X38870000Y-34125132D01*
X38870000Y-40640000D01*
X38956397Y-41074346D01*
X39202434Y-41442566D01*
X39570654Y-41688603D01*
X40005000Y-41775000D01*
X56515000Y-41775000D01*
X56949345Y-41688603D01*
X56949346Y-41688603D01*
X57317566Y-41442566D01*
X60295642Y-38464490D01*
X60487296Y-38464490D01*
X61112788Y-38340072D01*
X61643055Y-37985759D01*
X61730000Y-37855636D01*
X61730000Y-42680000D01*
X56704763Y-42680000D01*
X56665887Y-42641056D01*
X56156816Y-42429671D01*
X55605602Y-42429190D01*
X55096163Y-42639686D01*
X55055778Y-42680000D01*
X38924763Y-42680000D01*
X38885887Y-42641056D01*
X38376816Y-42429671D01*
X37825602Y-42429190D01*
X37316163Y-42639686D01*
X36926056Y-43029113D01*
X36714671Y-43538184D01*
X36714621Y-43595246D01*
X33184868Y-47125000D01*
X28361692Y-47125000D01*
X28232073Y-46995154D01*
X27894544Y-46855000D01*
X31750000Y-46855000D01*
X32184345Y-46768603D01*
X32184346Y-46768603D01*
X32552566Y-46522566D01*
X36362566Y-42712566D01*
X36608603Y-42344346D01*
X36608604Y-42344345D01*
X36695000Y-41910000D01*
X36695000Y-38667686D01*
X36892670Y-38535608D01*
X37301217Y-37924174D01*
X37444680Y-37202938D01*
X37444680Y-35598542D01*
X37301217Y-34877306D01*
X36892670Y-34265872D01*
X36281236Y-33857325D01*
X35560000Y-33713862D01*
X34838764Y-33857325D01*
X34227330Y-34265872D01*
X33818783Y-34877306D01*
X33675320Y-35598542D01*
X33675320Y-37202938D01*
X33818783Y-37924174D01*
X34227330Y-38535608D01*
X34425000Y-38667686D01*
X34425000Y-41439868D01*
X31279868Y-44585000D01*
X25235132Y-44585000D01*
X21122566Y-40472434D01*
X20754346Y-40226397D01*
X20320000Y-40140000D01*
X16375000Y-40140000D01*
X16375000Y-39277203D01*
X16625278Y-39027363D01*
X16874716Y-38426648D01*
X16875284Y-37776205D01*
X16626894Y-37175057D01*
X16167363Y-36714722D01*
X15566648Y-36465284D01*
X14916205Y-36464716D01*
X14315057Y-36713106D01*
X13854722Y-37172637D01*
X13605284Y-37773352D01*
X13604716Y-38423795D01*
X13853106Y-39024943D01*
X14105000Y-39277277D01*
X14105000Y-41275000D01*
X14191397Y-41709346D01*
X14437434Y-42077566D01*
X14805654Y-42323603D01*
X15240000Y-42410000D01*
X19849868Y-42410000D01*
X23962434Y-46522566D01*
X24330654Y-46768603D01*
X24330655Y-46768603D01*
X24765000Y-46855000D01*
X26715632Y-46855000D01*
X26380345Y-46993538D01*
X25920154Y-47452927D01*
X25670794Y-48053453D01*
X25670226Y-48703694D01*
X25918538Y-49304655D01*
X26377927Y-49764846D01*
X26978453Y-50014206D01*
X27628694Y-50014774D01*
X28229655Y-49766462D01*
X28601765Y-49395000D01*
X33655000Y-49395000D01*
X34089345Y-49308603D01*
X34089346Y-49308603D01*
X34457566Y-49062566D01*
X38319370Y-45200761D01*
X38374398Y-45200810D01*
X38883837Y-44990314D01*
X38924221Y-44950000D01*
X55055236Y-44950000D01*
X55094113Y-44988944D01*
X55603184Y-45200329D01*
X55660246Y-45200378D01*
X59825000Y-49365132D01*
X59825000Y-60489868D01*
X57314868Y-63000000D01*
X57265810Y-63000000D01*
X57265810Y-60050602D01*
X57055314Y-59541163D01*
X56665887Y-59151056D01*
X56156816Y-58939671D01*
X55605602Y-58939190D01*
X55096163Y-59149686D01*
X55055778Y-59190000D01*
X38924763Y-59190000D01*
X38885887Y-59151056D01*
X38376816Y-58939671D01*
X38319753Y-58939621D01*
X34577566Y-55197434D01*
X34209346Y-54951397D01*
X33775000Y-54865000D01*
X24671483Y-54865000D01*
X24630000Y-54823443D01*
X24630000Y-48260000D01*
X24543603Y-47825655D01*
X24543603Y-47825654D01*
X24297566Y-47457434D01*
X19852566Y-43012434D01*
X19484346Y-42766397D01*
X19050000Y-42680000D01*
X13335000Y-42680000D01*
X13200000Y-42680000D01*
X13200000Y-38100000D01*
X13200000Y-34155000D01*
X14062796Y-34155000D01*
X14312637Y-34405278D01*
X14913352Y-34654716D01*
X15563795Y-34655284D01*
X16164943Y-34406894D01*
X16625278Y-33947363D01*
X16874716Y-33346648D01*
X16875284Y-32696205D01*
X16626894Y-32095057D01*
X16167363Y-31634722D01*
X15566648Y-31385284D01*
X14916205Y-31384716D01*
X14497346Y-31557785D01*
X14772566Y-31282566D01*
X15018603Y-30914346D01*
X15018603Y-30914345D01*
X15105000Y-30480000D01*
X15105000Y-28960362D01*
X15261231Y-28804404D01*
X15304583Y-28700000D01*
X15872560Y-28700000D01*
X15872560Y-28710000D01*
X15919537Y-28952123D01*
X16059327Y-29164927D01*
X16270360Y-29307377D01*
X16520000Y-29357440D01*
X17770000Y-29357440D01*
X18012123Y-29310463D01*
X18224927Y-29170673D01*
X18367377Y-28959640D01*
X18417440Y-28710000D01*
X18417440Y-27210000D01*
X18370463Y-26967877D01*
X18230673Y-26755073D01*
X18019640Y-26612623D01*
X17770000Y-26562560D01*
X16520000Y-26562560D01*
X16277877Y-26609537D01*
X16105240Y-26722941D01*
X16105240Y-13547211D01*
X15780910Y-12762273D01*
X15180886Y-12161200D01*
X14396515Y-11835501D01*
X13547211Y-11834760D01*
X12762273Y-12159090D01*
X12161200Y-12759114D01*
X11835501Y-13543485D01*
X11834760Y-14392789D01*
X12159090Y-15177727D01*
X12759114Y-15778800D01*
X13543485Y-16104499D01*
X14392789Y-16105240D01*
X15177727Y-15780910D01*
X15778800Y-15180886D01*
X16104499Y-14396515D01*
X16105240Y-13547211D01*
X16105240Y-26722941D01*
X16065073Y-26749327D01*
X15922623Y-26960360D01*
X15878576Y-27180000D01*
X15705301Y-27180000D01*
X15705301Y-22516401D01*
X15441719Y-21878485D01*
X14954082Y-21389996D01*
X14316627Y-21125301D01*
X13626401Y-21124699D01*
X12988485Y-21388281D01*
X12499996Y-21875918D01*
X12235301Y-22513373D01*
X12234699Y-23203599D01*
X12498281Y-23841515D01*
X12985918Y-24330004D01*
X13623373Y-24594699D01*
X14313599Y-24595301D01*
X14951515Y-24331719D01*
X15440004Y-23844082D01*
X15704699Y-23206627D01*
X15705301Y-22516401D01*
X15705301Y-27180000D01*
X15304945Y-27180000D01*
X15262738Y-27077851D01*
X14834404Y-26648769D01*
X14274472Y-26416265D01*
X13668188Y-26415736D01*
X13107851Y-26647262D01*
X12678769Y-27075596D01*
X12446265Y-27635528D01*
X12445736Y-28241812D01*
X12677262Y-28802149D01*
X12835000Y-28960162D01*
X12835000Y-30009868D01*
X11262434Y-31582434D01*
X11016397Y-31950654D01*
X10930000Y-32385000D01*
X10930000Y-33020000D01*
X10930000Y-38100000D01*
X10930000Y-43815000D01*
X11016397Y-44249346D01*
X11262434Y-44617566D01*
X11630654Y-44863603D01*
X12065000Y-44950000D01*
X13335000Y-44950000D01*
X18579868Y-44950000D01*
X22360000Y-48730132D01*
X22360000Y-54823516D01*
X22110154Y-55072927D01*
X21860794Y-55673453D01*
X21860226Y-56323694D01*
X22108538Y-56924655D01*
X22567927Y-57384846D01*
X23168453Y-57634206D01*
X23818694Y-57634774D01*
X24419655Y-57386462D01*
X24671556Y-57135000D01*
X33304868Y-57135000D01*
X36714238Y-60544370D01*
X36714190Y-60599398D01*
X36924686Y-61108837D01*
X37314113Y-61498944D01*
X37823184Y-61710329D01*
X38374398Y-61710810D01*
X38883837Y-61500314D01*
X38924221Y-61460000D01*
X55055236Y-61460000D01*
X55094113Y-61498944D01*
X55603184Y-61710329D01*
X56154398Y-61710810D01*
X56663837Y-61500314D01*
X57053944Y-61110887D01*
X57265329Y-60601816D01*
X57265810Y-60050602D01*
X57265810Y-63000000D01*
X50800000Y-63000000D01*
X50365654Y-63086397D01*
X49997434Y-63332434D01*
X44917434Y-68412434D01*
X44671397Y-68780654D01*
X44585000Y-69215000D01*
X44585000Y-78429960D01*
X44335759Y-78056945D01*
X44315000Y-78043074D01*
X44315000Y-72390000D01*
X44228603Y-71955655D01*
X44228603Y-71955654D01*
X43982566Y-71587434D01*
X42077566Y-69682434D01*
X41709346Y-69436397D01*
X41275000Y-69350000D01*
X36665132Y-69350000D01*
X32552566Y-65237434D01*
X32184346Y-64991397D01*
X31750000Y-64905000D01*
X21455000Y-64905000D01*
X21455000Y-48895000D01*
X21368603Y-48460655D01*
X21368603Y-48460654D01*
X21122566Y-48092434D01*
X19217566Y-46187434D01*
X18849346Y-45941397D01*
X18415000Y-45855000D01*
X14990362Y-45855000D01*
X14834404Y-45698769D01*
X14274472Y-45466265D01*
X13668188Y-45465736D01*
X13107851Y-45697262D01*
X12678769Y-46125596D01*
X12446265Y-46685528D01*
X12445736Y-47291812D01*
X12677262Y-47852149D01*
X13105596Y-48281231D01*
X13665528Y-48513735D01*
X14271812Y-48514264D01*
X14832149Y-48282738D01*
X14990162Y-48125000D01*
X17944868Y-48125000D01*
X19185000Y-49365132D01*
X19185000Y-66040000D01*
X19271397Y-66474346D01*
X19517434Y-66842566D01*
X19885654Y-67088603D01*
X20320000Y-67175000D01*
X31279868Y-67175000D01*
X35392434Y-71287566D01*
X35760654Y-71533603D01*
X35760655Y-71533603D01*
X36195000Y-71620000D01*
X40804868Y-71620000D01*
X42045000Y-72860132D01*
X42045000Y-73530560D01*
X41521000Y-73530560D01*
X41278877Y-73577537D01*
X41066073Y-73717327D01*
X40923623Y-73928360D01*
X40873560Y-74178000D01*
X40873560Y-75428000D01*
X40920537Y-75670123D01*
X41060327Y-75882927D01*
X41271360Y-76025377D01*
X41521000Y-76075440D01*
X42045000Y-76075440D01*
X42045000Y-78043074D01*
X42024241Y-78056945D01*
X41669928Y-78587212D01*
X41545510Y-79212704D01*
X41545510Y-80807296D01*
X41669928Y-81432788D01*
X42024241Y-81963055D01*
X42154363Y-82050000D01*
X36695000Y-82050000D01*
X36695000Y-74295000D01*
X36608604Y-73860655D01*
X36608603Y-73860654D01*
X36362567Y-73492434D01*
X30647566Y-67777434D01*
X30279346Y-67531397D01*
X29845000Y-67445000D01*
X19685000Y-67445000D01*
X18280000Y-67445000D01*
X18280000Y-55245000D01*
X18193603Y-54810655D01*
X18193603Y-54810654D01*
X17947566Y-54442434D01*
X16896587Y-53391455D01*
X16905360Y-53397377D01*
X17155000Y-53447440D01*
X18405000Y-53447440D01*
X18647123Y-53400463D01*
X18859927Y-53260673D01*
X19002377Y-53049640D01*
X19052440Y-52800000D01*
X19052440Y-51300000D01*
X19005463Y-51057877D01*
X18865673Y-50845073D01*
X18654640Y-50702623D01*
X18405000Y-50652560D01*
X17155000Y-50652560D01*
X16912877Y-50699537D01*
X16700073Y-50839327D01*
X16557623Y-51050360D01*
X16507560Y-51300000D01*
X16507560Y-51310000D01*
X15304945Y-51310000D01*
X15262738Y-51207851D01*
X14834404Y-50778769D01*
X14274472Y-50546265D01*
X13668188Y-50545736D01*
X13107851Y-50777262D01*
X12678769Y-51205596D01*
X12446265Y-51765528D01*
X12445736Y-52371812D01*
X12677262Y-52932149D01*
X13105596Y-53361231D01*
X13665528Y-53593735D01*
X13888797Y-53593929D01*
X16010000Y-55715132D01*
X16010000Y-68580000D01*
X16010000Y-69850000D01*
X16010000Y-72525000D01*
X14990362Y-72525000D01*
X14834404Y-72368769D01*
X14274472Y-72136265D01*
X13668188Y-72135736D01*
X13200000Y-72329186D01*
X13200000Y-69910430D01*
X13665528Y-70103735D01*
X14271812Y-70104264D01*
X14832149Y-69872738D01*
X15261231Y-69444404D01*
X15493735Y-68884472D01*
X15494264Y-68278188D01*
X15262738Y-67717851D01*
X14834404Y-67288769D01*
X14274472Y-67056265D01*
X13668188Y-67055736D01*
X13107851Y-67287262D01*
X12949837Y-67445000D01*
X12065000Y-67445000D01*
X11630654Y-67531397D01*
X11262434Y-67777434D01*
X11016397Y-68145654D01*
X10930000Y-68580000D01*
X10930000Y-76835000D01*
X11016397Y-77269346D01*
X11262434Y-77637566D01*
X11630654Y-77883603D01*
X12065000Y-77970000D01*
X16509991Y-77970000D01*
X16510000Y-77970000D01*
X31871916Y-77970121D01*
X31872437Y-78051468D01*
X31864241Y-78056945D01*
X31509928Y-78587212D01*
X31385510Y-79212704D01*
X31385510Y-80807296D01*
X31509928Y-81432788D01*
X31864241Y-81963055D01*
X32394508Y-82317368D01*
X33020000Y-82441786D01*
X33645492Y-82317368D01*
X34175759Y-81963055D01*
X34425000Y-81590039D01*
X34425000Y-83185000D01*
X34511397Y-83619346D01*
X34757434Y-83987566D01*
X35125654Y-84233603D01*
X35560000Y-84320000D01*
X45720000Y-84320000D01*
X46154346Y-84233603D01*
X46522566Y-83987566D01*
X46768603Y-83619346D01*
X46855000Y-83185000D01*
X46855000Y-69685132D01*
X51270132Y-65270000D01*
X57785000Y-65270000D01*
X58219345Y-65183603D01*
X58219346Y-65183603D01*
X58587566Y-64937566D01*
X61762566Y-61762566D01*
X62008603Y-61394346D01*
X62008603Y-61394345D01*
X62095000Y-60960000D01*
X62095000Y-48895000D01*
X62008603Y-48460655D01*
X62008603Y-48460654D01*
X61762566Y-48092434D01*
X58620132Y-44950000D01*
X62865000Y-44950000D01*
X63299346Y-44863603D01*
X63667566Y-44617566D01*
X63913603Y-44249346D01*
X64000000Y-43815000D01*
X64000000Y-84405000D01*
X63095240Y-84405000D01*
X63095240Y-80857211D01*
X62770910Y-80072273D01*
X62170886Y-79471200D01*
X61386515Y-79145501D01*
X60537211Y-79144760D01*
X59752273Y-79469090D01*
X59151200Y-80069114D01*
X58825501Y-80853485D01*
X58824760Y-81702789D01*
X59149090Y-82487727D01*
X59749114Y-83088800D01*
X60533485Y-83414499D01*
X61382789Y-83415240D01*
X62167727Y-83090910D01*
X62768800Y-82490886D01*
X63094499Y-81706515D01*
X63095240Y-80857211D01*
X63095240Y-84405000D01*
X54974490Y-84405000D01*
X54974490Y-80807296D01*
X54974490Y-79212704D01*
X54850072Y-78587212D01*
X54495759Y-78056945D01*
X54100000Y-77792507D01*
X54100000Y-76196619D01*
X54312123Y-76155463D01*
X54524927Y-76015673D01*
X54667377Y-75804640D01*
X54717440Y-75555000D01*
X54717440Y-74305000D01*
X54670463Y-74062877D01*
X54530673Y-73850073D01*
X54319640Y-73707623D01*
X54070000Y-73657560D01*
X52570000Y-73657560D01*
X52327877Y-73704537D01*
X52115073Y-73844327D01*
X51972623Y-74055360D01*
X51922560Y-74305000D01*
X51922560Y-75555000D01*
X51969537Y-75797123D01*
X52109327Y-76009927D01*
X52320360Y-76152377D01*
X52570000Y-76202440D01*
X52580000Y-76202440D01*
X52580000Y-77792507D01*
X52184241Y-78056945D01*
X51829928Y-78587212D01*
X51705510Y-79212704D01*
X51705510Y-80807296D01*
X51829928Y-81432788D01*
X52184241Y-81963055D01*
X52714508Y-82317368D01*
X53340000Y-82441786D01*
X53965492Y-82317368D01*
X54495759Y-81963055D01*
X54850072Y-81432788D01*
X54974490Y-80807296D01*
X54974490Y-84405000D01*
X16105240Y-84405000D01*
X16105240Y-80857211D01*
X15780910Y-80072273D01*
X15180886Y-79471200D01*
X14396515Y-79145501D01*
X13547211Y-79144760D01*
X12762273Y-79469090D01*
X12161200Y-80069114D01*
X11835501Y-80853485D01*
X11834760Y-81702789D01*
X12159090Y-82487727D01*
X12759114Y-83088800D01*
X13543485Y-83414499D01*
X14392789Y-83415240D01*
X15177727Y-83090910D01*
X15778800Y-82490886D01*
X16104499Y-81706515D01*
X16105240Y-80857211D01*
X16105240Y-84405000D01*
X10845000Y-84405000D01*
X10845000Y-10845000D01*
X64085000Y-10845000D01*
X64085000Y-84405000D01*
M02*
