M48
;DRILL file {kicad (after 2015-mar-04 BZR unknown)-product} date Thu 29 Dec 2016 12:52:13 PM CET
;FORMAT={-:-/ absolute / inch / decimal}
FMAT,2
INCH,TZ
T1C0.016
T2C0.018
T3C0.031
T4C0.032
T5C0.032
T6C0.040
T7C0.138
%
G90
G05
M72
T1
X3.66Y-2.57
X3.66Y-2.75
X3.865Y-2.145
X4.085Y-2.44
X4.12Y-2.35
X4.14Y-2.61
X4.39Y-2.36
X4.4662Y-2.0125
X4.62Y-2.005
X5.02Y-2.56
X5.1Y-2.46
X5.14Y-2.38
X5.18Y-2.97
X5.44Y-3.51
X5.46Y-3.1
X5.82Y-2.111
T2
X3.45Y-2.325
X3.455Y-2.84
X3.455Y-3.02
X3.455Y-3.375
X3.455Y-3.845
X3.49Y-2.325
X3.495Y-2.84
X3.495Y-3.02
X3.495Y-3.375
X3.495Y-3.845
X3.535Y-3.02
X3.535Y-3.375
X3.535Y-3.845
X3.575Y-3.02
X3.575Y-3.375
X3.575Y-3.845
X3.625Y-2.335
X3.665Y-2.145
X3.665Y-2.305
X3.665Y-2.365
X3.705Y-2.145
X3.73Y-2.725
X3.745Y-2.145
X3.77Y-2.725
X3.775Y-3.3
X3.775Y-3.405
X3.775Y-3.5
X3.775Y-3.6
X3.775Y-3.7
X3.775Y-3.785
X3.785Y-2.145
X3.81Y-2.725
X3.85Y-2.725
X3.925Y-2.895
X3.925Y-2.895
X3.935Y-3.02
X3.935Y-3.1
X3.935Y-3.2
X3.935Y-3.3
X3.935Y-3.38
X3.935Y-3.5
X3.935Y-3.655
X3.935Y-3.775
X3.975Y-3.5
X3.975Y-3.655
X3.975Y-3.775
X4.015Y-2.675
X4.015Y-2.79
X4.015Y-3.5
X4.015Y-3.655
X4.015Y-3.775
X4.035Y-3.22
X4.035Y-3.3
X4.035Y-3.4
X4.055Y-2.675
X4.055Y-2.79
X4.055Y-3.5
X4.055Y-3.65
X4.055Y-3.775
X4.075Y-3.22
X4.075Y-3.3
X4.075Y-3.4
X4.08Y-2.9
X4.095Y-2.675
X4.095Y-2.78
X4.135Y-2.675
X4.135Y-2.78
X4.175Y-2.675
X4.195Y-2.655
X4.205Y-3.3
X4.205Y-3.4
X4.205Y-3.5
X4.21Y-2.9
X4.21Y-3.
X4.21Y-3.205
X4.26Y-3.56
X4.3Y-2.645
X4.3Y-2.685
X4.3Y-2.725
X4.3Y-2.765
X4.34Y-2.725
X4.37Y-2.84
X4.38Y-2.685
X4.41Y-2.8
X4.425Y-2.88
X4.45Y-2.76
X4.465Y-2.88
X4.495Y-3.31
X4.505Y-2.88
X4.535Y-3.31
X4.545Y-2.88
X4.575Y-3.31
X4.585Y-2.88
X4.615Y-3.31
X4.625Y-2.76
X4.625Y-2.88
X4.63Y-2.67
X4.73Y-2.08
X4.755Y-2.665
X4.755Y-2.76
X4.755Y-2.925
X4.755Y-3.335
X4.76Y-2.11
X4.79Y-2.14
X4.795Y-2.925
X4.795Y-3.335
X4.835Y-2.925
X4.835Y-3.335
X4.86Y-2.3
X4.86Y-2.7
X4.9Y-2.3
X4.9Y-2.7
X4.94Y-2.3
X4.94Y-2.7
X4.95Y-1.865
X4.95Y-1.925
X4.95Y-1.985
X4.965Y-2.925
X4.965Y-2.965
X4.965Y-3.005
X4.97Y-2.17
X4.97Y-3.48
X5.01Y-1.865
X5.01Y-1.925
X5.01Y-1.985
X5.01Y-2.17
X5.01Y-3.48
X5.05Y-2.17
X5.05Y-2.17
X5.05Y-3.48
X5.09Y-3.48
X5.13Y-3.48
X5.14Y-2.09
X5.17Y-3.48
X5.18Y-2.09
X5.18Y-3.355
X5.21Y-3.685
X5.21Y-3.725
X5.21Y-3.805
X5.21Y-3.845
X5.725Y-3.725
X5.725Y-3.765
X5.725Y-3.805
X5.725Y-3.845
X5.73Y-1.86
X5.73Y-1.9
X5.77Y-1.86
X5.77Y-1.9
X5.9Y-2.11
X5.9Y-2.69
X5.9Y-3.07
X5.94Y-2.11
X5.97Y-2.69
X5.97Y-3.07
X5.97Y-3.5
X5.97Y-3.58
X5.98Y-2.11
X6.05Y-2.69
X6.05Y-3.07
X6.05Y-3.5
X6.05Y-3.725
X6.05Y-3.765
X6.05Y-3.805
X6.05Y-3.845
T3
X4.6907Y-2.1622
X4.6907Y-2.2622
X4.6907Y-2.3622
X4.6907Y-2.4622
X4.6907Y-2.5622
X4.6907Y-2.6622
X4.6907Y-2.7622
X4.6907Y-2.8622
X4.6907Y-2.9622
X4.6907Y-3.0622
X4.6907Y-3.1622
X4.6907Y-3.2622
X4.6907Y-3.3622
X4.6907Y-3.4622
X4.6907Y-3.5622
X4.6907Y-3.6622
X4.6907Y-3.7622
X5.3006Y-2.1622
X5.3006Y-2.2622
X5.3006Y-2.3622
X5.3006Y-2.4622
X5.3006Y-2.5622
X5.3006Y-2.6622
X5.3006Y-2.7622
X5.3006Y-2.8622
X5.3006Y-2.9622
X5.3006Y-3.0622
X5.3006Y-3.1622
X5.3006Y-3.2622
X5.3006Y-3.3622
X5.3006Y-3.4622
X5.3006Y-3.5622
X5.3006Y-3.6622
X5.3006Y-3.7622
T4
X4.36Y-3.055
X4.36Y-3.155
X4.5Y-3.705
X4.5Y-3.805
T5
X3.85Y-2.85
X3.85Y-2.95
X3.85Y-3.05
X3.85Y-3.15
X3.85Y-3.25
X3.85Y-3.35
X3.85Y-3.45
X3.85Y-3.55
X3.85Y-3.65
X3.85Y-3.75
X4.15Y-2.85
X4.15Y-2.95
X4.15Y-3.05
X4.15Y-3.15
X4.15Y-3.25
X4.15Y-3.35
X4.15Y-3.45
X4.15Y-3.55
X4.15Y-3.65
X4.15Y-3.75
T6
X3.4625Y-2.4125
X3.4625Y-2.5125
X3.4625Y-2.6125
X3.5625Y-2.4125
X3.5625Y-2.5125
X3.5625Y-2.6125
X4.0875Y-1.9125
X4.0875Y-2.0125
X4.0875Y-2.1125
X4.1875Y-1.9125
X4.1875Y-2.0125
X4.1875Y-2.1125
X4.325Y-3.35
X4.325Y-3.45
X4.325Y-3.55
X4.425Y-3.35
X4.425Y-3.45
X4.425Y-3.55
X5.235Y-1.91
X5.335Y-1.91
X5.925Y-3.225
X5.925Y-3.325
X5.9375Y-2.2125
X5.9375Y-2.3125
X5.9375Y-2.4125
X5.9375Y-2.5125
X5.9375Y-2.6125
X5.98Y-1.91
X5.98Y-2.01
X6.025Y-3.225
X6.025Y-3.325
X6.03Y-2.8
X6.03Y-2.9
X6.0375Y-2.2125
X6.0375Y-2.3125
X6.0375Y-2.4125
X6.0375Y-2.5125
X6.0375Y-2.6125
T7
X3.5Y-2.1
X3.5Y-3.2
X5.5Y-3.8
X5.55Y-1.9
T0
M30
