G04 #@! TF.FileFunction,Legend,Top*
%FSLAX46Y46*%
G04 Gerber Fmt 4.6, Leading zero omitted, Abs format (unit mm)*
G04 Created by KiCad (PCBNEW (after 2015-mar-04 BZR unknown)-product) date Mon 31 Oct 2016 03:55:16 PM CET*
%MOMM*%
G01*
G04 APERTURE LIST*
%ADD10C,0.100000*%
%ADD11C,0.150000*%
G04 APERTURE END LIST*
D10*
X50165000Y-114935000D02*
X50165000Y-50165000D01*
X174625000Y-114935000D02*
X50165000Y-114935000D01*
X174625000Y-50165000D02*
X174625000Y-114935000D01*
X50165000Y-50165000D02*
X174625000Y-50165000D01*
D11*
X130690620Y-57045860D02*
X130690620Y-56019700D01*
X130139440Y-56520080D02*
X131191000Y-56520080D01*
X136715500Y-55245000D02*
G75*
G03X136715500Y-55245000I-4000500J0D01*
G01*
X160655000Y-110490000D02*
X160655000Y-113030000D01*
X160935000Y-107670000D02*
X160935000Y-109220000D01*
X160655000Y-110490000D02*
X158115000Y-110490000D01*
X157835000Y-109220000D02*
X157835000Y-107670000D01*
X157835000Y-107670000D02*
X160935000Y-107670000D01*
X158115000Y-110490000D02*
X158115000Y-113030000D01*
X158115000Y-113030000D02*
X160655000Y-113030000D01*
X129159000Y-112014000D02*
X128651000Y-112014000D01*
X129159000Y-111506000D02*
X128651000Y-111506000D01*
X129159000Y-109474000D02*
X128651000Y-109474000D01*
X129159000Y-108966000D02*
X128651000Y-108966000D01*
X131699000Y-108966000D02*
X131191000Y-108966000D01*
X131699000Y-109474000D02*
X131191000Y-109474000D01*
X131699000Y-111506000D02*
X131191000Y-111506000D01*
X131699000Y-112014000D02*
X131191000Y-112014000D01*
X127635000Y-107670000D02*
X126485000Y-107670000D01*
X126485000Y-107670000D02*
X126485000Y-109220000D01*
X134239000Y-109093000D02*
X140208000Y-109093000D01*
X140208000Y-109093000D02*
X140208000Y-109347000D01*
X140208000Y-109347000D02*
X134366000Y-109347000D01*
X134366000Y-109347000D02*
X134366000Y-109220000D01*
X134366000Y-109220000D02*
X140208000Y-109220000D01*
X131699000Y-113030000D02*
X134239000Y-113030000D01*
X131699000Y-110490000D02*
X134239000Y-110490000D01*
X131699000Y-110490000D02*
X131699000Y-113030000D01*
X131699000Y-113030000D02*
X134239000Y-113030000D01*
X134239000Y-111506000D02*
X140335000Y-111506000D01*
X140335000Y-111506000D02*
X140335000Y-112014000D01*
X140335000Y-112014000D02*
X134239000Y-112014000D01*
X134239000Y-113030000D02*
X134239000Y-110490000D01*
X134239000Y-110490000D02*
X134239000Y-107950000D01*
X140335000Y-109474000D02*
X134239000Y-109474000D01*
X140335000Y-108966000D02*
X140335000Y-109474000D01*
X134239000Y-108966000D02*
X140335000Y-108966000D01*
X131699000Y-110490000D02*
X134239000Y-110490000D01*
X131699000Y-107950000D02*
X131699000Y-110490000D01*
X131699000Y-107950000D02*
X134239000Y-107950000D01*
X52705000Y-62865000D02*
X52705000Y-60325000D01*
X52425000Y-65685000D02*
X52425000Y-64135000D01*
X52705000Y-62865000D02*
X55245000Y-62865000D01*
X55525000Y-64135000D02*
X55525000Y-65685000D01*
X55525000Y-65685000D02*
X52425000Y-65685000D01*
X55245000Y-62865000D02*
X55245000Y-60325000D01*
X55245000Y-60325000D02*
X52705000Y-60325000D01*
X61595000Y-53975000D02*
X61595000Y-51435000D01*
X61315000Y-56795000D02*
X61315000Y-55245000D01*
X61595000Y-53975000D02*
X64135000Y-53975000D01*
X64415000Y-55245000D02*
X64415000Y-56795000D01*
X64415000Y-56795000D02*
X61315000Y-56795000D01*
X64135000Y-53975000D02*
X64135000Y-51435000D01*
X64135000Y-51435000D02*
X61595000Y-51435000D01*
X169545000Y-77216000D02*
X169545000Y-79121000D01*
X169545000Y-81661000D02*
X169545000Y-80899000D01*
X169545000Y-84074000D02*
X169545000Y-84201000D01*
X169545000Y-84074000D02*
X169545000Y-83439000D01*
X169545000Y-87884000D02*
X169545000Y-86106000D01*
X173228000Y-87884000D02*
X173228000Y-86233000D01*
X173355000Y-83566000D02*
X173355000Y-84201000D01*
X173355000Y-81026000D02*
X173355000Y-81661000D01*
X173228000Y-77216000D02*
X173228000Y-78867000D01*
X168402000Y-84074000D02*
X169545000Y-84074000D01*
X168402000Y-81026000D02*
X169545000Y-81026000D01*
X169545000Y-77216000D02*
X173228000Y-77216000D01*
X173228000Y-87884000D02*
X169545000Y-87884000D01*
X168402000Y-77216000D02*
X169545000Y-77216000D01*
X169545000Y-87884000D02*
X168402000Y-87884000D01*
X168402000Y-82550000D02*
X168402000Y-87884000D01*
X168402000Y-82550000D02*
X168402000Y-77216000D01*
X116305000Y-108050000D02*
X116305000Y-57050000D01*
X65305000Y-108050000D02*
X116305000Y-108050000D01*
X65305000Y-57050000D02*
X116305000Y-57050000D01*
X65305000Y-108050000D02*
X65305000Y-57050000D01*
X134747000Y-92202000D02*
X135763000Y-92202000D01*
X135763000Y-92202000D02*
X135763000Y-69088000D01*
X135763000Y-69088000D02*
X134747000Y-69088000D01*
X125603000Y-92202000D02*
X124587000Y-92202000D01*
X124587000Y-92202000D02*
X124587000Y-69088000D01*
X124587000Y-69088000D02*
X125603000Y-69088000D01*
X130175000Y-69088000D02*
X130175000Y-66548000D01*
X130175000Y-92202000D02*
X130175000Y-94742000D01*
X125603000Y-92202000D02*
X134747000Y-92202000D01*
X134747000Y-69088000D02*
X125603000Y-69088000D01*
D10*
X133415570Y-53340000D02*
G75*
G03X133415570Y-53340000I-700570J0D01*
G01*
X133415570Y-57150000D02*
G75*
G03X133415570Y-57150000I-700570J0D01*
G01*
X158419000Y-111760000D02*
X158419000Y-111760000D01*
X160351000Y-111760000D02*
X160351000Y-111760000D01*
X158419000Y-111760000D02*
G75*
G03X160351000Y-111760000I966000J0D01*
G01*
X160351000Y-111760000D02*
G75*
G03X158419000Y-111760000I-966000J0D01*
G01*
X129361400Y-109220000D02*
X129361400Y-109220000D01*
X130988600Y-109220000D02*
X130988600Y-109220000D01*
X129361400Y-109220000D02*
G75*
G03X130988600Y-109220000I813600J0D01*
G01*
X130988600Y-109220000D02*
G75*
G03X129361400Y-109220000I-813600J0D01*
G01*
X126821400Y-111760000D02*
X126821400Y-111760000D01*
X128448600Y-111760000D02*
X128448600Y-111760000D01*
X126821400Y-111760000D02*
G75*
G03X128448600Y-111760000I813600J0D01*
G01*
X128448600Y-111760000D02*
G75*
G03X126821400Y-111760000I-813600J0D01*
G01*
X129361400Y-111760000D02*
X129361400Y-111760000D01*
X130988600Y-111760000D02*
X130988600Y-111760000D01*
X129361400Y-111760000D02*
G75*
G03X130988600Y-111760000I813600J0D01*
G01*
X130988600Y-111760000D02*
G75*
G03X129361400Y-111760000I-813600J0D01*
G01*
X54941000Y-61595000D02*
X54941000Y-61595000D01*
X53009000Y-61595000D02*
X53009000Y-61595000D01*
X54941000Y-61595000D02*
G75*
G03X53009000Y-61595000I-966000J0D01*
G01*
X53009000Y-61595000D02*
G75*
G03X54941000Y-61595000I966000J0D01*
G01*
X63831000Y-52705000D02*
X63831000Y-52705000D01*
X61899000Y-52705000D02*
X61899000Y-52705000D01*
X63831000Y-52705000D02*
G75*
G03X61899000Y-52705000I-966000J0D01*
G01*
X61899000Y-52705000D02*
G75*
G03X63831000Y-52705000I966000J0D01*
G01*
X172350430Y-81750370D02*
X170549570Y-81750370D01*
X172350430Y-83349630D02*
X170549570Y-83349630D01*
X170549570Y-81750370D02*
G75*
G03X170549570Y-83349630I0J-799630D01*
G01*
X172350430Y-83349630D02*
G75*
G03X172350430Y-81750370I0J799630D01*
G01*
X172350430Y-84290370D02*
X170549570Y-84290370D01*
X172350430Y-85889630D02*
X170549570Y-85889630D01*
X170549570Y-84290370D02*
G75*
G03X170549570Y-85889630I0J-799630D01*
G01*
X172350430Y-85889630D02*
G75*
G03X172350430Y-84290370I0J799630D01*
G01*
X172350430Y-79210370D02*
X170549570Y-79210370D01*
X172350430Y-80809630D02*
X170549570Y-80809630D01*
X170549570Y-79210370D02*
G75*
G03X170549570Y-80809630I0J-799630D01*
G01*
X172350430Y-80809630D02*
G75*
G03X172350430Y-79210370I0J799630D01*
G01*
X72455000Y-62250000D02*
G75*
G03X72455000Y-62250000I-1950000J0D01*
G01*
X72455000Y-82550000D02*
G75*
G03X72455000Y-82550000I-1950000J0D01*
G01*
X72455000Y-102850000D02*
G75*
G03X72455000Y-102850000I-1950000J0D01*
G01*
X113055000Y-102850000D02*
G75*
G03X113055000Y-102850000I-1950000J0D01*
G01*
X113055000Y-62250000D02*
G75*
G03X113055000Y-62250000I-1950000J0D01*
G01*
X131025000Y-95885000D02*
G75*
G03X131025000Y-95885000I-850000J0D01*
G01*
X131025000Y-65405000D02*
G75*
G03X131025000Y-65405000I-850000J0D01*
G01*
D11*
X127992143Y-55411666D02*
X128039762Y-55459285D01*
X128087381Y-55602142D01*
X128087381Y-55697380D01*
X128039762Y-55840238D01*
X127944524Y-55935476D01*
X127849286Y-55983095D01*
X127658810Y-56030714D01*
X127515952Y-56030714D01*
X127325476Y-55983095D01*
X127230238Y-55935476D01*
X127135000Y-55840238D01*
X127087381Y-55697380D01*
X127087381Y-55602142D01*
X127135000Y-55459285D01*
X127182619Y-55411666D01*
X128087381Y-54935476D02*
X128087381Y-54745000D01*
X128039762Y-54649761D01*
X127992143Y-54602142D01*
X127849286Y-54506904D01*
X127658810Y-54459285D01*
X127277857Y-54459285D01*
X127182619Y-54506904D01*
X127135000Y-54554523D01*
X127087381Y-54649761D01*
X127087381Y-54840238D01*
X127135000Y-54935476D01*
X127182619Y-54983095D01*
X127277857Y-55030714D01*
X127515952Y-55030714D01*
X127611190Y-54983095D01*
X127658810Y-54935476D01*
X127706429Y-54840238D01*
X127706429Y-54649761D01*
X127658810Y-54554523D01*
X127611190Y-54506904D01*
X127515952Y-54459285D01*
X158646905Y-106497381D02*
X158646905Y-105497381D01*
X159027858Y-105497381D01*
X159123096Y-105545000D01*
X159170715Y-105592619D01*
X159218334Y-105687857D01*
X159218334Y-105830714D01*
X159170715Y-105925952D01*
X159123096Y-105973571D01*
X159027858Y-106021190D01*
X158646905Y-106021190D01*
X160170715Y-106497381D02*
X159599286Y-106497381D01*
X159885000Y-106497381D02*
X159885000Y-105497381D01*
X159789762Y-105640238D01*
X159694524Y-105735476D01*
X159599286Y-105783095D01*
X131976905Y-106497381D02*
X131976905Y-105497381D01*
X132357858Y-105497381D01*
X132453096Y-105545000D01*
X132500715Y-105592619D01*
X132548334Y-105687857D01*
X132548334Y-105830714D01*
X132500715Y-105925952D01*
X132453096Y-105973571D01*
X132357858Y-106021190D01*
X131976905Y-106021190D01*
X132881667Y-105497381D02*
X133500715Y-105497381D01*
X133167381Y-105878333D01*
X133310239Y-105878333D01*
X133405477Y-105925952D01*
X133453096Y-105973571D01*
X133500715Y-106068810D01*
X133500715Y-106306905D01*
X133453096Y-106402143D01*
X133405477Y-106449762D01*
X133310239Y-106497381D01*
X133024524Y-106497381D01*
X132929286Y-106449762D01*
X132881667Y-106402143D01*
X56411905Y-63317381D02*
X56411905Y-62317381D01*
X56792858Y-62317381D01*
X56888096Y-62365000D01*
X56935715Y-62412619D01*
X56983334Y-62507857D01*
X56983334Y-62650714D01*
X56935715Y-62745952D01*
X56888096Y-62793571D01*
X56792858Y-62841190D01*
X56411905Y-62841190D01*
X57840477Y-62650714D02*
X57840477Y-63317381D01*
X57602381Y-62269762D02*
X57364286Y-62984048D01*
X57983334Y-62984048D01*
X62126905Y-58872381D02*
X62126905Y-57872381D01*
X62507858Y-57872381D01*
X62603096Y-57920000D01*
X62650715Y-57967619D01*
X62698334Y-58062857D01*
X62698334Y-58205714D01*
X62650715Y-58300952D01*
X62603096Y-58348571D01*
X62507858Y-58396190D01*
X62126905Y-58396190D01*
X63603096Y-57872381D02*
X63126905Y-57872381D01*
X63079286Y-58348571D01*
X63126905Y-58300952D01*
X63222143Y-58253333D01*
X63460239Y-58253333D01*
X63555477Y-58300952D01*
X63603096Y-58348571D01*
X63650715Y-58443810D01*
X63650715Y-58681905D01*
X63603096Y-58777143D01*
X63555477Y-58824762D01*
X63460239Y-58872381D01*
X63222143Y-58872381D01*
X63126905Y-58824762D01*
X63079286Y-58777143D01*
X170902381Y-90296905D02*
X171711905Y-90296905D01*
X171807143Y-90249286D01*
X171854762Y-90201667D01*
X171902381Y-90106429D01*
X171902381Y-89915952D01*
X171854762Y-89820714D01*
X171807143Y-89773095D01*
X171711905Y-89725476D01*
X170902381Y-89725476D01*
X171902381Y-88725476D02*
X171902381Y-89296905D01*
X171902381Y-89011191D02*
X170902381Y-89011191D01*
X171045238Y-89106429D01*
X171140476Y-89201667D01*
X171188095Y-89296905D01*
X90043095Y-52792381D02*
X90043095Y-53601905D01*
X90090714Y-53697143D01*
X90138333Y-53744762D01*
X90233571Y-53792381D01*
X90424048Y-53792381D01*
X90519286Y-53744762D01*
X90566905Y-53697143D01*
X90614524Y-53601905D01*
X90614524Y-52792381D01*
X91043095Y-52887619D02*
X91090714Y-52840000D01*
X91185952Y-52792381D01*
X91424048Y-52792381D01*
X91519286Y-52840000D01*
X91566905Y-52887619D01*
X91614524Y-52982857D01*
X91614524Y-53078095D01*
X91566905Y-53220952D01*
X90995476Y-53792381D01*
X91614524Y-53792381D01*
X123642381Y-80811666D02*
X123166190Y-81145000D01*
X123642381Y-81383095D02*
X122642381Y-81383095D01*
X122642381Y-81002142D01*
X122690000Y-80906904D01*
X122737619Y-80859285D01*
X122832857Y-80811666D01*
X122975714Y-80811666D01*
X123070952Y-80859285D01*
X123118571Y-80906904D01*
X123166190Y-81002142D01*
X123166190Y-81383095D01*
X123642381Y-79859285D02*
X123642381Y-80430714D01*
X123642381Y-80145000D02*
X122642381Y-80145000D01*
X122785238Y-80240238D01*
X122880476Y-80335476D01*
X122928095Y-80430714D01*
M02*
