G04 #@! TF.FileFunction,Copper,L1,Top,Signal*
%FSLAX46Y46*%
G04 Gerber Fmt 4.6, Leading zero omitted, Abs format (unit mm)*
G04 Created by KiCad (PCBNEW (after 2015-mar-04 BZR unknown)-product) date Thu 24 Nov 2016 20:54:59 CET*
%MOMM*%
G01*
G04 APERTURE LIST*
%ADD10C,0.100000*%
%ADD11C,0.970000*%
%ADD12R,1.600000X2.000000*%
%ADD13R,2.286000X1.574800*%
%ADD14O,2.286000X1.574800*%
%ADD15R,2.032000X1.727200*%
%ADD16O,2.032000X1.727200*%
%ADD17R,2.032000X2.032000*%
%ADD18O,2.032000X2.032000*%
%ADD19R,1.574800X2.286000*%
%ADD20O,1.574800X2.286000*%
%ADD21O,3.500120X1.699260*%
%ADD22R,1.727200X1.727200*%
%ADD23O,1.727200X1.727200*%
%ADD24C,1.699260*%
%ADD25R,1.699260X1.699260*%
%ADD26C,1.998980*%
%ADD27R,1.300000X1.300000*%
%ADD28C,1.300000*%
%ADD29C,2.500000*%
%ADD30C,3.000000*%
%ADD31C,0.600000*%
%ADD32C,1.270000*%
%ADD33C,0.500000*%
%ADD34C,0.250000*%
%ADD35C,0.254000*%
%ADD36C,0.200000*%
G04 APERTURE END LIST*
D10*
X63500000Y-117475000D02*
X63500000Y-52705000D01*
X187960000Y-117475000D02*
X63500000Y-117475000D01*
X187960000Y-52705000D02*
X187960000Y-117475000D01*
X63500000Y-52705000D02*
X187960000Y-52705000D01*
D11*
X144780000Y-69850000D03*
X86868000Y-74549000D03*
X86868000Y-72771000D03*
X100330000Y-66040000D03*
X100330000Y-67945000D03*
X100330000Y-64135000D03*
X90805000Y-74295000D03*
X90805000Y-73025000D03*
X106680000Y-85090000D03*
X106680000Y-81280000D03*
X106680000Y-82550000D03*
X106680000Y-83820000D03*
X106680000Y-86360000D03*
X125399800Y-69672200D03*
X123190000Y-69672200D03*
X120650000Y-69850000D03*
X118110000Y-69672200D03*
X115417600Y-69672200D03*
X160655000Y-104775000D03*
X158115000Y-104775000D03*
X170815000Y-116205000D03*
X170815000Y-114935000D03*
X170815000Y-112395000D03*
X170815000Y-109855000D03*
X170815000Y-107315000D03*
X170815000Y-104775000D03*
X170815000Y-102235000D03*
X170815000Y-99695000D03*
X170815000Y-97155000D03*
X170815000Y-94615000D03*
X131445000Y-92710000D03*
X134620000Y-92710000D03*
X137160000Y-92710000D03*
X138430000Y-92710000D03*
X140970000Y-92710000D03*
X143510000Y-92710000D03*
X146050000Y-92710000D03*
X148590000Y-92710000D03*
X151130000Y-92710000D03*
X157480000Y-92710000D03*
X153670000Y-92710000D03*
X158115000Y-92710000D03*
X160655000Y-92710000D03*
X163195000Y-92710000D03*
X165735000Y-92710000D03*
X168275000Y-92710000D03*
X170815000Y-90805000D03*
X169545000Y-90805000D03*
X169545000Y-88265000D03*
X170815000Y-88265000D03*
X170815000Y-85725000D03*
X169545000Y-85725000D03*
X169545000Y-83185000D03*
X170815000Y-83185000D03*
X170815000Y-80010000D03*
X170815000Y-77470000D03*
X170815000Y-74930000D03*
X170815000Y-72390000D03*
X168910000Y-69850000D03*
X166370000Y-69850000D03*
X163830000Y-69850000D03*
X161290000Y-69850000D03*
X154305000Y-69850000D03*
X152400000Y-69850000D03*
X149860000Y-69850000D03*
X147320000Y-69850000D03*
X144780000Y-69850000D03*
X142240000Y-69850000D03*
X139700000Y-69850000D03*
X137160000Y-69850000D03*
X134620000Y-69850000D03*
X132080000Y-69850000D03*
X129540000Y-71755000D03*
X129540000Y-74295000D03*
X129540000Y-76835000D03*
X129540000Y-85090000D03*
X129540000Y-87630000D03*
X129540000Y-90170000D03*
X129540000Y-92710000D03*
X129540000Y-81280000D03*
X129540000Y-83185000D03*
X129540000Y-79375000D03*
X126365000Y-92710000D03*
X123825000Y-92710000D03*
X121920000Y-92710000D03*
X120015000Y-92710000D03*
X111125000Y-88265000D03*
X112395000Y-88265000D03*
X116840000Y-88265000D03*
X118110000Y-88265000D03*
X116840000Y-92710000D03*
X118110000Y-92710000D03*
X112395000Y-92710000D03*
X111125000Y-94615000D03*
X132080000Y-94615000D03*
X133350000Y-94615000D03*
X130810000Y-94615000D03*
X128905000Y-94615000D03*
X126365000Y-94615000D03*
X123825000Y-94615000D03*
X121285000Y-94615000D03*
X116205000Y-94615000D03*
X113665000Y-94615000D03*
X111125000Y-94615000D03*
X134620000Y-94615000D03*
X169799000Y-67945000D03*
X167767000Y-67945000D03*
X165735000Y-67945000D03*
X163703000Y-67945000D03*
X161671000Y-67945000D03*
X159639000Y-67945000D03*
X157607000Y-67945000D03*
X116205000Y-67945000D03*
X118237000Y-67945000D03*
X120777000Y-67945000D03*
X123317000Y-67945000D03*
X175260000Y-65405000D03*
X175260000Y-62865000D03*
X107315000Y-97155000D03*
X118745000Y-94615000D03*
X133350000Y-92710000D03*
X130175000Y-69723000D03*
X170815000Y-69850000D03*
X170815000Y-82550000D03*
D12*
X137160000Y-72930000D03*
X137160000Y-76930000D03*
X149860000Y-72930000D03*
X149860000Y-76930000D03*
X163830000Y-75470000D03*
X163830000Y-79470000D03*
D13*
X167640000Y-75565000D03*
D14*
X167640000Y-78105000D03*
X167640000Y-80645000D03*
X167640000Y-83185000D03*
X167640000Y-85725000D03*
X167640000Y-88265000D03*
X167640000Y-90805000D03*
X160020000Y-90805000D03*
X160020000Y-88265000D03*
X160020000Y-85725000D03*
X160020000Y-83185000D03*
X160020000Y-80645000D03*
X160020000Y-78105000D03*
X160020000Y-75565000D03*
D11*
X170815000Y-92710000D03*
D13*
X140970000Y-73025000D03*
D14*
X140970000Y-75565000D03*
X140970000Y-78105000D03*
X140970000Y-80645000D03*
X140970000Y-83185000D03*
X140970000Y-85725000D03*
X140970000Y-88265000D03*
X140970000Y-90805000D03*
X133350000Y-90805000D03*
X133350000Y-88265000D03*
X133350000Y-85725000D03*
X133350000Y-83185000D03*
X133350000Y-80645000D03*
X133350000Y-78105000D03*
X133350000Y-75565000D03*
X133350000Y-73025000D03*
D13*
X153670000Y-73025000D03*
D14*
X153670000Y-75565000D03*
X153670000Y-78105000D03*
X153670000Y-80645000D03*
X153670000Y-83185000D03*
X153670000Y-85725000D03*
X153670000Y-88265000D03*
X153670000Y-90805000D03*
X146050000Y-90805000D03*
X146050000Y-88265000D03*
X146050000Y-85725000D03*
X146050000Y-83185000D03*
X146050000Y-80645000D03*
X146050000Y-78105000D03*
X146050000Y-75565000D03*
X146050000Y-73025000D03*
D15*
X92583000Y-66167000D03*
D16*
X92583000Y-68707000D03*
X92583000Y-71247000D03*
D17*
X102235000Y-89027000D03*
D18*
X104775000Y-89027000D03*
D13*
X183515000Y-99060000D03*
D14*
X183515000Y-101600000D03*
X183515000Y-104140000D03*
X183515000Y-106680000D03*
X175895000Y-106680000D03*
X175895000Y-104140000D03*
X175895000Y-101600000D03*
X175895000Y-99060000D03*
D15*
X108585000Y-93980000D03*
D16*
X108585000Y-91440000D03*
X108585000Y-88900000D03*
X108585000Y-86360000D03*
X108585000Y-83820000D03*
X108585000Y-81280000D03*
X108585000Y-78740000D03*
X108585000Y-76200000D03*
D19*
X151765000Y-99695000D03*
D20*
X154305000Y-99695000D03*
X156845000Y-99695000D03*
X159385000Y-99695000D03*
X161925000Y-99695000D03*
X164465000Y-99695000D03*
X167005000Y-99695000D03*
X167005000Y-107315000D03*
X164465000Y-107315000D03*
X161925000Y-107315000D03*
X159385000Y-107315000D03*
X156845000Y-107315000D03*
X154305000Y-107315000D03*
X151765000Y-107315000D03*
D21*
X84455000Y-73660000D03*
X84455000Y-76200000D03*
X84455000Y-71120000D03*
D19*
X114935000Y-99695000D03*
D20*
X117475000Y-99695000D03*
X120015000Y-99695000D03*
X122555000Y-99695000D03*
X125095000Y-99695000D03*
X127635000Y-99695000D03*
X130175000Y-99695000D03*
X130175000Y-107315000D03*
X127635000Y-107315000D03*
X125095000Y-107315000D03*
X122555000Y-107315000D03*
X120015000Y-107315000D03*
X117475000Y-107315000D03*
X114935000Y-107315000D03*
D17*
X147955000Y-111760000D03*
D18*
X147955000Y-114300000D03*
D17*
X161925000Y-114300000D03*
D18*
X161925000Y-111760000D03*
D17*
X92583000Y-56007000D03*
D18*
X92583000Y-58547000D03*
D17*
X121920000Y-73660000D03*
D18*
X124460000Y-73660000D03*
D17*
X108585000Y-57150000D03*
D18*
X108585000Y-54610000D03*
D17*
X176530000Y-111760000D03*
D18*
X176530000Y-114300000D03*
D17*
X120650000Y-114300000D03*
D18*
X120650000Y-111760000D03*
D22*
X155575000Y-58420000D03*
D23*
X155575000Y-55880000D03*
X153035000Y-58420000D03*
X153035000Y-55880000D03*
D24*
X103505000Y-54610000D03*
D25*
X103505000Y-64770000D03*
D12*
X146050000Y-107410000D03*
X146050000Y-103410000D03*
X108585000Y-107220000D03*
X108585000Y-111220000D03*
X179705000Y-101505000D03*
X179705000Y-105505000D03*
D26*
X181610000Y-86360000D03*
X181610000Y-76200000D03*
X185420000Y-86360000D03*
X185420000Y-76200000D03*
X141605000Y-97233740D03*
X141605000Y-107393740D03*
X104775000Y-109776260D03*
X104775000Y-99616260D03*
D12*
X91059000Y-79407000D03*
X91059000Y-83407000D03*
D27*
X85725000Y-86995000D03*
D28*
X85725000Y-114995000D03*
D27*
X94615000Y-86995000D03*
D28*
X94615000Y-114995000D03*
D27*
X173990000Y-58420000D03*
D28*
X173990000Y-86420000D03*
D27*
X181610000Y-71755000D03*
D28*
X184110000Y-71755000D03*
D27*
X106045000Y-67945000D03*
D28*
X103545000Y-67945000D03*
D29*
X113710000Y-54910000D03*
D30*
X125910000Y-54910000D03*
X125960000Y-66960000D03*
D29*
X113710000Y-66910000D03*
D30*
X111760000Y-60960000D03*
D17*
X164465000Y-58420000D03*
D18*
X164465000Y-55880000D03*
D17*
X114935000Y-91440000D03*
D18*
X114935000Y-88900000D03*
D27*
X158623000Y-72898000D03*
D28*
X158623000Y-70398000D03*
D31*
X95859600Y-85496400D03*
X133299200Y-68275200D03*
X143840200Y-68275200D03*
X146100800Y-68275200D03*
X153009600Y-68275200D03*
X101981000Y-83693000D03*
X122555000Y-61849000D03*
X139700000Y-61595000D03*
D32*
X92583000Y-56007000D02*
X90043000Y-56007000D01*
X90551000Y-66167000D02*
X92075000Y-66167000D01*
X89535000Y-65151000D02*
X90551000Y-66167000D01*
X89535000Y-56515000D02*
X89535000Y-65151000D01*
X90043000Y-56007000D02*
X89535000Y-56515000D01*
D33*
X141605000Y-107393740D02*
X146033740Y-107393740D01*
D34*
X146033740Y-107393740D02*
X146112480Y-107315000D01*
D33*
X146112480Y-107315000D02*
X151765000Y-107315000D01*
X108585000Y-107220000D02*
X114840000Y-107220000D01*
X114840000Y-107220000D02*
X114935000Y-107315000D01*
X104775000Y-109776260D02*
X106028740Y-109776260D01*
X106028740Y-109776260D02*
X108585000Y-107220000D01*
D32*
X156083000Y-69215000D02*
X156718000Y-69850000D01*
X151003000Y-66929000D02*
X153543000Y-66929000D01*
X141097000Y-66929000D02*
X151003000Y-66929000D01*
X153543000Y-66929000D02*
X156083000Y-69215000D01*
X156718000Y-70993000D02*
X158623000Y-72898000D01*
X156718000Y-69850000D02*
X156718000Y-70993000D01*
D33*
X175895000Y-101600000D02*
X179610000Y-101600000D01*
X179610000Y-101600000D02*
X179705000Y-101505000D01*
X133350000Y-73025000D02*
X137065000Y-73025000D01*
X137065000Y-73025000D02*
X137160000Y-72930000D01*
X160020000Y-75565000D02*
X163735000Y-75565000D01*
X163735000Y-75565000D02*
X163830000Y-75470000D01*
X146050000Y-73025000D02*
X149765000Y-73025000D01*
X149765000Y-73025000D02*
X149860000Y-72930000D01*
X133350000Y-73025000D02*
X133350000Y-69342000D01*
X133350000Y-69342000D02*
X130683000Y-66929000D01*
X141097000Y-66929000D02*
X143383000Y-66675000D01*
X146050000Y-69342000D02*
X146050000Y-73025000D01*
X143383000Y-66675000D02*
X146050000Y-69342000D01*
D32*
X101219000Y-71247000D02*
X126111000Y-71247000D01*
X100711000Y-70739000D02*
X101219000Y-71247000D01*
X98679000Y-68707000D02*
X100711000Y-70739000D01*
X95123000Y-68707000D02*
X98679000Y-68707000D01*
X126111000Y-71247000D02*
X130683000Y-66929000D01*
X130683000Y-66929000D02*
X141097000Y-66929000D01*
D33*
X133350000Y-73025000D02*
X133350000Y-72390000D01*
X158623000Y-72898000D02*
X158623000Y-73533000D01*
X158623000Y-73533000D02*
X160020000Y-75565000D01*
X177927000Y-89027000D02*
X177927000Y-100711000D01*
D32*
X170307000Y-64135000D02*
X174879000Y-68707000D01*
X174879000Y-68707000D02*
X174879000Y-82931000D01*
X174879000Y-82931000D02*
X177927000Y-85979000D01*
X177927000Y-85979000D02*
X177927000Y-89027000D01*
X111379000Y-64135000D02*
X120523000Y-64135000D01*
X120523000Y-64135000D02*
X170307000Y-64135000D01*
D33*
X177038000Y-101600000D02*
X175895000Y-101600000D01*
X177927000Y-100711000D02*
X177038000Y-101600000D01*
X103505000Y-64770000D02*
X103505000Y-65405000D01*
X103505000Y-65405000D02*
X106045000Y-67945000D01*
X111379000Y-64135000D02*
X111379000Y-64579000D01*
X111379000Y-64579000D02*
X113710000Y-66910000D01*
X101219000Y-62103000D02*
X101219000Y-62484000D01*
X101219000Y-62484000D02*
X103505000Y-64770000D01*
D32*
X92583000Y-68707000D02*
X95123000Y-68707000D01*
X95123000Y-68707000D02*
X97663000Y-66167000D01*
X109347000Y-64135000D02*
X111379000Y-64135000D01*
X107315000Y-62103000D02*
X109347000Y-64135000D01*
X99695000Y-62103000D02*
X101219000Y-62103000D01*
X101219000Y-62103000D02*
X107315000Y-62103000D01*
X97663000Y-64135000D02*
X99695000Y-62103000D01*
X97663000Y-66167000D02*
X97663000Y-64135000D01*
X97155000Y-70739000D02*
X97155000Y-102235000D01*
X95123000Y-68707000D02*
X97155000Y-70739000D01*
D33*
X114427000Y-104267000D02*
X114427000Y-103759000D01*
X112316260Y-99616260D02*
X104775000Y-99616260D01*
X112395000Y-99695000D02*
X112316260Y-99616260D01*
X112395000Y-101727000D02*
X112395000Y-99695000D01*
X114427000Y-103759000D02*
X112395000Y-101727000D01*
X135763000Y-104267000D02*
X139319000Y-104267000D01*
D32*
X97155000Y-102235000D02*
X99187000Y-104267000D01*
X99187000Y-104267000D02*
X114427000Y-104267000D01*
X114427000Y-104267000D02*
X135763000Y-104267000D01*
D33*
X141605000Y-101981000D02*
X141605000Y-97233740D01*
X139319000Y-104267000D02*
X141605000Y-101981000D01*
D32*
X104775000Y-89027000D02*
X108585000Y-88900000D01*
D33*
X90805000Y-74295000D02*
X92786200Y-74295000D01*
X95859600Y-77368400D02*
X95859600Y-85496400D01*
X92786200Y-74295000D02*
X95859600Y-77368400D01*
X143840200Y-68275200D02*
X133299200Y-68275200D01*
X153009600Y-68275200D02*
X146100800Y-68275200D01*
D32*
X108585000Y-81280000D02*
X128905000Y-81280000D01*
X101727000Y-83947000D02*
X101219000Y-83947000D01*
X101600000Y-93980000D02*
X108585000Y-93980000D01*
X99187000Y-91567000D02*
X101600000Y-93980000D01*
X99187000Y-85979000D02*
X99187000Y-91567000D01*
X101219000Y-83947000D02*
X99187000Y-85979000D01*
X105918000Y-76200000D02*
X108585000Y-76200000D01*
X104775000Y-77343000D02*
X105918000Y-76200000D01*
X104775000Y-80899000D02*
X104775000Y-77343000D01*
X101981000Y-83693000D02*
X101727000Y-83947000D01*
X101727000Y-83947000D02*
X104775000Y-80899000D01*
D34*
X154813000Y-88265000D02*
X156337000Y-86741000D01*
X156337000Y-86741000D02*
X156337000Y-74295000D01*
X156337000Y-74295000D02*
X155067000Y-73025000D01*
X155067000Y-73025000D02*
X153670000Y-73025000D01*
X153670000Y-88265000D02*
X154813000Y-88265000D01*
X141605000Y-73025000D02*
X140970000Y-73025000D01*
X142621000Y-88265000D02*
X143510000Y-87376000D01*
X143510000Y-87376000D02*
X143510000Y-74930000D01*
X143510000Y-74930000D02*
X141605000Y-73025000D01*
X140970000Y-88265000D02*
X142621000Y-88265000D01*
X131699000Y-75565000D02*
X133350000Y-75565000D01*
X130683000Y-76581000D02*
X131699000Y-75565000D01*
X130683000Y-89027000D02*
X130683000Y-76581000D01*
X132461000Y-90805000D02*
X130683000Y-89027000D01*
X133350000Y-90805000D02*
X132461000Y-90805000D01*
D33*
X91059000Y-76200000D02*
X91059000Y-79407000D01*
D32*
X84455000Y-76200000D02*
X91059000Y-76200000D01*
X91059000Y-76200000D02*
X91948000Y-76200000D01*
X94615000Y-78867000D02*
X94615000Y-86995000D01*
X91948000Y-76200000D02*
X94615000Y-78867000D01*
X84455000Y-71120000D02*
X92456000Y-71120000D01*
X92456000Y-71120000D02*
X92583000Y-71247000D01*
D34*
X139700000Y-61722000D02*
X139573000Y-61849000D01*
X139573000Y-61849000D02*
X122936000Y-61849000D01*
X122936000Y-61849000D02*
X122555000Y-61849000D01*
X139700000Y-61595000D02*
X139700000Y-61722000D01*
X114935000Y-99695000D02*
X114935000Y-101600000D01*
X122555000Y-100965000D02*
X122555000Y-99695000D01*
X121285000Y-102235000D02*
X122555000Y-100965000D01*
X115570000Y-102235000D02*
X121285000Y-102235000D01*
X114935000Y-101600000D02*
X115570000Y-102235000D01*
D35*
G36*
X84602000Y-73787000D02*
X84582000Y-73787000D01*
X84582000Y-73807000D01*
X84328000Y-73807000D01*
X84328000Y-73787000D01*
X82234786Y-73787000D01*
X82113460Y-74016832D01*
X82134351Y-74110810D01*
X82414976Y-74619989D01*
X82795872Y-74924483D01*
X82458052Y-75150208D01*
X82136225Y-75631857D01*
X82023214Y-76200000D01*
X82136225Y-76768143D01*
X82458052Y-77249792D01*
X82939701Y-77571619D01*
X83507844Y-77684630D01*
X84328000Y-77684630D01*
X84328000Y-84963000D01*
X80518000Y-84963000D01*
X80518000Y-116790000D01*
X70330473Y-116790000D01*
X70330473Y-112557664D01*
X70330473Y-56677664D01*
X69968134Y-55800737D01*
X69297792Y-55129224D01*
X68421499Y-54765355D01*
X67472664Y-54764527D01*
X66595737Y-55126866D01*
X65924224Y-55797208D01*
X65560355Y-56673501D01*
X65559527Y-57622336D01*
X65921866Y-58499263D01*
X66592208Y-59170776D01*
X67468501Y-59534645D01*
X68417336Y-59535473D01*
X69294263Y-59173134D01*
X69965776Y-58502792D01*
X70329645Y-57626499D01*
X70330473Y-56677664D01*
X70330473Y-112557664D01*
X70226359Y-112305688D01*
X70226359Y-73157985D01*
X69841254Y-72225959D01*
X69128792Y-71512252D01*
X68197439Y-71125521D01*
X67188985Y-71124641D01*
X66256959Y-71509746D01*
X65543252Y-72222208D01*
X65156521Y-73153561D01*
X65155641Y-74162015D01*
X65540746Y-75094041D01*
X66253208Y-75807748D01*
X67184561Y-76194479D01*
X68193015Y-76195359D01*
X69125041Y-75810254D01*
X69838748Y-75097792D01*
X70225479Y-74166439D01*
X70226359Y-73157985D01*
X70226359Y-112305688D01*
X69968134Y-111680737D01*
X69297792Y-111009224D01*
X68421499Y-110645355D01*
X67472664Y-110644527D01*
X66595737Y-111006866D01*
X65924224Y-111677208D01*
X65560355Y-112553501D01*
X65559527Y-113502336D01*
X65921866Y-114379263D01*
X66592208Y-115050776D01*
X67468501Y-115414645D01*
X68417336Y-115415473D01*
X69294263Y-115053134D01*
X69965776Y-114382792D01*
X70329645Y-113506499D01*
X70330473Y-112557664D01*
X70330473Y-116790000D01*
X64185000Y-116790000D01*
X64185000Y-53390000D01*
X84328000Y-53390000D01*
X84328000Y-69635370D01*
X83507844Y-69635370D01*
X82939701Y-69748381D01*
X82458052Y-70070208D01*
X82136225Y-70551857D01*
X82023214Y-71120000D01*
X82136225Y-71688143D01*
X82458052Y-72169792D01*
X82795872Y-72395516D01*
X82414976Y-72700011D01*
X82134351Y-73209190D01*
X82113460Y-73303168D01*
X82234786Y-73533000D01*
X84328000Y-73533000D01*
X84328000Y-73513000D01*
X84582000Y-73513000D01*
X84582000Y-73533000D01*
X84602000Y-73533000D01*
X84602000Y-73787000D01*
X84602000Y-73787000D01*
G37*
X84602000Y-73787000D02*
X84582000Y-73787000D01*
X84582000Y-73807000D01*
X84328000Y-73807000D01*
X84328000Y-73787000D01*
X82234786Y-73787000D01*
X82113460Y-74016832D01*
X82134351Y-74110810D01*
X82414976Y-74619989D01*
X82795872Y-74924483D01*
X82458052Y-75150208D01*
X82136225Y-75631857D01*
X82023214Y-76200000D01*
X82136225Y-76768143D01*
X82458052Y-77249792D01*
X82939701Y-77571619D01*
X83507844Y-77684630D01*
X84328000Y-77684630D01*
X84328000Y-84963000D01*
X80518000Y-84963000D01*
X80518000Y-116790000D01*
X70330473Y-116790000D01*
X70330473Y-112557664D01*
X70330473Y-56677664D01*
X69968134Y-55800737D01*
X69297792Y-55129224D01*
X68421499Y-54765355D01*
X67472664Y-54764527D01*
X66595737Y-55126866D01*
X65924224Y-55797208D01*
X65560355Y-56673501D01*
X65559527Y-57622336D01*
X65921866Y-58499263D01*
X66592208Y-59170776D01*
X67468501Y-59534645D01*
X68417336Y-59535473D01*
X69294263Y-59173134D01*
X69965776Y-58502792D01*
X70329645Y-57626499D01*
X70330473Y-56677664D01*
X70330473Y-112557664D01*
X70226359Y-112305688D01*
X70226359Y-73157985D01*
X69841254Y-72225959D01*
X69128792Y-71512252D01*
X68197439Y-71125521D01*
X67188985Y-71124641D01*
X66256959Y-71509746D01*
X65543252Y-72222208D01*
X65156521Y-73153561D01*
X65155641Y-74162015D01*
X65540746Y-75094041D01*
X66253208Y-75807748D01*
X67184561Y-76194479D01*
X68193015Y-76195359D01*
X69125041Y-75810254D01*
X69838748Y-75097792D01*
X70225479Y-74166439D01*
X70226359Y-73157985D01*
X70226359Y-112305688D01*
X69968134Y-111680737D01*
X69297792Y-111009224D01*
X68421499Y-110645355D01*
X67472664Y-110644527D01*
X66595737Y-111006866D01*
X65924224Y-111677208D01*
X65560355Y-112553501D01*
X65559527Y-113502336D01*
X65921866Y-114379263D01*
X66592208Y-115050776D01*
X67468501Y-115414645D01*
X68417336Y-115415473D01*
X69294263Y-115053134D01*
X69965776Y-114382792D01*
X70329645Y-113506499D01*
X70330473Y-112557664D01*
X70330473Y-116790000D01*
X64185000Y-116790000D01*
X64185000Y-53390000D01*
X84328000Y-53390000D01*
X84328000Y-69635370D01*
X83507844Y-69635370D01*
X82939701Y-69748381D01*
X82458052Y-70070208D01*
X82136225Y-70551857D01*
X82023214Y-71120000D01*
X82136225Y-71688143D01*
X82458052Y-72169792D01*
X82795872Y-72395516D01*
X82414976Y-72700011D01*
X82134351Y-73209190D01*
X82113460Y-73303168D01*
X82234786Y-73533000D01*
X84328000Y-73533000D01*
X84328000Y-73513000D01*
X84582000Y-73513000D01*
X84582000Y-73533000D01*
X84602000Y-73533000D01*
X84602000Y-73787000D01*
G36*
X114173000Y-69977000D02*
X104264410Y-69977000D01*
X104264410Y-68844016D01*
X103545000Y-68124605D01*
X103365395Y-68304210D01*
X103365395Y-67945000D01*
X102645984Y-67225590D01*
X102415389Y-67281271D01*
X102247378Y-67764078D01*
X102276917Y-68274428D01*
X102415389Y-68608729D01*
X102645984Y-68664410D01*
X103365395Y-67945000D01*
X103365395Y-68304210D01*
X102825590Y-68844016D01*
X102881271Y-69074611D01*
X103364078Y-69242622D01*
X103874428Y-69213083D01*
X104208729Y-69074611D01*
X104264410Y-68844016D01*
X104264410Y-69977000D01*
X101745051Y-69977000D01*
X101727000Y-69958948D01*
X101727000Y-64243579D01*
X102007930Y-64524509D01*
X102007930Y-65619630D01*
X102054907Y-65861753D01*
X102194697Y-66074557D01*
X102405730Y-66217007D01*
X102655370Y-66267070D01*
X103115490Y-66267070D01*
X103508389Y-66659968D01*
X103215572Y-66676917D01*
X102881271Y-66815389D01*
X102825590Y-67045984D01*
X103545000Y-67765395D01*
X103559142Y-67751252D01*
X103738747Y-67930857D01*
X103724605Y-67945000D01*
X104444016Y-68664410D01*
X104674611Y-68608729D01*
X104747560Y-68399098D01*
X104747560Y-68595000D01*
X104794537Y-68837123D01*
X104934327Y-69049927D01*
X105145360Y-69192377D01*
X105395000Y-69242440D01*
X106695000Y-69242440D01*
X106937123Y-69195463D01*
X107149927Y-69055673D01*
X107292377Y-68844640D01*
X107342440Y-68595000D01*
X107342440Y-67295000D01*
X107295463Y-67052877D01*
X107155673Y-66840073D01*
X106944640Y-66697623D01*
X106695000Y-66647560D01*
X105999139Y-66647560D01*
X104996915Y-65645335D01*
X105002070Y-65619630D01*
X105002070Y-63920370D01*
X104955093Y-63678247D01*
X104815303Y-63465443D01*
X104678353Y-63373000D01*
X106788948Y-63373000D01*
X108448974Y-65033026D01*
X108860992Y-65308327D01*
X109347000Y-65405001D01*
X109347000Y-65405000D01*
X109347005Y-65405000D01*
X110953420Y-65405000D01*
X111900585Y-66352165D01*
X111825328Y-66533405D01*
X111824674Y-67283305D01*
X112111043Y-67976372D01*
X112640839Y-68507093D01*
X113333405Y-68794672D01*
X114083305Y-68795326D01*
X114173000Y-68758264D01*
X114173000Y-69977000D01*
X114173000Y-69977000D01*
G37*
X114173000Y-69977000D02*
X104264410Y-69977000D01*
X104264410Y-68844016D01*
X103545000Y-68124605D01*
X103365395Y-68304210D01*
X103365395Y-67945000D01*
X102645984Y-67225590D01*
X102415389Y-67281271D01*
X102247378Y-67764078D01*
X102276917Y-68274428D01*
X102415389Y-68608729D01*
X102645984Y-68664410D01*
X103365395Y-67945000D01*
X103365395Y-68304210D01*
X102825590Y-68844016D01*
X102881271Y-69074611D01*
X103364078Y-69242622D01*
X103874428Y-69213083D01*
X104208729Y-69074611D01*
X104264410Y-68844016D01*
X104264410Y-69977000D01*
X101745051Y-69977000D01*
X101727000Y-69958948D01*
X101727000Y-64243579D01*
X102007930Y-64524509D01*
X102007930Y-65619630D01*
X102054907Y-65861753D01*
X102194697Y-66074557D01*
X102405730Y-66217007D01*
X102655370Y-66267070D01*
X103115490Y-66267070D01*
X103508389Y-66659968D01*
X103215572Y-66676917D01*
X102881271Y-66815389D01*
X102825590Y-67045984D01*
X103545000Y-67765395D01*
X103559142Y-67751252D01*
X103738747Y-67930857D01*
X103724605Y-67945000D01*
X104444016Y-68664410D01*
X104674611Y-68608729D01*
X104747560Y-68399098D01*
X104747560Y-68595000D01*
X104794537Y-68837123D01*
X104934327Y-69049927D01*
X105145360Y-69192377D01*
X105395000Y-69242440D01*
X106695000Y-69242440D01*
X106937123Y-69195463D01*
X107149927Y-69055673D01*
X107292377Y-68844640D01*
X107342440Y-68595000D01*
X107342440Y-67295000D01*
X107295463Y-67052877D01*
X107155673Y-66840073D01*
X106944640Y-66697623D01*
X106695000Y-66647560D01*
X105999139Y-66647560D01*
X104996915Y-65645335D01*
X105002070Y-65619630D01*
X105002070Y-63920370D01*
X104955093Y-63678247D01*
X104815303Y-63465443D01*
X104678353Y-63373000D01*
X106788948Y-63373000D01*
X108448974Y-65033026D01*
X108860992Y-65308327D01*
X109347000Y-65405001D01*
X109347000Y-65405000D01*
X109347005Y-65405000D01*
X110953420Y-65405000D01*
X111900585Y-66352165D01*
X111825328Y-66533405D01*
X111824674Y-67283305D01*
X112111043Y-67976372D01*
X112640839Y-68507093D01*
X113333405Y-68794672D01*
X114083305Y-68795326D01*
X114173000Y-68758264D01*
X114173000Y-69977000D01*
G36*
X114173000Y-79883000D02*
X109704702Y-79883000D01*
X109829415Y-79799670D01*
X110154271Y-79313489D01*
X110268345Y-78740000D01*
X110154271Y-78166511D01*
X109829415Y-77680330D01*
X109519930Y-77473539D01*
X109935732Y-77102036D01*
X110189709Y-76574791D01*
X110192358Y-76559026D01*
X110192358Y-75840974D01*
X110189709Y-75825209D01*
X109935732Y-75297964D01*
X109499320Y-74908046D01*
X108946913Y-74714816D01*
X108712000Y-74859076D01*
X108712000Y-76073000D01*
X110071217Y-76073000D01*
X110192358Y-75840974D01*
X110192358Y-76559026D01*
X110071217Y-76327000D01*
X108712000Y-76327000D01*
X108712000Y-76347000D01*
X108458000Y-76347000D01*
X108458000Y-76327000D01*
X108458000Y-76073000D01*
X108458000Y-74859076D01*
X108223087Y-74714816D01*
X107670680Y-74908046D01*
X107234268Y-75297964D01*
X106980291Y-75825209D01*
X106977642Y-75840974D01*
X107098783Y-76073000D01*
X108458000Y-76073000D01*
X108458000Y-76327000D01*
X107098783Y-76327000D01*
X106977642Y-76559026D01*
X106980291Y-76574791D01*
X107234268Y-77102036D01*
X107650069Y-77473539D01*
X107340585Y-77680330D01*
X107015729Y-78166511D01*
X106901655Y-78740000D01*
X107015729Y-79313489D01*
X107340585Y-79799670D01*
X107465297Y-79883000D01*
X101727000Y-79883000D01*
X101727000Y-72517000D01*
X114173000Y-72517000D01*
X114173000Y-79883000D01*
X114173000Y-79883000D01*
G37*
X114173000Y-79883000D02*
X109704702Y-79883000D01*
X109829415Y-79799670D01*
X110154271Y-79313489D01*
X110268345Y-78740000D01*
X110154271Y-78166511D01*
X109829415Y-77680330D01*
X109519930Y-77473539D01*
X109935732Y-77102036D01*
X110189709Y-76574791D01*
X110192358Y-76559026D01*
X110192358Y-75840974D01*
X110189709Y-75825209D01*
X109935732Y-75297964D01*
X109499320Y-74908046D01*
X108946913Y-74714816D01*
X108712000Y-74859076D01*
X108712000Y-76073000D01*
X110071217Y-76073000D01*
X110192358Y-75840974D01*
X110192358Y-76559026D01*
X110071217Y-76327000D01*
X108712000Y-76327000D01*
X108712000Y-76347000D01*
X108458000Y-76347000D01*
X108458000Y-76327000D01*
X108458000Y-76073000D01*
X108458000Y-74859076D01*
X108223087Y-74714816D01*
X107670680Y-74908046D01*
X107234268Y-75297964D01*
X106980291Y-75825209D01*
X106977642Y-75840974D01*
X107098783Y-76073000D01*
X108458000Y-76073000D01*
X108458000Y-76327000D01*
X107098783Y-76327000D01*
X106977642Y-76559026D01*
X106980291Y-76574791D01*
X107234268Y-77102036D01*
X107650069Y-77473539D01*
X107340585Y-77680330D01*
X107015729Y-78166511D01*
X106901655Y-78740000D01*
X107015729Y-79313489D01*
X107340585Y-79799670D01*
X107465297Y-79883000D01*
X101727000Y-79883000D01*
X101727000Y-72517000D01*
X114173000Y-72517000D01*
X114173000Y-79883000D01*
G36*
X124495732Y-65405000D02*
X124151091Y-65749041D01*
X123825372Y-66533459D01*
X123824630Y-67382815D01*
X124148980Y-68167800D01*
X124433682Y-68453000D01*
X114832426Y-68453000D01*
X115307093Y-67979161D01*
X115594672Y-67286595D01*
X115595326Y-66536695D01*
X115308957Y-65843628D01*
X114871093Y-65405000D01*
X120523000Y-65405000D01*
X124495732Y-65405000D01*
X124495732Y-65405000D01*
G37*
X124495732Y-65405000D02*
X124151091Y-65749041D01*
X123825372Y-66533459D01*
X123824630Y-67382815D01*
X124148980Y-68167800D01*
X124433682Y-68453000D01*
X114832426Y-68453000D01*
X115307093Y-67979161D01*
X115594672Y-67286595D01*
X115595326Y-66536695D01*
X115308957Y-65843628D01*
X114871093Y-65405000D01*
X120523000Y-65405000D01*
X124495732Y-65405000D01*
G36*
X153337877Y-68453000D02*
X146412579Y-68453000D01*
X146158579Y-68199000D01*
X151003000Y-68199000D01*
X153055655Y-68199000D01*
X153337877Y-68453000D01*
X153337877Y-68453000D01*
G37*
X153337877Y-68453000D02*
X146412579Y-68453000D01*
X146158579Y-68199000D01*
X151003000Y-68199000D01*
X153055655Y-68199000D01*
X153337877Y-68453000D01*
G36*
X187275000Y-109093000D02*
X187054774Y-109093000D01*
X187054774Y-86036306D01*
X187054774Y-75876306D01*
X186806462Y-75275345D01*
X186347073Y-74815154D01*
X185746547Y-74565794D01*
X185407622Y-74565497D01*
X185407622Y-71935922D01*
X185378083Y-71425572D01*
X185239611Y-71091271D01*
X185009016Y-71035590D01*
X184829410Y-71215195D01*
X184829410Y-70855984D01*
X184773729Y-70625389D01*
X184290922Y-70457378D01*
X183780572Y-70486917D01*
X183446271Y-70625389D01*
X183390590Y-70855984D01*
X184110000Y-71575395D01*
X184829410Y-70855984D01*
X184829410Y-71215195D01*
X184289605Y-71755000D01*
X185009016Y-72474410D01*
X185239611Y-72418729D01*
X185407622Y-71935922D01*
X185407622Y-74565497D01*
X185096306Y-74565226D01*
X184829410Y-74675505D01*
X184829410Y-72654016D01*
X184110000Y-71934605D01*
X183930395Y-72114210D01*
X183930395Y-71755000D01*
X183210984Y-71035590D01*
X182980389Y-71091271D01*
X182907440Y-71300901D01*
X182907440Y-71105000D01*
X182860463Y-70862877D01*
X182720673Y-70650073D01*
X182509640Y-70507623D01*
X182260000Y-70457560D01*
X180960000Y-70457560D01*
X180717877Y-70504537D01*
X180505073Y-70644327D01*
X180362623Y-70855360D01*
X180312560Y-71105000D01*
X180312560Y-72405000D01*
X180359537Y-72647123D01*
X180499327Y-72859927D01*
X180710360Y-73002377D01*
X180960000Y-73052440D01*
X182260000Y-73052440D01*
X182502123Y-73005463D01*
X182714927Y-72865673D01*
X182857377Y-72654640D01*
X182907440Y-72405000D01*
X182907440Y-72242614D01*
X182980389Y-72418729D01*
X183210984Y-72474410D01*
X183930395Y-71755000D01*
X183930395Y-72114210D01*
X183390590Y-72654016D01*
X183446271Y-72884611D01*
X183929078Y-73052622D01*
X184439428Y-73023083D01*
X184773729Y-72884611D01*
X184829410Y-72654016D01*
X184829410Y-74675505D01*
X184495345Y-74813538D01*
X184035154Y-75272927D01*
X183785794Y-75873453D01*
X183785226Y-76523694D01*
X184033538Y-77124655D01*
X184492927Y-77584846D01*
X185093453Y-77834206D01*
X185743694Y-77834774D01*
X186344655Y-77586462D01*
X186804846Y-77127073D01*
X187054206Y-76526547D01*
X187054774Y-75876306D01*
X187054774Y-86036306D01*
X186806462Y-85435345D01*
X186347073Y-84975154D01*
X185746547Y-84725794D01*
X185096306Y-84725226D01*
X184495345Y-84973538D01*
X184035154Y-85432927D01*
X183785794Y-86033453D01*
X183785226Y-86683694D01*
X184033538Y-87284655D01*
X184492927Y-87744846D01*
X185093453Y-87994206D01*
X185743694Y-87994774D01*
X186344655Y-87746462D01*
X186804846Y-87287073D01*
X187054206Y-86686547D01*
X187054774Y-86036306D01*
X187054774Y-109093000D01*
X185327833Y-109093000D01*
X185327833Y-104140000D01*
X185219559Y-103595671D01*
X184911222Y-103134211D01*
X184515801Y-102869999D01*
X184911222Y-102605789D01*
X185219559Y-102144329D01*
X185327833Y-101600000D01*
X185219559Y-101055671D01*
X184911222Y-100594211D01*
X184738986Y-100479126D01*
X184900123Y-100447863D01*
X185112927Y-100308073D01*
X185255377Y-100097040D01*
X185305440Y-99847400D01*
X185305440Y-98272600D01*
X185258463Y-98030477D01*
X185118673Y-97817673D01*
X184907640Y-97675223D01*
X184658000Y-97625160D01*
X183244774Y-97625160D01*
X183244774Y-86036306D01*
X183244774Y-75876306D01*
X182996462Y-75275345D01*
X182537073Y-74815154D01*
X181936547Y-74565794D01*
X181286306Y-74565226D01*
X180685345Y-74813538D01*
X180225154Y-75272927D01*
X179975794Y-75873453D01*
X179975226Y-76523694D01*
X180223538Y-77124655D01*
X180682927Y-77584846D01*
X181283453Y-77834206D01*
X181933694Y-77834774D01*
X182534655Y-77586462D01*
X182994846Y-77127073D01*
X183244206Y-76526547D01*
X183244774Y-75876306D01*
X183244774Y-86036306D01*
X182996462Y-85435345D01*
X182537073Y-84975154D01*
X181936547Y-84725794D01*
X181286306Y-84725226D01*
X180685345Y-84973538D01*
X180225154Y-85432927D01*
X179975794Y-86033453D01*
X179975226Y-86683694D01*
X180223538Y-87284655D01*
X180682927Y-87744846D01*
X181283453Y-87994206D01*
X181933694Y-87994774D01*
X182534655Y-87746462D01*
X182994846Y-87287073D01*
X183244206Y-86686547D01*
X183244774Y-86036306D01*
X183244774Y-97625160D01*
X182372000Y-97625160D01*
X182129877Y-97672137D01*
X181917073Y-97811927D01*
X181774623Y-98022960D01*
X181724560Y-98272600D01*
X181724560Y-99847400D01*
X181771537Y-100089523D01*
X181911327Y-100302327D01*
X182122360Y-100444777D01*
X182291621Y-100478720D01*
X182118778Y-100594211D01*
X181810441Y-101055671D01*
X181702167Y-101600000D01*
X181810441Y-102144329D01*
X182118778Y-102605789D01*
X182514198Y-102869999D01*
X182118778Y-103134211D01*
X181810441Y-103595671D01*
X181702167Y-104140000D01*
X181810441Y-104684329D01*
X182118778Y-105145789D01*
X182513829Y-105409753D01*
X182497738Y-105414475D01*
X182063809Y-105764014D01*
X181796673Y-106253004D01*
X181779990Y-106332940D01*
X181902148Y-106553000D01*
X183388000Y-106553000D01*
X183388000Y-106533000D01*
X183642000Y-106533000D01*
X183642000Y-106553000D01*
X185127852Y-106553000D01*
X185250010Y-106332940D01*
X185233327Y-106253004D01*
X184966191Y-105764014D01*
X184532262Y-105414475D01*
X184516170Y-105409753D01*
X184911222Y-105145789D01*
X185219559Y-104684329D01*
X185327833Y-104140000D01*
X185327833Y-109093000D01*
X185250010Y-109093000D01*
X185250010Y-107027060D01*
X185127852Y-106807000D01*
X183642000Y-106807000D01*
X183642000Y-108102400D01*
X183997600Y-108102400D01*
X184532262Y-107945525D01*
X184966191Y-107595986D01*
X185233327Y-107106996D01*
X185250010Y-107027060D01*
X185250010Y-109093000D01*
X183388000Y-109093000D01*
X183388000Y-108102400D01*
X183388000Y-106807000D01*
X181902148Y-106807000D01*
X181779990Y-107027060D01*
X181796673Y-107106996D01*
X182063809Y-107595986D01*
X182497738Y-107945525D01*
X183032400Y-108102400D01*
X183388000Y-108102400D01*
X183388000Y-109093000D01*
X181140000Y-109093000D01*
X181140000Y-106631309D01*
X181140000Y-105790750D01*
X181140000Y-105219250D01*
X181140000Y-104378691D01*
X181043327Y-104145302D01*
X180864699Y-103966673D01*
X180631310Y-103870000D01*
X180378691Y-103870000D01*
X179990750Y-103870000D01*
X179832000Y-104028750D01*
X179832000Y-105378000D01*
X180981250Y-105378000D01*
X181140000Y-105219250D01*
X181140000Y-105790750D01*
X180981250Y-105632000D01*
X179832000Y-105632000D01*
X179832000Y-106981250D01*
X179990750Y-107140000D01*
X180378691Y-107140000D01*
X180631310Y-107140000D01*
X180864699Y-107043327D01*
X181043327Y-106864698D01*
X181140000Y-106631309D01*
X181140000Y-109093000D01*
X179578000Y-109093000D01*
X179578000Y-106981250D01*
X179578000Y-105632000D01*
X179578000Y-105378000D01*
X179578000Y-104028750D01*
X179419250Y-103870000D01*
X179031309Y-103870000D01*
X178778690Y-103870000D01*
X178545301Y-103966673D01*
X178366673Y-104145302D01*
X178270000Y-104378691D01*
X178270000Y-105219250D01*
X178428750Y-105378000D01*
X179578000Y-105378000D01*
X179578000Y-105632000D01*
X178428750Y-105632000D01*
X178270000Y-105790750D01*
X178270000Y-106631309D01*
X178366673Y-106864698D01*
X178545301Y-107043327D01*
X178778690Y-107140000D01*
X179031309Y-107140000D01*
X179419250Y-107140000D01*
X179578000Y-106981250D01*
X179578000Y-109093000D01*
X179578000Y-116790000D01*
X178193440Y-116790000D01*
X178193440Y-112776000D01*
X178193440Y-110744000D01*
X178146463Y-110501877D01*
X178006673Y-110289073D01*
X177795640Y-110146623D01*
X177546000Y-110096560D01*
X175514000Y-110096560D01*
X175271877Y-110143537D01*
X175059073Y-110283327D01*
X174916623Y-110494360D01*
X174866560Y-110744000D01*
X174866560Y-112776000D01*
X174913537Y-113018123D01*
X175053327Y-113230927D01*
X175213043Y-113338737D01*
X175123615Y-113435182D01*
X174924025Y-113917056D01*
X175043164Y-114173000D01*
X176403000Y-114173000D01*
X176403000Y-114153000D01*
X176657000Y-114153000D01*
X176657000Y-114173000D01*
X178016836Y-114173000D01*
X178135975Y-113917056D01*
X177936385Y-113435182D01*
X177846425Y-113338164D01*
X178000927Y-113236673D01*
X178143377Y-113025640D01*
X178193440Y-112776000D01*
X178193440Y-116790000D01*
X178135975Y-116790000D01*
X178135975Y-114682944D01*
X178016836Y-114427000D01*
X176657000Y-114427000D01*
X176657000Y-115787367D01*
X176912946Y-115905983D01*
X177498379Y-115637188D01*
X177936385Y-115164818D01*
X178135975Y-114682944D01*
X178135975Y-116790000D01*
X176403000Y-116790000D01*
X176403000Y-115787367D01*
X176403000Y-114427000D01*
X175043164Y-114427000D01*
X174924025Y-114682944D01*
X175123615Y-115164818D01*
X175561621Y-115637188D01*
X176147054Y-115905983D01*
X176403000Y-115787367D01*
X176403000Y-116790000D01*
X172212000Y-116790000D01*
X172212000Y-68453000D01*
X157117051Y-68453000D01*
X156981026Y-68316974D01*
X156952859Y-68298153D01*
X156932586Y-68271017D01*
X154392585Y-65985016D01*
X154207786Y-65875128D01*
X154029008Y-65755673D01*
X153995782Y-65749064D01*
X153966667Y-65731751D01*
X153753878Y-65700946D01*
X153543000Y-65659000D01*
X151003000Y-65659000D01*
X141097000Y-65659000D01*
X130683000Y-65659000D01*
X130457464Y-65703861D01*
X130230701Y-65742271D01*
X130215080Y-65752075D01*
X130196992Y-65755673D01*
X130005771Y-65883442D01*
X129810988Y-66005693D01*
X127930565Y-67781647D01*
X128094628Y-67386541D01*
X128095370Y-66537185D01*
X127771020Y-65752200D01*
X127424425Y-65405000D01*
X169780948Y-65405000D01*
X173609000Y-69233051D01*
X173609000Y-82930994D01*
X173608999Y-82931000D01*
X173705673Y-83417008D01*
X173980974Y-83829026D01*
X176657000Y-86505052D01*
X176657000Y-89027000D01*
X176753673Y-89513008D01*
X177028974Y-89925026D01*
X177042000Y-89933729D01*
X177042000Y-97887686D01*
X176829762Y-97745874D01*
X176285433Y-97637600D01*
X175504567Y-97637600D01*
X175287622Y-97680753D01*
X175287622Y-86600922D01*
X175258083Y-86090572D01*
X175119611Y-85756271D01*
X174889016Y-85700590D01*
X174709410Y-85880195D01*
X174709410Y-85520984D01*
X174653729Y-85290389D01*
X174170922Y-85122378D01*
X173660572Y-85151917D01*
X173326271Y-85290389D01*
X173270590Y-85520984D01*
X173990000Y-86240395D01*
X174709410Y-85520984D01*
X174709410Y-85880195D01*
X174169605Y-86420000D01*
X174889016Y-87139410D01*
X175119611Y-87083729D01*
X175287622Y-86600922D01*
X175287622Y-97680753D01*
X174960238Y-97745874D01*
X174709410Y-97913471D01*
X174709410Y-87319016D01*
X173990000Y-86599605D01*
X173810395Y-86779210D01*
X173810395Y-86420000D01*
X173090984Y-85700590D01*
X172860389Y-85756271D01*
X172692378Y-86239078D01*
X172721917Y-86749428D01*
X172860389Y-87083729D01*
X173090984Y-87139410D01*
X173810395Y-86420000D01*
X173810395Y-86779210D01*
X173270590Y-87319016D01*
X173326271Y-87549611D01*
X173809078Y-87717622D01*
X174319428Y-87688083D01*
X174653729Y-87549611D01*
X174709410Y-87319016D01*
X174709410Y-97913471D01*
X174498778Y-98054211D01*
X174190441Y-98515671D01*
X174082167Y-99060000D01*
X174190441Y-99604329D01*
X174498778Y-100065789D01*
X174894198Y-100329999D01*
X174498778Y-100594211D01*
X174190441Y-101055671D01*
X174082167Y-101600000D01*
X174190441Y-102144329D01*
X174498778Y-102605789D01*
X174894198Y-102869999D01*
X174498778Y-103134211D01*
X174190441Y-103595671D01*
X174082167Y-104140000D01*
X174190441Y-104684329D01*
X174498778Y-105145789D01*
X174894198Y-105409999D01*
X174498778Y-105674211D01*
X174190441Y-106135671D01*
X174082167Y-106680000D01*
X174190441Y-107224329D01*
X174498778Y-107685789D01*
X174960238Y-107994126D01*
X175504567Y-108102400D01*
X176285433Y-108102400D01*
X176829762Y-107994126D01*
X177291222Y-107685789D01*
X177599559Y-107224329D01*
X177707833Y-106680000D01*
X177599559Y-106135671D01*
X177291222Y-105674211D01*
X176895801Y-105409999D01*
X177291222Y-105145789D01*
X177599559Y-104684329D01*
X177707833Y-104140000D01*
X177599559Y-103595671D01*
X177291222Y-103134211D01*
X176895801Y-102869999D01*
X177291222Y-102605789D01*
X177371930Y-102485000D01*
X178257560Y-102485000D01*
X178257560Y-102505000D01*
X178304537Y-102747123D01*
X178444327Y-102959927D01*
X178655360Y-103102377D01*
X178905000Y-103152440D01*
X180505000Y-103152440D01*
X180747123Y-103105463D01*
X180959927Y-102965673D01*
X181102377Y-102754640D01*
X181152440Y-102505000D01*
X181152440Y-100505000D01*
X181105463Y-100262877D01*
X180965673Y-100050073D01*
X180754640Y-99907623D01*
X180505000Y-99857560D01*
X178905000Y-99857560D01*
X178812000Y-99875603D01*
X178812000Y-89933729D01*
X178825026Y-89925026D01*
X179100327Y-89513008D01*
X179197000Y-89027000D01*
X179197000Y-85979005D01*
X179197000Y-85979000D01*
X179197001Y-85979000D01*
X179100327Y-85492992D01*
X178825026Y-85080974D01*
X176149000Y-82404948D01*
X176149000Y-68707000D01*
X176052327Y-68220992D01*
X175777026Y-67808974D01*
X175777022Y-67808971D01*
X175287440Y-67319388D01*
X175287440Y-59070000D01*
X175287440Y-57770000D01*
X175240463Y-57527877D01*
X175100673Y-57315073D01*
X174889640Y-57172623D01*
X174640000Y-57122560D01*
X173340000Y-57122560D01*
X173097877Y-57169537D01*
X172885073Y-57309327D01*
X172742623Y-57520360D01*
X172692560Y-57770000D01*
X172692560Y-59070000D01*
X172739537Y-59312123D01*
X172879327Y-59524927D01*
X173090360Y-59667377D01*
X173340000Y-59717440D01*
X174640000Y-59717440D01*
X174882123Y-59670463D01*
X175094927Y-59530673D01*
X175237377Y-59319640D01*
X175287440Y-59070000D01*
X175287440Y-67319388D01*
X171205026Y-63236974D01*
X170793008Y-62961673D01*
X170307000Y-62864999D01*
X170306994Y-62865000D01*
X166128440Y-62865000D01*
X166128440Y-59436000D01*
X166128440Y-57404000D01*
X166081463Y-57161877D01*
X165941673Y-56949073D01*
X165781956Y-56841262D01*
X165871385Y-56744818D01*
X166070975Y-56262944D01*
X166070975Y-55497056D01*
X165871385Y-55015182D01*
X165433379Y-54542812D01*
X164847946Y-54274017D01*
X164592000Y-54392633D01*
X164592000Y-55753000D01*
X165951836Y-55753000D01*
X166070975Y-55497056D01*
X166070975Y-56262944D01*
X165951836Y-56007000D01*
X164592000Y-56007000D01*
X164592000Y-56027000D01*
X164338000Y-56027000D01*
X164338000Y-56007000D01*
X164338000Y-55753000D01*
X164338000Y-54392633D01*
X164082054Y-54274017D01*
X163496621Y-54542812D01*
X163058615Y-55015182D01*
X162859025Y-55497056D01*
X162978164Y-55753000D01*
X164338000Y-55753000D01*
X164338000Y-56007000D01*
X162978164Y-56007000D01*
X162859025Y-56262944D01*
X163058615Y-56744818D01*
X163148574Y-56841835D01*
X162994073Y-56943327D01*
X162851623Y-57154360D01*
X162801560Y-57404000D01*
X162801560Y-59436000D01*
X162848537Y-59678123D01*
X162988327Y-59890927D01*
X163199360Y-60033377D01*
X163449000Y-60083440D01*
X165481000Y-60083440D01*
X165723123Y-60036463D01*
X165935927Y-59896673D01*
X166078377Y-59685640D01*
X166128440Y-59436000D01*
X166128440Y-62865000D01*
X157086040Y-62865000D01*
X157086040Y-59283600D01*
X157086040Y-57556400D01*
X157039063Y-57314277D01*
X156899273Y-57101473D01*
X156688240Y-56959023D01*
X156593821Y-56940088D01*
X156781821Y-56768490D01*
X157029968Y-56239027D01*
X157029968Y-55520973D01*
X156781821Y-54991510D01*
X156349947Y-54597312D01*
X155934026Y-54425042D01*
X155702000Y-54546183D01*
X155702000Y-55753000D01*
X156909469Y-55753000D01*
X157029968Y-55520973D01*
X157029968Y-56239027D01*
X156909469Y-56007000D01*
X155702000Y-56007000D01*
X155702000Y-56027000D01*
X155448000Y-56027000D01*
X155448000Y-56007000D01*
X155448000Y-55753000D01*
X155448000Y-54546183D01*
X155215974Y-54425042D01*
X154800053Y-54597312D01*
X154368179Y-54991510D01*
X154304999Y-55126312D01*
X154241821Y-54991510D01*
X153809947Y-54597312D01*
X153394026Y-54425042D01*
X153162000Y-54546183D01*
X153162000Y-55753000D01*
X154240531Y-55753000D01*
X154369469Y-55753000D01*
X155448000Y-55753000D01*
X155448000Y-56007000D01*
X154369469Y-56007000D01*
X154240531Y-56007000D01*
X153162000Y-56007000D01*
X153162000Y-56027000D01*
X152908000Y-56027000D01*
X152908000Y-56007000D01*
X152908000Y-55753000D01*
X152908000Y-54546183D01*
X152675974Y-54425042D01*
X152260053Y-54597312D01*
X151828179Y-54991510D01*
X151580032Y-55520973D01*
X151700531Y-55753000D01*
X152908000Y-55753000D01*
X152908000Y-56007000D01*
X151700531Y-56007000D01*
X151580032Y-56239027D01*
X151828179Y-56768490D01*
X152246160Y-57150007D01*
X151975330Y-57330971D01*
X151650474Y-57817152D01*
X151536400Y-58390641D01*
X151536400Y-58449359D01*
X151650474Y-59022848D01*
X151975330Y-59509029D01*
X152461511Y-59833885D01*
X153035000Y-59947959D01*
X153608489Y-59833885D01*
X154094670Y-59509029D01*
X154104766Y-59493918D01*
X154110937Y-59525723D01*
X154250727Y-59738527D01*
X154461760Y-59880977D01*
X154711400Y-59931040D01*
X156438600Y-59931040D01*
X156680723Y-59884063D01*
X156893527Y-59744273D01*
X157035977Y-59533240D01*
X157086040Y-59283600D01*
X157086040Y-62865000D01*
X140635162Y-62865000D01*
X140635162Y-61409833D01*
X140493117Y-61066057D01*
X140230327Y-60802808D01*
X139886799Y-60660162D01*
X139514833Y-60659838D01*
X139171057Y-60801883D01*
X138907808Y-61064673D01*
X138897706Y-61089000D01*
X123117462Y-61089000D01*
X123085327Y-61056808D01*
X122741799Y-60914162D01*
X122369833Y-60913838D01*
X122026057Y-61055883D01*
X121762808Y-61318673D01*
X121620162Y-61662201D01*
X121619838Y-62034167D01*
X121761883Y-62377943D01*
X122024673Y-62641192D01*
X122368201Y-62783838D01*
X122740167Y-62784162D01*
X123083943Y-62642117D01*
X123117117Y-62609000D01*
X139573000Y-62609000D01*
X139863839Y-62551148D01*
X139911580Y-62519248D01*
X140228943Y-62388117D01*
X140492192Y-62125327D01*
X140634838Y-61781799D01*
X140635162Y-61409833D01*
X140635162Y-62865000D01*
X120523000Y-62865000D01*
X112740351Y-62865000D01*
X112967800Y-62771020D01*
X113568909Y-62170959D01*
X113894628Y-61386541D01*
X113895370Y-60537185D01*
X113571020Y-59752200D01*
X112970959Y-59151091D01*
X112186541Y-58825372D01*
X111337185Y-58824630D01*
X110552200Y-59148980D01*
X110248440Y-59452210D01*
X110248440Y-58166000D01*
X110248440Y-56134000D01*
X110201463Y-55891877D01*
X110061673Y-55679073D01*
X109901956Y-55571262D01*
X109991385Y-55474818D01*
X110190975Y-54992944D01*
X110071836Y-54737000D01*
X108712000Y-54737000D01*
X108712000Y-54757000D01*
X108458000Y-54757000D01*
X108458000Y-54737000D01*
X107098164Y-54737000D01*
X106979025Y-54992944D01*
X107178615Y-55474818D01*
X107268574Y-55571835D01*
X107114073Y-55673327D01*
X106971623Y-55884360D01*
X106921560Y-56134000D01*
X106921560Y-58166000D01*
X106968537Y-58408123D01*
X107108327Y-58620927D01*
X107319360Y-58763377D01*
X107569000Y-58813440D01*
X109601000Y-58813440D01*
X109843123Y-58766463D01*
X110055927Y-58626673D01*
X110198377Y-58415640D01*
X110248440Y-58166000D01*
X110248440Y-59452210D01*
X109951091Y-59749041D01*
X109625372Y-60533459D01*
X109624630Y-61382815D01*
X109948980Y-62167800D01*
X110549041Y-62768909D01*
X110780453Y-62865000D01*
X109873052Y-62865000D01*
X108213026Y-61204974D01*
X107801008Y-60929673D01*
X107315000Y-60832999D01*
X107314994Y-60833000D01*
X101727000Y-60833000D01*
X101727000Y-53390000D01*
X102625712Y-53390000D01*
X102247126Y-53767926D01*
X102020628Y-54313393D01*
X102020112Y-54904016D01*
X102245658Y-55449877D01*
X102662926Y-55867874D01*
X103208393Y-56094372D01*
X103799016Y-56094888D01*
X104344877Y-55869342D01*
X104762874Y-55452074D01*
X104989372Y-54906607D01*
X104989888Y-54315984D01*
X104764342Y-53770123D01*
X104384881Y-53390000D01*
X107507958Y-53390000D01*
X107178615Y-53745182D01*
X106979025Y-54227056D01*
X107098164Y-54483000D01*
X108458000Y-54483000D01*
X108458000Y-54463000D01*
X108712000Y-54463000D01*
X108712000Y-54483000D01*
X110071836Y-54483000D01*
X110190975Y-54227056D01*
X109991385Y-53745182D01*
X109662041Y-53390000D01*
X112564533Y-53390000D01*
X112112907Y-53840839D01*
X111825328Y-54533405D01*
X111824674Y-55283305D01*
X112111043Y-55976372D01*
X112640839Y-56507093D01*
X113333405Y-56794672D01*
X114083305Y-56795326D01*
X114776372Y-56508957D01*
X115307093Y-55979161D01*
X115594672Y-55286595D01*
X115595326Y-54536695D01*
X115308957Y-53843628D01*
X114856119Y-53390000D01*
X124410671Y-53390000D01*
X124101091Y-53699041D01*
X123775372Y-54483459D01*
X123774630Y-55332815D01*
X124098980Y-56117800D01*
X124699041Y-56718909D01*
X125483459Y-57044628D01*
X126332815Y-57045370D01*
X127117800Y-56721020D01*
X127718909Y-56120959D01*
X128044628Y-55336541D01*
X128045370Y-54487185D01*
X127721020Y-53702200D01*
X127409364Y-53390000D01*
X130048000Y-53390000D01*
X130048000Y-61087000D01*
X137922000Y-61087000D01*
X137922000Y-53390000D01*
X179578000Y-53390000D01*
X179578000Y-61087000D01*
X187275000Y-61087000D01*
X187275000Y-109093000D01*
X187275000Y-109093000D01*
G37*
X187275000Y-109093000D02*
X187054774Y-109093000D01*
X187054774Y-86036306D01*
X187054774Y-75876306D01*
X186806462Y-75275345D01*
X186347073Y-74815154D01*
X185746547Y-74565794D01*
X185407622Y-74565497D01*
X185407622Y-71935922D01*
X185378083Y-71425572D01*
X185239611Y-71091271D01*
X185009016Y-71035590D01*
X184829410Y-71215195D01*
X184829410Y-70855984D01*
X184773729Y-70625389D01*
X184290922Y-70457378D01*
X183780572Y-70486917D01*
X183446271Y-70625389D01*
X183390590Y-70855984D01*
X184110000Y-71575395D01*
X184829410Y-70855984D01*
X184829410Y-71215195D01*
X184289605Y-71755000D01*
X185009016Y-72474410D01*
X185239611Y-72418729D01*
X185407622Y-71935922D01*
X185407622Y-74565497D01*
X185096306Y-74565226D01*
X184829410Y-74675505D01*
X184829410Y-72654016D01*
X184110000Y-71934605D01*
X183930395Y-72114210D01*
X183930395Y-71755000D01*
X183210984Y-71035590D01*
X182980389Y-71091271D01*
X182907440Y-71300901D01*
X182907440Y-71105000D01*
X182860463Y-70862877D01*
X182720673Y-70650073D01*
X182509640Y-70507623D01*
X182260000Y-70457560D01*
X180960000Y-70457560D01*
X180717877Y-70504537D01*
X180505073Y-70644327D01*
X180362623Y-70855360D01*
X180312560Y-71105000D01*
X180312560Y-72405000D01*
X180359537Y-72647123D01*
X180499327Y-72859927D01*
X180710360Y-73002377D01*
X180960000Y-73052440D01*
X182260000Y-73052440D01*
X182502123Y-73005463D01*
X182714927Y-72865673D01*
X182857377Y-72654640D01*
X182907440Y-72405000D01*
X182907440Y-72242614D01*
X182980389Y-72418729D01*
X183210984Y-72474410D01*
X183930395Y-71755000D01*
X183930395Y-72114210D01*
X183390590Y-72654016D01*
X183446271Y-72884611D01*
X183929078Y-73052622D01*
X184439428Y-73023083D01*
X184773729Y-72884611D01*
X184829410Y-72654016D01*
X184829410Y-74675505D01*
X184495345Y-74813538D01*
X184035154Y-75272927D01*
X183785794Y-75873453D01*
X183785226Y-76523694D01*
X184033538Y-77124655D01*
X184492927Y-77584846D01*
X185093453Y-77834206D01*
X185743694Y-77834774D01*
X186344655Y-77586462D01*
X186804846Y-77127073D01*
X187054206Y-76526547D01*
X187054774Y-75876306D01*
X187054774Y-86036306D01*
X186806462Y-85435345D01*
X186347073Y-84975154D01*
X185746547Y-84725794D01*
X185096306Y-84725226D01*
X184495345Y-84973538D01*
X184035154Y-85432927D01*
X183785794Y-86033453D01*
X183785226Y-86683694D01*
X184033538Y-87284655D01*
X184492927Y-87744846D01*
X185093453Y-87994206D01*
X185743694Y-87994774D01*
X186344655Y-87746462D01*
X186804846Y-87287073D01*
X187054206Y-86686547D01*
X187054774Y-86036306D01*
X187054774Y-109093000D01*
X185327833Y-109093000D01*
X185327833Y-104140000D01*
X185219559Y-103595671D01*
X184911222Y-103134211D01*
X184515801Y-102869999D01*
X184911222Y-102605789D01*
X185219559Y-102144329D01*
X185327833Y-101600000D01*
X185219559Y-101055671D01*
X184911222Y-100594211D01*
X184738986Y-100479126D01*
X184900123Y-100447863D01*
X185112927Y-100308073D01*
X185255377Y-100097040D01*
X185305440Y-99847400D01*
X185305440Y-98272600D01*
X185258463Y-98030477D01*
X185118673Y-97817673D01*
X184907640Y-97675223D01*
X184658000Y-97625160D01*
X183244774Y-97625160D01*
X183244774Y-86036306D01*
X183244774Y-75876306D01*
X182996462Y-75275345D01*
X182537073Y-74815154D01*
X181936547Y-74565794D01*
X181286306Y-74565226D01*
X180685345Y-74813538D01*
X180225154Y-75272927D01*
X179975794Y-75873453D01*
X179975226Y-76523694D01*
X180223538Y-77124655D01*
X180682927Y-77584846D01*
X181283453Y-77834206D01*
X181933694Y-77834774D01*
X182534655Y-77586462D01*
X182994846Y-77127073D01*
X183244206Y-76526547D01*
X183244774Y-75876306D01*
X183244774Y-86036306D01*
X182996462Y-85435345D01*
X182537073Y-84975154D01*
X181936547Y-84725794D01*
X181286306Y-84725226D01*
X180685345Y-84973538D01*
X180225154Y-85432927D01*
X179975794Y-86033453D01*
X179975226Y-86683694D01*
X180223538Y-87284655D01*
X180682927Y-87744846D01*
X181283453Y-87994206D01*
X181933694Y-87994774D01*
X182534655Y-87746462D01*
X182994846Y-87287073D01*
X183244206Y-86686547D01*
X183244774Y-86036306D01*
X183244774Y-97625160D01*
X182372000Y-97625160D01*
X182129877Y-97672137D01*
X181917073Y-97811927D01*
X181774623Y-98022960D01*
X181724560Y-98272600D01*
X181724560Y-99847400D01*
X181771537Y-100089523D01*
X181911327Y-100302327D01*
X182122360Y-100444777D01*
X182291621Y-100478720D01*
X182118778Y-100594211D01*
X181810441Y-101055671D01*
X181702167Y-101600000D01*
X181810441Y-102144329D01*
X182118778Y-102605789D01*
X182514198Y-102869999D01*
X182118778Y-103134211D01*
X181810441Y-103595671D01*
X181702167Y-104140000D01*
X181810441Y-104684329D01*
X182118778Y-105145789D01*
X182513829Y-105409753D01*
X182497738Y-105414475D01*
X182063809Y-105764014D01*
X181796673Y-106253004D01*
X181779990Y-106332940D01*
X181902148Y-106553000D01*
X183388000Y-106553000D01*
X183388000Y-106533000D01*
X183642000Y-106533000D01*
X183642000Y-106553000D01*
X185127852Y-106553000D01*
X185250010Y-106332940D01*
X185233327Y-106253004D01*
X184966191Y-105764014D01*
X184532262Y-105414475D01*
X184516170Y-105409753D01*
X184911222Y-105145789D01*
X185219559Y-104684329D01*
X185327833Y-104140000D01*
X185327833Y-109093000D01*
X185250010Y-109093000D01*
X185250010Y-107027060D01*
X185127852Y-106807000D01*
X183642000Y-106807000D01*
X183642000Y-108102400D01*
X183997600Y-108102400D01*
X184532262Y-107945525D01*
X184966191Y-107595986D01*
X185233327Y-107106996D01*
X185250010Y-107027060D01*
X185250010Y-109093000D01*
X183388000Y-109093000D01*
X183388000Y-108102400D01*
X183388000Y-106807000D01*
X181902148Y-106807000D01*
X181779990Y-107027060D01*
X181796673Y-107106996D01*
X182063809Y-107595986D01*
X182497738Y-107945525D01*
X183032400Y-108102400D01*
X183388000Y-108102400D01*
X183388000Y-109093000D01*
X181140000Y-109093000D01*
X181140000Y-106631309D01*
X181140000Y-105790750D01*
X181140000Y-105219250D01*
X181140000Y-104378691D01*
X181043327Y-104145302D01*
X180864699Y-103966673D01*
X180631310Y-103870000D01*
X180378691Y-103870000D01*
X179990750Y-103870000D01*
X179832000Y-104028750D01*
X179832000Y-105378000D01*
X180981250Y-105378000D01*
X181140000Y-105219250D01*
X181140000Y-105790750D01*
X180981250Y-105632000D01*
X179832000Y-105632000D01*
X179832000Y-106981250D01*
X179990750Y-107140000D01*
X180378691Y-107140000D01*
X180631310Y-107140000D01*
X180864699Y-107043327D01*
X181043327Y-106864698D01*
X181140000Y-106631309D01*
X181140000Y-109093000D01*
X179578000Y-109093000D01*
X179578000Y-106981250D01*
X179578000Y-105632000D01*
X179578000Y-105378000D01*
X179578000Y-104028750D01*
X179419250Y-103870000D01*
X179031309Y-103870000D01*
X178778690Y-103870000D01*
X178545301Y-103966673D01*
X178366673Y-104145302D01*
X178270000Y-104378691D01*
X178270000Y-105219250D01*
X178428750Y-105378000D01*
X179578000Y-105378000D01*
X179578000Y-105632000D01*
X178428750Y-105632000D01*
X178270000Y-105790750D01*
X178270000Y-106631309D01*
X178366673Y-106864698D01*
X178545301Y-107043327D01*
X178778690Y-107140000D01*
X179031309Y-107140000D01*
X179419250Y-107140000D01*
X179578000Y-106981250D01*
X179578000Y-109093000D01*
X179578000Y-116790000D01*
X178193440Y-116790000D01*
X178193440Y-112776000D01*
X178193440Y-110744000D01*
X178146463Y-110501877D01*
X178006673Y-110289073D01*
X177795640Y-110146623D01*
X177546000Y-110096560D01*
X175514000Y-110096560D01*
X175271877Y-110143537D01*
X175059073Y-110283327D01*
X174916623Y-110494360D01*
X174866560Y-110744000D01*
X174866560Y-112776000D01*
X174913537Y-113018123D01*
X175053327Y-113230927D01*
X175213043Y-113338737D01*
X175123615Y-113435182D01*
X174924025Y-113917056D01*
X175043164Y-114173000D01*
X176403000Y-114173000D01*
X176403000Y-114153000D01*
X176657000Y-114153000D01*
X176657000Y-114173000D01*
X178016836Y-114173000D01*
X178135975Y-113917056D01*
X177936385Y-113435182D01*
X177846425Y-113338164D01*
X178000927Y-113236673D01*
X178143377Y-113025640D01*
X178193440Y-112776000D01*
X178193440Y-116790000D01*
X178135975Y-116790000D01*
X178135975Y-114682944D01*
X178016836Y-114427000D01*
X176657000Y-114427000D01*
X176657000Y-115787367D01*
X176912946Y-115905983D01*
X177498379Y-115637188D01*
X177936385Y-115164818D01*
X178135975Y-114682944D01*
X178135975Y-116790000D01*
X176403000Y-116790000D01*
X176403000Y-115787367D01*
X176403000Y-114427000D01*
X175043164Y-114427000D01*
X174924025Y-114682944D01*
X175123615Y-115164818D01*
X175561621Y-115637188D01*
X176147054Y-115905983D01*
X176403000Y-115787367D01*
X176403000Y-116790000D01*
X172212000Y-116790000D01*
X172212000Y-68453000D01*
X157117051Y-68453000D01*
X156981026Y-68316974D01*
X156952859Y-68298153D01*
X156932586Y-68271017D01*
X154392585Y-65985016D01*
X154207786Y-65875128D01*
X154029008Y-65755673D01*
X153995782Y-65749064D01*
X153966667Y-65731751D01*
X153753878Y-65700946D01*
X153543000Y-65659000D01*
X151003000Y-65659000D01*
X141097000Y-65659000D01*
X130683000Y-65659000D01*
X130457464Y-65703861D01*
X130230701Y-65742271D01*
X130215080Y-65752075D01*
X130196992Y-65755673D01*
X130005771Y-65883442D01*
X129810988Y-66005693D01*
X127930565Y-67781647D01*
X128094628Y-67386541D01*
X128095370Y-66537185D01*
X127771020Y-65752200D01*
X127424425Y-65405000D01*
X169780948Y-65405000D01*
X173609000Y-69233051D01*
X173609000Y-82930994D01*
X173608999Y-82931000D01*
X173705673Y-83417008D01*
X173980974Y-83829026D01*
X176657000Y-86505052D01*
X176657000Y-89027000D01*
X176753673Y-89513008D01*
X177028974Y-89925026D01*
X177042000Y-89933729D01*
X177042000Y-97887686D01*
X176829762Y-97745874D01*
X176285433Y-97637600D01*
X175504567Y-97637600D01*
X175287622Y-97680753D01*
X175287622Y-86600922D01*
X175258083Y-86090572D01*
X175119611Y-85756271D01*
X174889016Y-85700590D01*
X174709410Y-85880195D01*
X174709410Y-85520984D01*
X174653729Y-85290389D01*
X174170922Y-85122378D01*
X173660572Y-85151917D01*
X173326271Y-85290389D01*
X173270590Y-85520984D01*
X173990000Y-86240395D01*
X174709410Y-85520984D01*
X174709410Y-85880195D01*
X174169605Y-86420000D01*
X174889016Y-87139410D01*
X175119611Y-87083729D01*
X175287622Y-86600922D01*
X175287622Y-97680753D01*
X174960238Y-97745874D01*
X174709410Y-97913471D01*
X174709410Y-87319016D01*
X173990000Y-86599605D01*
X173810395Y-86779210D01*
X173810395Y-86420000D01*
X173090984Y-85700590D01*
X172860389Y-85756271D01*
X172692378Y-86239078D01*
X172721917Y-86749428D01*
X172860389Y-87083729D01*
X173090984Y-87139410D01*
X173810395Y-86420000D01*
X173810395Y-86779210D01*
X173270590Y-87319016D01*
X173326271Y-87549611D01*
X173809078Y-87717622D01*
X174319428Y-87688083D01*
X174653729Y-87549611D01*
X174709410Y-87319016D01*
X174709410Y-97913471D01*
X174498778Y-98054211D01*
X174190441Y-98515671D01*
X174082167Y-99060000D01*
X174190441Y-99604329D01*
X174498778Y-100065789D01*
X174894198Y-100329999D01*
X174498778Y-100594211D01*
X174190441Y-101055671D01*
X174082167Y-101600000D01*
X174190441Y-102144329D01*
X174498778Y-102605789D01*
X174894198Y-102869999D01*
X174498778Y-103134211D01*
X174190441Y-103595671D01*
X174082167Y-104140000D01*
X174190441Y-104684329D01*
X174498778Y-105145789D01*
X174894198Y-105409999D01*
X174498778Y-105674211D01*
X174190441Y-106135671D01*
X174082167Y-106680000D01*
X174190441Y-107224329D01*
X174498778Y-107685789D01*
X174960238Y-107994126D01*
X175504567Y-108102400D01*
X176285433Y-108102400D01*
X176829762Y-107994126D01*
X177291222Y-107685789D01*
X177599559Y-107224329D01*
X177707833Y-106680000D01*
X177599559Y-106135671D01*
X177291222Y-105674211D01*
X176895801Y-105409999D01*
X177291222Y-105145789D01*
X177599559Y-104684329D01*
X177707833Y-104140000D01*
X177599559Y-103595671D01*
X177291222Y-103134211D01*
X176895801Y-102869999D01*
X177291222Y-102605789D01*
X177371930Y-102485000D01*
X178257560Y-102485000D01*
X178257560Y-102505000D01*
X178304537Y-102747123D01*
X178444327Y-102959927D01*
X178655360Y-103102377D01*
X178905000Y-103152440D01*
X180505000Y-103152440D01*
X180747123Y-103105463D01*
X180959927Y-102965673D01*
X181102377Y-102754640D01*
X181152440Y-102505000D01*
X181152440Y-100505000D01*
X181105463Y-100262877D01*
X180965673Y-100050073D01*
X180754640Y-99907623D01*
X180505000Y-99857560D01*
X178905000Y-99857560D01*
X178812000Y-99875603D01*
X178812000Y-89933729D01*
X178825026Y-89925026D01*
X179100327Y-89513008D01*
X179197000Y-89027000D01*
X179197000Y-85979005D01*
X179197000Y-85979000D01*
X179197001Y-85979000D01*
X179100327Y-85492992D01*
X178825026Y-85080974D01*
X176149000Y-82404948D01*
X176149000Y-68707000D01*
X176052327Y-68220992D01*
X175777026Y-67808974D01*
X175777022Y-67808971D01*
X175287440Y-67319388D01*
X175287440Y-59070000D01*
X175287440Y-57770000D01*
X175240463Y-57527877D01*
X175100673Y-57315073D01*
X174889640Y-57172623D01*
X174640000Y-57122560D01*
X173340000Y-57122560D01*
X173097877Y-57169537D01*
X172885073Y-57309327D01*
X172742623Y-57520360D01*
X172692560Y-57770000D01*
X172692560Y-59070000D01*
X172739537Y-59312123D01*
X172879327Y-59524927D01*
X173090360Y-59667377D01*
X173340000Y-59717440D01*
X174640000Y-59717440D01*
X174882123Y-59670463D01*
X175094927Y-59530673D01*
X175237377Y-59319640D01*
X175287440Y-59070000D01*
X175287440Y-67319388D01*
X171205026Y-63236974D01*
X170793008Y-62961673D01*
X170307000Y-62864999D01*
X170306994Y-62865000D01*
X166128440Y-62865000D01*
X166128440Y-59436000D01*
X166128440Y-57404000D01*
X166081463Y-57161877D01*
X165941673Y-56949073D01*
X165781956Y-56841262D01*
X165871385Y-56744818D01*
X166070975Y-56262944D01*
X166070975Y-55497056D01*
X165871385Y-55015182D01*
X165433379Y-54542812D01*
X164847946Y-54274017D01*
X164592000Y-54392633D01*
X164592000Y-55753000D01*
X165951836Y-55753000D01*
X166070975Y-55497056D01*
X166070975Y-56262944D01*
X165951836Y-56007000D01*
X164592000Y-56007000D01*
X164592000Y-56027000D01*
X164338000Y-56027000D01*
X164338000Y-56007000D01*
X164338000Y-55753000D01*
X164338000Y-54392633D01*
X164082054Y-54274017D01*
X163496621Y-54542812D01*
X163058615Y-55015182D01*
X162859025Y-55497056D01*
X162978164Y-55753000D01*
X164338000Y-55753000D01*
X164338000Y-56007000D01*
X162978164Y-56007000D01*
X162859025Y-56262944D01*
X163058615Y-56744818D01*
X163148574Y-56841835D01*
X162994073Y-56943327D01*
X162851623Y-57154360D01*
X162801560Y-57404000D01*
X162801560Y-59436000D01*
X162848537Y-59678123D01*
X162988327Y-59890927D01*
X163199360Y-60033377D01*
X163449000Y-60083440D01*
X165481000Y-60083440D01*
X165723123Y-60036463D01*
X165935927Y-59896673D01*
X166078377Y-59685640D01*
X166128440Y-59436000D01*
X166128440Y-62865000D01*
X157086040Y-62865000D01*
X157086040Y-59283600D01*
X157086040Y-57556400D01*
X157039063Y-57314277D01*
X156899273Y-57101473D01*
X156688240Y-56959023D01*
X156593821Y-56940088D01*
X156781821Y-56768490D01*
X157029968Y-56239027D01*
X157029968Y-55520973D01*
X156781821Y-54991510D01*
X156349947Y-54597312D01*
X155934026Y-54425042D01*
X155702000Y-54546183D01*
X155702000Y-55753000D01*
X156909469Y-55753000D01*
X157029968Y-55520973D01*
X157029968Y-56239027D01*
X156909469Y-56007000D01*
X155702000Y-56007000D01*
X155702000Y-56027000D01*
X155448000Y-56027000D01*
X155448000Y-56007000D01*
X155448000Y-55753000D01*
X155448000Y-54546183D01*
X155215974Y-54425042D01*
X154800053Y-54597312D01*
X154368179Y-54991510D01*
X154304999Y-55126312D01*
X154241821Y-54991510D01*
X153809947Y-54597312D01*
X153394026Y-54425042D01*
X153162000Y-54546183D01*
X153162000Y-55753000D01*
X154240531Y-55753000D01*
X154369469Y-55753000D01*
X155448000Y-55753000D01*
X155448000Y-56007000D01*
X154369469Y-56007000D01*
X154240531Y-56007000D01*
X153162000Y-56007000D01*
X153162000Y-56027000D01*
X152908000Y-56027000D01*
X152908000Y-56007000D01*
X152908000Y-55753000D01*
X152908000Y-54546183D01*
X152675974Y-54425042D01*
X152260053Y-54597312D01*
X151828179Y-54991510D01*
X151580032Y-55520973D01*
X151700531Y-55753000D01*
X152908000Y-55753000D01*
X152908000Y-56007000D01*
X151700531Y-56007000D01*
X151580032Y-56239027D01*
X151828179Y-56768490D01*
X152246160Y-57150007D01*
X151975330Y-57330971D01*
X151650474Y-57817152D01*
X151536400Y-58390641D01*
X151536400Y-58449359D01*
X151650474Y-59022848D01*
X151975330Y-59509029D01*
X152461511Y-59833885D01*
X153035000Y-59947959D01*
X153608489Y-59833885D01*
X154094670Y-59509029D01*
X154104766Y-59493918D01*
X154110937Y-59525723D01*
X154250727Y-59738527D01*
X154461760Y-59880977D01*
X154711400Y-59931040D01*
X156438600Y-59931040D01*
X156680723Y-59884063D01*
X156893527Y-59744273D01*
X157035977Y-59533240D01*
X157086040Y-59283600D01*
X157086040Y-62865000D01*
X140635162Y-62865000D01*
X140635162Y-61409833D01*
X140493117Y-61066057D01*
X140230327Y-60802808D01*
X139886799Y-60660162D01*
X139514833Y-60659838D01*
X139171057Y-60801883D01*
X138907808Y-61064673D01*
X138897706Y-61089000D01*
X123117462Y-61089000D01*
X123085327Y-61056808D01*
X122741799Y-60914162D01*
X122369833Y-60913838D01*
X122026057Y-61055883D01*
X121762808Y-61318673D01*
X121620162Y-61662201D01*
X121619838Y-62034167D01*
X121761883Y-62377943D01*
X122024673Y-62641192D01*
X122368201Y-62783838D01*
X122740167Y-62784162D01*
X123083943Y-62642117D01*
X123117117Y-62609000D01*
X139573000Y-62609000D01*
X139863839Y-62551148D01*
X139911580Y-62519248D01*
X140228943Y-62388117D01*
X140492192Y-62125327D01*
X140634838Y-61781799D01*
X140635162Y-61409833D01*
X140635162Y-62865000D01*
X120523000Y-62865000D01*
X112740351Y-62865000D01*
X112967800Y-62771020D01*
X113568909Y-62170959D01*
X113894628Y-61386541D01*
X113895370Y-60537185D01*
X113571020Y-59752200D01*
X112970959Y-59151091D01*
X112186541Y-58825372D01*
X111337185Y-58824630D01*
X110552200Y-59148980D01*
X110248440Y-59452210D01*
X110248440Y-58166000D01*
X110248440Y-56134000D01*
X110201463Y-55891877D01*
X110061673Y-55679073D01*
X109901956Y-55571262D01*
X109991385Y-55474818D01*
X110190975Y-54992944D01*
X110071836Y-54737000D01*
X108712000Y-54737000D01*
X108712000Y-54757000D01*
X108458000Y-54757000D01*
X108458000Y-54737000D01*
X107098164Y-54737000D01*
X106979025Y-54992944D01*
X107178615Y-55474818D01*
X107268574Y-55571835D01*
X107114073Y-55673327D01*
X106971623Y-55884360D01*
X106921560Y-56134000D01*
X106921560Y-58166000D01*
X106968537Y-58408123D01*
X107108327Y-58620927D01*
X107319360Y-58763377D01*
X107569000Y-58813440D01*
X109601000Y-58813440D01*
X109843123Y-58766463D01*
X110055927Y-58626673D01*
X110198377Y-58415640D01*
X110248440Y-58166000D01*
X110248440Y-59452210D01*
X109951091Y-59749041D01*
X109625372Y-60533459D01*
X109624630Y-61382815D01*
X109948980Y-62167800D01*
X110549041Y-62768909D01*
X110780453Y-62865000D01*
X109873052Y-62865000D01*
X108213026Y-61204974D01*
X107801008Y-60929673D01*
X107315000Y-60832999D01*
X107314994Y-60833000D01*
X101727000Y-60833000D01*
X101727000Y-53390000D01*
X102625712Y-53390000D01*
X102247126Y-53767926D01*
X102020628Y-54313393D01*
X102020112Y-54904016D01*
X102245658Y-55449877D01*
X102662926Y-55867874D01*
X103208393Y-56094372D01*
X103799016Y-56094888D01*
X104344877Y-55869342D01*
X104762874Y-55452074D01*
X104989372Y-54906607D01*
X104989888Y-54315984D01*
X104764342Y-53770123D01*
X104384881Y-53390000D01*
X107507958Y-53390000D01*
X107178615Y-53745182D01*
X106979025Y-54227056D01*
X107098164Y-54483000D01*
X108458000Y-54483000D01*
X108458000Y-54463000D01*
X108712000Y-54463000D01*
X108712000Y-54483000D01*
X110071836Y-54483000D01*
X110190975Y-54227056D01*
X109991385Y-53745182D01*
X109662041Y-53390000D01*
X112564533Y-53390000D01*
X112112907Y-53840839D01*
X111825328Y-54533405D01*
X111824674Y-55283305D01*
X112111043Y-55976372D01*
X112640839Y-56507093D01*
X113333405Y-56794672D01*
X114083305Y-56795326D01*
X114776372Y-56508957D01*
X115307093Y-55979161D01*
X115594672Y-55286595D01*
X115595326Y-54536695D01*
X115308957Y-53843628D01*
X114856119Y-53390000D01*
X124410671Y-53390000D01*
X124101091Y-53699041D01*
X123775372Y-54483459D01*
X123774630Y-55332815D01*
X124098980Y-56117800D01*
X124699041Y-56718909D01*
X125483459Y-57044628D01*
X126332815Y-57045370D01*
X127117800Y-56721020D01*
X127718909Y-56120959D01*
X128044628Y-55336541D01*
X128045370Y-54487185D01*
X127721020Y-53702200D01*
X127409364Y-53390000D01*
X130048000Y-53390000D01*
X130048000Y-61087000D01*
X137922000Y-61087000D01*
X137922000Y-53390000D01*
X179578000Y-53390000D01*
X179578000Y-61087000D01*
X187275000Y-61087000D01*
X187275000Y-109093000D01*
D36*
G36*
X171350000Y-93245000D02*
X169391000Y-93245000D01*
X169391000Y-76473339D01*
X169391000Y-75871000D01*
X169391000Y-75259000D01*
X169391000Y-74656661D01*
X169298437Y-74433195D01*
X169127404Y-74262162D01*
X168903938Y-74169600D01*
X168662061Y-74169600D01*
X167946000Y-74169600D01*
X167794000Y-74321600D01*
X167794000Y-75411000D01*
X169239000Y-75411000D01*
X169391000Y-75259000D01*
X169391000Y-75871000D01*
X169239000Y-75719000D01*
X167794000Y-75719000D01*
X167794000Y-76709600D01*
X167794000Y-76808400D01*
X167794000Y-77951000D01*
X169229426Y-77951000D01*
X169341310Y-77735941D01*
X169091191Y-77227198D01*
X168773772Y-76960400D01*
X168903938Y-76960400D01*
X169127404Y-76867838D01*
X169298437Y-76696805D01*
X169391000Y-76473339D01*
X169391000Y-93245000D01*
X169341310Y-93245000D01*
X169341310Y-91174059D01*
X169341310Y-90435941D01*
X169091191Y-89927198D01*
X168671874Y-89574752D01*
X168379776Y-89482385D01*
X168520455Y-89454403D01*
X168938117Y-89175329D01*
X169217191Y-88757667D01*
X169315188Y-88265000D01*
X169217191Y-87772333D01*
X168938117Y-87354671D01*
X168520455Y-87075597D01*
X168379776Y-87047614D01*
X168671874Y-86955248D01*
X169091191Y-86602802D01*
X169341310Y-86094059D01*
X169341310Y-85355941D01*
X169091191Y-84847198D01*
X168671874Y-84494752D01*
X168546162Y-84455000D01*
X168671874Y-84415248D01*
X169091191Y-84062802D01*
X169341310Y-83554059D01*
X169341310Y-82815941D01*
X169091191Y-82307198D01*
X168671874Y-81954752D01*
X168379776Y-81862385D01*
X168520455Y-81834403D01*
X168938117Y-81555329D01*
X169217191Y-81137667D01*
X169315188Y-80645000D01*
X169217191Y-80152333D01*
X168938117Y-79734671D01*
X168520455Y-79455597D01*
X168379776Y-79427614D01*
X168671874Y-79335248D01*
X169091191Y-78982802D01*
X169341310Y-78474059D01*
X169229426Y-78259000D01*
X167794000Y-78259000D01*
X167794000Y-78279000D01*
X167486000Y-78279000D01*
X167486000Y-78259000D01*
X167486000Y-77951000D01*
X167486000Y-76808400D01*
X167486000Y-76709600D01*
X167486000Y-75719000D01*
X167486000Y-75411000D01*
X167486000Y-74321600D01*
X167334000Y-74169600D01*
X166617939Y-74169600D01*
X166376062Y-74169600D01*
X166152596Y-74262162D01*
X165981563Y-74433195D01*
X165889000Y-74656661D01*
X165889000Y-75259000D01*
X166041000Y-75411000D01*
X167486000Y-75411000D01*
X167486000Y-75719000D01*
X166041000Y-75719000D01*
X165889000Y-75871000D01*
X165889000Y-76473339D01*
X165981563Y-76696805D01*
X166152596Y-76867838D01*
X166376062Y-76960400D01*
X166506227Y-76960400D01*
X166188809Y-77227198D01*
X165938690Y-77735941D01*
X166050574Y-77951000D01*
X167486000Y-77951000D01*
X167486000Y-78259000D01*
X166050574Y-78259000D01*
X165938690Y-78474059D01*
X166188809Y-78982802D01*
X166608126Y-79335248D01*
X166900223Y-79427614D01*
X166759545Y-79455597D01*
X166341883Y-79734671D01*
X166062809Y-80152333D01*
X165964812Y-80645000D01*
X166062809Y-81137667D01*
X166341883Y-81555329D01*
X166759545Y-81834403D01*
X166900223Y-81862385D01*
X166608126Y-81954752D01*
X166188809Y-82307198D01*
X165938690Y-82815941D01*
X166050574Y-83031000D01*
X167486000Y-83031000D01*
X167486000Y-83011000D01*
X167794000Y-83011000D01*
X167794000Y-83031000D01*
X169229426Y-83031000D01*
X169341310Y-82815941D01*
X169341310Y-83554059D01*
X169229426Y-83339000D01*
X167794000Y-83339000D01*
X167794000Y-84329600D01*
X167794000Y-84580400D01*
X167794000Y-85571000D01*
X169229426Y-85571000D01*
X169341310Y-85355941D01*
X169341310Y-86094059D01*
X169229426Y-85879000D01*
X167794000Y-85879000D01*
X167794000Y-85899000D01*
X167486000Y-85899000D01*
X167486000Y-85879000D01*
X167486000Y-85571000D01*
X167486000Y-84580400D01*
X167486000Y-84329600D01*
X167486000Y-83339000D01*
X166050574Y-83339000D01*
X165938690Y-83554059D01*
X166188809Y-84062802D01*
X166608126Y-84415248D01*
X166733837Y-84455000D01*
X166608126Y-84494752D01*
X166188809Y-84847198D01*
X165938690Y-85355941D01*
X166050574Y-85571000D01*
X167486000Y-85571000D01*
X167486000Y-85879000D01*
X166050574Y-85879000D01*
X165938690Y-86094059D01*
X166188809Y-86602802D01*
X166608126Y-86955248D01*
X166900223Y-87047614D01*
X166759545Y-87075597D01*
X166341883Y-87354671D01*
X166062809Y-87772333D01*
X165964812Y-88265000D01*
X166062809Y-88757667D01*
X166341883Y-89175329D01*
X166759545Y-89454403D01*
X166900223Y-89482385D01*
X166608126Y-89574752D01*
X166188809Y-89927198D01*
X165938690Y-90435941D01*
X166050574Y-90651000D01*
X167486000Y-90651000D01*
X167486000Y-90631000D01*
X167794000Y-90631000D01*
X167794000Y-90651000D01*
X169229426Y-90651000D01*
X169341310Y-90435941D01*
X169341310Y-91174059D01*
X169229426Y-90959000D01*
X167794000Y-90959000D01*
X167794000Y-92200400D01*
X168149600Y-92200400D01*
X168671874Y-92035248D01*
X169091191Y-91682802D01*
X169341310Y-91174059D01*
X169341310Y-93245000D01*
X167486000Y-93245000D01*
X167486000Y-92200400D01*
X167486000Y-90959000D01*
X166050574Y-90959000D01*
X165938690Y-91174059D01*
X166188809Y-91682802D01*
X166608126Y-92035248D01*
X167130400Y-92200400D01*
X167486000Y-92200400D01*
X167486000Y-93245000D01*
X165238000Y-93245000D01*
X165238000Y-80590939D01*
X165238000Y-79776000D01*
X165238000Y-79164000D01*
X165238000Y-78349061D01*
X165145437Y-78125595D01*
X164974404Y-77954562D01*
X164750938Y-77862000D01*
X164509061Y-77862000D01*
X164136000Y-77862000D01*
X163984000Y-78014000D01*
X163984000Y-79316000D01*
X165086000Y-79316000D01*
X165238000Y-79164000D01*
X165238000Y-79776000D01*
X165086000Y-79624000D01*
X163984000Y-79624000D01*
X163984000Y-80926000D01*
X164136000Y-81078000D01*
X164509061Y-81078000D01*
X164750938Y-81078000D01*
X164974404Y-80985438D01*
X165145437Y-80814405D01*
X165238000Y-80590939D01*
X165238000Y-93245000D01*
X163676000Y-93245000D01*
X163676000Y-80926000D01*
X163676000Y-79624000D01*
X163676000Y-79316000D01*
X163676000Y-78014000D01*
X163524000Y-77862000D01*
X163150939Y-77862000D01*
X162909062Y-77862000D01*
X162685596Y-77954562D01*
X162514563Y-78125595D01*
X162422000Y-78349061D01*
X162422000Y-79164000D01*
X162574000Y-79316000D01*
X163676000Y-79316000D01*
X163676000Y-79624000D01*
X162574000Y-79624000D01*
X162422000Y-79776000D01*
X162422000Y-80590939D01*
X162514563Y-80814405D01*
X162685596Y-80985438D01*
X162909062Y-81078000D01*
X163150939Y-81078000D01*
X163524000Y-81078000D01*
X163676000Y-80926000D01*
X163676000Y-93245000D01*
X161721310Y-93245000D01*
X161721310Y-88634059D01*
X161609426Y-88419000D01*
X160174000Y-88419000D01*
X160174000Y-88439000D01*
X159866000Y-88439000D01*
X159866000Y-88419000D01*
X158430574Y-88419000D01*
X158318690Y-88634059D01*
X158568809Y-89142802D01*
X158988126Y-89495248D01*
X159280223Y-89587614D01*
X159139545Y-89615597D01*
X158721883Y-89894671D01*
X158442809Y-90312333D01*
X158344812Y-90805000D01*
X158442809Y-91297667D01*
X158721883Y-91715329D01*
X159139545Y-91994403D01*
X159632212Y-92092400D01*
X160407788Y-92092400D01*
X160900455Y-91994403D01*
X161318117Y-91715329D01*
X161597191Y-91297667D01*
X161695188Y-90805000D01*
X161597191Y-90312333D01*
X161318117Y-89894671D01*
X160900455Y-89615597D01*
X160759776Y-89587614D01*
X161051874Y-89495248D01*
X161471191Y-89142802D01*
X161721310Y-88634059D01*
X161721310Y-93245000D01*
X156962000Y-93245000D01*
X156962000Y-86741000D01*
X156962000Y-74295000D01*
X156914425Y-74055823D01*
X156914425Y-74055822D01*
X156778942Y-73853058D01*
X155508942Y-72583058D01*
X155322796Y-72458679D01*
X155322796Y-72237600D01*
X155285805Y-72046952D01*
X155175735Y-71879389D01*
X155009567Y-71767225D01*
X154813000Y-71727804D01*
X152527000Y-71727804D01*
X152336352Y-71764795D01*
X152168789Y-71874865D01*
X152056625Y-72041033D01*
X152017204Y-72237600D01*
X152017204Y-73812400D01*
X152054195Y-74003048D01*
X152164265Y-74170611D01*
X152330433Y-74282775D01*
X152527000Y-74322196D01*
X152677832Y-74322196D01*
X152638126Y-74334752D01*
X152218809Y-74687198D01*
X151968690Y-75195941D01*
X152080574Y-75411000D01*
X153516000Y-75411000D01*
X153516000Y-75391000D01*
X153824000Y-75391000D01*
X153824000Y-75411000D01*
X155259426Y-75411000D01*
X155371310Y-75195941D01*
X155121191Y-74687198D01*
X154701874Y-74334752D01*
X154662167Y-74322196D01*
X154813000Y-74322196D01*
X155003648Y-74285205D01*
X155171211Y-74175135D01*
X155236510Y-74078394D01*
X155712000Y-74553884D01*
X155712000Y-86482116D01*
X154890984Y-87303132D01*
X154550455Y-87075597D01*
X154145264Y-86995000D01*
X154550455Y-86914403D01*
X154968117Y-86635329D01*
X155247191Y-86217667D01*
X155345188Y-85725000D01*
X155247191Y-85232333D01*
X154968117Y-84814671D01*
X154550455Y-84535597D01*
X154145264Y-84455000D01*
X154550455Y-84374403D01*
X154968117Y-84095329D01*
X155247191Y-83677667D01*
X155345188Y-83185000D01*
X155247191Y-82692333D01*
X154968117Y-82274671D01*
X154550455Y-81995597D01*
X154145264Y-81915000D01*
X154550455Y-81834403D01*
X154968117Y-81555329D01*
X155247191Y-81137667D01*
X155345188Y-80645000D01*
X155247191Y-80152333D01*
X154968117Y-79734671D01*
X154550455Y-79455597D01*
X154145264Y-79375000D01*
X154550455Y-79294403D01*
X154968117Y-79015329D01*
X155247191Y-78597667D01*
X155345188Y-78105000D01*
X155247191Y-77612333D01*
X154968117Y-77194671D01*
X154550455Y-76915597D01*
X154409776Y-76887614D01*
X154701874Y-76795248D01*
X155121191Y-76442802D01*
X155371310Y-75934059D01*
X155259426Y-75719000D01*
X153824000Y-75719000D01*
X153824000Y-75739000D01*
X153516000Y-75739000D01*
X153516000Y-75719000D01*
X152080574Y-75719000D01*
X151968690Y-75934059D01*
X152218809Y-76442802D01*
X152638126Y-76795248D01*
X152930223Y-76887614D01*
X152789545Y-76915597D01*
X152371883Y-77194671D01*
X152092809Y-77612333D01*
X151994812Y-78105000D01*
X152092809Y-78597667D01*
X152371883Y-79015329D01*
X152789545Y-79294403D01*
X153194735Y-79375000D01*
X152789545Y-79455597D01*
X152371883Y-79734671D01*
X152092809Y-80152333D01*
X151994812Y-80645000D01*
X152092809Y-81137667D01*
X152371883Y-81555329D01*
X152789545Y-81834403D01*
X153194735Y-81915000D01*
X152789545Y-81995597D01*
X152371883Y-82274671D01*
X152092809Y-82692333D01*
X151994812Y-83185000D01*
X152092809Y-83677667D01*
X152371883Y-84095329D01*
X152789545Y-84374403D01*
X153194735Y-84455000D01*
X152789545Y-84535597D01*
X152371883Y-84814671D01*
X152092809Y-85232333D01*
X151994812Y-85725000D01*
X152092809Y-86217667D01*
X152371883Y-86635329D01*
X152789545Y-86914403D01*
X153194735Y-86995000D01*
X152789545Y-87075597D01*
X152371883Y-87354671D01*
X152092809Y-87772333D01*
X151994812Y-88265000D01*
X152092809Y-88757667D01*
X152371883Y-89175329D01*
X152789545Y-89454403D01*
X152930223Y-89482385D01*
X152638126Y-89574752D01*
X152218809Y-89927198D01*
X151968690Y-90435941D01*
X152080574Y-90651000D01*
X153516000Y-90651000D01*
X153516000Y-90631000D01*
X153824000Y-90631000D01*
X153824000Y-90651000D01*
X155259426Y-90651000D01*
X155371310Y-90435941D01*
X155121191Y-89927198D01*
X154701874Y-89574752D01*
X154409776Y-89482385D01*
X154550455Y-89454403D01*
X154968117Y-89175329D01*
X155247191Y-88757667D01*
X155257861Y-88704022D01*
X156778938Y-87182944D01*
X156778941Y-87182942D01*
X156778942Y-87182942D01*
X156914424Y-86980178D01*
X156914425Y-86980177D01*
X156962000Y-86741000D01*
X156962000Y-93245000D01*
X155371310Y-93245000D01*
X155371310Y-91174059D01*
X155259426Y-90959000D01*
X153824000Y-90959000D01*
X153824000Y-92200400D01*
X154179600Y-92200400D01*
X154701874Y-92035248D01*
X155121191Y-91682802D01*
X155371310Y-91174059D01*
X155371310Y-93245000D01*
X153516000Y-93245000D01*
X153516000Y-92200400D01*
X153516000Y-90959000D01*
X152080574Y-90959000D01*
X151968690Y-91174059D01*
X152218809Y-91682802D01*
X152638126Y-92035248D01*
X153160400Y-92200400D01*
X153516000Y-92200400D01*
X153516000Y-93245000D01*
X151268000Y-93245000D01*
X151268000Y-78050939D01*
X151268000Y-77236000D01*
X151268000Y-76624000D01*
X151268000Y-75809061D01*
X151175437Y-75585595D01*
X151004404Y-75414562D01*
X150780938Y-75322000D01*
X150539061Y-75322000D01*
X150166000Y-75322000D01*
X150014000Y-75474000D01*
X150014000Y-76776000D01*
X151116000Y-76776000D01*
X151268000Y-76624000D01*
X151268000Y-77236000D01*
X151116000Y-77084000D01*
X150014000Y-77084000D01*
X150014000Y-78386000D01*
X150166000Y-78538000D01*
X150539061Y-78538000D01*
X150780938Y-78538000D01*
X151004404Y-78445438D01*
X151175437Y-78274405D01*
X151268000Y-78050939D01*
X151268000Y-93245000D01*
X149706000Y-93245000D01*
X149706000Y-78386000D01*
X149706000Y-77084000D01*
X149706000Y-76776000D01*
X149706000Y-75474000D01*
X149554000Y-75322000D01*
X149180939Y-75322000D01*
X148939062Y-75322000D01*
X148715596Y-75414562D01*
X148544563Y-75585595D01*
X148452000Y-75809061D01*
X148452000Y-76624000D01*
X148604000Y-76776000D01*
X149706000Y-76776000D01*
X149706000Y-77084000D01*
X148604000Y-77084000D01*
X148452000Y-77236000D01*
X148452000Y-78050939D01*
X148544563Y-78274405D01*
X148715596Y-78445438D01*
X148939062Y-78538000D01*
X149180939Y-78538000D01*
X149554000Y-78538000D01*
X149706000Y-78386000D01*
X149706000Y-93245000D01*
X147751310Y-93245000D01*
X147751310Y-83554059D01*
X147751310Y-82815941D01*
X147501191Y-82307198D01*
X147081874Y-81954752D01*
X146789776Y-81862385D01*
X146930455Y-81834403D01*
X147348117Y-81555329D01*
X147627191Y-81137667D01*
X147725188Y-80645000D01*
X147627191Y-80152333D01*
X147348117Y-79734671D01*
X146930455Y-79455597D01*
X146789776Y-79427614D01*
X147081874Y-79335248D01*
X147501191Y-78982802D01*
X147751310Y-78474059D01*
X147751310Y-77735941D01*
X147501191Y-77227198D01*
X147081874Y-76874752D01*
X146956162Y-76835000D01*
X147081874Y-76795248D01*
X147501191Y-76442802D01*
X147751310Y-75934059D01*
X147639426Y-75719000D01*
X146204000Y-75719000D01*
X146204000Y-76709600D01*
X146204000Y-76960400D01*
X146204000Y-77951000D01*
X147639426Y-77951000D01*
X147751310Y-77735941D01*
X147751310Y-78474059D01*
X147639426Y-78259000D01*
X146204000Y-78259000D01*
X146204000Y-78279000D01*
X145896000Y-78279000D01*
X145896000Y-78259000D01*
X145896000Y-77951000D01*
X145896000Y-76960400D01*
X145896000Y-76709600D01*
X145896000Y-75719000D01*
X144460574Y-75719000D01*
X144348690Y-75934059D01*
X144598809Y-76442802D01*
X145018126Y-76795248D01*
X145143837Y-76835000D01*
X145018126Y-76874752D01*
X144598809Y-77227198D01*
X144348690Y-77735941D01*
X144460574Y-77951000D01*
X145896000Y-77951000D01*
X145896000Y-78259000D01*
X144460574Y-78259000D01*
X144348690Y-78474059D01*
X144598809Y-78982802D01*
X145018126Y-79335248D01*
X145310223Y-79427614D01*
X145169545Y-79455597D01*
X144751883Y-79734671D01*
X144472809Y-80152333D01*
X144374812Y-80645000D01*
X144472809Y-81137667D01*
X144751883Y-81555329D01*
X145169545Y-81834403D01*
X145310223Y-81862385D01*
X145018126Y-81954752D01*
X144598809Y-82307198D01*
X144348690Y-82815941D01*
X144460574Y-83031000D01*
X145896000Y-83031000D01*
X145896000Y-83011000D01*
X146204000Y-83011000D01*
X146204000Y-83031000D01*
X147639426Y-83031000D01*
X147751310Y-82815941D01*
X147751310Y-83554059D01*
X147639426Y-83339000D01*
X146204000Y-83339000D01*
X146204000Y-83359000D01*
X145896000Y-83359000D01*
X145896000Y-83339000D01*
X144460574Y-83339000D01*
X144348690Y-83554059D01*
X144598809Y-84062802D01*
X145018126Y-84415248D01*
X145310223Y-84507614D01*
X145169545Y-84535597D01*
X144751883Y-84814671D01*
X144472809Y-85232333D01*
X144374812Y-85725000D01*
X144472809Y-86217667D01*
X144751883Y-86635329D01*
X145169545Y-86914403D01*
X145574735Y-86995000D01*
X145169545Y-87075597D01*
X144751883Y-87354671D01*
X144472809Y-87772333D01*
X144374812Y-88265000D01*
X144472809Y-88757667D01*
X144751883Y-89175329D01*
X145169545Y-89454403D01*
X145574735Y-89535000D01*
X145169545Y-89615597D01*
X144751883Y-89894671D01*
X144472809Y-90312333D01*
X144374812Y-90805000D01*
X144472809Y-91297667D01*
X144751883Y-91715329D01*
X145169545Y-91994403D01*
X145662212Y-92092400D01*
X146437788Y-92092400D01*
X146930455Y-91994403D01*
X147348117Y-91715329D01*
X147627191Y-91297667D01*
X147725188Y-90805000D01*
X147627191Y-90312333D01*
X147348117Y-89894671D01*
X146930455Y-89615597D01*
X146525264Y-89535000D01*
X146930455Y-89454403D01*
X147348117Y-89175329D01*
X147627191Y-88757667D01*
X147725188Y-88265000D01*
X147627191Y-87772333D01*
X147348117Y-87354671D01*
X146930455Y-87075597D01*
X146525264Y-86995000D01*
X146930455Y-86914403D01*
X147348117Y-86635329D01*
X147627191Y-86217667D01*
X147725188Y-85725000D01*
X147627191Y-85232333D01*
X147348117Y-84814671D01*
X146930455Y-84535597D01*
X146789776Y-84507614D01*
X147081874Y-84415248D01*
X147501191Y-84062802D01*
X147751310Y-83554059D01*
X147751310Y-93245000D01*
X144135000Y-93245000D01*
X144135000Y-87376000D01*
X144135000Y-74930000D01*
X144087425Y-74690823D01*
X143951942Y-74488058D01*
X142622796Y-73158912D01*
X142622796Y-72237600D01*
X142585805Y-72046952D01*
X142475735Y-71879389D01*
X142309567Y-71767225D01*
X142113000Y-71727804D01*
X139827000Y-71727804D01*
X139636352Y-71764795D01*
X139468789Y-71874865D01*
X139356625Y-72041033D01*
X139317204Y-72237600D01*
X139317204Y-73812400D01*
X139354195Y-74003048D01*
X139464265Y-74170611D01*
X139630433Y-74282775D01*
X139827000Y-74322196D01*
X139977832Y-74322196D01*
X139938126Y-74334752D01*
X139518809Y-74687198D01*
X139268690Y-75195941D01*
X139380574Y-75411000D01*
X140816000Y-75411000D01*
X140816000Y-75391000D01*
X141124000Y-75391000D01*
X141124000Y-75411000D01*
X142559426Y-75411000D01*
X142671310Y-75195941D01*
X142457822Y-74761706D01*
X142885000Y-75188884D01*
X142885000Y-87117116D01*
X142420054Y-87582061D01*
X142268117Y-87354671D01*
X141850455Y-87075597D01*
X141445264Y-86995000D01*
X141850455Y-86914403D01*
X142268117Y-86635329D01*
X142547191Y-86217667D01*
X142645188Y-85725000D01*
X142547191Y-85232333D01*
X142268117Y-84814671D01*
X141850455Y-84535597D01*
X141445264Y-84455000D01*
X141850455Y-84374403D01*
X142268117Y-84095329D01*
X142547191Y-83677667D01*
X142645188Y-83185000D01*
X142547191Y-82692333D01*
X142268117Y-82274671D01*
X141850455Y-81995597D01*
X141445264Y-81915000D01*
X141850455Y-81834403D01*
X142268117Y-81555329D01*
X142547191Y-81137667D01*
X142645188Y-80645000D01*
X142547191Y-80152333D01*
X142268117Y-79734671D01*
X141850455Y-79455597D01*
X141445264Y-79375000D01*
X141850455Y-79294403D01*
X142268117Y-79015329D01*
X142547191Y-78597667D01*
X142645188Y-78105000D01*
X142547191Y-77612333D01*
X142268117Y-77194671D01*
X141850455Y-76915597D01*
X141709776Y-76887614D01*
X142001874Y-76795248D01*
X142421191Y-76442802D01*
X142671310Y-75934059D01*
X142559426Y-75719000D01*
X141124000Y-75719000D01*
X141124000Y-75739000D01*
X140816000Y-75739000D01*
X140816000Y-75719000D01*
X139380574Y-75719000D01*
X139268690Y-75934059D01*
X139518809Y-76442802D01*
X139938126Y-76795248D01*
X140230223Y-76887614D01*
X140089545Y-76915597D01*
X139671883Y-77194671D01*
X139392809Y-77612333D01*
X139294812Y-78105000D01*
X139392809Y-78597667D01*
X139671883Y-79015329D01*
X140089545Y-79294403D01*
X140494735Y-79375000D01*
X140089545Y-79455597D01*
X139671883Y-79734671D01*
X139392809Y-80152333D01*
X139294812Y-80645000D01*
X139392809Y-81137667D01*
X139671883Y-81555329D01*
X140089545Y-81834403D01*
X140494735Y-81915000D01*
X140089545Y-81995597D01*
X139671883Y-82274671D01*
X139392809Y-82692333D01*
X139294812Y-83185000D01*
X139392809Y-83677667D01*
X139671883Y-84095329D01*
X140089545Y-84374403D01*
X140494735Y-84455000D01*
X140089545Y-84535597D01*
X139671883Y-84814671D01*
X139392809Y-85232333D01*
X139294812Y-85725000D01*
X139392809Y-86217667D01*
X139671883Y-86635329D01*
X140089545Y-86914403D01*
X140494735Y-86995000D01*
X140089545Y-87075597D01*
X139671883Y-87354671D01*
X139392809Y-87772333D01*
X139294812Y-88265000D01*
X139392809Y-88757667D01*
X139671883Y-89175329D01*
X140089545Y-89454403D01*
X140230223Y-89482385D01*
X139938126Y-89574752D01*
X139518809Y-89927198D01*
X139268690Y-90435941D01*
X139380574Y-90651000D01*
X140816000Y-90651000D01*
X140816000Y-90631000D01*
X141124000Y-90631000D01*
X141124000Y-90651000D01*
X142559426Y-90651000D01*
X142671310Y-90435941D01*
X142421191Y-89927198D01*
X142001874Y-89574752D01*
X141709776Y-89482385D01*
X141850455Y-89454403D01*
X142268117Y-89175329D01*
X142458768Y-88890000D01*
X142621000Y-88890000D01*
X142860177Y-88842425D01*
X143062942Y-88706942D01*
X143951942Y-87817942D01*
X144087425Y-87615177D01*
X144135000Y-87376000D01*
X144135000Y-93245000D01*
X142671310Y-93245000D01*
X142671310Y-91174059D01*
X142559426Y-90959000D01*
X141124000Y-90959000D01*
X141124000Y-92200400D01*
X141479600Y-92200400D01*
X142001874Y-92035248D01*
X142421191Y-91682802D01*
X142671310Y-91174059D01*
X142671310Y-93245000D01*
X140816000Y-93245000D01*
X140816000Y-92200400D01*
X140816000Y-90959000D01*
X139380574Y-90959000D01*
X139268690Y-91174059D01*
X139518809Y-91682802D01*
X139938126Y-92035248D01*
X140460400Y-92200400D01*
X140816000Y-92200400D01*
X140816000Y-93245000D01*
X138568000Y-93245000D01*
X138568000Y-78050939D01*
X138568000Y-77236000D01*
X138568000Y-76624000D01*
X138568000Y-75809061D01*
X138475437Y-75585595D01*
X138304404Y-75414562D01*
X138080938Y-75322000D01*
X137839061Y-75322000D01*
X137466000Y-75322000D01*
X137314000Y-75474000D01*
X137314000Y-76776000D01*
X138416000Y-76776000D01*
X138568000Y-76624000D01*
X138568000Y-77236000D01*
X138416000Y-77084000D01*
X137314000Y-77084000D01*
X137314000Y-78386000D01*
X137466000Y-78538000D01*
X137839061Y-78538000D01*
X138080938Y-78538000D01*
X138304404Y-78445438D01*
X138475437Y-78274405D01*
X138568000Y-78050939D01*
X138568000Y-93245000D01*
X137006000Y-93245000D01*
X137006000Y-78386000D01*
X137006000Y-77084000D01*
X137006000Y-76776000D01*
X137006000Y-75474000D01*
X136854000Y-75322000D01*
X136480939Y-75322000D01*
X136239062Y-75322000D01*
X136015596Y-75414562D01*
X135844563Y-75585595D01*
X135752000Y-75809061D01*
X135752000Y-76624000D01*
X135904000Y-76776000D01*
X137006000Y-76776000D01*
X137006000Y-77084000D01*
X135904000Y-77084000D01*
X135752000Y-77236000D01*
X135752000Y-78050939D01*
X135844563Y-78274405D01*
X136015596Y-78445438D01*
X136239062Y-78538000D01*
X136480939Y-78538000D01*
X136854000Y-78538000D01*
X137006000Y-78386000D01*
X137006000Y-93245000D01*
X129005000Y-93245000D01*
X129005000Y-70074960D01*
X129809663Y-69315000D01*
X132202278Y-69315000D01*
X132600000Y-69674843D01*
X132600000Y-71809648D01*
X132469545Y-71835597D01*
X132051883Y-72114671D01*
X131772809Y-72532333D01*
X131674812Y-73025000D01*
X131772809Y-73517667D01*
X132051883Y-73935329D01*
X132469545Y-74214403D01*
X132874735Y-74295000D01*
X132469545Y-74375597D01*
X132051883Y-74654671D01*
X131861231Y-74940000D01*
X131699000Y-74940000D01*
X131459823Y-74987575D01*
X131257058Y-75123058D01*
X130241058Y-76139058D01*
X130105575Y-76341823D01*
X130058000Y-76581000D01*
X130058000Y-89027000D01*
X130105575Y-89266177D01*
X130241058Y-89468942D01*
X131699070Y-90926954D01*
X131772809Y-91297667D01*
X132051883Y-91715329D01*
X132469545Y-91994403D01*
X132962212Y-92092400D01*
X133737788Y-92092400D01*
X134230455Y-91994403D01*
X134648117Y-91715329D01*
X134927191Y-91297667D01*
X135025188Y-90805000D01*
X134927191Y-90312333D01*
X134648117Y-89894671D01*
X134230455Y-89615597D01*
X133825264Y-89535000D01*
X134230455Y-89454403D01*
X134648117Y-89175329D01*
X134927191Y-88757667D01*
X135025188Y-88265000D01*
X134927191Y-87772333D01*
X134648117Y-87354671D01*
X134230455Y-87075597D01*
X133825264Y-86995000D01*
X134230455Y-86914403D01*
X134648117Y-86635329D01*
X134927191Y-86217667D01*
X135025188Y-85725000D01*
X134927191Y-85232333D01*
X134648117Y-84814671D01*
X134230455Y-84535597D01*
X133825264Y-84455000D01*
X134230455Y-84374403D01*
X134648117Y-84095329D01*
X134927191Y-83677667D01*
X135025188Y-83185000D01*
X134927191Y-82692333D01*
X134648117Y-82274671D01*
X134230455Y-81995597D01*
X133825264Y-81915000D01*
X134230455Y-81834403D01*
X134648117Y-81555329D01*
X134927191Y-81137667D01*
X135025188Y-80645000D01*
X134927191Y-80152333D01*
X134648117Y-79734671D01*
X134230455Y-79455597D01*
X134089776Y-79427614D01*
X134381874Y-79335248D01*
X134801191Y-78982802D01*
X135051310Y-78474059D01*
X134939426Y-78259000D01*
X133504000Y-78259000D01*
X133504000Y-78279000D01*
X133196000Y-78279000D01*
X133196000Y-78259000D01*
X131760574Y-78259000D01*
X131648690Y-78474059D01*
X131898809Y-78982802D01*
X132318126Y-79335248D01*
X132610223Y-79427614D01*
X132469545Y-79455597D01*
X132051883Y-79734671D01*
X131772809Y-80152333D01*
X131674812Y-80645000D01*
X131772809Y-81137667D01*
X132051883Y-81555329D01*
X132469545Y-81834403D01*
X132874735Y-81915000D01*
X132469545Y-81995597D01*
X132051883Y-82274671D01*
X131772809Y-82692333D01*
X131674812Y-83185000D01*
X131772809Y-83677667D01*
X132051883Y-84095329D01*
X132469545Y-84374403D01*
X132874735Y-84455000D01*
X132469545Y-84535597D01*
X132051883Y-84814671D01*
X131772809Y-85232333D01*
X131674812Y-85725000D01*
X131772809Y-86217667D01*
X132051883Y-86635329D01*
X132469545Y-86914403D01*
X132874735Y-86995000D01*
X132469545Y-87075597D01*
X132051883Y-87354671D01*
X131772809Y-87772333D01*
X131674812Y-88265000D01*
X131772809Y-88757667D01*
X132051883Y-89175329D01*
X132469545Y-89454403D01*
X132874735Y-89535000D01*
X132469545Y-89615597D01*
X132281277Y-89741393D01*
X131308000Y-88768116D01*
X131308000Y-76839884D01*
X131899945Y-76247938D01*
X132051883Y-76475329D01*
X132469545Y-76754403D01*
X132610223Y-76782385D01*
X132318126Y-76874752D01*
X131898809Y-77227198D01*
X131648690Y-77735941D01*
X131760574Y-77951000D01*
X133196000Y-77951000D01*
X133196000Y-77931000D01*
X133504000Y-77931000D01*
X133504000Y-77951000D01*
X134939426Y-77951000D01*
X135051310Y-77735941D01*
X134801191Y-77227198D01*
X134381874Y-76874752D01*
X134089776Y-76782385D01*
X134230455Y-76754403D01*
X134648117Y-76475329D01*
X134927191Y-76057667D01*
X135025188Y-75565000D01*
X134927191Y-75072333D01*
X134648117Y-74654671D01*
X134230455Y-74375597D01*
X133825264Y-74295000D01*
X134230455Y-74214403D01*
X134648117Y-73935329D01*
X134755245Y-73775000D01*
X135850204Y-73775000D01*
X135850204Y-73930000D01*
X135887195Y-74120648D01*
X135997265Y-74288211D01*
X136163433Y-74400375D01*
X136360000Y-74439796D01*
X137960000Y-74439796D01*
X138150648Y-74402805D01*
X138318211Y-74292735D01*
X138430375Y-74126567D01*
X138469796Y-73930000D01*
X138469796Y-71930000D01*
X138432805Y-71739352D01*
X138322735Y-71571789D01*
X138156567Y-71459625D01*
X137960000Y-71420204D01*
X136360000Y-71420204D01*
X136169352Y-71457195D01*
X136001789Y-71567265D01*
X135889625Y-71733433D01*
X135850204Y-71930000D01*
X135850204Y-72275000D01*
X134755245Y-72275000D01*
X134648117Y-72114671D01*
X134230455Y-71835597D01*
X134100000Y-71809648D01*
X134100000Y-69342000D01*
X134096291Y-69323353D01*
X134097522Y-69315000D01*
X144962340Y-69315000D01*
X145300000Y-69652660D01*
X145300000Y-71809648D01*
X145169545Y-71835597D01*
X144751883Y-72114671D01*
X144472809Y-72532333D01*
X144374812Y-73025000D01*
X144472809Y-73517667D01*
X144751883Y-73935329D01*
X145169545Y-74214403D01*
X145310223Y-74242385D01*
X145018126Y-74334752D01*
X144598809Y-74687198D01*
X144348690Y-75195941D01*
X144460574Y-75411000D01*
X145896000Y-75411000D01*
X145896000Y-75391000D01*
X146204000Y-75391000D01*
X146204000Y-75411000D01*
X147639426Y-75411000D01*
X147751310Y-75195941D01*
X147501191Y-74687198D01*
X147081874Y-74334752D01*
X146789776Y-74242385D01*
X146930455Y-74214403D01*
X147348117Y-73935329D01*
X147455245Y-73775000D01*
X148550204Y-73775000D01*
X148550204Y-73930000D01*
X148587195Y-74120648D01*
X148697265Y-74288211D01*
X148863433Y-74400375D01*
X149060000Y-74439796D01*
X150660000Y-74439796D01*
X150850648Y-74402805D01*
X151018211Y-74292735D01*
X151130375Y-74126567D01*
X151169796Y-73930000D01*
X151169796Y-71930000D01*
X151132805Y-71739352D01*
X151022735Y-71571789D01*
X150856567Y-71459625D01*
X150660000Y-71420204D01*
X149060000Y-71420204D01*
X148869352Y-71457195D01*
X148701789Y-71567265D01*
X148589625Y-71733433D01*
X148550204Y-71930000D01*
X148550204Y-72275000D01*
X147455245Y-72275000D01*
X147348117Y-72114671D01*
X146930455Y-71835597D01*
X146800000Y-71809648D01*
X146800000Y-69342000D01*
X146794629Y-69315000D01*
X154497459Y-69315000D01*
X155301545Y-70038677D01*
X155583000Y-70320132D01*
X155583000Y-70993000D01*
X155669397Y-71427346D01*
X155915434Y-71795566D01*
X157463204Y-73343336D01*
X157463204Y-73548000D01*
X157500195Y-73738648D01*
X157610265Y-73906211D01*
X157776433Y-74018375D01*
X157973000Y-74057796D01*
X158073649Y-74057796D01*
X158604636Y-74830141D01*
X158442809Y-75072333D01*
X158344812Y-75565000D01*
X158442809Y-76057667D01*
X158721883Y-76475329D01*
X159139545Y-76754403D01*
X159544735Y-76835000D01*
X159139545Y-76915597D01*
X158721883Y-77194671D01*
X158442809Y-77612333D01*
X158344812Y-78105000D01*
X158442809Y-78597667D01*
X158721883Y-79015329D01*
X159139545Y-79294403D01*
X159544735Y-79375000D01*
X159139545Y-79455597D01*
X158721883Y-79734671D01*
X158442809Y-80152333D01*
X158344812Y-80645000D01*
X158442809Y-81137667D01*
X158721883Y-81555329D01*
X159139545Y-81834403D01*
X159544735Y-81915000D01*
X159139545Y-81995597D01*
X158721883Y-82274671D01*
X158442809Y-82692333D01*
X158344812Y-83185000D01*
X158442809Y-83677667D01*
X158721883Y-84095329D01*
X159139545Y-84374403D01*
X159544735Y-84455000D01*
X159139545Y-84535597D01*
X158721883Y-84814671D01*
X158442809Y-85232333D01*
X158344812Y-85725000D01*
X158442809Y-86217667D01*
X158721883Y-86635329D01*
X159139545Y-86914403D01*
X159280223Y-86942385D01*
X158988126Y-87034752D01*
X158568809Y-87387198D01*
X158318690Y-87895941D01*
X158430574Y-88111000D01*
X159866000Y-88111000D01*
X159866000Y-88091000D01*
X160174000Y-88091000D01*
X160174000Y-88111000D01*
X161609426Y-88111000D01*
X161721310Y-87895941D01*
X161471191Y-87387198D01*
X161051874Y-87034752D01*
X160759776Y-86942385D01*
X160900455Y-86914403D01*
X161318117Y-86635329D01*
X161597191Y-86217667D01*
X161695188Y-85725000D01*
X161597191Y-85232333D01*
X161318117Y-84814671D01*
X160900455Y-84535597D01*
X160495264Y-84455000D01*
X160900455Y-84374403D01*
X161318117Y-84095329D01*
X161597191Y-83677667D01*
X161695188Y-83185000D01*
X161597191Y-82692333D01*
X161318117Y-82274671D01*
X160900455Y-81995597D01*
X160495264Y-81915000D01*
X160900455Y-81834403D01*
X161318117Y-81555329D01*
X161597191Y-81137667D01*
X161695188Y-80645000D01*
X161597191Y-80152333D01*
X161318117Y-79734671D01*
X160900455Y-79455597D01*
X160495264Y-79375000D01*
X160900455Y-79294403D01*
X161318117Y-79015329D01*
X161597191Y-78597667D01*
X161695188Y-78105000D01*
X161597191Y-77612333D01*
X161318117Y-77194671D01*
X160900455Y-76915597D01*
X160495264Y-76835000D01*
X160900455Y-76754403D01*
X161318117Y-76475329D01*
X161425245Y-76315000D01*
X162520204Y-76315000D01*
X162520204Y-76470000D01*
X162557195Y-76660648D01*
X162667265Y-76828211D01*
X162833433Y-76940375D01*
X163030000Y-76979796D01*
X164630000Y-76979796D01*
X164820648Y-76942805D01*
X164988211Y-76832735D01*
X165100375Y-76666567D01*
X165139796Y-76470000D01*
X165139796Y-74470000D01*
X165102805Y-74279352D01*
X164992735Y-74111789D01*
X164826567Y-73999625D01*
X164630000Y-73960204D01*
X163030000Y-73960204D01*
X162839352Y-73997195D01*
X162671789Y-74107265D01*
X162559625Y-74273433D01*
X162520204Y-74470000D01*
X162520204Y-74815000D01*
X161425245Y-74815000D01*
X161318117Y-74654671D01*
X160900455Y-74375597D01*
X160407788Y-74277600D01*
X160045060Y-74277600D01*
X159897134Y-74062435D01*
X159897134Y-70545517D01*
X159856599Y-70046698D01*
X159743694Y-69774122D01*
X159523931Y-69714858D01*
X158840789Y-70398000D01*
X159523931Y-71081142D01*
X159743694Y-71021878D01*
X159897134Y-70545517D01*
X159897134Y-74062435D01*
X159711284Y-73792108D01*
X159743375Y-73744567D01*
X159782796Y-73548000D01*
X159782796Y-72248000D01*
X159745805Y-72057352D01*
X159635735Y-71889789D01*
X159469567Y-71777625D01*
X159273000Y-71738204D01*
X159068336Y-71738204D01*
X158962675Y-71632543D01*
X158974302Y-71631599D01*
X159246878Y-71518694D01*
X159306142Y-71298931D01*
X158623000Y-70615789D01*
X158608857Y-70629930D01*
X158391068Y-70412141D01*
X158405211Y-70398000D01*
X158391068Y-70383858D01*
X158608858Y-70166069D01*
X158623000Y-70180211D01*
X159306142Y-69497069D01*
X159257043Y-69315000D01*
X171350000Y-69315000D01*
X171350000Y-93245000D01*
X171350000Y-93245000D01*
G37*
X171350000Y-93245000D02*
X169391000Y-93245000D01*
X169391000Y-76473339D01*
X169391000Y-75871000D01*
X169391000Y-75259000D01*
X169391000Y-74656661D01*
X169298437Y-74433195D01*
X169127404Y-74262162D01*
X168903938Y-74169600D01*
X168662061Y-74169600D01*
X167946000Y-74169600D01*
X167794000Y-74321600D01*
X167794000Y-75411000D01*
X169239000Y-75411000D01*
X169391000Y-75259000D01*
X169391000Y-75871000D01*
X169239000Y-75719000D01*
X167794000Y-75719000D01*
X167794000Y-76709600D01*
X167794000Y-76808400D01*
X167794000Y-77951000D01*
X169229426Y-77951000D01*
X169341310Y-77735941D01*
X169091191Y-77227198D01*
X168773772Y-76960400D01*
X168903938Y-76960400D01*
X169127404Y-76867838D01*
X169298437Y-76696805D01*
X169391000Y-76473339D01*
X169391000Y-93245000D01*
X169341310Y-93245000D01*
X169341310Y-91174059D01*
X169341310Y-90435941D01*
X169091191Y-89927198D01*
X168671874Y-89574752D01*
X168379776Y-89482385D01*
X168520455Y-89454403D01*
X168938117Y-89175329D01*
X169217191Y-88757667D01*
X169315188Y-88265000D01*
X169217191Y-87772333D01*
X168938117Y-87354671D01*
X168520455Y-87075597D01*
X168379776Y-87047614D01*
X168671874Y-86955248D01*
X169091191Y-86602802D01*
X169341310Y-86094059D01*
X169341310Y-85355941D01*
X169091191Y-84847198D01*
X168671874Y-84494752D01*
X168546162Y-84455000D01*
X168671874Y-84415248D01*
X169091191Y-84062802D01*
X169341310Y-83554059D01*
X169341310Y-82815941D01*
X169091191Y-82307198D01*
X168671874Y-81954752D01*
X168379776Y-81862385D01*
X168520455Y-81834403D01*
X168938117Y-81555329D01*
X169217191Y-81137667D01*
X169315188Y-80645000D01*
X169217191Y-80152333D01*
X168938117Y-79734671D01*
X168520455Y-79455597D01*
X168379776Y-79427614D01*
X168671874Y-79335248D01*
X169091191Y-78982802D01*
X169341310Y-78474059D01*
X169229426Y-78259000D01*
X167794000Y-78259000D01*
X167794000Y-78279000D01*
X167486000Y-78279000D01*
X167486000Y-78259000D01*
X167486000Y-77951000D01*
X167486000Y-76808400D01*
X167486000Y-76709600D01*
X167486000Y-75719000D01*
X167486000Y-75411000D01*
X167486000Y-74321600D01*
X167334000Y-74169600D01*
X166617939Y-74169600D01*
X166376062Y-74169600D01*
X166152596Y-74262162D01*
X165981563Y-74433195D01*
X165889000Y-74656661D01*
X165889000Y-75259000D01*
X166041000Y-75411000D01*
X167486000Y-75411000D01*
X167486000Y-75719000D01*
X166041000Y-75719000D01*
X165889000Y-75871000D01*
X165889000Y-76473339D01*
X165981563Y-76696805D01*
X166152596Y-76867838D01*
X166376062Y-76960400D01*
X166506227Y-76960400D01*
X166188809Y-77227198D01*
X165938690Y-77735941D01*
X166050574Y-77951000D01*
X167486000Y-77951000D01*
X167486000Y-78259000D01*
X166050574Y-78259000D01*
X165938690Y-78474059D01*
X166188809Y-78982802D01*
X166608126Y-79335248D01*
X166900223Y-79427614D01*
X166759545Y-79455597D01*
X166341883Y-79734671D01*
X166062809Y-80152333D01*
X165964812Y-80645000D01*
X166062809Y-81137667D01*
X166341883Y-81555329D01*
X166759545Y-81834403D01*
X166900223Y-81862385D01*
X166608126Y-81954752D01*
X166188809Y-82307198D01*
X165938690Y-82815941D01*
X166050574Y-83031000D01*
X167486000Y-83031000D01*
X167486000Y-83011000D01*
X167794000Y-83011000D01*
X167794000Y-83031000D01*
X169229426Y-83031000D01*
X169341310Y-82815941D01*
X169341310Y-83554059D01*
X169229426Y-83339000D01*
X167794000Y-83339000D01*
X167794000Y-84329600D01*
X167794000Y-84580400D01*
X167794000Y-85571000D01*
X169229426Y-85571000D01*
X169341310Y-85355941D01*
X169341310Y-86094059D01*
X169229426Y-85879000D01*
X167794000Y-85879000D01*
X167794000Y-85899000D01*
X167486000Y-85899000D01*
X167486000Y-85879000D01*
X167486000Y-85571000D01*
X167486000Y-84580400D01*
X167486000Y-84329600D01*
X167486000Y-83339000D01*
X166050574Y-83339000D01*
X165938690Y-83554059D01*
X166188809Y-84062802D01*
X166608126Y-84415248D01*
X166733837Y-84455000D01*
X166608126Y-84494752D01*
X166188809Y-84847198D01*
X165938690Y-85355941D01*
X166050574Y-85571000D01*
X167486000Y-85571000D01*
X167486000Y-85879000D01*
X166050574Y-85879000D01*
X165938690Y-86094059D01*
X166188809Y-86602802D01*
X166608126Y-86955248D01*
X166900223Y-87047614D01*
X166759545Y-87075597D01*
X166341883Y-87354671D01*
X166062809Y-87772333D01*
X165964812Y-88265000D01*
X166062809Y-88757667D01*
X166341883Y-89175329D01*
X166759545Y-89454403D01*
X166900223Y-89482385D01*
X166608126Y-89574752D01*
X166188809Y-89927198D01*
X165938690Y-90435941D01*
X166050574Y-90651000D01*
X167486000Y-90651000D01*
X167486000Y-90631000D01*
X167794000Y-90631000D01*
X167794000Y-90651000D01*
X169229426Y-90651000D01*
X169341310Y-90435941D01*
X169341310Y-91174059D01*
X169229426Y-90959000D01*
X167794000Y-90959000D01*
X167794000Y-92200400D01*
X168149600Y-92200400D01*
X168671874Y-92035248D01*
X169091191Y-91682802D01*
X169341310Y-91174059D01*
X169341310Y-93245000D01*
X167486000Y-93245000D01*
X167486000Y-92200400D01*
X167486000Y-90959000D01*
X166050574Y-90959000D01*
X165938690Y-91174059D01*
X166188809Y-91682802D01*
X166608126Y-92035248D01*
X167130400Y-92200400D01*
X167486000Y-92200400D01*
X167486000Y-93245000D01*
X165238000Y-93245000D01*
X165238000Y-80590939D01*
X165238000Y-79776000D01*
X165238000Y-79164000D01*
X165238000Y-78349061D01*
X165145437Y-78125595D01*
X164974404Y-77954562D01*
X164750938Y-77862000D01*
X164509061Y-77862000D01*
X164136000Y-77862000D01*
X163984000Y-78014000D01*
X163984000Y-79316000D01*
X165086000Y-79316000D01*
X165238000Y-79164000D01*
X165238000Y-79776000D01*
X165086000Y-79624000D01*
X163984000Y-79624000D01*
X163984000Y-80926000D01*
X164136000Y-81078000D01*
X164509061Y-81078000D01*
X164750938Y-81078000D01*
X164974404Y-80985438D01*
X165145437Y-80814405D01*
X165238000Y-80590939D01*
X165238000Y-93245000D01*
X163676000Y-93245000D01*
X163676000Y-80926000D01*
X163676000Y-79624000D01*
X163676000Y-79316000D01*
X163676000Y-78014000D01*
X163524000Y-77862000D01*
X163150939Y-77862000D01*
X162909062Y-77862000D01*
X162685596Y-77954562D01*
X162514563Y-78125595D01*
X162422000Y-78349061D01*
X162422000Y-79164000D01*
X162574000Y-79316000D01*
X163676000Y-79316000D01*
X163676000Y-79624000D01*
X162574000Y-79624000D01*
X162422000Y-79776000D01*
X162422000Y-80590939D01*
X162514563Y-80814405D01*
X162685596Y-80985438D01*
X162909062Y-81078000D01*
X163150939Y-81078000D01*
X163524000Y-81078000D01*
X163676000Y-80926000D01*
X163676000Y-93245000D01*
X161721310Y-93245000D01*
X161721310Y-88634059D01*
X161609426Y-88419000D01*
X160174000Y-88419000D01*
X160174000Y-88439000D01*
X159866000Y-88439000D01*
X159866000Y-88419000D01*
X158430574Y-88419000D01*
X158318690Y-88634059D01*
X158568809Y-89142802D01*
X158988126Y-89495248D01*
X159280223Y-89587614D01*
X159139545Y-89615597D01*
X158721883Y-89894671D01*
X158442809Y-90312333D01*
X158344812Y-90805000D01*
X158442809Y-91297667D01*
X158721883Y-91715329D01*
X159139545Y-91994403D01*
X159632212Y-92092400D01*
X160407788Y-92092400D01*
X160900455Y-91994403D01*
X161318117Y-91715329D01*
X161597191Y-91297667D01*
X161695188Y-90805000D01*
X161597191Y-90312333D01*
X161318117Y-89894671D01*
X160900455Y-89615597D01*
X160759776Y-89587614D01*
X161051874Y-89495248D01*
X161471191Y-89142802D01*
X161721310Y-88634059D01*
X161721310Y-93245000D01*
X156962000Y-93245000D01*
X156962000Y-86741000D01*
X156962000Y-74295000D01*
X156914425Y-74055823D01*
X156914425Y-74055822D01*
X156778942Y-73853058D01*
X155508942Y-72583058D01*
X155322796Y-72458679D01*
X155322796Y-72237600D01*
X155285805Y-72046952D01*
X155175735Y-71879389D01*
X155009567Y-71767225D01*
X154813000Y-71727804D01*
X152527000Y-71727804D01*
X152336352Y-71764795D01*
X152168789Y-71874865D01*
X152056625Y-72041033D01*
X152017204Y-72237600D01*
X152017204Y-73812400D01*
X152054195Y-74003048D01*
X152164265Y-74170611D01*
X152330433Y-74282775D01*
X152527000Y-74322196D01*
X152677832Y-74322196D01*
X152638126Y-74334752D01*
X152218809Y-74687198D01*
X151968690Y-75195941D01*
X152080574Y-75411000D01*
X153516000Y-75411000D01*
X153516000Y-75391000D01*
X153824000Y-75391000D01*
X153824000Y-75411000D01*
X155259426Y-75411000D01*
X155371310Y-75195941D01*
X155121191Y-74687198D01*
X154701874Y-74334752D01*
X154662167Y-74322196D01*
X154813000Y-74322196D01*
X155003648Y-74285205D01*
X155171211Y-74175135D01*
X155236510Y-74078394D01*
X155712000Y-74553884D01*
X155712000Y-86482116D01*
X154890984Y-87303132D01*
X154550455Y-87075597D01*
X154145264Y-86995000D01*
X154550455Y-86914403D01*
X154968117Y-86635329D01*
X155247191Y-86217667D01*
X155345188Y-85725000D01*
X155247191Y-85232333D01*
X154968117Y-84814671D01*
X154550455Y-84535597D01*
X154145264Y-84455000D01*
X154550455Y-84374403D01*
X154968117Y-84095329D01*
X155247191Y-83677667D01*
X155345188Y-83185000D01*
X155247191Y-82692333D01*
X154968117Y-82274671D01*
X154550455Y-81995597D01*
X154145264Y-81915000D01*
X154550455Y-81834403D01*
X154968117Y-81555329D01*
X155247191Y-81137667D01*
X155345188Y-80645000D01*
X155247191Y-80152333D01*
X154968117Y-79734671D01*
X154550455Y-79455597D01*
X154145264Y-79375000D01*
X154550455Y-79294403D01*
X154968117Y-79015329D01*
X155247191Y-78597667D01*
X155345188Y-78105000D01*
X155247191Y-77612333D01*
X154968117Y-77194671D01*
X154550455Y-76915597D01*
X154409776Y-76887614D01*
X154701874Y-76795248D01*
X155121191Y-76442802D01*
X155371310Y-75934059D01*
X155259426Y-75719000D01*
X153824000Y-75719000D01*
X153824000Y-75739000D01*
X153516000Y-75739000D01*
X153516000Y-75719000D01*
X152080574Y-75719000D01*
X151968690Y-75934059D01*
X152218809Y-76442802D01*
X152638126Y-76795248D01*
X152930223Y-76887614D01*
X152789545Y-76915597D01*
X152371883Y-77194671D01*
X152092809Y-77612333D01*
X151994812Y-78105000D01*
X152092809Y-78597667D01*
X152371883Y-79015329D01*
X152789545Y-79294403D01*
X153194735Y-79375000D01*
X152789545Y-79455597D01*
X152371883Y-79734671D01*
X152092809Y-80152333D01*
X151994812Y-80645000D01*
X152092809Y-81137667D01*
X152371883Y-81555329D01*
X152789545Y-81834403D01*
X153194735Y-81915000D01*
X152789545Y-81995597D01*
X152371883Y-82274671D01*
X152092809Y-82692333D01*
X151994812Y-83185000D01*
X152092809Y-83677667D01*
X152371883Y-84095329D01*
X152789545Y-84374403D01*
X153194735Y-84455000D01*
X152789545Y-84535597D01*
X152371883Y-84814671D01*
X152092809Y-85232333D01*
X151994812Y-85725000D01*
X152092809Y-86217667D01*
X152371883Y-86635329D01*
X152789545Y-86914403D01*
X153194735Y-86995000D01*
X152789545Y-87075597D01*
X152371883Y-87354671D01*
X152092809Y-87772333D01*
X151994812Y-88265000D01*
X152092809Y-88757667D01*
X152371883Y-89175329D01*
X152789545Y-89454403D01*
X152930223Y-89482385D01*
X152638126Y-89574752D01*
X152218809Y-89927198D01*
X151968690Y-90435941D01*
X152080574Y-90651000D01*
X153516000Y-90651000D01*
X153516000Y-90631000D01*
X153824000Y-90631000D01*
X153824000Y-90651000D01*
X155259426Y-90651000D01*
X155371310Y-90435941D01*
X155121191Y-89927198D01*
X154701874Y-89574752D01*
X154409776Y-89482385D01*
X154550455Y-89454403D01*
X154968117Y-89175329D01*
X155247191Y-88757667D01*
X155257861Y-88704022D01*
X156778938Y-87182944D01*
X156778941Y-87182942D01*
X156778942Y-87182942D01*
X156914424Y-86980178D01*
X156914425Y-86980177D01*
X156962000Y-86741000D01*
X156962000Y-93245000D01*
X155371310Y-93245000D01*
X155371310Y-91174059D01*
X155259426Y-90959000D01*
X153824000Y-90959000D01*
X153824000Y-92200400D01*
X154179600Y-92200400D01*
X154701874Y-92035248D01*
X155121191Y-91682802D01*
X155371310Y-91174059D01*
X155371310Y-93245000D01*
X153516000Y-93245000D01*
X153516000Y-92200400D01*
X153516000Y-90959000D01*
X152080574Y-90959000D01*
X151968690Y-91174059D01*
X152218809Y-91682802D01*
X152638126Y-92035248D01*
X153160400Y-92200400D01*
X153516000Y-92200400D01*
X153516000Y-93245000D01*
X151268000Y-93245000D01*
X151268000Y-78050939D01*
X151268000Y-77236000D01*
X151268000Y-76624000D01*
X151268000Y-75809061D01*
X151175437Y-75585595D01*
X151004404Y-75414562D01*
X150780938Y-75322000D01*
X150539061Y-75322000D01*
X150166000Y-75322000D01*
X150014000Y-75474000D01*
X150014000Y-76776000D01*
X151116000Y-76776000D01*
X151268000Y-76624000D01*
X151268000Y-77236000D01*
X151116000Y-77084000D01*
X150014000Y-77084000D01*
X150014000Y-78386000D01*
X150166000Y-78538000D01*
X150539061Y-78538000D01*
X150780938Y-78538000D01*
X151004404Y-78445438D01*
X151175437Y-78274405D01*
X151268000Y-78050939D01*
X151268000Y-93245000D01*
X149706000Y-93245000D01*
X149706000Y-78386000D01*
X149706000Y-77084000D01*
X149706000Y-76776000D01*
X149706000Y-75474000D01*
X149554000Y-75322000D01*
X149180939Y-75322000D01*
X148939062Y-75322000D01*
X148715596Y-75414562D01*
X148544563Y-75585595D01*
X148452000Y-75809061D01*
X148452000Y-76624000D01*
X148604000Y-76776000D01*
X149706000Y-76776000D01*
X149706000Y-77084000D01*
X148604000Y-77084000D01*
X148452000Y-77236000D01*
X148452000Y-78050939D01*
X148544563Y-78274405D01*
X148715596Y-78445438D01*
X148939062Y-78538000D01*
X149180939Y-78538000D01*
X149554000Y-78538000D01*
X149706000Y-78386000D01*
X149706000Y-93245000D01*
X147751310Y-93245000D01*
X147751310Y-83554059D01*
X147751310Y-82815941D01*
X147501191Y-82307198D01*
X147081874Y-81954752D01*
X146789776Y-81862385D01*
X146930455Y-81834403D01*
X147348117Y-81555329D01*
X147627191Y-81137667D01*
X147725188Y-80645000D01*
X147627191Y-80152333D01*
X147348117Y-79734671D01*
X146930455Y-79455597D01*
X146789776Y-79427614D01*
X147081874Y-79335248D01*
X147501191Y-78982802D01*
X147751310Y-78474059D01*
X147751310Y-77735941D01*
X147501191Y-77227198D01*
X147081874Y-76874752D01*
X146956162Y-76835000D01*
X147081874Y-76795248D01*
X147501191Y-76442802D01*
X147751310Y-75934059D01*
X147639426Y-75719000D01*
X146204000Y-75719000D01*
X146204000Y-76709600D01*
X146204000Y-76960400D01*
X146204000Y-77951000D01*
X147639426Y-77951000D01*
X147751310Y-77735941D01*
X147751310Y-78474059D01*
X147639426Y-78259000D01*
X146204000Y-78259000D01*
X146204000Y-78279000D01*
X145896000Y-78279000D01*
X145896000Y-78259000D01*
X145896000Y-77951000D01*
X145896000Y-76960400D01*
X145896000Y-76709600D01*
X145896000Y-75719000D01*
X144460574Y-75719000D01*
X144348690Y-75934059D01*
X144598809Y-76442802D01*
X145018126Y-76795248D01*
X145143837Y-76835000D01*
X145018126Y-76874752D01*
X144598809Y-77227198D01*
X144348690Y-77735941D01*
X144460574Y-77951000D01*
X145896000Y-77951000D01*
X145896000Y-78259000D01*
X144460574Y-78259000D01*
X144348690Y-78474059D01*
X144598809Y-78982802D01*
X145018126Y-79335248D01*
X145310223Y-79427614D01*
X145169545Y-79455597D01*
X144751883Y-79734671D01*
X144472809Y-80152333D01*
X144374812Y-80645000D01*
X144472809Y-81137667D01*
X144751883Y-81555329D01*
X145169545Y-81834403D01*
X145310223Y-81862385D01*
X145018126Y-81954752D01*
X144598809Y-82307198D01*
X144348690Y-82815941D01*
X144460574Y-83031000D01*
X145896000Y-83031000D01*
X145896000Y-83011000D01*
X146204000Y-83011000D01*
X146204000Y-83031000D01*
X147639426Y-83031000D01*
X147751310Y-82815941D01*
X147751310Y-83554059D01*
X147639426Y-83339000D01*
X146204000Y-83339000D01*
X146204000Y-83359000D01*
X145896000Y-83359000D01*
X145896000Y-83339000D01*
X144460574Y-83339000D01*
X144348690Y-83554059D01*
X144598809Y-84062802D01*
X145018126Y-84415248D01*
X145310223Y-84507614D01*
X145169545Y-84535597D01*
X144751883Y-84814671D01*
X144472809Y-85232333D01*
X144374812Y-85725000D01*
X144472809Y-86217667D01*
X144751883Y-86635329D01*
X145169545Y-86914403D01*
X145574735Y-86995000D01*
X145169545Y-87075597D01*
X144751883Y-87354671D01*
X144472809Y-87772333D01*
X144374812Y-88265000D01*
X144472809Y-88757667D01*
X144751883Y-89175329D01*
X145169545Y-89454403D01*
X145574735Y-89535000D01*
X145169545Y-89615597D01*
X144751883Y-89894671D01*
X144472809Y-90312333D01*
X144374812Y-90805000D01*
X144472809Y-91297667D01*
X144751883Y-91715329D01*
X145169545Y-91994403D01*
X145662212Y-92092400D01*
X146437788Y-92092400D01*
X146930455Y-91994403D01*
X147348117Y-91715329D01*
X147627191Y-91297667D01*
X147725188Y-90805000D01*
X147627191Y-90312333D01*
X147348117Y-89894671D01*
X146930455Y-89615597D01*
X146525264Y-89535000D01*
X146930455Y-89454403D01*
X147348117Y-89175329D01*
X147627191Y-88757667D01*
X147725188Y-88265000D01*
X147627191Y-87772333D01*
X147348117Y-87354671D01*
X146930455Y-87075597D01*
X146525264Y-86995000D01*
X146930455Y-86914403D01*
X147348117Y-86635329D01*
X147627191Y-86217667D01*
X147725188Y-85725000D01*
X147627191Y-85232333D01*
X147348117Y-84814671D01*
X146930455Y-84535597D01*
X146789776Y-84507614D01*
X147081874Y-84415248D01*
X147501191Y-84062802D01*
X147751310Y-83554059D01*
X147751310Y-93245000D01*
X144135000Y-93245000D01*
X144135000Y-87376000D01*
X144135000Y-74930000D01*
X144087425Y-74690823D01*
X143951942Y-74488058D01*
X142622796Y-73158912D01*
X142622796Y-72237600D01*
X142585805Y-72046952D01*
X142475735Y-71879389D01*
X142309567Y-71767225D01*
X142113000Y-71727804D01*
X139827000Y-71727804D01*
X139636352Y-71764795D01*
X139468789Y-71874865D01*
X139356625Y-72041033D01*
X139317204Y-72237600D01*
X139317204Y-73812400D01*
X139354195Y-74003048D01*
X139464265Y-74170611D01*
X139630433Y-74282775D01*
X139827000Y-74322196D01*
X139977832Y-74322196D01*
X139938126Y-74334752D01*
X139518809Y-74687198D01*
X139268690Y-75195941D01*
X139380574Y-75411000D01*
X140816000Y-75411000D01*
X140816000Y-75391000D01*
X141124000Y-75391000D01*
X141124000Y-75411000D01*
X142559426Y-75411000D01*
X142671310Y-75195941D01*
X142457822Y-74761706D01*
X142885000Y-75188884D01*
X142885000Y-87117116D01*
X142420054Y-87582061D01*
X142268117Y-87354671D01*
X141850455Y-87075597D01*
X141445264Y-86995000D01*
X141850455Y-86914403D01*
X142268117Y-86635329D01*
X142547191Y-86217667D01*
X142645188Y-85725000D01*
X142547191Y-85232333D01*
X142268117Y-84814671D01*
X141850455Y-84535597D01*
X141445264Y-84455000D01*
X141850455Y-84374403D01*
X142268117Y-84095329D01*
X142547191Y-83677667D01*
X142645188Y-83185000D01*
X142547191Y-82692333D01*
X142268117Y-82274671D01*
X141850455Y-81995597D01*
X141445264Y-81915000D01*
X141850455Y-81834403D01*
X142268117Y-81555329D01*
X142547191Y-81137667D01*
X142645188Y-80645000D01*
X142547191Y-80152333D01*
X142268117Y-79734671D01*
X141850455Y-79455597D01*
X141445264Y-79375000D01*
X141850455Y-79294403D01*
X142268117Y-79015329D01*
X142547191Y-78597667D01*
X142645188Y-78105000D01*
X142547191Y-77612333D01*
X142268117Y-77194671D01*
X141850455Y-76915597D01*
X141709776Y-76887614D01*
X142001874Y-76795248D01*
X142421191Y-76442802D01*
X142671310Y-75934059D01*
X142559426Y-75719000D01*
X141124000Y-75719000D01*
X141124000Y-75739000D01*
X140816000Y-75739000D01*
X140816000Y-75719000D01*
X139380574Y-75719000D01*
X139268690Y-75934059D01*
X139518809Y-76442802D01*
X139938126Y-76795248D01*
X140230223Y-76887614D01*
X140089545Y-76915597D01*
X139671883Y-77194671D01*
X139392809Y-77612333D01*
X139294812Y-78105000D01*
X139392809Y-78597667D01*
X139671883Y-79015329D01*
X140089545Y-79294403D01*
X140494735Y-79375000D01*
X140089545Y-79455597D01*
X139671883Y-79734671D01*
X139392809Y-80152333D01*
X139294812Y-80645000D01*
X139392809Y-81137667D01*
X139671883Y-81555329D01*
X140089545Y-81834403D01*
X140494735Y-81915000D01*
X140089545Y-81995597D01*
X139671883Y-82274671D01*
X139392809Y-82692333D01*
X139294812Y-83185000D01*
X139392809Y-83677667D01*
X139671883Y-84095329D01*
X140089545Y-84374403D01*
X140494735Y-84455000D01*
X140089545Y-84535597D01*
X139671883Y-84814671D01*
X139392809Y-85232333D01*
X139294812Y-85725000D01*
X139392809Y-86217667D01*
X139671883Y-86635329D01*
X140089545Y-86914403D01*
X140494735Y-86995000D01*
X140089545Y-87075597D01*
X139671883Y-87354671D01*
X139392809Y-87772333D01*
X139294812Y-88265000D01*
X139392809Y-88757667D01*
X139671883Y-89175329D01*
X140089545Y-89454403D01*
X140230223Y-89482385D01*
X139938126Y-89574752D01*
X139518809Y-89927198D01*
X139268690Y-90435941D01*
X139380574Y-90651000D01*
X140816000Y-90651000D01*
X140816000Y-90631000D01*
X141124000Y-90631000D01*
X141124000Y-90651000D01*
X142559426Y-90651000D01*
X142671310Y-90435941D01*
X142421191Y-89927198D01*
X142001874Y-89574752D01*
X141709776Y-89482385D01*
X141850455Y-89454403D01*
X142268117Y-89175329D01*
X142458768Y-88890000D01*
X142621000Y-88890000D01*
X142860177Y-88842425D01*
X143062942Y-88706942D01*
X143951942Y-87817942D01*
X144087425Y-87615177D01*
X144135000Y-87376000D01*
X144135000Y-93245000D01*
X142671310Y-93245000D01*
X142671310Y-91174059D01*
X142559426Y-90959000D01*
X141124000Y-90959000D01*
X141124000Y-92200400D01*
X141479600Y-92200400D01*
X142001874Y-92035248D01*
X142421191Y-91682802D01*
X142671310Y-91174059D01*
X142671310Y-93245000D01*
X140816000Y-93245000D01*
X140816000Y-92200400D01*
X140816000Y-90959000D01*
X139380574Y-90959000D01*
X139268690Y-91174059D01*
X139518809Y-91682802D01*
X139938126Y-92035248D01*
X140460400Y-92200400D01*
X140816000Y-92200400D01*
X140816000Y-93245000D01*
X138568000Y-93245000D01*
X138568000Y-78050939D01*
X138568000Y-77236000D01*
X138568000Y-76624000D01*
X138568000Y-75809061D01*
X138475437Y-75585595D01*
X138304404Y-75414562D01*
X138080938Y-75322000D01*
X137839061Y-75322000D01*
X137466000Y-75322000D01*
X137314000Y-75474000D01*
X137314000Y-76776000D01*
X138416000Y-76776000D01*
X138568000Y-76624000D01*
X138568000Y-77236000D01*
X138416000Y-77084000D01*
X137314000Y-77084000D01*
X137314000Y-78386000D01*
X137466000Y-78538000D01*
X137839061Y-78538000D01*
X138080938Y-78538000D01*
X138304404Y-78445438D01*
X138475437Y-78274405D01*
X138568000Y-78050939D01*
X138568000Y-93245000D01*
X137006000Y-93245000D01*
X137006000Y-78386000D01*
X137006000Y-77084000D01*
X137006000Y-76776000D01*
X137006000Y-75474000D01*
X136854000Y-75322000D01*
X136480939Y-75322000D01*
X136239062Y-75322000D01*
X136015596Y-75414562D01*
X135844563Y-75585595D01*
X135752000Y-75809061D01*
X135752000Y-76624000D01*
X135904000Y-76776000D01*
X137006000Y-76776000D01*
X137006000Y-77084000D01*
X135904000Y-77084000D01*
X135752000Y-77236000D01*
X135752000Y-78050939D01*
X135844563Y-78274405D01*
X136015596Y-78445438D01*
X136239062Y-78538000D01*
X136480939Y-78538000D01*
X136854000Y-78538000D01*
X137006000Y-78386000D01*
X137006000Y-93245000D01*
X129005000Y-93245000D01*
X129005000Y-70074960D01*
X129809663Y-69315000D01*
X132202278Y-69315000D01*
X132600000Y-69674843D01*
X132600000Y-71809648D01*
X132469545Y-71835597D01*
X132051883Y-72114671D01*
X131772809Y-72532333D01*
X131674812Y-73025000D01*
X131772809Y-73517667D01*
X132051883Y-73935329D01*
X132469545Y-74214403D01*
X132874735Y-74295000D01*
X132469545Y-74375597D01*
X132051883Y-74654671D01*
X131861231Y-74940000D01*
X131699000Y-74940000D01*
X131459823Y-74987575D01*
X131257058Y-75123058D01*
X130241058Y-76139058D01*
X130105575Y-76341823D01*
X130058000Y-76581000D01*
X130058000Y-89027000D01*
X130105575Y-89266177D01*
X130241058Y-89468942D01*
X131699070Y-90926954D01*
X131772809Y-91297667D01*
X132051883Y-91715329D01*
X132469545Y-91994403D01*
X132962212Y-92092400D01*
X133737788Y-92092400D01*
X134230455Y-91994403D01*
X134648117Y-91715329D01*
X134927191Y-91297667D01*
X135025188Y-90805000D01*
X134927191Y-90312333D01*
X134648117Y-89894671D01*
X134230455Y-89615597D01*
X133825264Y-89535000D01*
X134230455Y-89454403D01*
X134648117Y-89175329D01*
X134927191Y-88757667D01*
X135025188Y-88265000D01*
X134927191Y-87772333D01*
X134648117Y-87354671D01*
X134230455Y-87075597D01*
X133825264Y-86995000D01*
X134230455Y-86914403D01*
X134648117Y-86635329D01*
X134927191Y-86217667D01*
X135025188Y-85725000D01*
X134927191Y-85232333D01*
X134648117Y-84814671D01*
X134230455Y-84535597D01*
X133825264Y-84455000D01*
X134230455Y-84374403D01*
X134648117Y-84095329D01*
X134927191Y-83677667D01*
X135025188Y-83185000D01*
X134927191Y-82692333D01*
X134648117Y-82274671D01*
X134230455Y-81995597D01*
X133825264Y-81915000D01*
X134230455Y-81834403D01*
X134648117Y-81555329D01*
X134927191Y-81137667D01*
X135025188Y-80645000D01*
X134927191Y-80152333D01*
X134648117Y-79734671D01*
X134230455Y-79455597D01*
X134089776Y-79427614D01*
X134381874Y-79335248D01*
X134801191Y-78982802D01*
X135051310Y-78474059D01*
X134939426Y-78259000D01*
X133504000Y-78259000D01*
X133504000Y-78279000D01*
X133196000Y-78279000D01*
X133196000Y-78259000D01*
X131760574Y-78259000D01*
X131648690Y-78474059D01*
X131898809Y-78982802D01*
X132318126Y-79335248D01*
X132610223Y-79427614D01*
X132469545Y-79455597D01*
X132051883Y-79734671D01*
X131772809Y-80152333D01*
X131674812Y-80645000D01*
X131772809Y-81137667D01*
X132051883Y-81555329D01*
X132469545Y-81834403D01*
X132874735Y-81915000D01*
X132469545Y-81995597D01*
X132051883Y-82274671D01*
X131772809Y-82692333D01*
X131674812Y-83185000D01*
X131772809Y-83677667D01*
X132051883Y-84095329D01*
X132469545Y-84374403D01*
X132874735Y-84455000D01*
X132469545Y-84535597D01*
X132051883Y-84814671D01*
X131772809Y-85232333D01*
X131674812Y-85725000D01*
X131772809Y-86217667D01*
X132051883Y-86635329D01*
X132469545Y-86914403D01*
X132874735Y-86995000D01*
X132469545Y-87075597D01*
X132051883Y-87354671D01*
X131772809Y-87772333D01*
X131674812Y-88265000D01*
X131772809Y-88757667D01*
X132051883Y-89175329D01*
X132469545Y-89454403D01*
X132874735Y-89535000D01*
X132469545Y-89615597D01*
X132281277Y-89741393D01*
X131308000Y-88768116D01*
X131308000Y-76839884D01*
X131899945Y-76247938D01*
X132051883Y-76475329D01*
X132469545Y-76754403D01*
X132610223Y-76782385D01*
X132318126Y-76874752D01*
X131898809Y-77227198D01*
X131648690Y-77735941D01*
X131760574Y-77951000D01*
X133196000Y-77951000D01*
X133196000Y-77931000D01*
X133504000Y-77931000D01*
X133504000Y-77951000D01*
X134939426Y-77951000D01*
X135051310Y-77735941D01*
X134801191Y-77227198D01*
X134381874Y-76874752D01*
X134089776Y-76782385D01*
X134230455Y-76754403D01*
X134648117Y-76475329D01*
X134927191Y-76057667D01*
X135025188Y-75565000D01*
X134927191Y-75072333D01*
X134648117Y-74654671D01*
X134230455Y-74375597D01*
X133825264Y-74295000D01*
X134230455Y-74214403D01*
X134648117Y-73935329D01*
X134755245Y-73775000D01*
X135850204Y-73775000D01*
X135850204Y-73930000D01*
X135887195Y-74120648D01*
X135997265Y-74288211D01*
X136163433Y-74400375D01*
X136360000Y-74439796D01*
X137960000Y-74439796D01*
X138150648Y-74402805D01*
X138318211Y-74292735D01*
X138430375Y-74126567D01*
X138469796Y-73930000D01*
X138469796Y-71930000D01*
X138432805Y-71739352D01*
X138322735Y-71571789D01*
X138156567Y-71459625D01*
X137960000Y-71420204D01*
X136360000Y-71420204D01*
X136169352Y-71457195D01*
X136001789Y-71567265D01*
X135889625Y-71733433D01*
X135850204Y-71930000D01*
X135850204Y-72275000D01*
X134755245Y-72275000D01*
X134648117Y-72114671D01*
X134230455Y-71835597D01*
X134100000Y-71809648D01*
X134100000Y-69342000D01*
X134096291Y-69323353D01*
X134097522Y-69315000D01*
X144962340Y-69315000D01*
X145300000Y-69652660D01*
X145300000Y-71809648D01*
X145169545Y-71835597D01*
X144751883Y-72114671D01*
X144472809Y-72532333D01*
X144374812Y-73025000D01*
X144472809Y-73517667D01*
X144751883Y-73935329D01*
X145169545Y-74214403D01*
X145310223Y-74242385D01*
X145018126Y-74334752D01*
X144598809Y-74687198D01*
X144348690Y-75195941D01*
X144460574Y-75411000D01*
X145896000Y-75411000D01*
X145896000Y-75391000D01*
X146204000Y-75391000D01*
X146204000Y-75411000D01*
X147639426Y-75411000D01*
X147751310Y-75195941D01*
X147501191Y-74687198D01*
X147081874Y-74334752D01*
X146789776Y-74242385D01*
X146930455Y-74214403D01*
X147348117Y-73935329D01*
X147455245Y-73775000D01*
X148550204Y-73775000D01*
X148550204Y-73930000D01*
X148587195Y-74120648D01*
X148697265Y-74288211D01*
X148863433Y-74400375D01*
X149060000Y-74439796D01*
X150660000Y-74439796D01*
X150850648Y-74402805D01*
X151018211Y-74292735D01*
X151130375Y-74126567D01*
X151169796Y-73930000D01*
X151169796Y-71930000D01*
X151132805Y-71739352D01*
X151022735Y-71571789D01*
X150856567Y-71459625D01*
X150660000Y-71420204D01*
X149060000Y-71420204D01*
X148869352Y-71457195D01*
X148701789Y-71567265D01*
X148589625Y-71733433D01*
X148550204Y-71930000D01*
X148550204Y-72275000D01*
X147455245Y-72275000D01*
X147348117Y-72114671D01*
X146930455Y-71835597D01*
X146800000Y-71809648D01*
X146800000Y-69342000D01*
X146794629Y-69315000D01*
X154497459Y-69315000D01*
X155301545Y-70038677D01*
X155583000Y-70320132D01*
X155583000Y-70993000D01*
X155669397Y-71427346D01*
X155915434Y-71795566D01*
X157463204Y-73343336D01*
X157463204Y-73548000D01*
X157500195Y-73738648D01*
X157610265Y-73906211D01*
X157776433Y-74018375D01*
X157973000Y-74057796D01*
X158073649Y-74057796D01*
X158604636Y-74830141D01*
X158442809Y-75072333D01*
X158344812Y-75565000D01*
X158442809Y-76057667D01*
X158721883Y-76475329D01*
X159139545Y-76754403D01*
X159544735Y-76835000D01*
X159139545Y-76915597D01*
X158721883Y-77194671D01*
X158442809Y-77612333D01*
X158344812Y-78105000D01*
X158442809Y-78597667D01*
X158721883Y-79015329D01*
X159139545Y-79294403D01*
X159544735Y-79375000D01*
X159139545Y-79455597D01*
X158721883Y-79734671D01*
X158442809Y-80152333D01*
X158344812Y-80645000D01*
X158442809Y-81137667D01*
X158721883Y-81555329D01*
X159139545Y-81834403D01*
X159544735Y-81915000D01*
X159139545Y-81995597D01*
X158721883Y-82274671D01*
X158442809Y-82692333D01*
X158344812Y-83185000D01*
X158442809Y-83677667D01*
X158721883Y-84095329D01*
X159139545Y-84374403D01*
X159544735Y-84455000D01*
X159139545Y-84535597D01*
X158721883Y-84814671D01*
X158442809Y-85232333D01*
X158344812Y-85725000D01*
X158442809Y-86217667D01*
X158721883Y-86635329D01*
X159139545Y-86914403D01*
X159280223Y-86942385D01*
X158988126Y-87034752D01*
X158568809Y-87387198D01*
X158318690Y-87895941D01*
X158430574Y-88111000D01*
X159866000Y-88111000D01*
X159866000Y-88091000D01*
X160174000Y-88091000D01*
X160174000Y-88111000D01*
X161609426Y-88111000D01*
X161721310Y-87895941D01*
X161471191Y-87387198D01*
X161051874Y-87034752D01*
X160759776Y-86942385D01*
X160900455Y-86914403D01*
X161318117Y-86635329D01*
X161597191Y-86217667D01*
X161695188Y-85725000D01*
X161597191Y-85232333D01*
X161318117Y-84814671D01*
X160900455Y-84535597D01*
X160495264Y-84455000D01*
X160900455Y-84374403D01*
X161318117Y-84095329D01*
X161597191Y-83677667D01*
X161695188Y-83185000D01*
X161597191Y-82692333D01*
X161318117Y-82274671D01*
X160900455Y-81995597D01*
X160495264Y-81915000D01*
X160900455Y-81834403D01*
X161318117Y-81555329D01*
X161597191Y-81137667D01*
X161695188Y-80645000D01*
X161597191Y-80152333D01*
X161318117Y-79734671D01*
X160900455Y-79455597D01*
X160495264Y-79375000D01*
X160900455Y-79294403D01*
X161318117Y-79015329D01*
X161597191Y-78597667D01*
X161695188Y-78105000D01*
X161597191Y-77612333D01*
X161318117Y-77194671D01*
X160900455Y-76915597D01*
X160495264Y-76835000D01*
X160900455Y-76754403D01*
X161318117Y-76475329D01*
X161425245Y-76315000D01*
X162520204Y-76315000D01*
X162520204Y-76470000D01*
X162557195Y-76660648D01*
X162667265Y-76828211D01*
X162833433Y-76940375D01*
X163030000Y-76979796D01*
X164630000Y-76979796D01*
X164820648Y-76942805D01*
X164988211Y-76832735D01*
X165100375Y-76666567D01*
X165139796Y-76470000D01*
X165139796Y-74470000D01*
X165102805Y-74279352D01*
X164992735Y-74111789D01*
X164826567Y-73999625D01*
X164630000Y-73960204D01*
X163030000Y-73960204D01*
X162839352Y-73997195D01*
X162671789Y-74107265D01*
X162559625Y-74273433D01*
X162520204Y-74470000D01*
X162520204Y-74815000D01*
X161425245Y-74815000D01*
X161318117Y-74654671D01*
X160900455Y-74375597D01*
X160407788Y-74277600D01*
X160045060Y-74277600D01*
X159897134Y-74062435D01*
X159897134Y-70545517D01*
X159856599Y-70046698D01*
X159743694Y-69774122D01*
X159523931Y-69714858D01*
X158840789Y-70398000D01*
X159523931Y-71081142D01*
X159743694Y-71021878D01*
X159897134Y-70545517D01*
X159897134Y-74062435D01*
X159711284Y-73792108D01*
X159743375Y-73744567D01*
X159782796Y-73548000D01*
X159782796Y-72248000D01*
X159745805Y-72057352D01*
X159635735Y-71889789D01*
X159469567Y-71777625D01*
X159273000Y-71738204D01*
X159068336Y-71738204D01*
X158962675Y-71632543D01*
X158974302Y-71631599D01*
X159246878Y-71518694D01*
X159306142Y-71298931D01*
X158623000Y-70615789D01*
X158608857Y-70629930D01*
X158391068Y-70412141D01*
X158405211Y-70398000D01*
X158391068Y-70383858D01*
X158608858Y-70166069D01*
X158623000Y-70180211D01*
X159306142Y-69497069D01*
X159257043Y-69315000D01*
X171350000Y-69315000D01*
X171350000Y-93245000D01*
D35*
G36*
X137033000Y-109093000D02*
X131318000Y-109093000D01*
X131318000Y-109728000D01*
X130048000Y-109728000D01*
X130048000Y-116790000D01*
X122313440Y-116790000D01*
X122313440Y-115316000D01*
X122313440Y-113284000D01*
X122266463Y-113041877D01*
X122126673Y-112829073D01*
X121966956Y-112721262D01*
X122056385Y-112624818D01*
X122255975Y-112142944D01*
X122255975Y-111377056D01*
X122056385Y-110895182D01*
X121618379Y-110422812D01*
X121032946Y-110154017D01*
X120777000Y-110272633D01*
X120777000Y-111633000D01*
X122136836Y-111633000D01*
X122255975Y-111377056D01*
X122255975Y-112142944D01*
X122136836Y-111887000D01*
X120777000Y-111887000D01*
X120777000Y-111907000D01*
X120523000Y-111907000D01*
X120523000Y-111887000D01*
X120523000Y-111633000D01*
X120523000Y-110272633D01*
X120267054Y-110154017D01*
X119681621Y-110422812D01*
X119243615Y-110895182D01*
X119044025Y-111377056D01*
X119163164Y-111633000D01*
X120523000Y-111633000D01*
X120523000Y-111887000D01*
X119163164Y-111887000D01*
X119044025Y-112142944D01*
X119243615Y-112624818D01*
X119333574Y-112721835D01*
X119179073Y-112823327D01*
X119036623Y-113034360D01*
X118986560Y-113284000D01*
X118986560Y-115316000D01*
X119033537Y-115558123D01*
X119173327Y-115770927D01*
X119384360Y-115913377D01*
X119634000Y-115963440D01*
X121666000Y-115963440D01*
X121908123Y-115916463D01*
X122120927Y-115776673D01*
X122263377Y-115565640D01*
X122313440Y-115316000D01*
X122313440Y-116790000D01*
X110020000Y-116790000D01*
X110020000Y-112346309D01*
X110020000Y-111505750D01*
X110020000Y-110934250D01*
X110020000Y-110093691D01*
X109923327Y-109860302D01*
X109744699Y-109681673D01*
X109511310Y-109585000D01*
X109258691Y-109585000D01*
X108870750Y-109585000D01*
X108712000Y-109743750D01*
X108712000Y-111093000D01*
X109861250Y-111093000D01*
X110020000Y-110934250D01*
X110020000Y-111505750D01*
X109861250Y-111347000D01*
X108712000Y-111347000D01*
X108712000Y-112696250D01*
X108870750Y-112855000D01*
X109258691Y-112855000D01*
X109511310Y-112855000D01*
X109744699Y-112758327D01*
X109923327Y-112579698D01*
X110020000Y-112346309D01*
X110020000Y-116790000D01*
X108458000Y-116790000D01*
X108458000Y-112696250D01*
X108458000Y-111347000D01*
X108458000Y-111093000D01*
X108458000Y-109743750D01*
X108299250Y-109585000D01*
X107911309Y-109585000D01*
X107658690Y-109585000D01*
X107425301Y-109681673D01*
X107246673Y-109860302D01*
X107150000Y-110093691D01*
X107150000Y-110934250D01*
X107308750Y-111093000D01*
X108458000Y-111093000D01*
X108458000Y-111347000D01*
X107308750Y-111347000D01*
X107150000Y-111505750D01*
X107150000Y-112346309D01*
X107246673Y-112579698D01*
X107425301Y-112758327D01*
X107658690Y-112855000D01*
X107911309Y-112855000D01*
X108299250Y-112855000D01*
X108458000Y-112696250D01*
X108458000Y-116790000D01*
X101727000Y-116790000D01*
X101727000Y-105537000D01*
X114427000Y-105537000D01*
X114759883Y-105537000D01*
X114390671Y-105610441D01*
X113929211Y-105918778D01*
X113651100Y-106335000D01*
X110032440Y-106335000D01*
X110032440Y-106220000D01*
X109985463Y-105977877D01*
X109845673Y-105765073D01*
X109634640Y-105622623D01*
X109385000Y-105572560D01*
X107785000Y-105572560D01*
X107542877Y-105619537D01*
X107330073Y-105759327D01*
X107187623Y-105970360D01*
X107137560Y-106220000D01*
X107137560Y-107415860D01*
X105931839Y-108621581D01*
X105702073Y-108391414D01*
X105101547Y-108142054D01*
X104451306Y-108141486D01*
X103850345Y-108389798D01*
X103390154Y-108849187D01*
X103140794Y-109449713D01*
X103140226Y-110099954D01*
X103388538Y-110700915D01*
X103847927Y-111161106D01*
X104448453Y-111410466D01*
X105098694Y-111411034D01*
X105699655Y-111162722D01*
X106159846Y-110703333D01*
X106190692Y-110629045D01*
X106311224Y-110605070D01*
X106367414Y-110593893D01*
X106367415Y-110593893D01*
X106654530Y-110402050D01*
X108189139Y-108867440D01*
X109385000Y-108867440D01*
X109627123Y-108820463D01*
X109839927Y-108680673D01*
X109982377Y-108469640D01*
X110032440Y-108220000D01*
X110032440Y-108105000D01*
X113592078Y-108105000D01*
X113620874Y-108249762D01*
X113929211Y-108711222D01*
X114390671Y-109019559D01*
X114935000Y-109127833D01*
X115479329Y-109019559D01*
X115940789Y-108711222D01*
X116205000Y-108315801D01*
X116469211Y-108711222D01*
X116930671Y-109019559D01*
X117475000Y-109127833D01*
X118019329Y-109019559D01*
X118480789Y-108711222D01*
X118745000Y-108315801D01*
X119009211Y-108711222D01*
X119470671Y-109019559D01*
X120015000Y-109127833D01*
X120559329Y-109019559D01*
X121020789Y-108711222D01*
X121285000Y-108315801D01*
X121549211Y-108711222D01*
X122010671Y-109019559D01*
X122555000Y-109127833D01*
X123099329Y-109019559D01*
X123560789Y-108711222D01*
X123825000Y-108315801D01*
X124089211Y-108711222D01*
X124550671Y-109019559D01*
X125095000Y-109127833D01*
X125639329Y-109019559D01*
X126100789Y-108711222D01*
X126365000Y-108315801D01*
X126629211Y-108711222D01*
X127090671Y-109019559D01*
X127635000Y-109127833D01*
X128179329Y-109019559D01*
X128640789Y-108711222D01*
X128905000Y-108315801D01*
X129169211Y-108711222D01*
X129630671Y-109019559D01*
X130175000Y-109127833D01*
X130719329Y-109019559D01*
X131180789Y-108711222D01*
X131489126Y-108249762D01*
X131597400Y-107705433D01*
X131597400Y-106924567D01*
X131489126Y-106380238D01*
X131180789Y-105918778D01*
X130719329Y-105610441D01*
X130350116Y-105537000D01*
X135763000Y-105537000D01*
X136249008Y-105440327D01*
X136661026Y-105165026D01*
X136669729Y-105152000D01*
X137033000Y-105152000D01*
X137033000Y-109093000D01*
X137033000Y-109093000D01*
G37*
X137033000Y-109093000D02*
X131318000Y-109093000D01*
X131318000Y-109728000D01*
X130048000Y-109728000D01*
X130048000Y-116790000D01*
X122313440Y-116790000D01*
X122313440Y-115316000D01*
X122313440Y-113284000D01*
X122266463Y-113041877D01*
X122126673Y-112829073D01*
X121966956Y-112721262D01*
X122056385Y-112624818D01*
X122255975Y-112142944D01*
X122255975Y-111377056D01*
X122056385Y-110895182D01*
X121618379Y-110422812D01*
X121032946Y-110154017D01*
X120777000Y-110272633D01*
X120777000Y-111633000D01*
X122136836Y-111633000D01*
X122255975Y-111377056D01*
X122255975Y-112142944D01*
X122136836Y-111887000D01*
X120777000Y-111887000D01*
X120777000Y-111907000D01*
X120523000Y-111907000D01*
X120523000Y-111887000D01*
X120523000Y-111633000D01*
X120523000Y-110272633D01*
X120267054Y-110154017D01*
X119681621Y-110422812D01*
X119243615Y-110895182D01*
X119044025Y-111377056D01*
X119163164Y-111633000D01*
X120523000Y-111633000D01*
X120523000Y-111887000D01*
X119163164Y-111887000D01*
X119044025Y-112142944D01*
X119243615Y-112624818D01*
X119333574Y-112721835D01*
X119179073Y-112823327D01*
X119036623Y-113034360D01*
X118986560Y-113284000D01*
X118986560Y-115316000D01*
X119033537Y-115558123D01*
X119173327Y-115770927D01*
X119384360Y-115913377D01*
X119634000Y-115963440D01*
X121666000Y-115963440D01*
X121908123Y-115916463D01*
X122120927Y-115776673D01*
X122263377Y-115565640D01*
X122313440Y-115316000D01*
X122313440Y-116790000D01*
X110020000Y-116790000D01*
X110020000Y-112346309D01*
X110020000Y-111505750D01*
X110020000Y-110934250D01*
X110020000Y-110093691D01*
X109923327Y-109860302D01*
X109744699Y-109681673D01*
X109511310Y-109585000D01*
X109258691Y-109585000D01*
X108870750Y-109585000D01*
X108712000Y-109743750D01*
X108712000Y-111093000D01*
X109861250Y-111093000D01*
X110020000Y-110934250D01*
X110020000Y-111505750D01*
X109861250Y-111347000D01*
X108712000Y-111347000D01*
X108712000Y-112696250D01*
X108870750Y-112855000D01*
X109258691Y-112855000D01*
X109511310Y-112855000D01*
X109744699Y-112758327D01*
X109923327Y-112579698D01*
X110020000Y-112346309D01*
X110020000Y-116790000D01*
X108458000Y-116790000D01*
X108458000Y-112696250D01*
X108458000Y-111347000D01*
X108458000Y-111093000D01*
X108458000Y-109743750D01*
X108299250Y-109585000D01*
X107911309Y-109585000D01*
X107658690Y-109585000D01*
X107425301Y-109681673D01*
X107246673Y-109860302D01*
X107150000Y-110093691D01*
X107150000Y-110934250D01*
X107308750Y-111093000D01*
X108458000Y-111093000D01*
X108458000Y-111347000D01*
X107308750Y-111347000D01*
X107150000Y-111505750D01*
X107150000Y-112346309D01*
X107246673Y-112579698D01*
X107425301Y-112758327D01*
X107658690Y-112855000D01*
X107911309Y-112855000D01*
X108299250Y-112855000D01*
X108458000Y-112696250D01*
X108458000Y-116790000D01*
X101727000Y-116790000D01*
X101727000Y-105537000D01*
X114427000Y-105537000D01*
X114759883Y-105537000D01*
X114390671Y-105610441D01*
X113929211Y-105918778D01*
X113651100Y-106335000D01*
X110032440Y-106335000D01*
X110032440Y-106220000D01*
X109985463Y-105977877D01*
X109845673Y-105765073D01*
X109634640Y-105622623D01*
X109385000Y-105572560D01*
X107785000Y-105572560D01*
X107542877Y-105619537D01*
X107330073Y-105759327D01*
X107187623Y-105970360D01*
X107137560Y-106220000D01*
X107137560Y-107415860D01*
X105931839Y-108621581D01*
X105702073Y-108391414D01*
X105101547Y-108142054D01*
X104451306Y-108141486D01*
X103850345Y-108389798D01*
X103390154Y-108849187D01*
X103140794Y-109449713D01*
X103140226Y-110099954D01*
X103388538Y-110700915D01*
X103847927Y-111161106D01*
X104448453Y-111410466D01*
X105098694Y-111411034D01*
X105699655Y-111162722D01*
X106159846Y-110703333D01*
X106190692Y-110629045D01*
X106311224Y-110605070D01*
X106367414Y-110593893D01*
X106367415Y-110593893D01*
X106654530Y-110402050D01*
X108189139Y-108867440D01*
X109385000Y-108867440D01*
X109627123Y-108820463D01*
X109839927Y-108680673D01*
X109982377Y-108469640D01*
X110032440Y-108220000D01*
X110032440Y-108105000D01*
X113592078Y-108105000D01*
X113620874Y-108249762D01*
X113929211Y-108711222D01*
X114390671Y-109019559D01*
X114935000Y-109127833D01*
X115479329Y-109019559D01*
X115940789Y-108711222D01*
X116205000Y-108315801D01*
X116469211Y-108711222D01*
X116930671Y-109019559D01*
X117475000Y-109127833D01*
X118019329Y-109019559D01*
X118480789Y-108711222D01*
X118745000Y-108315801D01*
X119009211Y-108711222D01*
X119470671Y-109019559D01*
X120015000Y-109127833D01*
X120559329Y-109019559D01*
X121020789Y-108711222D01*
X121285000Y-108315801D01*
X121549211Y-108711222D01*
X122010671Y-109019559D01*
X122555000Y-109127833D01*
X123099329Y-109019559D01*
X123560789Y-108711222D01*
X123825000Y-108315801D01*
X124089211Y-108711222D01*
X124550671Y-109019559D01*
X125095000Y-109127833D01*
X125639329Y-109019559D01*
X126100789Y-108711222D01*
X126365000Y-108315801D01*
X126629211Y-108711222D01*
X127090671Y-109019559D01*
X127635000Y-109127833D01*
X128179329Y-109019559D01*
X128640789Y-108711222D01*
X128905000Y-108315801D01*
X129169211Y-108711222D01*
X129630671Y-109019559D01*
X130175000Y-109127833D01*
X130719329Y-109019559D01*
X131180789Y-108711222D01*
X131489126Y-108249762D01*
X131597400Y-107705433D01*
X131597400Y-106924567D01*
X131489126Y-106380238D01*
X131180789Y-105918778D01*
X130719329Y-105610441D01*
X130350116Y-105537000D01*
X135763000Y-105537000D01*
X136249008Y-105440327D01*
X136661026Y-105165026D01*
X136669729Y-105152000D01*
X137033000Y-105152000D01*
X137033000Y-109093000D01*
G36*
X171323000Y-116790000D02*
X168427400Y-116790000D01*
X168427400Y-107705433D01*
X168427400Y-106924567D01*
X168427400Y-100177600D01*
X168427400Y-99822000D01*
X168427400Y-99568000D01*
X168427400Y-99212400D01*
X168270525Y-98677738D01*
X167920986Y-98243809D01*
X167431996Y-97976673D01*
X167352060Y-97959990D01*
X167132000Y-98082148D01*
X167132000Y-99568000D01*
X168427400Y-99568000D01*
X168427400Y-99822000D01*
X167132000Y-99822000D01*
X167132000Y-101307852D01*
X167352060Y-101430010D01*
X167431996Y-101413327D01*
X167920986Y-101146191D01*
X168270525Y-100712262D01*
X168427400Y-100177600D01*
X168427400Y-106924567D01*
X168319126Y-106380238D01*
X168010789Y-105918778D01*
X167549329Y-105610441D01*
X167005000Y-105502167D01*
X166878000Y-105527428D01*
X166878000Y-101307852D01*
X166878000Y-99822000D01*
X166858000Y-99822000D01*
X166858000Y-99568000D01*
X166878000Y-99568000D01*
X166878000Y-98082148D01*
X166657940Y-97959990D01*
X166578004Y-97976673D01*
X166089014Y-98243809D01*
X165739475Y-98677738D01*
X165734753Y-98693829D01*
X165470789Y-98298778D01*
X165009329Y-97990441D01*
X164465000Y-97882167D01*
X163920671Y-97990441D01*
X163459211Y-98298778D01*
X163195000Y-98694198D01*
X162930789Y-98298778D01*
X162469329Y-97990441D01*
X161925000Y-97882167D01*
X161380671Y-97990441D01*
X160919211Y-98298778D01*
X160655000Y-98694198D01*
X160390789Y-98298778D01*
X159929329Y-97990441D01*
X159385000Y-97882167D01*
X158840671Y-97990441D01*
X158379211Y-98298778D01*
X158115000Y-98694198D01*
X157850789Y-98298778D01*
X157389329Y-97990441D01*
X156845000Y-97882167D01*
X156300671Y-97990441D01*
X155839211Y-98298778D01*
X155575000Y-98694198D01*
X155310789Y-98298778D01*
X154849329Y-97990441D01*
X154305000Y-97882167D01*
X153760671Y-97990441D01*
X153299211Y-98298778D01*
X153184126Y-98471013D01*
X153152863Y-98309877D01*
X153013073Y-98097073D01*
X152802040Y-97954623D01*
X152552400Y-97904560D01*
X150977600Y-97904560D01*
X150735477Y-97951537D01*
X150522673Y-98091327D01*
X150380223Y-98302360D01*
X150330160Y-98552000D01*
X150330160Y-100838000D01*
X150377137Y-101080123D01*
X150516927Y-101292927D01*
X150727960Y-101435377D01*
X150977600Y-101485440D01*
X152552400Y-101485440D01*
X152794523Y-101438463D01*
X153007327Y-101298673D01*
X153149777Y-101087640D01*
X153183720Y-100918378D01*
X153299211Y-101091222D01*
X153760671Y-101399559D01*
X154305000Y-101507833D01*
X154849329Y-101399559D01*
X155310789Y-101091222D01*
X155575000Y-100695801D01*
X155839211Y-101091222D01*
X156300671Y-101399559D01*
X156845000Y-101507833D01*
X157389329Y-101399559D01*
X157850789Y-101091222D01*
X158115000Y-100695801D01*
X158379211Y-101091222D01*
X158840671Y-101399559D01*
X159385000Y-101507833D01*
X159929329Y-101399559D01*
X160390789Y-101091222D01*
X160655000Y-100695801D01*
X160919211Y-101091222D01*
X161380671Y-101399559D01*
X161925000Y-101507833D01*
X162469329Y-101399559D01*
X162930789Y-101091222D01*
X163195000Y-100695801D01*
X163459211Y-101091222D01*
X163920671Y-101399559D01*
X164465000Y-101507833D01*
X165009329Y-101399559D01*
X165470789Y-101091222D01*
X165734753Y-100696170D01*
X165739475Y-100712262D01*
X166089014Y-101146191D01*
X166578004Y-101413327D01*
X166657940Y-101430010D01*
X166878000Y-101307852D01*
X166878000Y-105527428D01*
X166460671Y-105610441D01*
X165999211Y-105918778D01*
X165735000Y-106314198D01*
X165470789Y-105918778D01*
X165009329Y-105610441D01*
X164465000Y-105502167D01*
X163920671Y-105610441D01*
X163459211Y-105918778D01*
X163195000Y-106314198D01*
X162930789Y-105918778D01*
X162469329Y-105610441D01*
X161925000Y-105502167D01*
X161380671Y-105610441D01*
X160919211Y-105918778D01*
X160655000Y-106314198D01*
X160390789Y-105918778D01*
X159929329Y-105610441D01*
X159385000Y-105502167D01*
X158840671Y-105610441D01*
X158379211Y-105918778D01*
X158115000Y-106314198D01*
X157850789Y-105918778D01*
X157389329Y-105610441D01*
X156845000Y-105502167D01*
X156300671Y-105610441D01*
X155839211Y-105918778D01*
X155575000Y-106314198D01*
X155310789Y-105918778D01*
X154849329Y-105610441D01*
X154305000Y-105502167D01*
X153760671Y-105610441D01*
X153299211Y-105918778D01*
X153035000Y-106314198D01*
X152770789Y-105918778D01*
X152309329Y-105610441D01*
X151765000Y-105502167D01*
X151220671Y-105610441D01*
X150759211Y-105918778D01*
X150450874Y-106380238D01*
X150440975Y-106430000D01*
X147497440Y-106430000D01*
X147497440Y-106410000D01*
X147485000Y-106345883D01*
X147485000Y-104536309D01*
X147485000Y-103695750D01*
X147485000Y-103124250D01*
X147485000Y-102283691D01*
X147388327Y-102050302D01*
X147209699Y-101871673D01*
X146976310Y-101775000D01*
X146723691Y-101775000D01*
X146335750Y-101775000D01*
X146177000Y-101933750D01*
X146177000Y-103283000D01*
X147326250Y-103283000D01*
X147485000Y-103124250D01*
X147485000Y-103695750D01*
X147326250Y-103537000D01*
X146177000Y-103537000D01*
X146177000Y-104886250D01*
X146335750Y-105045000D01*
X146723691Y-105045000D01*
X146976310Y-105045000D01*
X147209699Y-104948327D01*
X147388327Y-104769698D01*
X147485000Y-104536309D01*
X147485000Y-106345883D01*
X147450463Y-106167877D01*
X147310673Y-105955073D01*
X147099640Y-105812623D01*
X146850000Y-105762560D01*
X145923000Y-105762560D01*
X145923000Y-104886250D01*
X145923000Y-103537000D01*
X145923000Y-103283000D01*
X145923000Y-101933750D01*
X145764250Y-101775000D01*
X145376309Y-101775000D01*
X145123690Y-101775000D01*
X144890301Y-101871673D01*
X144711673Y-102050302D01*
X144615000Y-102283691D01*
X144615000Y-103124250D01*
X144773750Y-103283000D01*
X145923000Y-103283000D01*
X145923000Y-103537000D01*
X144773750Y-103537000D01*
X144615000Y-103695750D01*
X144615000Y-104536309D01*
X144711673Y-104769698D01*
X144890301Y-104948327D01*
X145123690Y-105045000D01*
X145376309Y-105045000D01*
X145764250Y-105045000D01*
X145923000Y-104886250D01*
X145923000Y-105762560D01*
X145250000Y-105762560D01*
X145007877Y-105809537D01*
X144795073Y-105949327D01*
X144652623Y-106160360D01*
X144602560Y-106410000D01*
X144602560Y-106508740D01*
X143007847Y-106508740D01*
X142991462Y-106469085D01*
X142532073Y-106008894D01*
X141931547Y-105759534D01*
X141281306Y-105758966D01*
X140680345Y-106007278D01*
X140220154Y-106466667D01*
X139970794Y-107067193D01*
X139970226Y-107717434D01*
X140218538Y-108318395D01*
X140677927Y-108778586D01*
X141278453Y-109027946D01*
X141928694Y-109028514D01*
X142529655Y-108780202D01*
X142989846Y-108320813D01*
X143007316Y-108278740D01*
X144602560Y-108278740D01*
X144602560Y-108410000D01*
X144649537Y-108652123D01*
X144789327Y-108864927D01*
X145000360Y-109007377D01*
X145250000Y-109057440D01*
X146850000Y-109057440D01*
X147092123Y-109010463D01*
X147304927Y-108870673D01*
X147447377Y-108659640D01*
X147497440Y-108410000D01*
X147497440Y-108200000D01*
X150440975Y-108200000D01*
X150450874Y-108249762D01*
X150759211Y-108711222D01*
X151220671Y-109019559D01*
X151765000Y-109127833D01*
X152309329Y-109019559D01*
X152770789Y-108711222D01*
X153035000Y-108315801D01*
X153299211Y-108711222D01*
X153760671Y-109019559D01*
X154305000Y-109127833D01*
X154849329Y-109019559D01*
X155310789Y-108711222D01*
X155575000Y-108315801D01*
X155839211Y-108711222D01*
X156300671Y-109019559D01*
X156845000Y-109127833D01*
X157389329Y-109019559D01*
X157850789Y-108711222D01*
X158115000Y-108315801D01*
X158379211Y-108711222D01*
X158840671Y-109019559D01*
X159385000Y-109127833D01*
X159929329Y-109019559D01*
X160390789Y-108711222D01*
X160655000Y-108315801D01*
X160919211Y-108711222D01*
X161380671Y-109019559D01*
X161925000Y-109127833D01*
X162469329Y-109019559D01*
X162930789Y-108711222D01*
X163195000Y-108315801D01*
X163459211Y-108711222D01*
X163920671Y-109019559D01*
X164465000Y-109127833D01*
X165009329Y-109019559D01*
X165470789Y-108711222D01*
X165735000Y-108315801D01*
X165999211Y-108711222D01*
X166460671Y-109019559D01*
X167005000Y-109127833D01*
X167549329Y-109019559D01*
X168010789Y-108711222D01*
X168319126Y-108249762D01*
X168427400Y-107705433D01*
X168427400Y-116790000D01*
X163588440Y-116790000D01*
X163588440Y-115316000D01*
X163588440Y-113284000D01*
X163541463Y-113041877D01*
X163401673Y-112829073D01*
X163241956Y-112721262D01*
X163331385Y-112624818D01*
X163530975Y-112142944D01*
X163530975Y-111377056D01*
X163331385Y-110895182D01*
X162893379Y-110422812D01*
X162307946Y-110154017D01*
X162052000Y-110272633D01*
X162052000Y-111633000D01*
X163411836Y-111633000D01*
X163530975Y-111377056D01*
X163530975Y-112142944D01*
X163411836Y-111887000D01*
X162052000Y-111887000D01*
X162052000Y-111907000D01*
X161798000Y-111907000D01*
X161798000Y-111887000D01*
X161798000Y-111633000D01*
X161798000Y-110272633D01*
X161542054Y-110154017D01*
X160956621Y-110422812D01*
X160518615Y-110895182D01*
X160319025Y-111377056D01*
X160438164Y-111633000D01*
X161798000Y-111633000D01*
X161798000Y-111887000D01*
X160438164Y-111887000D01*
X160319025Y-112142944D01*
X160518615Y-112624818D01*
X160608574Y-112721835D01*
X160454073Y-112823327D01*
X160311623Y-113034360D01*
X160261560Y-113284000D01*
X160261560Y-115316000D01*
X160308537Y-115558123D01*
X160448327Y-115770927D01*
X160659360Y-115913377D01*
X160909000Y-115963440D01*
X162941000Y-115963440D01*
X163183123Y-115916463D01*
X163395927Y-115776673D01*
X163538377Y-115565640D01*
X163588440Y-115316000D01*
X163588440Y-116790000D01*
X149618440Y-116790000D01*
X149618440Y-112776000D01*
X149618440Y-110744000D01*
X149571463Y-110501877D01*
X149431673Y-110289073D01*
X149220640Y-110146623D01*
X148971000Y-110096560D01*
X146939000Y-110096560D01*
X146696877Y-110143537D01*
X146484073Y-110283327D01*
X146341623Y-110494360D01*
X146291560Y-110744000D01*
X146291560Y-112776000D01*
X146338537Y-113018123D01*
X146478327Y-113230927D01*
X146638043Y-113338737D01*
X146548615Y-113435182D01*
X146349025Y-113917056D01*
X146468164Y-114173000D01*
X147828000Y-114173000D01*
X147828000Y-114153000D01*
X148082000Y-114153000D01*
X148082000Y-114173000D01*
X149441836Y-114173000D01*
X149560975Y-113917056D01*
X149361385Y-113435182D01*
X149271425Y-113338164D01*
X149425927Y-113236673D01*
X149568377Y-113025640D01*
X149618440Y-112776000D01*
X149618440Y-116790000D01*
X149560975Y-116790000D01*
X149560975Y-114682944D01*
X149441836Y-114427000D01*
X148082000Y-114427000D01*
X148082000Y-115787367D01*
X148337946Y-115905983D01*
X148923379Y-115637188D01*
X149361385Y-115164818D01*
X149560975Y-114682944D01*
X149560975Y-116790000D01*
X147828000Y-116790000D01*
X147828000Y-115787367D01*
X147828000Y-114427000D01*
X146468164Y-114427000D01*
X146349025Y-114682944D01*
X146548615Y-115164818D01*
X146986621Y-115637188D01*
X147572054Y-115905983D01*
X147828000Y-115787367D01*
X147828000Y-116790000D01*
X137922000Y-116790000D01*
X137922000Y-105152000D01*
X139318994Y-105152000D01*
X139319000Y-105152001D01*
X139319000Y-105152000D01*
X139601484Y-105095810D01*
X139657674Y-105084633D01*
X139657675Y-105084633D01*
X139944790Y-104892790D01*
X142230786Y-102606792D01*
X142230789Y-102606790D01*
X142230790Y-102606790D01*
X142422633Y-102319675D01*
X142490000Y-101981000D01*
X142490001Y-101981000D01*
X142490000Y-101980994D01*
X142490000Y-98636587D01*
X142529655Y-98620202D01*
X142989846Y-98160813D01*
X143239206Y-97560287D01*
X143239774Y-96910046D01*
X142991462Y-96309085D01*
X142532073Y-95848894D01*
X141931547Y-95599534D01*
X141281306Y-95598966D01*
X140680345Y-95847278D01*
X140220154Y-96306667D01*
X139970794Y-96907193D01*
X139970226Y-97557434D01*
X140218538Y-98158395D01*
X140677927Y-98618586D01*
X140720000Y-98636056D01*
X140720000Y-101614420D01*
X138952420Y-103382000D01*
X137922000Y-103382000D01*
X137922000Y-98933000D01*
X137033000Y-98933000D01*
X137033000Y-103382000D01*
X136669729Y-103382000D01*
X136661026Y-103368974D01*
X136249008Y-103093673D01*
X135763000Y-102997000D01*
X131597400Y-102997000D01*
X131597400Y-100177600D01*
X131597400Y-99822000D01*
X131597400Y-99568000D01*
X131597400Y-99212400D01*
X131440525Y-98677738D01*
X131090986Y-98243809D01*
X130601996Y-97976673D01*
X130522060Y-97959990D01*
X130302000Y-98082148D01*
X130302000Y-99568000D01*
X131597400Y-99568000D01*
X131597400Y-99822000D01*
X130302000Y-99822000D01*
X130302000Y-101307852D01*
X130522060Y-101430010D01*
X130601996Y-101413327D01*
X131090986Y-101146191D01*
X131440525Y-100712262D01*
X131597400Y-100177600D01*
X131597400Y-102997000D01*
X130048000Y-102997000D01*
X130048000Y-101307852D01*
X130048000Y-99822000D01*
X130028000Y-99822000D01*
X130028000Y-99568000D01*
X130048000Y-99568000D01*
X130048000Y-98082148D01*
X129827940Y-97959990D01*
X129748004Y-97976673D01*
X129259014Y-98243809D01*
X128909475Y-98677738D01*
X128904753Y-98693829D01*
X128640789Y-98298778D01*
X128179329Y-97990441D01*
X127635000Y-97882167D01*
X127090671Y-97990441D01*
X126629211Y-98298778D01*
X126364999Y-98694198D01*
X126100789Y-98298778D01*
X125639329Y-97990441D01*
X125095000Y-97882167D01*
X124550671Y-97990441D01*
X124089211Y-98298778D01*
X123824999Y-98694198D01*
X123560789Y-98298778D01*
X123099329Y-97990441D01*
X122555000Y-97882167D01*
X122010671Y-97990441D01*
X121549211Y-98298778D01*
X121284999Y-98694198D01*
X121020789Y-98298778D01*
X120559329Y-97990441D01*
X120015000Y-97882167D01*
X119470671Y-97990441D01*
X119009211Y-98298778D01*
X118744999Y-98694198D01*
X118480789Y-98298778D01*
X118019329Y-97990441D01*
X117475000Y-97882167D01*
X116930671Y-97990441D01*
X116469211Y-98298778D01*
X116354126Y-98471013D01*
X116322863Y-98309877D01*
X116183073Y-98097073D01*
X115972040Y-97954623D01*
X115722400Y-97904560D01*
X114147600Y-97904560D01*
X113905477Y-97951537D01*
X113692673Y-98091327D01*
X113550223Y-98302360D01*
X113500160Y-98552000D01*
X113500160Y-100838000D01*
X113547137Y-101080123D01*
X113686927Y-101292927D01*
X113897960Y-101435377D01*
X114147600Y-101485440D01*
X114175000Y-101485440D01*
X114175000Y-101600000D01*
X114232852Y-101890839D01*
X114397599Y-102137401D01*
X115032599Y-102772401D01*
X115279161Y-102937148D01*
X115570000Y-102995000D01*
X121285000Y-102995000D01*
X121575839Y-102937148D01*
X121822401Y-102772401D01*
X123092401Y-101502401D01*
X123210953Y-101324974D01*
X123210954Y-101324973D01*
X123560789Y-101091222D01*
X123825000Y-100695801D01*
X124089211Y-101091222D01*
X124550671Y-101399559D01*
X125095000Y-101507833D01*
X125639329Y-101399559D01*
X126100789Y-101091222D01*
X126365000Y-100695801D01*
X126629211Y-101091222D01*
X127090671Y-101399559D01*
X127635000Y-101507833D01*
X128179329Y-101399559D01*
X128640789Y-101091222D01*
X128904753Y-100696170D01*
X128909475Y-100712262D01*
X129259014Y-101146191D01*
X129748004Y-101413327D01*
X129827940Y-101430010D01*
X130048000Y-101307852D01*
X130048000Y-102997000D01*
X114916579Y-102997000D01*
X113280000Y-101360420D01*
X113280000Y-99695005D01*
X113280000Y-99695000D01*
X113280001Y-99695000D01*
X113212633Y-99356325D01*
X113020790Y-99069210D01*
X113020786Y-99069207D01*
X112942050Y-98990470D01*
X112654935Y-98798627D01*
X112598744Y-98787449D01*
X112316260Y-98731259D01*
X112316254Y-98731260D01*
X110236000Y-98731260D01*
X110236000Y-94969910D01*
X110236000Y-94717291D01*
X110236000Y-94265750D01*
X110077250Y-94107000D01*
X108712000Y-94107000D01*
X108712000Y-95319850D01*
X108870750Y-95478600D01*
X109727309Y-95478600D01*
X109960698Y-95381927D01*
X110139327Y-95203299D01*
X110236000Y-94969910D01*
X110236000Y-98731260D01*
X108458000Y-98731260D01*
X108458000Y-95319850D01*
X108458000Y-94107000D01*
X107092750Y-94107000D01*
X106934000Y-94265750D01*
X106934000Y-94717291D01*
X106934000Y-94969910D01*
X107030673Y-95203299D01*
X107209302Y-95381927D01*
X107442691Y-95478600D01*
X108299250Y-95478600D01*
X108458000Y-95319850D01*
X108458000Y-98731260D01*
X106177847Y-98731260D01*
X106161462Y-98691605D01*
X105702073Y-98231414D01*
X105101547Y-97982054D01*
X104451306Y-97981486D01*
X103850345Y-98229798D01*
X103390154Y-98689187D01*
X103140794Y-99289713D01*
X103140226Y-99939954D01*
X103388538Y-100540915D01*
X103847927Y-101001106D01*
X104448453Y-101250466D01*
X105098694Y-101251034D01*
X105699655Y-101002722D01*
X106159846Y-100543333D01*
X106177316Y-100501260D01*
X111510000Y-100501260D01*
X111510000Y-101726994D01*
X111509999Y-101727000D01*
X111566189Y-102009484D01*
X111577367Y-102065675D01*
X111769210Y-102352790D01*
X112413420Y-102997000D01*
X101727000Y-102997000D01*
X101727000Y-93472000D01*
X106934000Y-93472000D01*
X106934000Y-93694250D01*
X107092750Y-93853000D01*
X108458000Y-93853000D01*
X108458000Y-93833000D01*
X108712000Y-93833000D01*
X108712000Y-93853000D01*
X110077250Y-93853000D01*
X110236000Y-93694250D01*
X110236000Y-93472000D01*
X110998000Y-93472000D01*
X110998000Y-94107000D01*
X137160000Y-94107000D01*
X137795000Y-94107000D01*
X171323000Y-94107000D01*
X171323000Y-116790000D01*
X171323000Y-116790000D01*
G37*
X171323000Y-116790000D02*
X168427400Y-116790000D01*
X168427400Y-107705433D01*
X168427400Y-106924567D01*
X168427400Y-100177600D01*
X168427400Y-99822000D01*
X168427400Y-99568000D01*
X168427400Y-99212400D01*
X168270525Y-98677738D01*
X167920986Y-98243809D01*
X167431996Y-97976673D01*
X167352060Y-97959990D01*
X167132000Y-98082148D01*
X167132000Y-99568000D01*
X168427400Y-99568000D01*
X168427400Y-99822000D01*
X167132000Y-99822000D01*
X167132000Y-101307852D01*
X167352060Y-101430010D01*
X167431996Y-101413327D01*
X167920986Y-101146191D01*
X168270525Y-100712262D01*
X168427400Y-100177600D01*
X168427400Y-106924567D01*
X168319126Y-106380238D01*
X168010789Y-105918778D01*
X167549329Y-105610441D01*
X167005000Y-105502167D01*
X166878000Y-105527428D01*
X166878000Y-101307852D01*
X166878000Y-99822000D01*
X166858000Y-99822000D01*
X166858000Y-99568000D01*
X166878000Y-99568000D01*
X166878000Y-98082148D01*
X166657940Y-97959990D01*
X166578004Y-97976673D01*
X166089014Y-98243809D01*
X165739475Y-98677738D01*
X165734753Y-98693829D01*
X165470789Y-98298778D01*
X165009329Y-97990441D01*
X164465000Y-97882167D01*
X163920671Y-97990441D01*
X163459211Y-98298778D01*
X163195000Y-98694198D01*
X162930789Y-98298778D01*
X162469329Y-97990441D01*
X161925000Y-97882167D01*
X161380671Y-97990441D01*
X160919211Y-98298778D01*
X160655000Y-98694198D01*
X160390789Y-98298778D01*
X159929329Y-97990441D01*
X159385000Y-97882167D01*
X158840671Y-97990441D01*
X158379211Y-98298778D01*
X158115000Y-98694198D01*
X157850789Y-98298778D01*
X157389329Y-97990441D01*
X156845000Y-97882167D01*
X156300671Y-97990441D01*
X155839211Y-98298778D01*
X155575000Y-98694198D01*
X155310789Y-98298778D01*
X154849329Y-97990441D01*
X154305000Y-97882167D01*
X153760671Y-97990441D01*
X153299211Y-98298778D01*
X153184126Y-98471013D01*
X153152863Y-98309877D01*
X153013073Y-98097073D01*
X152802040Y-97954623D01*
X152552400Y-97904560D01*
X150977600Y-97904560D01*
X150735477Y-97951537D01*
X150522673Y-98091327D01*
X150380223Y-98302360D01*
X150330160Y-98552000D01*
X150330160Y-100838000D01*
X150377137Y-101080123D01*
X150516927Y-101292927D01*
X150727960Y-101435377D01*
X150977600Y-101485440D01*
X152552400Y-101485440D01*
X152794523Y-101438463D01*
X153007327Y-101298673D01*
X153149777Y-101087640D01*
X153183720Y-100918378D01*
X153299211Y-101091222D01*
X153760671Y-101399559D01*
X154305000Y-101507833D01*
X154849329Y-101399559D01*
X155310789Y-101091222D01*
X155575000Y-100695801D01*
X155839211Y-101091222D01*
X156300671Y-101399559D01*
X156845000Y-101507833D01*
X157389329Y-101399559D01*
X157850789Y-101091222D01*
X158115000Y-100695801D01*
X158379211Y-101091222D01*
X158840671Y-101399559D01*
X159385000Y-101507833D01*
X159929329Y-101399559D01*
X160390789Y-101091222D01*
X160655000Y-100695801D01*
X160919211Y-101091222D01*
X161380671Y-101399559D01*
X161925000Y-101507833D01*
X162469329Y-101399559D01*
X162930789Y-101091222D01*
X163195000Y-100695801D01*
X163459211Y-101091222D01*
X163920671Y-101399559D01*
X164465000Y-101507833D01*
X165009329Y-101399559D01*
X165470789Y-101091222D01*
X165734753Y-100696170D01*
X165739475Y-100712262D01*
X166089014Y-101146191D01*
X166578004Y-101413327D01*
X166657940Y-101430010D01*
X166878000Y-101307852D01*
X166878000Y-105527428D01*
X166460671Y-105610441D01*
X165999211Y-105918778D01*
X165735000Y-106314198D01*
X165470789Y-105918778D01*
X165009329Y-105610441D01*
X164465000Y-105502167D01*
X163920671Y-105610441D01*
X163459211Y-105918778D01*
X163195000Y-106314198D01*
X162930789Y-105918778D01*
X162469329Y-105610441D01*
X161925000Y-105502167D01*
X161380671Y-105610441D01*
X160919211Y-105918778D01*
X160655000Y-106314198D01*
X160390789Y-105918778D01*
X159929329Y-105610441D01*
X159385000Y-105502167D01*
X158840671Y-105610441D01*
X158379211Y-105918778D01*
X158115000Y-106314198D01*
X157850789Y-105918778D01*
X157389329Y-105610441D01*
X156845000Y-105502167D01*
X156300671Y-105610441D01*
X155839211Y-105918778D01*
X155575000Y-106314198D01*
X155310789Y-105918778D01*
X154849329Y-105610441D01*
X154305000Y-105502167D01*
X153760671Y-105610441D01*
X153299211Y-105918778D01*
X153035000Y-106314198D01*
X152770789Y-105918778D01*
X152309329Y-105610441D01*
X151765000Y-105502167D01*
X151220671Y-105610441D01*
X150759211Y-105918778D01*
X150450874Y-106380238D01*
X150440975Y-106430000D01*
X147497440Y-106430000D01*
X147497440Y-106410000D01*
X147485000Y-106345883D01*
X147485000Y-104536309D01*
X147485000Y-103695750D01*
X147485000Y-103124250D01*
X147485000Y-102283691D01*
X147388327Y-102050302D01*
X147209699Y-101871673D01*
X146976310Y-101775000D01*
X146723691Y-101775000D01*
X146335750Y-101775000D01*
X146177000Y-101933750D01*
X146177000Y-103283000D01*
X147326250Y-103283000D01*
X147485000Y-103124250D01*
X147485000Y-103695750D01*
X147326250Y-103537000D01*
X146177000Y-103537000D01*
X146177000Y-104886250D01*
X146335750Y-105045000D01*
X146723691Y-105045000D01*
X146976310Y-105045000D01*
X147209699Y-104948327D01*
X147388327Y-104769698D01*
X147485000Y-104536309D01*
X147485000Y-106345883D01*
X147450463Y-106167877D01*
X147310673Y-105955073D01*
X147099640Y-105812623D01*
X146850000Y-105762560D01*
X145923000Y-105762560D01*
X145923000Y-104886250D01*
X145923000Y-103537000D01*
X145923000Y-103283000D01*
X145923000Y-101933750D01*
X145764250Y-101775000D01*
X145376309Y-101775000D01*
X145123690Y-101775000D01*
X144890301Y-101871673D01*
X144711673Y-102050302D01*
X144615000Y-102283691D01*
X144615000Y-103124250D01*
X144773750Y-103283000D01*
X145923000Y-103283000D01*
X145923000Y-103537000D01*
X144773750Y-103537000D01*
X144615000Y-103695750D01*
X144615000Y-104536309D01*
X144711673Y-104769698D01*
X144890301Y-104948327D01*
X145123690Y-105045000D01*
X145376309Y-105045000D01*
X145764250Y-105045000D01*
X145923000Y-104886250D01*
X145923000Y-105762560D01*
X145250000Y-105762560D01*
X145007877Y-105809537D01*
X144795073Y-105949327D01*
X144652623Y-106160360D01*
X144602560Y-106410000D01*
X144602560Y-106508740D01*
X143007847Y-106508740D01*
X142991462Y-106469085D01*
X142532073Y-106008894D01*
X141931547Y-105759534D01*
X141281306Y-105758966D01*
X140680345Y-106007278D01*
X140220154Y-106466667D01*
X139970794Y-107067193D01*
X139970226Y-107717434D01*
X140218538Y-108318395D01*
X140677927Y-108778586D01*
X141278453Y-109027946D01*
X141928694Y-109028514D01*
X142529655Y-108780202D01*
X142989846Y-108320813D01*
X143007316Y-108278740D01*
X144602560Y-108278740D01*
X144602560Y-108410000D01*
X144649537Y-108652123D01*
X144789327Y-108864927D01*
X145000360Y-109007377D01*
X145250000Y-109057440D01*
X146850000Y-109057440D01*
X147092123Y-109010463D01*
X147304927Y-108870673D01*
X147447377Y-108659640D01*
X147497440Y-108410000D01*
X147497440Y-108200000D01*
X150440975Y-108200000D01*
X150450874Y-108249762D01*
X150759211Y-108711222D01*
X151220671Y-109019559D01*
X151765000Y-109127833D01*
X152309329Y-109019559D01*
X152770789Y-108711222D01*
X153035000Y-108315801D01*
X153299211Y-108711222D01*
X153760671Y-109019559D01*
X154305000Y-109127833D01*
X154849329Y-109019559D01*
X155310789Y-108711222D01*
X155575000Y-108315801D01*
X155839211Y-108711222D01*
X156300671Y-109019559D01*
X156845000Y-109127833D01*
X157389329Y-109019559D01*
X157850789Y-108711222D01*
X158115000Y-108315801D01*
X158379211Y-108711222D01*
X158840671Y-109019559D01*
X159385000Y-109127833D01*
X159929329Y-109019559D01*
X160390789Y-108711222D01*
X160655000Y-108315801D01*
X160919211Y-108711222D01*
X161380671Y-109019559D01*
X161925000Y-109127833D01*
X162469329Y-109019559D01*
X162930789Y-108711222D01*
X163195000Y-108315801D01*
X163459211Y-108711222D01*
X163920671Y-109019559D01*
X164465000Y-109127833D01*
X165009329Y-109019559D01*
X165470789Y-108711222D01*
X165735000Y-108315801D01*
X165999211Y-108711222D01*
X166460671Y-109019559D01*
X167005000Y-109127833D01*
X167549329Y-109019559D01*
X168010789Y-108711222D01*
X168319126Y-108249762D01*
X168427400Y-107705433D01*
X168427400Y-116790000D01*
X163588440Y-116790000D01*
X163588440Y-115316000D01*
X163588440Y-113284000D01*
X163541463Y-113041877D01*
X163401673Y-112829073D01*
X163241956Y-112721262D01*
X163331385Y-112624818D01*
X163530975Y-112142944D01*
X163530975Y-111377056D01*
X163331385Y-110895182D01*
X162893379Y-110422812D01*
X162307946Y-110154017D01*
X162052000Y-110272633D01*
X162052000Y-111633000D01*
X163411836Y-111633000D01*
X163530975Y-111377056D01*
X163530975Y-112142944D01*
X163411836Y-111887000D01*
X162052000Y-111887000D01*
X162052000Y-111907000D01*
X161798000Y-111907000D01*
X161798000Y-111887000D01*
X161798000Y-111633000D01*
X161798000Y-110272633D01*
X161542054Y-110154017D01*
X160956621Y-110422812D01*
X160518615Y-110895182D01*
X160319025Y-111377056D01*
X160438164Y-111633000D01*
X161798000Y-111633000D01*
X161798000Y-111887000D01*
X160438164Y-111887000D01*
X160319025Y-112142944D01*
X160518615Y-112624818D01*
X160608574Y-112721835D01*
X160454073Y-112823327D01*
X160311623Y-113034360D01*
X160261560Y-113284000D01*
X160261560Y-115316000D01*
X160308537Y-115558123D01*
X160448327Y-115770927D01*
X160659360Y-115913377D01*
X160909000Y-115963440D01*
X162941000Y-115963440D01*
X163183123Y-115916463D01*
X163395927Y-115776673D01*
X163538377Y-115565640D01*
X163588440Y-115316000D01*
X163588440Y-116790000D01*
X149618440Y-116790000D01*
X149618440Y-112776000D01*
X149618440Y-110744000D01*
X149571463Y-110501877D01*
X149431673Y-110289073D01*
X149220640Y-110146623D01*
X148971000Y-110096560D01*
X146939000Y-110096560D01*
X146696877Y-110143537D01*
X146484073Y-110283327D01*
X146341623Y-110494360D01*
X146291560Y-110744000D01*
X146291560Y-112776000D01*
X146338537Y-113018123D01*
X146478327Y-113230927D01*
X146638043Y-113338737D01*
X146548615Y-113435182D01*
X146349025Y-113917056D01*
X146468164Y-114173000D01*
X147828000Y-114173000D01*
X147828000Y-114153000D01*
X148082000Y-114153000D01*
X148082000Y-114173000D01*
X149441836Y-114173000D01*
X149560975Y-113917056D01*
X149361385Y-113435182D01*
X149271425Y-113338164D01*
X149425927Y-113236673D01*
X149568377Y-113025640D01*
X149618440Y-112776000D01*
X149618440Y-116790000D01*
X149560975Y-116790000D01*
X149560975Y-114682944D01*
X149441836Y-114427000D01*
X148082000Y-114427000D01*
X148082000Y-115787367D01*
X148337946Y-115905983D01*
X148923379Y-115637188D01*
X149361385Y-115164818D01*
X149560975Y-114682944D01*
X149560975Y-116790000D01*
X147828000Y-116790000D01*
X147828000Y-115787367D01*
X147828000Y-114427000D01*
X146468164Y-114427000D01*
X146349025Y-114682944D01*
X146548615Y-115164818D01*
X146986621Y-115637188D01*
X147572054Y-115905983D01*
X147828000Y-115787367D01*
X147828000Y-116790000D01*
X137922000Y-116790000D01*
X137922000Y-105152000D01*
X139318994Y-105152000D01*
X139319000Y-105152001D01*
X139319000Y-105152000D01*
X139601484Y-105095810D01*
X139657674Y-105084633D01*
X139657675Y-105084633D01*
X139944790Y-104892790D01*
X142230786Y-102606792D01*
X142230789Y-102606790D01*
X142230790Y-102606790D01*
X142422633Y-102319675D01*
X142490000Y-101981000D01*
X142490001Y-101981000D01*
X142490000Y-101980994D01*
X142490000Y-98636587D01*
X142529655Y-98620202D01*
X142989846Y-98160813D01*
X143239206Y-97560287D01*
X143239774Y-96910046D01*
X142991462Y-96309085D01*
X142532073Y-95848894D01*
X141931547Y-95599534D01*
X141281306Y-95598966D01*
X140680345Y-95847278D01*
X140220154Y-96306667D01*
X139970794Y-96907193D01*
X139970226Y-97557434D01*
X140218538Y-98158395D01*
X140677927Y-98618586D01*
X140720000Y-98636056D01*
X140720000Y-101614420D01*
X138952420Y-103382000D01*
X137922000Y-103382000D01*
X137922000Y-98933000D01*
X137033000Y-98933000D01*
X137033000Y-103382000D01*
X136669729Y-103382000D01*
X136661026Y-103368974D01*
X136249008Y-103093673D01*
X135763000Y-102997000D01*
X131597400Y-102997000D01*
X131597400Y-100177600D01*
X131597400Y-99822000D01*
X131597400Y-99568000D01*
X131597400Y-99212400D01*
X131440525Y-98677738D01*
X131090986Y-98243809D01*
X130601996Y-97976673D01*
X130522060Y-97959990D01*
X130302000Y-98082148D01*
X130302000Y-99568000D01*
X131597400Y-99568000D01*
X131597400Y-99822000D01*
X130302000Y-99822000D01*
X130302000Y-101307852D01*
X130522060Y-101430010D01*
X130601996Y-101413327D01*
X131090986Y-101146191D01*
X131440525Y-100712262D01*
X131597400Y-100177600D01*
X131597400Y-102997000D01*
X130048000Y-102997000D01*
X130048000Y-101307852D01*
X130048000Y-99822000D01*
X130028000Y-99822000D01*
X130028000Y-99568000D01*
X130048000Y-99568000D01*
X130048000Y-98082148D01*
X129827940Y-97959990D01*
X129748004Y-97976673D01*
X129259014Y-98243809D01*
X128909475Y-98677738D01*
X128904753Y-98693829D01*
X128640789Y-98298778D01*
X128179329Y-97990441D01*
X127635000Y-97882167D01*
X127090671Y-97990441D01*
X126629211Y-98298778D01*
X126364999Y-98694198D01*
X126100789Y-98298778D01*
X125639329Y-97990441D01*
X125095000Y-97882167D01*
X124550671Y-97990441D01*
X124089211Y-98298778D01*
X123824999Y-98694198D01*
X123560789Y-98298778D01*
X123099329Y-97990441D01*
X122555000Y-97882167D01*
X122010671Y-97990441D01*
X121549211Y-98298778D01*
X121284999Y-98694198D01*
X121020789Y-98298778D01*
X120559329Y-97990441D01*
X120015000Y-97882167D01*
X119470671Y-97990441D01*
X119009211Y-98298778D01*
X118744999Y-98694198D01*
X118480789Y-98298778D01*
X118019329Y-97990441D01*
X117475000Y-97882167D01*
X116930671Y-97990441D01*
X116469211Y-98298778D01*
X116354126Y-98471013D01*
X116322863Y-98309877D01*
X116183073Y-98097073D01*
X115972040Y-97954623D01*
X115722400Y-97904560D01*
X114147600Y-97904560D01*
X113905477Y-97951537D01*
X113692673Y-98091327D01*
X113550223Y-98302360D01*
X113500160Y-98552000D01*
X113500160Y-100838000D01*
X113547137Y-101080123D01*
X113686927Y-101292927D01*
X113897960Y-101435377D01*
X114147600Y-101485440D01*
X114175000Y-101485440D01*
X114175000Y-101600000D01*
X114232852Y-101890839D01*
X114397599Y-102137401D01*
X115032599Y-102772401D01*
X115279161Y-102937148D01*
X115570000Y-102995000D01*
X121285000Y-102995000D01*
X121575839Y-102937148D01*
X121822401Y-102772401D01*
X123092401Y-101502401D01*
X123210953Y-101324974D01*
X123210954Y-101324973D01*
X123560789Y-101091222D01*
X123825000Y-100695801D01*
X124089211Y-101091222D01*
X124550671Y-101399559D01*
X125095000Y-101507833D01*
X125639329Y-101399559D01*
X126100789Y-101091222D01*
X126365000Y-100695801D01*
X126629211Y-101091222D01*
X127090671Y-101399559D01*
X127635000Y-101507833D01*
X128179329Y-101399559D01*
X128640789Y-101091222D01*
X128904753Y-100696170D01*
X128909475Y-100712262D01*
X129259014Y-101146191D01*
X129748004Y-101413327D01*
X129827940Y-101430010D01*
X130048000Y-101307852D01*
X130048000Y-102997000D01*
X114916579Y-102997000D01*
X113280000Y-101360420D01*
X113280000Y-99695005D01*
X113280000Y-99695000D01*
X113280001Y-99695000D01*
X113212633Y-99356325D01*
X113020790Y-99069210D01*
X113020786Y-99069207D01*
X112942050Y-98990470D01*
X112654935Y-98798627D01*
X112598744Y-98787449D01*
X112316260Y-98731259D01*
X112316254Y-98731260D01*
X110236000Y-98731260D01*
X110236000Y-94969910D01*
X110236000Y-94717291D01*
X110236000Y-94265750D01*
X110077250Y-94107000D01*
X108712000Y-94107000D01*
X108712000Y-95319850D01*
X108870750Y-95478600D01*
X109727309Y-95478600D01*
X109960698Y-95381927D01*
X110139327Y-95203299D01*
X110236000Y-94969910D01*
X110236000Y-98731260D01*
X108458000Y-98731260D01*
X108458000Y-95319850D01*
X108458000Y-94107000D01*
X107092750Y-94107000D01*
X106934000Y-94265750D01*
X106934000Y-94717291D01*
X106934000Y-94969910D01*
X107030673Y-95203299D01*
X107209302Y-95381927D01*
X107442691Y-95478600D01*
X108299250Y-95478600D01*
X108458000Y-95319850D01*
X108458000Y-98731260D01*
X106177847Y-98731260D01*
X106161462Y-98691605D01*
X105702073Y-98231414D01*
X105101547Y-97982054D01*
X104451306Y-97981486D01*
X103850345Y-98229798D01*
X103390154Y-98689187D01*
X103140794Y-99289713D01*
X103140226Y-99939954D01*
X103388538Y-100540915D01*
X103847927Y-101001106D01*
X104448453Y-101250466D01*
X105098694Y-101251034D01*
X105699655Y-101002722D01*
X106159846Y-100543333D01*
X106177316Y-100501260D01*
X111510000Y-100501260D01*
X111510000Y-101726994D01*
X111509999Y-101727000D01*
X111566189Y-102009484D01*
X111577367Y-102065675D01*
X111769210Y-102352790D01*
X112413420Y-102997000D01*
X101727000Y-102997000D01*
X101727000Y-93472000D01*
X106934000Y-93472000D01*
X106934000Y-93694250D01*
X107092750Y-93853000D01*
X108458000Y-93853000D01*
X108458000Y-93833000D01*
X108712000Y-93833000D01*
X108712000Y-93853000D01*
X110077250Y-93853000D01*
X110236000Y-93694250D01*
X110236000Y-93472000D01*
X110998000Y-93472000D01*
X110998000Y-94107000D01*
X137160000Y-94107000D01*
X137795000Y-94107000D01*
X171323000Y-94107000D01*
X171323000Y-116790000D01*
G36*
X128143000Y-93218000D02*
X119507000Y-93218000D01*
X119507000Y-86868000D01*
X110125541Y-86868000D01*
X110189709Y-86734791D01*
X110192358Y-86719026D01*
X110071217Y-86487000D01*
X108712000Y-86487000D01*
X108712000Y-86507000D01*
X108458000Y-86507000D01*
X108458000Y-86487000D01*
X107098783Y-86487000D01*
X106977642Y-86719026D01*
X106980291Y-86734791D01*
X107044458Y-86868000D01*
X101727000Y-86868000D01*
X101727000Y-82677000D01*
X107315000Y-82677000D01*
X107465297Y-82677000D01*
X107340585Y-82760330D01*
X107015729Y-83246511D01*
X106901655Y-83820000D01*
X107015729Y-84393489D01*
X107340585Y-84879670D01*
X107650069Y-85086460D01*
X107234268Y-85457964D01*
X106980291Y-85985209D01*
X106977642Y-86000974D01*
X107098783Y-86233000D01*
X108458000Y-86233000D01*
X108458000Y-86213000D01*
X108712000Y-86213000D01*
X108712000Y-86233000D01*
X110071217Y-86233000D01*
X110192358Y-86000974D01*
X110189709Y-85985209D01*
X109935732Y-85457964D01*
X109519930Y-85086460D01*
X109829415Y-84879670D01*
X110154271Y-84393489D01*
X110268345Y-83820000D01*
X110154271Y-83246511D01*
X109829415Y-82760330D01*
X109704702Y-82677000D01*
X128143000Y-82677000D01*
X128143000Y-93218000D01*
X128143000Y-93218000D01*
G37*
X128143000Y-93218000D02*
X119507000Y-93218000D01*
X119507000Y-86868000D01*
X110125541Y-86868000D01*
X110189709Y-86734791D01*
X110192358Y-86719026D01*
X110071217Y-86487000D01*
X108712000Y-86487000D01*
X108712000Y-86507000D01*
X108458000Y-86507000D01*
X108458000Y-86487000D01*
X107098783Y-86487000D01*
X106977642Y-86719026D01*
X106980291Y-86734791D01*
X107044458Y-86868000D01*
X101727000Y-86868000D01*
X101727000Y-82677000D01*
X107315000Y-82677000D01*
X107465297Y-82677000D01*
X107340585Y-82760330D01*
X107015729Y-83246511D01*
X106901655Y-83820000D01*
X107015729Y-84393489D01*
X107340585Y-84879670D01*
X107650069Y-85086460D01*
X107234268Y-85457964D01*
X106980291Y-85985209D01*
X106977642Y-86000974D01*
X107098783Y-86233000D01*
X108458000Y-86233000D01*
X108458000Y-86213000D01*
X108712000Y-86213000D01*
X108712000Y-86233000D01*
X110071217Y-86233000D01*
X110192358Y-86000974D01*
X110189709Y-85985209D01*
X109935732Y-85457964D01*
X109519930Y-85086460D01*
X109829415Y-84879670D01*
X110154271Y-84393489D01*
X110268345Y-83820000D01*
X110154271Y-83246511D01*
X109829415Y-82760330D01*
X109704702Y-82677000D01*
X128143000Y-82677000D01*
X128143000Y-93218000D01*
G36*
X126278427Y-69342000D02*
X125606074Y-69977000D01*
X115062000Y-69977000D01*
X115062000Y-69342000D01*
X126278427Y-69342000D01*
X126278427Y-69342000D01*
G37*
X126278427Y-69342000D02*
X125606074Y-69977000D01*
X115062000Y-69977000D01*
X115062000Y-69342000D01*
X126278427Y-69342000D01*
G36*
X128143000Y-79883000D02*
X126065983Y-79883000D01*
X126065983Y-74042946D01*
X125947367Y-73787000D01*
X124587000Y-73787000D01*
X124587000Y-75146836D01*
X124842944Y-75265975D01*
X125324818Y-75066385D01*
X125797188Y-74628379D01*
X126065983Y-74042946D01*
X126065983Y-79883000D01*
X115062000Y-79883000D01*
X115062000Y-72517000D01*
X120282028Y-72517000D01*
X120256560Y-72644000D01*
X120256560Y-74676000D01*
X120303537Y-74918123D01*
X120443327Y-75130927D01*
X120654360Y-75273377D01*
X120904000Y-75323440D01*
X122936000Y-75323440D01*
X123178123Y-75276463D01*
X123390927Y-75136673D01*
X123498737Y-74976956D01*
X123595182Y-75066385D01*
X124077056Y-75265975D01*
X124333000Y-75146836D01*
X124333000Y-73787000D01*
X124313000Y-73787000D01*
X124313000Y-73533000D01*
X124333000Y-73533000D01*
X124333000Y-73513000D01*
X124587000Y-73513000D01*
X124587000Y-73533000D01*
X125947367Y-73533000D01*
X126065983Y-73277054D01*
X125797188Y-72691621D01*
X125608867Y-72517000D01*
X126111000Y-72517000D01*
X126336547Y-72472135D01*
X126563300Y-72433729D01*
X126578921Y-72423924D01*
X126597008Y-72420327D01*
X126788221Y-72292562D01*
X126983012Y-72170307D01*
X128143000Y-71074762D01*
X128143000Y-79883000D01*
X128143000Y-79883000D01*
G37*
X128143000Y-79883000D02*
X126065983Y-79883000D01*
X126065983Y-74042946D01*
X125947367Y-73787000D01*
X124587000Y-73787000D01*
X124587000Y-75146836D01*
X124842944Y-75265975D01*
X125324818Y-75066385D01*
X125797188Y-74628379D01*
X126065983Y-74042946D01*
X126065983Y-79883000D01*
X115062000Y-79883000D01*
X115062000Y-72517000D01*
X120282028Y-72517000D01*
X120256560Y-72644000D01*
X120256560Y-74676000D01*
X120303537Y-74918123D01*
X120443327Y-75130927D01*
X120654360Y-75273377D01*
X120904000Y-75323440D01*
X122936000Y-75323440D01*
X123178123Y-75276463D01*
X123390927Y-75136673D01*
X123498737Y-74976956D01*
X123595182Y-75066385D01*
X124077056Y-75265975D01*
X124333000Y-75146836D01*
X124333000Y-73787000D01*
X124313000Y-73787000D01*
X124313000Y-73533000D01*
X124333000Y-73533000D01*
X124333000Y-73513000D01*
X124587000Y-73513000D01*
X124587000Y-73533000D01*
X125947367Y-73533000D01*
X126065983Y-73277054D01*
X125797188Y-72691621D01*
X125608867Y-72517000D01*
X126111000Y-72517000D01*
X126336547Y-72472135D01*
X126563300Y-72433729D01*
X126578921Y-72423924D01*
X126597008Y-72420327D01*
X126788221Y-72292562D01*
X126983012Y-72170307D01*
X128143000Y-71074762D01*
X128143000Y-79883000D01*
G36*
X95885000Y-78866994D02*
X95788327Y-78380992D01*
X95513026Y-77968975D01*
X95513026Y-77968974D01*
X95513022Y-77968971D01*
X92846026Y-75301974D01*
X92434008Y-75026673D01*
X91948000Y-74929999D01*
X91947994Y-74930000D01*
X91059000Y-74930000D01*
X86122382Y-74930000D01*
X86114127Y-74924483D01*
X86495024Y-74619989D01*
X86775649Y-74110810D01*
X86796540Y-74016832D01*
X86675214Y-73787000D01*
X85852000Y-73787000D01*
X85852000Y-73533000D01*
X86675214Y-73533000D01*
X86796540Y-73303168D01*
X86775649Y-73209190D01*
X86495024Y-72700011D01*
X86114127Y-72395516D01*
X86122382Y-72390000D01*
X91463297Y-72390000D01*
X91824766Y-72631526D01*
X92398255Y-72745600D01*
X92767745Y-72745600D01*
X93341234Y-72631526D01*
X93827415Y-72306670D01*
X94152271Y-71820489D01*
X94266345Y-71247000D01*
X94152271Y-70673511D01*
X93827415Y-70187330D01*
X93512634Y-69977000D01*
X94596948Y-69977000D01*
X95885000Y-71265052D01*
X95885000Y-78866994D01*
X95885000Y-78866994D01*
G37*
X95885000Y-78866994D02*
X95788327Y-78380992D01*
X95513026Y-77968975D01*
X95513026Y-77968974D01*
X95513022Y-77968971D01*
X92846026Y-75301974D01*
X92434008Y-75026673D01*
X91948000Y-74929999D01*
X91947994Y-74930000D01*
X91059000Y-74930000D01*
X86122382Y-74930000D01*
X86114127Y-74924483D01*
X86495024Y-74619989D01*
X86775649Y-74110810D01*
X86796540Y-74016832D01*
X86675214Y-73787000D01*
X85852000Y-73787000D01*
X85852000Y-73533000D01*
X86675214Y-73533000D01*
X86796540Y-73303168D01*
X86775649Y-73209190D01*
X86495024Y-72700011D01*
X86114127Y-72395516D01*
X86122382Y-72390000D01*
X91463297Y-72390000D01*
X91824766Y-72631526D01*
X92398255Y-72745600D01*
X92767745Y-72745600D01*
X93341234Y-72631526D01*
X93827415Y-72306670D01*
X94152271Y-71820489D01*
X94266345Y-71247000D01*
X94152271Y-70673511D01*
X93827415Y-70187330D01*
X93512634Y-69977000D01*
X94596948Y-69977000D01*
X95885000Y-71265052D01*
X95885000Y-78866994D01*
G36*
X100838000Y-60833000D02*
X99695005Y-60833000D01*
X99695000Y-60832999D01*
X99208992Y-60929673D01*
X98796974Y-61204974D01*
X96764974Y-63236974D01*
X96489673Y-63648992D01*
X96392999Y-64135000D01*
X96393000Y-64135005D01*
X96393000Y-65640948D01*
X94596948Y-67437000D01*
X94090561Y-67437000D01*
X94196377Y-67280240D01*
X94246440Y-67030600D01*
X94246440Y-65303400D01*
X94199463Y-65061277D01*
X94188975Y-65045310D01*
X94188975Y-58929944D01*
X94069836Y-58674000D01*
X92710000Y-58674000D01*
X92710000Y-60034367D01*
X92965946Y-60152983D01*
X93551379Y-59884188D01*
X93989385Y-59411818D01*
X94188975Y-58929944D01*
X94188975Y-65045310D01*
X94059673Y-64848473D01*
X93848640Y-64706023D01*
X93599000Y-64655960D01*
X92456000Y-64655960D01*
X92456000Y-60034367D01*
X92456000Y-58674000D01*
X91096164Y-58674000D01*
X90977025Y-58929944D01*
X91176615Y-59411818D01*
X91614621Y-59884188D01*
X92200054Y-60152983D01*
X92456000Y-60034367D01*
X92456000Y-64655960D01*
X91567000Y-64655960D01*
X91324877Y-64702937D01*
X91112073Y-64842727D01*
X91076088Y-64896036D01*
X90805000Y-64624948D01*
X90805000Y-57277000D01*
X90974338Y-57277000D01*
X91106327Y-57477927D01*
X91266043Y-57585737D01*
X91176615Y-57682182D01*
X90977025Y-58164056D01*
X91096164Y-58420000D01*
X92456000Y-58420000D01*
X92456000Y-58400000D01*
X92710000Y-58400000D01*
X92710000Y-58420000D01*
X94069836Y-58420000D01*
X94188975Y-58164056D01*
X93989385Y-57682182D01*
X93899425Y-57585164D01*
X94053927Y-57483673D01*
X94196377Y-57272640D01*
X94246440Y-57023000D01*
X94246440Y-54991000D01*
X94199463Y-54748877D01*
X94059673Y-54536073D01*
X93848640Y-54393623D01*
X93599000Y-54343560D01*
X91567000Y-54343560D01*
X91324877Y-54390537D01*
X91112073Y-54530327D01*
X90972566Y-54737000D01*
X90043000Y-54737000D01*
X89556992Y-54833673D01*
X89144974Y-55108974D01*
X89144971Y-55108977D01*
X88636974Y-55616974D01*
X88361673Y-56028992D01*
X88264999Y-56515000D01*
X88265000Y-56515005D01*
X88265000Y-65150994D01*
X88264999Y-65151000D01*
X88361673Y-65637008D01*
X88636974Y-66049026D01*
X89652974Y-67065026D01*
X90064992Y-67340327D01*
X90551000Y-67437001D01*
X90551000Y-67437000D01*
X90551005Y-67437000D01*
X91074449Y-67437000D01*
X91106327Y-67485527D01*
X91317360Y-67627977D01*
X91355962Y-67635718D01*
X91338585Y-67647330D01*
X91013729Y-68133511D01*
X90899655Y-68707000D01*
X91013729Y-69280489D01*
X91338585Y-69766670D01*
X91463297Y-69850000D01*
X86122382Y-69850000D01*
X85970299Y-69748381D01*
X85852000Y-69724849D01*
X85852000Y-53390000D01*
X100838000Y-53390000D01*
X100838000Y-60833000D01*
X100838000Y-60833000D01*
G37*
X100838000Y-60833000D02*
X99695005Y-60833000D01*
X99695000Y-60832999D01*
X99208992Y-60929673D01*
X98796974Y-61204974D01*
X96764974Y-63236974D01*
X96489673Y-63648992D01*
X96392999Y-64135000D01*
X96393000Y-64135005D01*
X96393000Y-65640948D01*
X94596948Y-67437000D01*
X94090561Y-67437000D01*
X94196377Y-67280240D01*
X94246440Y-67030600D01*
X94246440Y-65303400D01*
X94199463Y-65061277D01*
X94188975Y-65045310D01*
X94188975Y-58929944D01*
X94069836Y-58674000D01*
X92710000Y-58674000D01*
X92710000Y-60034367D01*
X92965946Y-60152983D01*
X93551379Y-59884188D01*
X93989385Y-59411818D01*
X94188975Y-58929944D01*
X94188975Y-65045310D01*
X94059673Y-64848473D01*
X93848640Y-64706023D01*
X93599000Y-64655960D01*
X92456000Y-64655960D01*
X92456000Y-60034367D01*
X92456000Y-58674000D01*
X91096164Y-58674000D01*
X90977025Y-58929944D01*
X91176615Y-59411818D01*
X91614621Y-59884188D01*
X92200054Y-60152983D01*
X92456000Y-60034367D01*
X92456000Y-64655960D01*
X91567000Y-64655960D01*
X91324877Y-64702937D01*
X91112073Y-64842727D01*
X91076088Y-64896036D01*
X90805000Y-64624948D01*
X90805000Y-57277000D01*
X90974338Y-57277000D01*
X91106327Y-57477927D01*
X91266043Y-57585737D01*
X91176615Y-57682182D01*
X90977025Y-58164056D01*
X91096164Y-58420000D01*
X92456000Y-58420000D01*
X92456000Y-58400000D01*
X92710000Y-58400000D01*
X92710000Y-58420000D01*
X94069836Y-58420000D01*
X94188975Y-58164056D01*
X93989385Y-57682182D01*
X93899425Y-57585164D01*
X94053927Y-57483673D01*
X94196377Y-57272640D01*
X94246440Y-57023000D01*
X94246440Y-54991000D01*
X94199463Y-54748877D01*
X94059673Y-54536073D01*
X93848640Y-54393623D01*
X93599000Y-54343560D01*
X91567000Y-54343560D01*
X91324877Y-54390537D01*
X91112073Y-54530327D01*
X90972566Y-54737000D01*
X90043000Y-54737000D01*
X89556992Y-54833673D01*
X89144974Y-55108974D01*
X89144971Y-55108977D01*
X88636974Y-55616974D01*
X88361673Y-56028992D01*
X88264999Y-56515000D01*
X88265000Y-56515005D01*
X88265000Y-65150994D01*
X88264999Y-65151000D01*
X88361673Y-65637008D01*
X88636974Y-66049026D01*
X89652974Y-67065026D01*
X90064992Y-67340327D01*
X90551000Y-67437001D01*
X90551000Y-67437000D01*
X90551005Y-67437000D01*
X91074449Y-67437000D01*
X91106327Y-67485527D01*
X91317360Y-67627977D01*
X91355962Y-67635718D01*
X91338585Y-67647330D01*
X91013729Y-68133511D01*
X90899655Y-68707000D01*
X91013729Y-69280489D01*
X91338585Y-69766670D01*
X91463297Y-69850000D01*
X86122382Y-69850000D01*
X85970299Y-69748381D01*
X85852000Y-69724849D01*
X85852000Y-53390000D01*
X100838000Y-53390000D01*
X100838000Y-60833000D01*
G36*
X100838000Y-69069948D02*
X99577026Y-67808974D01*
X99165008Y-67533673D01*
X98679000Y-67436999D01*
X98678994Y-67437000D01*
X98189051Y-67437000D01*
X98561022Y-67065028D01*
X98561025Y-67065026D01*
X98561026Y-67065026D01*
X98836327Y-66653008D01*
X98933000Y-66167000D01*
X98933000Y-64661052D01*
X100221052Y-63373000D01*
X100838000Y-63373000D01*
X100838000Y-69069948D01*
X100838000Y-69069948D01*
G37*
X100838000Y-69069948D02*
X99577026Y-67808974D01*
X99165008Y-67533673D01*
X98679000Y-67436999D01*
X98678994Y-67437000D01*
X98189051Y-67437000D01*
X98561022Y-67065028D01*
X98561025Y-67065026D01*
X98561026Y-67065026D01*
X98836327Y-66653008D01*
X98933000Y-66167000D01*
X98933000Y-64661052D01*
X100221052Y-63373000D01*
X100838000Y-63373000D01*
X100838000Y-69069948D01*
G36*
X100838000Y-116790000D02*
X95912622Y-116790000D01*
X95912622Y-115175922D01*
X95883083Y-114665572D01*
X95744611Y-114331271D01*
X95514016Y-114275590D01*
X95334410Y-114455195D01*
X95334410Y-114095984D01*
X95278729Y-113865389D01*
X94795922Y-113697378D01*
X94285572Y-113726917D01*
X93951271Y-113865389D01*
X93895590Y-114095984D01*
X94615000Y-114815395D01*
X95334410Y-114095984D01*
X95334410Y-114455195D01*
X94794605Y-114995000D01*
X95514016Y-115714410D01*
X95744611Y-115658729D01*
X95912622Y-115175922D01*
X95912622Y-116790000D01*
X95334410Y-116790000D01*
X95334410Y-115894016D01*
X94615000Y-115174605D01*
X94435395Y-115354210D01*
X94435395Y-114995000D01*
X93715984Y-114275590D01*
X93485389Y-114331271D01*
X93317378Y-114814078D01*
X93346917Y-115324428D01*
X93485389Y-115658729D01*
X93715984Y-115714410D01*
X94435395Y-114995000D01*
X94435395Y-115354210D01*
X93895590Y-115894016D01*
X93951271Y-116124611D01*
X94434078Y-116292622D01*
X94944428Y-116263083D01*
X95278729Y-116124611D01*
X95334410Y-115894016D01*
X95334410Y-116790000D01*
X92494000Y-116790000D01*
X92494000Y-84533309D01*
X92494000Y-83692750D01*
X92494000Y-83121250D01*
X92494000Y-82280691D01*
X92397327Y-82047302D01*
X92218699Y-81868673D01*
X91985310Y-81772000D01*
X91732691Y-81772000D01*
X91344750Y-81772000D01*
X91186000Y-81930750D01*
X91186000Y-83280000D01*
X92335250Y-83280000D01*
X92494000Y-83121250D01*
X92494000Y-83692750D01*
X92335250Y-83534000D01*
X91186000Y-83534000D01*
X91186000Y-84883250D01*
X91344750Y-85042000D01*
X91732691Y-85042000D01*
X91985310Y-85042000D01*
X92218699Y-84945327D01*
X92397327Y-84766698D01*
X92494000Y-84533309D01*
X92494000Y-116790000D01*
X90932000Y-116790000D01*
X90932000Y-84883250D01*
X90932000Y-83534000D01*
X90932000Y-83280000D01*
X90932000Y-81930750D01*
X90773250Y-81772000D01*
X90385309Y-81772000D01*
X90132690Y-81772000D01*
X89899301Y-81868673D01*
X89720673Y-82047302D01*
X89624000Y-82280691D01*
X89624000Y-83121250D01*
X89782750Y-83280000D01*
X90932000Y-83280000D01*
X90932000Y-83534000D01*
X89782750Y-83534000D01*
X89624000Y-83692750D01*
X89624000Y-84533309D01*
X89720673Y-84766698D01*
X89899301Y-84945327D01*
X90132690Y-85042000D01*
X90385309Y-85042000D01*
X90773250Y-85042000D01*
X90932000Y-84883250D01*
X90932000Y-116790000D01*
X87022622Y-116790000D01*
X87022622Y-115175922D01*
X86993083Y-114665572D01*
X86854611Y-114331271D01*
X86624016Y-114275590D01*
X86444410Y-114455195D01*
X86444410Y-114095984D01*
X86388729Y-113865389D01*
X85905922Y-113697378D01*
X85395572Y-113726917D01*
X85061271Y-113865389D01*
X85005590Y-114095984D01*
X85725000Y-114815395D01*
X86444410Y-114095984D01*
X86444410Y-114455195D01*
X85904605Y-114995000D01*
X86624016Y-115714410D01*
X86854611Y-115658729D01*
X87022622Y-115175922D01*
X87022622Y-116790000D01*
X86444410Y-116790000D01*
X86444410Y-115894016D01*
X85725000Y-115174605D01*
X85545395Y-115354210D01*
X85545395Y-114995000D01*
X84825984Y-114275590D01*
X84595389Y-114331271D01*
X84427378Y-114814078D01*
X84456917Y-115324428D01*
X84595389Y-115658729D01*
X84825984Y-115714410D01*
X85545395Y-114995000D01*
X85545395Y-115354210D01*
X85005590Y-115894016D01*
X85061271Y-116124611D01*
X85544078Y-116292622D01*
X86054428Y-116263083D01*
X86388729Y-116124611D01*
X86444410Y-115894016D01*
X86444410Y-116790000D01*
X82042000Y-116790000D01*
X82042000Y-86487000D01*
X84427560Y-86487000D01*
X84427560Y-87645000D01*
X84474537Y-87887123D01*
X84614327Y-88099927D01*
X84825360Y-88242377D01*
X85075000Y-88292440D01*
X86375000Y-88292440D01*
X86617123Y-88245463D01*
X86829927Y-88105673D01*
X86972377Y-87894640D01*
X87022440Y-87645000D01*
X87022440Y-86345000D01*
X86975463Y-86102877D01*
X86835673Y-85890073D01*
X86624640Y-85747623D01*
X86375000Y-85697560D01*
X85852000Y-85697560D01*
X85852000Y-77595150D01*
X85970299Y-77571619D01*
X86122382Y-77470000D01*
X90174000Y-77470000D01*
X90174000Y-77776051D01*
X90016877Y-77806537D01*
X89804073Y-77946327D01*
X89661623Y-78157360D01*
X89611560Y-78407000D01*
X89611560Y-80407000D01*
X89658537Y-80649123D01*
X89798327Y-80861927D01*
X90009360Y-81004377D01*
X90259000Y-81054440D01*
X91859000Y-81054440D01*
X92101123Y-81007463D01*
X92313927Y-80867673D01*
X92456377Y-80656640D01*
X92506440Y-80407000D01*
X92506440Y-78554491D01*
X93345000Y-79393051D01*
X93345000Y-86208169D01*
X93317560Y-86345000D01*
X93317560Y-87645000D01*
X93364537Y-87887123D01*
X93504327Y-88099927D01*
X93715360Y-88242377D01*
X93965000Y-88292440D01*
X95265000Y-88292440D01*
X95507123Y-88245463D01*
X95719927Y-88105673D01*
X95862377Y-87894640D01*
X95885000Y-87781830D01*
X95885000Y-102234994D01*
X95884999Y-102235000D01*
X95981673Y-102721008D01*
X96256974Y-103133026D01*
X98288974Y-105165026D01*
X98700992Y-105440327D01*
X99187000Y-105537001D01*
X99187000Y-105537000D01*
X99187005Y-105537000D01*
X100838000Y-105537000D01*
X100838000Y-116790000D01*
X100838000Y-116790000D01*
G37*
X100838000Y-116790000D02*
X95912622Y-116790000D01*
X95912622Y-115175922D01*
X95883083Y-114665572D01*
X95744611Y-114331271D01*
X95514016Y-114275590D01*
X95334410Y-114455195D01*
X95334410Y-114095984D01*
X95278729Y-113865389D01*
X94795922Y-113697378D01*
X94285572Y-113726917D01*
X93951271Y-113865389D01*
X93895590Y-114095984D01*
X94615000Y-114815395D01*
X95334410Y-114095984D01*
X95334410Y-114455195D01*
X94794605Y-114995000D01*
X95514016Y-115714410D01*
X95744611Y-115658729D01*
X95912622Y-115175922D01*
X95912622Y-116790000D01*
X95334410Y-116790000D01*
X95334410Y-115894016D01*
X94615000Y-115174605D01*
X94435395Y-115354210D01*
X94435395Y-114995000D01*
X93715984Y-114275590D01*
X93485389Y-114331271D01*
X93317378Y-114814078D01*
X93346917Y-115324428D01*
X93485389Y-115658729D01*
X93715984Y-115714410D01*
X94435395Y-114995000D01*
X94435395Y-115354210D01*
X93895590Y-115894016D01*
X93951271Y-116124611D01*
X94434078Y-116292622D01*
X94944428Y-116263083D01*
X95278729Y-116124611D01*
X95334410Y-115894016D01*
X95334410Y-116790000D01*
X92494000Y-116790000D01*
X92494000Y-84533309D01*
X92494000Y-83692750D01*
X92494000Y-83121250D01*
X92494000Y-82280691D01*
X92397327Y-82047302D01*
X92218699Y-81868673D01*
X91985310Y-81772000D01*
X91732691Y-81772000D01*
X91344750Y-81772000D01*
X91186000Y-81930750D01*
X91186000Y-83280000D01*
X92335250Y-83280000D01*
X92494000Y-83121250D01*
X92494000Y-83692750D01*
X92335250Y-83534000D01*
X91186000Y-83534000D01*
X91186000Y-84883250D01*
X91344750Y-85042000D01*
X91732691Y-85042000D01*
X91985310Y-85042000D01*
X92218699Y-84945327D01*
X92397327Y-84766698D01*
X92494000Y-84533309D01*
X92494000Y-116790000D01*
X90932000Y-116790000D01*
X90932000Y-84883250D01*
X90932000Y-83534000D01*
X90932000Y-83280000D01*
X90932000Y-81930750D01*
X90773250Y-81772000D01*
X90385309Y-81772000D01*
X90132690Y-81772000D01*
X89899301Y-81868673D01*
X89720673Y-82047302D01*
X89624000Y-82280691D01*
X89624000Y-83121250D01*
X89782750Y-83280000D01*
X90932000Y-83280000D01*
X90932000Y-83534000D01*
X89782750Y-83534000D01*
X89624000Y-83692750D01*
X89624000Y-84533309D01*
X89720673Y-84766698D01*
X89899301Y-84945327D01*
X90132690Y-85042000D01*
X90385309Y-85042000D01*
X90773250Y-85042000D01*
X90932000Y-84883250D01*
X90932000Y-116790000D01*
X87022622Y-116790000D01*
X87022622Y-115175922D01*
X86993083Y-114665572D01*
X86854611Y-114331271D01*
X86624016Y-114275590D01*
X86444410Y-114455195D01*
X86444410Y-114095984D01*
X86388729Y-113865389D01*
X85905922Y-113697378D01*
X85395572Y-113726917D01*
X85061271Y-113865389D01*
X85005590Y-114095984D01*
X85725000Y-114815395D01*
X86444410Y-114095984D01*
X86444410Y-114455195D01*
X85904605Y-114995000D01*
X86624016Y-115714410D01*
X86854611Y-115658729D01*
X87022622Y-115175922D01*
X87022622Y-116790000D01*
X86444410Y-116790000D01*
X86444410Y-115894016D01*
X85725000Y-115174605D01*
X85545395Y-115354210D01*
X85545395Y-114995000D01*
X84825984Y-114275590D01*
X84595389Y-114331271D01*
X84427378Y-114814078D01*
X84456917Y-115324428D01*
X84595389Y-115658729D01*
X84825984Y-115714410D01*
X85545395Y-114995000D01*
X85545395Y-115354210D01*
X85005590Y-115894016D01*
X85061271Y-116124611D01*
X85544078Y-116292622D01*
X86054428Y-116263083D01*
X86388729Y-116124611D01*
X86444410Y-115894016D01*
X86444410Y-116790000D01*
X82042000Y-116790000D01*
X82042000Y-86487000D01*
X84427560Y-86487000D01*
X84427560Y-87645000D01*
X84474537Y-87887123D01*
X84614327Y-88099927D01*
X84825360Y-88242377D01*
X85075000Y-88292440D01*
X86375000Y-88292440D01*
X86617123Y-88245463D01*
X86829927Y-88105673D01*
X86972377Y-87894640D01*
X87022440Y-87645000D01*
X87022440Y-86345000D01*
X86975463Y-86102877D01*
X86835673Y-85890073D01*
X86624640Y-85747623D01*
X86375000Y-85697560D01*
X85852000Y-85697560D01*
X85852000Y-77595150D01*
X85970299Y-77571619D01*
X86122382Y-77470000D01*
X90174000Y-77470000D01*
X90174000Y-77776051D01*
X90016877Y-77806537D01*
X89804073Y-77946327D01*
X89661623Y-78157360D01*
X89611560Y-78407000D01*
X89611560Y-80407000D01*
X89658537Y-80649123D01*
X89798327Y-80861927D01*
X90009360Y-81004377D01*
X90259000Y-81054440D01*
X91859000Y-81054440D01*
X92101123Y-81007463D01*
X92313927Y-80867673D01*
X92456377Y-80656640D01*
X92506440Y-80407000D01*
X92506440Y-78554491D01*
X93345000Y-79393051D01*
X93345000Y-86208169D01*
X93317560Y-86345000D01*
X93317560Y-87645000D01*
X93364537Y-87887123D01*
X93504327Y-88099927D01*
X93715360Y-88242377D01*
X93965000Y-88292440D01*
X95265000Y-88292440D01*
X95507123Y-88245463D01*
X95719927Y-88105673D01*
X95862377Y-87894640D01*
X95885000Y-87781830D01*
X95885000Y-102234994D01*
X95884999Y-102235000D01*
X95981673Y-102721008D01*
X96256974Y-103133026D01*
X98288974Y-105165026D01*
X98700992Y-105440327D01*
X99187000Y-105537001D01*
X99187000Y-105537000D01*
X99187005Y-105537000D01*
X100838000Y-105537000D01*
X100838000Y-116790000D01*
G36*
X106553000Y-92583000D02*
X100838000Y-92583000D01*
X100838000Y-102997000D01*
X99713052Y-102997000D01*
X98425000Y-101708948D01*
X98425000Y-70739005D01*
X98425000Y-70739000D01*
X98425001Y-70739000D01*
X98328327Y-70252992D01*
X98143915Y-69977000D01*
X98152948Y-69977000D01*
X99812974Y-71637026D01*
X100320971Y-72145022D01*
X100320974Y-72145026D01*
X100732992Y-72420327D01*
X100838000Y-72441214D01*
X100838000Y-87501764D01*
X100764073Y-87550327D01*
X100621623Y-87761360D01*
X100571560Y-88011000D01*
X100571560Y-90043000D01*
X100618537Y-90285123D01*
X100758327Y-90497927D01*
X100969360Y-90640377D01*
X101219000Y-90690440D01*
X103251000Y-90690440D01*
X103493123Y-90643463D01*
X103705927Y-90503673D01*
X103804163Y-90358139D01*
X104143190Y-90584670D01*
X104775000Y-90710345D01*
X105406810Y-90584670D01*
X105892006Y-90260471D01*
X106553000Y-90238438D01*
X106553000Y-92583000D01*
X106553000Y-92583000D01*
G37*
X106553000Y-92583000D02*
X100838000Y-92583000D01*
X100838000Y-102997000D01*
X99713052Y-102997000D01*
X98425000Y-101708948D01*
X98425000Y-70739005D01*
X98425000Y-70739000D01*
X98425001Y-70739000D01*
X98328327Y-70252992D01*
X98143915Y-69977000D01*
X98152948Y-69977000D01*
X99812974Y-71637026D01*
X100320971Y-72145022D01*
X100320974Y-72145026D01*
X100732992Y-72420327D01*
X100838000Y-72441214D01*
X100838000Y-87501764D01*
X100764073Y-87550327D01*
X100621623Y-87761360D01*
X100571560Y-88011000D01*
X100571560Y-90043000D01*
X100618537Y-90285123D01*
X100758327Y-90497927D01*
X100969360Y-90640377D01*
X101219000Y-90690440D01*
X103251000Y-90690440D01*
X103493123Y-90643463D01*
X103705927Y-90503673D01*
X103804163Y-90358139D01*
X104143190Y-90584670D01*
X104775000Y-90710345D01*
X105406810Y-90584670D01*
X105892006Y-90260471D01*
X106553000Y-90238438D01*
X106553000Y-92583000D01*
G36*
X118618000Y-93218000D02*
X116598440Y-93218000D01*
X116598440Y-92456000D01*
X116598440Y-90424000D01*
X116551463Y-90181877D01*
X116411673Y-89969073D01*
X116251956Y-89861262D01*
X116341385Y-89764818D01*
X116540975Y-89282944D01*
X116421836Y-89027000D01*
X115062000Y-89027000D01*
X115062000Y-89047000D01*
X114808000Y-89047000D01*
X114808000Y-89027000D01*
X113448164Y-89027000D01*
X113329025Y-89282944D01*
X113528615Y-89764818D01*
X113618574Y-89861835D01*
X113464073Y-89963327D01*
X113321623Y-90174360D01*
X113271560Y-90424000D01*
X113271560Y-92456000D01*
X113318537Y-92698123D01*
X113458327Y-92910927D01*
X113669360Y-93053377D01*
X113919000Y-93103440D01*
X115951000Y-93103440D01*
X116193123Y-93056463D01*
X116405927Y-92916673D01*
X116548377Y-92705640D01*
X116598440Y-92456000D01*
X116598440Y-93218000D01*
X111887000Y-93218000D01*
X111887000Y-92583000D01*
X110617000Y-92583000D01*
X110617000Y-87757000D01*
X113786559Y-87757000D01*
X113528615Y-88035182D01*
X113329025Y-88517056D01*
X113448164Y-88773000D01*
X114808000Y-88773000D01*
X114808000Y-88753000D01*
X115062000Y-88753000D01*
X115062000Y-88773000D01*
X116421836Y-88773000D01*
X116540975Y-88517056D01*
X116341385Y-88035182D01*
X116083440Y-87757000D01*
X118618000Y-87757000D01*
X118618000Y-93218000D01*
X118618000Y-93218000D01*
G37*
X118618000Y-93218000D02*
X116598440Y-93218000D01*
X116598440Y-92456000D01*
X116598440Y-90424000D01*
X116551463Y-90181877D01*
X116411673Y-89969073D01*
X116251956Y-89861262D01*
X116341385Y-89764818D01*
X116540975Y-89282944D01*
X116421836Y-89027000D01*
X115062000Y-89027000D01*
X115062000Y-89047000D01*
X114808000Y-89047000D01*
X114808000Y-89027000D01*
X113448164Y-89027000D01*
X113329025Y-89282944D01*
X113528615Y-89764818D01*
X113618574Y-89861835D01*
X113464073Y-89963327D01*
X113321623Y-90174360D01*
X113271560Y-90424000D01*
X113271560Y-92456000D01*
X113318537Y-92698123D01*
X113458327Y-92910927D01*
X113669360Y-93053377D01*
X113919000Y-93103440D01*
X115951000Y-93103440D01*
X116193123Y-93056463D01*
X116405927Y-92916673D01*
X116548377Y-92705640D01*
X116598440Y-92456000D01*
X116598440Y-93218000D01*
X111887000Y-93218000D01*
X111887000Y-92583000D01*
X110617000Y-92583000D01*
X110617000Y-87757000D01*
X113786559Y-87757000D01*
X113528615Y-88035182D01*
X113329025Y-88517056D01*
X113448164Y-88773000D01*
X114808000Y-88773000D01*
X114808000Y-88753000D01*
X115062000Y-88753000D01*
X115062000Y-88773000D01*
X116421836Y-88773000D01*
X116540975Y-88517056D01*
X116341385Y-88035182D01*
X116083440Y-87757000D01*
X118618000Y-87757000D01*
X118618000Y-93218000D01*
M02*
