G04 #@! TF.FileFunction,Soldermask,Top*
%FSLAX46Y46*%
G04 Gerber Fmt 4.6, Leading zero omitted, Abs format (unit mm)*
G04 Created by KiCad (PCBNEW (after 2015-mar-04 BZR unknown)-product) date Thu 24 Nov 2016 20:55:00 CET*
%MOMM*%
G01*
G04 APERTURE LIST*
%ADD10C,0.100000*%
%ADD11R,1.600000X2.000000*%
%ADD12R,2.286000X1.574800*%
%ADD13O,2.286000X1.574800*%
%ADD14R,2.032000X1.727200*%
%ADD15O,2.032000X1.727200*%
%ADD16R,2.032000X2.032000*%
%ADD17O,2.032000X2.032000*%
%ADD18R,1.574800X2.286000*%
%ADD19O,1.574800X2.286000*%
%ADD20O,3.500120X1.699260*%
%ADD21C,3.799840*%
%ADD22R,1.727200X1.727200*%
%ADD23O,1.727200X1.727200*%
%ADD24C,1.699260*%
%ADD25R,1.699260X1.699260*%
%ADD26C,1.998980*%
%ADD27R,1.300000X1.300000*%
%ADD28C,1.300000*%
%ADD29C,2.500000*%
%ADD30C,3.000000*%
G04 APERTURE END LIST*
D10*
X63500000Y-117475000D02*
X63500000Y-52705000D01*
X187960000Y-117475000D02*
X63500000Y-117475000D01*
X187960000Y-52705000D02*
X187960000Y-117475000D01*
X63500000Y-52705000D02*
X187960000Y-52705000D01*
D11*
X137160000Y-72930000D03*
X137160000Y-76930000D03*
X149860000Y-72930000D03*
X149860000Y-76930000D03*
X163830000Y-75470000D03*
X163830000Y-79470000D03*
D12*
X167640000Y-75565000D03*
D13*
X167640000Y-78105000D03*
X167640000Y-80645000D03*
X167640000Y-83185000D03*
X167640000Y-85725000D03*
X167640000Y-88265000D03*
X167640000Y-90805000D03*
X160020000Y-90805000D03*
X160020000Y-88265000D03*
X160020000Y-85725000D03*
X160020000Y-83185000D03*
X160020000Y-80645000D03*
X160020000Y-78105000D03*
X160020000Y-75565000D03*
D12*
X140970000Y-73025000D03*
D13*
X140970000Y-75565000D03*
X140970000Y-78105000D03*
X140970000Y-80645000D03*
X140970000Y-83185000D03*
X140970000Y-85725000D03*
X140970000Y-88265000D03*
X140970000Y-90805000D03*
X133350000Y-90805000D03*
X133350000Y-88265000D03*
X133350000Y-85725000D03*
X133350000Y-83185000D03*
X133350000Y-80645000D03*
X133350000Y-78105000D03*
X133350000Y-75565000D03*
X133350000Y-73025000D03*
D12*
X153670000Y-73025000D03*
D13*
X153670000Y-75565000D03*
X153670000Y-78105000D03*
X153670000Y-80645000D03*
X153670000Y-83185000D03*
X153670000Y-85725000D03*
X153670000Y-88265000D03*
X153670000Y-90805000D03*
X146050000Y-90805000D03*
X146050000Y-88265000D03*
X146050000Y-85725000D03*
X146050000Y-83185000D03*
X146050000Y-80645000D03*
X146050000Y-78105000D03*
X146050000Y-75565000D03*
X146050000Y-73025000D03*
D14*
X92583000Y-66167000D03*
D15*
X92583000Y-68707000D03*
X92583000Y-71247000D03*
D16*
X102235000Y-89027000D03*
D17*
X104775000Y-89027000D03*
D12*
X183515000Y-99060000D03*
D13*
X183515000Y-101600000D03*
X183515000Y-104140000D03*
X183515000Y-106680000D03*
X175895000Y-106680000D03*
X175895000Y-104140000D03*
X175895000Y-101600000D03*
X175895000Y-99060000D03*
D14*
X108585000Y-93980000D03*
D15*
X108585000Y-91440000D03*
X108585000Y-88900000D03*
X108585000Y-86360000D03*
X108585000Y-83820000D03*
X108585000Y-81280000D03*
X108585000Y-78740000D03*
X108585000Y-76200000D03*
D18*
X151765000Y-99695000D03*
D19*
X154305000Y-99695000D03*
X156845000Y-99695000D03*
X159385000Y-99695000D03*
X161925000Y-99695000D03*
X164465000Y-99695000D03*
X167005000Y-99695000D03*
X167005000Y-107315000D03*
X164465000Y-107315000D03*
X161925000Y-107315000D03*
X159385000Y-107315000D03*
X156845000Y-107315000D03*
X154305000Y-107315000D03*
X151765000Y-107315000D03*
D20*
X84455000Y-73660000D03*
X84455000Y-76200000D03*
X84455000Y-71120000D03*
D21*
X67691000Y-73660000D03*
D18*
X114935000Y-99695000D03*
D19*
X117475000Y-99695000D03*
X120015000Y-99695000D03*
X122555000Y-99695000D03*
X125095000Y-99695000D03*
X127635000Y-99695000D03*
X130175000Y-99695000D03*
X130175000Y-107315000D03*
X127635000Y-107315000D03*
X125095000Y-107315000D03*
X122555000Y-107315000D03*
X120015000Y-107315000D03*
X117475000Y-107315000D03*
X114935000Y-107315000D03*
D16*
X147955000Y-111760000D03*
D17*
X147955000Y-114300000D03*
D16*
X161925000Y-114300000D03*
D17*
X161925000Y-111760000D03*
D16*
X92583000Y-56007000D03*
D17*
X92583000Y-58547000D03*
D16*
X121920000Y-73660000D03*
D17*
X124460000Y-73660000D03*
D16*
X108585000Y-57150000D03*
D17*
X108585000Y-54610000D03*
D16*
X176530000Y-111760000D03*
D17*
X176530000Y-114300000D03*
D16*
X120650000Y-114300000D03*
D17*
X120650000Y-111760000D03*
D22*
X155575000Y-58420000D03*
D23*
X155575000Y-55880000D03*
X153035000Y-58420000D03*
X153035000Y-55880000D03*
D24*
X103505000Y-54610000D03*
D25*
X103505000Y-64770000D03*
D11*
X146050000Y-107410000D03*
X146050000Y-103410000D03*
X108585000Y-107220000D03*
X108585000Y-111220000D03*
X179705000Y-101505000D03*
X179705000Y-105505000D03*
D26*
X181610000Y-86360000D03*
X181610000Y-76200000D03*
X185420000Y-86360000D03*
X185420000Y-76200000D03*
X141605000Y-97233740D03*
X141605000Y-107393740D03*
X104775000Y-109776260D03*
X104775000Y-99616260D03*
D11*
X91059000Y-79407000D03*
X91059000Y-83407000D03*
D27*
X85725000Y-86995000D03*
D28*
X85725000Y-114995000D03*
D27*
X94615000Y-86995000D03*
D28*
X94615000Y-114995000D03*
D27*
X173990000Y-58420000D03*
D28*
X173990000Y-86420000D03*
D27*
X181610000Y-71755000D03*
D28*
X184110000Y-71755000D03*
D27*
X106045000Y-67945000D03*
D28*
X103545000Y-67945000D03*
D29*
X113710000Y-54910000D03*
D30*
X125910000Y-54910000D03*
X125960000Y-66960000D03*
D29*
X113710000Y-66910000D03*
D30*
X111760000Y-60960000D03*
D16*
X164465000Y-58420000D03*
D17*
X164465000Y-55880000D03*
D16*
X114935000Y-91440000D03*
D17*
X114935000Y-88900000D03*
D27*
X158623000Y-72898000D03*
D28*
X158623000Y-70398000D03*
M02*
