%FSLAX45Y45*%
G04 Gerber Fmt 4.5, Leading zero omitted, Abs format (unit mm)*
G04 Created by KiCad (PCBNEW (after 2015-mar-04 BZR unknown)-product) date Thu 24 Nov 2016 20:55:15 CET*
%MOMM*%
G01*
G04 APERTURE LIST*
%ADD10C,0.127000*%
%ADD11C,0.100000*%
%ADD12C,0.200000*%
%ADD13C,0.300000*%
G04 APERTURE END LIST*
D10*
D11*
X6350000Y-11747500D02*
X6350000Y-5270500D01*
X18796000Y-11747500D02*
X6350000Y-11747500D01*
X18796000Y-5270500D02*
X18796000Y-11747500D01*
X6350000Y-5270500D02*
X18796000Y-5270500D01*
D12*
X6579108Y-7176008D02*
X6959092Y-7555992D01*
X6959092Y-7176008D02*
X6579108Y-7555992D01*
D13*
X6616428Y-12218214D02*
X6616428Y-11918214D01*
X6687857Y-11918214D01*
X6730714Y-11932500D01*
X6759286Y-11961071D01*
X6773571Y-11989643D01*
X6787857Y-12046786D01*
X6787857Y-12089643D01*
X6773571Y-12146786D01*
X6759286Y-12175357D01*
X6730714Y-12203929D01*
X6687857Y-12218214D01*
X6616428Y-12218214D01*
X6916428Y-12218214D02*
X6916428Y-12018214D01*
X6916428Y-12075357D02*
X6930714Y-12046786D01*
X6945000Y-12032500D01*
X6973571Y-12018214D01*
X7002143Y-12018214D01*
X7102143Y-12218214D02*
X7102143Y-12018214D01*
X7102143Y-11918214D02*
X7087857Y-11932500D01*
X7102143Y-11946786D01*
X7116428Y-11932500D01*
X7102143Y-11918214D01*
X7102143Y-11946786D01*
X7287857Y-12218214D02*
X7259286Y-12203929D01*
X7245000Y-12175357D01*
X7245000Y-11918214D01*
X7445000Y-12218214D02*
X7416428Y-12203929D01*
X7402143Y-12175357D01*
X7402143Y-11918214D01*
X7787857Y-12218214D02*
X7787857Y-11918214D01*
X7887857Y-12132500D01*
X7987857Y-11918214D01*
X7987857Y-12218214D01*
X8259286Y-12218214D02*
X8259286Y-12061071D01*
X8245000Y-12032500D01*
X8216428Y-12018214D01*
X8159286Y-12018214D01*
X8130714Y-12032500D01*
X8259286Y-12203929D02*
X8230714Y-12218214D01*
X8159286Y-12218214D01*
X8130714Y-12203929D01*
X8116428Y-12175357D01*
X8116428Y-12146786D01*
X8130714Y-12118214D01*
X8159286Y-12103929D01*
X8230714Y-12103929D01*
X8259286Y-12089643D01*
X8402143Y-12018214D02*
X8402143Y-12318214D01*
X8402143Y-12032500D02*
X8430714Y-12018214D01*
X8487857Y-12018214D01*
X8516429Y-12032500D01*
X8530714Y-12046786D01*
X8545000Y-12075357D01*
X8545000Y-12161071D01*
X8530714Y-12189643D01*
X8516429Y-12203929D01*
X8487857Y-12218214D01*
X8430714Y-12218214D01*
X8402143Y-12203929D01*
X8673571Y-12189643D02*
X8687857Y-12203929D01*
X8673571Y-12218214D01*
X8659286Y-12203929D01*
X8673571Y-12189643D01*
X8673571Y-12218214D01*
X8673571Y-12032500D02*
X8687857Y-12046786D01*
X8673571Y-12061071D01*
X8659286Y-12046786D01*
X8673571Y-12032500D01*
X8673571Y-12061071D01*
X5965016Y-12522508D02*
X6345000Y-12902492D01*
X6345000Y-12522508D02*
X5965016Y-12902492D01*
X6587857Y-12548214D02*
X6773571Y-12548214D01*
X6673571Y-12662500D01*
X6716428Y-12662500D01*
X6745000Y-12676786D01*
X6759286Y-12691071D01*
X6773571Y-12719643D01*
X6773571Y-12791071D01*
X6759286Y-12819643D01*
X6745000Y-12833929D01*
X6716428Y-12848214D01*
X6630714Y-12848214D01*
X6602143Y-12833929D01*
X6587857Y-12819643D01*
X6902143Y-12819643D02*
X6916428Y-12833929D01*
X6902143Y-12848214D01*
X6887857Y-12833929D01*
X6902143Y-12819643D01*
X6902143Y-12848214D01*
X7087857Y-12676786D02*
X7059286Y-12662500D01*
X7045000Y-12648214D01*
X7030714Y-12619643D01*
X7030714Y-12605357D01*
X7045000Y-12576786D01*
X7059286Y-12562500D01*
X7087857Y-12548214D01*
X7145000Y-12548214D01*
X7173571Y-12562500D01*
X7187857Y-12576786D01*
X7202143Y-12605357D01*
X7202143Y-12619643D01*
X7187857Y-12648214D01*
X7173571Y-12662500D01*
X7145000Y-12676786D01*
X7087857Y-12676786D01*
X7059286Y-12691071D01*
X7045000Y-12705357D01*
X7030714Y-12733929D01*
X7030714Y-12791071D01*
X7045000Y-12819643D01*
X7059286Y-12833929D01*
X7087857Y-12848214D01*
X7145000Y-12848214D01*
X7173571Y-12833929D01*
X7187857Y-12819643D01*
X7202143Y-12791071D01*
X7202143Y-12733929D01*
X7187857Y-12705357D01*
X7173571Y-12691071D01*
X7145000Y-12676786D01*
X7387857Y-12548214D02*
X7416428Y-12548214D01*
X7445000Y-12562500D01*
X7459286Y-12576786D01*
X7473571Y-12605357D01*
X7487857Y-12662500D01*
X7487857Y-12733929D01*
X7473571Y-12791071D01*
X7459286Y-12819643D01*
X7445000Y-12833929D01*
X7416428Y-12848214D01*
X7387857Y-12848214D01*
X7359286Y-12833929D01*
X7345000Y-12819643D01*
X7330714Y-12791071D01*
X7316428Y-12733929D01*
X7316428Y-12662500D01*
X7330714Y-12605357D01*
X7345000Y-12576786D01*
X7359286Y-12562500D01*
X7387857Y-12548214D01*
X7616428Y-12848214D02*
X7616428Y-12648214D01*
X7616428Y-12676786D02*
X7630714Y-12662500D01*
X7659286Y-12648214D01*
X7702143Y-12648214D01*
X7730714Y-12662500D01*
X7745000Y-12691071D01*
X7745000Y-12848214D01*
X7745000Y-12691071D02*
X7759286Y-12662500D01*
X7787857Y-12648214D01*
X7830714Y-12648214D01*
X7859286Y-12662500D01*
X7873571Y-12691071D01*
X7873571Y-12848214D01*
X8016428Y-12848214D02*
X8016428Y-12648214D01*
X8016428Y-12676786D02*
X8030714Y-12662500D01*
X8059286Y-12648214D01*
X8102143Y-12648214D01*
X8130714Y-12662500D01*
X8145000Y-12691071D01*
X8145000Y-12848214D01*
X8145000Y-12691071D02*
X8159286Y-12662500D01*
X8187857Y-12648214D01*
X8230714Y-12648214D01*
X8259286Y-12662500D01*
X8273571Y-12691071D01*
X8273571Y-12848214D01*
X8859286Y-12533929D02*
X8602143Y-12919643D01*
X9245000Y-12548214D02*
X9273571Y-12548214D01*
X9302143Y-12562500D01*
X9316428Y-12576786D01*
X9330714Y-12605357D01*
X9345000Y-12662500D01*
X9345000Y-12733929D01*
X9330714Y-12791071D01*
X9316428Y-12819643D01*
X9302143Y-12833929D01*
X9273571Y-12848214D01*
X9245000Y-12848214D01*
X9216428Y-12833929D01*
X9202143Y-12819643D01*
X9187857Y-12791071D01*
X9173571Y-12733929D01*
X9173571Y-12662500D01*
X9187857Y-12605357D01*
X9202143Y-12576786D01*
X9216428Y-12562500D01*
X9245000Y-12548214D01*
X9473571Y-12819643D02*
X9487857Y-12833929D01*
X9473571Y-12848214D01*
X9459286Y-12833929D01*
X9473571Y-12819643D01*
X9473571Y-12848214D01*
X9773571Y-12848214D02*
X9602143Y-12848214D01*
X9687857Y-12848214D02*
X9687857Y-12548214D01*
X9659286Y-12591071D01*
X9630714Y-12619643D01*
X9602143Y-12633929D01*
X10045000Y-12548214D02*
X9902143Y-12548214D01*
X9887857Y-12691071D01*
X9902143Y-12676786D01*
X9930714Y-12662500D01*
X10002143Y-12662500D01*
X10030714Y-12676786D01*
X10045000Y-12691071D01*
X10059286Y-12719643D01*
X10059286Y-12791071D01*
X10045000Y-12819643D01*
X10030714Y-12833929D01*
X10002143Y-12848214D01*
X9930714Y-12848214D01*
X9902143Y-12833929D01*
X9887857Y-12819643D01*
X10245000Y-12548214D02*
X10273571Y-12548214D01*
X10302143Y-12562500D01*
X10316428Y-12576786D01*
X10330714Y-12605357D01*
X10345000Y-12662500D01*
X10345000Y-12733929D01*
X10330714Y-12791071D01*
X10316428Y-12819643D01*
X10302143Y-12833929D01*
X10273571Y-12848214D01*
X10245000Y-12848214D01*
X10216428Y-12833929D01*
X10202143Y-12819643D01*
X10187857Y-12791071D01*
X10173571Y-12733929D01*
X10173571Y-12662500D01*
X10187857Y-12605357D01*
X10202143Y-12576786D01*
X10216428Y-12562500D01*
X10245000Y-12548214D01*
X10459286Y-12548214D02*
X10459286Y-12605357D01*
X10573571Y-12548214D02*
X10573571Y-12605357D01*
X11016428Y-12962500D02*
X11002143Y-12948214D01*
X10973571Y-12905357D01*
X10959286Y-12876786D01*
X10945000Y-12833929D01*
X10930714Y-12762500D01*
X10930714Y-12705357D01*
X10945000Y-12633929D01*
X10959286Y-12591071D01*
X10973571Y-12562500D01*
X11002143Y-12519643D01*
X11016428Y-12505357D01*
X11287857Y-12848214D02*
X11116428Y-12848214D01*
X11202143Y-12848214D02*
X11202143Y-12548214D01*
X11173571Y-12591071D01*
X11145000Y-12619643D01*
X11116428Y-12633929D01*
X11645000Y-12848214D02*
X11645000Y-12548214D01*
X11773571Y-12848214D02*
X11773571Y-12691071D01*
X11759285Y-12662500D01*
X11730714Y-12648214D01*
X11687857Y-12648214D01*
X11659285Y-12662500D01*
X11645000Y-12676786D01*
X11959285Y-12848214D02*
X11930714Y-12833929D01*
X11916428Y-12819643D01*
X11902143Y-12791071D01*
X11902143Y-12705357D01*
X11916428Y-12676786D01*
X11930714Y-12662500D01*
X11959285Y-12648214D01*
X12002143Y-12648214D01*
X12030714Y-12662500D01*
X12045000Y-12676786D01*
X12059285Y-12705357D01*
X12059285Y-12791071D01*
X12045000Y-12819643D01*
X12030714Y-12833929D01*
X12002143Y-12848214D01*
X11959285Y-12848214D01*
X12230714Y-12848214D02*
X12202143Y-12833929D01*
X12187857Y-12805357D01*
X12187857Y-12548214D01*
X12459286Y-12833929D02*
X12430714Y-12848214D01*
X12373571Y-12848214D01*
X12345000Y-12833929D01*
X12330714Y-12805357D01*
X12330714Y-12691071D01*
X12345000Y-12662500D01*
X12373571Y-12648214D01*
X12430714Y-12648214D01*
X12459286Y-12662500D01*
X12473571Y-12691071D01*
X12473571Y-12719643D01*
X12330714Y-12748214D01*
X12573571Y-12962500D02*
X12587857Y-12948214D01*
X12616428Y-12905357D01*
X12630714Y-12876786D01*
X12645000Y-12833929D01*
X12659286Y-12762500D01*
X12659286Y-12705357D01*
X12645000Y-12633929D01*
X12630714Y-12591071D01*
X12616428Y-12562500D01*
X12587857Y-12519643D01*
X12573571Y-12505357D01*
M02*
