G04 #@! TF.FileFunction,Legend,Bot*
%FSLAX46Y46*%
G04 Gerber Fmt 4.6, Leading zero omitted, Abs format (unit mm)*
G04 Created by KiCad (PCBNEW (after 2015-mar-04 BZR unknown)-product) date Thu 24 Nov 2016 20:55:00 CET*
%MOMM*%
G01*
G04 APERTURE LIST*
%ADD10C,0.100000*%
%ADD11C,0.150000*%
G04 APERTURE END LIST*
D10*
X63500000Y-117475000D02*
X63500000Y-52705000D01*
X187960000Y-117475000D02*
X63500000Y-117475000D01*
X187960000Y-52705000D02*
X187960000Y-117475000D01*
X63500000Y-52705000D02*
X187960000Y-52705000D01*
D11*
X161290000Y-73025000D02*
X161290000Y-93345000D01*
X166370000Y-93345000D02*
X166370000Y-73025000D01*
X166370000Y-73025000D02*
X161290000Y-73025000D01*
X162560000Y-73025000D02*
X162560000Y-74295000D01*
X162560000Y-74295000D02*
X165100000Y-74295000D01*
X165100000Y-74295000D02*
X165100000Y-73025000D01*
X161290000Y-93345000D02*
X166370000Y-93345000D01*
X135890000Y-70485000D02*
X135890000Y-70485000D01*
X135890000Y-70485000D02*
X135890000Y-71755000D01*
X135890000Y-71755000D02*
X138430000Y-71755000D01*
X138430000Y-71755000D02*
X138430000Y-70485000D01*
X134620000Y-70485000D02*
X134620000Y-93345000D01*
X134620000Y-93345000D02*
X139700000Y-93345000D01*
X139700000Y-93345000D02*
X139700000Y-70485000D01*
X139700000Y-70485000D02*
X134620000Y-70485000D01*
X148590000Y-70485000D02*
X148590000Y-70485000D01*
X148590000Y-70485000D02*
X148590000Y-71755000D01*
X148590000Y-71755000D02*
X151130000Y-71755000D01*
X151130000Y-71755000D02*
X151130000Y-70485000D01*
X147320000Y-70485000D02*
X147320000Y-93345000D01*
X147320000Y-93345000D02*
X152400000Y-93345000D01*
X152400000Y-93345000D02*
X152400000Y-70485000D01*
X152400000Y-70485000D02*
X147320000Y-70485000D01*
X93853000Y-67437000D02*
X93853000Y-72517000D01*
X93853000Y-72517000D02*
X91313000Y-72517000D01*
X91313000Y-72517000D02*
X91313000Y-67437000D01*
X91033000Y-64617000D02*
X91033000Y-66167000D01*
X91313000Y-67437000D02*
X93853000Y-67437000D01*
X94133000Y-66167000D02*
X94133000Y-64617000D01*
X94133000Y-64617000D02*
X91033000Y-64617000D01*
X103505000Y-90297000D02*
X106045000Y-90297000D01*
X100685000Y-90577000D02*
X102235000Y-90577000D01*
X103505000Y-90297000D02*
X103505000Y-87757000D01*
X102235000Y-87477000D02*
X100685000Y-87477000D01*
X100685000Y-87477000D02*
X100685000Y-90577000D01*
X103505000Y-87757000D02*
X106045000Y-87757000D01*
X106045000Y-87757000D02*
X106045000Y-90297000D01*
X178435000Y-97790000D02*
X178435000Y-99060000D01*
X178435000Y-99060000D02*
X180975000Y-99060000D01*
X180975000Y-99060000D02*
X180975000Y-97790000D01*
X177165000Y-97790000D02*
X177165000Y-107950000D01*
X177165000Y-107950000D02*
X182245000Y-107950000D01*
X182245000Y-107950000D02*
X182245000Y-97790000D01*
X182245000Y-97790000D02*
X177165000Y-97790000D01*
X149225000Y-106045000D02*
X169545000Y-106045000D01*
X169545000Y-100965000D02*
X149225000Y-100965000D01*
X149225000Y-100965000D02*
X149225000Y-106045000D01*
X149225000Y-104775000D02*
X150495000Y-104775000D01*
X150495000Y-104775000D02*
X150495000Y-102235000D01*
X150495000Y-102235000D02*
X149225000Y-102235000D01*
X169545000Y-106045000D02*
X169545000Y-100965000D01*
X112395000Y-106045000D02*
X132715000Y-106045000D01*
X132715000Y-100965000D02*
X112395000Y-100965000D01*
X112395000Y-100965000D02*
X112395000Y-106045000D01*
X112395000Y-104775000D02*
X113665000Y-104775000D01*
X113665000Y-104775000D02*
X113665000Y-102235000D01*
X113665000Y-102235000D02*
X112395000Y-102235000D01*
X132715000Y-106045000D02*
X132715000Y-100965000D01*
X146685000Y-113030000D02*
X146685000Y-115570000D01*
X146405000Y-110210000D02*
X146405000Y-111760000D01*
X146685000Y-113030000D02*
X149225000Y-113030000D01*
X149505000Y-111760000D02*
X149505000Y-110210000D01*
X149505000Y-110210000D02*
X146405000Y-110210000D01*
X149225000Y-113030000D02*
X149225000Y-115570000D01*
X149225000Y-115570000D02*
X146685000Y-115570000D01*
X163195000Y-113030000D02*
X163195000Y-110490000D01*
X163475000Y-115850000D02*
X163475000Y-114300000D01*
X163195000Y-113030000D02*
X160655000Y-113030000D01*
X160375000Y-114300000D02*
X160375000Y-115850000D01*
X160375000Y-115850000D02*
X163475000Y-115850000D01*
X160655000Y-113030000D02*
X160655000Y-110490000D01*
X160655000Y-110490000D02*
X163195000Y-110490000D01*
X91313000Y-57277000D02*
X91313000Y-59817000D01*
X91033000Y-54457000D02*
X91033000Y-56007000D01*
X91313000Y-57277000D02*
X93853000Y-57277000D01*
X94133000Y-56007000D02*
X94133000Y-54457000D01*
X94133000Y-54457000D02*
X91033000Y-54457000D01*
X93853000Y-57277000D02*
X93853000Y-59817000D01*
X93853000Y-59817000D02*
X91313000Y-59817000D01*
X123190000Y-74930000D02*
X125730000Y-74930000D01*
X120370000Y-75210000D02*
X121920000Y-75210000D01*
X123190000Y-74930000D02*
X123190000Y-72390000D01*
X121920000Y-72110000D02*
X120370000Y-72110000D01*
X120370000Y-72110000D02*
X120370000Y-75210000D01*
X123190000Y-72390000D02*
X125730000Y-72390000D01*
X125730000Y-72390000D02*
X125730000Y-74930000D01*
X109855000Y-55880000D02*
X109855000Y-53340000D01*
X110135000Y-58700000D02*
X110135000Y-57150000D01*
X109855000Y-55880000D02*
X107315000Y-55880000D01*
X107035000Y-57150000D02*
X107035000Y-58700000D01*
X107035000Y-58700000D02*
X110135000Y-58700000D01*
X107315000Y-55880000D02*
X107315000Y-53340000D01*
X107315000Y-53340000D02*
X109855000Y-53340000D01*
X175260000Y-113030000D02*
X175260000Y-115570000D01*
X174980000Y-110210000D02*
X174980000Y-111760000D01*
X175260000Y-113030000D02*
X177800000Y-113030000D01*
X178080000Y-111760000D02*
X178080000Y-110210000D01*
X178080000Y-110210000D02*
X174980000Y-110210000D01*
X177800000Y-113030000D02*
X177800000Y-115570000D01*
X177800000Y-115570000D02*
X175260000Y-115570000D01*
X121920000Y-113030000D02*
X121920000Y-110490000D01*
X122200000Y-115850000D02*
X122200000Y-114300000D01*
X121920000Y-113030000D02*
X119380000Y-113030000D01*
X119100000Y-114300000D02*
X119100000Y-115850000D01*
X119100000Y-115850000D02*
X122200000Y-115850000D01*
X119380000Y-113030000D02*
X119380000Y-110490000D01*
X119380000Y-110490000D02*
X121920000Y-110490000D01*
X155575000Y-59970000D02*
X157125000Y-59970000D01*
X157125000Y-58420000D02*
X157125000Y-59970000D01*
X154305000Y-59690000D02*
X154305000Y-57150000D01*
X154305000Y-57150000D02*
X156845000Y-57150000D01*
X156845000Y-57150000D02*
X156845000Y-54610000D01*
X156845000Y-54610000D02*
X151765000Y-54610000D01*
X151765000Y-54610000D02*
X151765000Y-59690000D01*
X151765000Y-59690000D02*
X154305000Y-59690000D01*
X103505000Y-57404000D02*
X103505000Y-56007000D01*
X103505000Y-61849000D02*
X103505000Y-63373000D01*
X102743000Y-61468000D02*
X104267000Y-61468000D01*
X102743000Y-61722000D02*
X104267000Y-61722000D01*
X103505000Y-61976000D02*
X104267000Y-61976000D01*
X104267000Y-61976000D02*
X104267000Y-57404000D01*
X104267000Y-57404000D02*
X102743000Y-57404000D01*
X102743000Y-57404000D02*
X102743000Y-61976000D01*
X102743000Y-61976000D02*
X103505000Y-61976000D01*
X167835000Y-112030000D02*
X167835000Y-114030000D01*
X169985000Y-114030000D02*
X169985000Y-112030000D01*
X164660000Y-112030000D02*
X164660000Y-114030000D01*
X166810000Y-114030000D02*
X166810000Y-112030000D01*
X157040000Y-112030000D02*
X157040000Y-114030000D01*
X159190000Y-114030000D02*
X159190000Y-112030000D01*
X153865000Y-112030000D02*
X153865000Y-114030000D01*
X156015000Y-114030000D02*
X156015000Y-112030000D01*
X112590000Y-112030000D02*
X112590000Y-114030000D01*
X114740000Y-114030000D02*
X114740000Y-112030000D01*
X126560000Y-112030000D02*
X126560000Y-114030000D01*
X128710000Y-114030000D02*
X128710000Y-112030000D01*
X123385000Y-112030000D02*
X123385000Y-114030000D01*
X125535000Y-114030000D02*
X125535000Y-112030000D01*
X115765000Y-112030000D02*
X115765000Y-114030000D01*
X117915000Y-114030000D02*
X117915000Y-112030000D01*
X145220000Y-114030000D02*
X145220000Y-112030000D01*
X143070000Y-112030000D02*
X143070000Y-114030000D01*
X163560000Y-95445000D02*
X161560000Y-95445000D01*
X161560000Y-97595000D02*
X163560000Y-97595000D01*
X153940000Y-97595000D02*
X155940000Y-97595000D01*
X155940000Y-95445000D02*
X153940000Y-95445000D01*
X124190000Y-95445000D02*
X122190000Y-95445000D01*
X122190000Y-97595000D02*
X124190000Y-97595000D01*
X114570000Y-97595000D02*
X116570000Y-97595000D01*
X116570000Y-95445000D02*
X114570000Y-95445000D01*
X180730000Y-92345000D02*
X180730000Y-94345000D01*
X178680000Y-94345000D02*
X178680000Y-92345000D01*
X176970000Y-94345000D02*
X176970000Y-92345000D01*
X174820000Y-92345000D02*
X174820000Y-94345000D01*
X182440000Y-92345000D02*
X182440000Y-94345000D01*
X184590000Y-94345000D02*
X184590000Y-92345000D01*
X117205000Y-82745000D02*
X115205000Y-82745000D01*
X115205000Y-84895000D02*
X117205000Y-84895000D01*
X122995000Y-82915000D02*
X122995000Y-80915000D01*
X120845000Y-80915000D02*
X120845000Y-82915000D01*
X140725000Y-56150000D02*
X140725000Y-58150000D01*
X138675000Y-58150000D02*
X138675000Y-56150000D01*
X169935000Y-56150000D02*
X169935000Y-58150000D01*
X167885000Y-58150000D02*
X167885000Y-56150000D01*
X149615000Y-56150000D02*
X149615000Y-58150000D01*
X147565000Y-58150000D02*
X147565000Y-56150000D01*
X161045000Y-56150000D02*
X161045000Y-58150000D01*
X158995000Y-58150000D02*
X158995000Y-56150000D01*
X107585000Y-70095000D02*
X109585000Y-70095000D01*
X109585000Y-72145000D02*
X107585000Y-72145000D01*
X105800000Y-75200000D02*
X105800000Y-77200000D01*
X103750000Y-77200000D02*
X103750000Y-75200000D01*
X111370000Y-77200000D02*
X111370000Y-75200000D01*
X113420000Y-75200000D02*
X113420000Y-77200000D01*
X182610000Y-66235000D02*
X180610000Y-66235000D01*
X180610000Y-68385000D02*
X182610000Y-68385000D01*
X180610000Y-65845000D02*
X182610000Y-65845000D01*
X182610000Y-63695000D02*
X180610000Y-63695000D01*
X109025000Y-63230000D02*
X109025000Y-61230000D01*
X106875000Y-61230000D02*
X106875000Y-63230000D01*
X182880000Y-83820000D02*
X182880000Y-78740000D01*
X182880000Y-78740000D02*
X180340000Y-78740000D01*
X180340000Y-78740000D02*
X180340000Y-83820000D01*
X180340000Y-83820000D02*
X182880000Y-83820000D01*
X181610000Y-83820000D02*
X181610000Y-85090000D01*
X181610000Y-78740000D02*
X181610000Y-77470000D01*
X186690000Y-83820000D02*
X186690000Y-78740000D01*
X186690000Y-78740000D02*
X184150000Y-78740000D01*
X184150000Y-78740000D02*
X184150000Y-83820000D01*
X184150000Y-83820000D02*
X186690000Y-83820000D01*
X185420000Y-83820000D02*
X185420000Y-85090000D01*
X185420000Y-78740000D02*
X185420000Y-77470000D01*
X144645000Y-59905000D02*
X143645000Y-59905000D01*
X143645000Y-58205000D02*
X144645000Y-58205000D01*
X163965000Y-60745000D02*
X164965000Y-60745000D01*
X164965000Y-62445000D02*
X163965000Y-62445000D01*
X141605000Y-99519740D02*
X141605000Y-98757740D01*
X141605000Y-104980740D02*
X141605000Y-105869740D01*
X142875000Y-99519740D02*
X140208000Y-99519740D01*
X140208000Y-99519740D02*
X140208000Y-104980740D01*
X140208000Y-104980740D02*
X142875000Y-104980740D01*
X142875000Y-104980740D02*
X142875000Y-99519740D01*
X104775000Y-107490260D02*
X104775000Y-108252260D01*
X104775000Y-102029260D02*
X104775000Y-101140260D01*
X103505000Y-107490260D02*
X106172000Y-107490260D01*
X106172000Y-107490260D02*
X106172000Y-102029260D01*
X106172000Y-102029260D02*
X103505000Y-102029260D01*
X103505000Y-102029260D02*
X103505000Y-107490260D01*
X95114000Y-71739000D02*
X95114000Y-69739000D01*
X97164000Y-69739000D02*
X97164000Y-71739000D01*
X89725000Y-96995000D02*
X89725000Y-110995000D01*
X89725000Y-95995000D02*
X89725000Y-90995000D01*
X81725000Y-95995000D02*
X81725000Y-90995000D01*
X81725000Y-110995000D02*
X81725000Y-96995000D01*
X89725000Y-110995000D02*
X81725000Y-110995000D01*
X81725000Y-109995000D02*
X89725000Y-109995000D01*
X89725000Y-90995000D02*
X81725000Y-90995000D01*
X89725000Y-96995000D02*
X88725000Y-96995000D01*
X88725000Y-96995000D02*
X88725000Y-95995000D01*
X88725000Y-95995000D02*
X89725000Y-95995000D01*
X81725000Y-95995000D02*
X82725000Y-95995000D01*
X82725000Y-95995000D02*
X82725000Y-96995000D01*
X82725000Y-96995000D02*
X81725000Y-96995000D01*
X85725000Y-105995000D02*
X85725000Y-107995000D01*
X85725000Y-90995000D02*
X85725000Y-87995000D01*
X85725000Y-113995000D02*
X85725000Y-110995000D01*
X85725000Y-92995000D02*
X85725000Y-94995000D01*
X86725000Y-93995000D02*
X84725000Y-93995000D01*
X98615000Y-96995000D02*
X98615000Y-110995000D01*
X98615000Y-95995000D02*
X98615000Y-90995000D01*
X90615000Y-95995000D02*
X90615000Y-90995000D01*
X90615000Y-110995000D02*
X90615000Y-96995000D01*
X98615000Y-110995000D02*
X90615000Y-110995000D01*
X90615000Y-109995000D02*
X98615000Y-109995000D01*
X98615000Y-90995000D02*
X90615000Y-90995000D01*
X98615000Y-96995000D02*
X97615000Y-96995000D01*
X97615000Y-96995000D02*
X97615000Y-95995000D01*
X97615000Y-95995000D02*
X98615000Y-95995000D01*
X90615000Y-95995000D02*
X91615000Y-95995000D01*
X91615000Y-95995000D02*
X91615000Y-96995000D01*
X91615000Y-96995000D02*
X90615000Y-96995000D01*
X94615000Y-105995000D02*
X94615000Y-107995000D01*
X94615000Y-90995000D02*
X94615000Y-87995000D01*
X94615000Y-113995000D02*
X94615000Y-110995000D01*
X94615000Y-92995000D02*
X94615000Y-94995000D01*
X95615000Y-93995000D02*
X93615000Y-93995000D01*
X177990000Y-68420000D02*
X177990000Y-82420000D01*
X177990000Y-67420000D02*
X177990000Y-62420000D01*
X169990000Y-67420000D02*
X169990000Y-62420000D01*
X169990000Y-82420000D02*
X169990000Y-68420000D01*
X177990000Y-82420000D02*
X169990000Y-82420000D01*
X169990000Y-81420000D02*
X177990000Y-81420000D01*
X177990000Y-62420000D02*
X169990000Y-62420000D01*
X177990000Y-68420000D02*
X176990000Y-68420000D01*
X176990000Y-68420000D02*
X176990000Y-67420000D01*
X176990000Y-67420000D02*
X177990000Y-67420000D01*
X169990000Y-67420000D02*
X170990000Y-67420000D01*
X170990000Y-67420000D02*
X170990000Y-68420000D01*
X170990000Y-68420000D02*
X169990000Y-68420000D01*
X173990000Y-77420000D02*
X173990000Y-79420000D01*
X173990000Y-62420000D02*
X173990000Y-59420000D01*
X173990000Y-85420000D02*
X173990000Y-82420000D01*
X173990000Y-64420000D02*
X173990000Y-66420000D01*
X174990000Y-65420000D02*
X172990000Y-65420000D01*
X182935000Y-74254000D02*
X182935000Y-69256000D01*
X183075000Y-74246000D02*
X183075000Y-69264000D01*
X183215000Y-74230000D02*
X183215000Y-71850000D01*
X183215000Y-71660000D02*
X183215000Y-69280000D01*
X183355000Y-74206000D02*
X183355000Y-72245000D01*
X183355000Y-71265000D02*
X183355000Y-69304000D01*
X183495000Y-74173000D02*
X183495000Y-72412000D01*
X183495000Y-71098000D02*
X183495000Y-69337000D01*
X183635000Y-74132000D02*
X183635000Y-72519000D01*
X183635000Y-70991000D02*
X183635000Y-69378000D01*
X183775000Y-74082000D02*
X183775000Y-72590000D01*
X183775000Y-70920000D02*
X183775000Y-69428000D01*
X183915000Y-74021000D02*
X183915000Y-72634000D01*
X183915000Y-70876000D02*
X183915000Y-69489000D01*
X184055000Y-73951000D02*
X184055000Y-72653000D01*
X184055000Y-70857000D02*
X184055000Y-69559000D01*
X184195000Y-73869000D02*
X184195000Y-72651000D01*
X184195000Y-70859000D02*
X184195000Y-69641000D01*
X184335000Y-73774000D02*
X184335000Y-72626000D01*
X184335000Y-70884000D02*
X184335000Y-69736000D01*
X184475000Y-73663000D02*
X184475000Y-72578000D01*
X184475000Y-70932000D02*
X184475000Y-69847000D01*
X184615000Y-73535000D02*
X184615000Y-72500000D01*
X184615000Y-71010000D02*
X184615000Y-69975000D01*
X184755000Y-73386000D02*
X184755000Y-72383000D01*
X184755000Y-71127000D02*
X184755000Y-70124000D01*
X184895000Y-73207000D02*
X184895000Y-72195000D01*
X184895000Y-71315000D02*
X184895000Y-70303000D01*
X185035000Y-72988000D02*
X185035000Y-70522000D01*
X185175000Y-72699000D02*
X185175000Y-70811000D01*
X185315000Y-72227000D02*
X185315000Y-71283000D01*
X185010000Y-71755000D02*
G75*
G03X185010000Y-71755000I-900000J0D01*
G01*
X185397500Y-71755000D02*
G75*
G03X185397500Y-71755000I-2537500J0D01*
G01*
X104720000Y-65446000D02*
X104720000Y-70444000D01*
X104580000Y-65454000D02*
X104580000Y-70436000D01*
X104440000Y-65470000D02*
X104440000Y-67850000D01*
X104440000Y-68040000D02*
X104440000Y-70420000D01*
X104300000Y-65494000D02*
X104300000Y-67455000D01*
X104300000Y-68435000D02*
X104300000Y-70396000D01*
X104160000Y-65527000D02*
X104160000Y-67288000D01*
X104160000Y-68602000D02*
X104160000Y-70363000D01*
X104020000Y-65568000D02*
X104020000Y-67181000D01*
X104020000Y-68709000D02*
X104020000Y-70322000D01*
X103880000Y-65618000D02*
X103880000Y-67110000D01*
X103880000Y-68780000D02*
X103880000Y-70272000D01*
X103740000Y-65679000D02*
X103740000Y-67066000D01*
X103740000Y-68824000D02*
X103740000Y-70211000D01*
X103600000Y-65749000D02*
X103600000Y-67047000D01*
X103600000Y-68843000D02*
X103600000Y-70141000D01*
X103460000Y-65831000D02*
X103460000Y-67049000D01*
X103460000Y-68841000D02*
X103460000Y-70059000D01*
X103320000Y-65926000D02*
X103320000Y-67074000D01*
X103320000Y-68816000D02*
X103320000Y-69964000D01*
X103180000Y-66037000D02*
X103180000Y-67122000D01*
X103180000Y-68768000D02*
X103180000Y-69853000D01*
X103040000Y-66165000D02*
X103040000Y-67200000D01*
X103040000Y-68690000D02*
X103040000Y-69725000D01*
X102900000Y-66314000D02*
X102900000Y-67317000D01*
X102900000Y-68573000D02*
X102900000Y-69576000D01*
X102760000Y-66493000D02*
X102760000Y-67505000D01*
X102760000Y-68385000D02*
X102760000Y-69397000D01*
X102620000Y-66712000D02*
X102620000Y-69178000D01*
X102480000Y-67001000D02*
X102480000Y-68889000D01*
X102340000Y-67473000D02*
X102340000Y-68417000D01*
X104445000Y-67945000D02*
G75*
G03X104445000Y-67945000I-900000J0D01*
G01*
X107332500Y-67945000D02*
G75*
G03X107332500Y-67945000I-2537500J0D01*
G01*
X126760000Y-53260000D02*
X130060000Y-53260000D01*
X130060000Y-53260000D02*
X130060000Y-68660000D01*
X130060000Y-68660000D02*
X126710000Y-68660000D01*
X110460000Y-59610000D02*
X110460000Y-53260000D01*
X110460000Y-53260000D02*
X125010000Y-53260000D01*
X110460000Y-62360000D02*
X110460000Y-68660000D01*
X110460000Y-68660000D02*
X125210000Y-68660000D01*
X110460000Y-68610000D02*
X110460000Y-62360000D01*
X125910000Y-56760000D02*
X125910000Y-59210000D01*
X125910000Y-65160000D02*
X125910000Y-62660000D01*
X115310000Y-54910000D02*
X117810000Y-54910000D01*
X114410000Y-60910000D02*
X113610000Y-60910000D01*
X117810000Y-66910000D02*
X115310000Y-66910000D01*
X121210000Y-60910000D02*
X122710000Y-60910000D01*
X122710000Y-60910000D02*
X127310000Y-63410000D01*
X121210000Y-57310000D02*
X114410000Y-57310000D01*
X121210000Y-60910000D02*
X121210000Y-57310000D01*
X114410000Y-60910000D02*
X114410000Y-57310000D01*
X117810000Y-66910000D02*
X117810000Y-62710000D01*
X117810000Y-59110000D02*
X117810000Y-54910000D01*
X119810000Y-59110000D02*
X115810000Y-62710000D01*
X115810000Y-59110000D02*
X115810000Y-62710000D01*
X115810000Y-62710000D02*
X119810000Y-62710000D01*
X119810000Y-62710000D02*
X119810000Y-59110000D01*
X119810000Y-59110000D02*
X115810000Y-59110000D01*
X165735000Y-57150000D02*
X165735000Y-54610000D01*
X166015000Y-59970000D02*
X166015000Y-58420000D01*
X165735000Y-57150000D02*
X163195000Y-57150000D01*
X162915000Y-58420000D02*
X162915000Y-59970000D01*
X162915000Y-59970000D02*
X166015000Y-59970000D01*
X163195000Y-57150000D02*
X163195000Y-54610000D01*
X163195000Y-54610000D02*
X165735000Y-54610000D01*
X116205000Y-90170000D02*
X116205000Y-87630000D01*
X116485000Y-92990000D02*
X116485000Y-91440000D01*
X116205000Y-90170000D02*
X113665000Y-90170000D01*
X113385000Y-91440000D02*
X113385000Y-92990000D01*
X113385000Y-92990000D02*
X116485000Y-92990000D01*
X113665000Y-90170000D02*
X113665000Y-87630000D01*
X113665000Y-87630000D02*
X116205000Y-87630000D01*
X124825000Y-87825000D02*
X122825000Y-87825000D01*
X122825000Y-89975000D02*
X124825000Y-89975000D01*
X161122000Y-71573000D02*
X156124000Y-71573000D01*
X161114000Y-71433000D02*
X156132000Y-71433000D01*
X161098000Y-71293000D02*
X158718000Y-71293000D01*
X158528000Y-71293000D02*
X156148000Y-71293000D01*
X161074000Y-71153000D02*
X159113000Y-71153000D01*
X158133000Y-71153000D02*
X156172000Y-71153000D01*
X161041000Y-71013000D02*
X159280000Y-71013000D01*
X157966000Y-71013000D02*
X156205000Y-71013000D01*
X161000000Y-70873000D02*
X159387000Y-70873000D01*
X157859000Y-70873000D02*
X156246000Y-70873000D01*
X160950000Y-70733000D02*
X159458000Y-70733000D01*
X157788000Y-70733000D02*
X156296000Y-70733000D01*
X160889000Y-70593000D02*
X159502000Y-70593000D01*
X157744000Y-70593000D02*
X156357000Y-70593000D01*
X160819000Y-70453000D02*
X159521000Y-70453000D01*
X157725000Y-70453000D02*
X156427000Y-70453000D01*
X160737000Y-70313000D02*
X159519000Y-70313000D01*
X157727000Y-70313000D02*
X156509000Y-70313000D01*
X160642000Y-70173000D02*
X159494000Y-70173000D01*
X157752000Y-70173000D02*
X156604000Y-70173000D01*
X160531000Y-70033000D02*
X159446000Y-70033000D01*
X157800000Y-70033000D02*
X156715000Y-70033000D01*
X160403000Y-69893000D02*
X159368000Y-69893000D01*
X157878000Y-69893000D02*
X156843000Y-69893000D01*
X160254000Y-69753000D02*
X159251000Y-69753000D01*
X157995000Y-69753000D02*
X156992000Y-69753000D01*
X160075000Y-69613000D02*
X159063000Y-69613000D01*
X158183000Y-69613000D02*
X157171000Y-69613000D01*
X159856000Y-69473000D02*
X157390000Y-69473000D01*
X159567000Y-69333000D02*
X157679000Y-69333000D01*
X159095000Y-69193000D02*
X158151000Y-69193000D01*
X159523000Y-70398000D02*
G75*
G03X159523000Y-70398000I-900000J0D01*
G01*
X161160500Y-71648000D02*
G75*
G03X161160500Y-71648000I-2537500J0D01*
G01*
D10*
X167995600Y-77367600D02*
X167284400Y-77367600D01*
X167995600Y-78842400D02*
X167284400Y-78842400D01*
X167284400Y-77367600D02*
G75*
G03X167284400Y-78842400I0J-737400D01*
G01*
X167995600Y-78842400D02*
G75*
G03X167995600Y-77367600I0J737400D01*
G01*
X167995600Y-79907600D02*
X167284400Y-79907600D01*
X167995600Y-81382400D02*
X167284400Y-81382400D01*
X167284400Y-79907600D02*
G75*
G03X167284400Y-81382400I0J-737400D01*
G01*
X167995600Y-81382400D02*
G75*
G03X167995600Y-79907600I0J737400D01*
G01*
X167995600Y-82447600D02*
X167284400Y-82447600D01*
X167995600Y-83922400D02*
X167284400Y-83922400D01*
X167284400Y-82447600D02*
G75*
G03X167284400Y-83922400I0J-737400D01*
G01*
X167995600Y-83922400D02*
G75*
G03X167995600Y-82447600I0J737400D01*
G01*
X167995600Y-84987600D02*
X167284400Y-84987600D01*
X167995600Y-86462400D02*
X167284400Y-86462400D01*
X167284400Y-84987600D02*
G75*
G03X167284400Y-86462400I0J-737400D01*
G01*
X167995600Y-86462400D02*
G75*
G03X167995600Y-84987600I0J737400D01*
G01*
X167995600Y-87527600D02*
X167284400Y-87527600D01*
X167995600Y-89002400D02*
X167284400Y-89002400D01*
X167284400Y-87527600D02*
G75*
G03X167284400Y-89002400I0J-737400D01*
G01*
X167995600Y-89002400D02*
G75*
G03X167995600Y-87527600I0J737400D01*
G01*
X167995600Y-90067600D02*
X167284400Y-90067600D01*
X167995600Y-91542400D02*
X167284400Y-91542400D01*
X167284400Y-90067600D02*
G75*
G03X167284400Y-91542400I0J-737400D01*
G01*
X167995600Y-91542400D02*
G75*
G03X167995600Y-90067600I0J737400D01*
G01*
X160375600Y-90067600D02*
X159664400Y-90067600D01*
X160375600Y-91542400D02*
X159664400Y-91542400D01*
X159664400Y-90067600D02*
G75*
G03X159664400Y-91542400I0J-737400D01*
G01*
X160375600Y-91542400D02*
G75*
G03X160375600Y-90067600I0J737400D01*
G01*
X160375600Y-87527600D02*
X159664400Y-87527600D01*
X160375600Y-89002400D02*
X159664400Y-89002400D01*
X159664400Y-87527600D02*
G75*
G03X159664400Y-89002400I0J-737400D01*
G01*
X160375600Y-89002400D02*
G75*
G03X160375600Y-87527600I0J737400D01*
G01*
X160375600Y-84987600D02*
X159664400Y-84987600D01*
X160375600Y-86462400D02*
X159664400Y-86462400D01*
X159664400Y-84987600D02*
G75*
G03X159664400Y-86462400I0J-737400D01*
G01*
X160375600Y-86462400D02*
G75*
G03X160375600Y-84987600I0J737400D01*
G01*
X160375600Y-82447600D02*
X159664400Y-82447600D01*
X160375600Y-83922400D02*
X159664400Y-83922400D01*
X159664400Y-82447600D02*
G75*
G03X159664400Y-83922400I0J-737400D01*
G01*
X160375600Y-83922400D02*
G75*
G03X160375600Y-82447600I0J737400D01*
G01*
X160375600Y-79907600D02*
X159664400Y-79907600D01*
X160375600Y-81382400D02*
X159664400Y-81382400D01*
X159664400Y-79907600D02*
G75*
G03X159664400Y-81382400I0J-737400D01*
G01*
X160375600Y-81382400D02*
G75*
G03X160375600Y-79907600I0J737400D01*
G01*
X160375600Y-77367600D02*
X159664400Y-77367600D01*
X160375600Y-78842400D02*
X159664400Y-78842400D01*
X159664400Y-77367600D02*
G75*
G03X159664400Y-78842400I0J-737400D01*
G01*
X160375600Y-78842400D02*
G75*
G03X160375600Y-77367600I0J737400D01*
G01*
X160375600Y-74827600D02*
X159664400Y-74827600D01*
X160375600Y-76302400D02*
X159664400Y-76302400D01*
X159664400Y-74827600D02*
G75*
G03X159664400Y-76302400I0J-737400D01*
G01*
X160375600Y-76302400D02*
G75*
G03X160375600Y-74827600I0J737400D01*
G01*
X141325600Y-74827600D02*
X140614400Y-74827600D01*
X141325600Y-76302400D02*
X140614400Y-76302400D01*
X140614400Y-74827600D02*
G75*
G03X140614400Y-76302400I0J-737400D01*
G01*
X141325600Y-76302400D02*
G75*
G03X141325600Y-74827600I0J737400D01*
G01*
X141325600Y-77367600D02*
X140614400Y-77367600D01*
X141325600Y-78842400D02*
X140614400Y-78842400D01*
X140614400Y-77367600D02*
G75*
G03X140614400Y-78842400I0J-737400D01*
G01*
X141325600Y-78842400D02*
G75*
G03X141325600Y-77367600I0J737400D01*
G01*
X141325600Y-79907600D02*
X140614400Y-79907600D01*
X141325600Y-81382400D02*
X140614400Y-81382400D01*
X140614400Y-79907600D02*
G75*
G03X140614400Y-81382400I0J-737400D01*
G01*
X141325600Y-81382400D02*
G75*
G03X141325600Y-79907600I0J737400D01*
G01*
X141325600Y-82447600D02*
X140614400Y-82447600D01*
X141325600Y-83922400D02*
X140614400Y-83922400D01*
X140614400Y-82447600D02*
G75*
G03X140614400Y-83922400I0J-737400D01*
G01*
X141325600Y-83922400D02*
G75*
G03X141325600Y-82447600I0J737400D01*
G01*
X141325600Y-84987600D02*
X140614400Y-84987600D01*
X141325600Y-86462400D02*
X140614400Y-86462400D01*
X140614400Y-84987600D02*
G75*
G03X140614400Y-86462400I0J-737400D01*
G01*
X141325600Y-86462400D02*
G75*
G03X141325600Y-84987600I0J737400D01*
G01*
X141325600Y-87527600D02*
X140614400Y-87527600D01*
X141325600Y-89002400D02*
X140614400Y-89002400D01*
X140614400Y-87527600D02*
G75*
G03X140614400Y-89002400I0J-737400D01*
G01*
X141325600Y-89002400D02*
G75*
G03X141325600Y-87527600I0J737400D01*
G01*
X141325600Y-90067600D02*
X140614400Y-90067600D01*
X141325600Y-91542400D02*
X140614400Y-91542400D01*
X140614400Y-90067600D02*
G75*
G03X140614400Y-91542400I0J-737400D01*
G01*
X141325600Y-91542400D02*
G75*
G03X141325600Y-90067600I0J737400D01*
G01*
X133705600Y-90067600D02*
X132994400Y-90067600D01*
X133705600Y-91542400D02*
X132994400Y-91542400D01*
X132994400Y-90067600D02*
G75*
G03X132994400Y-91542400I0J-737400D01*
G01*
X133705600Y-91542400D02*
G75*
G03X133705600Y-90067600I0J737400D01*
G01*
X133705600Y-87527600D02*
X132994400Y-87527600D01*
X133705600Y-89002400D02*
X132994400Y-89002400D01*
X132994400Y-87527600D02*
G75*
G03X132994400Y-89002400I0J-737400D01*
G01*
X133705600Y-89002400D02*
G75*
G03X133705600Y-87527600I0J737400D01*
G01*
X133705600Y-84987600D02*
X132994400Y-84987600D01*
X133705600Y-86462400D02*
X132994400Y-86462400D01*
X132994400Y-84987600D02*
G75*
G03X132994400Y-86462400I0J-737400D01*
G01*
X133705600Y-86462400D02*
G75*
G03X133705600Y-84987600I0J737400D01*
G01*
X133705600Y-82447600D02*
X132994400Y-82447600D01*
X133705600Y-83922400D02*
X132994400Y-83922400D01*
X132994400Y-82447600D02*
G75*
G03X132994400Y-83922400I0J-737400D01*
G01*
X133705600Y-83922400D02*
G75*
G03X133705600Y-82447600I0J737400D01*
G01*
X133705600Y-79907600D02*
X132994400Y-79907600D01*
X133705600Y-81382400D02*
X132994400Y-81382400D01*
X132994400Y-79907600D02*
G75*
G03X132994400Y-81382400I0J-737400D01*
G01*
X133705600Y-81382400D02*
G75*
G03X133705600Y-79907600I0J737400D01*
G01*
X133705600Y-77367600D02*
X132994400Y-77367600D01*
X133705600Y-78842400D02*
X132994400Y-78842400D01*
X132994400Y-77367600D02*
G75*
G03X132994400Y-78842400I0J-737400D01*
G01*
X133705600Y-78842400D02*
G75*
G03X133705600Y-77367600I0J737400D01*
G01*
X133705600Y-74827600D02*
X132994400Y-74827600D01*
X133705600Y-76302400D02*
X132994400Y-76302400D01*
X132994400Y-74827600D02*
G75*
G03X132994400Y-76302400I0J-737400D01*
G01*
X133705600Y-76302400D02*
G75*
G03X133705600Y-74827600I0J737400D01*
G01*
X133705600Y-72287600D02*
X132994400Y-72287600D01*
X133705600Y-73762400D02*
X132994400Y-73762400D01*
X132994400Y-72287600D02*
G75*
G03X132994400Y-73762400I0J-737400D01*
G01*
X133705600Y-73762400D02*
G75*
G03X133705600Y-72287600I0J737400D01*
G01*
X154025600Y-74827600D02*
X153314400Y-74827600D01*
X154025600Y-76302400D02*
X153314400Y-76302400D01*
X153314400Y-74827600D02*
G75*
G03X153314400Y-76302400I0J-737400D01*
G01*
X154025600Y-76302400D02*
G75*
G03X154025600Y-74827600I0J737400D01*
G01*
X154025600Y-77367600D02*
X153314400Y-77367600D01*
X154025600Y-78842400D02*
X153314400Y-78842400D01*
X153314400Y-77367600D02*
G75*
G03X153314400Y-78842400I0J-737400D01*
G01*
X154025600Y-78842400D02*
G75*
G03X154025600Y-77367600I0J737400D01*
G01*
X154025600Y-79907600D02*
X153314400Y-79907600D01*
X154025600Y-81382400D02*
X153314400Y-81382400D01*
X153314400Y-79907600D02*
G75*
G03X153314400Y-81382400I0J-737400D01*
G01*
X154025600Y-81382400D02*
G75*
G03X154025600Y-79907600I0J737400D01*
G01*
X154025600Y-82447600D02*
X153314400Y-82447600D01*
X154025600Y-83922400D02*
X153314400Y-83922400D01*
X153314400Y-82447600D02*
G75*
G03X153314400Y-83922400I0J-737400D01*
G01*
X154025600Y-83922400D02*
G75*
G03X154025600Y-82447600I0J737400D01*
G01*
X154025600Y-84987600D02*
X153314400Y-84987600D01*
X154025600Y-86462400D02*
X153314400Y-86462400D01*
X153314400Y-84987600D02*
G75*
G03X153314400Y-86462400I0J-737400D01*
G01*
X154025600Y-86462400D02*
G75*
G03X154025600Y-84987600I0J737400D01*
G01*
X154025600Y-87527600D02*
X153314400Y-87527600D01*
X154025600Y-89002400D02*
X153314400Y-89002400D01*
X153314400Y-87527600D02*
G75*
G03X153314400Y-89002400I0J-737400D01*
G01*
X154025600Y-89002400D02*
G75*
G03X154025600Y-87527600I0J737400D01*
G01*
X154025600Y-90067600D02*
X153314400Y-90067600D01*
X154025600Y-91542400D02*
X153314400Y-91542400D01*
X153314400Y-90067600D02*
G75*
G03X153314400Y-91542400I0J-737400D01*
G01*
X154025600Y-91542400D02*
G75*
G03X154025600Y-90067600I0J737400D01*
G01*
X146405600Y-90067600D02*
X145694400Y-90067600D01*
X146405600Y-91542400D02*
X145694400Y-91542400D01*
X145694400Y-90067600D02*
G75*
G03X145694400Y-91542400I0J-737400D01*
G01*
X146405600Y-91542400D02*
G75*
G03X146405600Y-90067600I0J737400D01*
G01*
X146405600Y-87527600D02*
X145694400Y-87527600D01*
X146405600Y-89002400D02*
X145694400Y-89002400D01*
X145694400Y-87527600D02*
G75*
G03X145694400Y-89002400I0J-737400D01*
G01*
X146405600Y-89002400D02*
G75*
G03X146405600Y-87527600I0J737400D01*
G01*
X146405600Y-84987600D02*
X145694400Y-84987600D01*
X146405600Y-86462400D02*
X145694400Y-86462400D01*
X145694400Y-84987600D02*
G75*
G03X145694400Y-86462400I0J-737400D01*
G01*
X146405600Y-86462400D02*
G75*
G03X146405600Y-84987600I0J737400D01*
G01*
X146405600Y-82447600D02*
X145694400Y-82447600D01*
X146405600Y-83922400D02*
X145694400Y-83922400D01*
X145694400Y-82447600D02*
G75*
G03X145694400Y-83922400I0J-737400D01*
G01*
X146405600Y-83922400D02*
G75*
G03X146405600Y-82447600I0J737400D01*
G01*
X146405600Y-79907600D02*
X145694400Y-79907600D01*
X146405600Y-81382400D02*
X145694400Y-81382400D01*
X145694400Y-79907600D02*
G75*
G03X145694400Y-81382400I0J-737400D01*
G01*
X146405600Y-81382400D02*
G75*
G03X146405600Y-79907600I0J737400D01*
G01*
X146405600Y-77367600D02*
X145694400Y-77367600D01*
X146405600Y-78842400D02*
X145694400Y-78842400D01*
X145694400Y-77367600D02*
G75*
G03X145694400Y-78842400I0J-737400D01*
G01*
X146405600Y-78842400D02*
G75*
G03X146405600Y-77367600I0J737400D01*
G01*
X146405600Y-74827600D02*
X145694400Y-74827600D01*
X146405600Y-76302400D02*
X145694400Y-76302400D01*
X145694400Y-74827600D02*
G75*
G03X145694400Y-76302400I0J-737400D01*
G01*
X146405600Y-76302400D02*
G75*
G03X146405600Y-74827600I0J737400D01*
G01*
X146405600Y-72287600D02*
X145694400Y-72287600D01*
X146405600Y-73762400D02*
X145694400Y-73762400D01*
X145694400Y-72287600D02*
G75*
G03X145694400Y-73762400I0J-737400D01*
G01*
X146405600Y-73762400D02*
G75*
G03X146405600Y-72287600I0J737400D01*
G01*
X92735400Y-67893400D02*
X92430600Y-67893400D01*
X92735400Y-69520600D02*
X92430600Y-69520600D01*
X92430600Y-67893400D02*
G75*
G03X92430600Y-69520600I0J-813600D01*
G01*
X92735400Y-69520600D02*
G75*
G03X92735400Y-67893400I0J813600D01*
G01*
X92735400Y-70433400D02*
X92430600Y-70433400D01*
X92735400Y-72060600D02*
X92430600Y-72060600D01*
X92430600Y-70433400D02*
G75*
G03X92430600Y-72060600I0J-813600D01*
G01*
X92735400Y-72060600D02*
G75*
G03X92735400Y-70433400I0J813600D01*
G01*
X104775000Y-88061000D02*
X104775000Y-88061000D01*
X104775000Y-89993000D02*
X104775000Y-89993000D01*
X104775000Y-88061000D02*
G75*
G03X104775000Y-89993000I0J-966000D01*
G01*
X104775000Y-89993000D02*
G75*
G03X104775000Y-88061000I0J966000D01*
G01*
X183870600Y-100862600D02*
X183159400Y-100862600D01*
X183870600Y-102337400D02*
X183159400Y-102337400D01*
X183159400Y-100862600D02*
G75*
G03X183159400Y-102337400I0J-737400D01*
G01*
X183870600Y-102337400D02*
G75*
G03X183870600Y-100862600I0J737400D01*
G01*
X183870600Y-103402600D02*
X183159400Y-103402600D01*
X183870600Y-104877400D02*
X183159400Y-104877400D01*
X183159400Y-103402600D02*
G75*
G03X183159400Y-104877400I0J-737400D01*
G01*
X183870600Y-104877400D02*
G75*
G03X183870600Y-103402600I0J737400D01*
G01*
X183870600Y-105942600D02*
X183159400Y-105942600D01*
X183870600Y-107417400D02*
X183159400Y-107417400D01*
X183159400Y-105942600D02*
G75*
G03X183159400Y-107417400I0J-737400D01*
G01*
X183870600Y-107417400D02*
G75*
G03X183870600Y-105942600I0J737400D01*
G01*
X176250600Y-105942600D02*
X175539400Y-105942600D01*
X176250600Y-107417400D02*
X175539400Y-107417400D01*
X175539400Y-105942600D02*
G75*
G03X175539400Y-107417400I0J-737400D01*
G01*
X176250600Y-107417400D02*
G75*
G03X176250600Y-105942600I0J737400D01*
G01*
X176250600Y-103402600D02*
X175539400Y-103402600D01*
X176250600Y-104877400D02*
X175539400Y-104877400D01*
X175539400Y-103402600D02*
G75*
G03X175539400Y-104877400I0J-737400D01*
G01*
X176250600Y-104877400D02*
G75*
G03X176250600Y-103402600I0J737400D01*
G01*
X176250600Y-100862600D02*
X175539400Y-100862600D01*
X176250600Y-102337400D02*
X175539400Y-102337400D01*
X175539400Y-100862600D02*
G75*
G03X175539400Y-102337400I0J-737400D01*
G01*
X176250600Y-102337400D02*
G75*
G03X176250600Y-100862600I0J737400D01*
G01*
X176250600Y-98322600D02*
X175539400Y-98322600D01*
X176250600Y-99797400D02*
X175539400Y-99797400D01*
X175539400Y-98322600D02*
G75*
G03X175539400Y-99797400I0J-737400D01*
G01*
X176250600Y-99797400D02*
G75*
G03X176250600Y-98322600I0J737400D01*
G01*
X153567600Y-99339400D02*
X153567600Y-100050600D01*
X155042400Y-99339400D02*
X155042400Y-100050600D01*
X153567600Y-100050600D02*
G75*
G03X155042400Y-100050600I737400J0D01*
G01*
X155042400Y-99339400D02*
G75*
G03X153567600Y-99339400I-737400J0D01*
G01*
X156107600Y-99339400D02*
X156107600Y-100050600D01*
X157582400Y-99339400D02*
X157582400Y-100050600D01*
X156107600Y-100050600D02*
G75*
G03X157582400Y-100050600I737400J0D01*
G01*
X157582400Y-99339400D02*
G75*
G03X156107600Y-99339400I-737400J0D01*
G01*
X158647600Y-99339400D02*
X158647600Y-100050600D01*
X160122400Y-99339400D02*
X160122400Y-100050600D01*
X158647600Y-100050600D02*
G75*
G03X160122400Y-100050600I737400J0D01*
G01*
X160122400Y-99339400D02*
G75*
G03X158647600Y-99339400I-737400J0D01*
G01*
X161187600Y-99339400D02*
X161187600Y-100050600D01*
X162662400Y-99339400D02*
X162662400Y-100050600D01*
X161187600Y-100050600D02*
G75*
G03X162662400Y-100050600I737400J0D01*
G01*
X162662400Y-99339400D02*
G75*
G03X161187600Y-99339400I-737400J0D01*
G01*
X163727600Y-99339400D02*
X163727600Y-100050600D01*
X165202400Y-99339400D02*
X165202400Y-100050600D01*
X163727600Y-100050600D02*
G75*
G03X165202400Y-100050600I737400J0D01*
G01*
X165202400Y-99339400D02*
G75*
G03X163727600Y-99339400I-737400J0D01*
G01*
X166267600Y-99339400D02*
X166267600Y-100050600D01*
X167742400Y-99339400D02*
X167742400Y-100050600D01*
X166267600Y-100050600D02*
G75*
G03X167742400Y-100050600I737400J0D01*
G01*
X167742400Y-99339400D02*
G75*
G03X166267600Y-99339400I-737400J0D01*
G01*
X166267600Y-106959400D02*
X166267600Y-107670600D01*
X167742400Y-106959400D02*
X167742400Y-107670600D01*
X166267600Y-107670600D02*
G75*
G03X167742400Y-107670600I737400J0D01*
G01*
X167742400Y-106959400D02*
G75*
G03X166267600Y-106959400I-737400J0D01*
G01*
X163727600Y-106959400D02*
X163727600Y-107670600D01*
X165202400Y-106959400D02*
X165202400Y-107670600D01*
X163727600Y-107670600D02*
G75*
G03X165202400Y-107670600I737400J0D01*
G01*
X165202400Y-106959400D02*
G75*
G03X163727600Y-106959400I-737400J0D01*
G01*
X161187600Y-106959400D02*
X161187600Y-107670600D01*
X162662400Y-106959400D02*
X162662400Y-107670600D01*
X161187600Y-107670600D02*
G75*
G03X162662400Y-107670600I737400J0D01*
G01*
X162662400Y-106959400D02*
G75*
G03X161187600Y-106959400I-737400J0D01*
G01*
X158647600Y-106959400D02*
X158647600Y-107670600D01*
X160122400Y-106959400D02*
X160122400Y-107670600D01*
X158647600Y-107670600D02*
G75*
G03X160122400Y-107670600I737400J0D01*
G01*
X160122400Y-106959400D02*
G75*
G03X158647600Y-106959400I-737400J0D01*
G01*
X156107600Y-106959400D02*
X156107600Y-107670600D01*
X157582400Y-106959400D02*
X157582400Y-107670600D01*
X156107600Y-107670600D02*
G75*
G03X157582400Y-107670600I737400J0D01*
G01*
X157582400Y-106959400D02*
G75*
G03X156107600Y-106959400I-737400J0D01*
G01*
X153567600Y-106959400D02*
X153567600Y-107670600D01*
X155042400Y-106959400D02*
X155042400Y-107670600D01*
X153567600Y-107670600D02*
G75*
G03X155042400Y-107670600I737400J0D01*
G01*
X155042400Y-106959400D02*
G75*
G03X153567600Y-106959400I-737400J0D01*
G01*
X151027600Y-106959400D02*
X151027600Y-107670600D01*
X152502400Y-106959400D02*
X152502400Y-107670600D01*
X151027600Y-107670600D02*
G75*
G03X152502400Y-107670600I737400J0D01*
G01*
X152502400Y-106959400D02*
G75*
G03X151027600Y-106959400I-737400J0D01*
G01*
X116737600Y-99339400D02*
X116737600Y-100050600D01*
X118212400Y-99339400D02*
X118212400Y-100050600D01*
X116737600Y-100050600D02*
G75*
G03X118212400Y-100050600I737400J0D01*
G01*
X118212400Y-99339400D02*
G75*
G03X116737600Y-99339400I-737400J0D01*
G01*
X119277600Y-99339400D02*
X119277600Y-100050600D01*
X120752400Y-99339400D02*
X120752400Y-100050600D01*
X119277600Y-100050600D02*
G75*
G03X120752400Y-100050600I737400J0D01*
G01*
X120752400Y-99339400D02*
G75*
G03X119277600Y-99339400I-737400J0D01*
G01*
X121817600Y-99339400D02*
X121817600Y-100050600D01*
X123292400Y-99339400D02*
X123292400Y-100050600D01*
X121817600Y-100050600D02*
G75*
G03X123292400Y-100050600I737400J0D01*
G01*
X123292400Y-99339400D02*
G75*
G03X121817600Y-99339400I-737400J0D01*
G01*
X124357600Y-99339400D02*
X124357600Y-100050600D01*
X125832400Y-99339400D02*
X125832400Y-100050600D01*
X124357600Y-100050600D02*
G75*
G03X125832400Y-100050600I737400J0D01*
G01*
X125832400Y-99339400D02*
G75*
G03X124357600Y-99339400I-737400J0D01*
G01*
X126897600Y-99339400D02*
X126897600Y-100050600D01*
X128372400Y-99339400D02*
X128372400Y-100050600D01*
X126897600Y-100050600D02*
G75*
G03X128372400Y-100050600I737400J0D01*
G01*
X128372400Y-99339400D02*
G75*
G03X126897600Y-99339400I-737400J0D01*
G01*
X129437600Y-99339400D02*
X129437600Y-100050600D01*
X130912400Y-99339400D02*
X130912400Y-100050600D01*
X129437600Y-100050600D02*
G75*
G03X130912400Y-100050600I737400J0D01*
G01*
X130912400Y-99339400D02*
G75*
G03X129437600Y-99339400I-737400J0D01*
G01*
X129437600Y-106959400D02*
X129437600Y-107670600D01*
X130912400Y-106959400D02*
X130912400Y-107670600D01*
X129437600Y-107670600D02*
G75*
G03X130912400Y-107670600I737400J0D01*
G01*
X130912400Y-106959400D02*
G75*
G03X129437600Y-106959400I-737400J0D01*
G01*
X126897600Y-106959400D02*
X126897600Y-107670600D01*
X128372400Y-106959400D02*
X128372400Y-107670600D01*
X126897600Y-107670600D02*
G75*
G03X128372400Y-107670600I737400J0D01*
G01*
X128372400Y-106959400D02*
G75*
G03X126897600Y-106959400I-737400J0D01*
G01*
X124357600Y-106959400D02*
X124357600Y-107670600D01*
X125832400Y-106959400D02*
X125832400Y-107670600D01*
X124357600Y-107670600D02*
G75*
G03X125832400Y-107670600I737400J0D01*
G01*
X125832400Y-106959400D02*
G75*
G03X124357600Y-106959400I-737400J0D01*
G01*
X121817600Y-106959400D02*
X121817600Y-107670600D01*
X123292400Y-106959400D02*
X123292400Y-107670600D01*
X121817600Y-107670600D02*
G75*
G03X123292400Y-107670600I737400J0D01*
G01*
X123292400Y-106959400D02*
G75*
G03X121817600Y-106959400I-737400J0D01*
G01*
X119277600Y-106959400D02*
X119277600Y-107670600D01*
X120752400Y-106959400D02*
X120752400Y-107670600D01*
X119277600Y-107670600D02*
G75*
G03X120752400Y-107670600I737400J0D01*
G01*
X120752400Y-106959400D02*
G75*
G03X119277600Y-106959400I-737400J0D01*
G01*
X116737600Y-106959400D02*
X116737600Y-107670600D01*
X118212400Y-106959400D02*
X118212400Y-107670600D01*
X116737600Y-107670600D02*
G75*
G03X118212400Y-107670600I737400J0D01*
G01*
X118212400Y-106959400D02*
G75*
G03X116737600Y-106959400I-737400J0D01*
G01*
X114197600Y-106959400D02*
X114197600Y-107670600D01*
X115672400Y-106959400D02*
X115672400Y-107670600D01*
X114197600Y-107670600D02*
G75*
G03X115672400Y-107670600I737400J0D01*
G01*
X115672400Y-106959400D02*
G75*
G03X114197600Y-106959400I-737400J0D01*
G01*
X148921000Y-114300000D02*
X148921000Y-114300000D01*
X146989000Y-114300000D02*
X146989000Y-114300000D01*
X148921000Y-114300000D02*
G75*
G03X146989000Y-114300000I-966000J0D01*
G01*
X146989000Y-114300000D02*
G75*
G03X148921000Y-114300000I966000J0D01*
G01*
X160959000Y-111760000D02*
X160959000Y-111760000D01*
X162891000Y-111760000D02*
X162891000Y-111760000D01*
X160959000Y-111760000D02*
G75*
G03X162891000Y-111760000I966000J0D01*
G01*
X162891000Y-111760000D02*
G75*
G03X160959000Y-111760000I-966000J0D01*
G01*
X93549000Y-58547000D02*
X93549000Y-58547000D01*
X91617000Y-58547000D02*
X91617000Y-58547000D01*
X93549000Y-58547000D02*
G75*
G03X91617000Y-58547000I-966000J0D01*
G01*
X91617000Y-58547000D02*
G75*
G03X93549000Y-58547000I966000J0D01*
G01*
X124460000Y-72694000D02*
X124460000Y-72694000D01*
X124460000Y-74626000D02*
X124460000Y-74626000D01*
X124460000Y-72694000D02*
G75*
G03X124460000Y-74626000I0J-966000D01*
G01*
X124460000Y-74626000D02*
G75*
G03X124460000Y-72694000I0J966000D01*
G01*
X107619000Y-54610000D02*
X107619000Y-54610000D01*
X109551000Y-54610000D02*
X109551000Y-54610000D01*
X107619000Y-54610000D02*
G75*
G03X109551000Y-54610000I966000J0D01*
G01*
X109551000Y-54610000D02*
G75*
G03X107619000Y-54610000I-966000J0D01*
G01*
X177496000Y-114300000D02*
X177496000Y-114300000D01*
X175564000Y-114300000D02*
X175564000Y-114300000D01*
X177496000Y-114300000D02*
G75*
G03X175564000Y-114300000I-966000J0D01*
G01*
X175564000Y-114300000D02*
G75*
G03X177496000Y-114300000I966000J0D01*
G01*
X119684000Y-111760000D02*
X119684000Y-111760000D01*
X121616000Y-111760000D02*
X121616000Y-111760000D01*
X119684000Y-111760000D02*
G75*
G03X121616000Y-111760000I966000J0D01*
G01*
X121616000Y-111760000D02*
G75*
G03X119684000Y-111760000I-966000J0D01*
G01*
X155575000Y-56693600D02*
X155575000Y-56693600D01*
X155575000Y-55066400D02*
X155575000Y-55066400D01*
X155575000Y-56693600D02*
G75*
G03X155575000Y-55066400I0J813600D01*
G01*
X155575000Y-55066400D02*
G75*
G03X155575000Y-56693600I0J-813600D01*
G01*
X153035000Y-59233600D02*
X153035000Y-59233600D01*
X153035000Y-57606400D02*
X153035000Y-57606400D01*
X153035000Y-59233600D02*
G75*
G03X153035000Y-57606400I0J813600D01*
G01*
X153035000Y-57606400D02*
G75*
G03X153035000Y-59233600I0J-813600D01*
G01*
X153035000Y-56693600D02*
X153035000Y-56693600D01*
X153035000Y-55066400D02*
X153035000Y-55066400D01*
X153035000Y-56693600D02*
G75*
G03X153035000Y-55066400I0J813600D01*
G01*
X153035000Y-55066400D02*
G75*
G03X153035000Y-56693600I0J-813600D01*
G01*
X104304630Y-54610000D02*
G75*
G03X104304630Y-54610000I-799630J0D01*
G01*
X182559490Y-86360000D02*
G75*
G03X182559490Y-86360000I-949490J0D01*
G01*
X182559490Y-76200000D02*
G75*
G03X182559490Y-76200000I-949490J0D01*
G01*
X186369490Y-86360000D02*
G75*
G03X186369490Y-86360000I-949490J0D01*
G01*
X186369490Y-76200000D02*
G75*
G03X186369490Y-76200000I-949490J0D01*
G01*
X142554490Y-97233740D02*
G75*
G03X142554490Y-97233740I-949490J0D01*
G01*
X142554490Y-107393740D02*
G75*
G03X142554490Y-107393740I-949490J0D01*
G01*
X105724490Y-109776260D02*
G75*
G03X105724490Y-109776260I-949490J0D01*
G01*
X105724490Y-99616260D02*
G75*
G03X105724490Y-99616260I-949490J0D01*
G01*
X86325000Y-114995000D02*
G75*
G03X86325000Y-114995000I-600000J0D01*
G01*
X95215000Y-114995000D02*
G75*
G03X95215000Y-114995000I-600000J0D01*
G01*
X174590000Y-86420000D02*
G75*
G03X174590000Y-86420000I-600000J0D01*
G01*
X184710000Y-71755000D02*
G75*
G03X184710000Y-71755000I-600000J0D01*
G01*
X104145000Y-67945000D02*
G75*
G03X104145000Y-67945000I-600000J0D01*
G01*
X114910000Y-66910000D02*
G75*
G03X114910000Y-66910000I-1200000J0D01*
G01*
X163499000Y-55880000D02*
X163499000Y-55880000D01*
X165431000Y-55880000D02*
X165431000Y-55880000D01*
X163499000Y-55880000D02*
G75*
G03X165431000Y-55880000I966000J0D01*
G01*
X165431000Y-55880000D02*
G75*
G03X163499000Y-55880000I-966000J0D01*
G01*
X113969000Y-88900000D02*
X113969000Y-88900000D01*
X115901000Y-88900000D02*
X115901000Y-88900000D01*
X113969000Y-88900000D02*
G75*
G03X115901000Y-88900000I966000J0D01*
G01*
X115901000Y-88900000D02*
G75*
G03X113969000Y-88900000I-966000J0D01*
G01*
X159223000Y-70398000D02*
G75*
G03X159223000Y-70398000I-600000J0D01*
G01*
D11*
X165226905Y-71207381D02*
X165226905Y-72016905D01*
X165179286Y-72112143D01*
X165131667Y-72159762D01*
X165036429Y-72207381D01*
X164845952Y-72207381D01*
X164750714Y-72159762D01*
X164703095Y-72112143D01*
X164655476Y-72016905D01*
X164655476Y-71207381D01*
X163703095Y-71207381D02*
X164179286Y-71207381D01*
X164226905Y-71683571D01*
X164179286Y-71635952D01*
X164084048Y-71588333D01*
X163845952Y-71588333D01*
X163750714Y-71635952D01*
X163703095Y-71683571D01*
X163655476Y-71778810D01*
X163655476Y-72016905D01*
X163703095Y-72112143D01*
X163750714Y-72159762D01*
X163845952Y-72207381D01*
X164084048Y-72207381D01*
X164179286Y-72159762D01*
X164226905Y-72112143D01*
X137921905Y-68032381D02*
X137921905Y-68841905D01*
X137874286Y-68937143D01*
X137826667Y-68984762D01*
X137731429Y-69032381D01*
X137540952Y-69032381D01*
X137445714Y-68984762D01*
X137398095Y-68937143D01*
X137350476Y-68841905D01*
X137350476Y-68032381D01*
X136969524Y-68032381D02*
X136350476Y-68032381D01*
X136683810Y-68413333D01*
X136540952Y-68413333D01*
X136445714Y-68460952D01*
X136398095Y-68508571D01*
X136350476Y-68603810D01*
X136350476Y-68841905D01*
X136398095Y-68937143D01*
X136445714Y-68984762D01*
X136540952Y-69032381D01*
X136826667Y-69032381D01*
X136921905Y-68984762D01*
X136969524Y-68937143D01*
X150621905Y-68032381D02*
X150621905Y-68841905D01*
X150574286Y-68937143D01*
X150526667Y-68984762D01*
X150431429Y-69032381D01*
X150240952Y-69032381D01*
X150145714Y-68984762D01*
X150098095Y-68937143D01*
X150050476Y-68841905D01*
X150050476Y-68032381D01*
X149050476Y-69032381D02*
X149621905Y-69032381D01*
X149336191Y-69032381D02*
X149336191Y-68032381D01*
X149431429Y-68175238D01*
X149526667Y-68270476D01*
X149621905Y-68318095D01*
X89733333Y-68667381D02*
X89733333Y-69381667D01*
X89780953Y-69524524D01*
X89876191Y-69619762D01*
X90019048Y-69667381D01*
X90114286Y-69667381D01*
X89257143Y-69667381D02*
X89257143Y-68667381D01*
X88876190Y-68667381D01*
X88780952Y-68715000D01*
X88733333Y-68762619D01*
X88685714Y-68857857D01*
X88685714Y-69000714D01*
X88733333Y-69095952D01*
X88780952Y-69143571D01*
X88876190Y-69191190D01*
X89257143Y-69191190D01*
X87733333Y-69667381D02*
X88304762Y-69667381D01*
X88019048Y-69667381D02*
X88019048Y-68667381D01*
X88114286Y-68810238D01*
X88209524Y-68905476D01*
X88304762Y-68953095D01*
X104338333Y-85812381D02*
X104338333Y-86526667D01*
X104385953Y-86669524D01*
X104481191Y-86764762D01*
X104624048Y-86812381D01*
X104719286Y-86812381D01*
X103862143Y-86812381D02*
X103862143Y-85812381D01*
X103481190Y-85812381D01*
X103385952Y-85860000D01*
X103338333Y-85907619D01*
X103290714Y-86002857D01*
X103290714Y-86145714D01*
X103338333Y-86240952D01*
X103385952Y-86288571D01*
X103481190Y-86336190D01*
X103862143Y-86336190D01*
X102909762Y-85907619D02*
X102862143Y-85860000D01*
X102766905Y-85812381D01*
X102528809Y-85812381D01*
X102433571Y-85860000D01*
X102385952Y-85907619D01*
X102338333Y-86002857D01*
X102338333Y-86098095D01*
X102385952Y-86240952D01*
X102957381Y-86812381D01*
X102338333Y-86812381D01*
X186816905Y-97877381D02*
X186816905Y-98686905D01*
X186769286Y-98782143D01*
X186721667Y-98829762D01*
X186626429Y-98877381D01*
X186435952Y-98877381D01*
X186340714Y-98829762D01*
X186293095Y-98782143D01*
X186245476Y-98686905D01*
X186245476Y-97877381D01*
X185864524Y-97877381D02*
X185197857Y-97877381D01*
X185626429Y-98877381D01*
X149351905Y-99782381D02*
X149351905Y-100591905D01*
X149304286Y-100687143D01*
X149256667Y-100734762D01*
X149161429Y-100782381D01*
X148970952Y-100782381D01*
X148875714Y-100734762D01*
X148828095Y-100687143D01*
X148780476Y-100591905D01*
X148780476Y-99782381D01*
X148351905Y-99877619D02*
X148304286Y-99830000D01*
X148209048Y-99782381D01*
X147970952Y-99782381D01*
X147875714Y-99830000D01*
X147828095Y-99877619D01*
X147780476Y-99972857D01*
X147780476Y-100068095D01*
X147828095Y-100210952D01*
X148399524Y-100782381D01*
X147780476Y-100782381D01*
X111251905Y-102957381D02*
X111251905Y-103766905D01*
X111204286Y-103862143D01*
X111156667Y-103909762D01*
X111061429Y-103957381D01*
X110870952Y-103957381D01*
X110775714Y-103909762D01*
X110728095Y-103862143D01*
X110680476Y-103766905D01*
X110680476Y-102957381D01*
X109775714Y-102957381D02*
X109966191Y-102957381D01*
X110061429Y-103005000D01*
X110109048Y-103052619D01*
X110204286Y-103195476D01*
X110251905Y-103385952D01*
X110251905Y-103766905D01*
X110204286Y-103862143D01*
X110156667Y-103909762D01*
X110061429Y-103957381D01*
X109870952Y-103957381D01*
X109775714Y-103909762D01*
X109728095Y-103862143D01*
X109680476Y-103766905D01*
X109680476Y-103528810D01*
X109728095Y-103433571D01*
X109775714Y-103385952D01*
X109870952Y-103338333D01*
X110061429Y-103338333D01*
X110156667Y-103385952D01*
X110204286Y-103433571D01*
X110251905Y-103528810D01*
X149963095Y-109672381D02*
X149963095Y-108672381D01*
X149582142Y-108672381D01*
X149486904Y-108720000D01*
X149439285Y-108767619D01*
X149391666Y-108862857D01*
X149391666Y-109005714D01*
X149439285Y-109100952D01*
X149486904Y-109148571D01*
X149582142Y-109196190D01*
X149963095Y-109196190D01*
X148439285Y-109672381D02*
X149010714Y-109672381D01*
X148725000Y-109672381D02*
X148725000Y-108672381D01*
X148820238Y-108815238D01*
X148915476Y-108910476D01*
X149010714Y-108958095D01*
X162663095Y-109672381D02*
X162663095Y-108672381D01*
X162282142Y-108672381D01*
X162186904Y-108720000D01*
X162139285Y-108767619D01*
X162091666Y-108862857D01*
X162091666Y-109005714D01*
X162139285Y-109100952D01*
X162186904Y-109148571D01*
X162282142Y-109196190D01*
X162663095Y-109196190D01*
X161710714Y-108767619D02*
X161663095Y-108720000D01*
X161567857Y-108672381D01*
X161329761Y-108672381D01*
X161234523Y-108720000D01*
X161186904Y-108767619D01*
X161139285Y-108862857D01*
X161139285Y-108958095D01*
X161186904Y-109100952D01*
X161758333Y-109672381D01*
X161139285Y-109672381D01*
X89638095Y-57602381D02*
X89638095Y-56602381D01*
X89257142Y-56602381D01*
X89161904Y-56650000D01*
X89114285Y-56697619D01*
X89066666Y-56792857D01*
X89066666Y-56935714D01*
X89114285Y-57030952D01*
X89161904Y-57078571D01*
X89257142Y-57126190D01*
X89638095Y-57126190D01*
X88733333Y-56602381D02*
X88114285Y-56602381D01*
X88447619Y-56983333D01*
X88304761Y-56983333D01*
X88209523Y-57030952D01*
X88161904Y-57078571D01*
X88114285Y-57173810D01*
X88114285Y-57411905D01*
X88161904Y-57507143D01*
X88209523Y-57554762D01*
X88304761Y-57602381D01*
X88590476Y-57602381D01*
X88685714Y-57554762D01*
X88733333Y-57507143D01*
X119197381Y-72921905D02*
X118197381Y-72921905D01*
X118197381Y-73302858D01*
X118245000Y-73398096D01*
X118292619Y-73445715D01*
X118387857Y-73493334D01*
X118530714Y-73493334D01*
X118625952Y-73445715D01*
X118673571Y-73398096D01*
X118721190Y-73302858D01*
X118721190Y-72921905D01*
X118530714Y-74350477D02*
X119197381Y-74350477D01*
X118149762Y-74112381D02*
X118864048Y-73874286D01*
X118864048Y-74493334D01*
X106148095Y-56967381D02*
X106148095Y-55967381D01*
X105767142Y-55967381D01*
X105671904Y-56015000D01*
X105624285Y-56062619D01*
X105576666Y-56157857D01*
X105576666Y-56300714D01*
X105624285Y-56395952D01*
X105671904Y-56443571D01*
X105767142Y-56491190D01*
X106148095Y-56491190D01*
X104671904Y-55967381D02*
X105148095Y-55967381D01*
X105195714Y-56443571D01*
X105148095Y-56395952D01*
X105052857Y-56348333D01*
X104814761Y-56348333D01*
X104719523Y-56395952D01*
X104671904Y-56443571D01*
X104624285Y-56538810D01*
X104624285Y-56776905D01*
X104671904Y-56872143D01*
X104719523Y-56919762D01*
X104814761Y-56967381D01*
X105052857Y-56967381D01*
X105148095Y-56919762D01*
X105195714Y-56872143D01*
X174093095Y-113482381D02*
X174093095Y-112482381D01*
X173712142Y-112482381D01*
X173616904Y-112530000D01*
X173569285Y-112577619D01*
X173521666Y-112672857D01*
X173521666Y-112815714D01*
X173569285Y-112910952D01*
X173616904Y-112958571D01*
X173712142Y-113006190D01*
X174093095Y-113006190D01*
X172664523Y-112482381D02*
X172855000Y-112482381D01*
X172950238Y-112530000D01*
X172997857Y-112577619D01*
X173093095Y-112720476D01*
X173140714Y-112910952D01*
X173140714Y-113291905D01*
X173093095Y-113387143D01*
X173045476Y-113434762D01*
X172950238Y-113482381D01*
X172759761Y-113482381D01*
X172664523Y-113434762D01*
X172616904Y-113387143D01*
X172569285Y-113291905D01*
X172569285Y-113053810D01*
X172616904Y-112958571D01*
X172664523Y-112910952D01*
X172759761Y-112863333D01*
X172950238Y-112863333D01*
X173045476Y-112910952D01*
X173093095Y-112958571D01*
X173140714Y-113053810D01*
X121388095Y-109672381D02*
X121388095Y-108672381D01*
X121007142Y-108672381D01*
X120911904Y-108720000D01*
X120864285Y-108767619D01*
X120816666Y-108862857D01*
X120816666Y-109005714D01*
X120864285Y-109100952D01*
X120911904Y-109148571D01*
X121007142Y-109196190D01*
X121388095Y-109196190D01*
X120483333Y-108672381D02*
X119816666Y-108672381D01*
X120245238Y-109672381D01*
X154757381Y-60856905D02*
X153757381Y-60856905D01*
X153757381Y-61237858D01*
X153805000Y-61333096D01*
X153852619Y-61380715D01*
X153947857Y-61428334D01*
X154090714Y-61428334D01*
X154185952Y-61380715D01*
X154233571Y-61333096D01*
X154281190Y-61237858D01*
X154281190Y-60856905D01*
X154185952Y-61999762D02*
X154138333Y-61904524D01*
X154090714Y-61856905D01*
X153995476Y-61809286D01*
X153947857Y-61809286D01*
X153852619Y-61856905D01*
X153805000Y-61904524D01*
X153757381Y-61999762D01*
X153757381Y-62190239D01*
X153805000Y-62285477D01*
X153852619Y-62333096D01*
X153947857Y-62380715D01*
X153995476Y-62380715D01*
X154090714Y-62333096D01*
X154138333Y-62285477D01*
X154185952Y-62190239D01*
X154185952Y-61999762D01*
X154233571Y-61904524D01*
X154281190Y-61856905D01*
X154376429Y-61809286D01*
X154566905Y-61809286D01*
X154662143Y-61856905D01*
X154709762Y-61904524D01*
X154757381Y-61999762D01*
X154757381Y-62190239D01*
X154709762Y-62285477D01*
X154662143Y-62333096D01*
X154566905Y-62380715D01*
X154376429Y-62380715D01*
X154281190Y-62333096D01*
X154233571Y-62285477D01*
X154185952Y-62190239D01*
X102052381Y-55776905D02*
X101052381Y-55776905D01*
X101052381Y-56015000D01*
X101100000Y-56157858D01*
X101195238Y-56253096D01*
X101290476Y-56300715D01*
X101480952Y-56348334D01*
X101623810Y-56348334D01*
X101814286Y-56300715D01*
X101909524Y-56253096D01*
X102004762Y-56157858D01*
X102052381Y-56015000D01*
X102052381Y-55776905D01*
X102052381Y-57300715D02*
X102052381Y-56729286D01*
X102052381Y-57015000D02*
X101052381Y-57015000D01*
X101195238Y-56919762D01*
X101290476Y-56824524D01*
X101338095Y-56729286D01*
X169076666Y-109672381D02*
X169410000Y-109196190D01*
X169648095Y-109672381D02*
X169648095Y-108672381D01*
X169267142Y-108672381D01*
X169171904Y-108720000D01*
X169124285Y-108767619D01*
X169076666Y-108862857D01*
X169076666Y-109005714D01*
X169124285Y-109100952D01*
X169171904Y-109148571D01*
X169267142Y-109196190D01*
X169648095Y-109196190D01*
X168124285Y-109672381D02*
X168695714Y-109672381D01*
X168410000Y-109672381D02*
X168410000Y-108672381D01*
X168505238Y-108815238D01*
X168600476Y-108910476D01*
X168695714Y-108958095D01*
X165901666Y-109672381D02*
X166235000Y-109196190D01*
X166473095Y-109672381D02*
X166473095Y-108672381D01*
X166092142Y-108672381D01*
X165996904Y-108720000D01*
X165949285Y-108767619D01*
X165901666Y-108862857D01*
X165901666Y-109005714D01*
X165949285Y-109100952D01*
X165996904Y-109148571D01*
X166092142Y-109196190D01*
X166473095Y-109196190D01*
X165520714Y-108767619D02*
X165473095Y-108720000D01*
X165377857Y-108672381D01*
X165139761Y-108672381D01*
X165044523Y-108720000D01*
X164996904Y-108767619D01*
X164949285Y-108862857D01*
X164949285Y-108958095D01*
X164996904Y-109100952D01*
X165568333Y-109672381D01*
X164949285Y-109672381D01*
X158281666Y-109672381D02*
X158615000Y-109196190D01*
X158853095Y-109672381D02*
X158853095Y-108672381D01*
X158472142Y-108672381D01*
X158376904Y-108720000D01*
X158329285Y-108767619D01*
X158281666Y-108862857D01*
X158281666Y-109005714D01*
X158329285Y-109100952D01*
X158376904Y-109148571D01*
X158472142Y-109196190D01*
X158853095Y-109196190D01*
X157948333Y-108672381D02*
X157329285Y-108672381D01*
X157662619Y-109053333D01*
X157519761Y-109053333D01*
X157424523Y-109100952D01*
X157376904Y-109148571D01*
X157329285Y-109243810D01*
X157329285Y-109481905D01*
X157376904Y-109577143D01*
X157424523Y-109624762D01*
X157519761Y-109672381D01*
X157805476Y-109672381D01*
X157900714Y-109624762D01*
X157948333Y-109577143D01*
X153487381Y-112863334D02*
X153011190Y-112530000D01*
X153487381Y-112291905D02*
X152487381Y-112291905D01*
X152487381Y-112672858D01*
X152535000Y-112768096D01*
X152582619Y-112815715D01*
X152677857Y-112863334D01*
X152820714Y-112863334D01*
X152915952Y-112815715D01*
X152963571Y-112768096D01*
X153011190Y-112672858D01*
X153011190Y-112291905D01*
X152820714Y-113720477D02*
X153487381Y-113720477D01*
X152439762Y-113482381D02*
X153154048Y-113244286D01*
X153154048Y-113863334D01*
X112212381Y-109847143D02*
X111736190Y-109513809D01*
X112212381Y-109275714D02*
X111212381Y-109275714D01*
X111212381Y-109656667D01*
X111260000Y-109751905D01*
X111307619Y-109799524D01*
X111402857Y-109847143D01*
X111545714Y-109847143D01*
X111640952Y-109799524D01*
X111688571Y-109751905D01*
X111736190Y-109656667D01*
X111736190Y-109275714D01*
X112212381Y-110799524D02*
X112212381Y-110228095D01*
X112212381Y-110513809D02*
X111212381Y-110513809D01*
X111355238Y-110418571D01*
X111450476Y-110323333D01*
X111498095Y-110228095D01*
X111640952Y-111370952D02*
X111593333Y-111275714D01*
X111545714Y-111228095D01*
X111450476Y-111180476D01*
X111402857Y-111180476D01*
X111307619Y-111228095D01*
X111260000Y-111275714D01*
X111212381Y-111370952D01*
X111212381Y-111561429D01*
X111260000Y-111656667D01*
X111307619Y-111704286D01*
X111402857Y-111751905D01*
X111450476Y-111751905D01*
X111545714Y-111704286D01*
X111593333Y-111656667D01*
X111640952Y-111561429D01*
X111640952Y-111370952D01*
X111688571Y-111275714D01*
X111736190Y-111228095D01*
X111831429Y-111180476D01*
X112021905Y-111180476D01*
X112117143Y-111228095D01*
X112164762Y-111275714D01*
X112212381Y-111370952D01*
X112212381Y-111561429D01*
X112164762Y-111656667D01*
X112117143Y-111704286D01*
X112021905Y-111751905D01*
X111831429Y-111751905D01*
X111736190Y-111704286D01*
X111688571Y-111656667D01*
X111640952Y-111561429D01*
X129992381Y-109847143D02*
X129516190Y-109513809D01*
X129992381Y-109275714D02*
X128992381Y-109275714D01*
X128992381Y-109656667D01*
X129040000Y-109751905D01*
X129087619Y-109799524D01*
X129182857Y-109847143D01*
X129325714Y-109847143D01*
X129420952Y-109799524D01*
X129468571Y-109751905D01*
X129516190Y-109656667D01*
X129516190Y-109275714D01*
X129992381Y-110799524D02*
X129992381Y-110228095D01*
X129992381Y-110513809D02*
X128992381Y-110513809D01*
X129135238Y-110418571D01*
X129230476Y-110323333D01*
X129278095Y-110228095D01*
X129992381Y-111275714D02*
X129992381Y-111466190D01*
X129944762Y-111561429D01*
X129897143Y-111609048D01*
X129754286Y-111704286D01*
X129563810Y-111751905D01*
X129182857Y-111751905D01*
X129087619Y-111704286D01*
X129040000Y-111656667D01*
X128992381Y-111561429D01*
X128992381Y-111370952D01*
X129040000Y-111275714D01*
X129087619Y-111228095D01*
X129182857Y-111180476D01*
X129420952Y-111180476D01*
X129516190Y-111228095D01*
X129563810Y-111275714D01*
X129611429Y-111370952D01*
X129611429Y-111561429D01*
X129563810Y-111656667D01*
X129516190Y-111704286D01*
X129420952Y-111751905D01*
X125102857Y-109672381D02*
X125436191Y-109196190D01*
X125674286Y-109672381D02*
X125674286Y-108672381D01*
X125293333Y-108672381D01*
X125198095Y-108720000D01*
X125150476Y-108767619D01*
X125102857Y-108862857D01*
X125102857Y-109005714D01*
X125150476Y-109100952D01*
X125198095Y-109148571D01*
X125293333Y-109196190D01*
X125674286Y-109196190D01*
X124721905Y-108767619D02*
X124674286Y-108720000D01*
X124579048Y-108672381D01*
X124340952Y-108672381D01*
X124245714Y-108720000D01*
X124198095Y-108767619D01*
X124150476Y-108862857D01*
X124150476Y-108958095D01*
X124198095Y-109100952D01*
X124769524Y-109672381D01*
X124150476Y-109672381D01*
X123531429Y-108672381D02*
X123436190Y-108672381D01*
X123340952Y-108720000D01*
X123293333Y-108767619D01*
X123245714Y-108862857D01*
X123198095Y-109053333D01*
X123198095Y-109291429D01*
X123245714Y-109481905D01*
X123293333Y-109577143D01*
X123340952Y-109624762D01*
X123436190Y-109672381D01*
X123531429Y-109672381D01*
X123626667Y-109624762D01*
X123674286Y-109577143D01*
X123721905Y-109481905D01*
X123769524Y-109291429D01*
X123769524Y-109053333D01*
X123721905Y-108862857D01*
X123674286Y-108767619D01*
X123626667Y-108720000D01*
X123531429Y-108672381D01*
X117482857Y-109672381D02*
X117816191Y-109196190D01*
X118054286Y-109672381D02*
X118054286Y-108672381D01*
X117673333Y-108672381D01*
X117578095Y-108720000D01*
X117530476Y-108767619D01*
X117482857Y-108862857D01*
X117482857Y-109005714D01*
X117530476Y-109100952D01*
X117578095Y-109148571D01*
X117673333Y-109196190D01*
X118054286Y-109196190D01*
X117101905Y-108767619D02*
X117054286Y-108720000D01*
X116959048Y-108672381D01*
X116720952Y-108672381D01*
X116625714Y-108720000D01*
X116578095Y-108767619D01*
X116530476Y-108862857D01*
X116530476Y-108958095D01*
X116578095Y-109100952D01*
X117149524Y-109672381D01*
X116530476Y-109672381D01*
X115578095Y-109672381D02*
X116149524Y-109672381D01*
X115863810Y-109672381D02*
X115863810Y-108672381D01*
X115959048Y-108815238D01*
X116054286Y-108910476D01*
X116149524Y-108958095D01*
X142297381Y-112387143D02*
X141821190Y-112053809D01*
X142297381Y-111815714D02*
X141297381Y-111815714D01*
X141297381Y-112196667D01*
X141345000Y-112291905D01*
X141392619Y-112339524D01*
X141487857Y-112387143D01*
X141630714Y-112387143D01*
X141725952Y-112339524D01*
X141773571Y-112291905D01*
X141821190Y-112196667D01*
X141821190Y-111815714D01*
X141392619Y-112768095D02*
X141345000Y-112815714D01*
X141297381Y-112910952D01*
X141297381Y-113149048D01*
X141345000Y-113244286D01*
X141392619Y-113291905D01*
X141487857Y-113339524D01*
X141583095Y-113339524D01*
X141725952Y-113291905D01*
X142297381Y-112720476D01*
X142297381Y-113339524D01*
X141297381Y-113672857D02*
X141297381Y-114291905D01*
X141678333Y-113958571D01*
X141678333Y-114101429D01*
X141725952Y-114196667D01*
X141773571Y-114244286D01*
X141868810Y-114291905D01*
X142106905Y-114291905D01*
X142202143Y-114244286D01*
X142249762Y-114196667D01*
X142297381Y-114101429D01*
X142297381Y-113815714D01*
X142249762Y-113720476D01*
X142202143Y-113672857D01*
X162726666Y-95067381D02*
X163060000Y-94591190D01*
X163298095Y-95067381D02*
X163298095Y-94067381D01*
X162917142Y-94067381D01*
X162821904Y-94115000D01*
X162774285Y-94162619D01*
X162726666Y-94257857D01*
X162726666Y-94400714D01*
X162774285Y-94495952D01*
X162821904Y-94543571D01*
X162917142Y-94591190D01*
X163298095Y-94591190D01*
X161821904Y-94067381D02*
X162298095Y-94067381D01*
X162345714Y-94543571D01*
X162298095Y-94495952D01*
X162202857Y-94448333D01*
X161964761Y-94448333D01*
X161869523Y-94495952D01*
X161821904Y-94543571D01*
X161774285Y-94638810D01*
X161774285Y-94876905D01*
X161821904Y-94972143D01*
X161869523Y-95019762D01*
X161964761Y-95067381D01*
X162202857Y-95067381D01*
X162298095Y-95019762D01*
X162345714Y-94972143D01*
X155106666Y-95067381D02*
X155440000Y-94591190D01*
X155678095Y-95067381D02*
X155678095Y-94067381D01*
X155297142Y-94067381D01*
X155201904Y-94115000D01*
X155154285Y-94162619D01*
X155106666Y-94257857D01*
X155106666Y-94400714D01*
X155154285Y-94495952D01*
X155201904Y-94543571D01*
X155297142Y-94591190D01*
X155678095Y-94591190D01*
X154249523Y-94067381D02*
X154440000Y-94067381D01*
X154535238Y-94115000D01*
X154582857Y-94162619D01*
X154678095Y-94305476D01*
X154725714Y-94495952D01*
X154725714Y-94876905D01*
X154678095Y-94972143D01*
X154630476Y-95019762D01*
X154535238Y-95067381D01*
X154344761Y-95067381D01*
X154249523Y-95019762D01*
X154201904Y-94972143D01*
X154154285Y-94876905D01*
X154154285Y-94638810D01*
X154201904Y-94543571D01*
X154249523Y-94495952D01*
X154344761Y-94448333D01*
X154535238Y-94448333D01*
X154630476Y-94495952D01*
X154678095Y-94543571D01*
X154725714Y-94638810D01*
X128912857Y-96972381D02*
X129246191Y-96496190D01*
X129484286Y-96972381D02*
X129484286Y-95972381D01*
X129103333Y-95972381D01*
X129008095Y-96020000D01*
X128960476Y-96067619D01*
X128912857Y-96162857D01*
X128912857Y-96305714D01*
X128960476Y-96400952D01*
X129008095Y-96448571D01*
X129103333Y-96496190D01*
X129484286Y-96496190D01*
X127960476Y-96972381D02*
X128531905Y-96972381D01*
X128246191Y-96972381D02*
X128246191Y-95972381D01*
X128341429Y-96115238D01*
X128436667Y-96210476D01*
X128531905Y-96258095D01*
X127579524Y-96067619D02*
X127531905Y-96020000D01*
X127436667Y-95972381D01*
X127198571Y-95972381D01*
X127103333Y-96020000D01*
X127055714Y-96067619D01*
X127008095Y-96162857D01*
X127008095Y-96258095D01*
X127055714Y-96400952D01*
X127627143Y-96972381D01*
X127008095Y-96972381D01*
X111132857Y-96972381D02*
X111466191Y-96496190D01*
X111704286Y-96972381D02*
X111704286Y-95972381D01*
X111323333Y-95972381D01*
X111228095Y-96020000D01*
X111180476Y-96067619D01*
X111132857Y-96162857D01*
X111132857Y-96305714D01*
X111180476Y-96400952D01*
X111228095Y-96448571D01*
X111323333Y-96496190D01*
X111704286Y-96496190D01*
X110180476Y-96972381D02*
X110751905Y-96972381D01*
X110466191Y-96972381D02*
X110466191Y-95972381D01*
X110561429Y-96115238D01*
X110656667Y-96210476D01*
X110751905Y-96258095D01*
X109323333Y-96305714D02*
X109323333Y-96972381D01*
X109561429Y-95924762D02*
X109799524Y-96639048D01*
X109180476Y-96639048D01*
X180347857Y-89257143D02*
X180395476Y-89304762D01*
X180538333Y-89352381D01*
X180633571Y-89352381D01*
X180776429Y-89304762D01*
X180871667Y-89209524D01*
X180919286Y-89114286D01*
X180966905Y-88923810D01*
X180966905Y-88780952D01*
X180919286Y-88590476D01*
X180871667Y-88495238D01*
X180776429Y-88400000D01*
X180633571Y-88352381D01*
X180538333Y-88352381D01*
X180395476Y-88400000D01*
X180347857Y-88447619D01*
X179395476Y-89352381D02*
X179966905Y-89352381D01*
X179681191Y-89352381D02*
X179681191Y-88352381D01*
X179776429Y-88495238D01*
X179871667Y-88590476D01*
X179966905Y-88638095D01*
X179062143Y-88352381D02*
X178443095Y-88352381D01*
X178776429Y-88733333D01*
X178633571Y-88733333D01*
X178538333Y-88780952D01*
X178490714Y-88828571D01*
X178443095Y-88923810D01*
X178443095Y-89161905D01*
X178490714Y-89257143D01*
X178538333Y-89304762D01*
X178633571Y-89352381D01*
X178919286Y-89352381D01*
X179014524Y-89304762D01*
X179062143Y-89257143D01*
X174047381Y-93178334D02*
X173571190Y-92845000D01*
X174047381Y-92606905D02*
X173047381Y-92606905D01*
X173047381Y-92987858D01*
X173095000Y-93083096D01*
X173142619Y-93130715D01*
X173237857Y-93178334D01*
X173380714Y-93178334D01*
X173475952Y-93130715D01*
X173523571Y-93083096D01*
X173571190Y-92987858D01*
X173571190Y-92606905D01*
X173047381Y-93511667D02*
X173047381Y-94178334D01*
X174047381Y-93749762D01*
X186267381Y-92702143D02*
X185791190Y-92368809D01*
X186267381Y-92130714D02*
X185267381Y-92130714D01*
X185267381Y-92511667D01*
X185315000Y-92606905D01*
X185362619Y-92654524D01*
X185457857Y-92702143D01*
X185600714Y-92702143D01*
X185695952Y-92654524D01*
X185743571Y-92606905D01*
X185791190Y-92511667D01*
X185791190Y-92130714D01*
X186267381Y-93654524D02*
X186267381Y-93083095D01*
X186267381Y-93368809D02*
X185267381Y-93368809D01*
X185410238Y-93273571D01*
X185505476Y-93178333D01*
X185553095Y-93083095D01*
X186267381Y-94606905D02*
X186267381Y-94035476D01*
X186267381Y-94321190D02*
X185267381Y-94321190D01*
X185410238Y-94225952D01*
X185505476Y-94130714D01*
X185553095Y-94035476D01*
X116371666Y-82367381D02*
X116705000Y-81891190D01*
X116943095Y-82367381D02*
X116943095Y-81367381D01*
X116562142Y-81367381D01*
X116466904Y-81415000D01*
X116419285Y-81462619D01*
X116371666Y-81557857D01*
X116371666Y-81700714D01*
X116419285Y-81795952D01*
X116466904Y-81843571D01*
X116562142Y-81891190D01*
X116943095Y-81891190D01*
X115895476Y-82367381D02*
X115705000Y-82367381D01*
X115609761Y-82319762D01*
X115562142Y-82272143D01*
X115466904Y-82129286D01*
X115419285Y-81938810D01*
X115419285Y-81557857D01*
X115466904Y-81462619D01*
X115514523Y-81415000D01*
X115609761Y-81367381D01*
X115800238Y-81367381D01*
X115895476Y-81415000D01*
X115943095Y-81462619D01*
X115990714Y-81557857D01*
X115990714Y-81795952D01*
X115943095Y-81891190D01*
X115895476Y-81938810D01*
X115800238Y-81986429D01*
X115609761Y-81986429D01*
X115514523Y-81938810D01*
X115466904Y-81891190D01*
X115419285Y-81795952D01*
X120467381Y-80002143D02*
X119991190Y-79668809D01*
X120467381Y-79430714D02*
X119467381Y-79430714D01*
X119467381Y-79811667D01*
X119515000Y-79906905D01*
X119562619Y-79954524D01*
X119657857Y-80002143D01*
X119800714Y-80002143D01*
X119895952Y-79954524D01*
X119943571Y-79906905D01*
X119991190Y-79811667D01*
X119991190Y-79430714D01*
X120467381Y-80954524D02*
X120467381Y-80383095D01*
X120467381Y-80668809D02*
X119467381Y-80668809D01*
X119610238Y-80573571D01*
X119705476Y-80478333D01*
X119753095Y-80383095D01*
X119467381Y-81573571D02*
X119467381Y-81668810D01*
X119515000Y-81764048D01*
X119562619Y-81811667D01*
X119657857Y-81859286D01*
X119848333Y-81906905D01*
X120086429Y-81906905D01*
X120276905Y-81859286D01*
X120372143Y-81811667D01*
X120419762Y-81764048D01*
X120467381Y-81668810D01*
X120467381Y-81573571D01*
X120419762Y-81478333D01*
X120372143Y-81430714D01*
X120276905Y-81383095D01*
X120086429Y-81335476D01*
X119848333Y-81335476D01*
X119657857Y-81383095D01*
X119562619Y-81430714D01*
X119515000Y-81478333D01*
X119467381Y-81573571D01*
X142597143Y-54602143D02*
X142644762Y-54554524D01*
X142692381Y-54411667D01*
X142692381Y-54316429D01*
X142644762Y-54173571D01*
X142549524Y-54078333D01*
X142454286Y-54030714D01*
X142263810Y-53983095D01*
X142120952Y-53983095D01*
X141930476Y-54030714D01*
X141835238Y-54078333D01*
X141740000Y-54173571D01*
X141692381Y-54316429D01*
X141692381Y-54411667D01*
X141740000Y-54554524D01*
X141787619Y-54602143D01*
X142692381Y-55554524D02*
X142692381Y-54983095D01*
X142692381Y-55268809D02*
X141692381Y-55268809D01*
X141835238Y-55173571D01*
X141930476Y-55078333D01*
X141978095Y-54983095D01*
X142120952Y-56125952D02*
X142073333Y-56030714D01*
X142025714Y-55983095D01*
X141930476Y-55935476D01*
X141882857Y-55935476D01*
X141787619Y-55983095D01*
X141740000Y-56030714D01*
X141692381Y-56125952D01*
X141692381Y-56316429D01*
X141740000Y-56411667D01*
X141787619Y-56459286D01*
X141882857Y-56506905D01*
X141930476Y-56506905D01*
X142025714Y-56459286D01*
X142073333Y-56411667D01*
X142120952Y-56316429D01*
X142120952Y-56125952D01*
X142168571Y-56030714D01*
X142216190Y-55983095D01*
X142311429Y-55935476D01*
X142501905Y-55935476D01*
X142597143Y-55983095D01*
X142644762Y-56030714D01*
X142692381Y-56125952D01*
X142692381Y-56316429D01*
X142644762Y-56411667D01*
X142597143Y-56459286D01*
X142501905Y-56506905D01*
X142311429Y-56506905D01*
X142216190Y-56459286D01*
X142168571Y-56411667D01*
X142120952Y-56316429D01*
X171807143Y-54602143D02*
X171854762Y-54554524D01*
X171902381Y-54411667D01*
X171902381Y-54316429D01*
X171854762Y-54173571D01*
X171759524Y-54078333D01*
X171664286Y-54030714D01*
X171473810Y-53983095D01*
X171330952Y-53983095D01*
X171140476Y-54030714D01*
X171045238Y-54078333D01*
X170950000Y-54173571D01*
X170902381Y-54316429D01*
X170902381Y-54411667D01*
X170950000Y-54554524D01*
X170997619Y-54602143D01*
X171902381Y-55554524D02*
X171902381Y-54983095D01*
X171902381Y-55268809D02*
X170902381Y-55268809D01*
X171045238Y-55173571D01*
X171140476Y-55078333D01*
X171188095Y-54983095D01*
X171902381Y-56030714D02*
X171902381Y-56221190D01*
X171854762Y-56316429D01*
X171807143Y-56364048D01*
X171664286Y-56459286D01*
X171473810Y-56506905D01*
X171092857Y-56506905D01*
X170997619Y-56459286D01*
X170950000Y-56411667D01*
X170902381Y-56316429D01*
X170902381Y-56125952D01*
X170950000Y-56030714D01*
X170997619Y-55983095D01*
X171092857Y-55935476D01*
X171330952Y-55935476D01*
X171426190Y-55983095D01*
X171473810Y-56030714D01*
X171521429Y-56125952D01*
X171521429Y-56316429D01*
X171473810Y-56411667D01*
X171426190Y-56459286D01*
X171330952Y-56506905D01*
X146407143Y-54602143D02*
X146454762Y-54554524D01*
X146502381Y-54411667D01*
X146502381Y-54316429D01*
X146454762Y-54173571D01*
X146359524Y-54078333D01*
X146264286Y-54030714D01*
X146073810Y-53983095D01*
X145930952Y-53983095D01*
X145740476Y-54030714D01*
X145645238Y-54078333D01*
X145550000Y-54173571D01*
X145502381Y-54316429D01*
X145502381Y-54411667D01*
X145550000Y-54554524D01*
X145597619Y-54602143D01*
X145597619Y-54983095D02*
X145550000Y-55030714D01*
X145502381Y-55125952D01*
X145502381Y-55364048D01*
X145550000Y-55459286D01*
X145597619Y-55506905D01*
X145692857Y-55554524D01*
X145788095Y-55554524D01*
X145930952Y-55506905D01*
X146502381Y-54935476D01*
X146502381Y-55554524D01*
X146502381Y-56506905D02*
X146502381Y-55935476D01*
X146502381Y-56221190D02*
X145502381Y-56221190D01*
X145645238Y-56125952D01*
X145740476Y-56030714D01*
X145788095Y-55935476D01*
X160377143Y-61587143D02*
X160424762Y-61539524D01*
X160472381Y-61396667D01*
X160472381Y-61301429D01*
X160424762Y-61158571D01*
X160329524Y-61063333D01*
X160234286Y-61015714D01*
X160043810Y-60968095D01*
X159900952Y-60968095D01*
X159710476Y-61015714D01*
X159615238Y-61063333D01*
X159520000Y-61158571D01*
X159472381Y-61301429D01*
X159472381Y-61396667D01*
X159520000Y-61539524D01*
X159567619Y-61587143D01*
X159567619Y-61968095D02*
X159520000Y-62015714D01*
X159472381Y-62110952D01*
X159472381Y-62349048D01*
X159520000Y-62444286D01*
X159567619Y-62491905D01*
X159662857Y-62539524D01*
X159758095Y-62539524D01*
X159900952Y-62491905D01*
X160472381Y-61920476D01*
X160472381Y-62539524D01*
X159567619Y-62920476D02*
X159520000Y-62968095D01*
X159472381Y-63063333D01*
X159472381Y-63301429D01*
X159520000Y-63396667D01*
X159567619Y-63444286D01*
X159662857Y-63491905D01*
X159758095Y-63491905D01*
X159900952Y-63444286D01*
X160472381Y-62872857D01*
X160472381Y-63491905D01*
X114307857Y-71477143D02*
X114355476Y-71524762D01*
X114498333Y-71572381D01*
X114593571Y-71572381D01*
X114736429Y-71524762D01*
X114831667Y-71429524D01*
X114879286Y-71334286D01*
X114926905Y-71143810D01*
X114926905Y-71000952D01*
X114879286Y-70810476D01*
X114831667Y-70715238D01*
X114736429Y-70620000D01*
X114593571Y-70572381D01*
X114498333Y-70572381D01*
X114355476Y-70620000D01*
X114307857Y-70667619D01*
X113355476Y-71572381D02*
X113926905Y-71572381D01*
X113641191Y-71572381D02*
X113641191Y-70572381D01*
X113736429Y-70715238D01*
X113831667Y-70810476D01*
X113926905Y-70858095D01*
X113022143Y-70572381D02*
X112355476Y-70572381D01*
X112784048Y-71572381D01*
X102592143Y-75557143D02*
X102639762Y-75509524D01*
X102687381Y-75366667D01*
X102687381Y-75271429D01*
X102639762Y-75128571D01*
X102544524Y-75033333D01*
X102449286Y-74985714D01*
X102258810Y-74938095D01*
X102115952Y-74938095D01*
X101925476Y-74985714D01*
X101830238Y-75033333D01*
X101735000Y-75128571D01*
X101687381Y-75271429D01*
X101687381Y-75366667D01*
X101735000Y-75509524D01*
X101782619Y-75557143D01*
X101782619Y-75938095D02*
X101735000Y-75985714D01*
X101687381Y-76080952D01*
X101687381Y-76319048D01*
X101735000Y-76414286D01*
X101782619Y-76461905D01*
X101877857Y-76509524D01*
X101973095Y-76509524D01*
X102115952Y-76461905D01*
X102687381Y-75890476D01*
X102687381Y-76509524D01*
X101687381Y-77128571D02*
X101687381Y-77223810D01*
X101735000Y-77319048D01*
X101782619Y-77366667D01*
X101877857Y-77414286D01*
X102068333Y-77461905D01*
X102306429Y-77461905D01*
X102496905Y-77414286D01*
X102592143Y-77366667D01*
X102639762Y-77319048D01*
X102687381Y-77223810D01*
X102687381Y-77128571D01*
X102639762Y-77033333D01*
X102592143Y-76985714D01*
X102496905Y-76938095D01*
X102306429Y-76890476D01*
X102068333Y-76890476D01*
X101877857Y-76938095D01*
X101782619Y-76985714D01*
X101735000Y-77033333D01*
X101687381Y-77128571D01*
X115387381Y-76033334D02*
X115387381Y-75557143D01*
X114387381Y-75557143D01*
X114387381Y-76271429D02*
X114387381Y-76890477D01*
X114768333Y-76557143D01*
X114768333Y-76700001D01*
X114815952Y-76795239D01*
X114863571Y-76842858D01*
X114958810Y-76890477D01*
X115196905Y-76890477D01*
X115292143Y-76842858D01*
X115339762Y-76795239D01*
X115387381Y-76700001D01*
X115387381Y-76414286D01*
X115339762Y-76319048D01*
X115292143Y-76271429D01*
X186697857Y-67762381D02*
X187031191Y-67286190D01*
X187269286Y-67762381D02*
X187269286Y-66762381D01*
X186888333Y-66762381D01*
X186793095Y-66810000D01*
X186745476Y-66857619D01*
X186697857Y-66952857D01*
X186697857Y-67095714D01*
X186745476Y-67190952D01*
X186793095Y-67238571D01*
X186888333Y-67286190D01*
X187269286Y-67286190D01*
X185745476Y-67762381D02*
X186316905Y-67762381D01*
X186031191Y-67762381D02*
X186031191Y-66762381D01*
X186126429Y-66905238D01*
X186221667Y-67000476D01*
X186316905Y-67048095D01*
X184840714Y-66762381D02*
X185316905Y-66762381D01*
X185364524Y-67238571D01*
X185316905Y-67190952D01*
X185221667Y-67143333D01*
X184983571Y-67143333D01*
X184888333Y-67190952D01*
X184840714Y-67238571D01*
X184793095Y-67333810D01*
X184793095Y-67571905D01*
X184840714Y-67667143D01*
X184888333Y-67714762D01*
X184983571Y-67762381D01*
X185221667Y-67762381D01*
X185316905Y-67714762D01*
X185364524Y-67667143D01*
X182252857Y-62922381D02*
X182586191Y-62446190D01*
X182824286Y-62922381D02*
X182824286Y-61922381D01*
X182443333Y-61922381D01*
X182348095Y-61970000D01*
X182300476Y-62017619D01*
X182252857Y-62112857D01*
X182252857Y-62255714D01*
X182300476Y-62350952D01*
X182348095Y-62398571D01*
X182443333Y-62446190D01*
X182824286Y-62446190D01*
X181300476Y-62922381D02*
X181871905Y-62922381D01*
X181586191Y-62922381D02*
X181586191Y-61922381D01*
X181681429Y-62065238D01*
X181776667Y-62160476D01*
X181871905Y-62208095D01*
X180443333Y-61922381D02*
X180633810Y-61922381D01*
X180729048Y-61970000D01*
X180776667Y-62017619D01*
X180871905Y-62160476D01*
X180919524Y-62350952D01*
X180919524Y-62731905D01*
X180871905Y-62827143D01*
X180824286Y-62874762D01*
X180729048Y-62922381D01*
X180538571Y-62922381D01*
X180443333Y-62874762D01*
X180395714Y-62827143D01*
X180348095Y-62731905D01*
X180348095Y-62493810D01*
X180395714Y-62398571D01*
X180443333Y-62350952D01*
X180538571Y-62303333D01*
X180729048Y-62303333D01*
X180824286Y-62350952D01*
X180871905Y-62398571D01*
X180919524Y-62493810D01*
X105862381Y-60952143D02*
X105386190Y-60618809D01*
X105862381Y-60380714D02*
X104862381Y-60380714D01*
X104862381Y-60761667D01*
X104910000Y-60856905D01*
X104957619Y-60904524D01*
X105052857Y-60952143D01*
X105195714Y-60952143D01*
X105290952Y-60904524D01*
X105338571Y-60856905D01*
X105386190Y-60761667D01*
X105386190Y-60380714D01*
X105862381Y-61904524D02*
X105862381Y-61333095D01*
X105862381Y-61618809D02*
X104862381Y-61618809D01*
X105005238Y-61523571D01*
X105100476Y-61428333D01*
X105148095Y-61333095D01*
X104862381Y-62237857D02*
X104862381Y-62904524D01*
X105862381Y-62475952D01*
X180157381Y-80478334D02*
X179681190Y-80145000D01*
X180157381Y-79906905D02*
X179157381Y-79906905D01*
X179157381Y-80287858D01*
X179205000Y-80383096D01*
X179252619Y-80430715D01*
X179347857Y-80478334D01*
X179490714Y-80478334D01*
X179585952Y-80430715D01*
X179633571Y-80383096D01*
X179681190Y-80287858D01*
X179681190Y-79906905D01*
X179585952Y-81049762D02*
X179538333Y-80954524D01*
X179490714Y-80906905D01*
X179395476Y-80859286D01*
X179347857Y-80859286D01*
X179252619Y-80906905D01*
X179205000Y-80954524D01*
X179157381Y-81049762D01*
X179157381Y-81240239D01*
X179205000Y-81335477D01*
X179252619Y-81383096D01*
X179347857Y-81430715D01*
X179395476Y-81430715D01*
X179490714Y-81383096D01*
X179538333Y-81335477D01*
X179585952Y-81240239D01*
X179585952Y-81049762D01*
X179633571Y-80954524D01*
X179681190Y-80906905D01*
X179776429Y-80859286D01*
X179966905Y-80859286D01*
X180062143Y-80906905D01*
X180109762Y-80954524D01*
X180157381Y-81049762D01*
X180157381Y-81240239D01*
X180109762Y-81335477D01*
X180062143Y-81383096D01*
X179966905Y-81430715D01*
X179776429Y-81430715D01*
X179681190Y-81383096D01*
X179633571Y-81335477D01*
X179585952Y-81240239D01*
X187142381Y-88257143D02*
X186666190Y-87923809D01*
X187142381Y-87685714D02*
X186142381Y-87685714D01*
X186142381Y-88066667D01*
X186190000Y-88161905D01*
X186237619Y-88209524D01*
X186332857Y-88257143D01*
X186475714Y-88257143D01*
X186570952Y-88209524D01*
X186618571Y-88161905D01*
X186666190Y-88066667D01*
X186666190Y-87685714D01*
X187142381Y-89209524D02*
X187142381Y-88638095D01*
X187142381Y-88923809D02*
X186142381Y-88923809D01*
X186285238Y-88828571D01*
X186380476Y-88733333D01*
X186428095Y-88638095D01*
X186142381Y-89542857D02*
X186142381Y-90161905D01*
X186523333Y-89828571D01*
X186523333Y-89971429D01*
X186570952Y-90066667D01*
X186618571Y-90114286D01*
X186713810Y-90161905D01*
X186951905Y-90161905D01*
X187047143Y-90114286D01*
X187094762Y-90066667D01*
X187142381Y-89971429D01*
X187142381Y-89685714D01*
X187094762Y-89590476D01*
X187047143Y-89542857D01*
X144311666Y-61607381D02*
X144787857Y-61607381D01*
X144787857Y-60607381D01*
X143549761Y-60940714D02*
X143549761Y-61607381D01*
X143787857Y-60559762D02*
X144025952Y-61274048D01*
X143406904Y-61274048D01*
X164631666Y-63952381D02*
X165107857Y-63952381D01*
X165107857Y-62952381D01*
X163822142Y-62952381D02*
X164298333Y-62952381D01*
X164345952Y-63428571D01*
X164298333Y-63380952D01*
X164203095Y-63333333D01*
X163964999Y-63333333D01*
X163869761Y-63380952D01*
X163822142Y-63428571D01*
X163774523Y-63523810D01*
X163774523Y-63761905D01*
X163822142Y-63857143D01*
X163869761Y-63904762D01*
X163964999Y-63952381D01*
X164203095Y-63952381D01*
X164298333Y-63904762D01*
X164345952Y-63857143D01*
X139517381Y-102068334D02*
X139517381Y-101592143D01*
X138517381Y-101592143D01*
X139517381Y-102925477D02*
X139517381Y-102354048D01*
X139517381Y-102639762D02*
X138517381Y-102639762D01*
X138660238Y-102544524D01*
X138755476Y-102449286D01*
X138803095Y-102354048D01*
X102687381Y-104608334D02*
X102687381Y-104132143D01*
X101687381Y-104132143D01*
X101782619Y-104894048D02*
X101735000Y-104941667D01*
X101687381Y-105036905D01*
X101687381Y-105275001D01*
X101735000Y-105370239D01*
X101782619Y-105417858D01*
X101877857Y-105465477D01*
X101973095Y-105465477D01*
X102115952Y-105417858D01*
X102687381Y-104846429D01*
X102687381Y-105465477D01*
X96877143Y-65873334D02*
X96924762Y-65825715D01*
X96972381Y-65682858D01*
X96972381Y-65587620D01*
X96924762Y-65444762D01*
X96829524Y-65349524D01*
X96734286Y-65301905D01*
X96543810Y-65254286D01*
X96400952Y-65254286D01*
X96210476Y-65301905D01*
X96115238Y-65349524D01*
X96020000Y-65444762D01*
X95972381Y-65587620D01*
X95972381Y-65682858D01*
X96020000Y-65825715D01*
X96067619Y-65873334D01*
X95972381Y-66206667D02*
X95972381Y-66825715D01*
X96353333Y-66492381D01*
X96353333Y-66635239D01*
X96400952Y-66730477D01*
X96448571Y-66778096D01*
X96543810Y-66825715D01*
X96781905Y-66825715D01*
X96877143Y-66778096D01*
X96924762Y-66730477D01*
X96972381Y-66635239D01*
X96972381Y-66349524D01*
X96924762Y-66254286D01*
X96877143Y-66206667D01*
X80782143Y-100828334D02*
X80829762Y-100780715D01*
X80877381Y-100637858D01*
X80877381Y-100542620D01*
X80829762Y-100399762D01*
X80734524Y-100304524D01*
X80639286Y-100256905D01*
X80448810Y-100209286D01*
X80305952Y-100209286D01*
X80115476Y-100256905D01*
X80020238Y-100304524D01*
X79925000Y-100399762D01*
X79877381Y-100542620D01*
X79877381Y-100637858D01*
X79925000Y-100780715D01*
X79972619Y-100828334D01*
X80210714Y-101685477D02*
X80877381Y-101685477D01*
X79829762Y-101447381D02*
X80544048Y-101209286D01*
X80544048Y-101828334D01*
X100687143Y-100798334D02*
X100734762Y-100750715D01*
X100782381Y-100607858D01*
X100782381Y-100512620D01*
X100734762Y-100369762D01*
X100639524Y-100274524D01*
X100544286Y-100226905D01*
X100353810Y-100179286D01*
X100210952Y-100179286D01*
X100020476Y-100226905D01*
X99925238Y-100274524D01*
X99830000Y-100369762D01*
X99782381Y-100512620D01*
X99782381Y-100607858D01*
X99830000Y-100750715D01*
X99877619Y-100798334D01*
X100782381Y-101274524D02*
X100782381Y-101465000D01*
X100734762Y-101560239D01*
X100687143Y-101607858D01*
X100544286Y-101703096D01*
X100353810Y-101750715D01*
X99972857Y-101750715D01*
X99877619Y-101703096D01*
X99830000Y-101655477D01*
X99782381Y-101560239D01*
X99782381Y-101369762D01*
X99830000Y-101274524D01*
X99877619Y-101226905D01*
X99972857Y-101179286D01*
X100210952Y-101179286D01*
X100306190Y-101226905D01*
X100353810Y-101274524D01*
X100401429Y-101369762D01*
X100401429Y-101560239D01*
X100353810Y-101655477D01*
X100306190Y-101703096D01*
X100210952Y-101750715D01*
X169047143Y-71777143D02*
X169094762Y-71729524D01*
X169142381Y-71586667D01*
X169142381Y-71491429D01*
X169094762Y-71348571D01*
X168999524Y-71253333D01*
X168904286Y-71205714D01*
X168713810Y-71158095D01*
X168570952Y-71158095D01*
X168380476Y-71205714D01*
X168285238Y-71253333D01*
X168190000Y-71348571D01*
X168142381Y-71491429D01*
X168142381Y-71586667D01*
X168190000Y-71729524D01*
X168237619Y-71777143D01*
X169142381Y-72729524D02*
X169142381Y-72158095D01*
X169142381Y-72443809D02*
X168142381Y-72443809D01*
X168285238Y-72348571D01*
X168380476Y-72253333D01*
X168428095Y-72158095D01*
X168475714Y-73586667D02*
X169142381Y-73586667D01*
X168094762Y-73348571D02*
X168809048Y-73110476D01*
X168809048Y-73729524D01*
X186697857Y-69572143D02*
X186745476Y-69619762D01*
X186888333Y-69667381D01*
X186983571Y-69667381D01*
X187126429Y-69619762D01*
X187221667Y-69524524D01*
X187269286Y-69429286D01*
X187316905Y-69238810D01*
X187316905Y-69095952D01*
X187269286Y-68905476D01*
X187221667Y-68810238D01*
X187126429Y-68715000D01*
X186983571Y-68667381D01*
X186888333Y-68667381D01*
X186745476Y-68715000D01*
X186697857Y-68762619D01*
X185745476Y-69667381D02*
X186316905Y-69667381D01*
X186031191Y-69667381D02*
X186031191Y-68667381D01*
X186126429Y-68810238D01*
X186221667Y-68905476D01*
X186316905Y-68953095D01*
X184793095Y-69667381D02*
X185364524Y-69667381D01*
X185078810Y-69667381D02*
X185078810Y-68667381D01*
X185174048Y-68810238D01*
X185269286Y-68905476D01*
X185364524Y-68953095D01*
X101607857Y-70842143D02*
X101655476Y-70889762D01*
X101798333Y-70937381D01*
X101893571Y-70937381D01*
X102036429Y-70889762D01*
X102131667Y-70794524D01*
X102179286Y-70699286D01*
X102226905Y-70508810D01*
X102226905Y-70365952D01*
X102179286Y-70175476D01*
X102131667Y-70080238D01*
X102036429Y-69985000D01*
X101893571Y-69937381D01*
X101798333Y-69937381D01*
X101655476Y-69985000D01*
X101607857Y-70032619D01*
X100655476Y-70937381D02*
X101226905Y-70937381D01*
X100941191Y-70937381D02*
X100941191Y-69937381D01*
X101036429Y-70080238D01*
X101131667Y-70175476D01*
X101226905Y-70223095D01*
X99798333Y-69937381D02*
X99988810Y-69937381D01*
X100084048Y-69985000D01*
X100131667Y-70032619D01*
X100226905Y-70175476D01*
X100274524Y-70365952D01*
X100274524Y-70746905D01*
X100226905Y-70842143D01*
X100179286Y-70889762D01*
X100084048Y-70937381D01*
X99893571Y-70937381D01*
X99798333Y-70889762D01*
X99750714Y-70842143D01*
X99703095Y-70746905D01*
X99703095Y-70508810D01*
X99750714Y-70413571D01*
X99798333Y-70365952D01*
X99893571Y-70318333D01*
X100084048Y-70318333D01*
X100179286Y-70365952D01*
X100226905Y-70413571D01*
X100274524Y-70508810D01*
X132183095Y-63952381D02*
X132183095Y-62952381D01*
X131611666Y-63952381D02*
X132040238Y-63380952D01*
X131611666Y-62952381D02*
X132183095Y-63523810D01*
X130659285Y-63952381D02*
X131230714Y-63952381D01*
X130945000Y-63952381D02*
X130945000Y-62952381D01*
X131040238Y-63095238D01*
X131135476Y-63190476D01*
X131230714Y-63238095D01*
X165679286Y-53792381D02*
X165679286Y-52792381D01*
X165298333Y-52792381D01*
X165203095Y-52840000D01*
X165155476Y-52887619D01*
X165107857Y-52982857D01*
X165107857Y-53125714D01*
X165155476Y-53220952D01*
X165203095Y-53268571D01*
X165298333Y-53316190D01*
X165679286Y-53316190D01*
X164155476Y-53792381D02*
X164726905Y-53792381D01*
X164441191Y-53792381D02*
X164441191Y-52792381D01*
X164536429Y-52935238D01*
X164631667Y-53030476D01*
X164726905Y-53078095D01*
X163536429Y-52792381D02*
X163441190Y-52792381D01*
X163345952Y-52840000D01*
X163298333Y-52887619D01*
X163250714Y-52982857D01*
X163203095Y-53173333D01*
X163203095Y-53411429D01*
X163250714Y-53601905D01*
X163298333Y-53697143D01*
X163345952Y-53744762D01*
X163441190Y-53792381D01*
X163536429Y-53792381D01*
X163631667Y-53744762D01*
X163679286Y-53697143D01*
X163726905Y-53601905D01*
X163774524Y-53411429D01*
X163774524Y-53173333D01*
X163726905Y-52982857D01*
X163679286Y-52887619D01*
X163631667Y-52840000D01*
X163536429Y-52792381D01*
X119324286Y-90622381D02*
X119324286Y-89622381D01*
X118943333Y-89622381D01*
X118848095Y-89670000D01*
X118800476Y-89717619D01*
X118752857Y-89812857D01*
X118752857Y-89955714D01*
X118800476Y-90050952D01*
X118848095Y-90098571D01*
X118943333Y-90146190D01*
X119324286Y-90146190D01*
X117800476Y-90622381D02*
X118371905Y-90622381D01*
X118086191Y-90622381D02*
X118086191Y-89622381D01*
X118181429Y-89765238D01*
X118276667Y-89860476D01*
X118371905Y-89908095D01*
X116848095Y-90622381D02*
X117419524Y-90622381D01*
X117133810Y-90622381D02*
X117133810Y-89622381D01*
X117229048Y-89765238D01*
X117324286Y-89860476D01*
X117419524Y-89908095D01*
X124467857Y-87447381D02*
X124801191Y-86971190D01*
X125039286Y-87447381D02*
X125039286Y-86447381D01*
X124658333Y-86447381D01*
X124563095Y-86495000D01*
X124515476Y-86542619D01*
X124467857Y-86637857D01*
X124467857Y-86780714D01*
X124515476Y-86875952D01*
X124563095Y-86923571D01*
X124658333Y-86971190D01*
X125039286Y-86971190D01*
X124086905Y-86542619D02*
X124039286Y-86495000D01*
X123944048Y-86447381D01*
X123705952Y-86447381D01*
X123610714Y-86495000D01*
X123563095Y-86542619D01*
X123515476Y-86637857D01*
X123515476Y-86733095D01*
X123563095Y-86875952D01*
X124134524Y-87447381D01*
X123515476Y-87447381D01*
X122658333Y-86780714D02*
X122658333Y-87447381D01*
X122896429Y-86399762D02*
X123134524Y-87114048D01*
X122515476Y-87114048D01*
X162780143Y-71481334D02*
X162827762Y-71433715D01*
X162875381Y-71290858D01*
X162875381Y-71195620D01*
X162827762Y-71052762D01*
X162732524Y-70957524D01*
X162637286Y-70909905D01*
X162446810Y-70862286D01*
X162303952Y-70862286D01*
X162113476Y-70909905D01*
X162018238Y-70957524D01*
X161923000Y-71052762D01*
X161875381Y-71195620D01*
X161875381Y-71290858D01*
X161923000Y-71433715D01*
X161970619Y-71481334D01*
X161875381Y-72338477D02*
X161875381Y-72148000D01*
X161923000Y-72052762D01*
X161970619Y-72005143D01*
X162113476Y-71909905D01*
X162303952Y-71862286D01*
X162684905Y-71862286D01*
X162780143Y-71909905D01*
X162827762Y-71957524D01*
X162875381Y-72052762D01*
X162875381Y-72243239D01*
X162827762Y-72338477D01*
X162780143Y-72386096D01*
X162684905Y-72433715D01*
X162446810Y-72433715D01*
X162351571Y-72386096D01*
X162303952Y-72338477D01*
X162256333Y-72243239D01*
X162256333Y-72052762D01*
X162303952Y-71957524D01*
X162351571Y-71909905D01*
X162446810Y-71862286D01*
M02*
