G04 #@! TF.FileFunction,Legend,Top*
%FSLAX46Y46*%
G04 Gerber Fmt 4.6, Leading zero omitted, Abs format (unit mm)*
G04 Created by KiCad (PCBNEW (after 2015-mar-04 BZR unknown)-product) date Thu 24 Nov 2016 20:55:00 CET*
%MOMM*%
G01*
G04 APERTURE LIST*
%ADD10C,0.100000*%
%ADD11C,0.150000*%
G04 APERTURE END LIST*
D10*
X63500000Y-117475000D02*
X63500000Y-52705000D01*
X187960000Y-117475000D02*
X63500000Y-117475000D01*
X187960000Y-52705000D02*
X187960000Y-117475000D01*
X63500000Y-52705000D02*
X187960000Y-52705000D01*
D11*
X138185000Y-75930000D02*
X138185000Y-73930000D01*
X136135000Y-73930000D02*
X136135000Y-75930000D01*
X150885000Y-75930000D02*
X150885000Y-73930000D01*
X148835000Y-73930000D02*
X148835000Y-75930000D01*
X164855000Y-78470000D02*
X164855000Y-76470000D01*
X162805000Y-76470000D02*
X162805000Y-78470000D01*
X107315000Y-92710000D02*
X107315000Y-74930000D01*
X107315000Y-74930000D02*
X109855000Y-74930000D01*
X109855000Y-74930000D02*
X109855000Y-92710000D01*
X107035000Y-95530000D02*
X107035000Y-93980000D01*
X107315000Y-92710000D02*
X109855000Y-92710000D01*
X110135000Y-93980000D02*
X110135000Y-95530000D01*
X110135000Y-95530000D02*
X107035000Y-95530000D01*
X80772000Y-76200000D02*
X82169000Y-76200000D01*
X80772000Y-73660000D02*
X82169000Y-73660000D01*
X80772000Y-71120000D02*
X82169000Y-71120000D01*
X70205472Y-73660000D02*
G75*
G03X70205472Y-73660000I-2514472J0D01*
G01*
X72263000Y-68326000D02*
X64262000Y-68326000D01*
X64262000Y-68326000D02*
X64262000Y-78994000D01*
X64262000Y-78994000D02*
X72263000Y-78994000D01*
X80772000Y-68326000D02*
X72263000Y-68326000D01*
X72263000Y-68326000D02*
X72263000Y-78994000D01*
X72263000Y-78994000D02*
X80772000Y-78994000D01*
X80772000Y-73660000D02*
X80772000Y-78994000D01*
X80772000Y-73660000D02*
X80772000Y-68326000D01*
X145025000Y-104410000D02*
X145025000Y-106410000D01*
X147075000Y-106410000D02*
X147075000Y-104410000D01*
X109610000Y-110220000D02*
X109610000Y-108220000D01*
X107560000Y-108220000D02*
X107560000Y-110220000D01*
X180730000Y-104505000D02*
X180730000Y-102505000D01*
X178680000Y-102505000D02*
X178680000Y-104505000D01*
X92084000Y-82407000D02*
X92084000Y-80407000D01*
X90034000Y-80407000D02*
X90034000Y-82407000D01*
D10*
X108737400Y-90626400D02*
X108432600Y-90626400D01*
X108737400Y-92253600D02*
X108432600Y-92253600D01*
X108432600Y-90626400D02*
G75*
G03X108432600Y-92253600I0J-813600D01*
G01*
X108737400Y-92253600D02*
G75*
G03X108737400Y-90626400I0J813600D01*
G01*
X108737400Y-88086400D02*
X108432600Y-88086400D01*
X108737400Y-89713600D02*
X108432600Y-89713600D01*
X108432600Y-88086400D02*
G75*
G03X108432600Y-89713600I0J-813600D01*
G01*
X108737400Y-89713600D02*
G75*
G03X108737400Y-88086400I0J813600D01*
G01*
X108737400Y-85546400D02*
X108432600Y-85546400D01*
X108737400Y-87173600D02*
X108432600Y-87173600D01*
X108432600Y-85546400D02*
G75*
G03X108432600Y-87173600I0J-813600D01*
G01*
X108737400Y-87173600D02*
G75*
G03X108737400Y-85546400I0J813600D01*
G01*
X108737400Y-83006400D02*
X108432600Y-83006400D01*
X108737400Y-84633600D02*
X108432600Y-84633600D01*
X108432600Y-83006400D02*
G75*
G03X108432600Y-84633600I0J-813600D01*
G01*
X108737400Y-84633600D02*
G75*
G03X108737400Y-83006400I0J813600D01*
G01*
X108737400Y-80466400D02*
X108432600Y-80466400D01*
X108737400Y-82093600D02*
X108432600Y-82093600D01*
X108432600Y-80466400D02*
G75*
G03X108432600Y-82093600I0J-813600D01*
G01*
X108737400Y-82093600D02*
G75*
G03X108737400Y-80466400I0J813600D01*
G01*
X108737400Y-77926400D02*
X108432600Y-77926400D01*
X108737400Y-79553600D02*
X108432600Y-79553600D01*
X108432600Y-77926400D02*
G75*
G03X108432600Y-79553600I0J-813600D01*
G01*
X108737400Y-79553600D02*
G75*
G03X108737400Y-77926400I0J813600D01*
G01*
X108737400Y-75386400D02*
X108432600Y-75386400D01*
X108737400Y-77013600D02*
X108432600Y-77013600D01*
X108432600Y-75386400D02*
G75*
G03X108432600Y-77013600I0J-813600D01*
G01*
X108737400Y-77013600D02*
G75*
G03X108737400Y-75386400I0J813600D01*
G01*
X85355430Y-72860370D02*
X83554570Y-72860370D01*
X85355430Y-74459630D02*
X83554570Y-74459630D01*
X83554570Y-72860370D02*
G75*
G03X83554570Y-74459630I0J-799630D01*
G01*
X85355430Y-74459630D02*
G75*
G03X85355430Y-72860370I0J799630D01*
G01*
X85355430Y-75400370D02*
X83554570Y-75400370D01*
X85355430Y-76999630D02*
X83554570Y-76999630D01*
X83554570Y-75400370D02*
G75*
G03X83554570Y-76999630I0J-799630D01*
G01*
X85355430Y-76999630D02*
G75*
G03X85355430Y-75400370I0J799630D01*
G01*
X85355430Y-70320370D02*
X83554570Y-70320370D01*
X85355430Y-71919630D02*
X83554570Y-71919630D01*
X83554570Y-70320370D02*
G75*
G03X83554570Y-71919630I0J-799630D01*
G01*
X85355430Y-71919630D02*
G75*
G03X85355430Y-70320370I0J799630D01*
G01*
X69540920Y-73660000D02*
G75*
G03X69540920Y-73660000I-1849920J0D01*
G01*
X182559490Y-86360000D02*
G75*
G03X182559490Y-86360000I-949490J0D01*
G01*
X182559490Y-76200000D02*
G75*
G03X182559490Y-76200000I-949490J0D01*
G01*
X186369490Y-86360000D02*
G75*
G03X186369490Y-86360000I-949490J0D01*
G01*
X186369490Y-76200000D02*
G75*
G03X186369490Y-76200000I-949490J0D01*
G01*
D11*
X137517143Y-79541666D02*
X137564762Y-79589285D01*
X137612381Y-79732142D01*
X137612381Y-79827380D01*
X137564762Y-79970238D01*
X137469524Y-80065476D01*
X137374286Y-80113095D01*
X137183810Y-80160714D01*
X137040952Y-80160714D01*
X136850476Y-80113095D01*
X136755238Y-80065476D01*
X136660000Y-79970238D01*
X136612381Y-79827380D01*
X136612381Y-79732142D01*
X136660000Y-79589285D01*
X136707619Y-79541666D01*
X136707619Y-79160714D02*
X136660000Y-79113095D01*
X136612381Y-79017857D01*
X136612381Y-78779761D01*
X136660000Y-78684523D01*
X136707619Y-78636904D01*
X136802857Y-78589285D01*
X136898095Y-78589285D01*
X137040952Y-78636904D01*
X137612381Y-79208333D01*
X137612381Y-78589285D01*
X150217143Y-79541666D02*
X150264762Y-79589285D01*
X150312381Y-79732142D01*
X150312381Y-79827380D01*
X150264762Y-79970238D01*
X150169524Y-80065476D01*
X150074286Y-80113095D01*
X149883810Y-80160714D01*
X149740952Y-80160714D01*
X149550476Y-80113095D01*
X149455238Y-80065476D01*
X149360000Y-79970238D01*
X149312381Y-79827380D01*
X149312381Y-79732142D01*
X149360000Y-79589285D01*
X149407619Y-79541666D01*
X150312381Y-78589285D02*
X150312381Y-79160714D01*
X150312381Y-78875000D02*
X149312381Y-78875000D01*
X149455238Y-78970238D01*
X149550476Y-79065476D01*
X149598095Y-79160714D01*
X164187143Y-83192857D02*
X164234762Y-83240476D01*
X164282381Y-83383333D01*
X164282381Y-83478571D01*
X164234762Y-83621429D01*
X164139524Y-83716667D01*
X164044286Y-83764286D01*
X163853810Y-83811905D01*
X163710952Y-83811905D01*
X163520476Y-83764286D01*
X163425238Y-83716667D01*
X163330000Y-83621429D01*
X163282381Y-83478571D01*
X163282381Y-83383333D01*
X163330000Y-83240476D01*
X163377619Y-83192857D01*
X164282381Y-82240476D02*
X164282381Y-82811905D01*
X164282381Y-82526191D02*
X163282381Y-82526191D01*
X163425238Y-82621429D01*
X163520476Y-82716667D01*
X163568095Y-82811905D01*
X163282381Y-81621429D02*
X163282381Y-81526190D01*
X163330000Y-81430952D01*
X163377619Y-81383333D01*
X163472857Y-81335714D01*
X163663333Y-81288095D01*
X163901429Y-81288095D01*
X164091905Y-81335714D01*
X164187143Y-81383333D01*
X164234762Y-81430952D01*
X164282381Y-81526190D01*
X164282381Y-81621429D01*
X164234762Y-81716667D01*
X164187143Y-81764286D01*
X164091905Y-81811905D01*
X163901429Y-81859524D01*
X163663333Y-81859524D01*
X163472857Y-81811905D01*
X163377619Y-81764286D01*
X163330000Y-81716667D01*
X163282381Y-81621429D01*
X104036905Y-95067381D02*
X104036905Y-94067381D01*
X104417858Y-94067381D01*
X104513096Y-94115000D01*
X104560715Y-94162619D01*
X104608334Y-94257857D01*
X104608334Y-94400714D01*
X104560715Y-94495952D01*
X104513096Y-94543571D01*
X104417858Y-94591190D01*
X104036905Y-94591190D01*
X105084524Y-95067381D02*
X105275000Y-95067381D01*
X105370239Y-95019762D01*
X105417858Y-94972143D01*
X105513096Y-94829286D01*
X105560715Y-94638810D01*
X105560715Y-94257857D01*
X105513096Y-94162619D01*
X105465477Y-94115000D01*
X105370239Y-94067381D01*
X105179762Y-94067381D01*
X105084524Y-94115000D01*
X105036905Y-94162619D01*
X104989286Y-94257857D01*
X104989286Y-94495952D01*
X105036905Y-94591190D01*
X105084524Y-94638810D01*
X105179762Y-94686429D01*
X105370239Y-94686429D01*
X105465477Y-94638810D01*
X105513096Y-94591190D01*
X105560715Y-94495952D01*
X86066381Y-79247905D02*
X86875905Y-79247905D01*
X86971143Y-79200286D01*
X87018762Y-79152667D01*
X87066381Y-79057429D01*
X87066381Y-78866952D01*
X87018762Y-78771714D01*
X86971143Y-78724095D01*
X86875905Y-78676476D01*
X86066381Y-78676476D01*
X86399714Y-77771714D02*
X87066381Y-77771714D01*
X86018762Y-78009810D02*
X86733048Y-78247905D01*
X86733048Y-77628857D01*
X144502143Y-105576666D02*
X144549762Y-105624285D01*
X144597381Y-105767142D01*
X144597381Y-105862380D01*
X144549762Y-106005238D01*
X144454524Y-106100476D01*
X144359286Y-106148095D01*
X144168810Y-106195714D01*
X144025952Y-106195714D01*
X143835476Y-106148095D01*
X143740238Y-106100476D01*
X143645000Y-106005238D01*
X143597381Y-105862380D01*
X143597381Y-105767142D01*
X143645000Y-105624285D01*
X143692619Y-105576666D01*
X143597381Y-104671904D02*
X143597381Y-105148095D01*
X144073571Y-105195714D01*
X144025952Y-105148095D01*
X143978333Y-105052857D01*
X143978333Y-104814761D01*
X144025952Y-104719523D01*
X144073571Y-104671904D01*
X144168810Y-104624285D01*
X144406905Y-104624285D01*
X144502143Y-104671904D01*
X144549762Y-104719523D01*
X144597381Y-104814761D01*
X144597381Y-105052857D01*
X144549762Y-105148095D01*
X144502143Y-105195714D01*
X110847143Y-111132857D02*
X110894762Y-111180476D01*
X110942381Y-111323333D01*
X110942381Y-111418571D01*
X110894762Y-111561429D01*
X110799524Y-111656667D01*
X110704286Y-111704286D01*
X110513810Y-111751905D01*
X110370952Y-111751905D01*
X110180476Y-111704286D01*
X110085238Y-111656667D01*
X109990000Y-111561429D01*
X109942381Y-111418571D01*
X109942381Y-111323333D01*
X109990000Y-111180476D01*
X110037619Y-111132857D01*
X110942381Y-110180476D02*
X110942381Y-110751905D01*
X110942381Y-110466191D02*
X109942381Y-110466191D01*
X110085238Y-110561429D01*
X110180476Y-110656667D01*
X110228095Y-110751905D01*
X110037619Y-109799524D02*
X109990000Y-109751905D01*
X109942381Y-109656667D01*
X109942381Y-109418571D01*
X109990000Y-109323333D01*
X110037619Y-109275714D01*
X110132857Y-109228095D01*
X110228095Y-109228095D01*
X110370952Y-109275714D01*
X110942381Y-109847143D01*
X110942381Y-109228095D01*
X179062143Y-108307143D02*
X179014524Y-108354762D01*
X178871667Y-108402381D01*
X178776429Y-108402381D01*
X178633571Y-108354762D01*
X178538333Y-108259524D01*
X178490714Y-108164286D01*
X178443095Y-107973810D01*
X178443095Y-107830952D01*
X178490714Y-107640476D01*
X178538333Y-107545238D01*
X178633571Y-107450000D01*
X178776429Y-107402381D01*
X178871667Y-107402381D01*
X179014524Y-107450000D01*
X179062143Y-107497619D01*
X180014524Y-108402381D02*
X179443095Y-108402381D01*
X179728809Y-108402381D02*
X179728809Y-107402381D01*
X179633571Y-107545238D01*
X179538333Y-107640476D01*
X179443095Y-107688095D01*
X180919286Y-107402381D02*
X180443095Y-107402381D01*
X180395476Y-107878571D01*
X180443095Y-107830952D01*
X180538333Y-107783333D01*
X180776429Y-107783333D01*
X180871667Y-107830952D01*
X180919286Y-107878571D01*
X180966905Y-107973810D01*
X180966905Y-108211905D01*
X180919286Y-108307143D01*
X180871667Y-108354762D01*
X180776429Y-108402381D01*
X180538333Y-108402381D01*
X180443095Y-108354762D01*
X180395476Y-108307143D01*
X89257143Y-81446666D02*
X89304762Y-81494285D01*
X89352381Y-81637142D01*
X89352381Y-81732380D01*
X89304762Y-81875238D01*
X89209524Y-81970476D01*
X89114286Y-82018095D01*
X88923810Y-82065714D01*
X88780952Y-82065714D01*
X88590476Y-82018095D01*
X88495238Y-81970476D01*
X88400000Y-81875238D01*
X88352381Y-81732380D01*
X88352381Y-81637142D01*
X88400000Y-81494285D01*
X88447619Y-81446666D01*
X88780952Y-80875238D02*
X88733333Y-80970476D01*
X88685714Y-81018095D01*
X88590476Y-81065714D01*
X88542857Y-81065714D01*
X88447619Y-81018095D01*
X88400000Y-80970476D01*
X88352381Y-80875238D01*
X88352381Y-80684761D01*
X88400000Y-80589523D01*
X88447619Y-80541904D01*
X88542857Y-80494285D01*
X88590476Y-80494285D01*
X88685714Y-80541904D01*
X88733333Y-80589523D01*
X88780952Y-80684761D01*
X88780952Y-80875238D01*
X88828571Y-80970476D01*
X88876190Y-81018095D01*
X88971429Y-81065714D01*
X89161905Y-81065714D01*
X89257143Y-81018095D01*
X89304762Y-80970476D01*
X89352381Y-80875238D01*
X89352381Y-80684761D01*
X89304762Y-80589523D01*
X89257143Y-80541904D01*
X89161905Y-80494285D01*
X88971429Y-80494285D01*
X88876190Y-80541904D01*
X88828571Y-80589523D01*
X88780952Y-80684761D01*
M02*
