M48
;DRILL file {kicad (after 2015-mar-04 BZR unknown)-product} date Thu 24 Nov 2016 20:55:11 CET
;FORMAT={-:-/ absolute / inch / decimal}
FMAT,2
INCH,TZ
T1C0.016
T2C0.018
T3C0.028
T4C0.031
T5C0.032
T6C0.039
T7C0.039
T8C0.040
T9C0.051
T10C0.138
%
G90
G05
M72
T1
X3.774Y-3.366
X4.015Y-3.295
X4.825Y-2.435
X5.248Y-2.688
X5.5Y-2.425
X5.663Y-2.688
X5.752Y-2.688
X6.024Y-2.688
T2
X3.42Y-2.865
X3.42Y-2.935
X3.575Y-2.875
X3.575Y-2.925
X3.95Y-2.525
X3.95Y-2.6
X3.95Y-2.675
X4.2Y-3.2
X4.2Y-3.25
X4.2Y-3.3
X4.2Y-3.35
X4.2Y-3.4
X4.225Y-3.825
X4.375Y-3.475
X4.375Y-3.725
X4.375Y-3.725
X4.425Y-3.475
X4.425Y-3.65
X4.475Y-3.725
X4.544Y-2.743
X4.575Y-2.675
X4.575Y-3.725
X4.6Y-3.475
X4.6Y-3.65
X4.65Y-2.743
X4.65Y-3.475
X4.65Y-3.65
X4.655Y-2.675
X4.675Y-3.725
X4.725Y-3.65
X4.75Y-2.75
X4.755Y-2.675
X4.775Y-3.725
X4.8Y-3.65
X4.85Y-2.743
X4.855Y-2.675
X4.875Y-3.65
X4.875Y-3.725
X4.937Y-2.743
X4.975Y-3.65
X4.975Y-3.725
X5.075Y-3.725
X5.1Y-2.825
X5.1Y-2.925
X5.1Y-3.025
X5.1Y-3.125
X5.1Y-3.2
X5.1Y-3.275
X5.1Y-3.35
X5.1Y-3.45
X5.1Y-3.55
X5.1Y-3.65
X5.125Y-2.745
X5.15Y-3.725
X5.175Y-3.65
X5.2Y-2.75
X5.2Y-3.725
X5.25Y-3.65
X5.25Y-3.725
X5.3Y-2.75
X5.3Y-3.65
X5.3Y-3.725
X5.4Y-2.75
X5.4Y-3.65
X5.45Y-3.65
X5.5Y-2.75
X5.55Y-3.65
X5.6Y-2.75
X5.65Y-3.65
X5.7Y-2.75
X5.7Y-2.75
X5.75Y-3.65
X5.8Y-2.75
X5.85Y-3.65
X5.9Y-2.75
X5.95Y-3.65
X6.Y-2.75
X6.05Y-3.65
X6.075Y-2.75
X6.2Y-3.65
X6.205Y-2.675
X6.225Y-3.65
X6.225Y-4.125
X6.285Y-2.675
X6.325Y-3.65
X6.325Y-4.125
X6.35Y-2.75
X6.365Y-2.675
X6.425Y-3.65
X6.445Y-2.675
X6.45Y-2.75
X6.525Y-2.675
X6.525Y-3.65
X6.55Y-2.75
X6.605Y-2.675
X6.625Y-3.65
X6.65Y-2.75
X6.675Y-3.275
X6.675Y-3.375
X6.675Y-3.475
X6.675Y-3.575
X6.685Y-2.675
X6.725Y-2.75
X6.725Y-2.85
X6.725Y-2.95
X6.725Y-3.05
X6.725Y-3.15
X6.725Y-3.25
X6.725Y-3.275
X6.725Y-3.375
X6.725Y-3.475
X6.725Y-3.575
X6.725Y-3.65
X6.725Y-3.725
X6.725Y-3.825
X6.725Y-3.925
X6.725Y-4.025
X6.725Y-4.125
X6.725Y-4.225
X6.725Y-4.325
X6.725Y-4.425
X6.725Y-4.525
X6.725Y-4.575
X6.9Y-2.475
X6.9Y-2.575
T3
X4.075Y-2.15
X4.075Y-2.55
T4
X3.375Y-3.425
X3.375Y-4.5274
X3.725Y-3.425
X3.725Y-4.5274
X4.0766Y-2.675
X4.175Y-2.675
X6.245Y-2.7716
X6.245Y-2.87
X6.85Y-2.3
X6.85Y-3.4024
X7.15Y-2.825
X7.2484Y-2.825
T5
X4.525Y-3.925
X4.525Y-4.225
X4.625Y-3.925
X4.625Y-4.225
X4.725Y-3.925
X4.725Y-4.225
X4.825Y-3.925
X4.825Y-4.225
X4.925Y-3.925
X4.925Y-4.225
X5.025Y-3.925
X5.025Y-4.225
X5.125Y-3.925
X5.125Y-4.225
X5.25Y-2.875
X5.25Y-2.975
X5.25Y-3.075
X5.25Y-3.175
X5.25Y-3.275
X5.25Y-3.375
X5.25Y-3.475
X5.25Y-3.575
X5.55Y-2.875
X5.55Y-2.975
X5.55Y-3.075
X5.55Y-3.175
X5.55Y-3.275
X5.55Y-3.375
X5.55Y-3.475
X5.55Y-3.575
X5.75Y-2.875
X5.75Y-2.975
X5.75Y-3.075
X5.75Y-3.175
X5.75Y-3.275
X5.75Y-3.375
X5.75Y-3.475
X5.75Y-3.575
X5.975Y-3.925
X5.975Y-4.225
X6.05Y-2.875
X6.05Y-2.975
X6.05Y-3.075
X6.05Y-3.175
X6.05Y-3.275
X6.05Y-3.375
X6.05Y-3.475
X6.05Y-3.575
X6.075Y-3.925
X6.075Y-4.225
X6.175Y-3.925
X6.175Y-4.225
X6.275Y-3.925
X6.275Y-4.225
X6.3Y-2.975
X6.3Y-3.075
X6.3Y-3.175
X6.3Y-3.275
X6.3Y-3.375
X6.3Y-3.475
X6.3Y-3.575
X6.375Y-3.925
X6.375Y-4.225
X6.475Y-3.925
X6.475Y-4.225
X6.575Y-3.925
X6.575Y-4.225
X6.6Y-2.975
X6.6Y-3.075
X6.6Y-3.175
X6.6Y-3.275
X6.6Y-3.375
X6.6Y-3.475
X6.6Y-3.575
X6.925Y-3.9
X6.925Y-4.
X6.925Y-4.1
X6.925Y-4.2
X7.225Y-3.9
X7.225Y-4.
X7.225Y-4.1
X7.225Y-4.2
T6
X4.4768Y-2.1618
X4.4768Y-2.6343
T7
X3.325Y-2.8
X3.325Y-2.9
X3.325Y-3.
X4.125Y-3.9219
X4.125Y-4.3219
X5.575Y-3.8281
X5.575Y-4.2281
X7.15Y-3.
X7.15Y-3.4
X7.3Y-3.
X7.3Y-3.4
T8
X3.645Y-2.205
X3.645Y-2.305
X3.645Y-2.605
X3.645Y-2.705
X3.645Y-2.805
X4.025Y-3.505
X4.125Y-3.505
X4.275Y-2.15
X4.275Y-2.25
X4.275Y-3.
X4.275Y-3.1
X4.275Y-3.2
X4.275Y-3.3
X4.275Y-3.4
X4.275Y-3.5
X4.275Y-3.6
X4.275Y-3.7
X4.525Y-3.5
X4.525Y-3.6
X4.75Y-4.4
X4.75Y-4.5
X4.8Y-2.9
X4.9Y-2.9
X5.825Y-4.4
X5.825Y-4.5
X6.025Y-2.2
X6.025Y-2.3
X6.125Y-2.2
X6.125Y-2.3
X6.375Y-4.4
X6.375Y-4.5
X6.475Y-2.2
X6.475Y-2.3
X6.95Y-4.4
X6.95Y-4.5
T9
X4.4Y-2.4
X4.9571Y-2.1618
X4.9591Y-2.6362
T10
X2.675Y-2.25
X2.675Y-4.45
X5.275Y-2.25
X5.275Y-4.45
X7.225Y-2.25
X7.225Y-4.45
X7.225Y-4.45
X7.225Y-4.45
T0
M30
