G04 #@! TF.FileFunction,Copper,L2,Bot,Signal*
%FSLAX46Y46*%
G04 Gerber Fmt 4.6, Leading zero omitted, Abs format (unit mm)*
G04 Created by KiCad (PCBNEW (after 2015-mar-04 BZR unknown)-product) date Mon 31 Oct 2016 03:55:16 PM CET*
%MOMM*%
G01*
G04 APERTURE LIST*
%ADD10C,0.100000*%
%ADD11C,0.970000*%
%ADD12C,2.500000*%
%ADD13R,1.250000X1.500000*%
%ADD14R,1.500000X1.250000*%
%ADD15R,1.300000X1.500000*%
%ADD16C,1.501140*%
%ADD17R,2.032000X2.032000*%
%ADD18O,2.032000X2.032000*%
%ADD19R,2.032000X1.727200*%
%ADD20O,2.032000X1.727200*%
%ADD21R,1.727200X1.727200*%
%ADD22O,1.727200X1.727200*%
%ADD23R,1.500000X1.300000*%
%ADD24O,3.500120X1.699260*%
%ADD25C,4.000000*%
%ADD26R,2.540000X1.651000*%
%ADD27C,1.800000*%
%ADD28C,1.270000*%
%ADD29C,0.250000*%
%ADD30C,0.254000*%
G04 APERTURE END LIST*
D10*
X50165000Y-114935000D02*
X50165000Y-50165000D01*
X174625000Y-114935000D02*
X50165000Y-114935000D01*
X174625000Y-50165000D02*
X174625000Y-114935000D01*
X50165000Y-50165000D02*
X174625000Y-50165000D01*
D11*
X95250000Y-111760000D03*
X95250000Y-109220000D03*
X95250000Y-106680000D03*
X95250000Y-104140000D03*
X95250000Y-101600000D03*
X95250000Y-99060000D03*
X95250000Y-96520000D03*
X95250000Y-93980000D03*
X95250000Y-71120000D03*
X95250000Y-68580000D03*
X95250000Y-66040000D03*
X95250000Y-63500000D03*
X95250000Y-60960000D03*
X95250000Y-58420000D03*
X95250000Y-55880000D03*
X95250000Y-53340000D03*
X95250000Y-53340000D03*
X95250000Y-55880000D03*
X95250000Y-58420000D03*
X95250000Y-60960000D03*
X95250000Y-63500000D03*
X95250000Y-66040000D03*
X95250000Y-68580000D03*
X95250000Y-71120000D03*
X95250000Y-71120000D03*
X95250000Y-68580000D03*
X95250000Y-66040000D03*
X95250000Y-63500000D03*
X95250000Y-60960000D03*
X95250000Y-58420000D03*
X95250000Y-55880000D03*
X95250000Y-53340000D03*
X95250000Y-53340000D03*
X95250000Y-55880000D03*
X95250000Y-58420000D03*
X95250000Y-60960000D03*
X95250000Y-63500000D03*
X95250000Y-66040000D03*
X95250000Y-68580000D03*
X95250000Y-71120000D03*
X124460000Y-62230000D03*
D12*
X158275000Y-101100000D03*
D11*
X162560000Y-82550000D03*
X168275000Y-59690000D03*
X160020000Y-87630000D03*
X158115000Y-87630000D03*
X156210000Y-87630000D03*
X154305000Y-87630000D03*
X153035000Y-86360000D03*
X151765000Y-85090000D03*
X150495000Y-83820000D03*
X149225000Y-82550000D03*
X147955000Y-81280000D03*
X146685000Y-80010000D03*
X145415000Y-78740000D03*
X144145000Y-77470000D03*
X166370000Y-82550000D03*
X160655000Y-82550000D03*
X158750000Y-82550000D03*
X156845000Y-82550000D03*
X155575000Y-81280000D03*
X154305000Y-80010000D03*
X153035000Y-78740000D03*
X151765000Y-77470000D03*
X150495000Y-76200000D03*
X149225000Y-74930000D03*
X166370000Y-87630000D03*
X164465000Y-87630000D03*
X164465000Y-82550000D03*
X147955000Y-73660000D03*
X146685000Y-72390000D03*
X142875000Y-76200000D03*
X168275000Y-105410000D03*
X142875000Y-105410000D03*
D12*
X158275000Y-64000000D03*
D11*
X142875000Y-82550000D03*
D13*
X162560000Y-90190000D03*
X162560000Y-92690000D03*
D14*
X130195000Y-104140000D03*
X132695000Y-104140000D03*
D15*
X85090000Y-88820000D03*
X85090000Y-91520000D03*
X90170000Y-68500000D03*
X90170000Y-71200000D03*
D13*
X90170000Y-88920000D03*
X90170000Y-91420000D03*
X85090000Y-68600000D03*
X85090000Y-71100000D03*
X70485000Y-88920000D03*
X70485000Y-91420000D03*
X70485000Y-68600000D03*
X70485000Y-71100000D03*
D16*
X132715000Y-53340000D03*
X132715000Y-57150000D03*
D13*
X111125000Y-67965000D03*
X111125000Y-70465000D03*
D14*
X79355000Y-88900000D03*
X76855000Y-88900000D03*
X79355000Y-68580000D03*
X76855000Y-68580000D03*
D17*
X159385000Y-109220000D03*
D18*
X159385000Y-111760000D03*
D19*
X95250000Y-91440000D03*
D20*
X95250000Y-88900000D03*
X95250000Y-86360000D03*
X95250000Y-83820000D03*
X95250000Y-81280000D03*
X95250000Y-78740000D03*
X95250000Y-76200000D03*
X95250000Y-73660000D03*
D21*
X127635000Y-109220000D03*
D22*
X130175000Y-109220000D03*
X127635000Y-111760000D03*
X130175000Y-111760000D03*
D17*
X53975000Y-64135000D03*
D18*
X53975000Y-61595000D03*
D17*
X62865000Y-55245000D03*
D18*
X62865000Y-52705000D03*
D23*
X62945000Y-102870000D03*
X60245000Y-102870000D03*
D15*
X61595000Y-95805000D03*
X61595000Y-98505000D03*
D23*
X56595000Y-95885000D03*
X53895000Y-95885000D03*
X53895000Y-79375000D03*
X56595000Y-79375000D03*
X62945000Y-79375000D03*
X60245000Y-79375000D03*
D15*
X53975000Y-72310000D03*
X53975000Y-75010000D03*
X62865000Y-72310000D03*
X62865000Y-75010000D03*
D23*
X53895000Y-67945000D03*
X56595000Y-67945000D03*
X62945000Y-67945000D03*
X60245000Y-67945000D03*
D24*
X171450000Y-82550000D03*
X171450000Y-85090000D03*
X171450000Y-80010000D03*
D25*
X70505000Y-62250000D03*
X70505000Y-82550000D03*
X70505000Y-102850000D03*
X111105000Y-102850000D03*
X111105000Y-62250000D03*
D26*
X55245000Y-91440000D03*
X55245000Y-88900000D03*
X55245000Y-86360000D03*
X60325000Y-86360000D03*
X60325000Y-88900000D03*
X60325000Y-91440000D03*
D27*
X130175000Y-95885000D03*
X130175000Y-65405000D03*
D23*
X74850000Y-76200000D03*
X77550000Y-76200000D03*
D11*
X142875000Y-59690000D03*
D13*
X98425000Y-86340000D03*
X98425000Y-83840000D03*
D28*
X168275000Y-82550000D02*
X171450000Y-82550000D01*
D29*
X70505000Y-102850000D02*
X62965000Y-102850000D01*
X62965000Y-102850000D02*
X61595000Y-101480000D01*
X61595000Y-101480000D02*
X61595000Y-98505000D01*
X56595000Y-95885000D02*
X56595000Y-92790000D01*
X56595000Y-92790000D02*
X55245000Y-91440000D01*
X61595000Y-95805000D02*
X56675000Y-95805000D01*
X56675000Y-95805000D02*
X56595000Y-95885000D01*
X55245000Y-88900000D02*
X60325000Y-88900000D01*
X130195000Y-104140000D02*
X130175000Y-104140000D01*
X130175000Y-104140000D02*
X127635000Y-106680000D01*
X127635000Y-106680000D02*
X127635000Y-109220000D01*
D28*
X159385000Y-109220000D02*
X159385000Y-109220000D01*
X146050000Y-95885000D02*
X130175000Y-95885000D01*
X159385000Y-109220000D02*
X146050000Y-95885000D01*
D29*
X79355000Y-88900000D02*
X85010000Y-88900000D01*
X85010000Y-88900000D02*
X85030000Y-88920000D01*
X85030000Y-88920000D02*
X95230000Y-88920000D01*
X95230000Y-88920000D02*
X95250000Y-88900000D01*
X90070000Y-88820000D02*
X90170000Y-88920000D01*
X85090000Y-88820000D02*
X90070000Y-88820000D01*
X53895000Y-79375000D02*
X53895000Y-75090000D01*
X53895000Y-75090000D02*
X53975000Y-75010000D01*
X55245000Y-86360000D02*
X53975000Y-85090000D01*
X53975000Y-85090000D02*
X53975000Y-79455000D01*
X53975000Y-79455000D02*
X53895000Y-79375000D01*
X62945000Y-79375000D02*
X62945000Y-75090000D01*
X62945000Y-75090000D02*
X62865000Y-75010000D01*
X60325000Y-86360000D02*
X62230000Y-86360000D01*
X62945000Y-85645000D02*
X62945000Y-79375000D01*
X62230000Y-86360000D02*
X62945000Y-85645000D01*
X90170000Y-68500000D02*
X91995000Y-68500000D01*
X92710000Y-76200000D02*
X95250000Y-76200000D01*
X92710000Y-69215000D02*
X92710000Y-76200000D01*
X91995000Y-68500000D02*
X92710000Y-69215000D01*
X85090000Y-68600000D02*
X90070000Y-68600000D01*
X90070000Y-68600000D02*
X90170000Y-68500000D01*
X79355000Y-68580000D02*
X85070000Y-68580000D01*
X85070000Y-68580000D02*
X85090000Y-68600000D01*
X70505000Y-82550000D02*
X70505000Y-88900000D01*
X70505000Y-88900000D02*
X76855000Y-88900000D01*
X70485000Y-68600000D02*
X76835000Y-68600000D01*
X76835000Y-68600000D02*
X76855000Y-68580000D01*
X70505000Y-62250000D02*
X70505000Y-68580000D01*
X70505000Y-68580000D02*
X70485000Y-68600000D01*
X80010000Y-76200000D02*
X85090000Y-81280000D01*
X85090000Y-81280000D02*
X95250000Y-81280000D01*
X77550000Y-76200000D02*
X80010000Y-76200000D01*
X53895000Y-67945000D02*
X53895000Y-64215000D01*
X53895000Y-64215000D02*
X53975000Y-64135000D01*
X53975000Y-72310000D02*
X53975000Y-68025000D01*
X53975000Y-68025000D02*
X53895000Y-67945000D01*
X62945000Y-67945000D02*
X62945000Y-55325000D01*
X62945000Y-55325000D02*
X62865000Y-55245000D01*
X62945000Y-67945000D02*
X62945000Y-57865000D01*
X62865000Y-72310000D02*
X62865000Y-68025000D01*
X62865000Y-68025000D02*
X62945000Y-67945000D01*
X66595000Y-72310000D02*
X70485000Y-76200000D01*
X70485000Y-76200000D02*
X74850000Y-76200000D01*
X62865000Y-72310000D02*
X66595000Y-72310000D01*
X162560000Y-90190000D02*
X162560000Y-85090000D01*
X162560000Y-85090000D02*
X163195000Y-85090000D01*
D28*
X130175000Y-65405000D02*
X135890000Y-65405000D01*
X155575000Y-85090000D02*
X163195000Y-85090000D01*
X163195000Y-85090000D02*
X171450000Y-85090000D01*
X135890000Y-65405000D02*
X155575000Y-85090000D01*
X124460000Y-62230000D02*
X124460000Y-61595000D01*
X124460000Y-61595000D02*
X128905000Y-57150000D01*
X128905000Y-57150000D02*
X132715000Y-57150000D01*
D29*
X95250000Y-86360000D02*
X98405000Y-86360000D01*
X98405000Y-86360000D02*
X98425000Y-86340000D01*
X111105000Y-62250000D02*
X111105000Y-67945000D01*
X111105000Y-67945000D02*
X111125000Y-67965000D01*
D28*
X132715000Y-57150000D02*
X128905000Y-57150000D01*
X128905000Y-57150000D02*
X123805000Y-62250000D01*
X171450000Y-80010000D02*
X165735000Y-80010000D01*
X147975000Y-62250000D02*
X123805000Y-62250000D01*
X123805000Y-62250000D02*
X111105000Y-62250000D01*
X165735000Y-80010000D02*
X147975000Y-62250000D01*
D30*
G36*
X173940000Y-114250000D02*
X173881786Y-114250000D01*
X173881786Y-85090000D01*
X173881786Y-80010000D01*
X173768775Y-79441857D01*
X173446948Y-78960208D01*
X172965299Y-78638381D01*
X172565473Y-78558850D01*
X172565473Y-54137664D01*
X172203134Y-53260737D01*
X171532792Y-52589224D01*
X170656499Y-52225355D01*
X169707664Y-52224527D01*
X168830737Y-52586866D01*
X168159224Y-53257208D01*
X167795355Y-54133501D01*
X167794527Y-55082336D01*
X168156866Y-55959263D01*
X168827208Y-56630776D01*
X169703501Y-56994645D01*
X170652336Y-56995473D01*
X171529263Y-56633134D01*
X172200776Y-55962792D01*
X172564645Y-55086499D01*
X172565473Y-54137664D01*
X172565473Y-78558850D01*
X172397156Y-78525370D01*
X170502844Y-78525370D01*
X169934701Y-78638381D01*
X169782617Y-78740000D01*
X169408149Y-78740000D01*
X169408149Y-59831436D01*
X169376018Y-59387032D01*
X169267768Y-59125692D01*
X169054200Y-59090405D01*
X168874595Y-59270010D01*
X168874595Y-58910800D01*
X168839308Y-58697232D01*
X168416436Y-58556851D01*
X167972032Y-58588982D01*
X167710692Y-58697232D01*
X167675405Y-58910800D01*
X168275000Y-59510395D01*
X168874595Y-58910800D01*
X168874595Y-59270010D01*
X168454605Y-59690000D01*
X169054200Y-60289595D01*
X169267768Y-60254308D01*
X169408149Y-59831436D01*
X169408149Y-78740000D01*
X168874595Y-78740000D01*
X168874595Y-60469200D01*
X168275000Y-59869605D01*
X168095395Y-60049210D01*
X168095395Y-59690000D01*
X167495800Y-59090405D01*
X167282232Y-59125692D01*
X167141851Y-59548564D01*
X167173982Y-59992968D01*
X167282232Y-60254308D01*
X167495800Y-60289595D01*
X168095395Y-59690000D01*
X168095395Y-60049210D01*
X167675405Y-60469200D01*
X167710692Y-60682768D01*
X168133564Y-60823149D01*
X168577968Y-60791018D01*
X168839308Y-60682768D01*
X168874595Y-60469200D01*
X168874595Y-78740000D01*
X166261052Y-78740000D01*
X160169388Y-72648336D01*
X160169388Y-64324194D01*
X160149250Y-63574565D01*
X159901123Y-62975533D01*
X159608320Y-62846285D01*
X159428715Y-63025890D01*
X159428715Y-62666680D01*
X159299467Y-62373877D01*
X158599194Y-62105612D01*
X157849565Y-62125750D01*
X157250533Y-62373877D01*
X157121285Y-62666680D01*
X158275000Y-63820395D01*
X159428715Y-62666680D01*
X159428715Y-63025890D01*
X158454605Y-64000000D01*
X159608320Y-65153715D01*
X159901123Y-65024467D01*
X160169388Y-64324194D01*
X160169388Y-72648336D01*
X159428715Y-71907663D01*
X159428715Y-65333320D01*
X158275000Y-64179605D01*
X158095395Y-64359210D01*
X158095395Y-64000000D01*
X156941680Y-62846285D01*
X156648877Y-62975533D01*
X156380612Y-63675806D01*
X156400750Y-64425435D01*
X156648877Y-65024467D01*
X156941680Y-65153715D01*
X158095395Y-64000000D01*
X158095395Y-64359210D01*
X157121285Y-65333320D01*
X157250533Y-65626123D01*
X157950806Y-65894388D01*
X158700435Y-65874250D01*
X159299467Y-65626123D01*
X159428715Y-65333320D01*
X159428715Y-71907663D01*
X148873026Y-61351974D01*
X148461008Y-61076673D01*
X147975000Y-60979999D01*
X147974994Y-60980000D01*
X144008149Y-60980000D01*
X144008149Y-59831436D01*
X143976018Y-59387032D01*
X143867768Y-59125692D01*
X143654200Y-59090405D01*
X143474595Y-59270010D01*
X143474595Y-58910800D01*
X143439308Y-58697232D01*
X143016436Y-58556851D01*
X142572032Y-58588982D01*
X142310692Y-58697232D01*
X142275405Y-58910800D01*
X142875000Y-59510395D01*
X143474595Y-58910800D01*
X143474595Y-59270010D01*
X143054605Y-59690000D01*
X143654200Y-60289595D01*
X143867768Y-60254308D01*
X144008149Y-59831436D01*
X144008149Y-60980000D01*
X143474595Y-60980000D01*
X143474595Y-60469200D01*
X142875000Y-59869605D01*
X142695395Y-60049210D01*
X142695395Y-59690000D01*
X142095800Y-59090405D01*
X141882232Y-59125692D01*
X141741851Y-59548564D01*
X141773982Y-59992968D01*
X141882232Y-60254308D01*
X142095800Y-60289595D01*
X142695395Y-59690000D01*
X142695395Y-60049210D01*
X142275405Y-60469200D01*
X142310692Y-60682768D01*
X142733564Y-60823149D01*
X143177968Y-60791018D01*
X143439308Y-60682768D01*
X143474595Y-60469200D01*
X143474595Y-60980000D01*
X134112767Y-60980000D01*
X134112767Y-53544966D01*
X134084805Y-52994462D01*
X133927931Y-52615735D01*
X133686930Y-52547675D01*
X133507325Y-52727280D01*
X133507325Y-52368070D01*
X133439265Y-52127069D01*
X132919966Y-51942233D01*
X132369462Y-51970195D01*
X131990735Y-52127069D01*
X131922675Y-52368070D01*
X132715000Y-53160395D01*
X133507325Y-52368070D01*
X133507325Y-52727280D01*
X132894605Y-53340000D01*
X133686930Y-54132325D01*
X133927931Y-54064265D01*
X134112767Y-53544966D01*
X134112767Y-60980000D01*
X126871051Y-60980000D01*
X129431051Y-58420000D01*
X132160441Y-58420000D01*
X132438184Y-58535329D01*
X132989398Y-58535810D01*
X133498837Y-58325314D01*
X133888944Y-57935887D01*
X134100329Y-57426816D01*
X134100810Y-56875602D01*
X133890314Y-56366163D01*
X133507325Y-55982505D01*
X133507325Y-54311930D01*
X132715000Y-53519605D01*
X132535395Y-53699210D01*
X132535395Y-53340000D01*
X131743070Y-52547675D01*
X131502069Y-52615735D01*
X131317233Y-53135034D01*
X131345195Y-53685538D01*
X131502069Y-54064265D01*
X131743070Y-54132325D01*
X132535395Y-53340000D01*
X132535395Y-53699210D01*
X131922675Y-54311930D01*
X131990735Y-54552931D01*
X132510034Y-54737767D01*
X133060538Y-54709805D01*
X133439265Y-54552931D01*
X133507325Y-54311930D01*
X133507325Y-55982505D01*
X133500887Y-55976056D01*
X132991816Y-55764671D01*
X132440602Y-55764190D01*
X132160320Y-55880000D01*
X128905000Y-55880000D01*
X128418992Y-55976673D01*
X128006974Y-56251974D01*
X128006971Y-56251977D01*
X123561974Y-60696973D01*
X123561974Y-60696974D01*
X123561973Y-60696974D01*
X123278948Y-60980000D01*
X123035473Y-60980000D01*
X123035473Y-54137664D01*
X122673134Y-53260737D01*
X122002792Y-52589224D01*
X121126499Y-52225355D01*
X120177664Y-52224527D01*
X119300737Y-52586866D01*
X118629224Y-53257208D01*
X118265355Y-54133501D01*
X118264527Y-55082336D01*
X118626866Y-55959263D01*
X119297208Y-56630776D01*
X120173501Y-56994645D01*
X121122336Y-56995473D01*
X121999263Y-56633134D01*
X122670776Y-55962792D01*
X123034645Y-55086499D01*
X123035473Y-54137664D01*
X123035473Y-60980000D01*
X113431321Y-60980000D01*
X113340147Y-60759342D01*
X112599557Y-60017458D01*
X111631433Y-59615458D01*
X110583166Y-59614543D01*
X109614342Y-60014853D01*
X108872458Y-60755443D01*
X108470458Y-61723567D01*
X108469543Y-62771834D01*
X108869853Y-63740658D01*
X109610443Y-64482542D01*
X110345000Y-64787556D01*
X110345000Y-66597633D01*
X110257877Y-66614537D01*
X110045073Y-66754327D01*
X109902623Y-66965360D01*
X109852560Y-67215000D01*
X109852560Y-68715000D01*
X109899537Y-68957123D01*
X110039327Y-69169927D01*
X110103637Y-69213337D01*
X109961673Y-69355302D01*
X109865000Y-69588691D01*
X109865000Y-70179250D01*
X110023750Y-70338000D01*
X110998000Y-70338000D01*
X110998000Y-70318000D01*
X111252000Y-70318000D01*
X111252000Y-70338000D01*
X112226250Y-70338000D01*
X112385000Y-70179250D01*
X112385000Y-69588691D01*
X112288327Y-69355302D01*
X112146849Y-69213823D01*
X112204927Y-69175673D01*
X112347377Y-68964640D01*
X112397440Y-68715000D01*
X112397440Y-67215000D01*
X112350463Y-66972877D01*
X112210673Y-66760073D01*
X111999640Y-66617623D01*
X111865000Y-66590622D01*
X111865000Y-64787048D01*
X112595658Y-64485147D01*
X113337542Y-63744557D01*
X113430786Y-63520000D01*
X123804994Y-63520000D01*
X123805000Y-63520001D01*
X123805000Y-63520000D01*
X123805005Y-63520000D01*
X147448948Y-63520000D01*
X164836974Y-80908026D01*
X165248992Y-81183327D01*
X165735000Y-81280001D01*
X165735000Y-81280000D01*
X165735005Y-81280000D01*
X169782617Y-81280000D01*
X169790872Y-81285516D01*
X169409976Y-81590011D01*
X169129351Y-82099190D01*
X169108460Y-82193168D01*
X169229786Y-82423000D01*
X171323000Y-82423000D01*
X171323000Y-82403000D01*
X171577000Y-82403000D01*
X171577000Y-82423000D01*
X173670214Y-82423000D01*
X173791540Y-82193168D01*
X173770649Y-82099190D01*
X173490024Y-81590011D01*
X173109127Y-81285516D01*
X173446948Y-81059792D01*
X173768775Y-80578143D01*
X173881786Y-80010000D01*
X173881786Y-85090000D01*
X173768775Y-84521857D01*
X173446948Y-84040208D01*
X173109127Y-83814483D01*
X173490024Y-83509989D01*
X173770649Y-83000810D01*
X173791540Y-82906832D01*
X173670214Y-82677000D01*
X171577000Y-82677000D01*
X171577000Y-82697000D01*
X171323000Y-82697000D01*
X171323000Y-82677000D01*
X169229786Y-82677000D01*
X169108460Y-82906832D01*
X169129351Y-83000810D01*
X169409976Y-83509989D01*
X169790872Y-83814483D01*
X169782617Y-83820000D01*
X167503149Y-83820000D01*
X167503149Y-82691436D01*
X167471018Y-82247032D01*
X167362768Y-81985692D01*
X167149200Y-81950405D01*
X166969595Y-82130010D01*
X166969595Y-81770800D01*
X166934308Y-81557232D01*
X166511436Y-81416851D01*
X166067032Y-81448982D01*
X165805692Y-81557232D01*
X165770405Y-81770800D01*
X166370000Y-82370395D01*
X166969595Y-81770800D01*
X166969595Y-82130010D01*
X166549605Y-82550000D01*
X167149200Y-83149595D01*
X167362768Y-83114308D01*
X167503149Y-82691436D01*
X167503149Y-83820000D01*
X166969595Y-83820000D01*
X166969595Y-83329200D01*
X166370000Y-82729605D01*
X166190395Y-82909210D01*
X166190395Y-82550000D01*
X165590800Y-81950405D01*
X165417500Y-81979038D01*
X165244200Y-81950405D01*
X165064595Y-82130010D01*
X165064595Y-81770800D01*
X165029308Y-81557232D01*
X164606436Y-81416851D01*
X164162032Y-81448982D01*
X163900692Y-81557232D01*
X163865405Y-81770800D01*
X164465000Y-82370395D01*
X165064595Y-81770800D01*
X165064595Y-82130010D01*
X164644605Y-82550000D01*
X165244200Y-83149595D01*
X165417500Y-83120961D01*
X165590800Y-83149595D01*
X166190395Y-82550000D01*
X166190395Y-82909210D01*
X165770405Y-83329200D01*
X165805692Y-83542768D01*
X166228564Y-83683149D01*
X166672968Y-83651018D01*
X166934308Y-83542768D01*
X166969595Y-83329200D01*
X166969595Y-83820000D01*
X165064595Y-83820000D01*
X165064595Y-83329200D01*
X164465000Y-82729605D01*
X164285395Y-82909210D01*
X164285395Y-82550000D01*
X163685800Y-81950405D01*
X163512500Y-81979038D01*
X163339200Y-81950405D01*
X163159595Y-82130010D01*
X163159595Y-81770800D01*
X163124308Y-81557232D01*
X162701436Y-81416851D01*
X162257032Y-81448982D01*
X161995692Y-81557232D01*
X161960405Y-81770800D01*
X162560000Y-82370395D01*
X163159595Y-81770800D01*
X163159595Y-82130010D01*
X162739605Y-82550000D01*
X163339200Y-83149595D01*
X163512500Y-83120961D01*
X163685800Y-83149595D01*
X164285395Y-82550000D01*
X164285395Y-82909210D01*
X163865405Y-83329200D01*
X163900692Y-83542768D01*
X164323564Y-83683149D01*
X164767968Y-83651018D01*
X165029308Y-83542768D01*
X165064595Y-83329200D01*
X165064595Y-83820000D01*
X163195000Y-83820000D01*
X163159595Y-83820000D01*
X163159595Y-83329200D01*
X162560000Y-82729605D01*
X162380395Y-82909210D01*
X162380395Y-82550000D01*
X161780800Y-81950405D01*
X161607500Y-81979038D01*
X161434200Y-81950405D01*
X161254595Y-82130010D01*
X161254595Y-81770800D01*
X161219308Y-81557232D01*
X160796436Y-81416851D01*
X160352032Y-81448982D01*
X160090692Y-81557232D01*
X160055405Y-81770800D01*
X160655000Y-82370395D01*
X161254595Y-81770800D01*
X161254595Y-82130010D01*
X160834605Y-82550000D01*
X161434200Y-83149595D01*
X161607500Y-83120961D01*
X161780800Y-83149595D01*
X162380395Y-82550000D01*
X162380395Y-82909210D01*
X161960405Y-83329200D01*
X161995692Y-83542768D01*
X162418564Y-83683149D01*
X162862968Y-83651018D01*
X163124308Y-83542768D01*
X163159595Y-83329200D01*
X163159595Y-83820000D01*
X161254595Y-83820000D01*
X161254595Y-83329200D01*
X160655000Y-82729605D01*
X160475395Y-82909210D01*
X160475395Y-82550000D01*
X159875800Y-81950405D01*
X159702500Y-81979038D01*
X159529200Y-81950405D01*
X159349595Y-82130010D01*
X159349595Y-81770800D01*
X159314308Y-81557232D01*
X158891436Y-81416851D01*
X158447032Y-81448982D01*
X158185692Y-81557232D01*
X158150405Y-81770800D01*
X158750000Y-82370395D01*
X159349595Y-81770800D01*
X159349595Y-82130010D01*
X158929605Y-82550000D01*
X159529200Y-83149595D01*
X159702500Y-83120961D01*
X159875800Y-83149595D01*
X160475395Y-82550000D01*
X160475395Y-82909210D01*
X160055405Y-83329200D01*
X160090692Y-83542768D01*
X160513564Y-83683149D01*
X160957968Y-83651018D01*
X161219308Y-83542768D01*
X161254595Y-83329200D01*
X161254595Y-83820000D01*
X159349595Y-83820000D01*
X159349595Y-83329200D01*
X158750000Y-82729605D01*
X158570395Y-82909210D01*
X158570395Y-82550000D01*
X157970800Y-81950405D01*
X157797500Y-81979038D01*
X157624200Y-81950405D01*
X157444595Y-82130010D01*
X157444595Y-81770800D01*
X157409308Y-81557232D01*
X156986436Y-81416851D01*
X156702864Y-81437353D01*
X156708149Y-81421436D01*
X156676018Y-80977032D01*
X156567768Y-80715692D01*
X156354200Y-80680405D01*
X156174595Y-80860010D01*
X156174595Y-80500800D01*
X156139308Y-80287232D01*
X155716436Y-80146851D01*
X155432864Y-80167353D01*
X155438149Y-80151436D01*
X155406018Y-79707032D01*
X155297768Y-79445692D01*
X155084200Y-79410405D01*
X154904595Y-79590010D01*
X154904595Y-79230800D01*
X154869308Y-79017232D01*
X154446436Y-78876851D01*
X154162864Y-78897353D01*
X154168149Y-78881436D01*
X154136018Y-78437032D01*
X154027768Y-78175692D01*
X153814200Y-78140405D01*
X153634595Y-78320010D01*
X153634595Y-77960800D01*
X153599308Y-77747232D01*
X153176436Y-77606851D01*
X152892864Y-77627353D01*
X152898149Y-77611436D01*
X152866018Y-77167032D01*
X152757768Y-76905692D01*
X152544200Y-76870405D01*
X152364595Y-77050010D01*
X152364595Y-76690800D01*
X152329308Y-76477232D01*
X151906436Y-76336851D01*
X151622864Y-76357353D01*
X151628149Y-76341436D01*
X151596018Y-75897032D01*
X151487768Y-75635692D01*
X151274200Y-75600405D01*
X151094595Y-75780010D01*
X151094595Y-75420800D01*
X151059308Y-75207232D01*
X150636436Y-75066851D01*
X150352864Y-75087353D01*
X150358149Y-75071436D01*
X150326018Y-74627032D01*
X150217768Y-74365692D01*
X150004200Y-74330405D01*
X149824595Y-74510010D01*
X149824595Y-74150800D01*
X149789308Y-73937232D01*
X149366436Y-73796851D01*
X149082864Y-73817353D01*
X149088149Y-73801436D01*
X149056018Y-73357032D01*
X148947768Y-73095692D01*
X148734200Y-73060405D01*
X148554595Y-73240010D01*
X148554595Y-72880800D01*
X148519308Y-72667232D01*
X148096436Y-72526851D01*
X147812864Y-72547353D01*
X147818149Y-72531436D01*
X147786018Y-72087032D01*
X147677768Y-71825692D01*
X147464200Y-71790405D01*
X147284595Y-71970010D01*
X147284595Y-71610800D01*
X147249308Y-71397232D01*
X146826436Y-71256851D01*
X146382032Y-71288982D01*
X146120692Y-71397232D01*
X146085405Y-71610800D01*
X146685000Y-72210395D01*
X147284595Y-71610800D01*
X147284595Y-71970010D01*
X146864605Y-72390000D01*
X147355405Y-72880800D01*
X147464200Y-72989595D01*
X147955000Y-73480395D01*
X148554595Y-72880800D01*
X148554595Y-73240010D01*
X148134605Y-73660000D01*
X148625405Y-74150800D01*
X148734200Y-74259595D01*
X149225000Y-74750395D01*
X149824595Y-74150800D01*
X149824595Y-74510010D01*
X149404605Y-74930000D01*
X149895405Y-75420800D01*
X150004200Y-75529595D01*
X150495000Y-76020395D01*
X151094595Y-75420800D01*
X151094595Y-75780010D01*
X150674605Y-76200000D01*
X151165405Y-76690800D01*
X151274200Y-76799595D01*
X151765000Y-77290395D01*
X152364595Y-76690800D01*
X152364595Y-77050010D01*
X151944605Y-77470000D01*
X152435405Y-77960800D01*
X152544200Y-78069595D01*
X153035000Y-78560395D01*
X153634595Y-77960800D01*
X153634595Y-78320010D01*
X153214605Y-78740000D01*
X153705405Y-79230800D01*
X153814200Y-79339595D01*
X154305000Y-79830395D01*
X154904595Y-79230800D01*
X154904595Y-79590010D01*
X154484605Y-80010000D01*
X154975405Y-80500800D01*
X155084200Y-80609595D01*
X155575000Y-81100395D01*
X156174595Y-80500800D01*
X156174595Y-80860010D01*
X155754605Y-81280000D01*
X156245405Y-81770800D01*
X156354200Y-81879595D01*
X156845000Y-82370395D01*
X157444595Y-81770800D01*
X157444595Y-82130010D01*
X157024605Y-82550000D01*
X157624200Y-83149595D01*
X157797500Y-83120961D01*
X157970800Y-83149595D01*
X158570395Y-82550000D01*
X158570395Y-82909210D01*
X158150405Y-83329200D01*
X158185692Y-83542768D01*
X158608564Y-83683149D01*
X159052968Y-83651018D01*
X159314308Y-83542768D01*
X159349595Y-83329200D01*
X159349595Y-83820000D01*
X157444595Y-83820000D01*
X157444595Y-83329200D01*
X156845000Y-82729605D01*
X156665395Y-82909210D01*
X156665395Y-82550000D01*
X156174595Y-82059200D01*
X156065800Y-81950405D01*
X155575000Y-81459605D01*
X155395395Y-81639210D01*
X155395395Y-81280000D01*
X154904595Y-80789200D01*
X154795800Y-80680405D01*
X154305000Y-80189605D01*
X154125395Y-80369210D01*
X154125395Y-80010000D01*
X153634595Y-79519200D01*
X153525800Y-79410405D01*
X153035000Y-78919605D01*
X152855395Y-79099210D01*
X152855395Y-78740000D01*
X152364595Y-78249200D01*
X152255800Y-78140405D01*
X151765000Y-77649605D01*
X151585395Y-77829210D01*
X151585395Y-77470000D01*
X151094595Y-76979200D01*
X150985800Y-76870405D01*
X150495000Y-76379605D01*
X150315395Y-76559210D01*
X150315395Y-76200000D01*
X149824595Y-75709200D01*
X149715800Y-75600405D01*
X149225000Y-75109605D01*
X149045395Y-75289210D01*
X149045395Y-74930000D01*
X148554595Y-74439200D01*
X148445800Y-74330405D01*
X147955000Y-73839605D01*
X147775395Y-74019210D01*
X147775395Y-73660000D01*
X147284595Y-73169200D01*
X147175800Y-73060405D01*
X146685000Y-72569605D01*
X146505395Y-72749210D01*
X146505395Y-72390000D01*
X145905800Y-71790405D01*
X145692232Y-71825692D01*
X145551851Y-72248564D01*
X145583982Y-72692968D01*
X145692232Y-72954308D01*
X145905800Y-72989595D01*
X146505395Y-72390000D01*
X146505395Y-72749210D01*
X146085405Y-73169200D01*
X146120692Y-73382768D01*
X146543564Y-73523149D01*
X146827135Y-73502646D01*
X146821851Y-73518564D01*
X146853982Y-73962968D01*
X146962232Y-74224308D01*
X147175800Y-74259595D01*
X147775395Y-73660000D01*
X147775395Y-74019210D01*
X147355405Y-74439200D01*
X147390692Y-74652768D01*
X147813564Y-74793149D01*
X148097135Y-74772646D01*
X148091851Y-74788564D01*
X148123982Y-75232968D01*
X148232232Y-75494308D01*
X148445800Y-75529595D01*
X149045395Y-74930000D01*
X149045395Y-75289210D01*
X148625405Y-75709200D01*
X148660692Y-75922768D01*
X149083564Y-76063149D01*
X149367135Y-76042646D01*
X149361851Y-76058564D01*
X149393982Y-76502968D01*
X149502232Y-76764308D01*
X149715800Y-76799595D01*
X150315395Y-76200000D01*
X150315395Y-76559210D01*
X149895405Y-76979200D01*
X149930692Y-77192768D01*
X150353564Y-77333149D01*
X150637135Y-77312646D01*
X150631851Y-77328564D01*
X150663982Y-77772968D01*
X150772232Y-78034308D01*
X150985800Y-78069595D01*
X151585395Y-77470000D01*
X151585395Y-77829210D01*
X151165405Y-78249200D01*
X151200692Y-78462768D01*
X151623564Y-78603149D01*
X151907135Y-78582646D01*
X151901851Y-78598564D01*
X151933982Y-79042968D01*
X152042232Y-79304308D01*
X152255800Y-79339595D01*
X152855395Y-78740000D01*
X152855395Y-79099210D01*
X152435405Y-79519200D01*
X152470692Y-79732768D01*
X152893564Y-79873149D01*
X153177135Y-79852646D01*
X153171851Y-79868564D01*
X153203982Y-80312968D01*
X153312232Y-80574308D01*
X153525800Y-80609595D01*
X154125395Y-80010000D01*
X154125395Y-80369210D01*
X153705405Y-80789200D01*
X153740692Y-81002768D01*
X154163564Y-81143149D01*
X154447135Y-81122646D01*
X154441851Y-81138564D01*
X154473982Y-81582968D01*
X154582232Y-81844308D01*
X154795800Y-81879595D01*
X155395395Y-81280000D01*
X155395395Y-81639210D01*
X154975405Y-82059200D01*
X155010692Y-82272768D01*
X155433564Y-82413149D01*
X155717135Y-82392646D01*
X155711851Y-82408564D01*
X155743982Y-82852968D01*
X155852232Y-83114308D01*
X156065800Y-83149595D01*
X156665395Y-82550000D01*
X156665395Y-82909210D01*
X156245405Y-83329200D01*
X156280692Y-83542768D01*
X156703564Y-83683149D01*
X157147968Y-83651018D01*
X157409308Y-83542768D01*
X157444595Y-83329200D01*
X157444595Y-83820000D01*
X156101052Y-83820000D01*
X136788026Y-64506974D01*
X136376008Y-64231673D01*
X135890000Y-64134999D01*
X135889994Y-64135000D01*
X131076140Y-64135000D01*
X131045643Y-64104449D01*
X130481670Y-63870267D01*
X129871009Y-63869735D01*
X129306629Y-64102932D01*
X128874449Y-64534357D01*
X128640267Y-65098330D01*
X128639735Y-65708991D01*
X128872932Y-66273371D01*
X129304357Y-66705551D01*
X129868330Y-66939733D01*
X130478991Y-66940265D01*
X131043371Y-66707068D01*
X131075495Y-66675000D01*
X135363948Y-66675000D01*
X154676974Y-85988026D01*
X155088992Y-86263327D01*
X155575000Y-86360001D01*
X155575000Y-86360000D01*
X155575005Y-86360000D01*
X161800000Y-86360000D01*
X161800000Y-88818752D01*
X161692877Y-88839537D01*
X161480073Y-88979327D01*
X161337623Y-89190360D01*
X161287560Y-89440000D01*
X161287560Y-90940000D01*
X161334537Y-91182123D01*
X161474327Y-91394927D01*
X161538637Y-91438337D01*
X161396673Y-91580302D01*
X161300000Y-91813691D01*
X161300000Y-92404250D01*
X161458750Y-92563000D01*
X162433000Y-92563000D01*
X162433000Y-92543000D01*
X162687000Y-92543000D01*
X162687000Y-92563000D01*
X163661250Y-92563000D01*
X163820000Y-92404250D01*
X163820000Y-91813691D01*
X163723327Y-91580302D01*
X163581849Y-91438823D01*
X163639927Y-91400673D01*
X163782377Y-91189640D01*
X163832440Y-90940000D01*
X163832440Y-89440000D01*
X163785463Y-89197877D01*
X163645673Y-88985073D01*
X163434640Y-88842623D01*
X163320000Y-88819633D01*
X163320000Y-86360000D01*
X169782617Y-86360000D01*
X169934701Y-86461619D01*
X170502844Y-86574630D01*
X172397156Y-86574630D01*
X172965299Y-86461619D01*
X173446948Y-86139792D01*
X173768775Y-85658143D01*
X173881786Y-85090000D01*
X173881786Y-114250000D01*
X172565473Y-114250000D01*
X172565473Y-110017664D01*
X172203134Y-109140737D01*
X171532792Y-108469224D01*
X170656499Y-108105355D01*
X169707664Y-108104527D01*
X169408149Y-108228284D01*
X169408149Y-105551436D01*
X169376018Y-105107032D01*
X169267768Y-104845692D01*
X169054200Y-104810405D01*
X168874595Y-104990010D01*
X168874595Y-104630800D01*
X168839308Y-104417232D01*
X168416436Y-104276851D01*
X167972032Y-104308982D01*
X167710692Y-104417232D01*
X167675405Y-104630800D01*
X168275000Y-105230395D01*
X168874595Y-104630800D01*
X168874595Y-104990010D01*
X168454605Y-105410000D01*
X169054200Y-106009595D01*
X169267768Y-105974308D01*
X169408149Y-105551436D01*
X169408149Y-108228284D01*
X168874595Y-108448744D01*
X168874595Y-106189200D01*
X168275000Y-105589605D01*
X168095395Y-105769210D01*
X168095395Y-105410000D01*
X167503149Y-104817754D01*
X167503149Y-87771436D01*
X167471018Y-87327032D01*
X167362768Y-87065692D01*
X167149200Y-87030405D01*
X166969595Y-87210010D01*
X166969595Y-86850800D01*
X166934308Y-86637232D01*
X166511436Y-86496851D01*
X166067032Y-86528982D01*
X165805692Y-86637232D01*
X165770405Y-86850800D01*
X166370000Y-87450395D01*
X166969595Y-86850800D01*
X166969595Y-87210010D01*
X166549605Y-87630000D01*
X167149200Y-88229595D01*
X167362768Y-88194308D01*
X167503149Y-87771436D01*
X167503149Y-104817754D01*
X167495800Y-104810405D01*
X167282232Y-104845692D01*
X167141851Y-105268564D01*
X167173982Y-105712968D01*
X167282232Y-105974308D01*
X167495800Y-106009595D01*
X168095395Y-105410000D01*
X168095395Y-105769210D01*
X167675405Y-106189200D01*
X167710692Y-106402768D01*
X168133564Y-106543149D01*
X168577968Y-106511018D01*
X168839308Y-106402768D01*
X168874595Y-106189200D01*
X168874595Y-108448744D01*
X168830737Y-108466866D01*
X168159224Y-109137208D01*
X167795355Y-110013501D01*
X167794527Y-110962336D01*
X168156866Y-111839263D01*
X168827208Y-112510776D01*
X169703501Y-112874645D01*
X170652336Y-112875473D01*
X171529263Y-112513134D01*
X172200776Y-111842792D01*
X172564645Y-110966499D01*
X172565473Y-110017664D01*
X172565473Y-114250000D01*
X166969595Y-114250000D01*
X166969595Y-88409200D01*
X166370000Y-87809605D01*
X166190395Y-87989210D01*
X166190395Y-87630000D01*
X165590800Y-87030405D01*
X165417500Y-87059038D01*
X165244200Y-87030405D01*
X165064595Y-87210010D01*
X165064595Y-86850800D01*
X165029308Y-86637232D01*
X164606436Y-86496851D01*
X164162032Y-86528982D01*
X163900692Y-86637232D01*
X163865405Y-86850800D01*
X164465000Y-87450395D01*
X165064595Y-86850800D01*
X165064595Y-87210010D01*
X164644605Y-87630000D01*
X165244200Y-88229595D01*
X165417500Y-88200961D01*
X165590800Y-88229595D01*
X166190395Y-87630000D01*
X166190395Y-87989210D01*
X165770405Y-88409200D01*
X165805692Y-88622768D01*
X166228564Y-88763149D01*
X166672968Y-88731018D01*
X166934308Y-88622768D01*
X166969595Y-88409200D01*
X166969595Y-114250000D01*
X165064595Y-114250000D01*
X165064595Y-88409200D01*
X164465000Y-87809605D01*
X164285395Y-87989210D01*
X164285395Y-87630000D01*
X163685800Y-87030405D01*
X163472232Y-87065692D01*
X163331851Y-87488564D01*
X163363982Y-87932968D01*
X163472232Y-88194308D01*
X163685800Y-88229595D01*
X164285395Y-87630000D01*
X164285395Y-87989210D01*
X163865405Y-88409200D01*
X163900692Y-88622768D01*
X164323564Y-88763149D01*
X164767968Y-88731018D01*
X165029308Y-88622768D01*
X165064595Y-88409200D01*
X165064595Y-114250000D01*
X163820000Y-114250000D01*
X163820000Y-93566309D01*
X163820000Y-92975750D01*
X163661250Y-92817000D01*
X162687000Y-92817000D01*
X162687000Y-93916250D01*
X162845750Y-94075000D01*
X163058691Y-94075000D01*
X163311310Y-94075000D01*
X163544699Y-93978327D01*
X163723327Y-93799698D01*
X163820000Y-93566309D01*
X163820000Y-114250000D01*
X162433000Y-114250000D01*
X162433000Y-93916250D01*
X162433000Y-92817000D01*
X161458750Y-92817000D01*
X161300000Y-92975750D01*
X161300000Y-93566309D01*
X161396673Y-93799698D01*
X161575301Y-93978327D01*
X161808690Y-94075000D01*
X162061309Y-94075000D01*
X162274250Y-94075000D01*
X162433000Y-93916250D01*
X162433000Y-114250000D01*
X161153149Y-114250000D01*
X161153149Y-87771436D01*
X161121018Y-87327032D01*
X161012768Y-87065692D01*
X160799200Y-87030405D01*
X160619595Y-87210010D01*
X160619595Y-86850800D01*
X160584308Y-86637232D01*
X160161436Y-86496851D01*
X159717032Y-86528982D01*
X159455692Y-86637232D01*
X159420405Y-86850800D01*
X160020000Y-87450395D01*
X160619595Y-86850800D01*
X160619595Y-87210010D01*
X160199605Y-87630000D01*
X160799200Y-88229595D01*
X161012768Y-88194308D01*
X161153149Y-87771436D01*
X161153149Y-114250000D01*
X161048440Y-114250000D01*
X161048440Y-110236000D01*
X161048440Y-108204000D01*
X161001463Y-107961877D01*
X160861673Y-107749073D01*
X160650640Y-107606623D01*
X160619595Y-107600397D01*
X160619595Y-88409200D01*
X160020000Y-87809605D01*
X159840395Y-87989210D01*
X159840395Y-87630000D01*
X159240800Y-87030405D01*
X159067500Y-87059038D01*
X158894200Y-87030405D01*
X158714595Y-87210010D01*
X158714595Y-86850800D01*
X158679308Y-86637232D01*
X158256436Y-86496851D01*
X157812032Y-86528982D01*
X157550692Y-86637232D01*
X157515405Y-86850800D01*
X158115000Y-87450395D01*
X158714595Y-86850800D01*
X158714595Y-87210010D01*
X158294605Y-87630000D01*
X158894200Y-88229595D01*
X159067500Y-88200961D01*
X159240800Y-88229595D01*
X159840395Y-87630000D01*
X159840395Y-87989210D01*
X159420405Y-88409200D01*
X159455692Y-88622768D01*
X159878564Y-88763149D01*
X160322968Y-88731018D01*
X160584308Y-88622768D01*
X160619595Y-88409200D01*
X160619595Y-107600397D01*
X160401000Y-107556560D01*
X160169388Y-107556560D01*
X160169388Y-101424194D01*
X160149250Y-100674565D01*
X159901123Y-100075533D01*
X159608320Y-99946285D01*
X159428715Y-100125890D01*
X159428715Y-99766680D01*
X159299467Y-99473877D01*
X158714595Y-99249820D01*
X158714595Y-88409200D01*
X158115000Y-87809605D01*
X157935395Y-87989210D01*
X157935395Y-87630000D01*
X157335800Y-87030405D01*
X157162500Y-87059038D01*
X156989200Y-87030405D01*
X156809595Y-87210010D01*
X156809595Y-86850800D01*
X156774308Y-86637232D01*
X156351436Y-86496851D01*
X155907032Y-86528982D01*
X155645692Y-86637232D01*
X155610405Y-86850800D01*
X156210000Y-87450395D01*
X156809595Y-86850800D01*
X156809595Y-87210010D01*
X156389605Y-87630000D01*
X156989200Y-88229595D01*
X157162500Y-88200961D01*
X157335800Y-88229595D01*
X157935395Y-87630000D01*
X157935395Y-87989210D01*
X157515405Y-88409200D01*
X157550692Y-88622768D01*
X157973564Y-88763149D01*
X158417968Y-88731018D01*
X158679308Y-88622768D01*
X158714595Y-88409200D01*
X158714595Y-99249820D01*
X158599194Y-99205612D01*
X157849565Y-99225750D01*
X157250533Y-99473877D01*
X157121285Y-99766680D01*
X158275000Y-100920395D01*
X159428715Y-99766680D01*
X159428715Y-100125890D01*
X158454605Y-101100000D01*
X159608320Y-102253715D01*
X159901123Y-102124467D01*
X160169388Y-101424194D01*
X160169388Y-107556560D01*
X159517612Y-107556560D01*
X159428715Y-107467663D01*
X159428715Y-102433320D01*
X158275000Y-101279605D01*
X158095395Y-101459210D01*
X158095395Y-101100000D01*
X156941680Y-99946285D01*
X156809595Y-100004589D01*
X156809595Y-88409200D01*
X156210000Y-87809605D01*
X156030395Y-87989210D01*
X156030395Y-87630000D01*
X155430800Y-87030405D01*
X155257500Y-87059038D01*
X155084200Y-87030405D01*
X154904595Y-87210010D01*
X154904595Y-86850800D01*
X154869308Y-86637232D01*
X154446436Y-86496851D01*
X154162864Y-86517353D01*
X154168149Y-86501436D01*
X154136018Y-86057032D01*
X154027768Y-85795692D01*
X153814200Y-85760405D01*
X153634595Y-85940010D01*
X153634595Y-85580800D01*
X153599308Y-85367232D01*
X153176436Y-85226851D01*
X152892864Y-85247353D01*
X152898149Y-85231436D01*
X152866018Y-84787032D01*
X152757768Y-84525692D01*
X152544200Y-84490405D01*
X152364595Y-84670010D01*
X152364595Y-84310800D01*
X152329308Y-84097232D01*
X151906436Y-83956851D01*
X151622864Y-83977353D01*
X151628149Y-83961436D01*
X151596018Y-83517032D01*
X151487768Y-83255692D01*
X151274200Y-83220405D01*
X151094595Y-83400010D01*
X151094595Y-83040800D01*
X151059308Y-82827232D01*
X150636436Y-82686851D01*
X150352864Y-82707353D01*
X150358149Y-82691436D01*
X150326018Y-82247032D01*
X150217768Y-81985692D01*
X150004200Y-81950405D01*
X149824595Y-82130010D01*
X149824595Y-81770800D01*
X149789308Y-81557232D01*
X149366436Y-81416851D01*
X149082864Y-81437353D01*
X149088149Y-81421436D01*
X149056018Y-80977032D01*
X148947768Y-80715692D01*
X148734200Y-80680405D01*
X148554595Y-80860010D01*
X148554595Y-80500800D01*
X148519308Y-80287232D01*
X148096436Y-80146851D01*
X147812864Y-80167353D01*
X147818149Y-80151436D01*
X147786018Y-79707032D01*
X147677768Y-79445692D01*
X147464200Y-79410405D01*
X147284595Y-79590010D01*
X147284595Y-79230800D01*
X147249308Y-79017232D01*
X146826436Y-78876851D01*
X146542864Y-78897353D01*
X146548149Y-78881436D01*
X146516018Y-78437032D01*
X146407768Y-78175692D01*
X146194200Y-78140405D01*
X146014595Y-78320010D01*
X146014595Y-77960800D01*
X145979308Y-77747232D01*
X145556436Y-77606851D01*
X145272864Y-77627353D01*
X145278149Y-77611436D01*
X145246018Y-77167032D01*
X145137768Y-76905692D01*
X144924200Y-76870405D01*
X144744595Y-77050010D01*
X144744595Y-76690800D01*
X144709308Y-76477232D01*
X144286436Y-76336851D01*
X144002864Y-76357353D01*
X144008149Y-76341436D01*
X143976018Y-75897032D01*
X143867768Y-75635692D01*
X143654200Y-75600405D01*
X143474595Y-75780010D01*
X143474595Y-75420800D01*
X143439308Y-75207232D01*
X143016436Y-75066851D01*
X142572032Y-75098982D01*
X142310692Y-75207232D01*
X142275405Y-75420800D01*
X142875000Y-76020395D01*
X143474595Y-75420800D01*
X143474595Y-75780010D01*
X143054605Y-76200000D01*
X143545405Y-76690800D01*
X143654200Y-76799595D01*
X144145000Y-77290395D01*
X144744595Y-76690800D01*
X144744595Y-77050010D01*
X144324605Y-77470000D01*
X144815405Y-77960800D01*
X144924200Y-78069595D01*
X145415000Y-78560395D01*
X146014595Y-77960800D01*
X146014595Y-78320010D01*
X145594605Y-78740000D01*
X146085405Y-79230800D01*
X146194200Y-79339595D01*
X146685000Y-79830395D01*
X147284595Y-79230800D01*
X147284595Y-79590010D01*
X146864605Y-80010000D01*
X147355405Y-80500800D01*
X147464200Y-80609595D01*
X147955000Y-81100395D01*
X148554595Y-80500800D01*
X148554595Y-80860010D01*
X148134605Y-81280000D01*
X148625405Y-81770800D01*
X148734200Y-81879595D01*
X149225000Y-82370395D01*
X149824595Y-81770800D01*
X149824595Y-82130010D01*
X149404605Y-82550000D01*
X149895405Y-83040800D01*
X150004200Y-83149595D01*
X150495000Y-83640395D01*
X151094595Y-83040800D01*
X151094595Y-83400010D01*
X150674605Y-83820000D01*
X151165405Y-84310800D01*
X151274200Y-84419595D01*
X151765000Y-84910395D01*
X152364595Y-84310800D01*
X152364595Y-84670010D01*
X151944605Y-85090000D01*
X152435405Y-85580800D01*
X152544200Y-85689595D01*
X153035000Y-86180395D01*
X153634595Y-85580800D01*
X153634595Y-85940010D01*
X153214605Y-86360000D01*
X153705405Y-86850800D01*
X153814200Y-86959595D01*
X154305000Y-87450395D01*
X154904595Y-86850800D01*
X154904595Y-87210010D01*
X154484605Y-87630000D01*
X155084200Y-88229595D01*
X155257500Y-88200961D01*
X155430800Y-88229595D01*
X156030395Y-87630000D01*
X156030395Y-87989210D01*
X155610405Y-88409200D01*
X155645692Y-88622768D01*
X156068564Y-88763149D01*
X156512968Y-88731018D01*
X156774308Y-88622768D01*
X156809595Y-88409200D01*
X156809595Y-100004589D01*
X156648877Y-100075533D01*
X156380612Y-100775806D01*
X156400750Y-101525435D01*
X156648877Y-102124467D01*
X156941680Y-102253715D01*
X158095395Y-101100000D01*
X158095395Y-101459210D01*
X157121285Y-102433320D01*
X157250533Y-102726123D01*
X157950806Y-102994388D01*
X158700435Y-102974250D01*
X159299467Y-102726123D01*
X159428715Y-102433320D01*
X159428715Y-107467663D01*
X154904595Y-102943543D01*
X154904595Y-88409200D01*
X154305000Y-87809605D01*
X154125395Y-87989210D01*
X154125395Y-87630000D01*
X153634595Y-87139200D01*
X153525800Y-87030405D01*
X153035000Y-86539605D01*
X152855395Y-86719210D01*
X152855395Y-86360000D01*
X152364595Y-85869200D01*
X152255800Y-85760405D01*
X151765000Y-85269605D01*
X151585395Y-85449210D01*
X151585395Y-85090000D01*
X151094595Y-84599200D01*
X150985800Y-84490405D01*
X150495000Y-83999605D01*
X150315395Y-84179210D01*
X150315395Y-83820000D01*
X149824595Y-83329200D01*
X149715800Y-83220405D01*
X149225000Y-82729605D01*
X149045395Y-82909210D01*
X149045395Y-82550000D01*
X148554595Y-82059200D01*
X148445800Y-81950405D01*
X147955000Y-81459605D01*
X147775395Y-81639210D01*
X147775395Y-81280000D01*
X147284595Y-80789200D01*
X147175800Y-80680405D01*
X146685000Y-80189605D01*
X146505395Y-80369210D01*
X146505395Y-80010000D01*
X146014595Y-79519200D01*
X145905800Y-79410405D01*
X145415000Y-78919605D01*
X145235395Y-79099210D01*
X145235395Y-78740000D01*
X144744595Y-78249200D01*
X144635800Y-78140405D01*
X144145000Y-77649605D01*
X143965395Y-77829210D01*
X143965395Y-77470000D01*
X143474595Y-76979200D01*
X143365800Y-76870405D01*
X142875000Y-76379605D01*
X142695395Y-76559210D01*
X142695395Y-76200000D01*
X142095800Y-75600405D01*
X141882232Y-75635692D01*
X141741851Y-76058564D01*
X141773982Y-76502968D01*
X141882232Y-76764308D01*
X142095800Y-76799595D01*
X142695395Y-76200000D01*
X142695395Y-76559210D01*
X142275405Y-76979200D01*
X142310692Y-77192768D01*
X142733564Y-77333149D01*
X143017135Y-77312646D01*
X143011851Y-77328564D01*
X143043982Y-77772968D01*
X143152232Y-78034308D01*
X143365800Y-78069595D01*
X143965395Y-77470000D01*
X143965395Y-77829210D01*
X143545405Y-78249200D01*
X143580692Y-78462768D01*
X144003564Y-78603149D01*
X144287135Y-78582646D01*
X144281851Y-78598564D01*
X144313982Y-79042968D01*
X144422232Y-79304308D01*
X144635800Y-79339595D01*
X145235395Y-78740000D01*
X145235395Y-79099210D01*
X144815405Y-79519200D01*
X144850692Y-79732768D01*
X145273564Y-79873149D01*
X145557135Y-79852646D01*
X145551851Y-79868564D01*
X145583982Y-80312968D01*
X145692232Y-80574308D01*
X145905800Y-80609595D01*
X146505395Y-80010000D01*
X146505395Y-80369210D01*
X146085405Y-80789200D01*
X146120692Y-81002768D01*
X146543564Y-81143149D01*
X146827135Y-81122646D01*
X146821851Y-81138564D01*
X146853982Y-81582968D01*
X146962232Y-81844308D01*
X147175800Y-81879595D01*
X147775395Y-81280000D01*
X147775395Y-81639210D01*
X147355405Y-82059200D01*
X147390692Y-82272768D01*
X147813564Y-82413149D01*
X148097135Y-82392646D01*
X148091851Y-82408564D01*
X148123982Y-82852968D01*
X148232232Y-83114308D01*
X148445800Y-83149595D01*
X149045395Y-82550000D01*
X149045395Y-82909210D01*
X148625405Y-83329200D01*
X148660692Y-83542768D01*
X149083564Y-83683149D01*
X149367135Y-83662646D01*
X149361851Y-83678564D01*
X149393982Y-84122968D01*
X149502232Y-84384308D01*
X149715800Y-84419595D01*
X150315395Y-83820000D01*
X150315395Y-84179210D01*
X149895405Y-84599200D01*
X149930692Y-84812768D01*
X150353564Y-84953149D01*
X150637135Y-84932646D01*
X150631851Y-84948564D01*
X150663982Y-85392968D01*
X150772232Y-85654308D01*
X150985800Y-85689595D01*
X151585395Y-85090000D01*
X151585395Y-85449210D01*
X151165405Y-85869200D01*
X151200692Y-86082768D01*
X151623564Y-86223149D01*
X151907135Y-86202646D01*
X151901851Y-86218564D01*
X151933982Y-86662968D01*
X152042232Y-86924308D01*
X152255800Y-86959595D01*
X152855395Y-86360000D01*
X152855395Y-86719210D01*
X152435405Y-87139200D01*
X152470692Y-87352768D01*
X152893564Y-87493149D01*
X153177135Y-87472646D01*
X153171851Y-87488564D01*
X153203982Y-87932968D01*
X153312232Y-88194308D01*
X153525800Y-88229595D01*
X154125395Y-87630000D01*
X154125395Y-87989210D01*
X153705405Y-88409200D01*
X153740692Y-88622768D01*
X154163564Y-88763149D01*
X154607968Y-88731018D01*
X154869308Y-88622768D01*
X154904595Y-88409200D01*
X154904595Y-102943543D01*
X146948026Y-94986974D01*
X146536008Y-94711673D01*
X146050000Y-94614999D01*
X146049994Y-94615000D01*
X144008149Y-94615000D01*
X144008149Y-82691436D01*
X143976018Y-82247032D01*
X143867768Y-81985692D01*
X143654200Y-81950405D01*
X143474595Y-82130010D01*
X143474595Y-81770800D01*
X143439308Y-81557232D01*
X143016436Y-81416851D01*
X142572032Y-81448982D01*
X142310692Y-81557232D01*
X142275405Y-81770800D01*
X142875000Y-82370395D01*
X143474595Y-81770800D01*
X143474595Y-82130010D01*
X143054605Y-82550000D01*
X143654200Y-83149595D01*
X143867768Y-83114308D01*
X144008149Y-82691436D01*
X144008149Y-94615000D01*
X143474595Y-94615000D01*
X143474595Y-83329200D01*
X142875000Y-82729605D01*
X142695395Y-82909210D01*
X142695395Y-82550000D01*
X142095800Y-81950405D01*
X141882232Y-81985692D01*
X141741851Y-82408564D01*
X141773982Y-82852968D01*
X141882232Y-83114308D01*
X142095800Y-83149595D01*
X142695395Y-82550000D01*
X142695395Y-82909210D01*
X142275405Y-83329200D01*
X142310692Y-83542768D01*
X142733564Y-83683149D01*
X143177968Y-83651018D01*
X143439308Y-83542768D01*
X143474595Y-83329200D01*
X143474595Y-94615000D01*
X131076140Y-94615000D01*
X131045643Y-94584449D01*
X130481670Y-94350267D01*
X129871009Y-94349735D01*
X129306629Y-94582932D01*
X128874449Y-95014357D01*
X128640267Y-95578330D01*
X128639735Y-96188991D01*
X128872932Y-96753371D01*
X129304357Y-97185551D01*
X129868330Y-97419733D01*
X130478991Y-97420265D01*
X131043371Y-97187068D01*
X131075495Y-97155000D01*
X145523948Y-97155000D01*
X157721560Y-109352612D01*
X157721560Y-110236000D01*
X157768537Y-110478123D01*
X157908327Y-110690927D01*
X158119360Y-110833377D01*
X158369000Y-110883440D01*
X160401000Y-110883440D01*
X160643123Y-110836463D01*
X160855927Y-110696673D01*
X160998377Y-110485640D01*
X161048440Y-110236000D01*
X161048440Y-114250000D01*
X144008149Y-114250000D01*
X144008149Y-105551436D01*
X143976018Y-105107032D01*
X143867768Y-104845692D01*
X143654200Y-104810405D01*
X143474595Y-104990010D01*
X143474595Y-104630800D01*
X143439308Y-104417232D01*
X143016436Y-104276851D01*
X142572032Y-104308982D01*
X142310692Y-104417232D01*
X142275405Y-104630800D01*
X142875000Y-105230395D01*
X143474595Y-104630800D01*
X143474595Y-104990010D01*
X143054605Y-105410000D01*
X143654200Y-106009595D01*
X143867768Y-105974308D01*
X144008149Y-105551436D01*
X144008149Y-114250000D01*
X143474595Y-114250000D01*
X143474595Y-106189200D01*
X142875000Y-105589605D01*
X142695395Y-105769210D01*
X142695395Y-105410000D01*
X142095800Y-104810405D01*
X141882232Y-104845692D01*
X141741851Y-105268564D01*
X141773982Y-105712968D01*
X141882232Y-105974308D01*
X142095800Y-106009595D01*
X142695395Y-105410000D01*
X142695395Y-105769210D01*
X142275405Y-106189200D01*
X142310692Y-106402768D01*
X142733564Y-106543149D01*
X143177968Y-106511018D01*
X143439308Y-106402768D01*
X143474595Y-106189200D01*
X143474595Y-114250000D01*
X134080000Y-114250000D01*
X134080000Y-104891310D01*
X134080000Y-104638691D01*
X134080000Y-104425750D01*
X134080000Y-103854250D01*
X134080000Y-103641309D01*
X134080000Y-103388690D01*
X133983327Y-103155301D01*
X133804698Y-102976673D01*
X133571309Y-102880000D01*
X132980750Y-102880000D01*
X132822000Y-103038750D01*
X132822000Y-104013000D01*
X133921250Y-104013000D01*
X134080000Y-103854250D01*
X134080000Y-104425750D01*
X133921250Y-104267000D01*
X132822000Y-104267000D01*
X132822000Y-105241250D01*
X132980750Y-105400000D01*
X133571309Y-105400000D01*
X133804698Y-105303327D01*
X133983327Y-105124699D01*
X134080000Y-104891310D01*
X134080000Y-114250000D01*
X132568000Y-114250000D01*
X132568000Y-105241250D01*
X132568000Y-104267000D01*
X132548000Y-104267000D01*
X132548000Y-104013000D01*
X132568000Y-104013000D01*
X132568000Y-103038750D01*
X132409250Y-102880000D01*
X131818691Y-102880000D01*
X131585302Y-102976673D01*
X131443823Y-103118150D01*
X131405673Y-103060073D01*
X131194640Y-102917623D01*
X130945000Y-102867560D01*
X129445000Y-102867560D01*
X129202877Y-102914537D01*
X128990073Y-103054327D01*
X128847623Y-103265360D01*
X128797560Y-103515000D01*
X128797560Y-104442638D01*
X127097599Y-106142599D01*
X126932852Y-106389161D01*
X126875000Y-106680000D01*
X126875000Y-107708960D01*
X126771400Y-107708960D01*
X126529277Y-107755937D01*
X126316473Y-107895727D01*
X126174023Y-108106760D01*
X126123960Y-108356400D01*
X126123960Y-110083600D01*
X126170937Y-110325723D01*
X126310727Y-110538527D01*
X126521760Y-110680977D01*
X126562659Y-110689179D01*
X126545971Y-110700330D01*
X126221115Y-111186511D01*
X126107041Y-111760000D01*
X126221115Y-112333489D01*
X126545971Y-112819670D01*
X127032152Y-113144526D01*
X127605641Y-113258600D01*
X127664359Y-113258600D01*
X128237848Y-113144526D01*
X128724029Y-112819670D01*
X128904992Y-112548839D01*
X129286510Y-112966821D01*
X129815973Y-113214968D01*
X130048000Y-113094469D01*
X130048000Y-111887000D01*
X130028000Y-111887000D01*
X130028000Y-111633000D01*
X130048000Y-111633000D01*
X130048000Y-110554469D01*
X130048000Y-110425531D01*
X130048000Y-109347000D01*
X130028000Y-109347000D01*
X130028000Y-109093000D01*
X130048000Y-109093000D01*
X130048000Y-107885531D01*
X129815973Y-107765032D01*
X129286510Y-108013179D01*
X129115746Y-108200263D01*
X129099063Y-108114277D01*
X128959273Y-107901473D01*
X128748240Y-107759023D01*
X128498600Y-107708960D01*
X128395000Y-107708960D01*
X128395000Y-106994802D01*
X129977362Y-105412440D01*
X130945000Y-105412440D01*
X131187123Y-105365463D01*
X131399927Y-105225673D01*
X131443337Y-105161362D01*
X131585302Y-105303327D01*
X131818691Y-105400000D01*
X132409250Y-105400000D01*
X132568000Y-105241250D01*
X132568000Y-114250000D01*
X131629958Y-114250000D01*
X131629958Y-112119026D01*
X131629958Y-111400974D01*
X131457688Y-110985053D01*
X131063490Y-110553179D01*
X130928687Y-110490000D01*
X131063490Y-110426821D01*
X131457688Y-109994947D01*
X131629958Y-109579026D01*
X131629958Y-108860974D01*
X131457688Y-108445053D01*
X131063490Y-108013179D01*
X130534027Y-107765032D01*
X130302000Y-107885531D01*
X130302000Y-109093000D01*
X131508817Y-109093000D01*
X131629958Y-108860974D01*
X131629958Y-109579026D01*
X131508817Y-109347000D01*
X130302000Y-109347000D01*
X130302000Y-110425531D01*
X130302000Y-110554469D01*
X130302000Y-111633000D01*
X131508817Y-111633000D01*
X131629958Y-111400974D01*
X131629958Y-112119026D01*
X131508817Y-111887000D01*
X130302000Y-111887000D01*
X130302000Y-113094469D01*
X130534027Y-113214968D01*
X131063490Y-112966821D01*
X131457688Y-112534947D01*
X131629958Y-112119026D01*
X131629958Y-114250000D01*
X123035473Y-114250000D01*
X123035473Y-110017664D01*
X122673134Y-109140737D01*
X122002792Y-108469224D01*
X121126499Y-108105355D01*
X120177664Y-108104527D01*
X119300737Y-108466866D01*
X118629224Y-109137208D01*
X118265355Y-110013501D01*
X118264527Y-110962336D01*
X118626866Y-111839263D01*
X119297208Y-112510776D01*
X120173501Y-112874645D01*
X121122336Y-112875473D01*
X121999263Y-112513134D01*
X122670776Y-111842792D01*
X123034645Y-110966499D01*
X123035473Y-110017664D01*
X123035473Y-114250000D01*
X112385000Y-114250000D01*
X112385000Y-71341309D01*
X112385000Y-70750750D01*
X112226250Y-70592000D01*
X111252000Y-70592000D01*
X111252000Y-71691250D01*
X111410750Y-71850000D01*
X111623691Y-71850000D01*
X111876310Y-71850000D01*
X112109699Y-71753327D01*
X112288327Y-71574698D01*
X112385000Y-71341309D01*
X112385000Y-114250000D01*
X110998000Y-114250000D01*
X110998000Y-71691250D01*
X110998000Y-70592000D01*
X110023750Y-70592000D01*
X109865000Y-70750750D01*
X109865000Y-71341309D01*
X109961673Y-71574698D01*
X110140301Y-71753327D01*
X110373690Y-71850000D01*
X110626309Y-71850000D01*
X110839250Y-71850000D01*
X110998000Y-71691250D01*
X110998000Y-114250000D01*
X101092000Y-114250000D01*
X101092000Y-50850000D01*
X173940000Y-50850000D01*
X173940000Y-114250000D01*
X173940000Y-114250000D01*
G37*
X173940000Y-114250000D02*
X173881786Y-114250000D01*
X173881786Y-85090000D01*
X173881786Y-80010000D01*
X173768775Y-79441857D01*
X173446948Y-78960208D01*
X172965299Y-78638381D01*
X172565473Y-78558850D01*
X172565473Y-54137664D01*
X172203134Y-53260737D01*
X171532792Y-52589224D01*
X170656499Y-52225355D01*
X169707664Y-52224527D01*
X168830737Y-52586866D01*
X168159224Y-53257208D01*
X167795355Y-54133501D01*
X167794527Y-55082336D01*
X168156866Y-55959263D01*
X168827208Y-56630776D01*
X169703501Y-56994645D01*
X170652336Y-56995473D01*
X171529263Y-56633134D01*
X172200776Y-55962792D01*
X172564645Y-55086499D01*
X172565473Y-54137664D01*
X172565473Y-78558850D01*
X172397156Y-78525370D01*
X170502844Y-78525370D01*
X169934701Y-78638381D01*
X169782617Y-78740000D01*
X169408149Y-78740000D01*
X169408149Y-59831436D01*
X169376018Y-59387032D01*
X169267768Y-59125692D01*
X169054200Y-59090405D01*
X168874595Y-59270010D01*
X168874595Y-58910800D01*
X168839308Y-58697232D01*
X168416436Y-58556851D01*
X167972032Y-58588982D01*
X167710692Y-58697232D01*
X167675405Y-58910800D01*
X168275000Y-59510395D01*
X168874595Y-58910800D01*
X168874595Y-59270010D01*
X168454605Y-59690000D01*
X169054200Y-60289595D01*
X169267768Y-60254308D01*
X169408149Y-59831436D01*
X169408149Y-78740000D01*
X168874595Y-78740000D01*
X168874595Y-60469200D01*
X168275000Y-59869605D01*
X168095395Y-60049210D01*
X168095395Y-59690000D01*
X167495800Y-59090405D01*
X167282232Y-59125692D01*
X167141851Y-59548564D01*
X167173982Y-59992968D01*
X167282232Y-60254308D01*
X167495800Y-60289595D01*
X168095395Y-59690000D01*
X168095395Y-60049210D01*
X167675405Y-60469200D01*
X167710692Y-60682768D01*
X168133564Y-60823149D01*
X168577968Y-60791018D01*
X168839308Y-60682768D01*
X168874595Y-60469200D01*
X168874595Y-78740000D01*
X166261052Y-78740000D01*
X160169388Y-72648336D01*
X160169388Y-64324194D01*
X160149250Y-63574565D01*
X159901123Y-62975533D01*
X159608320Y-62846285D01*
X159428715Y-63025890D01*
X159428715Y-62666680D01*
X159299467Y-62373877D01*
X158599194Y-62105612D01*
X157849565Y-62125750D01*
X157250533Y-62373877D01*
X157121285Y-62666680D01*
X158275000Y-63820395D01*
X159428715Y-62666680D01*
X159428715Y-63025890D01*
X158454605Y-64000000D01*
X159608320Y-65153715D01*
X159901123Y-65024467D01*
X160169388Y-64324194D01*
X160169388Y-72648336D01*
X159428715Y-71907663D01*
X159428715Y-65333320D01*
X158275000Y-64179605D01*
X158095395Y-64359210D01*
X158095395Y-64000000D01*
X156941680Y-62846285D01*
X156648877Y-62975533D01*
X156380612Y-63675806D01*
X156400750Y-64425435D01*
X156648877Y-65024467D01*
X156941680Y-65153715D01*
X158095395Y-64000000D01*
X158095395Y-64359210D01*
X157121285Y-65333320D01*
X157250533Y-65626123D01*
X157950806Y-65894388D01*
X158700435Y-65874250D01*
X159299467Y-65626123D01*
X159428715Y-65333320D01*
X159428715Y-71907663D01*
X148873026Y-61351974D01*
X148461008Y-61076673D01*
X147975000Y-60979999D01*
X147974994Y-60980000D01*
X144008149Y-60980000D01*
X144008149Y-59831436D01*
X143976018Y-59387032D01*
X143867768Y-59125692D01*
X143654200Y-59090405D01*
X143474595Y-59270010D01*
X143474595Y-58910800D01*
X143439308Y-58697232D01*
X143016436Y-58556851D01*
X142572032Y-58588982D01*
X142310692Y-58697232D01*
X142275405Y-58910800D01*
X142875000Y-59510395D01*
X143474595Y-58910800D01*
X143474595Y-59270010D01*
X143054605Y-59690000D01*
X143654200Y-60289595D01*
X143867768Y-60254308D01*
X144008149Y-59831436D01*
X144008149Y-60980000D01*
X143474595Y-60980000D01*
X143474595Y-60469200D01*
X142875000Y-59869605D01*
X142695395Y-60049210D01*
X142695395Y-59690000D01*
X142095800Y-59090405D01*
X141882232Y-59125692D01*
X141741851Y-59548564D01*
X141773982Y-59992968D01*
X141882232Y-60254308D01*
X142095800Y-60289595D01*
X142695395Y-59690000D01*
X142695395Y-60049210D01*
X142275405Y-60469200D01*
X142310692Y-60682768D01*
X142733564Y-60823149D01*
X143177968Y-60791018D01*
X143439308Y-60682768D01*
X143474595Y-60469200D01*
X143474595Y-60980000D01*
X134112767Y-60980000D01*
X134112767Y-53544966D01*
X134084805Y-52994462D01*
X133927931Y-52615735D01*
X133686930Y-52547675D01*
X133507325Y-52727280D01*
X133507325Y-52368070D01*
X133439265Y-52127069D01*
X132919966Y-51942233D01*
X132369462Y-51970195D01*
X131990735Y-52127069D01*
X131922675Y-52368070D01*
X132715000Y-53160395D01*
X133507325Y-52368070D01*
X133507325Y-52727280D01*
X132894605Y-53340000D01*
X133686930Y-54132325D01*
X133927931Y-54064265D01*
X134112767Y-53544966D01*
X134112767Y-60980000D01*
X126871051Y-60980000D01*
X129431051Y-58420000D01*
X132160441Y-58420000D01*
X132438184Y-58535329D01*
X132989398Y-58535810D01*
X133498837Y-58325314D01*
X133888944Y-57935887D01*
X134100329Y-57426816D01*
X134100810Y-56875602D01*
X133890314Y-56366163D01*
X133507325Y-55982505D01*
X133507325Y-54311930D01*
X132715000Y-53519605D01*
X132535395Y-53699210D01*
X132535395Y-53340000D01*
X131743070Y-52547675D01*
X131502069Y-52615735D01*
X131317233Y-53135034D01*
X131345195Y-53685538D01*
X131502069Y-54064265D01*
X131743070Y-54132325D01*
X132535395Y-53340000D01*
X132535395Y-53699210D01*
X131922675Y-54311930D01*
X131990735Y-54552931D01*
X132510034Y-54737767D01*
X133060538Y-54709805D01*
X133439265Y-54552931D01*
X133507325Y-54311930D01*
X133507325Y-55982505D01*
X133500887Y-55976056D01*
X132991816Y-55764671D01*
X132440602Y-55764190D01*
X132160320Y-55880000D01*
X128905000Y-55880000D01*
X128418992Y-55976673D01*
X128006974Y-56251974D01*
X128006971Y-56251977D01*
X123561974Y-60696973D01*
X123561974Y-60696974D01*
X123561973Y-60696974D01*
X123278948Y-60980000D01*
X123035473Y-60980000D01*
X123035473Y-54137664D01*
X122673134Y-53260737D01*
X122002792Y-52589224D01*
X121126499Y-52225355D01*
X120177664Y-52224527D01*
X119300737Y-52586866D01*
X118629224Y-53257208D01*
X118265355Y-54133501D01*
X118264527Y-55082336D01*
X118626866Y-55959263D01*
X119297208Y-56630776D01*
X120173501Y-56994645D01*
X121122336Y-56995473D01*
X121999263Y-56633134D01*
X122670776Y-55962792D01*
X123034645Y-55086499D01*
X123035473Y-54137664D01*
X123035473Y-60980000D01*
X113431321Y-60980000D01*
X113340147Y-60759342D01*
X112599557Y-60017458D01*
X111631433Y-59615458D01*
X110583166Y-59614543D01*
X109614342Y-60014853D01*
X108872458Y-60755443D01*
X108470458Y-61723567D01*
X108469543Y-62771834D01*
X108869853Y-63740658D01*
X109610443Y-64482542D01*
X110345000Y-64787556D01*
X110345000Y-66597633D01*
X110257877Y-66614537D01*
X110045073Y-66754327D01*
X109902623Y-66965360D01*
X109852560Y-67215000D01*
X109852560Y-68715000D01*
X109899537Y-68957123D01*
X110039327Y-69169927D01*
X110103637Y-69213337D01*
X109961673Y-69355302D01*
X109865000Y-69588691D01*
X109865000Y-70179250D01*
X110023750Y-70338000D01*
X110998000Y-70338000D01*
X110998000Y-70318000D01*
X111252000Y-70318000D01*
X111252000Y-70338000D01*
X112226250Y-70338000D01*
X112385000Y-70179250D01*
X112385000Y-69588691D01*
X112288327Y-69355302D01*
X112146849Y-69213823D01*
X112204927Y-69175673D01*
X112347377Y-68964640D01*
X112397440Y-68715000D01*
X112397440Y-67215000D01*
X112350463Y-66972877D01*
X112210673Y-66760073D01*
X111999640Y-66617623D01*
X111865000Y-66590622D01*
X111865000Y-64787048D01*
X112595658Y-64485147D01*
X113337542Y-63744557D01*
X113430786Y-63520000D01*
X123804994Y-63520000D01*
X123805000Y-63520001D01*
X123805000Y-63520000D01*
X123805005Y-63520000D01*
X147448948Y-63520000D01*
X164836974Y-80908026D01*
X165248992Y-81183327D01*
X165735000Y-81280001D01*
X165735000Y-81280000D01*
X165735005Y-81280000D01*
X169782617Y-81280000D01*
X169790872Y-81285516D01*
X169409976Y-81590011D01*
X169129351Y-82099190D01*
X169108460Y-82193168D01*
X169229786Y-82423000D01*
X171323000Y-82423000D01*
X171323000Y-82403000D01*
X171577000Y-82403000D01*
X171577000Y-82423000D01*
X173670214Y-82423000D01*
X173791540Y-82193168D01*
X173770649Y-82099190D01*
X173490024Y-81590011D01*
X173109127Y-81285516D01*
X173446948Y-81059792D01*
X173768775Y-80578143D01*
X173881786Y-80010000D01*
X173881786Y-85090000D01*
X173768775Y-84521857D01*
X173446948Y-84040208D01*
X173109127Y-83814483D01*
X173490024Y-83509989D01*
X173770649Y-83000810D01*
X173791540Y-82906832D01*
X173670214Y-82677000D01*
X171577000Y-82677000D01*
X171577000Y-82697000D01*
X171323000Y-82697000D01*
X171323000Y-82677000D01*
X169229786Y-82677000D01*
X169108460Y-82906832D01*
X169129351Y-83000810D01*
X169409976Y-83509989D01*
X169790872Y-83814483D01*
X169782617Y-83820000D01*
X167503149Y-83820000D01*
X167503149Y-82691436D01*
X167471018Y-82247032D01*
X167362768Y-81985692D01*
X167149200Y-81950405D01*
X166969595Y-82130010D01*
X166969595Y-81770800D01*
X166934308Y-81557232D01*
X166511436Y-81416851D01*
X166067032Y-81448982D01*
X165805692Y-81557232D01*
X165770405Y-81770800D01*
X166370000Y-82370395D01*
X166969595Y-81770800D01*
X166969595Y-82130010D01*
X166549605Y-82550000D01*
X167149200Y-83149595D01*
X167362768Y-83114308D01*
X167503149Y-82691436D01*
X167503149Y-83820000D01*
X166969595Y-83820000D01*
X166969595Y-83329200D01*
X166370000Y-82729605D01*
X166190395Y-82909210D01*
X166190395Y-82550000D01*
X165590800Y-81950405D01*
X165417500Y-81979038D01*
X165244200Y-81950405D01*
X165064595Y-82130010D01*
X165064595Y-81770800D01*
X165029308Y-81557232D01*
X164606436Y-81416851D01*
X164162032Y-81448982D01*
X163900692Y-81557232D01*
X163865405Y-81770800D01*
X164465000Y-82370395D01*
X165064595Y-81770800D01*
X165064595Y-82130010D01*
X164644605Y-82550000D01*
X165244200Y-83149595D01*
X165417500Y-83120961D01*
X165590800Y-83149595D01*
X166190395Y-82550000D01*
X166190395Y-82909210D01*
X165770405Y-83329200D01*
X165805692Y-83542768D01*
X166228564Y-83683149D01*
X166672968Y-83651018D01*
X166934308Y-83542768D01*
X166969595Y-83329200D01*
X166969595Y-83820000D01*
X165064595Y-83820000D01*
X165064595Y-83329200D01*
X164465000Y-82729605D01*
X164285395Y-82909210D01*
X164285395Y-82550000D01*
X163685800Y-81950405D01*
X163512500Y-81979038D01*
X163339200Y-81950405D01*
X163159595Y-82130010D01*
X163159595Y-81770800D01*
X163124308Y-81557232D01*
X162701436Y-81416851D01*
X162257032Y-81448982D01*
X161995692Y-81557232D01*
X161960405Y-81770800D01*
X162560000Y-82370395D01*
X163159595Y-81770800D01*
X163159595Y-82130010D01*
X162739605Y-82550000D01*
X163339200Y-83149595D01*
X163512500Y-83120961D01*
X163685800Y-83149595D01*
X164285395Y-82550000D01*
X164285395Y-82909210D01*
X163865405Y-83329200D01*
X163900692Y-83542768D01*
X164323564Y-83683149D01*
X164767968Y-83651018D01*
X165029308Y-83542768D01*
X165064595Y-83329200D01*
X165064595Y-83820000D01*
X163195000Y-83820000D01*
X163159595Y-83820000D01*
X163159595Y-83329200D01*
X162560000Y-82729605D01*
X162380395Y-82909210D01*
X162380395Y-82550000D01*
X161780800Y-81950405D01*
X161607500Y-81979038D01*
X161434200Y-81950405D01*
X161254595Y-82130010D01*
X161254595Y-81770800D01*
X161219308Y-81557232D01*
X160796436Y-81416851D01*
X160352032Y-81448982D01*
X160090692Y-81557232D01*
X160055405Y-81770800D01*
X160655000Y-82370395D01*
X161254595Y-81770800D01*
X161254595Y-82130010D01*
X160834605Y-82550000D01*
X161434200Y-83149595D01*
X161607500Y-83120961D01*
X161780800Y-83149595D01*
X162380395Y-82550000D01*
X162380395Y-82909210D01*
X161960405Y-83329200D01*
X161995692Y-83542768D01*
X162418564Y-83683149D01*
X162862968Y-83651018D01*
X163124308Y-83542768D01*
X163159595Y-83329200D01*
X163159595Y-83820000D01*
X161254595Y-83820000D01*
X161254595Y-83329200D01*
X160655000Y-82729605D01*
X160475395Y-82909210D01*
X160475395Y-82550000D01*
X159875800Y-81950405D01*
X159702500Y-81979038D01*
X159529200Y-81950405D01*
X159349595Y-82130010D01*
X159349595Y-81770800D01*
X159314308Y-81557232D01*
X158891436Y-81416851D01*
X158447032Y-81448982D01*
X158185692Y-81557232D01*
X158150405Y-81770800D01*
X158750000Y-82370395D01*
X159349595Y-81770800D01*
X159349595Y-82130010D01*
X158929605Y-82550000D01*
X159529200Y-83149595D01*
X159702500Y-83120961D01*
X159875800Y-83149595D01*
X160475395Y-82550000D01*
X160475395Y-82909210D01*
X160055405Y-83329200D01*
X160090692Y-83542768D01*
X160513564Y-83683149D01*
X160957968Y-83651018D01*
X161219308Y-83542768D01*
X161254595Y-83329200D01*
X161254595Y-83820000D01*
X159349595Y-83820000D01*
X159349595Y-83329200D01*
X158750000Y-82729605D01*
X158570395Y-82909210D01*
X158570395Y-82550000D01*
X157970800Y-81950405D01*
X157797500Y-81979038D01*
X157624200Y-81950405D01*
X157444595Y-82130010D01*
X157444595Y-81770800D01*
X157409308Y-81557232D01*
X156986436Y-81416851D01*
X156702864Y-81437353D01*
X156708149Y-81421436D01*
X156676018Y-80977032D01*
X156567768Y-80715692D01*
X156354200Y-80680405D01*
X156174595Y-80860010D01*
X156174595Y-80500800D01*
X156139308Y-80287232D01*
X155716436Y-80146851D01*
X155432864Y-80167353D01*
X155438149Y-80151436D01*
X155406018Y-79707032D01*
X155297768Y-79445692D01*
X155084200Y-79410405D01*
X154904595Y-79590010D01*
X154904595Y-79230800D01*
X154869308Y-79017232D01*
X154446436Y-78876851D01*
X154162864Y-78897353D01*
X154168149Y-78881436D01*
X154136018Y-78437032D01*
X154027768Y-78175692D01*
X153814200Y-78140405D01*
X153634595Y-78320010D01*
X153634595Y-77960800D01*
X153599308Y-77747232D01*
X153176436Y-77606851D01*
X152892864Y-77627353D01*
X152898149Y-77611436D01*
X152866018Y-77167032D01*
X152757768Y-76905692D01*
X152544200Y-76870405D01*
X152364595Y-77050010D01*
X152364595Y-76690800D01*
X152329308Y-76477232D01*
X151906436Y-76336851D01*
X151622864Y-76357353D01*
X151628149Y-76341436D01*
X151596018Y-75897032D01*
X151487768Y-75635692D01*
X151274200Y-75600405D01*
X151094595Y-75780010D01*
X151094595Y-75420800D01*
X151059308Y-75207232D01*
X150636436Y-75066851D01*
X150352864Y-75087353D01*
X150358149Y-75071436D01*
X150326018Y-74627032D01*
X150217768Y-74365692D01*
X150004200Y-74330405D01*
X149824595Y-74510010D01*
X149824595Y-74150800D01*
X149789308Y-73937232D01*
X149366436Y-73796851D01*
X149082864Y-73817353D01*
X149088149Y-73801436D01*
X149056018Y-73357032D01*
X148947768Y-73095692D01*
X148734200Y-73060405D01*
X148554595Y-73240010D01*
X148554595Y-72880800D01*
X148519308Y-72667232D01*
X148096436Y-72526851D01*
X147812864Y-72547353D01*
X147818149Y-72531436D01*
X147786018Y-72087032D01*
X147677768Y-71825692D01*
X147464200Y-71790405D01*
X147284595Y-71970010D01*
X147284595Y-71610800D01*
X147249308Y-71397232D01*
X146826436Y-71256851D01*
X146382032Y-71288982D01*
X146120692Y-71397232D01*
X146085405Y-71610800D01*
X146685000Y-72210395D01*
X147284595Y-71610800D01*
X147284595Y-71970010D01*
X146864605Y-72390000D01*
X147355405Y-72880800D01*
X147464200Y-72989595D01*
X147955000Y-73480395D01*
X148554595Y-72880800D01*
X148554595Y-73240010D01*
X148134605Y-73660000D01*
X148625405Y-74150800D01*
X148734200Y-74259595D01*
X149225000Y-74750395D01*
X149824595Y-74150800D01*
X149824595Y-74510010D01*
X149404605Y-74930000D01*
X149895405Y-75420800D01*
X150004200Y-75529595D01*
X150495000Y-76020395D01*
X151094595Y-75420800D01*
X151094595Y-75780010D01*
X150674605Y-76200000D01*
X151165405Y-76690800D01*
X151274200Y-76799595D01*
X151765000Y-77290395D01*
X152364595Y-76690800D01*
X152364595Y-77050010D01*
X151944605Y-77470000D01*
X152435405Y-77960800D01*
X152544200Y-78069595D01*
X153035000Y-78560395D01*
X153634595Y-77960800D01*
X153634595Y-78320010D01*
X153214605Y-78740000D01*
X153705405Y-79230800D01*
X153814200Y-79339595D01*
X154305000Y-79830395D01*
X154904595Y-79230800D01*
X154904595Y-79590010D01*
X154484605Y-80010000D01*
X154975405Y-80500800D01*
X155084200Y-80609595D01*
X155575000Y-81100395D01*
X156174595Y-80500800D01*
X156174595Y-80860010D01*
X155754605Y-81280000D01*
X156245405Y-81770800D01*
X156354200Y-81879595D01*
X156845000Y-82370395D01*
X157444595Y-81770800D01*
X157444595Y-82130010D01*
X157024605Y-82550000D01*
X157624200Y-83149595D01*
X157797500Y-83120961D01*
X157970800Y-83149595D01*
X158570395Y-82550000D01*
X158570395Y-82909210D01*
X158150405Y-83329200D01*
X158185692Y-83542768D01*
X158608564Y-83683149D01*
X159052968Y-83651018D01*
X159314308Y-83542768D01*
X159349595Y-83329200D01*
X159349595Y-83820000D01*
X157444595Y-83820000D01*
X157444595Y-83329200D01*
X156845000Y-82729605D01*
X156665395Y-82909210D01*
X156665395Y-82550000D01*
X156174595Y-82059200D01*
X156065800Y-81950405D01*
X155575000Y-81459605D01*
X155395395Y-81639210D01*
X155395395Y-81280000D01*
X154904595Y-80789200D01*
X154795800Y-80680405D01*
X154305000Y-80189605D01*
X154125395Y-80369210D01*
X154125395Y-80010000D01*
X153634595Y-79519200D01*
X153525800Y-79410405D01*
X153035000Y-78919605D01*
X152855395Y-79099210D01*
X152855395Y-78740000D01*
X152364595Y-78249200D01*
X152255800Y-78140405D01*
X151765000Y-77649605D01*
X151585395Y-77829210D01*
X151585395Y-77470000D01*
X151094595Y-76979200D01*
X150985800Y-76870405D01*
X150495000Y-76379605D01*
X150315395Y-76559210D01*
X150315395Y-76200000D01*
X149824595Y-75709200D01*
X149715800Y-75600405D01*
X149225000Y-75109605D01*
X149045395Y-75289210D01*
X149045395Y-74930000D01*
X148554595Y-74439200D01*
X148445800Y-74330405D01*
X147955000Y-73839605D01*
X147775395Y-74019210D01*
X147775395Y-73660000D01*
X147284595Y-73169200D01*
X147175800Y-73060405D01*
X146685000Y-72569605D01*
X146505395Y-72749210D01*
X146505395Y-72390000D01*
X145905800Y-71790405D01*
X145692232Y-71825692D01*
X145551851Y-72248564D01*
X145583982Y-72692968D01*
X145692232Y-72954308D01*
X145905800Y-72989595D01*
X146505395Y-72390000D01*
X146505395Y-72749210D01*
X146085405Y-73169200D01*
X146120692Y-73382768D01*
X146543564Y-73523149D01*
X146827135Y-73502646D01*
X146821851Y-73518564D01*
X146853982Y-73962968D01*
X146962232Y-74224308D01*
X147175800Y-74259595D01*
X147775395Y-73660000D01*
X147775395Y-74019210D01*
X147355405Y-74439200D01*
X147390692Y-74652768D01*
X147813564Y-74793149D01*
X148097135Y-74772646D01*
X148091851Y-74788564D01*
X148123982Y-75232968D01*
X148232232Y-75494308D01*
X148445800Y-75529595D01*
X149045395Y-74930000D01*
X149045395Y-75289210D01*
X148625405Y-75709200D01*
X148660692Y-75922768D01*
X149083564Y-76063149D01*
X149367135Y-76042646D01*
X149361851Y-76058564D01*
X149393982Y-76502968D01*
X149502232Y-76764308D01*
X149715800Y-76799595D01*
X150315395Y-76200000D01*
X150315395Y-76559210D01*
X149895405Y-76979200D01*
X149930692Y-77192768D01*
X150353564Y-77333149D01*
X150637135Y-77312646D01*
X150631851Y-77328564D01*
X150663982Y-77772968D01*
X150772232Y-78034308D01*
X150985800Y-78069595D01*
X151585395Y-77470000D01*
X151585395Y-77829210D01*
X151165405Y-78249200D01*
X151200692Y-78462768D01*
X151623564Y-78603149D01*
X151907135Y-78582646D01*
X151901851Y-78598564D01*
X151933982Y-79042968D01*
X152042232Y-79304308D01*
X152255800Y-79339595D01*
X152855395Y-78740000D01*
X152855395Y-79099210D01*
X152435405Y-79519200D01*
X152470692Y-79732768D01*
X152893564Y-79873149D01*
X153177135Y-79852646D01*
X153171851Y-79868564D01*
X153203982Y-80312968D01*
X153312232Y-80574308D01*
X153525800Y-80609595D01*
X154125395Y-80010000D01*
X154125395Y-80369210D01*
X153705405Y-80789200D01*
X153740692Y-81002768D01*
X154163564Y-81143149D01*
X154447135Y-81122646D01*
X154441851Y-81138564D01*
X154473982Y-81582968D01*
X154582232Y-81844308D01*
X154795800Y-81879595D01*
X155395395Y-81280000D01*
X155395395Y-81639210D01*
X154975405Y-82059200D01*
X155010692Y-82272768D01*
X155433564Y-82413149D01*
X155717135Y-82392646D01*
X155711851Y-82408564D01*
X155743982Y-82852968D01*
X155852232Y-83114308D01*
X156065800Y-83149595D01*
X156665395Y-82550000D01*
X156665395Y-82909210D01*
X156245405Y-83329200D01*
X156280692Y-83542768D01*
X156703564Y-83683149D01*
X157147968Y-83651018D01*
X157409308Y-83542768D01*
X157444595Y-83329200D01*
X157444595Y-83820000D01*
X156101052Y-83820000D01*
X136788026Y-64506974D01*
X136376008Y-64231673D01*
X135890000Y-64134999D01*
X135889994Y-64135000D01*
X131076140Y-64135000D01*
X131045643Y-64104449D01*
X130481670Y-63870267D01*
X129871009Y-63869735D01*
X129306629Y-64102932D01*
X128874449Y-64534357D01*
X128640267Y-65098330D01*
X128639735Y-65708991D01*
X128872932Y-66273371D01*
X129304357Y-66705551D01*
X129868330Y-66939733D01*
X130478991Y-66940265D01*
X131043371Y-66707068D01*
X131075495Y-66675000D01*
X135363948Y-66675000D01*
X154676974Y-85988026D01*
X155088992Y-86263327D01*
X155575000Y-86360001D01*
X155575000Y-86360000D01*
X155575005Y-86360000D01*
X161800000Y-86360000D01*
X161800000Y-88818752D01*
X161692877Y-88839537D01*
X161480073Y-88979327D01*
X161337623Y-89190360D01*
X161287560Y-89440000D01*
X161287560Y-90940000D01*
X161334537Y-91182123D01*
X161474327Y-91394927D01*
X161538637Y-91438337D01*
X161396673Y-91580302D01*
X161300000Y-91813691D01*
X161300000Y-92404250D01*
X161458750Y-92563000D01*
X162433000Y-92563000D01*
X162433000Y-92543000D01*
X162687000Y-92543000D01*
X162687000Y-92563000D01*
X163661250Y-92563000D01*
X163820000Y-92404250D01*
X163820000Y-91813691D01*
X163723327Y-91580302D01*
X163581849Y-91438823D01*
X163639927Y-91400673D01*
X163782377Y-91189640D01*
X163832440Y-90940000D01*
X163832440Y-89440000D01*
X163785463Y-89197877D01*
X163645673Y-88985073D01*
X163434640Y-88842623D01*
X163320000Y-88819633D01*
X163320000Y-86360000D01*
X169782617Y-86360000D01*
X169934701Y-86461619D01*
X170502844Y-86574630D01*
X172397156Y-86574630D01*
X172965299Y-86461619D01*
X173446948Y-86139792D01*
X173768775Y-85658143D01*
X173881786Y-85090000D01*
X173881786Y-114250000D01*
X172565473Y-114250000D01*
X172565473Y-110017664D01*
X172203134Y-109140737D01*
X171532792Y-108469224D01*
X170656499Y-108105355D01*
X169707664Y-108104527D01*
X169408149Y-108228284D01*
X169408149Y-105551436D01*
X169376018Y-105107032D01*
X169267768Y-104845692D01*
X169054200Y-104810405D01*
X168874595Y-104990010D01*
X168874595Y-104630800D01*
X168839308Y-104417232D01*
X168416436Y-104276851D01*
X167972032Y-104308982D01*
X167710692Y-104417232D01*
X167675405Y-104630800D01*
X168275000Y-105230395D01*
X168874595Y-104630800D01*
X168874595Y-104990010D01*
X168454605Y-105410000D01*
X169054200Y-106009595D01*
X169267768Y-105974308D01*
X169408149Y-105551436D01*
X169408149Y-108228284D01*
X168874595Y-108448744D01*
X168874595Y-106189200D01*
X168275000Y-105589605D01*
X168095395Y-105769210D01*
X168095395Y-105410000D01*
X167503149Y-104817754D01*
X167503149Y-87771436D01*
X167471018Y-87327032D01*
X167362768Y-87065692D01*
X167149200Y-87030405D01*
X166969595Y-87210010D01*
X166969595Y-86850800D01*
X166934308Y-86637232D01*
X166511436Y-86496851D01*
X166067032Y-86528982D01*
X165805692Y-86637232D01*
X165770405Y-86850800D01*
X166370000Y-87450395D01*
X166969595Y-86850800D01*
X166969595Y-87210010D01*
X166549605Y-87630000D01*
X167149200Y-88229595D01*
X167362768Y-88194308D01*
X167503149Y-87771436D01*
X167503149Y-104817754D01*
X167495800Y-104810405D01*
X167282232Y-104845692D01*
X167141851Y-105268564D01*
X167173982Y-105712968D01*
X167282232Y-105974308D01*
X167495800Y-106009595D01*
X168095395Y-105410000D01*
X168095395Y-105769210D01*
X167675405Y-106189200D01*
X167710692Y-106402768D01*
X168133564Y-106543149D01*
X168577968Y-106511018D01*
X168839308Y-106402768D01*
X168874595Y-106189200D01*
X168874595Y-108448744D01*
X168830737Y-108466866D01*
X168159224Y-109137208D01*
X167795355Y-110013501D01*
X167794527Y-110962336D01*
X168156866Y-111839263D01*
X168827208Y-112510776D01*
X169703501Y-112874645D01*
X170652336Y-112875473D01*
X171529263Y-112513134D01*
X172200776Y-111842792D01*
X172564645Y-110966499D01*
X172565473Y-110017664D01*
X172565473Y-114250000D01*
X166969595Y-114250000D01*
X166969595Y-88409200D01*
X166370000Y-87809605D01*
X166190395Y-87989210D01*
X166190395Y-87630000D01*
X165590800Y-87030405D01*
X165417500Y-87059038D01*
X165244200Y-87030405D01*
X165064595Y-87210010D01*
X165064595Y-86850800D01*
X165029308Y-86637232D01*
X164606436Y-86496851D01*
X164162032Y-86528982D01*
X163900692Y-86637232D01*
X163865405Y-86850800D01*
X164465000Y-87450395D01*
X165064595Y-86850800D01*
X165064595Y-87210010D01*
X164644605Y-87630000D01*
X165244200Y-88229595D01*
X165417500Y-88200961D01*
X165590800Y-88229595D01*
X166190395Y-87630000D01*
X166190395Y-87989210D01*
X165770405Y-88409200D01*
X165805692Y-88622768D01*
X166228564Y-88763149D01*
X166672968Y-88731018D01*
X166934308Y-88622768D01*
X166969595Y-88409200D01*
X166969595Y-114250000D01*
X165064595Y-114250000D01*
X165064595Y-88409200D01*
X164465000Y-87809605D01*
X164285395Y-87989210D01*
X164285395Y-87630000D01*
X163685800Y-87030405D01*
X163472232Y-87065692D01*
X163331851Y-87488564D01*
X163363982Y-87932968D01*
X163472232Y-88194308D01*
X163685800Y-88229595D01*
X164285395Y-87630000D01*
X164285395Y-87989210D01*
X163865405Y-88409200D01*
X163900692Y-88622768D01*
X164323564Y-88763149D01*
X164767968Y-88731018D01*
X165029308Y-88622768D01*
X165064595Y-88409200D01*
X165064595Y-114250000D01*
X163820000Y-114250000D01*
X163820000Y-93566309D01*
X163820000Y-92975750D01*
X163661250Y-92817000D01*
X162687000Y-92817000D01*
X162687000Y-93916250D01*
X162845750Y-94075000D01*
X163058691Y-94075000D01*
X163311310Y-94075000D01*
X163544699Y-93978327D01*
X163723327Y-93799698D01*
X163820000Y-93566309D01*
X163820000Y-114250000D01*
X162433000Y-114250000D01*
X162433000Y-93916250D01*
X162433000Y-92817000D01*
X161458750Y-92817000D01*
X161300000Y-92975750D01*
X161300000Y-93566309D01*
X161396673Y-93799698D01*
X161575301Y-93978327D01*
X161808690Y-94075000D01*
X162061309Y-94075000D01*
X162274250Y-94075000D01*
X162433000Y-93916250D01*
X162433000Y-114250000D01*
X161153149Y-114250000D01*
X161153149Y-87771436D01*
X161121018Y-87327032D01*
X161012768Y-87065692D01*
X160799200Y-87030405D01*
X160619595Y-87210010D01*
X160619595Y-86850800D01*
X160584308Y-86637232D01*
X160161436Y-86496851D01*
X159717032Y-86528982D01*
X159455692Y-86637232D01*
X159420405Y-86850800D01*
X160020000Y-87450395D01*
X160619595Y-86850800D01*
X160619595Y-87210010D01*
X160199605Y-87630000D01*
X160799200Y-88229595D01*
X161012768Y-88194308D01*
X161153149Y-87771436D01*
X161153149Y-114250000D01*
X161048440Y-114250000D01*
X161048440Y-110236000D01*
X161048440Y-108204000D01*
X161001463Y-107961877D01*
X160861673Y-107749073D01*
X160650640Y-107606623D01*
X160619595Y-107600397D01*
X160619595Y-88409200D01*
X160020000Y-87809605D01*
X159840395Y-87989210D01*
X159840395Y-87630000D01*
X159240800Y-87030405D01*
X159067500Y-87059038D01*
X158894200Y-87030405D01*
X158714595Y-87210010D01*
X158714595Y-86850800D01*
X158679308Y-86637232D01*
X158256436Y-86496851D01*
X157812032Y-86528982D01*
X157550692Y-86637232D01*
X157515405Y-86850800D01*
X158115000Y-87450395D01*
X158714595Y-86850800D01*
X158714595Y-87210010D01*
X158294605Y-87630000D01*
X158894200Y-88229595D01*
X159067500Y-88200961D01*
X159240800Y-88229595D01*
X159840395Y-87630000D01*
X159840395Y-87989210D01*
X159420405Y-88409200D01*
X159455692Y-88622768D01*
X159878564Y-88763149D01*
X160322968Y-88731018D01*
X160584308Y-88622768D01*
X160619595Y-88409200D01*
X160619595Y-107600397D01*
X160401000Y-107556560D01*
X160169388Y-107556560D01*
X160169388Y-101424194D01*
X160149250Y-100674565D01*
X159901123Y-100075533D01*
X159608320Y-99946285D01*
X159428715Y-100125890D01*
X159428715Y-99766680D01*
X159299467Y-99473877D01*
X158714595Y-99249820D01*
X158714595Y-88409200D01*
X158115000Y-87809605D01*
X157935395Y-87989210D01*
X157935395Y-87630000D01*
X157335800Y-87030405D01*
X157162500Y-87059038D01*
X156989200Y-87030405D01*
X156809595Y-87210010D01*
X156809595Y-86850800D01*
X156774308Y-86637232D01*
X156351436Y-86496851D01*
X155907032Y-86528982D01*
X155645692Y-86637232D01*
X155610405Y-86850800D01*
X156210000Y-87450395D01*
X156809595Y-86850800D01*
X156809595Y-87210010D01*
X156389605Y-87630000D01*
X156989200Y-88229595D01*
X157162500Y-88200961D01*
X157335800Y-88229595D01*
X157935395Y-87630000D01*
X157935395Y-87989210D01*
X157515405Y-88409200D01*
X157550692Y-88622768D01*
X157973564Y-88763149D01*
X158417968Y-88731018D01*
X158679308Y-88622768D01*
X158714595Y-88409200D01*
X158714595Y-99249820D01*
X158599194Y-99205612D01*
X157849565Y-99225750D01*
X157250533Y-99473877D01*
X157121285Y-99766680D01*
X158275000Y-100920395D01*
X159428715Y-99766680D01*
X159428715Y-100125890D01*
X158454605Y-101100000D01*
X159608320Y-102253715D01*
X159901123Y-102124467D01*
X160169388Y-101424194D01*
X160169388Y-107556560D01*
X159517612Y-107556560D01*
X159428715Y-107467663D01*
X159428715Y-102433320D01*
X158275000Y-101279605D01*
X158095395Y-101459210D01*
X158095395Y-101100000D01*
X156941680Y-99946285D01*
X156809595Y-100004589D01*
X156809595Y-88409200D01*
X156210000Y-87809605D01*
X156030395Y-87989210D01*
X156030395Y-87630000D01*
X155430800Y-87030405D01*
X155257500Y-87059038D01*
X155084200Y-87030405D01*
X154904595Y-87210010D01*
X154904595Y-86850800D01*
X154869308Y-86637232D01*
X154446436Y-86496851D01*
X154162864Y-86517353D01*
X154168149Y-86501436D01*
X154136018Y-86057032D01*
X154027768Y-85795692D01*
X153814200Y-85760405D01*
X153634595Y-85940010D01*
X153634595Y-85580800D01*
X153599308Y-85367232D01*
X153176436Y-85226851D01*
X152892864Y-85247353D01*
X152898149Y-85231436D01*
X152866018Y-84787032D01*
X152757768Y-84525692D01*
X152544200Y-84490405D01*
X152364595Y-84670010D01*
X152364595Y-84310800D01*
X152329308Y-84097232D01*
X151906436Y-83956851D01*
X151622864Y-83977353D01*
X151628149Y-83961436D01*
X151596018Y-83517032D01*
X151487768Y-83255692D01*
X151274200Y-83220405D01*
X151094595Y-83400010D01*
X151094595Y-83040800D01*
X151059308Y-82827232D01*
X150636436Y-82686851D01*
X150352864Y-82707353D01*
X150358149Y-82691436D01*
X150326018Y-82247032D01*
X150217768Y-81985692D01*
X150004200Y-81950405D01*
X149824595Y-82130010D01*
X149824595Y-81770800D01*
X149789308Y-81557232D01*
X149366436Y-81416851D01*
X149082864Y-81437353D01*
X149088149Y-81421436D01*
X149056018Y-80977032D01*
X148947768Y-80715692D01*
X148734200Y-80680405D01*
X148554595Y-80860010D01*
X148554595Y-80500800D01*
X148519308Y-80287232D01*
X148096436Y-80146851D01*
X147812864Y-80167353D01*
X147818149Y-80151436D01*
X147786018Y-79707032D01*
X147677768Y-79445692D01*
X147464200Y-79410405D01*
X147284595Y-79590010D01*
X147284595Y-79230800D01*
X147249308Y-79017232D01*
X146826436Y-78876851D01*
X146542864Y-78897353D01*
X146548149Y-78881436D01*
X146516018Y-78437032D01*
X146407768Y-78175692D01*
X146194200Y-78140405D01*
X146014595Y-78320010D01*
X146014595Y-77960800D01*
X145979308Y-77747232D01*
X145556436Y-77606851D01*
X145272864Y-77627353D01*
X145278149Y-77611436D01*
X145246018Y-77167032D01*
X145137768Y-76905692D01*
X144924200Y-76870405D01*
X144744595Y-77050010D01*
X144744595Y-76690800D01*
X144709308Y-76477232D01*
X144286436Y-76336851D01*
X144002864Y-76357353D01*
X144008149Y-76341436D01*
X143976018Y-75897032D01*
X143867768Y-75635692D01*
X143654200Y-75600405D01*
X143474595Y-75780010D01*
X143474595Y-75420800D01*
X143439308Y-75207232D01*
X143016436Y-75066851D01*
X142572032Y-75098982D01*
X142310692Y-75207232D01*
X142275405Y-75420800D01*
X142875000Y-76020395D01*
X143474595Y-75420800D01*
X143474595Y-75780010D01*
X143054605Y-76200000D01*
X143545405Y-76690800D01*
X143654200Y-76799595D01*
X144145000Y-77290395D01*
X144744595Y-76690800D01*
X144744595Y-77050010D01*
X144324605Y-77470000D01*
X144815405Y-77960800D01*
X144924200Y-78069595D01*
X145415000Y-78560395D01*
X146014595Y-77960800D01*
X146014595Y-78320010D01*
X145594605Y-78740000D01*
X146085405Y-79230800D01*
X146194200Y-79339595D01*
X146685000Y-79830395D01*
X147284595Y-79230800D01*
X147284595Y-79590010D01*
X146864605Y-80010000D01*
X147355405Y-80500800D01*
X147464200Y-80609595D01*
X147955000Y-81100395D01*
X148554595Y-80500800D01*
X148554595Y-80860010D01*
X148134605Y-81280000D01*
X148625405Y-81770800D01*
X148734200Y-81879595D01*
X149225000Y-82370395D01*
X149824595Y-81770800D01*
X149824595Y-82130010D01*
X149404605Y-82550000D01*
X149895405Y-83040800D01*
X150004200Y-83149595D01*
X150495000Y-83640395D01*
X151094595Y-83040800D01*
X151094595Y-83400010D01*
X150674605Y-83820000D01*
X151165405Y-84310800D01*
X151274200Y-84419595D01*
X151765000Y-84910395D01*
X152364595Y-84310800D01*
X152364595Y-84670010D01*
X151944605Y-85090000D01*
X152435405Y-85580800D01*
X152544200Y-85689595D01*
X153035000Y-86180395D01*
X153634595Y-85580800D01*
X153634595Y-85940010D01*
X153214605Y-86360000D01*
X153705405Y-86850800D01*
X153814200Y-86959595D01*
X154305000Y-87450395D01*
X154904595Y-86850800D01*
X154904595Y-87210010D01*
X154484605Y-87630000D01*
X155084200Y-88229595D01*
X155257500Y-88200961D01*
X155430800Y-88229595D01*
X156030395Y-87630000D01*
X156030395Y-87989210D01*
X155610405Y-88409200D01*
X155645692Y-88622768D01*
X156068564Y-88763149D01*
X156512968Y-88731018D01*
X156774308Y-88622768D01*
X156809595Y-88409200D01*
X156809595Y-100004589D01*
X156648877Y-100075533D01*
X156380612Y-100775806D01*
X156400750Y-101525435D01*
X156648877Y-102124467D01*
X156941680Y-102253715D01*
X158095395Y-101100000D01*
X158095395Y-101459210D01*
X157121285Y-102433320D01*
X157250533Y-102726123D01*
X157950806Y-102994388D01*
X158700435Y-102974250D01*
X159299467Y-102726123D01*
X159428715Y-102433320D01*
X159428715Y-107467663D01*
X154904595Y-102943543D01*
X154904595Y-88409200D01*
X154305000Y-87809605D01*
X154125395Y-87989210D01*
X154125395Y-87630000D01*
X153634595Y-87139200D01*
X153525800Y-87030405D01*
X153035000Y-86539605D01*
X152855395Y-86719210D01*
X152855395Y-86360000D01*
X152364595Y-85869200D01*
X152255800Y-85760405D01*
X151765000Y-85269605D01*
X151585395Y-85449210D01*
X151585395Y-85090000D01*
X151094595Y-84599200D01*
X150985800Y-84490405D01*
X150495000Y-83999605D01*
X150315395Y-84179210D01*
X150315395Y-83820000D01*
X149824595Y-83329200D01*
X149715800Y-83220405D01*
X149225000Y-82729605D01*
X149045395Y-82909210D01*
X149045395Y-82550000D01*
X148554595Y-82059200D01*
X148445800Y-81950405D01*
X147955000Y-81459605D01*
X147775395Y-81639210D01*
X147775395Y-81280000D01*
X147284595Y-80789200D01*
X147175800Y-80680405D01*
X146685000Y-80189605D01*
X146505395Y-80369210D01*
X146505395Y-80010000D01*
X146014595Y-79519200D01*
X145905800Y-79410405D01*
X145415000Y-78919605D01*
X145235395Y-79099210D01*
X145235395Y-78740000D01*
X144744595Y-78249200D01*
X144635800Y-78140405D01*
X144145000Y-77649605D01*
X143965395Y-77829210D01*
X143965395Y-77470000D01*
X143474595Y-76979200D01*
X143365800Y-76870405D01*
X142875000Y-76379605D01*
X142695395Y-76559210D01*
X142695395Y-76200000D01*
X142095800Y-75600405D01*
X141882232Y-75635692D01*
X141741851Y-76058564D01*
X141773982Y-76502968D01*
X141882232Y-76764308D01*
X142095800Y-76799595D01*
X142695395Y-76200000D01*
X142695395Y-76559210D01*
X142275405Y-76979200D01*
X142310692Y-77192768D01*
X142733564Y-77333149D01*
X143017135Y-77312646D01*
X143011851Y-77328564D01*
X143043982Y-77772968D01*
X143152232Y-78034308D01*
X143365800Y-78069595D01*
X143965395Y-77470000D01*
X143965395Y-77829210D01*
X143545405Y-78249200D01*
X143580692Y-78462768D01*
X144003564Y-78603149D01*
X144287135Y-78582646D01*
X144281851Y-78598564D01*
X144313982Y-79042968D01*
X144422232Y-79304308D01*
X144635800Y-79339595D01*
X145235395Y-78740000D01*
X145235395Y-79099210D01*
X144815405Y-79519200D01*
X144850692Y-79732768D01*
X145273564Y-79873149D01*
X145557135Y-79852646D01*
X145551851Y-79868564D01*
X145583982Y-80312968D01*
X145692232Y-80574308D01*
X145905800Y-80609595D01*
X146505395Y-80010000D01*
X146505395Y-80369210D01*
X146085405Y-80789200D01*
X146120692Y-81002768D01*
X146543564Y-81143149D01*
X146827135Y-81122646D01*
X146821851Y-81138564D01*
X146853982Y-81582968D01*
X146962232Y-81844308D01*
X147175800Y-81879595D01*
X147775395Y-81280000D01*
X147775395Y-81639210D01*
X147355405Y-82059200D01*
X147390692Y-82272768D01*
X147813564Y-82413149D01*
X148097135Y-82392646D01*
X148091851Y-82408564D01*
X148123982Y-82852968D01*
X148232232Y-83114308D01*
X148445800Y-83149595D01*
X149045395Y-82550000D01*
X149045395Y-82909210D01*
X148625405Y-83329200D01*
X148660692Y-83542768D01*
X149083564Y-83683149D01*
X149367135Y-83662646D01*
X149361851Y-83678564D01*
X149393982Y-84122968D01*
X149502232Y-84384308D01*
X149715800Y-84419595D01*
X150315395Y-83820000D01*
X150315395Y-84179210D01*
X149895405Y-84599200D01*
X149930692Y-84812768D01*
X150353564Y-84953149D01*
X150637135Y-84932646D01*
X150631851Y-84948564D01*
X150663982Y-85392968D01*
X150772232Y-85654308D01*
X150985800Y-85689595D01*
X151585395Y-85090000D01*
X151585395Y-85449210D01*
X151165405Y-85869200D01*
X151200692Y-86082768D01*
X151623564Y-86223149D01*
X151907135Y-86202646D01*
X151901851Y-86218564D01*
X151933982Y-86662968D01*
X152042232Y-86924308D01*
X152255800Y-86959595D01*
X152855395Y-86360000D01*
X152855395Y-86719210D01*
X152435405Y-87139200D01*
X152470692Y-87352768D01*
X152893564Y-87493149D01*
X153177135Y-87472646D01*
X153171851Y-87488564D01*
X153203982Y-87932968D01*
X153312232Y-88194308D01*
X153525800Y-88229595D01*
X154125395Y-87630000D01*
X154125395Y-87989210D01*
X153705405Y-88409200D01*
X153740692Y-88622768D01*
X154163564Y-88763149D01*
X154607968Y-88731018D01*
X154869308Y-88622768D01*
X154904595Y-88409200D01*
X154904595Y-102943543D01*
X146948026Y-94986974D01*
X146536008Y-94711673D01*
X146050000Y-94614999D01*
X146049994Y-94615000D01*
X144008149Y-94615000D01*
X144008149Y-82691436D01*
X143976018Y-82247032D01*
X143867768Y-81985692D01*
X143654200Y-81950405D01*
X143474595Y-82130010D01*
X143474595Y-81770800D01*
X143439308Y-81557232D01*
X143016436Y-81416851D01*
X142572032Y-81448982D01*
X142310692Y-81557232D01*
X142275405Y-81770800D01*
X142875000Y-82370395D01*
X143474595Y-81770800D01*
X143474595Y-82130010D01*
X143054605Y-82550000D01*
X143654200Y-83149595D01*
X143867768Y-83114308D01*
X144008149Y-82691436D01*
X144008149Y-94615000D01*
X143474595Y-94615000D01*
X143474595Y-83329200D01*
X142875000Y-82729605D01*
X142695395Y-82909210D01*
X142695395Y-82550000D01*
X142095800Y-81950405D01*
X141882232Y-81985692D01*
X141741851Y-82408564D01*
X141773982Y-82852968D01*
X141882232Y-83114308D01*
X142095800Y-83149595D01*
X142695395Y-82550000D01*
X142695395Y-82909210D01*
X142275405Y-83329200D01*
X142310692Y-83542768D01*
X142733564Y-83683149D01*
X143177968Y-83651018D01*
X143439308Y-83542768D01*
X143474595Y-83329200D01*
X143474595Y-94615000D01*
X131076140Y-94615000D01*
X131045643Y-94584449D01*
X130481670Y-94350267D01*
X129871009Y-94349735D01*
X129306629Y-94582932D01*
X128874449Y-95014357D01*
X128640267Y-95578330D01*
X128639735Y-96188991D01*
X128872932Y-96753371D01*
X129304357Y-97185551D01*
X129868330Y-97419733D01*
X130478991Y-97420265D01*
X131043371Y-97187068D01*
X131075495Y-97155000D01*
X145523948Y-97155000D01*
X157721560Y-109352612D01*
X157721560Y-110236000D01*
X157768537Y-110478123D01*
X157908327Y-110690927D01*
X158119360Y-110833377D01*
X158369000Y-110883440D01*
X160401000Y-110883440D01*
X160643123Y-110836463D01*
X160855927Y-110696673D01*
X160998377Y-110485640D01*
X161048440Y-110236000D01*
X161048440Y-114250000D01*
X144008149Y-114250000D01*
X144008149Y-105551436D01*
X143976018Y-105107032D01*
X143867768Y-104845692D01*
X143654200Y-104810405D01*
X143474595Y-104990010D01*
X143474595Y-104630800D01*
X143439308Y-104417232D01*
X143016436Y-104276851D01*
X142572032Y-104308982D01*
X142310692Y-104417232D01*
X142275405Y-104630800D01*
X142875000Y-105230395D01*
X143474595Y-104630800D01*
X143474595Y-104990010D01*
X143054605Y-105410000D01*
X143654200Y-106009595D01*
X143867768Y-105974308D01*
X144008149Y-105551436D01*
X144008149Y-114250000D01*
X143474595Y-114250000D01*
X143474595Y-106189200D01*
X142875000Y-105589605D01*
X142695395Y-105769210D01*
X142695395Y-105410000D01*
X142095800Y-104810405D01*
X141882232Y-104845692D01*
X141741851Y-105268564D01*
X141773982Y-105712968D01*
X141882232Y-105974308D01*
X142095800Y-106009595D01*
X142695395Y-105410000D01*
X142695395Y-105769210D01*
X142275405Y-106189200D01*
X142310692Y-106402768D01*
X142733564Y-106543149D01*
X143177968Y-106511018D01*
X143439308Y-106402768D01*
X143474595Y-106189200D01*
X143474595Y-114250000D01*
X134080000Y-114250000D01*
X134080000Y-104891310D01*
X134080000Y-104638691D01*
X134080000Y-104425750D01*
X134080000Y-103854250D01*
X134080000Y-103641309D01*
X134080000Y-103388690D01*
X133983327Y-103155301D01*
X133804698Y-102976673D01*
X133571309Y-102880000D01*
X132980750Y-102880000D01*
X132822000Y-103038750D01*
X132822000Y-104013000D01*
X133921250Y-104013000D01*
X134080000Y-103854250D01*
X134080000Y-104425750D01*
X133921250Y-104267000D01*
X132822000Y-104267000D01*
X132822000Y-105241250D01*
X132980750Y-105400000D01*
X133571309Y-105400000D01*
X133804698Y-105303327D01*
X133983327Y-105124699D01*
X134080000Y-104891310D01*
X134080000Y-114250000D01*
X132568000Y-114250000D01*
X132568000Y-105241250D01*
X132568000Y-104267000D01*
X132548000Y-104267000D01*
X132548000Y-104013000D01*
X132568000Y-104013000D01*
X132568000Y-103038750D01*
X132409250Y-102880000D01*
X131818691Y-102880000D01*
X131585302Y-102976673D01*
X131443823Y-103118150D01*
X131405673Y-103060073D01*
X131194640Y-102917623D01*
X130945000Y-102867560D01*
X129445000Y-102867560D01*
X129202877Y-102914537D01*
X128990073Y-103054327D01*
X128847623Y-103265360D01*
X128797560Y-103515000D01*
X128797560Y-104442638D01*
X127097599Y-106142599D01*
X126932852Y-106389161D01*
X126875000Y-106680000D01*
X126875000Y-107708960D01*
X126771400Y-107708960D01*
X126529277Y-107755937D01*
X126316473Y-107895727D01*
X126174023Y-108106760D01*
X126123960Y-108356400D01*
X126123960Y-110083600D01*
X126170937Y-110325723D01*
X126310727Y-110538527D01*
X126521760Y-110680977D01*
X126562659Y-110689179D01*
X126545971Y-110700330D01*
X126221115Y-111186511D01*
X126107041Y-111760000D01*
X126221115Y-112333489D01*
X126545971Y-112819670D01*
X127032152Y-113144526D01*
X127605641Y-113258600D01*
X127664359Y-113258600D01*
X128237848Y-113144526D01*
X128724029Y-112819670D01*
X128904992Y-112548839D01*
X129286510Y-112966821D01*
X129815973Y-113214968D01*
X130048000Y-113094469D01*
X130048000Y-111887000D01*
X130028000Y-111887000D01*
X130028000Y-111633000D01*
X130048000Y-111633000D01*
X130048000Y-110554469D01*
X130048000Y-110425531D01*
X130048000Y-109347000D01*
X130028000Y-109347000D01*
X130028000Y-109093000D01*
X130048000Y-109093000D01*
X130048000Y-107885531D01*
X129815973Y-107765032D01*
X129286510Y-108013179D01*
X129115746Y-108200263D01*
X129099063Y-108114277D01*
X128959273Y-107901473D01*
X128748240Y-107759023D01*
X128498600Y-107708960D01*
X128395000Y-107708960D01*
X128395000Y-106994802D01*
X129977362Y-105412440D01*
X130945000Y-105412440D01*
X131187123Y-105365463D01*
X131399927Y-105225673D01*
X131443337Y-105161362D01*
X131585302Y-105303327D01*
X131818691Y-105400000D01*
X132409250Y-105400000D01*
X132568000Y-105241250D01*
X132568000Y-114250000D01*
X131629958Y-114250000D01*
X131629958Y-112119026D01*
X131629958Y-111400974D01*
X131457688Y-110985053D01*
X131063490Y-110553179D01*
X130928687Y-110490000D01*
X131063490Y-110426821D01*
X131457688Y-109994947D01*
X131629958Y-109579026D01*
X131629958Y-108860974D01*
X131457688Y-108445053D01*
X131063490Y-108013179D01*
X130534027Y-107765032D01*
X130302000Y-107885531D01*
X130302000Y-109093000D01*
X131508817Y-109093000D01*
X131629958Y-108860974D01*
X131629958Y-109579026D01*
X131508817Y-109347000D01*
X130302000Y-109347000D01*
X130302000Y-110425531D01*
X130302000Y-110554469D01*
X130302000Y-111633000D01*
X131508817Y-111633000D01*
X131629958Y-111400974D01*
X131629958Y-112119026D01*
X131508817Y-111887000D01*
X130302000Y-111887000D01*
X130302000Y-113094469D01*
X130534027Y-113214968D01*
X131063490Y-112966821D01*
X131457688Y-112534947D01*
X131629958Y-112119026D01*
X131629958Y-114250000D01*
X123035473Y-114250000D01*
X123035473Y-110017664D01*
X122673134Y-109140737D01*
X122002792Y-108469224D01*
X121126499Y-108105355D01*
X120177664Y-108104527D01*
X119300737Y-108466866D01*
X118629224Y-109137208D01*
X118265355Y-110013501D01*
X118264527Y-110962336D01*
X118626866Y-111839263D01*
X119297208Y-112510776D01*
X120173501Y-112874645D01*
X121122336Y-112875473D01*
X121999263Y-112513134D01*
X122670776Y-111842792D01*
X123034645Y-110966499D01*
X123035473Y-110017664D01*
X123035473Y-114250000D01*
X112385000Y-114250000D01*
X112385000Y-71341309D01*
X112385000Y-70750750D01*
X112226250Y-70592000D01*
X111252000Y-70592000D01*
X111252000Y-71691250D01*
X111410750Y-71850000D01*
X111623691Y-71850000D01*
X111876310Y-71850000D01*
X112109699Y-71753327D01*
X112288327Y-71574698D01*
X112385000Y-71341309D01*
X112385000Y-114250000D01*
X110998000Y-114250000D01*
X110998000Y-71691250D01*
X110998000Y-70592000D01*
X110023750Y-70592000D01*
X109865000Y-70750750D01*
X109865000Y-71341309D01*
X109961673Y-71574698D01*
X110140301Y-71753327D01*
X110373690Y-71850000D01*
X110626309Y-71850000D01*
X110839250Y-71850000D01*
X110998000Y-71691250D01*
X110998000Y-114250000D01*
X101092000Y-114250000D01*
X101092000Y-50850000D01*
X173940000Y-50850000D01*
X173940000Y-114250000D01*
G36*
X100203000Y-114250000D02*
X99697440Y-114250000D01*
X99697440Y-87090000D01*
X99697440Y-85590000D01*
X99650463Y-85347877D01*
X99510673Y-85135073D01*
X99446362Y-85091662D01*
X99588327Y-84949698D01*
X99685000Y-84716309D01*
X99685000Y-84125750D01*
X99685000Y-83554250D01*
X99685000Y-82963691D01*
X99588327Y-82730302D01*
X99409699Y-82551673D01*
X99176310Y-82455000D01*
X98923691Y-82455000D01*
X98710750Y-82455000D01*
X98552000Y-82613750D01*
X98552000Y-83713000D01*
X99526250Y-83713000D01*
X99685000Y-83554250D01*
X99685000Y-84125750D01*
X99526250Y-83967000D01*
X98552000Y-83967000D01*
X98552000Y-83987000D01*
X98298000Y-83987000D01*
X98298000Y-83967000D01*
X98298000Y-83713000D01*
X98298000Y-82613750D01*
X98139250Y-82455000D01*
X97926309Y-82455000D01*
X97673690Y-82455000D01*
X97440301Y-82551673D01*
X97261673Y-82730302D01*
X97165000Y-82963691D01*
X97165000Y-83554250D01*
X97323750Y-83713000D01*
X98298000Y-83713000D01*
X98298000Y-83967000D01*
X97323750Y-83967000D01*
X97165000Y-84125750D01*
X97165000Y-84716309D01*
X97261673Y-84949698D01*
X97403150Y-85091176D01*
X97345073Y-85129327D01*
X97202623Y-85340360D01*
X97152560Y-85590000D01*
X97152560Y-85600000D01*
X96933345Y-85600000D01*
X96933345Y-81280000D01*
X96933345Y-76200000D01*
X96819271Y-75626511D01*
X96494415Y-75140330D01*
X96184930Y-74933539D01*
X96600732Y-74562036D01*
X96854709Y-74034791D01*
X96857358Y-74019026D01*
X96857358Y-73300974D01*
X96854709Y-73285209D01*
X96600732Y-72757964D01*
X96383149Y-72563561D01*
X96383149Y-71261436D01*
X96383149Y-68721436D01*
X96383149Y-66181436D01*
X96383149Y-63641436D01*
X96383149Y-61101436D01*
X96383149Y-58561436D01*
X96383149Y-56021436D01*
X96383149Y-53481436D01*
X96351018Y-53037032D01*
X96242768Y-52775692D01*
X96029200Y-52740405D01*
X95849595Y-52920010D01*
X95849595Y-52560800D01*
X95814308Y-52347232D01*
X95391436Y-52206851D01*
X94947032Y-52238982D01*
X94685692Y-52347232D01*
X94650405Y-52560800D01*
X95250000Y-53160395D01*
X95849595Y-52560800D01*
X95849595Y-52920010D01*
X95429605Y-53340000D01*
X96029200Y-53939595D01*
X96242768Y-53904308D01*
X96383149Y-53481436D01*
X96383149Y-56021436D01*
X96351018Y-55577032D01*
X96242768Y-55315692D01*
X96029200Y-55280405D01*
X95849595Y-55460010D01*
X95849595Y-55100800D01*
X95849595Y-54119200D01*
X95250000Y-53519605D01*
X95070395Y-53699210D01*
X95070395Y-53340000D01*
X94470800Y-52740405D01*
X94257232Y-52775692D01*
X94116851Y-53198564D01*
X94148982Y-53642968D01*
X94257232Y-53904308D01*
X94470800Y-53939595D01*
X95070395Y-53340000D01*
X95070395Y-53699210D01*
X94650405Y-54119200D01*
X94685692Y-54332768D01*
X95108564Y-54473149D01*
X95552968Y-54441018D01*
X95814308Y-54332768D01*
X95849595Y-54119200D01*
X95849595Y-55100800D01*
X95814308Y-54887232D01*
X95391436Y-54746851D01*
X94947032Y-54778982D01*
X94685692Y-54887232D01*
X94650405Y-55100800D01*
X95250000Y-55700395D01*
X95849595Y-55100800D01*
X95849595Y-55460010D01*
X95429605Y-55880000D01*
X96029200Y-56479595D01*
X96242768Y-56444308D01*
X96383149Y-56021436D01*
X96383149Y-58561436D01*
X96351018Y-58117032D01*
X96242768Y-57855692D01*
X96029200Y-57820405D01*
X95849595Y-58000010D01*
X95849595Y-57640800D01*
X95849595Y-56659200D01*
X95250000Y-56059605D01*
X95070395Y-56239210D01*
X95070395Y-55880000D01*
X94470800Y-55280405D01*
X94257232Y-55315692D01*
X94116851Y-55738564D01*
X94148982Y-56182968D01*
X94257232Y-56444308D01*
X94470800Y-56479595D01*
X95070395Y-55880000D01*
X95070395Y-56239210D01*
X94650405Y-56659200D01*
X94685692Y-56872768D01*
X95108564Y-57013149D01*
X95552968Y-56981018D01*
X95814308Y-56872768D01*
X95849595Y-56659200D01*
X95849595Y-57640800D01*
X95814308Y-57427232D01*
X95391436Y-57286851D01*
X94947032Y-57318982D01*
X94685692Y-57427232D01*
X94650405Y-57640800D01*
X95250000Y-58240395D01*
X95849595Y-57640800D01*
X95849595Y-58000010D01*
X95429605Y-58420000D01*
X96029200Y-59019595D01*
X96242768Y-58984308D01*
X96383149Y-58561436D01*
X96383149Y-61101436D01*
X96351018Y-60657032D01*
X96242768Y-60395692D01*
X96029200Y-60360405D01*
X95849595Y-60540010D01*
X95849595Y-60180800D01*
X95849595Y-59199200D01*
X95250000Y-58599605D01*
X95070395Y-58779210D01*
X95070395Y-58420000D01*
X94470800Y-57820405D01*
X94257232Y-57855692D01*
X94116851Y-58278564D01*
X94148982Y-58722968D01*
X94257232Y-58984308D01*
X94470800Y-59019595D01*
X95070395Y-58420000D01*
X95070395Y-58779210D01*
X94650405Y-59199200D01*
X94685692Y-59412768D01*
X95108564Y-59553149D01*
X95552968Y-59521018D01*
X95814308Y-59412768D01*
X95849595Y-59199200D01*
X95849595Y-60180800D01*
X95814308Y-59967232D01*
X95391436Y-59826851D01*
X94947032Y-59858982D01*
X94685692Y-59967232D01*
X94650405Y-60180800D01*
X95250000Y-60780395D01*
X95849595Y-60180800D01*
X95849595Y-60540010D01*
X95429605Y-60960000D01*
X96029200Y-61559595D01*
X96242768Y-61524308D01*
X96383149Y-61101436D01*
X96383149Y-63641436D01*
X96351018Y-63197032D01*
X96242768Y-62935692D01*
X96029200Y-62900405D01*
X95849595Y-63080010D01*
X95849595Y-62720800D01*
X95849595Y-61739200D01*
X95250000Y-61139605D01*
X95070395Y-61319210D01*
X95070395Y-60960000D01*
X94470800Y-60360405D01*
X94257232Y-60395692D01*
X94116851Y-60818564D01*
X94148982Y-61262968D01*
X94257232Y-61524308D01*
X94470800Y-61559595D01*
X95070395Y-60960000D01*
X95070395Y-61319210D01*
X94650405Y-61739200D01*
X94685692Y-61952768D01*
X95108564Y-62093149D01*
X95552968Y-62061018D01*
X95814308Y-61952768D01*
X95849595Y-61739200D01*
X95849595Y-62720800D01*
X95814308Y-62507232D01*
X95391436Y-62366851D01*
X94947032Y-62398982D01*
X94685692Y-62507232D01*
X94650405Y-62720800D01*
X95250000Y-63320395D01*
X95849595Y-62720800D01*
X95849595Y-63080010D01*
X95429605Y-63500000D01*
X96029200Y-64099595D01*
X96242768Y-64064308D01*
X96383149Y-63641436D01*
X96383149Y-66181436D01*
X96351018Y-65737032D01*
X96242768Y-65475692D01*
X96029200Y-65440405D01*
X95849595Y-65620010D01*
X95849595Y-65260800D01*
X95849595Y-64279200D01*
X95250000Y-63679605D01*
X95070395Y-63859210D01*
X95070395Y-63500000D01*
X94470800Y-62900405D01*
X94257232Y-62935692D01*
X94116851Y-63358564D01*
X94148982Y-63802968D01*
X94257232Y-64064308D01*
X94470800Y-64099595D01*
X95070395Y-63500000D01*
X95070395Y-63859210D01*
X94650405Y-64279200D01*
X94685692Y-64492768D01*
X95108564Y-64633149D01*
X95552968Y-64601018D01*
X95814308Y-64492768D01*
X95849595Y-64279200D01*
X95849595Y-65260800D01*
X95814308Y-65047232D01*
X95391436Y-64906851D01*
X94947032Y-64938982D01*
X94685692Y-65047232D01*
X94650405Y-65260800D01*
X95250000Y-65860395D01*
X95849595Y-65260800D01*
X95849595Y-65620010D01*
X95429605Y-66040000D01*
X96029200Y-66639595D01*
X96242768Y-66604308D01*
X96383149Y-66181436D01*
X96383149Y-68721436D01*
X96351018Y-68277032D01*
X96242768Y-68015692D01*
X96029200Y-67980405D01*
X95849595Y-68160010D01*
X95849595Y-67800800D01*
X95849595Y-66819200D01*
X95250000Y-66219605D01*
X95070395Y-66399210D01*
X95070395Y-66040000D01*
X94470800Y-65440405D01*
X94257232Y-65475692D01*
X94116851Y-65898564D01*
X94148982Y-66342968D01*
X94257232Y-66604308D01*
X94470800Y-66639595D01*
X95070395Y-66040000D01*
X95070395Y-66399210D01*
X94650405Y-66819200D01*
X94685692Y-67032768D01*
X95108564Y-67173149D01*
X95552968Y-67141018D01*
X95814308Y-67032768D01*
X95849595Y-66819200D01*
X95849595Y-67800800D01*
X95814308Y-67587232D01*
X95391436Y-67446851D01*
X94947032Y-67478982D01*
X94685692Y-67587232D01*
X94650405Y-67800800D01*
X95250000Y-68400395D01*
X95849595Y-67800800D01*
X95849595Y-68160010D01*
X95429605Y-68580000D01*
X96029200Y-69179595D01*
X96242768Y-69144308D01*
X96383149Y-68721436D01*
X96383149Y-71261436D01*
X96351018Y-70817032D01*
X96242768Y-70555692D01*
X96029200Y-70520405D01*
X95849595Y-70700010D01*
X95849595Y-70340800D01*
X95849595Y-69359200D01*
X95250000Y-68759605D01*
X95070395Y-68939210D01*
X95070395Y-68580000D01*
X94470800Y-67980405D01*
X94257232Y-68015692D01*
X94116851Y-68438564D01*
X94148982Y-68882968D01*
X94257232Y-69144308D01*
X94470800Y-69179595D01*
X95070395Y-68580000D01*
X95070395Y-68939210D01*
X94650405Y-69359200D01*
X94685692Y-69572768D01*
X95108564Y-69713149D01*
X95552968Y-69681018D01*
X95814308Y-69572768D01*
X95849595Y-69359200D01*
X95849595Y-70340800D01*
X95814308Y-70127232D01*
X95391436Y-69986851D01*
X94947032Y-70018982D01*
X94685692Y-70127232D01*
X94650405Y-70340800D01*
X95250000Y-70940395D01*
X95849595Y-70340800D01*
X95849595Y-70700010D01*
X95429605Y-71120000D01*
X96029200Y-71719595D01*
X96242768Y-71684308D01*
X96383149Y-71261436D01*
X96383149Y-72563561D01*
X96164320Y-72368046D01*
X95640428Y-72184790D01*
X95814308Y-72112768D01*
X95849595Y-71899200D01*
X95250000Y-71299605D01*
X95070395Y-71479210D01*
X95070395Y-71120000D01*
X94470800Y-70520405D01*
X94257232Y-70555692D01*
X94116851Y-70978564D01*
X94148982Y-71422968D01*
X94257232Y-71684308D01*
X94470800Y-71719595D01*
X95070395Y-71120000D01*
X95070395Y-71479210D01*
X94650405Y-71899200D01*
X94685692Y-72112768D01*
X94880546Y-72177453D01*
X94335680Y-72368046D01*
X93899268Y-72757964D01*
X93645291Y-73285209D01*
X93642642Y-73300974D01*
X93763783Y-73533000D01*
X95123000Y-73533000D01*
X95123000Y-73513000D01*
X95377000Y-73513000D01*
X95377000Y-73533000D01*
X96736217Y-73533000D01*
X96857358Y-73300974D01*
X96857358Y-74019026D01*
X96736217Y-73787000D01*
X95377000Y-73787000D01*
X95377000Y-73807000D01*
X95123000Y-73807000D01*
X95123000Y-73787000D01*
X93763783Y-73787000D01*
X93642642Y-74019026D01*
X93645291Y-74034791D01*
X93899268Y-74562036D01*
X94315069Y-74933539D01*
X94005585Y-75140330D01*
X93805351Y-75440000D01*
X93470000Y-75440000D01*
X93470000Y-69215000D01*
X93412148Y-68924161D01*
X93247401Y-68677599D01*
X92532401Y-67962599D01*
X92285839Y-67797852D01*
X91995000Y-67740000D01*
X91465499Y-67740000D01*
X91420463Y-67507877D01*
X91280673Y-67295073D01*
X91069640Y-67152623D01*
X90820000Y-67102560D01*
X89520000Y-67102560D01*
X89277877Y-67149537D01*
X89065073Y-67289327D01*
X88922623Y-67500360D01*
X88872560Y-67750000D01*
X88872560Y-67840000D01*
X86360499Y-67840000D01*
X86315463Y-67607877D01*
X86175673Y-67395073D01*
X85964640Y-67252623D01*
X85715000Y-67202560D01*
X84465000Y-67202560D01*
X84222877Y-67249537D01*
X84010073Y-67389327D01*
X83867623Y-67600360D01*
X83823576Y-67820000D01*
X80726247Y-67820000D01*
X80705463Y-67712877D01*
X80565673Y-67500073D01*
X80354640Y-67357623D01*
X80105000Y-67307560D01*
X78605000Y-67307560D01*
X78362877Y-67354537D01*
X78150073Y-67494327D01*
X78105386Y-67560528D01*
X78065673Y-67500073D01*
X77854640Y-67357623D01*
X77605000Y-67307560D01*
X76105000Y-67307560D01*
X75862877Y-67354537D01*
X75650073Y-67494327D01*
X75507623Y-67705360D01*
X75480622Y-67840000D01*
X71755499Y-67840000D01*
X71710463Y-67607877D01*
X71570673Y-67395073D01*
X71359640Y-67252623D01*
X71265000Y-67233643D01*
X71265000Y-64787048D01*
X71995658Y-64485147D01*
X72737542Y-63744557D01*
X73139542Y-62776433D01*
X73140457Y-61728166D01*
X72740147Y-60759342D01*
X71999557Y-60017458D01*
X71031433Y-59615458D01*
X69983166Y-59614543D01*
X69014342Y-60014853D01*
X68272458Y-60755443D01*
X67870458Y-61723567D01*
X67869543Y-62771834D01*
X68269853Y-63740658D01*
X69010443Y-64482542D01*
X69745000Y-64787556D01*
X69745000Y-67224872D01*
X69617877Y-67249537D01*
X69405073Y-67389327D01*
X69262623Y-67600360D01*
X69212560Y-67850000D01*
X69212560Y-69350000D01*
X69259537Y-69592123D01*
X69399327Y-69804927D01*
X69463637Y-69848337D01*
X69321673Y-69990302D01*
X69225000Y-70223691D01*
X69225000Y-70814250D01*
X69383750Y-70973000D01*
X70358000Y-70973000D01*
X70358000Y-70953000D01*
X70612000Y-70953000D01*
X70612000Y-70973000D01*
X71586250Y-70973000D01*
X71745000Y-70814250D01*
X71745000Y-70223691D01*
X71648327Y-69990302D01*
X71506849Y-69848823D01*
X71564927Y-69810673D01*
X71707377Y-69599640D01*
X71755434Y-69360000D01*
X75487633Y-69360000D01*
X75504537Y-69447123D01*
X75644327Y-69659927D01*
X75855360Y-69802377D01*
X76105000Y-69852440D01*
X77605000Y-69852440D01*
X77847123Y-69805463D01*
X78059927Y-69665673D01*
X78104613Y-69599471D01*
X78144327Y-69659927D01*
X78355360Y-69802377D01*
X78605000Y-69852440D01*
X80105000Y-69852440D01*
X80347123Y-69805463D01*
X80559927Y-69665673D01*
X80702377Y-69454640D01*
X80725366Y-69340000D01*
X83817560Y-69340000D01*
X83817560Y-69350000D01*
X83864537Y-69592123D01*
X84004327Y-69804927D01*
X84068637Y-69848337D01*
X83926673Y-69990302D01*
X83830000Y-70223691D01*
X83830000Y-70814250D01*
X83988750Y-70973000D01*
X84963000Y-70973000D01*
X84963000Y-70953000D01*
X85217000Y-70953000D01*
X85217000Y-70973000D01*
X86191250Y-70973000D01*
X86350000Y-70814250D01*
X86350000Y-70223691D01*
X86253327Y-69990302D01*
X86111849Y-69848823D01*
X86169927Y-69810673D01*
X86312377Y-69599640D01*
X86360434Y-69360000D01*
X88893902Y-69360000D01*
X88919537Y-69492123D01*
X89059327Y-69704927D01*
X89270360Y-69847377D01*
X89300791Y-69853479D01*
X89160301Y-69911673D01*
X88981673Y-70090302D01*
X88885000Y-70323691D01*
X88885000Y-70914250D01*
X89043750Y-71073000D01*
X90043000Y-71073000D01*
X90043000Y-71053000D01*
X90297000Y-71053000D01*
X90297000Y-71073000D01*
X91296250Y-71073000D01*
X91455000Y-70914250D01*
X91455000Y-70323691D01*
X91358327Y-70090302D01*
X91179699Y-69911673D01*
X91041557Y-69854453D01*
X91062123Y-69850463D01*
X91274927Y-69710673D01*
X91417377Y-69499640D01*
X91465434Y-69260000D01*
X91680198Y-69260000D01*
X91950000Y-69529802D01*
X91950000Y-76200000D01*
X92007852Y-76490839D01*
X92172599Y-76737401D01*
X92419161Y-76902148D01*
X92710000Y-76960000D01*
X93805351Y-76960000D01*
X94005585Y-77259670D01*
X94315069Y-77466460D01*
X93899268Y-77837964D01*
X93645291Y-78365209D01*
X93642642Y-78380974D01*
X93763783Y-78613000D01*
X95123000Y-78613000D01*
X95123000Y-78593000D01*
X95377000Y-78593000D01*
X95377000Y-78613000D01*
X96736217Y-78613000D01*
X96857358Y-78380974D01*
X96854709Y-78365209D01*
X96600732Y-77837964D01*
X96184930Y-77466460D01*
X96494415Y-77259670D01*
X96819271Y-76773489D01*
X96933345Y-76200000D01*
X96933345Y-81280000D01*
X96819271Y-80706511D01*
X96494415Y-80220330D01*
X96184930Y-80013539D01*
X96600732Y-79642036D01*
X96854709Y-79114791D01*
X96857358Y-79099026D01*
X96736217Y-78867000D01*
X95377000Y-78867000D01*
X95377000Y-78887000D01*
X95123000Y-78887000D01*
X95123000Y-78867000D01*
X93763783Y-78867000D01*
X93642642Y-79099026D01*
X93645291Y-79114791D01*
X93899268Y-79642036D01*
X94315069Y-80013539D01*
X94005585Y-80220330D01*
X93805351Y-80520000D01*
X91455000Y-80520000D01*
X91455000Y-72076309D01*
X91455000Y-71485750D01*
X91296250Y-71327000D01*
X90297000Y-71327000D01*
X90297000Y-72426250D01*
X90455750Y-72585000D01*
X90693691Y-72585000D01*
X90946310Y-72585000D01*
X91179699Y-72488327D01*
X91358327Y-72309698D01*
X91455000Y-72076309D01*
X91455000Y-80520000D01*
X90043000Y-80520000D01*
X90043000Y-72426250D01*
X90043000Y-71327000D01*
X89043750Y-71327000D01*
X88885000Y-71485750D01*
X88885000Y-72076309D01*
X88981673Y-72309698D01*
X89160301Y-72488327D01*
X89393690Y-72585000D01*
X89646309Y-72585000D01*
X89884250Y-72585000D01*
X90043000Y-72426250D01*
X90043000Y-80520000D01*
X86350000Y-80520000D01*
X86350000Y-71976309D01*
X86350000Y-71385750D01*
X86191250Y-71227000D01*
X85217000Y-71227000D01*
X85217000Y-72326250D01*
X85375750Y-72485000D01*
X85588691Y-72485000D01*
X85841310Y-72485000D01*
X86074699Y-72388327D01*
X86253327Y-72209698D01*
X86350000Y-71976309D01*
X86350000Y-80520000D01*
X85404802Y-80520000D01*
X84963000Y-80078198D01*
X84963000Y-72326250D01*
X84963000Y-71227000D01*
X83988750Y-71227000D01*
X83830000Y-71385750D01*
X83830000Y-71976309D01*
X83926673Y-72209698D01*
X84105301Y-72388327D01*
X84338690Y-72485000D01*
X84591309Y-72485000D01*
X84804250Y-72485000D01*
X84963000Y-72326250D01*
X84963000Y-80078198D01*
X80547401Y-75662599D01*
X80300839Y-75497852D01*
X80010000Y-75440000D01*
X78926097Y-75440000D01*
X78900463Y-75307877D01*
X78760673Y-75095073D01*
X78549640Y-74952623D01*
X78300000Y-74902560D01*
X76800000Y-74902560D01*
X76557877Y-74949537D01*
X76345073Y-75089327D01*
X76202623Y-75300360D01*
X76200783Y-75309530D01*
X76200463Y-75307877D01*
X76060673Y-75095073D01*
X75849640Y-74952623D01*
X75600000Y-74902560D01*
X74100000Y-74902560D01*
X73857877Y-74949537D01*
X73645073Y-75089327D01*
X73502623Y-75300360D01*
X73474619Y-75440000D01*
X71745000Y-75440000D01*
X71745000Y-71976309D01*
X71745000Y-71385750D01*
X71586250Y-71227000D01*
X70612000Y-71227000D01*
X70612000Y-72326250D01*
X70770750Y-72485000D01*
X70983691Y-72485000D01*
X71236310Y-72485000D01*
X71469699Y-72388327D01*
X71648327Y-72209698D01*
X71745000Y-71976309D01*
X71745000Y-75440000D01*
X70799801Y-75440000D01*
X70358000Y-74998198D01*
X70358000Y-72326250D01*
X70358000Y-71227000D01*
X69383750Y-71227000D01*
X69225000Y-71385750D01*
X69225000Y-71976309D01*
X69321673Y-72209698D01*
X69500301Y-72388327D01*
X69733690Y-72485000D01*
X69986309Y-72485000D01*
X70199250Y-72485000D01*
X70358000Y-72326250D01*
X70358000Y-74998198D01*
X67132401Y-71772599D01*
X66885839Y-71607852D01*
X66595000Y-71550000D01*
X64160499Y-71550000D01*
X64115463Y-71317877D01*
X63975673Y-71105073D01*
X63764640Y-70962623D01*
X63625000Y-70934619D01*
X63625000Y-69242440D01*
X63695000Y-69242440D01*
X63937123Y-69195463D01*
X64149927Y-69055673D01*
X64292377Y-68844640D01*
X64342440Y-68595000D01*
X64342440Y-67295000D01*
X64295463Y-67052877D01*
X64155673Y-66840073D01*
X63944640Y-66697623D01*
X63705000Y-66649565D01*
X63705000Y-57865000D01*
X63705000Y-56908440D01*
X63881000Y-56908440D01*
X64123123Y-56861463D01*
X64335927Y-56721673D01*
X64478377Y-56510640D01*
X64528440Y-56261000D01*
X64528440Y-54229000D01*
X64481463Y-53986877D01*
X64341673Y-53774073D01*
X64181956Y-53666262D01*
X64271385Y-53569818D01*
X64470975Y-53087944D01*
X64470975Y-52322056D01*
X64271385Y-51840182D01*
X63833379Y-51367812D01*
X63247946Y-51099017D01*
X62992000Y-51217633D01*
X62992000Y-52578000D01*
X64351836Y-52578000D01*
X64470975Y-52322056D01*
X64470975Y-53087944D01*
X64351836Y-52832000D01*
X62992000Y-52832000D01*
X62992000Y-52852000D01*
X62738000Y-52852000D01*
X62738000Y-52832000D01*
X62738000Y-52578000D01*
X62738000Y-51217633D01*
X62482054Y-51099017D01*
X61896621Y-51367812D01*
X61458615Y-51840182D01*
X61259025Y-52322056D01*
X61378164Y-52578000D01*
X62738000Y-52578000D01*
X62738000Y-52832000D01*
X61378164Y-52832000D01*
X61259025Y-53087944D01*
X61458615Y-53569818D01*
X61548574Y-53666835D01*
X61394073Y-53768327D01*
X61251623Y-53979360D01*
X61201560Y-54229000D01*
X61201560Y-56261000D01*
X61248537Y-56503123D01*
X61388327Y-56715927D01*
X61599360Y-56858377D01*
X61849000Y-56908440D01*
X62185000Y-56908440D01*
X62185000Y-57865000D01*
X62185000Y-66649500D01*
X61952877Y-66694537D01*
X61740073Y-66834327D01*
X61597623Y-67045360D01*
X61591520Y-67075791D01*
X61533327Y-66935301D01*
X61354698Y-66756673D01*
X61121309Y-66660000D01*
X60530750Y-66660000D01*
X60372000Y-66818750D01*
X60372000Y-67818000D01*
X60392000Y-67818000D01*
X60392000Y-68072000D01*
X60372000Y-68072000D01*
X60372000Y-69071250D01*
X60530750Y-69230000D01*
X61121309Y-69230000D01*
X61354698Y-69133327D01*
X61533327Y-68954699D01*
X61590546Y-68816557D01*
X61594537Y-68837123D01*
X61734327Y-69049927D01*
X61945360Y-69192377D01*
X62105000Y-69224391D01*
X62105000Y-70933902D01*
X61972877Y-70959537D01*
X61760073Y-71099327D01*
X61617623Y-71310360D01*
X61567560Y-71560000D01*
X61567560Y-73060000D01*
X61614537Y-73302123D01*
X61754327Y-73514927D01*
X61965360Y-73657377D01*
X61974530Y-73659216D01*
X61972877Y-73659537D01*
X61760073Y-73799327D01*
X61617623Y-74010360D01*
X61567560Y-74260000D01*
X61567560Y-75760000D01*
X61614537Y-76002123D01*
X61754327Y-76214927D01*
X61965360Y-76357377D01*
X62185000Y-76401423D01*
X62185000Y-78079500D01*
X61952877Y-78124537D01*
X61740073Y-78264327D01*
X61597623Y-78475360D01*
X61591520Y-78505791D01*
X61533327Y-78365301D01*
X61354698Y-78186673D01*
X61121309Y-78090000D01*
X60530750Y-78090000D01*
X60372000Y-78248750D01*
X60372000Y-79248000D01*
X60392000Y-79248000D01*
X60392000Y-79502000D01*
X60372000Y-79502000D01*
X60372000Y-80501250D01*
X60530750Y-80660000D01*
X61121309Y-80660000D01*
X61354698Y-80563327D01*
X61533327Y-80384699D01*
X61590546Y-80246557D01*
X61594537Y-80267123D01*
X61734327Y-80479927D01*
X61945360Y-80622377D01*
X62185000Y-80670434D01*
X62185000Y-85276449D01*
X62055673Y-85079573D01*
X61844640Y-84937123D01*
X61595000Y-84887060D01*
X60118000Y-84887060D01*
X60118000Y-80501250D01*
X60118000Y-79502000D01*
X60118000Y-79248000D01*
X60118000Y-78248750D01*
X60118000Y-69071250D01*
X60118000Y-68072000D01*
X60118000Y-67818000D01*
X60118000Y-66818750D01*
X59959250Y-66660000D01*
X59368691Y-66660000D01*
X59135302Y-66756673D01*
X58956673Y-66935301D01*
X58860000Y-67168690D01*
X58860000Y-67421309D01*
X58860000Y-67659250D01*
X59018750Y-67818000D01*
X60118000Y-67818000D01*
X60118000Y-68072000D01*
X59018750Y-68072000D01*
X58860000Y-68230750D01*
X58860000Y-68468691D01*
X58860000Y-68721310D01*
X58956673Y-68954699D01*
X59135302Y-69133327D01*
X59368691Y-69230000D01*
X59959250Y-69230000D01*
X60118000Y-69071250D01*
X60118000Y-78248750D01*
X59959250Y-78090000D01*
X59368691Y-78090000D01*
X59135302Y-78186673D01*
X58956673Y-78365301D01*
X58860000Y-78598690D01*
X58860000Y-78851309D01*
X58860000Y-79089250D01*
X59018750Y-79248000D01*
X60118000Y-79248000D01*
X60118000Y-79502000D01*
X59018750Y-79502000D01*
X58860000Y-79660750D01*
X58860000Y-79898691D01*
X58860000Y-80151310D01*
X58956673Y-80384699D01*
X59135302Y-80563327D01*
X59368691Y-80660000D01*
X59959250Y-80660000D01*
X60118000Y-80501250D01*
X60118000Y-84887060D01*
X59055000Y-84887060D01*
X58812877Y-84934037D01*
X58600073Y-85073827D01*
X58457623Y-85284860D01*
X58407560Y-85534500D01*
X58407560Y-87185500D01*
X58454537Y-87427623D01*
X58588305Y-87631260D01*
X58457623Y-87824860D01*
X58407560Y-88074500D01*
X58407560Y-88140000D01*
X57980000Y-88140000D01*
X57980000Y-80151310D01*
X57980000Y-79898691D01*
X57980000Y-79660750D01*
X57980000Y-79089250D01*
X57980000Y-78851309D01*
X57980000Y-78598690D01*
X57980000Y-68721310D01*
X57980000Y-68468691D01*
X57980000Y-68230750D01*
X57980000Y-67659250D01*
X57980000Y-67421309D01*
X57980000Y-67168690D01*
X57883327Y-66935301D01*
X57704698Y-66756673D01*
X57471309Y-66660000D01*
X56995473Y-66660000D01*
X56995473Y-54137664D01*
X56633134Y-53260737D01*
X55962792Y-52589224D01*
X55086499Y-52225355D01*
X54137664Y-52224527D01*
X53260737Y-52586866D01*
X52589224Y-53257208D01*
X52225355Y-54133501D01*
X52224527Y-55082336D01*
X52586866Y-55959263D01*
X53257208Y-56630776D01*
X54133501Y-56994645D01*
X55082336Y-56995473D01*
X55959263Y-56633134D01*
X56630776Y-55962792D01*
X56994645Y-55086499D01*
X56995473Y-54137664D01*
X56995473Y-66660000D01*
X56880750Y-66660000D01*
X56722000Y-66818750D01*
X56722000Y-67818000D01*
X57821250Y-67818000D01*
X57980000Y-67659250D01*
X57980000Y-68230750D01*
X57821250Y-68072000D01*
X56722000Y-68072000D01*
X56722000Y-69071250D01*
X56880750Y-69230000D01*
X57471309Y-69230000D01*
X57704698Y-69133327D01*
X57883327Y-68954699D01*
X57980000Y-68721310D01*
X57980000Y-78598690D01*
X57883327Y-78365301D01*
X57704698Y-78186673D01*
X57471309Y-78090000D01*
X56880750Y-78090000D01*
X56722000Y-78248750D01*
X56722000Y-79248000D01*
X57821250Y-79248000D01*
X57980000Y-79089250D01*
X57980000Y-79660750D01*
X57821250Y-79502000D01*
X56722000Y-79502000D01*
X56722000Y-80501250D01*
X56880750Y-80660000D01*
X57471309Y-80660000D01*
X57704698Y-80563327D01*
X57883327Y-80384699D01*
X57980000Y-80151310D01*
X57980000Y-88140000D01*
X57162440Y-88140000D01*
X57162440Y-88074500D01*
X57115463Y-87832377D01*
X56981694Y-87628739D01*
X57112377Y-87435140D01*
X57162440Y-87185500D01*
X57162440Y-85534500D01*
X57115463Y-85292377D01*
X56975673Y-85079573D01*
X56764640Y-84937123D01*
X56515000Y-84887060D01*
X54846862Y-84887060D01*
X54735000Y-84775198D01*
X54735000Y-80654978D01*
X54887123Y-80625463D01*
X55099927Y-80485673D01*
X55242377Y-80274640D01*
X55248479Y-80244208D01*
X55306673Y-80384699D01*
X55485302Y-80563327D01*
X55718691Y-80660000D01*
X56309250Y-80660000D01*
X56468000Y-80501250D01*
X56468000Y-79502000D01*
X56448000Y-79502000D01*
X56448000Y-79248000D01*
X56468000Y-79248000D01*
X56468000Y-78248750D01*
X56309250Y-78090000D01*
X55718691Y-78090000D01*
X55485302Y-78186673D01*
X55306673Y-78365301D01*
X55249453Y-78503442D01*
X55245463Y-78482877D01*
X55105673Y-78270073D01*
X54894640Y-78127623D01*
X54655000Y-78079565D01*
X54655000Y-76401619D01*
X54867123Y-76360463D01*
X55079927Y-76220673D01*
X55222377Y-76009640D01*
X55272440Y-75760000D01*
X55272440Y-74260000D01*
X55225463Y-74017877D01*
X55085673Y-73805073D01*
X54874640Y-73662623D01*
X54865469Y-73660783D01*
X54867123Y-73660463D01*
X55079927Y-73520673D01*
X55222377Y-73309640D01*
X55272440Y-73060000D01*
X55272440Y-71560000D01*
X55225463Y-71317877D01*
X55085673Y-71105073D01*
X54874640Y-70962623D01*
X54735000Y-70934619D01*
X54735000Y-69224978D01*
X54887123Y-69195463D01*
X55099927Y-69055673D01*
X55242377Y-68844640D01*
X55248479Y-68814208D01*
X55306673Y-68954699D01*
X55485302Y-69133327D01*
X55718691Y-69230000D01*
X56309250Y-69230000D01*
X56468000Y-69071250D01*
X56468000Y-68072000D01*
X56448000Y-68072000D01*
X56448000Y-67818000D01*
X56468000Y-67818000D01*
X56468000Y-66818750D01*
X56309250Y-66660000D01*
X55718691Y-66660000D01*
X55485302Y-66756673D01*
X55306673Y-66935301D01*
X55249453Y-67073442D01*
X55245463Y-67052877D01*
X55105673Y-66840073D01*
X54894640Y-66697623D01*
X54655000Y-66649565D01*
X54655000Y-65798440D01*
X54991000Y-65798440D01*
X55233123Y-65751463D01*
X55445927Y-65611673D01*
X55588377Y-65400640D01*
X55638440Y-65151000D01*
X55638440Y-63119000D01*
X55591463Y-62876877D01*
X55451673Y-62664073D01*
X55291956Y-62556262D01*
X55381385Y-62459818D01*
X55580975Y-61977944D01*
X55580975Y-61212056D01*
X55381385Y-60730182D01*
X54943379Y-60257812D01*
X54357946Y-59989017D01*
X54102000Y-60107633D01*
X54102000Y-61468000D01*
X55461836Y-61468000D01*
X55580975Y-61212056D01*
X55580975Y-61977944D01*
X55461836Y-61722000D01*
X54102000Y-61722000D01*
X54102000Y-61742000D01*
X53848000Y-61742000D01*
X53848000Y-61722000D01*
X53848000Y-61468000D01*
X53848000Y-60107633D01*
X53592054Y-59989017D01*
X53006621Y-60257812D01*
X52568615Y-60730182D01*
X52369025Y-61212056D01*
X52488164Y-61468000D01*
X53848000Y-61468000D01*
X53848000Y-61722000D01*
X52488164Y-61722000D01*
X52369025Y-61977944D01*
X52568615Y-62459818D01*
X52658574Y-62556835D01*
X52504073Y-62658327D01*
X52361623Y-62869360D01*
X52311560Y-63119000D01*
X52311560Y-65151000D01*
X52358537Y-65393123D01*
X52498327Y-65605927D01*
X52709360Y-65748377D01*
X52959000Y-65798440D01*
X53135000Y-65798440D01*
X53135000Y-66649500D01*
X52902877Y-66694537D01*
X52690073Y-66834327D01*
X52547623Y-67045360D01*
X52497560Y-67295000D01*
X52497560Y-68595000D01*
X52544537Y-68837123D01*
X52684327Y-69049927D01*
X52895360Y-69192377D01*
X53145000Y-69242440D01*
X53215000Y-69242440D01*
X53215000Y-70933902D01*
X53082877Y-70959537D01*
X52870073Y-71099327D01*
X52727623Y-71310360D01*
X52677560Y-71560000D01*
X52677560Y-73060000D01*
X52724537Y-73302123D01*
X52864327Y-73514927D01*
X53075360Y-73657377D01*
X53084530Y-73659216D01*
X53082877Y-73659537D01*
X52870073Y-73799327D01*
X52727623Y-74010360D01*
X52677560Y-74260000D01*
X52677560Y-75760000D01*
X52724537Y-76002123D01*
X52864327Y-76214927D01*
X53075360Y-76357377D01*
X53135000Y-76369337D01*
X53135000Y-78079500D01*
X52902877Y-78124537D01*
X52690073Y-78264327D01*
X52547623Y-78475360D01*
X52497560Y-78725000D01*
X52497560Y-80025000D01*
X52544537Y-80267123D01*
X52684327Y-80479927D01*
X52895360Y-80622377D01*
X53145000Y-80672440D01*
X53215000Y-80672440D01*
X53215000Y-85090000D01*
X53272852Y-85380839D01*
X53338632Y-85479286D01*
X53327560Y-85534500D01*
X53327560Y-87185500D01*
X53374537Y-87427623D01*
X53508305Y-87631260D01*
X53377623Y-87824860D01*
X53327560Y-88074500D01*
X53327560Y-89725500D01*
X53374537Y-89967623D01*
X53508305Y-90171260D01*
X53377623Y-90364860D01*
X53327560Y-90614500D01*
X53327560Y-92265500D01*
X53374537Y-92507623D01*
X53514327Y-92720427D01*
X53725360Y-92862877D01*
X53975000Y-92912940D01*
X55643138Y-92912940D01*
X55835000Y-93104802D01*
X55835000Y-94589500D01*
X55602877Y-94634537D01*
X55390073Y-94774327D01*
X55247623Y-94985360D01*
X55241520Y-95015791D01*
X55183327Y-94875301D01*
X55004698Y-94696673D01*
X54771309Y-94600000D01*
X54180750Y-94600000D01*
X54022000Y-94758750D01*
X54022000Y-95758000D01*
X54042000Y-95758000D01*
X54042000Y-96012000D01*
X54022000Y-96012000D01*
X54022000Y-97011250D01*
X54180750Y-97170000D01*
X54771309Y-97170000D01*
X55004698Y-97073327D01*
X55183327Y-96894699D01*
X55240546Y-96756557D01*
X55244537Y-96777123D01*
X55384327Y-96989927D01*
X55595360Y-97132377D01*
X55845000Y-97182440D01*
X57345000Y-97182440D01*
X57587123Y-97135463D01*
X57799927Y-96995673D01*
X57942377Y-96784640D01*
X57986423Y-96565000D01*
X60299500Y-96565000D01*
X60344537Y-96797123D01*
X60484327Y-97009927D01*
X60695360Y-97152377D01*
X60704530Y-97154216D01*
X60702877Y-97154537D01*
X60490073Y-97294327D01*
X60347623Y-97505360D01*
X60297560Y-97755000D01*
X60297560Y-99255000D01*
X60344537Y-99497123D01*
X60484327Y-99709927D01*
X60695360Y-99852377D01*
X60835000Y-99880380D01*
X60835000Y-101480000D01*
X60855885Y-101585000D01*
X60530750Y-101585000D01*
X60372000Y-101743750D01*
X60372000Y-102743000D01*
X60392000Y-102743000D01*
X60392000Y-102997000D01*
X60372000Y-102997000D01*
X60372000Y-103996250D01*
X60530750Y-104155000D01*
X61121309Y-104155000D01*
X61354698Y-104058327D01*
X61533327Y-103879699D01*
X61590546Y-103741557D01*
X61594537Y-103762123D01*
X61734327Y-103974927D01*
X61945360Y-104117377D01*
X62195000Y-104167440D01*
X63695000Y-104167440D01*
X63937123Y-104120463D01*
X64149927Y-103980673D01*
X64292377Y-103769640D01*
X64324391Y-103610000D01*
X67967951Y-103610000D01*
X68269853Y-104340658D01*
X69010443Y-105082542D01*
X69978567Y-105484542D01*
X71026834Y-105485457D01*
X71995658Y-105085147D01*
X72737542Y-104344557D01*
X73139542Y-103376433D01*
X73140457Y-102328166D01*
X72740147Y-101359342D01*
X71999557Y-100617458D01*
X71745000Y-100511756D01*
X71745000Y-92296309D01*
X71745000Y-91705750D01*
X71586250Y-91547000D01*
X70612000Y-91547000D01*
X70612000Y-92646250D01*
X70770750Y-92805000D01*
X70983691Y-92805000D01*
X71236310Y-92805000D01*
X71469699Y-92708327D01*
X71648327Y-92529698D01*
X71745000Y-92296309D01*
X71745000Y-100511756D01*
X71031433Y-100215458D01*
X70358000Y-100214870D01*
X70358000Y-92646250D01*
X70358000Y-91547000D01*
X69383750Y-91547000D01*
X69225000Y-91705750D01*
X69225000Y-92296309D01*
X69321673Y-92529698D01*
X69500301Y-92708327D01*
X69733690Y-92805000D01*
X69986309Y-92805000D01*
X70199250Y-92805000D01*
X70358000Y-92646250D01*
X70358000Y-100214870D01*
X69983166Y-100214543D01*
X69014342Y-100614853D01*
X68272458Y-101355443D01*
X67967443Y-102090000D01*
X64317217Y-102090000D01*
X64295463Y-101977877D01*
X64155673Y-101765073D01*
X63944640Y-101622623D01*
X63695000Y-101572560D01*
X62762362Y-101572560D01*
X62355000Y-101165198D01*
X62355000Y-99881097D01*
X62487123Y-99855463D01*
X62699927Y-99715673D01*
X62842377Y-99504640D01*
X62892440Y-99255000D01*
X62892440Y-97755000D01*
X62845463Y-97512877D01*
X62705673Y-97300073D01*
X62494640Y-97157623D01*
X62485469Y-97155783D01*
X62487123Y-97155463D01*
X62699927Y-97015673D01*
X62842377Y-96804640D01*
X62892440Y-96555000D01*
X62892440Y-95055000D01*
X62845463Y-94812877D01*
X62705673Y-94600073D01*
X62494640Y-94457623D01*
X62245000Y-94407560D01*
X62230000Y-94407560D01*
X62230000Y-92391809D01*
X62230000Y-91725750D01*
X62071250Y-91567000D01*
X60452000Y-91567000D01*
X60452000Y-92741750D01*
X60610750Y-92900500D01*
X61468691Y-92900500D01*
X61721310Y-92900500D01*
X61954699Y-92803827D01*
X62133327Y-92625198D01*
X62230000Y-92391809D01*
X62230000Y-94407560D01*
X60945000Y-94407560D01*
X60702877Y-94454537D01*
X60490073Y-94594327D01*
X60347623Y-94805360D01*
X60299565Y-95045000D01*
X60198000Y-95045000D01*
X60198000Y-92741750D01*
X60198000Y-91567000D01*
X58578750Y-91567000D01*
X58420000Y-91725750D01*
X58420000Y-92391809D01*
X58516673Y-92625198D01*
X58695301Y-92803827D01*
X58928690Y-92900500D01*
X59181309Y-92900500D01*
X60039250Y-92900500D01*
X60198000Y-92741750D01*
X60198000Y-95045000D01*
X57955575Y-95045000D01*
X57945463Y-94992877D01*
X57805673Y-94780073D01*
X57594640Y-94637623D01*
X57355000Y-94589565D01*
X57355000Y-92790000D01*
X57297148Y-92499161D01*
X57297148Y-92499160D01*
X57157495Y-92290155D01*
X57162440Y-92265500D01*
X57162440Y-90614500D01*
X57115463Y-90372377D01*
X56981694Y-90168739D01*
X57112377Y-89975140D01*
X57162440Y-89725500D01*
X57162440Y-89660000D01*
X58407560Y-89660000D01*
X58407560Y-89725500D01*
X58454537Y-89967623D01*
X58593026Y-90178447D01*
X58516673Y-90254802D01*
X58420000Y-90488191D01*
X58420000Y-91154250D01*
X58578750Y-91313000D01*
X60198000Y-91313000D01*
X60198000Y-91293000D01*
X60452000Y-91293000D01*
X60452000Y-91313000D01*
X62071250Y-91313000D01*
X62230000Y-91154250D01*
X62230000Y-90488191D01*
X62133327Y-90254802D01*
X62055879Y-90177354D01*
X62192377Y-89975140D01*
X62242440Y-89725500D01*
X62242440Y-88074500D01*
X62195463Y-87832377D01*
X62061694Y-87628739D01*
X62192377Y-87435140D01*
X62242440Y-87185500D01*
X62242440Y-87117525D01*
X62520839Y-87062148D01*
X62767401Y-86897401D01*
X63482401Y-86182401D01*
X63647148Y-85935839D01*
X63705000Y-85645000D01*
X63705000Y-80670499D01*
X63937123Y-80625463D01*
X64149927Y-80485673D01*
X64292377Y-80274640D01*
X64342440Y-80025000D01*
X64342440Y-78725000D01*
X64295463Y-78482877D01*
X64155673Y-78270073D01*
X63944640Y-78127623D01*
X63705000Y-78079565D01*
X63705000Y-76370575D01*
X63757123Y-76360463D01*
X63969927Y-76220673D01*
X64112377Y-76009640D01*
X64162440Y-75760000D01*
X64162440Y-74260000D01*
X64115463Y-74017877D01*
X63975673Y-73805073D01*
X63764640Y-73662623D01*
X63755469Y-73660783D01*
X63757123Y-73660463D01*
X63969927Y-73520673D01*
X64112377Y-73309640D01*
X64160434Y-73070000D01*
X66280198Y-73070000D01*
X69947599Y-76737401D01*
X70194161Y-76902148D01*
X70485000Y-76960000D01*
X73473902Y-76960000D01*
X73499537Y-77092123D01*
X73639327Y-77304927D01*
X73850360Y-77447377D01*
X74100000Y-77497440D01*
X75600000Y-77497440D01*
X75842123Y-77450463D01*
X76054927Y-77310673D01*
X76197377Y-77099640D01*
X76199216Y-77090469D01*
X76199537Y-77092123D01*
X76339327Y-77304927D01*
X76550360Y-77447377D01*
X76800000Y-77497440D01*
X78300000Y-77497440D01*
X78542123Y-77450463D01*
X78754927Y-77310673D01*
X78897377Y-77099640D01*
X78925380Y-76960000D01*
X79695198Y-76960000D01*
X84552599Y-81817401D01*
X84799161Y-81982148D01*
X85090000Y-82040000D01*
X93805351Y-82040000D01*
X94005585Y-82339670D01*
X94315069Y-82546460D01*
X93899268Y-82917964D01*
X93645291Y-83445209D01*
X93642642Y-83460974D01*
X93763783Y-83693000D01*
X95123000Y-83693000D01*
X95123000Y-83673000D01*
X95377000Y-83673000D01*
X95377000Y-83693000D01*
X96736217Y-83693000D01*
X96857358Y-83460974D01*
X96854709Y-83445209D01*
X96600732Y-82917964D01*
X96184930Y-82546460D01*
X96494415Y-82339670D01*
X96819271Y-81853489D01*
X96933345Y-81280000D01*
X96933345Y-85600000D01*
X96694648Y-85600000D01*
X96494415Y-85300330D01*
X96184930Y-85093539D01*
X96600732Y-84722036D01*
X96854709Y-84194791D01*
X96857358Y-84179026D01*
X96736217Y-83947000D01*
X95377000Y-83947000D01*
X95377000Y-83967000D01*
X95123000Y-83967000D01*
X95123000Y-83947000D01*
X93763783Y-83947000D01*
X93642642Y-84179026D01*
X93645291Y-84194791D01*
X93899268Y-84722036D01*
X94315069Y-85093539D01*
X94005585Y-85300330D01*
X93680729Y-85786511D01*
X93566655Y-86360000D01*
X93680729Y-86933489D01*
X94005585Y-87419670D01*
X94320365Y-87630000D01*
X94005585Y-87840330D01*
X93791988Y-88160000D01*
X91440499Y-88160000D01*
X91395463Y-87927877D01*
X91255673Y-87715073D01*
X91044640Y-87572623D01*
X90795000Y-87522560D01*
X89545000Y-87522560D01*
X89302877Y-87569537D01*
X89090073Y-87709327D01*
X88947623Y-87920360D01*
X88919619Y-88060000D01*
X86385499Y-88060000D01*
X86340463Y-87827877D01*
X86200673Y-87615073D01*
X85989640Y-87472623D01*
X85740000Y-87422560D01*
X84440000Y-87422560D01*
X84197877Y-87469537D01*
X83985073Y-87609327D01*
X83842623Y-87820360D01*
X83792560Y-88070000D01*
X83792560Y-88140000D01*
X80726247Y-88140000D01*
X80705463Y-88032877D01*
X80565673Y-87820073D01*
X80354640Y-87677623D01*
X80105000Y-87627560D01*
X78605000Y-87627560D01*
X78362877Y-87674537D01*
X78150073Y-87814327D01*
X78105386Y-87880528D01*
X78065673Y-87820073D01*
X77854640Y-87677623D01*
X77605000Y-87627560D01*
X76105000Y-87627560D01*
X75862877Y-87674537D01*
X75650073Y-87814327D01*
X75507623Y-88025360D01*
X75484633Y-88140000D01*
X71751619Y-88140000D01*
X71710463Y-87927877D01*
X71570673Y-87715073D01*
X71359640Y-87572623D01*
X71265000Y-87553643D01*
X71265000Y-85087048D01*
X71995658Y-84785147D01*
X72737542Y-84044557D01*
X73139542Y-83076433D01*
X73140457Y-82028166D01*
X72740147Y-81059342D01*
X71999557Y-80317458D01*
X71031433Y-79915458D01*
X69983166Y-79914543D01*
X69014342Y-80314853D01*
X68272458Y-81055443D01*
X67870458Y-82023567D01*
X67869543Y-83071834D01*
X68269853Y-84040658D01*
X69010443Y-84782542D01*
X69745000Y-85087556D01*
X69745000Y-87544872D01*
X69617877Y-87569537D01*
X69405073Y-87709327D01*
X69262623Y-87920360D01*
X69212560Y-88170000D01*
X69212560Y-89670000D01*
X69259537Y-89912123D01*
X69399327Y-90124927D01*
X69463637Y-90168337D01*
X69321673Y-90310302D01*
X69225000Y-90543691D01*
X69225000Y-91134250D01*
X69383750Y-91293000D01*
X70358000Y-91293000D01*
X70358000Y-91273000D01*
X70612000Y-91273000D01*
X70612000Y-91293000D01*
X71586250Y-91293000D01*
X71745000Y-91134250D01*
X71745000Y-90543691D01*
X71648327Y-90310302D01*
X71506849Y-90168823D01*
X71564927Y-90130673D01*
X71707377Y-89919640D01*
X71757440Y-89670000D01*
X71757440Y-89660000D01*
X75483752Y-89660000D01*
X75504537Y-89767123D01*
X75644327Y-89979927D01*
X75855360Y-90122377D01*
X76105000Y-90172440D01*
X77605000Y-90172440D01*
X77847123Y-90125463D01*
X78059927Y-89985673D01*
X78104613Y-89919471D01*
X78144327Y-89979927D01*
X78355360Y-90122377D01*
X78605000Y-90172440D01*
X80105000Y-90172440D01*
X80347123Y-90125463D01*
X80559927Y-89985673D01*
X80702377Y-89774640D01*
X80725366Y-89660000D01*
X83810021Y-89660000D01*
X83839537Y-89812123D01*
X83979327Y-90024927D01*
X84190360Y-90167377D01*
X84220791Y-90173479D01*
X84080301Y-90231673D01*
X83901673Y-90410302D01*
X83805000Y-90643691D01*
X83805000Y-91234250D01*
X83963750Y-91393000D01*
X84963000Y-91393000D01*
X84963000Y-91373000D01*
X85217000Y-91373000D01*
X85217000Y-91393000D01*
X86216250Y-91393000D01*
X86375000Y-91234250D01*
X86375000Y-90643691D01*
X86278327Y-90410302D01*
X86099699Y-90231673D01*
X85961557Y-90174453D01*
X85982123Y-90170463D01*
X86194927Y-90030673D01*
X86337377Y-89819640D01*
X86365380Y-89680000D01*
X88899500Y-89680000D01*
X88944537Y-89912123D01*
X89084327Y-90124927D01*
X89148637Y-90168337D01*
X89006673Y-90310302D01*
X88910000Y-90543691D01*
X88910000Y-91134250D01*
X89068750Y-91293000D01*
X90043000Y-91293000D01*
X90043000Y-91273000D01*
X90297000Y-91273000D01*
X90297000Y-91293000D01*
X91271250Y-91293000D01*
X91430000Y-91134250D01*
X91430000Y-90543691D01*
X91333327Y-90310302D01*
X91191849Y-90168823D01*
X91249927Y-90130673D01*
X91392377Y-89919640D01*
X91440434Y-89680000D01*
X93818715Y-89680000D01*
X94005585Y-89959670D01*
X94027779Y-89974499D01*
X93874301Y-90038073D01*
X93695673Y-90216702D01*
X93599000Y-90450091D01*
X93599000Y-91154250D01*
X93757750Y-91313000D01*
X95123000Y-91313000D01*
X95123000Y-91293000D01*
X95377000Y-91293000D01*
X95377000Y-91313000D01*
X96742250Y-91313000D01*
X96901000Y-91154250D01*
X96901000Y-90450091D01*
X96804327Y-90216702D01*
X96625699Y-90038073D01*
X96472220Y-89974499D01*
X96494415Y-89959670D01*
X96819271Y-89473489D01*
X96933345Y-88900000D01*
X96819271Y-88326511D01*
X96494415Y-87840330D01*
X96179634Y-87630000D01*
X96494415Y-87419670D01*
X96694648Y-87120000D01*
X97158380Y-87120000D01*
X97199537Y-87332123D01*
X97339327Y-87544927D01*
X97550360Y-87687377D01*
X97800000Y-87737440D01*
X99050000Y-87737440D01*
X99292123Y-87690463D01*
X99504927Y-87550673D01*
X99647377Y-87339640D01*
X99697440Y-87090000D01*
X99697440Y-114250000D01*
X96901000Y-114250000D01*
X96901000Y-92429909D01*
X96901000Y-91725750D01*
X96742250Y-91567000D01*
X95377000Y-91567000D01*
X95377000Y-91587000D01*
X95123000Y-91587000D01*
X95123000Y-91567000D01*
X93757750Y-91567000D01*
X93599000Y-91725750D01*
X93599000Y-92429909D01*
X93695673Y-92663298D01*
X93874301Y-92841927D01*
X94107690Y-92938600D01*
X94360309Y-92938600D01*
X94803100Y-92938600D01*
X94685692Y-92987232D01*
X94650405Y-93200800D01*
X95250000Y-93800395D01*
X95849595Y-93200800D01*
X95814308Y-92987232D01*
X95667813Y-92938600D01*
X96139691Y-92938600D01*
X96392310Y-92938600D01*
X96625699Y-92841927D01*
X96804327Y-92663298D01*
X96901000Y-92429909D01*
X96901000Y-114250000D01*
X96383149Y-114250000D01*
X96383149Y-111901436D01*
X96383149Y-109361436D01*
X96383149Y-106821436D01*
X96383149Y-104281436D01*
X96383149Y-101741436D01*
X96383149Y-99201436D01*
X96383149Y-96661436D01*
X96383149Y-94121436D01*
X96351018Y-93677032D01*
X96242768Y-93415692D01*
X96029200Y-93380405D01*
X95429605Y-93980000D01*
X96029200Y-94579595D01*
X96242768Y-94544308D01*
X96383149Y-94121436D01*
X96383149Y-96661436D01*
X96351018Y-96217032D01*
X96242768Y-95955692D01*
X96029200Y-95920405D01*
X95849595Y-96100010D01*
X95849595Y-95740800D01*
X95849595Y-94759200D01*
X95250000Y-94159605D01*
X95070395Y-94339210D01*
X95070395Y-93980000D01*
X94470800Y-93380405D01*
X94257232Y-93415692D01*
X94116851Y-93838564D01*
X94148982Y-94282968D01*
X94257232Y-94544308D01*
X94470800Y-94579595D01*
X95070395Y-93980000D01*
X95070395Y-94339210D01*
X94650405Y-94759200D01*
X94685692Y-94972768D01*
X95108564Y-95113149D01*
X95552968Y-95081018D01*
X95814308Y-94972768D01*
X95849595Y-94759200D01*
X95849595Y-95740800D01*
X95814308Y-95527232D01*
X95391436Y-95386851D01*
X94947032Y-95418982D01*
X94685692Y-95527232D01*
X94650405Y-95740800D01*
X95250000Y-96340395D01*
X95849595Y-95740800D01*
X95849595Y-96100010D01*
X95429605Y-96520000D01*
X96029200Y-97119595D01*
X96242768Y-97084308D01*
X96383149Y-96661436D01*
X96383149Y-99201436D01*
X96351018Y-98757032D01*
X96242768Y-98495692D01*
X96029200Y-98460405D01*
X95849595Y-98640010D01*
X95849595Y-98280800D01*
X95849595Y-97299200D01*
X95250000Y-96699605D01*
X95070395Y-96879210D01*
X95070395Y-96520000D01*
X94470800Y-95920405D01*
X94257232Y-95955692D01*
X94116851Y-96378564D01*
X94148982Y-96822968D01*
X94257232Y-97084308D01*
X94470800Y-97119595D01*
X95070395Y-96520000D01*
X95070395Y-96879210D01*
X94650405Y-97299200D01*
X94685692Y-97512768D01*
X95108564Y-97653149D01*
X95552968Y-97621018D01*
X95814308Y-97512768D01*
X95849595Y-97299200D01*
X95849595Y-98280800D01*
X95814308Y-98067232D01*
X95391436Y-97926851D01*
X94947032Y-97958982D01*
X94685692Y-98067232D01*
X94650405Y-98280800D01*
X95250000Y-98880395D01*
X95849595Y-98280800D01*
X95849595Y-98640010D01*
X95429605Y-99060000D01*
X96029200Y-99659595D01*
X96242768Y-99624308D01*
X96383149Y-99201436D01*
X96383149Y-101741436D01*
X96351018Y-101297032D01*
X96242768Y-101035692D01*
X96029200Y-101000405D01*
X95849595Y-101180010D01*
X95849595Y-100820800D01*
X95849595Y-99839200D01*
X95250000Y-99239605D01*
X95070395Y-99419210D01*
X95070395Y-99060000D01*
X94470800Y-98460405D01*
X94257232Y-98495692D01*
X94116851Y-98918564D01*
X94148982Y-99362968D01*
X94257232Y-99624308D01*
X94470800Y-99659595D01*
X95070395Y-99060000D01*
X95070395Y-99419210D01*
X94650405Y-99839200D01*
X94685692Y-100052768D01*
X95108564Y-100193149D01*
X95552968Y-100161018D01*
X95814308Y-100052768D01*
X95849595Y-99839200D01*
X95849595Y-100820800D01*
X95814308Y-100607232D01*
X95391436Y-100466851D01*
X94947032Y-100498982D01*
X94685692Y-100607232D01*
X94650405Y-100820800D01*
X95250000Y-101420395D01*
X95849595Y-100820800D01*
X95849595Y-101180010D01*
X95429605Y-101600000D01*
X96029200Y-102199595D01*
X96242768Y-102164308D01*
X96383149Y-101741436D01*
X96383149Y-104281436D01*
X96351018Y-103837032D01*
X96242768Y-103575692D01*
X96029200Y-103540405D01*
X95849595Y-103720010D01*
X95849595Y-103360800D01*
X95849595Y-102379200D01*
X95250000Y-101779605D01*
X95070395Y-101959210D01*
X95070395Y-101600000D01*
X94470800Y-101000405D01*
X94257232Y-101035692D01*
X94116851Y-101458564D01*
X94148982Y-101902968D01*
X94257232Y-102164308D01*
X94470800Y-102199595D01*
X95070395Y-101600000D01*
X95070395Y-101959210D01*
X94650405Y-102379200D01*
X94685692Y-102592768D01*
X95108564Y-102733149D01*
X95552968Y-102701018D01*
X95814308Y-102592768D01*
X95849595Y-102379200D01*
X95849595Y-103360800D01*
X95814308Y-103147232D01*
X95391436Y-103006851D01*
X94947032Y-103038982D01*
X94685692Y-103147232D01*
X94650405Y-103360800D01*
X95250000Y-103960395D01*
X95849595Y-103360800D01*
X95849595Y-103720010D01*
X95429605Y-104140000D01*
X96029200Y-104739595D01*
X96242768Y-104704308D01*
X96383149Y-104281436D01*
X96383149Y-106821436D01*
X96351018Y-106377032D01*
X96242768Y-106115692D01*
X96029200Y-106080405D01*
X95849595Y-106260010D01*
X95849595Y-105900800D01*
X95849595Y-104919200D01*
X95250000Y-104319605D01*
X95070395Y-104499210D01*
X95070395Y-104140000D01*
X94470800Y-103540405D01*
X94257232Y-103575692D01*
X94116851Y-103998564D01*
X94148982Y-104442968D01*
X94257232Y-104704308D01*
X94470800Y-104739595D01*
X95070395Y-104140000D01*
X95070395Y-104499210D01*
X94650405Y-104919200D01*
X94685692Y-105132768D01*
X95108564Y-105273149D01*
X95552968Y-105241018D01*
X95814308Y-105132768D01*
X95849595Y-104919200D01*
X95849595Y-105900800D01*
X95814308Y-105687232D01*
X95391436Y-105546851D01*
X94947032Y-105578982D01*
X94685692Y-105687232D01*
X94650405Y-105900800D01*
X95250000Y-106500395D01*
X95849595Y-105900800D01*
X95849595Y-106260010D01*
X95429605Y-106680000D01*
X96029200Y-107279595D01*
X96242768Y-107244308D01*
X96383149Y-106821436D01*
X96383149Y-109361436D01*
X96351018Y-108917032D01*
X96242768Y-108655692D01*
X96029200Y-108620405D01*
X95849595Y-108800010D01*
X95849595Y-108440800D01*
X95849595Y-107459200D01*
X95250000Y-106859605D01*
X95070395Y-107039210D01*
X95070395Y-106680000D01*
X94470800Y-106080405D01*
X94257232Y-106115692D01*
X94116851Y-106538564D01*
X94148982Y-106982968D01*
X94257232Y-107244308D01*
X94470800Y-107279595D01*
X95070395Y-106680000D01*
X95070395Y-107039210D01*
X94650405Y-107459200D01*
X94685692Y-107672768D01*
X95108564Y-107813149D01*
X95552968Y-107781018D01*
X95814308Y-107672768D01*
X95849595Y-107459200D01*
X95849595Y-108440800D01*
X95814308Y-108227232D01*
X95391436Y-108086851D01*
X94947032Y-108118982D01*
X94685692Y-108227232D01*
X94650405Y-108440800D01*
X95250000Y-109040395D01*
X95849595Y-108440800D01*
X95849595Y-108800010D01*
X95429605Y-109220000D01*
X96029200Y-109819595D01*
X96242768Y-109784308D01*
X96383149Y-109361436D01*
X96383149Y-111901436D01*
X96351018Y-111457032D01*
X96242768Y-111195692D01*
X96029200Y-111160405D01*
X95849595Y-111340010D01*
X95849595Y-110980800D01*
X95849595Y-109999200D01*
X95250000Y-109399605D01*
X95070395Y-109579210D01*
X95070395Y-109220000D01*
X94470800Y-108620405D01*
X94257232Y-108655692D01*
X94116851Y-109078564D01*
X94148982Y-109522968D01*
X94257232Y-109784308D01*
X94470800Y-109819595D01*
X95070395Y-109220000D01*
X95070395Y-109579210D01*
X94650405Y-109999200D01*
X94685692Y-110212768D01*
X95108564Y-110353149D01*
X95552968Y-110321018D01*
X95814308Y-110212768D01*
X95849595Y-109999200D01*
X95849595Y-110980800D01*
X95814308Y-110767232D01*
X95391436Y-110626851D01*
X94947032Y-110658982D01*
X94685692Y-110767232D01*
X94650405Y-110980800D01*
X95250000Y-111580395D01*
X95849595Y-110980800D01*
X95849595Y-111340010D01*
X95429605Y-111760000D01*
X96029200Y-112359595D01*
X96242768Y-112324308D01*
X96383149Y-111901436D01*
X96383149Y-114250000D01*
X95849595Y-114250000D01*
X95849595Y-112539200D01*
X95250000Y-111939605D01*
X95070395Y-112119210D01*
X95070395Y-111760000D01*
X94470800Y-111160405D01*
X94257232Y-111195692D01*
X94116851Y-111618564D01*
X94148982Y-112062968D01*
X94257232Y-112324308D01*
X94470800Y-112359595D01*
X95070395Y-111760000D01*
X95070395Y-112119210D01*
X94650405Y-112539200D01*
X94685692Y-112752768D01*
X95108564Y-112893149D01*
X95552968Y-112861018D01*
X95814308Y-112752768D01*
X95849595Y-112539200D01*
X95849595Y-114250000D01*
X91430000Y-114250000D01*
X91430000Y-92296309D01*
X91430000Y-91705750D01*
X91271250Y-91547000D01*
X90297000Y-91547000D01*
X90297000Y-92646250D01*
X90455750Y-92805000D01*
X90668691Y-92805000D01*
X90921310Y-92805000D01*
X91154699Y-92708327D01*
X91333327Y-92529698D01*
X91430000Y-92296309D01*
X91430000Y-114250000D01*
X90043000Y-114250000D01*
X90043000Y-92646250D01*
X90043000Y-91547000D01*
X89068750Y-91547000D01*
X88910000Y-91705750D01*
X88910000Y-92296309D01*
X89006673Y-92529698D01*
X89185301Y-92708327D01*
X89418690Y-92805000D01*
X89671309Y-92805000D01*
X89884250Y-92805000D01*
X90043000Y-92646250D01*
X90043000Y-114250000D01*
X86375000Y-114250000D01*
X86375000Y-92396309D01*
X86375000Y-91805750D01*
X86216250Y-91647000D01*
X85217000Y-91647000D01*
X85217000Y-92746250D01*
X85375750Y-92905000D01*
X85613691Y-92905000D01*
X85866310Y-92905000D01*
X86099699Y-92808327D01*
X86278327Y-92629698D01*
X86375000Y-92396309D01*
X86375000Y-114250000D01*
X84963000Y-114250000D01*
X84963000Y-92746250D01*
X84963000Y-91647000D01*
X83963750Y-91647000D01*
X83805000Y-91805750D01*
X83805000Y-92396309D01*
X83901673Y-92629698D01*
X84080301Y-92808327D01*
X84313690Y-92905000D01*
X84566309Y-92905000D01*
X84804250Y-92905000D01*
X84963000Y-92746250D01*
X84963000Y-114250000D01*
X60118000Y-114250000D01*
X60118000Y-103996250D01*
X60118000Y-102997000D01*
X60118000Y-102743000D01*
X60118000Y-101743750D01*
X59959250Y-101585000D01*
X59368691Y-101585000D01*
X59135302Y-101681673D01*
X58956673Y-101860301D01*
X58860000Y-102093690D01*
X58860000Y-102346309D01*
X58860000Y-102584250D01*
X59018750Y-102743000D01*
X60118000Y-102743000D01*
X60118000Y-102997000D01*
X59018750Y-102997000D01*
X58860000Y-103155750D01*
X58860000Y-103393691D01*
X58860000Y-103646310D01*
X58956673Y-103879699D01*
X59135302Y-104058327D01*
X59368691Y-104155000D01*
X59959250Y-104155000D01*
X60118000Y-103996250D01*
X60118000Y-114250000D01*
X56995473Y-114250000D01*
X56995473Y-110017664D01*
X56633134Y-109140737D01*
X55962792Y-108469224D01*
X55086499Y-108105355D01*
X54137664Y-108104527D01*
X53768000Y-108257269D01*
X53768000Y-97011250D01*
X53768000Y-96012000D01*
X53768000Y-95758000D01*
X53768000Y-94758750D01*
X53609250Y-94600000D01*
X53018691Y-94600000D01*
X52785302Y-94696673D01*
X52606673Y-94875301D01*
X52510000Y-95108690D01*
X52510000Y-95361309D01*
X52510000Y-95599250D01*
X52668750Y-95758000D01*
X53768000Y-95758000D01*
X53768000Y-96012000D01*
X52668750Y-96012000D01*
X52510000Y-96170750D01*
X52510000Y-96408691D01*
X52510000Y-96661310D01*
X52606673Y-96894699D01*
X52785302Y-97073327D01*
X53018691Y-97170000D01*
X53609250Y-97170000D01*
X53768000Y-97011250D01*
X53768000Y-108257269D01*
X53260737Y-108466866D01*
X52589224Y-109137208D01*
X52225355Y-110013501D01*
X52224527Y-110962336D01*
X52586866Y-111839263D01*
X53257208Y-112510776D01*
X54133501Y-112874645D01*
X55082336Y-112875473D01*
X55959263Y-112513134D01*
X56630776Y-111842792D01*
X56994645Y-110966499D01*
X56995473Y-110017664D01*
X56995473Y-114250000D01*
X50850000Y-114250000D01*
X50850000Y-50850000D01*
X100203000Y-50850000D01*
X100203000Y-114250000D01*
X100203000Y-114250000D01*
G37*
X100203000Y-114250000D02*
X99697440Y-114250000D01*
X99697440Y-87090000D01*
X99697440Y-85590000D01*
X99650463Y-85347877D01*
X99510673Y-85135073D01*
X99446362Y-85091662D01*
X99588327Y-84949698D01*
X99685000Y-84716309D01*
X99685000Y-84125750D01*
X99685000Y-83554250D01*
X99685000Y-82963691D01*
X99588327Y-82730302D01*
X99409699Y-82551673D01*
X99176310Y-82455000D01*
X98923691Y-82455000D01*
X98710750Y-82455000D01*
X98552000Y-82613750D01*
X98552000Y-83713000D01*
X99526250Y-83713000D01*
X99685000Y-83554250D01*
X99685000Y-84125750D01*
X99526250Y-83967000D01*
X98552000Y-83967000D01*
X98552000Y-83987000D01*
X98298000Y-83987000D01*
X98298000Y-83967000D01*
X98298000Y-83713000D01*
X98298000Y-82613750D01*
X98139250Y-82455000D01*
X97926309Y-82455000D01*
X97673690Y-82455000D01*
X97440301Y-82551673D01*
X97261673Y-82730302D01*
X97165000Y-82963691D01*
X97165000Y-83554250D01*
X97323750Y-83713000D01*
X98298000Y-83713000D01*
X98298000Y-83967000D01*
X97323750Y-83967000D01*
X97165000Y-84125750D01*
X97165000Y-84716309D01*
X97261673Y-84949698D01*
X97403150Y-85091176D01*
X97345073Y-85129327D01*
X97202623Y-85340360D01*
X97152560Y-85590000D01*
X97152560Y-85600000D01*
X96933345Y-85600000D01*
X96933345Y-81280000D01*
X96933345Y-76200000D01*
X96819271Y-75626511D01*
X96494415Y-75140330D01*
X96184930Y-74933539D01*
X96600732Y-74562036D01*
X96854709Y-74034791D01*
X96857358Y-74019026D01*
X96857358Y-73300974D01*
X96854709Y-73285209D01*
X96600732Y-72757964D01*
X96383149Y-72563561D01*
X96383149Y-71261436D01*
X96383149Y-68721436D01*
X96383149Y-66181436D01*
X96383149Y-63641436D01*
X96383149Y-61101436D01*
X96383149Y-58561436D01*
X96383149Y-56021436D01*
X96383149Y-53481436D01*
X96351018Y-53037032D01*
X96242768Y-52775692D01*
X96029200Y-52740405D01*
X95849595Y-52920010D01*
X95849595Y-52560800D01*
X95814308Y-52347232D01*
X95391436Y-52206851D01*
X94947032Y-52238982D01*
X94685692Y-52347232D01*
X94650405Y-52560800D01*
X95250000Y-53160395D01*
X95849595Y-52560800D01*
X95849595Y-52920010D01*
X95429605Y-53340000D01*
X96029200Y-53939595D01*
X96242768Y-53904308D01*
X96383149Y-53481436D01*
X96383149Y-56021436D01*
X96351018Y-55577032D01*
X96242768Y-55315692D01*
X96029200Y-55280405D01*
X95849595Y-55460010D01*
X95849595Y-55100800D01*
X95849595Y-54119200D01*
X95250000Y-53519605D01*
X95070395Y-53699210D01*
X95070395Y-53340000D01*
X94470800Y-52740405D01*
X94257232Y-52775692D01*
X94116851Y-53198564D01*
X94148982Y-53642968D01*
X94257232Y-53904308D01*
X94470800Y-53939595D01*
X95070395Y-53340000D01*
X95070395Y-53699210D01*
X94650405Y-54119200D01*
X94685692Y-54332768D01*
X95108564Y-54473149D01*
X95552968Y-54441018D01*
X95814308Y-54332768D01*
X95849595Y-54119200D01*
X95849595Y-55100800D01*
X95814308Y-54887232D01*
X95391436Y-54746851D01*
X94947032Y-54778982D01*
X94685692Y-54887232D01*
X94650405Y-55100800D01*
X95250000Y-55700395D01*
X95849595Y-55100800D01*
X95849595Y-55460010D01*
X95429605Y-55880000D01*
X96029200Y-56479595D01*
X96242768Y-56444308D01*
X96383149Y-56021436D01*
X96383149Y-58561436D01*
X96351018Y-58117032D01*
X96242768Y-57855692D01*
X96029200Y-57820405D01*
X95849595Y-58000010D01*
X95849595Y-57640800D01*
X95849595Y-56659200D01*
X95250000Y-56059605D01*
X95070395Y-56239210D01*
X95070395Y-55880000D01*
X94470800Y-55280405D01*
X94257232Y-55315692D01*
X94116851Y-55738564D01*
X94148982Y-56182968D01*
X94257232Y-56444308D01*
X94470800Y-56479595D01*
X95070395Y-55880000D01*
X95070395Y-56239210D01*
X94650405Y-56659200D01*
X94685692Y-56872768D01*
X95108564Y-57013149D01*
X95552968Y-56981018D01*
X95814308Y-56872768D01*
X95849595Y-56659200D01*
X95849595Y-57640800D01*
X95814308Y-57427232D01*
X95391436Y-57286851D01*
X94947032Y-57318982D01*
X94685692Y-57427232D01*
X94650405Y-57640800D01*
X95250000Y-58240395D01*
X95849595Y-57640800D01*
X95849595Y-58000010D01*
X95429605Y-58420000D01*
X96029200Y-59019595D01*
X96242768Y-58984308D01*
X96383149Y-58561436D01*
X96383149Y-61101436D01*
X96351018Y-60657032D01*
X96242768Y-60395692D01*
X96029200Y-60360405D01*
X95849595Y-60540010D01*
X95849595Y-60180800D01*
X95849595Y-59199200D01*
X95250000Y-58599605D01*
X95070395Y-58779210D01*
X95070395Y-58420000D01*
X94470800Y-57820405D01*
X94257232Y-57855692D01*
X94116851Y-58278564D01*
X94148982Y-58722968D01*
X94257232Y-58984308D01*
X94470800Y-59019595D01*
X95070395Y-58420000D01*
X95070395Y-58779210D01*
X94650405Y-59199200D01*
X94685692Y-59412768D01*
X95108564Y-59553149D01*
X95552968Y-59521018D01*
X95814308Y-59412768D01*
X95849595Y-59199200D01*
X95849595Y-60180800D01*
X95814308Y-59967232D01*
X95391436Y-59826851D01*
X94947032Y-59858982D01*
X94685692Y-59967232D01*
X94650405Y-60180800D01*
X95250000Y-60780395D01*
X95849595Y-60180800D01*
X95849595Y-60540010D01*
X95429605Y-60960000D01*
X96029200Y-61559595D01*
X96242768Y-61524308D01*
X96383149Y-61101436D01*
X96383149Y-63641436D01*
X96351018Y-63197032D01*
X96242768Y-62935692D01*
X96029200Y-62900405D01*
X95849595Y-63080010D01*
X95849595Y-62720800D01*
X95849595Y-61739200D01*
X95250000Y-61139605D01*
X95070395Y-61319210D01*
X95070395Y-60960000D01*
X94470800Y-60360405D01*
X94257232Y-60395692D01*
X94116851Y-60818564D01*
X94148982Y-61262968D01*
X94257232Y-61524308D01*
X94470800Y-61559595D01*
X95070395Y-60960000D01*
X95070395Y-61319210D01*
X94650405Y-61739200D01*
X94685692Y-61952768D01*
X95108564Y-62093149D01*
X95552968Y-62061018D01*
X95814308Y-61952768D01*
X95849595Y-61739200D01*
X95849595Y-62720800D01*
X95814308Y-62507232D01*
X95391436Y-62366851D01*
X94947032Y-62398982D01*
X94685692Y-62507232D01*
X94650405Y-62720800D01*
X95250000Y-63320395D01*
X95849595Y-62720800D01*
X95849595Y-63080010D01*
X95429605Y-63500000D01*
X96029200Y-64099595D01*
X96242768Y-64064308D01*
X96383149Y-63641436D01*
X96383149Y-66181436D01*
X96351018Y-65737032D01*
X96242768Y-65475692D01*
X96029200Y-65440405D01*
X95849595Y-65620010D01*
X95849595Y-65260800D01*
X95849595Y-64279200D01*
X95250000Y-63679605D01*
X95070395Y-63859210D01*
X95070395Y-63500000D01*
X94470800Y-62900405D01*
X94257232Y-62935692D01*
X94116851Y-63358564D01*
X94148982Y-63802968D01*
X94257232Y-64064308D01*
X94470800Y-64099595D01*
X95070395Y-63500000D01*
X95070395Y-63859210D01*
X94650405Y-64279200D01*
X94685692Y-64492768D01*
X95108564Y-64633149D01*
X95552968Y-64601018D01*
X95814308Y-64492768D01*
X95849595Y-64279200D01*
X95849595Y-65260800D01*
X95814308Y-65047232D01*
X95391436Y-64906851D01*
X94947032Y-64938982D01*
X94685692Y-65047232D01*
X94650405Y-65260800D01*
X95250000Y-65860395D01*
X95849595Y-65260800D01*
X95849595Y-65620010D01*
X95429605Y-66040000D01*
X96029200Y-66639595D01*
X96242768Y-66604308D01*
X96383149Y-66181436D01*
X96383149Y-68721436D01*
X96351018Y-68277032D01*
X96242768Y-68015692D01*
X96029200Y-67980405D01*
X95849595Y-68160010D01*
X95849595Y-67800800D01*
X95849595Y-66819200D01*
X95250000Y-66219605D01*
X95070395Y-66399210D01*
X95070395Y-66040000D01*
X94470800Y-65440405D01*
X94257232Y-65475692D01*
X94116851Y-65898564D01*
X94148982Y-66342968D01*
X94257232Y-66604308D01*
X94470800Y-66639595D01*
X95070395Y-66040000D01*
X95070395Y-66399210D01*
X94650405Y-66819200D01*
X94685692Y-67032768D01*
X95108564Y-67173149D01*
X95552968Y-67141018D01*
X95814308Y-67032768D01*
X95849595Y-66819200D01*
X95849595Y-67800800D01*
X95814308Y-67587232D01*
X95391436Y-67446851D01*
X94947032Y-67478982D01*
X94685692Y-67587232D01*
X94650405Y-67800800D01*
X95250000Y-68400395D01*
X95849595Y-67800800D01*
X95849595Y-68160010D01*
X95429605Y-68580000D01*
X96029200Y-69179595D01*
X96242768Y-69144308D01*
X96383149Y-68721436D01*
X96383149Y-71261436D01*
X96351018Y-70817032D01*
X96242768Y-70555692D01*
X96029200Y-70520405D01*
X95849595Y-70700010D01*
X95849595Y-70340800D01*
X95849595Y-69359200D01*
X95250000Y-68759605D01*
X95070395Y-68939210D01*
X95070395Y-68580000D01*
X94470800Y-67980405D01*
X94257232Y-68015692D01*
X94116851Y-68438564D01*
X94148982Y-68882968D01*
X94257232Y-69144308D01*
X94470800Y-69179595D01*
X95070395Y-68580000D01*
X95070395Y-68939210D01*
X94650405Y-69359200D01*
X94685692Y-69572768D01*
X95108564Y-69713149D01*
X95552968Y-69681018D01*
X95814308Y-69572768D01*
X95849595Y-69359200D01*
X95849595Y-70340800D01*
X95814308Y-70127232D01*
X95391436Y-69986851D01*
X94947032Y-70018982D01*
X94685692Y-70127232D01*
X94650405Y-70340800D01*
X95250000Y-70940395D01*
X95849595Y-70340800D01*
X95849595Y-70700010D01*
X95429605Y-71120000D01*
X96029200Y-71719595D01*
X96242768Y-71684308D01*
X96383149Y-71261436D01*
X96383149Y-72563561D01*
X96164320Y-72368046D01*
X95640428Y-72184790D01*
X95814308Y-72112768D01*
X95849595Y-71899200D01*
X95250000Y-71299605D01*
X95070395Y-71479210D01*
X95070395Y-71120000D01*
X94470800Y-70520405D01*
X94257232Y-70555692D01*
X94116851Y-70978564D01*
X94148982Y-71422968D01*
X94257232Y-71684308D01*
X94470800Y-71719595D01*
X95070395Y-71120000D01*
X95070395Y-71479210D01*
X94650405Y-71899200D01*
X94685692Y-72112768D01*
X94880546Y-72177453D01*
X94335680Y-72368046D01*
X93899268Y-72757964D01*
X93645291Y-73285209D01*
X93642642Y-73300974D01*
X93763783Y-73533000D01*
X95123000Y-73533000D01*
X95123000Y-73513000D01*
X95377000Y-73513000D01*
X95377000Y-73533000D01*
X96736217Y-73533000D01*
X96857358Y-73300974D01*
X96857358Y-74019026D01*
X96736217Y-73787000D01*
X95377000Y-73787000D01*
X95377000Y-73807000D01*
X95123000Y-73807000D01*
X95123000Y-73787000D01*
X93763783Y-73787000D01*
X93642642Y-74019026D01*
X93645291Y-74034791D01*
X93899268Y-74562036D01*
X94315069Y-74933539D01*
X94005585Y-75140330D01*
X93805351Y-75440000D01*
X93470000Y-75440000D01*
X93470000Y-69215000D01*
X93412148Y-68924161D01*
X93247401Y-68677599D01*
X92532401Y-67962599D01*
X92285839Y-67797852D01*
X91995000Y-67740000D01*
X91465499Y-67740000D01*
X91420463Y-67507877D01*
X91280673Y-67295073D01*
X91069640Y-67152623D01*
X90820000Y-67102560D01*
X89520000Y-67102560D01*
X89277877Y-67149537D01*
X89065073Y-67289327D01*
X88922623Y-67500360D01*
X88872560Y-67750000D01*
X88872560Y-67840000D01*
X86360499Y-67840000D01*
X86315463Y-67607877D01*
X86175673Y-67395073D01*
X85964640Y-67252623D01*
X85715000Y-67202560D01*
X84465000Y-67202560D01*
X84222877Y-67249537D01*
X84010073Y-67389327D01*
X83867623Y-67600360D01*
X83823576Y-67820000D01*
X80726247Y-67820000D01*
X80705463Y-67712877D01*
X80565673Y-67500073D01*
X80354640Y-67357623D01*
X80105000Y-67307560D01*
X78605000Y-67307560D01*
X78362877Y-67354537D01*
X78150073Y-67494327D01*
X78105386Y-67560528D01*
X78065673Y-67500073D01*
X77854640Y-67357623D01*
X77605000Y-67307560D01*
X76105000Y-67307560D01*
X75862877Y-67354537D01*
X75650073Y-67494327D01*
X75507623Y-67705360D01*
X75480622Y-67840000D01*
X71755499Y-67840000D01*
X71710463Y-67607877D01*
X71570673Y-67395073D01*
X71359640Y-67252623D01*
X71265000Y-67233643D01*
X71265000Y-64787048D01*
X71995658Y-64485147D01*
X72737542Y-63744557D01*
X73139542Y-62776433D01*
X73140457Y-61728166D01*
X72740147Y-60759342D01*
X71999557Y-60017458D01*
X71031433Y-59615458D01*
X69983166Y-59614543D01*
X69014342Y-60014853D01*
X68272458Y-60755443D01*
X67870458Y-61723567D01*
X67869543Y-62771834D01*
X68269853Y-63740658D01*
X69010443Y-64482542D01*
X69745000Y-64787556D01*
X69745000Y-67224872D01*
X69617877Y-67249537D01*
X69405073Y-67389327D01*
X69262623Y-67600360D01*
X69212560Y-67850000D01*
X69212560Y-69350000D01*
X69259537Y-69592123D01*
X69399327Y-69804927D01*
X69463637Y-69848337D01*
X69321673Y-69990302D01*
X69225000Y-70223691D01*
X69225000Y-70814250D01*
X69383750Y-70973000D01*
X70358000Y-70973000D01*
X70358000Y-70953000D01*
X70612000Y-70953000D01*
X70612000Y-70973000D01*
X71586250Y-70973000D01*
X71745000Y-70814250D01*
X71745000Y-70223691D01*
X71648327Y-69990302D01*
X71506849Y-69848823D01*
X71564927Y-69810673D01*
X71707377Y-69599640D01*
X71755434Y-69360000D01*
X75487633Y-69360000D01*
X75504537Y-69447123D01*
X75644327Y-69659927D01*
X75855360Y-69802377D01*
X76105000Y-69852440D01*
X77605000Y-69852440D01*
X77847123Y-69805463D01*
X78059927Y-69665673D01*
X78104613Y-69599471D01*
X78144327Y-69659927D01*
X78355360Y-69802377D01*
X78605000Y-69852440D01*
X80105000Y-69852440D01*
X80347123Y-69805463D01*
X80559927Y-69665673D01*
X80702377Y-69454640D01*
X80725366Y-69340000D01*
X83817560Y-69340000D01*
X83817560Y-69350000D01*
X83864537Y-69592123D01*
X84004327Y-69804927D01*
X84068637Y-69848337D01*
X83926673Y-69990302D01*
X83830000Y-70223691D01*
X83830000Y-70814250D01*
X83988750Y-70973000D01*
X84963000Y-70973000D01*
X84963000Y-70953000D01*
X85217000Y-70953000D01*
X85217000Y-70973000D01*
X86191250Y-70973000D01*
X86350000Y-70814250D01*
X86350000Y-70223691D01*
X86253327Y-69990302D01*
X86111849Y-69848823D01*
X86169927Y-69810673D01*
X86312377Y-69599640D01*
X86360434Y-69360000D01*
X88893902Y-69360000D01*
X88919537Y-69492123D01*
X89059327Y-69704927D01*
X89270360Y-69847377D01*
X89300791Y-69853479D01*
X89160301Y-69911673D01*
X88981673Y-70090302D01*
X88885000Y-70323691D01*
X88885000Y-70914250D01*
X89043750Y-71073000D01*
X90043000Y-71073000D01*
X90043000Y-71053000D01*
X90297000Y-71053000D01*
X90297000Y-71073000D01*
X91296250Y-71073000D01*
X91455000Y-70914250D01*
X91455000Y-70323691D01*
X91358327Y-70090302D01*
X91179699Y-69911673D01*
X91041557Y-69854453D01*
X91062123Y-69850463D01*
X91274927Y-69710673D01*
X91417377Y-69499640D01*
X91465434Y-69260000D01*
X91680198Y-69260000D01*
X91950000Y-69529802D01*
X91950000Y-76200000D01*
X92007852Y-76490839D01*
X92172599Y-76737401D01*
X92419161Y-76902148D01*
X92710000Y-76960000D01*
X93805351Y-76960000D01*
X94005585Y-77259670D01*
X94315069Y-77466460D01*
X93899268Y-77837964D01*
X93645291Y-78365209D01*
X93642642Y-78380974D01*
X93763783Y-78613000D01*
X95123000Y-78613000D01*
X95123000Y-78593000D01*
X95377000Y-78593000D01*
X95377000Y-78613000D01*
X96736217Y-78613000D01*
X96857358Y-78380974D01*
X96854709Y-78365209D01*
X96600732Y-77837964D01*
X96184930Y-77466460D01*
X96494415Y-77259670D01*
X96819271Y-76773489D01*
X96933345Y-76200000D01*
X96933345Y-81280000D01*
X96819271Y-80706511D01*
X96494415Y-80220330D01*
X96184930Y-80013539D01*
X96600732Y-79642036D01*
X96854709Y-79114791D01*
X96857358Y-79099026D01*
X96736217Y-78867000D01*
X95377000Y-78867000D01*
X95377000Y-78887000D01*
X95123000Y-78887000D01*
X95123000Y-78867000D01*
X93763783Y-78867000D01*
X93642642Y-79099026D01*
X93645291Y-79114791D01*
X93899268Y-79642036D01*
X94315069Y-80013539D01*
X94005585Y-80220330D01*
X93805351Y-80520000D01*
X91455000Y-80520000D01*
X91455000Y-72076309D01*
X91455000Y-71485750D01*
X91296250Y-71327000D01*
X90297000Y-71327000D01*
X90297000Y-72426250D01*
X90455750Y-72585000D01*
X90693691Y-72585000D01*
X90946310Y-72585000D01*
X91179699Y-72488327D01*
X91358327Y-72309698D01*
X91455000Y-72076309D01*
X91455000Y-80520000D01*
X90043000Y-80520000D01*
X90043000Y-72426250D01*
X90043000Y-71327000D01*
X89043750Y-71327000D01*
X88885000Y-71485750D01*
X88885000Y-72076309D01*
X88981673Y-72309698D01*
X89160301Y-72488327D01*
X89393690Y-72585000D01*
X89646309Y-72585000D01*
X89884250Y-72585000D01*
X90043000Y-72426250D01*
X90043000Y-80520000D01*
X86350000Y-80520000D01*
X86350000Y-71976309D01*
X86350000Y-71385750D01*
X86191250Y-71227000D01*
X85217000Y-71227000D01*
X85217000Y-72326250D01*
X85375750Y-72485000D01*
X85588691Y-72485000D01*
X85841310Y-72485000D01*
X86074699Y-72388327D01*
X86253327Y-72209698D01*
X86350000Y-71976309D01*
X86350000Y-80520000D01*
X85404802Y-80520000D01*
X84963000Y-80078198D01*
X84963000Y-72326250D01*
X84963000Y-71227000D01*
X83988750Y-71227000D01*
X83830000Y-71385750D01*
X83830000Y-71976309D01*
X83926673Y-72209698D01*
X84105301Y-72388327D01*
X84338690Y-72485000D01*
X84591309Y-72485000D01*
X84804250Y-72485000D01*
X84963000Y-72326250D01*
X84963000Y-80078198D01*
X80547401Y-75662599D01*
X80300839Y-75497852D01*
X80010000Y-75440000D01*
X78926097Y-75440000D01*
X78900463Y-75307877D01*
X78760673Y-75095073D01*
X78549640Y-74952623D01*
X78300000Y-74902560D01*
X76800000Y-74902560D01*
X76557877Y-74949537D01*
X76345073Y-75089327D01*
X76202623Y-75300360D01*
X76200783Y-75309530D01*
X76200463Y-75307877D01*
X76060673Y-75095073D01*
X75849640Y-74952623D01*
X75600000Y-74902560D01*
X74100000Y-74902560D01*
X73857877Y-74949537D01*
X73645073Y-75089327D01*
X73502623Y-75300360D01*
X73474619Y-75440000D01*
X71745000Y-75440000D01*
X71745000Y-71976309D01*
X71745000Y-71385750D01*
X71586250Y-71227000D01*
X70612000Y-71227000D01*
X70612000Y-72326250D01*
X70770750Y-72485000D01*
X70983691Y-72485000D01*
X71236310Y-72485000D01*
X71469699Y-72388327D01*
X71648327Y-72209698D01*
X71745000Y-71976309D01*
X71745000Y-75440000D01*
X70799801Y-75440000D01*
X70358000Y-74998198D01*
X70358000Y-72326250D01*
X70358000Y-71227000D01*
X69383750Y-71227000D01*
X69225000Y-71385750D01*
X69225000Y-71976309D01*
X69321673Y-72209698D01*
X69500301Y-72388327D01*
X69733690Y-72485000D01*
X69986309Y-72485000D01*
X70199250Y-72485000D01*
X70358000Y-72326250D01*
X70358000Y-74998198D01*
X67132401Y-71772599D01*
X66885839Y-71607852D01*
X66595000Y-71550000D01*
X64160499Y-71550000D01*
X64115463Y-71317877D01*
X63975673Y-71105073D01*
X63764640Y-70962623D01*
X63625000Y-70934619D01*
X63625000Y-69242440D01*
X63695000Y-69242440D01*
X63937123Y-69195463D01*
X64149927Y-69055673D01*
X64292377Y-68844640D01*
X64342440Y-68595000D01*
X64342440Y-67295000D01*
X64295463Y-67052877D01*
X64155673Y-66840073D01*
X63944640Y-66697623D01*
X63705000Y-66649565D01*
X63705000Y-57865000D01*
X63705000Y-56908440D01*
X63881000Y-56908440D01*
X64123123Y-56861463D01*
X64335927Y-56721673D01*
X64478377Y-56510640D01*
X64528440Y-56261000D01*
X64528440Y-54229000D01*
X64481463Y-53986877D01*
X64341673Y-53774073D01*
X64181956Y-53666262D01*
X64271385Y-53569818D01*
X64470975Y-53087944D01*
X64470975Y-52322056D01*
X64271385Y-51840182D01*
X63833379Y-51367812D01*
X63247946Y-51099017D01*
X62992000Y-51217633D01*
X62992000Y-52578000D01*
X64351836Y-52578000D01*
X64470975Y-52322056D01*
X64470975Y-53087944D01*
X64351836Y-52832000D01*
X62992000Y-52832000D01*
X62992000Y-52852000D01*
X62738000Y-52852000D01*
X62738000Y-52832000D01*
X62738000Y-52578000D01*
X62738000Y-51217633D01*
X62482054Y-51099017D01*
X61896621Y-51367812D01*
X61458615Y-51840182D01*
X61259025Y-52322056D01*
X61378164Y-52578000D01*
X62738000Y-52578000D01*
X62738000Y-52832000D01*
X61378164Y-52832000D01*
X61259025Y-53087944D01*
X61458615Y-53569818D01*
X61548574Y-53666835D01*
X61394073Y-53768327D01*
X61251623Y-53979360D01*
X61201560Y-54229000D01*
X61201560Y-56261000D01*
X61248537Y-56503123D01*
X61388327Y-56715927D01*
X61599360Y-56858377D01*
X61849000Y-56908440D01*
X62185000Y-56908440D01*
X62185000Y-57865000D01*
X62185000Y-66649500D01*
X61952877Y-66694537D01*
X61740073Y-66834327D01*
X61597623Y-67045360D01*
X61591520Y-67075791D01*
X61533327Y-66935301D01*
X61354698Y-66756673D01*
X61121309Y-66660000D01*
X60530750Y-66660000D01*
X60372000Y-66818750D01*
X60372000Y-67818000D01*
X60392000Y-67818000D01*
X60392000Y-68072000D01*
X60372000Y-68072000D01*
X60372000Y-69071250D01*
X60530750Y-69230000D01*
X61121309Y-69230000D01*
X61354698Y-69133327D01*
X61533327Y-68954699D01*
X61590546Y-68816557D01*
X61594537Y-68837123D01*
X61734327Y-69049927D01*
X61945360Y-69192377D01*
X62105000Y-69224391D01*
X62105000Y-70933902D01*
X61972877Y-70959537D01*
X61760073Y-71099327D01*
X61617623Y-71310360D01*
X61567560Y-71560000D01*
X61567560Y-73060000D01*
X61614537Y-73302123D01*
X61754327Y-73514927D01*
X61965360Y-73657377D01*
X61974530Y-73659216D01*
X61972877Y-73659537D01*
X61760073Y-73799327D01*
X61617623Y-74010360D01*
X61567560Y-74260000D01*
X61567560Y-75760000D01*
X61614537Y-76002123D01*
X61754327Y-76214927D01*
X61965360Y-76357377D01*
X62185000Y-76401423D01*
X62185000Y-78079500D01*
X61952877Y-78124537D01*
X61740073Y-78264327D01*
X61597623Y-78475360D01*
X61591520Y-78505791D01*
X61533327Y-78365301D01*
X61354698Y-78186673D01*
X61121309Y-78090000D01*
X60530750Y-78090000D01*
X60372000Y-78248750D01*
X60372000Y-79248000D01*
X60392000Y-79248000D01*
X60392000Y-79502000D01*
X60372000Y-79502000D01*
X60372000Y-80501250D01*
X60530750Y-80660000D01*
X61121309Y-80660000D01*
X61354698Y-80563327D01*
X61533327Y-80384699D01*
X61590546Y-80246557D01*
X61594537Y-80267123D01*
X61734327Y-80479927D01*
X61945360Y-80622377D01*
X62185000Y-80670434D01*
X62185000Y-85276449D01*
X62055673Y-85079573D01*
X61844640Y-84937123D01*
X61595000Y-84887060D01*
X60118000Y-84887060D01*
X60118000Y-80501250D01*
X60118000Y-79502000D01*
X60118000Y-79248000D01*
X60118000Y-78248750D01*
X60118000Y-69071250D01*
X60118000Y-68072000D01*
X60118000Y-67818000D01*
X60118000Y-66818750D01*
X59959250Y-66660000D01*
X59368691Y-66660000D01*
X59135302Y-66756673D01*
X58956673Y-66935301D01*
X58860000Y-67168690D01*
X58860000Y-67421309D01*
X58860000Y-67659250D01*
X59018750Y-67818000D01*
X60118000Y-67818000D01*
X60118000Y-68072000D01*
X59018750Y-68072000D01*
X58860000Y-68230750D01*
X58860000Y-68468691D01*
X58860000Y-68721310D01*
X58956673Y-68954699D01*
X59135302Y-69133327D01*
X59368691Y-69230000D01*
X59959250Y-69230000D01*
X60118000Y-69071250D01*
X60118000Y-78248750D01*
X59959250Y-78090000D01*
X59368691Y-78090000D01*
X59135302Y-78186673D01*
X58956673Y-78365301D01*
X58860000Y-78598690D01*
X58860000Y-78851309D01*
X58860000Y-79089250D01*
X59018750Y-79248000D01*
X60118000Y-79248000D01*
X60118000Y-79502000D01*
X59018750Y-79502000D01*
X58860000Y-79660750D01*
X58860000Y-79898691D01*
X58860000Y-80151310D01*
X58956673Y-80384699D01*
X59135302Y-80563327D01*
X59368691Y-80660000D01*
X59959250Y-80660000D01*
X60118000Y-80501250D01*
X60118000Y-84887060D01*
X59055000Y-84887060D01*
X58812877Y-84934037D01*
X58600073Y-85073827D01*
X58457623Y-85284860D01*
X58407560Y-85534500D01*
X58407560Y-87185500D01*
X58454537Y-87427623D01*
X58588305Y-87631260D01*
X58457623Y-87824860D01*
X58407560Y-88074500D01*
X58407560Y-88140000D01*
X57980000Y-88140000D01*
X57980000Y-80151310D01*
X57980000Y-79898691D01*
X57980000Y-79660750D01*
X57980000Y-79089250D01*
X57980000Y-78851309D01*
X57980000Y-78598690D01*
X57980000Y-68721310D01*
X57980000Y-68468691D01*
X57980000Y-68230750D01*
X57980000Y-67659250D01*
X57980000Y-67421309D01*
X57980000Y-67168690D01*
X57883327Y-66935301D01*
X57704698Y-66756673D01*
X57471309Y-66660000D01*
X56995473Y-66660000D01*
X56995473Y-54137664D01*
X56633134Y-53260737D01*
X55962792Y-52589224D01*
X55086499Y-52225355D01*
X54137664Y-52224527D01*
X53260737Y-52586866D01*
X52589224Y-53257208D01*
X52225355Y-54133501D01*
X52224527Y-55082336D01*
X52586866Y-55959263D01*
X53257208Y-56630776D01*
X54133501Y-56994645D01*
X55082336Y-56995473D01*
X55959263Y-56633134D01*
X56630776Y-55962792D01*
X56994645Y-55086499D01*
X56995473Y-54137664D01*
X56995473Y-66660000D01*
X56880750Y-66660000D01*
X56722000Y-66818750D01*
X56722000Y-67818000D01*
X57821250Y-67818000D01*
X57980000Y-67659250D01*
X57980000Y-68230750D01*
X57821250Y-68072000D01*
X56722000Y-68072000D01*
X56722000Y-69071250D01*
X56880750Y-69230000D01*
X57471309Y-69230000D01*
X57704698Y-69133327D01*
X57883327Y-68954699D01*
X57980000Y-68721310D01*
X57980000Y-78598690D01*
X57883327Y-78365301D01*
X57704698Y-78186673D01*
X57471309Y-78090000D01*
X56880750Y-78090000D01*
X56722000Y-78248750D01*
X56722000Y-79248000D01*
X57821250Y-79248000D01*
X57980000Y-79089250D01*
X57980000Y-79660750D01*
X57821250Y-79502000D01*
X56722000Y-79502000D01*
X56722000Y-80501250D01*
X56880750Y-80660000D01*
X57471309Y-80660000D01*
X57704698Y-80563327D01*
X57883327Y-80384699D01*
X57980000Y-80151310D01*
X57980000Y-88140000D01*
X57162440Y-88140000D01*
X57162440Y-88074500D01*
X57115463Y-87832377D01*
X56981694Y-87628739D01*
X57112377Y-87435140D01*
X57162440Y-87185500D01*
X57162440Y-85534500D01*
X57115463Y-85292377D01*
X56975673Y-85079573D01*
X56764640Y-84937123D01*
X56515000Y-84887060D01*
X54846862Y-84887060D01*
X54735000Y-84775198D01*
X54735000Y-80654978D01*
X54887123Y-80625463D01*
X55099927Y-80485673D01*
X55242377Y-80274640D01*
X55248479Y-80244208D01*
X55306673Y-80384699D01*
X55485302Y-80563327D01*
X55718691Y-80660000D01*
X56309250Y-80660000D01*
X56468000Y-80501250D01*
X56468000Y-79502000D01*
X56448000Y-79502000D01*
X56448000Y-79248000D01*
X56468000Y-79248000D01*
X56468000Y-78248750D01*
X56309250Y-78090000D01*
X55718691Y-78090000D01*
X55485302Y-78186673D01*
X55306673Y-78365301D01*
X55249453Y-78503442D01*
X55245463Y-78482877D01*
X55105673Y-78270073D01*
X54894640Y-78127623D01*
X54655000Y-78079565D01*
X54655000Y-76401619D01*
X54867123Y-76360463D01*
X55079927Y-76220673D01*
X55222377Y-76009640D01*
X55272440Y-75760000D01*
X55272440Y-74260000D01*
X55225463Y-74017877D01*
X55085673Y-73805073D01*
X54874640Y-73662623D01*
X54865469Y-73660783D01*
X54867123Y-73660463D01*
X55079927Y-73520673D01*
X55222377Y-73309640D01*
X55272440Y-73060000D01*
X55272440Y-71560000D01*
X55225463Y-71317877D01*
X55085673Y-71105073D01*
X54874640Y-70962623D01*
X54735000Y-70934619D01*
X54735000Y-69224978D01*
X54887123Y-69195463D01*
X55099927Y-69055673D01*
X55242377Y-68844640D01*
X55248479Y-68814208D01*
X55306673Y-68954699D01*
X55485302Y-69133327D01*
X55718691Y-69230000D01*
X56309250Y-69230000D01*
X56468000Y-69071250D01*
X56468000Y-68072000D01*
X56448000Y-68072000D01*
X56448000Y-67818000D01*
X56468000Y-67818000D01*
X56468000Y-66818750D01*
X56309250Y-66660000D01*
X55718691Y-66660000D01*
X55485302Y-66756673D01*
X55306673Y-66935301D01*
X55249453Y-67073442D01*
X55245463Y-67052877D01*
X55105673Y-66840073D01*
X54894640Y-66697623D01*
X54655000Y-66649565D01*
X54655000Y-65798440D01*
X54991000Y-65798440D01*
X55233123Y-65751463D01*
X55445927Y-65611673D01*
X55588377Y-65400640D01*
X55638440Y-65151000D01*
X55638440Y-63119000D01*
X55591463Y-62876877D01*
X55451673Y-62664073D01*
X55291956Y-62556262D01*
X55381385Y-62459818D01*
X55580975Y-61977944D01*
X55580975Y-61212056D01*
X55381385Y-60730182D01*
X54943379Y-60257812D01*
X54357946Y-59989017D01*
X54102000Y-60107633D01*
X54102000Y-61468000D01*
X55461836Y-61468000D01*
X55580975Y-61212056D01*
X55580975Y-61977944D01*
X55461836Y-61722000D01*
X54102000Y-61722000D01*
X54102000Y-61742000D01*
X53848000Y-61742000D01*
X53848000Y-61722000D01*
X53848000Y-61468000D01*
X53848000Y-60107633D01*
X53592054Y-59989017D01*
X53006621Y-60257812D01*
X52568615Y-60730182D01*
X52369025Y-61212056D01*
X52488164Y-61468000D01*
X53848000Y-61468000D01*
X53848000Y-61722000D01*
X52488164Y-61722000D01*
X52369025Y-61977944D01*
X52568615Y-62459818D01*
X52658574Y-62556835D01*
X52504073Y-62658327D01*
X52361623Y-62869360D01*
X52311560Y-63119000D01*
X52311560Y-65151000D01*
X52358537Y-65393123D01*
X52498327Y-65605927D01*
X52709360Y-65748377D01*
X52959000Y-65798440D01*
X53135000Y-65798440D01*
X53135000Y-66649500D01*
X52902877Y-66694537D01*
X52690073Y-66834327D01*
X52547623Y-67045360D01*
X52497560Y-67295000D01*
X52497560Y-68595000D01*
X52544537Y-68837123D01*
X52684327Y-69049927D01*
X52895360Y-69192377D01*
X53145000Y-69242440D01*
X53215000Y-69242440D01*
X53215000Y-70933902D01*
X53082877Y-70959537D01*
X52870073Y-71099327D01*
X52727623Y-71310360D01*
X52677560Y-71560000D01*
X52677560Y-73060000D01*
X52724537Y-73302123D01*
X52864327Y-73514927D01*
X53075360Y-73657377D01*
X53084530Y-73659216D01*
X53082877Y-73659537D01*
X52870073Y-73799327D01*
X52727623Y-74010360D01*
X52677560Y-74260000D01*
X52677560Y-75760000D01*
X52724537Y-76002123D01*
X52864327Y-76214927D01*
X53075360Y-76357377D01*
X53135000Y-76369337D01*
X53135000Y-78079500D01*
X52902877Y-78124537D01*
X52690073Y-78264327D01*
X52547623Y-78475360D01*
X52497560Y-78725000D01*
X52497560Y-80025000D01*
X52544537Y-80267123D01*
X52684327Y-80479927D01*
X52895360Y-80622377D01*
X53145000Y-80672440D01*
X53215000Y-80672440D01*
X53215000Y-85090000D01*
X53272852Y-85380839D01*
X53338632Y-85479286D01*
X53327560Y-85534500D01*
X53327560Y-87185500D01*
X53374537Y-87427623D01*
X53508305Y-87631260D01*
X53377623Y-87824860D01*
X53327560Y-88074500D01*
X53327560Y-89725500D01*
X53374537Y-89967623D01*
X53508305Y-90171260D01*
X53377623Y-90364860D01*
X53327560Y-90614500D01*
X53327560Y-92265500D01*
X53374537Y-92507623D01*
X53514327Y-92720427D01*
X53725360Y-92862877D01*
X53975000Y-92912940D01*
X55643138Y-92912940D01*
X55835000Y-93104802D01*
X55835000Y-94589500D01*
X55602877Y-94634537D01*
X55390073Y-94774327D01*
X55247623Y-94985360D01*
X55241520Y-95015791D01*
X55183327Y-94875301D01*
X55004698Y-94696673D01*
X54771309Y-94600000D01*
X54180750Y-94600000D01*
X54022000Y-94758750D01*
X54022000Y-95758000D01*
X54042000Y-95758000D01*
X54042000Y-96012000D01*
X54022000Y-96012000D01*
X54022000Y-97011250D01*
X54180750Y-97170000D01*
X54771309Y-97170000D01*
X55004698Y-97073327D01*
X55183327Y-96894699D01*
X55240546Y-96756557D01*
X55244537Y-96777123D01*
X55384327Y-96989927D01*
X55595360Y-97132377D01*
X55845000Y-97182440D01*
X57345000Y-97182440D01*
X57587123Y-97135463D01*
X57799927Y-96995673D01*
X57942377Y-96784640D01*
X57986423Y-96565000D01*
X60299500Y-96565000D01*
X60344537Y-96797123D01*
X60484327Y-97009927D01*
X60695360Y-97152377D01*
X60704530Y-97154216D01*
X60702877Y-97154537D01*
X60490073Y-97294327D01*
X60347623Y-97505360D01*
X60297560Y-97755000D01*
X60297560Y-99255000D01*
X60344537Y-99497123D01*
X60484327Y-99709927D01*
X60695360Y-99852377D01*
X60835000Y-99880380D01*
X60835000Y-101480000D01*
X60855885Y-101585000D01*
X60530750Y-101585000D01*
X60372000Y-101743750D01*
X60372000Y-102743000D01*
X60392000Y-102743000D01*
X60392000Y-102997000D01*
X60372000Y-102997000D01*
X60372000Y-103996250D01*
X60530750Y-104155000D01*
X61121309Y-104155000D01*
X61354698Y-104058327D01*
X61533327Y-103879699D01*
X61590546Y-103741557D01*
X61594537Y-103762123D01*
X61734327Y-103974927D01*
X61945360Y-104117377D01*
X62195000Y-104167440D01*
X63695000Y-104167440D01*
X63937123Y-104120463D01*
X64149927Y-103980673D01*
X64292377Y-103769640D01*
X64324391Y-103610000D01*
X67967951Y-103610000D01*
X68269853Y-104340658D01*
X69010443Y-105082542D01*
X69978567Y-105484542D01*
X71026834Y-105485457D01*
X71995658Y-105085147D01*
X72737542Y-104344557D01*
X73139542Y-103376433D01*
X73140457Y-102328166D01*
X72740147Y-101359342D01*
X71999557Y-100617458D01*
X71745000Y-100511756D01*
X71745000Y-92296309D01*
X71745000Y-91705750D01*
X71586250Y-91547000D01*
X70612000Y-91547000D01*
X70612000Y-92646250D01*
X70770750Y-92805000D01*
X70983691Y-92805000D01*
X71236310Y-92805000D01*
X71469699Y-92708327D01*
X71648327Y-92529698D01*
X71745000Y-92296309D01*
X71745000Y-100511756D01*
X71031433Y-100215458D01*
X70358000Y-100214870D01*
X70358000Y-92646250D01*
X70358000Y-91547000D01*
X69383750Y-91547000D01*
X69225000Y-91705750D01*
X69225000Y-92296309D01*
X69321673Y-92529698D01*
X69500301Y-92708327D01*
X69733690Y-92805000D01*
X69986309Y-92805000D01*
X70199250Y-92805000D01*
X70358000Y-92646250D01*
X70358000Y-100214870D01*
X69983166Y-100214543D01*
X69014342Y-100614853D01*
X68272458Y-101355443D01*
X67967443Y-102090000D01*
X64317217Y-102090000D01*
X64295463Y-101977877D01*
X64155673Y-101765073D01*
X63944640Y-101622623D01*
X63695000Y-101572560D01*
X62762362Y-101572560D01*
X62355000Y-101165198D01*
X62355000Y-99881097D01*
X62487123Y-99855463D01*
X62699927Y-99715673D01*
X62842377Y-99504640D01*
X62892440Y-99255000D01*
X62892440Y-97755000D01*
X62845463Y-97512877D01*
X62705673Y-97300073D01*
X62494640Y-97157623D01*
X62485469Y-97155783D01*
X62487123Y-97155463D01*
X62699927Y-97015673D01*
X62842377Y-96804640D01*
X62892440Y-96555000D01*
X62892440Y-95055000D01*
X62845463Y-94812877D01*
X62705673Y-94600073D01*
X62494640Y-94457623D01*
X62245000Y-94407560D01*
X62230000Y-94407560D01*
X62230000Y-92391809D01*
X62230000Y-91725750D01*
X62071250Y-91567000D01*
X60452000Y-91567000D01*
X60452000Y-92741750D01*
X60610750Y-92900500D01*
X61468691Y-92900500D01*
X61721310Y-92900500D01*
X61954699Y-92803827D01*
X62133327Y-92625198D01*
X62230000Y-92391809D01*
X62230000Y-94407560D01*
X60945000Y-94407560D01*
X60702877Y-94454537D01*
X60490073Y-94594327D01*
X60347623Y-94805360D01*
X60299565Y-95045000D01*
X60198000Y-95045000D01*
X60198000Y-92741750D01*
X60198000Y-91567000D01*
X58578750Y-91567000D01*
X58420000Y-91725750D01*
X58420000Y-92391809D01*
X58516673Y-92625198D01*
X58695301Y-92803827D01*
X58928690Y-92900500D01*
X59181309Y-92900500D01*
X60039250Y-92900500D01*
X60198000Y-92741750D01*
X60198000Y-95045000D01*
X57955575Y-95045000D01*
X57945463Y-94992877D01*
X57805673Y-94780073D01*
X57594640Y-94637623D01*
X57355000Y-94589565D01*
X57355000Y-92790000D01*
X57297148Y-92499161D01*
X57297148Y-92499160D01*
X57157495Y-92290155D01*
X57162440Y-92265500D01*
X57162440Y-90614500D01*
X57115463Y-90372377D01*
X56981694Y-90168739D01*
X57112377Y-89975140D01*
X57162440Y-89725500D01*
X57162440Y-89660000D01*
X58407560Y-89660000D01*
X58407560Y-89725500D01*
X58454537Y-89967623D01*
X58593026Y-90178447D01*
X58516673Y-90254802D01*
X58420000Y-90488191D01*
X58420000Y-91154250D01*
X58578750Y-91313000D01*
X60198000Y-91313000D01*
X60198000Y-91293000D01*
X60452000Y-91293000D01*
X60452000Y-91313000D01*
X62071250Y-91313000D01*
X62230000Y-91154250D01*
X62230000Y-90488191D01*
X62133327Y-90254802D01*
X62055879Y-90177354D01*
X62192377Y-89975140D01*
X62242440Y-89725500D01*
X62242440Y-88074500D01*
X62195463Y-87832377D01*
X62061694Y-87628739D01*
X62192377Y-87435140D01*
X62242440Y-87185500D01*
X62242440Y-87117525D01*
X62520839Y-87062148D01*
X62767401Y-86897401D01*
X63482401Y-86182401D01*
X63647148Y-85935839D01*
X63705000Y-85645000D01*
X63705000Y-80670499D01*
X63937123Y-80625463D01*
X64149927Y-80485673D01*
X64292377Y-80274640D01*
X64342440Y-80025000D01*
X64342440Y-78725000D01*
X64295463Y-78482877D01*
X64155673Y-78270073D01*
X63944640Y-78127623D01*
X63705000Y-78079565D01*
X63705000Y-76370575D01*
X63757123Y-76360463D01*
X63969927Y-76220673D01*
X64112377Y-76009640D01*
X64162440Y-75760000D01*
X64162440Y-74260000D01*
X64115463Y-74017877D01*
X63975673Y-73805073D01*
X63764640Y-73662623D01*
X63755469Y-73660783D01*
X63757123Y-73660463D01*
X63969927Y-73520673D01*
X64112377Y-73309640D01*
X64160434Y-73070000D01*
X66280198Y-73070000D01*
X69947599Y-76737401D01*
X70194161Y-76902148D01*
X70485000Y-76960000D01*
X73473902Y-76960000D01*
X73499537Y-77092123D01*
X73639327Y-77304927D01*
X73850360Y-77447377D01*
X74100000Y-77497440D01*
X75600000Y-77497440D01*
X75842123Y-77450463D01*
X76054927Y-77310673D01*
X76197377Y-77099640D01*
X76199216Y-77090469D01*
X76199537Y-77092123D01*
X76339327Y-77304927D01*
X76550360Y-77447377D01*
X76800000Y-77497440D01*
X78300000Y-77497440D01*
X78542123Y-77450463D01*
X78754927Y-77310673D01*
X78897377Y-77099640D01*
X78925380Y-76960000D01*
X79695198Y-76960000D01*
X84552599Y-81817401D01*
X84799161Y-81982148D01*
X85090000Y-82040000D01*
X93805351Y-82040000D01*
X94005585Y-82339670D01*
X94315069Y-82546460D01*
X93899268Y-82917964D01*
X93645291Y-83445209D01*
X93642642Y-83460974D01*
X93763783Y-83693000D01*
X95123000Y-83693000D01*
X95123000Y-83673000D01*
X95377000Y-83673000D01*
X95377000Y-83693000D01*
X96736217Y-83693000D01*
X96857358Y-83460974D01*
X96854709Y-83445209D01*
X96600732Y-82917964D01*
X96184930Y-82546460D01*
X96494415Y-82339670D01*
X96819271Y-81853489D01*
X96933345Y-81280000D01*
X96933345Y-85600000D01*
X96694648Y-85600000D01*
X96494415Y-85300330D01*
X96184930Y-85093539D01*
X96600732Y-84722036D01*
X96854709Y-84194791D01*
X96857358Y-84179026D01*
X96736217Y-83947000D01*
X95377000Y-83947000D01*
X95377000Y-83967000D01*
X95123000Y-83967000D01*
X95123000Y-83947000D01*
X93763783Y-83947000D01*
X93642642Y-84179026D01*
X93645291Y-84194791D01*
X93899268Y-84722036D01*
X94315069Y-85093539D01*
X94005585Y-85300330D01*
X93680729Y-85786511D01*
X93566655Y-86360000D01*
X93680729Y-86933489D01*
X94005585Y-87419670D01*
X94320365Y-87630000D01*
X94005585Y-87840330D01*
X93791988Y-88160000D01*
X91440499Y-88160000D01*
X91395463Y-87927877D01*
X91255673Y-87715073D01*
X91044640Y-87572623D01*
X90795000Y-87522560D01*
X89545000Y-87522560D01*
X89302877Y-87569537D01*
X89090073Y-87709327D01*
X88947623Y-87920360D01*
X88919619Y-88060000D01*
X86385499Y-88060000D01*
X86340463Y-87827877D01*
X86200673Y-87615073D01*
X85989640Y-87472623D01*
X85740000Y-87422560D01*
X84440000Y-87422560D01*
X84197877Y-87469537D01*
X83985073Y-87609327D01*
X83842623Y-87820360D01*
X83792560Y-88070000D01*
X83792560Y-88140000D01*
X80726247Y-88140000D01*
X80705463Y-88032877D01*
X80565673Y-87820073D01*
X80354640Y-87677623D01*
X80105000Y-87627560D01*
X78605000Y-87627560D01*
X78362877Y-87674537D01*
X78150073Y-87814327D01*
X78105386Y-87880528D01*
X78065673Y-87820073D01*
X77854640Y-87677623D01*
X77605000Y-87627560D01*
X76105000Y-87627560D01*
X75862877Y-87674537D01*
X75650073Y-87814327D01*
X75507623Y-88025360D01*
X75484633Y-88140000D01*
X71751619Y-88140000D01*
X71710463Y-87927877D01*
X71570673Y-87715073D01*
X71359640Y-87572623D01*
X71265000Y-87553643D01*
X71265000Y-85087048D01*
X71995658Y-84785147D01*
X72737542Y-84044557D01*
X73139542Y-83076433D01*
X73140457Y-82028166D01*
X72740147Y-81059342D01*
X71999557Y-80317458D01*
X71031433Y-79915458D01*
X69983166Y-79914543D01*
X69014342Y-80314853D01*
X68272458Y-81055443D01*
X67870458Y-82023567D01*
X67869543Y-83071834D01*
X68269853Y-84040658D01*
X69010443Y-84782542D01*
X69745000Y-85087556D01*
X69745000Y-87544872D01*
X69617877Y-87569537D01*
X69405073Y-87709327D01*
X69262623Y-87920360D01*
X69212560Y-88170000D01*
X69212560Y-89670000D01*
X69259537Y-89912123D01*
X69399327Y-90124927D01*
X69463637Y-90168337D01*
X69321673Y-90310302D01*
X69225000Y-90543691D01*
X69225000Y-91134250D01*
X69383750Y-91293000D01*
X70358000Y-91293000D01*
X70358000Y-91273000D01*
X70612000Y-91273000D01*
X70612000Y-91293000D01*
X71586250Y-91293000D01*
X71745000Y-91134250D01*
X71745000Y-90543691D01*
X71648327Y-90310302D01*
X71506849Y-90168823D01*
X71564927Y-90130673D01*
X71707377Y-89919640D01*
X71757440Y-89670000D01*
X71757440Y-89660000D01*
X75483752Y-89660000D01*
X75504537Y-89767123D01*
X75644327Y-89979927D01*
X75855360Y-90122377D01*
X76105000Y-90172440D01*
X77605000Y-90172440D01*
X77847123Y-90125463D01*
X78059927Y-89985673D01*
X78104613Y-89919471D01*
X78144327Y-89979927D01*
X78355360Y-90122377D01*
X78605000Y-90172440D01*
X80105000Y-90172440D01*
X80347123Y-90125463D01*
X80559927Y-89985673D01*
X80702377Y-89774640D01*
X80725366Y-89660000D01*
X83810021Y-89660000D01*
X83839537Y-89812123D01*
X83979327Y-90024927D01*
X84190360Y-90167377D01*
X84220791Y-90173479D01*
X84080301Y-90231673D01*
X83901673Y-90410302D01*
X83805000Y-90643691D01*
X83805000Y-91234250D01*
X83963750Y-91393000D01*
X84963000Y-91393000D01*
X84963000Y-91373000D01*
X85217000Y-91373000D01*
X85217000Y-91393000D01*
X86216250Y-91393000D01*
X86375000Y-91234250D01*
X86375000Y-90643691D01*
X86278327Y-90410302D01*
X86099699Y-90231673D01*
X85961557Y-90174453D01*
X85982123Y-90170463D01*
X86194927Y-90030673D01*
X86337377Y-89819640D01*
X86365380Y-89680000D01*
X88899500Y-89680000D01*
X88944537Y-89912123D01*
X89084327Y-90124927D01*
X89148637Y-90168337D01*
X89006673Y-90310302D01*
X88910000Y-90543691D01*
X88910000Y-91134250D01*
X89068750Y-91293000D01*
X90043000Y-91293000D01*
X90043000Y-91273000D01*
X90297000Y-91273000D01*
X90297000Y-91293000D01*
X91271250Y-91293000D01*
X91430000Y-91134250D01*
X91430000Y-90543691D01*
X91333327Y-90310302D01*
X91191849Y-90168823D01*
X91249927Y-90130673D01*
X91392377Y-89919640D01*
X91440434Y-89680000D01*
X93818715Y-89680000D01*
X94005585Y-89959670D01*
X94027779Y-89974499D01*
X93874301Y-90038073D01*
X93695673Y-90216702D01*
X93599000Y-90450091D01*
X93599000Y-91154250D01*
X93757750Y-91313000D01*
X95123000Y-91313000D01*
X95123000Y-91293000D01*
X95377000Y-91293000D01*
X95377000Y-91313000D01*
X96742250Y-91313000D01*
X96901000Y-91154250D01*
X96901000Y-90450091D01*
X96804327Y-90216702D01*
X96625699Y-90038073D01*
X96472220Y-89974499D01*
X96494415Y-89959670D01*
X96819271Y-89473489D01*
X96933345Y-88900000D01*
X96819271Y-88326511D01*
X96494415Y-87840330D01*
X96179634Y-87630000D01*
X96494415Y-87419670D01*
X96694648Y-87120000D01*
X97158380Y-87120000D01*
X97199537Y-87332123D01*
X97339327Y-87544927D01*
X97550360Y-87687377D01*
X97800000Y-87737440D01*
X99050000Y-87737440D01*
X99292123Y-87690463D01*
X99504927Y-87550673D01*
X99647377Y-87339640D01*
X99697440Y-87090000D01*
X99697440Y-114250000D01*
X96901000Y-114250000D01*
X96901000Y-92429909D01*
X96901000Y-91725750D01*
X96742250Y-91567000D01*
X95377000Y-91567000D01*
X95377000Y-91587000D01*
X95123000Y-91587000D01*
X95123000Y-91567000D01*
X93757750Y-91567000D01*
X93599000Y-91725750D01*
X93599000Y-92429909D01*
X93695673Y-92663298D01*
X93874301Y-92841927D01*
X94107690Y-92938600D01*
X94360309Y-92938600D01*
X94803100Y-92938600D01*
X94685692Y-92987232D01*
X94650405Y-93200800D01*
X95250000Y-93800395D01*
X95849595Y-93200800D01*
X95814308Y-92987232D01*
X95667813Y-92938600D01*
X96139691Y-92938600D01*
X96392310Y-92938600D01*
X96625699Y-92841927D01*
X96804327Y-92663298D01*
X96901000Y-92429909D01*
X96901000Y-114250000D01*
X96383149Y-114250000D01*
X96383149Y-111901436D01*
X96383149Y-109361436D01*
X96383149Y-106821436D01*
X96383149Y-104281436D01*
X96383149Y-101741436D01*
X96383149Y-99201436D01*
X96383149Y-96661436D01*
X96383149Y-94121436D01*
X96351018Y-93677032D01*
X96242768Y-93415692D01*
X96029200Y-93380405D01*
X95429605Y-93980000D01*
X96029200Y-94579595D01*
X96242768Y-94544308D01*
X96383149Y-94121436D01*
X96383149Y-96661436D01*
X96351018Y-96217032D01*
X96242768Y-95955692D01*
X96029200Y-95920405D01*
X95849595Y-96100010D01*
X95849595Y-95740800D01*
X95849595Y-94759200D01*
X95250000Y-94159605D01*
X95070395Y-94339210D01*
X95070395Y-93980000D01*
X94470800Y-93380405D01*
X94257232Y-93415692D01*
X94116851Y-93838564D01*
X94148982Y-94282968D01*
X94257232Y-94544308D01*
X94470800Y-94579595D01*
X95070395Y-93980000D01*
X95070395Y-94339210D01*
X94650405Y-94759200D01*
X94685692Y-94972768D01*
X95108564Y-95113149D01*
X95552968Y-95081018D01*
X95814308Y-94972768D01*
X95849595Y-94759200D01*
X95849595Y-95740800D01*
X95814308Y-95527232D01*
X95391436Y-95386851D01*
X94947032Y-95418982D01*
X94685692Y-95527232D01*
X94650405Y-95740800D01*
X95250000Y-96340395D01*
X95849595Y-95740800D01*
X95849595Y-96100010D01*
X95429605Y-96520000D01*
X96029200Y-97119595D01*
X96242768Y-97084308D01*
X96383149Y-96661436D01*
X96383149Y-99201436D01*
X96351018Y-98757032D01*
X96242768Y-98495692D01*
X96029200Y-98460405D01*
X95849595Y-98640010D01*
X95849595Y-98280800D01*
X95849595Y-97299200D01*
X95250000Y-96699605D01*
X95070395Y-96879210D01*
X95070395Y-96520000D01*
X94470800Y-95920405D01*
X94257232Y-95955692D01*
X94116851Y-96378564D01*
X94148982Y-96822968D01*
X94257232Y-97084308D01*
X94470800Y-97119595D01*
X95070395Y-96520000D01*
X95070395Y-96879210D01*
X94650405Y-97299200D01*
X94685692Y-97512768D01*
X95108564Y-97653149D01*
X95552968Y-97621018D01*
X95814308Y-97512768D01*
X95849595Y-97299200D01*
X95849595Y-98280800D01*
X95814308Y-98067232D01*
X95391436Y-97926851D01*
X94947032Y-97958982D01*
X94685692Y-98067232D01*
X94650405Y-98280800D01*
X95250000Y-98880395D01*
X95849595Y-98280800D01*
X95849595Y-98640010D01*
X95429605Y-99060000D01*
X96029200Y-99659595D01*
X96242768Y-99624308D01*
X96383149Y-99201436D01*
X96383149Y-101741436D01*
X96351018Y-101297032D01*
X96242768Y-101035692D01*
X96029200Y-101000405D01*
X95849595Y-101180010D01*
X95849595Y-100820800D01*
X95849595Y-99839200D01*
X95250000Y-99239605D01*
X95070395Y-99419210D01*
X95070395Y-99060000D01*
X94470800Y-98460405D01*
X94257232Y-98495692D01*
X94116851Y-98918564D01*
X94148982Y-99362968D01*
X94257232Y-99624308D01*
X94470800Y-99659595D01*
X95070395Y-99060000D01*
X95070395Y-99419210D01*
X94650405Y-99839200D01*
X94685692Y-100052768D01*
X95108564Y-100193149D01*
X95552968Y-100161018D01*
X95814308Y-100052768D01*
X95849595Y-99839200D01*
X95849595Y-100820800D01*
X95814308Y-100607232D01*
X95391436Y-100466851D01*
X94947032Y-100498982D01*
X94685692Y-100607232D01*
X94650405Y-100820800D01*
X95250000Y-101420395D01*
X95849595Y-100820800D01*
X95849595Y-101180010D01*
X95429605Y-101600000D01*
X96029200Y-102199595D01*
X96242768Y-102164308D01*
X96383149Y-101741436D01*
X96383149Y-104281436D01*
X96351018Y-103837032D01*
X96242768Y-103575692D01*
X96029200Y-103540405D01*
X95849595Y-103720010D01*
X95849595Y-103360800D01*
X95849595Y-102379200D01*
X95250000Y-101779605D01*
X95070395Y-101959210D01*
X95070395Y-101600000D01*
X94470800Y-101000405D01*
X94257232Y-101035692D01*
X94116851Y-101458564D01*
X94148982Y-101902968D01*
X94257232Y-102164308D01*
X94470800Y-102199595D01*
X95070395Y-101600000D01*
X95070395Y-101959210D01*
X94650405Y-102379200D01*
X94685692Y-102592768D01*
X95108564Y-102733149D01*
X95552968Y-102701018D01*
X95814308Y-102592768D01*
X95849595Y-102379200D01*
X95849595Y-103360800D01*
X95814308Y-103147232D01*
X95391436Y-103006851D01*
X94947032Y-103038982D01*
X94685692Y-103147232D01*
X94650405Y-103360800D01*
X95250000Y-103960395D01*
X95849595Y-103360800D01*
X95849595Y-103720010D01*
X95429605Y-104140000D01*
X96029200Y-104739595D01*
X96242768Y-104704308D01*
X96383149Y-104281436D01*
X96383149Y-106821436D01*
X96351018Y-106377032D01*
X96242768Y-106115692D01*
X96029200Y-106080405D01*
X95849595Y-106260010D01*
X95849595Y-105900800D01*
X95849595Y-104919200D01*
X95250000Y-104319605D01*
X95070395Y-104499210D01*
X95070395Y-104140000D01*
X94470800Y-103540405D01*
X94257232Y-103575692D01*
X94116851Y-103998564D01*
X94148982Y-104442968D01*
X94257232Y-104704308D01*
X94470800Y-104739595D01*
X95070395Y-104140000D01*
X95070395Y-104499210D01*
X94650405Y-104919200D01*
X94685692Y-105132768D01*
X95108564Y-105273149D01*
X95552968Y-105241018D01*
X95814308Y-105132768D01*
X95849595Y-104919200D01*
X95849595Y-105900800D01*
X95814308Y-105687232D01*
X95391436Y-105546851D01*
X94947032Y-105578982D01*
X94685692Y-105687232D01*
X94650405Y-105900800D01*
X95250000Y-106500395D01*
X95849595Y-105900800D01*
X95849595Y-106260010D01*
X95429605Y-106680000D01*
X96029200Y-107279595D01*
X96242768Y-107244308D01*
X96383149Y-106821436D01*
X96383149Y-109361436D01*
X96351018Y-108917032D01*
X96242768Y-108655692D01*
X96029200Y-108620405D01*
X95849595Y-108800010D01*
X95849595Y-108440800D01*
X95849595Y-107459200D01*
X95250000Y-106859605D01*
X95070395Y-107039210D01*
X95070395Y-106680000D01*
X94470800Y-106080405D01*
X94257232Y-106115692D01*
X94116851Y-106538564D01*
X94148982Y-106982968D01*
X94257232Y-107244308D01*
X94470800Y-107279595D01*
X95070395Y-106680000D01*
X95070395Y-107039210D01*
X94650405Y-107459200D01*
X94685692Y-107672768D01*
X95108564Y-107813149D01*
X95552968Y-107781018D01*
X95814308Y-107672768D01*
X95849595Y-107459200D01*
X95849595Y-108440800D01*
X95814308Y-108227232D01*
X95391436Y-108086851D01*
X94947032Y-108118982D01*
X94685692Y-108227232D01*
X94650405Y-108440800D01*
X95250000Y-109040395D01*
X95849595Y-108440800D01*
X95849595Y-108800010D01*
X95429605Y-109220000D01*
X96029200Y-109819595D01*
X96242768Y-109784308D01*
X96383149Y-109361436D01*
X96383149Y-111901436D01*
X96351018Y-111457032D01*
X96242768Y-111195692D01*
X96029200Y-111160405D01*
X95849595Y-111340010D01*
X95849595Y-110980800D01*
X95849595Y-109999200D01*
X95250000Y-109399605D01*
X95070395Y-109579210D01*
X95070395Y-109220000D01*
X94470800Y-108620405D01*
X94257232Y-108655692D01*
X94116851Y-109078564D01*
X94148982Y-109522968D01*
X94257232Y-109784308D01*
X94470800Y-109819595D01*
X95070395Y-109220000D01*
X95070395Y-109579210D01*
X94650405Y-109999200D01*
X94685692Y-110212768D01*
X95108564Y-110353149D01*
X95552968Y-110321018D01*
X95814308Y-110212768D01*
X95849595Y-109999200D01*
X95849595Y-110980800D01*
X95814308Y-110767232D01*
X95391436Y-110626851D01*
X94947032Y-110658982D01*
X94685692Y-110767232D01*
X94650405Y-110980800D01*
X95250000Y-111580395D01*
X95849595Y-110980800D01*
X95849595Y-111340010D01*
X95429605Y-111760000D01*
X96029200Y-112359595D01*
X96242768Y-112324308D01*
X96383149Y-111901436D01*
X96383149Y-114250000D01*
X95849595Y-114250000D01*
X95849595Y-112539200D01*
X95250000Y-111939605D01*
X95070395Y-112119210D01*
X95070395Y-111760000D01*
X94470800Y-111160405D01*
X94257232Y-111195692D01*
X94116851Y-111618564D01*
X94148982Y-112062968D01*
X94257232Y-112324308D01*
X94470800Y-112359595D01*
X95070395Y-111760000D01*
X95070395Y-112119210D01*
X94650405Y-112539200D01*
X94685692Y-112752768D01*
X95108564Y-112893149D01*
X95552968Y-112861018D01*
X95814308Y-112752768D01*
X95849595Y-112539200D01*
X95849595Y-114250000D01*
X91430000Y-114250000D01*
X91430000Y-92296309D01*
X91430000Y-91705750D01*
X91271250Y-91547000D01*
X90297000Y-91547000D01*
X90297000Y-92646250D01*
X90455750Y-92805000D01*
X90668691Y-92805000D01*
X90921310Y-92805000D01*
X91154699Y-92708327D01*
X91333327Y-92529698D01*
X91430000Y-92296309D01*
X91430000Y-114250000D01*
X90043000Y-114250000D01*
X90043000Y-92646250D01*
X90043000Y-91547000D01*
X89068750Y-91547000D01*
X88910000Y-91705750D01*
X88910000Y-92296309D01*
X89006673Y-92529698D01*
X89185301Y-92708327D01*
X89418690Y-92805000D01*
X89671309Y-92805000D01*
X89884250Y-92805000D01*
X90043000Y-92646250D01*
X90043000Y-114250000D01*
X86375000Y-114250000D01*
X86375000Y-92396309D01*
X86375000Y-91805750D01*
X86216250Y-91647000D01*
X85217000Y-91647000D01*
X85217000Y-92746250D01*
X85375750Y-92905000D01*
X85613691Y-92905000D01*
X85866310Y-92905000D01*
X86099699Y-92808327D01*
X86278327Y-92629698D01*
X86375000Y-92396309D01*
X86375000Y-114250000D01*
X84963000Y-114250000D01*
X84963000Y-92746250D01*
X84963000Y-91647000D01*
X83963750Y-91647000D01*
X83805000Y-91805750D01*
X83805000Y-92396309D01*
X83901673Y-92629698D01*
X84080301Y-92808327D01*
X84313690Y-92905000D01*
X84566309Y-92905000D01*
X84804250Y-92905000D01*
X84963000Y-92746250D01*
X84963000Y-114250000D01*
X60118000Y-114250000D01*
X60118000Y-103996250D01*
X60118000Y-102997000D01*
X60118000Y-102743000D01*
X60118000Y-101743750D01*
X59959250Y-101585000D01*
X59368691Y-101585000D01*
X59135302Y-101681673D01*
X58956673Y-101860301D01*
X58860000Y-102093690D01*
X58860000Y-102346309D01*
X58860000Y-102584250D01*
X59018750Y-102743000D01*
X60118000Y-102743000D01*
X60118000Y-102997000D01*
X59018750Y-102997000D01*
X58860000Y-103155750D01*
X58860000Y-103393691D01*
X58860000Y-103646310D01*
X58956673Y-103879699D01*
X59135302Y-104058327D01*
X59368691Y-104155000D01*
X59959250Y-104155000D01*
X60118000Y-103996250D01*
X60118000Y-114250000D01*
X56995473Y-114250000D01*
X56995473Y-110017664D01*
X56633134Y-109140737D01*
X55962792Y-108469224D01*
X55086499Y-108105355D01*
X54137664Y-108104527D01*
X53768000Y-108257269D01*
X53768000Y-97011250D01*
X53768000Y-96012000D01*
X53768000Y-95758000D01*
X53768000Y-94758750D01*
X53609250Y-94600000D01*
X53018691Y-94600000D01*
X52785302Y-94696673D01*
X52606673Y-94875301D01*
X52510000Y-95108690D01*
X52510000Y-95361309D01*
X52510000Y-95599250D01*
X52668750Y-95758000D01*
X53768000Y-95758000D01*
X53768000Y-96012000D01*
X52668750Y-96012000D01*
X52510000Y-96170750D01*
X52510000Y-96408691D01*
X52510000Y-96661310D01*
X52606673Y-96894699D01*
X52785302Y-97073327D01*
X53018691Y-97170000D01*
X53609250Y-97170000D01*
X53768000Y-97011250D01*
X53768000Y-108257269D01*
X53260737Y-108466866D01*
X52589224Y-109137208D01*
X52225355Y-110013501D01*
X52224527Y-110962336D01*
X52586866Y-111839263D01*
X53257208Y-112510776D01*
X54133501Y-112874645D01*
X55082336Y-112875473D01*
X55959263Y-112513134D01*
X56630776Y-111842792D01*
X56994645Y-110966499D01*
X56995473Y-110017664D01*
X56995473Y-114250000D01*
X50850000Y-114250000D01*
X50850000Y-50850000D01*
X100203000Y-50850000D01*
X100203000Y-114250000D01*
M02*
