M48
;DRILL file {kicad (after 2015-mar-04 BZR unknown)-product} date Mon 31 Oct 2016 03:55:25 PM CET
;FORMAT={-:-/ absolute / inch / decimal}
FMAT,2
INCH,TZ
T1C0.018
T2C0.032
T3C0.035
T4C0.039
T5C0.039
T6C0.040
T7C0.059
T8C0.138
%
G90
G05
M72
T1
X3.75Y-2.1
X3.75Y-2.1
X3.75Y-2.1
X3.75Y-2.1
X3.75Y-2.2
X3.75Y-2.2
X3.75Y-2.2
X3.75Y-2.2
X3.75Y-2.3
X3.75Y-2.3
X3.75Y-2.3
X3.75Y-2.3
X3.75Y-2.4
X3.75Y-2.4
X3.75Y-2.4
X3.75Y-2.4
X3.75Y-2.5
X3.75Y-2.5
X3.75Y-2.5
X3.75Y-2.5
X3.75Y-2.6
X3.75Y-2.6
X3.75Y-2.6
X3.75Y-2.6
X3.75Y-2.7
X3.75Y-2.7
X3.75Y-2.7
X3.75Y-2.7
X3.75Y-2.8
X3.75Y-2.8
X3.75Y-2.8
X3.75Y-2.8
X3.75Y-3.7
X3.75Y-3.8
X3.75Y-3.9
X3.75Y-4.
X3.75Y-4.1
X3.75Y-4.2
X3.75Y-4.3
X3.75Y-4.4
X4.9Y-2.45
X5.625Y-2.35
X5.625Y-3.
X5.625Y-3.25
X5.625Y-4.15
X5.675Y-3.05
X5.725Y-3.1
X5.775Y-2.85
X5.775Y-3.15
X5.825Y-2.9
X5.825Y-3.2
X5.875Y-2.95
X5.875Y-3.25
X5.925Y-3.
X5.925Y-3.3
X5.975Y-3.05
X5.975Y-3.35
X6.025Y-3.1
X6.025Y-3.4
X6.075Y-3.15
X6.075Y-3.45
X6.125Y-3.2
X6.15Y-3.45
X6.175Y-3.25
X6.225Y-3.45
X6.25Y-3.25
X6.3Y-3.45
X6.325Y-3.25
X6.4Y-3.25
X6.475Y-3.25
X6.475Y-3.45
X6.55Y-3.25
X6.55Y-3.45
X6.625Y-2.35
X6.625Y-4.15
T2
X5.225Y-2.1
X5.225Y-2.25
T3
X5.125Y-2.575
X5.125Y-3.775
T4
X2.7758Y-2.4508
X2.7758Y-3.25
X2.7758Y-4.0492
X4.3742Y-2.4508
X4.3742Y-4.0492
T5
X6.75Y-3.15
X6.75Y-3.25
X6.75Y-3.35
T6
X2.125Y-2.425
X2.125Y-2.525
X2.475Y-2.075
X2.475Y-2.175
X3.75Y-2.9
X3.75Y-3.
X3.75Y-3.1
X3.75Y-3.2
X3.75Y-3.3
X3.75Y-3.4
X3.75Y-3.5
X3.75Y-3.6
X5.025Y-4.3
X5.025Y-4.4
X5.125Y-4.3
X5.125Y-4.4
X6.275Y-4.3
X6.275Y-4.4
T7
X6.2313Y-2.5197
X6.2313Y-3.9803
T8
X2.15Y-2.15
X2.15Y-4.35
X4.75Y-2.15
X4.75Y-4.35
X6.7Y-2.15
X6.7Y-4.35
T0
M30
