%FSLAX45Y45*%
G04 Gerber Fmt 4.5, Leading zero omitted, Abs format (unit mm)*
G04 Created by KiCad (PCBNEW (after 2015-mar-04 BZR unknown)-product) date Mon 31 Oct 2016 03:55:28 PM CET*
%MOMM*%
G01*
G04 APERTURE LIST*
%ADD10C,0.127000*%
%ADD11C,0.100000*%
%ADD12C,0.200000*%
%ADD13C,0.300000*%
G04 APERTURE END LIST*
D10*
D11*
X5016500Y-11493500D02*
X5016500Y-5016500D01*
X17462500Y-11493500D02*
X5016500Y-11493500D01*
X17462500Y-5016500D02*
X17462500Y-11493500D01*
X5016500Y-5016500D02*
X17462500Y-5016500D01*
D12*
X9502500Y-5311500D02*
X9547500Y-5356500D01*
X9547500Y-5311500D02*
X9502500Y-5356500D01*
X9502500Y-5311500D02*
X9547500Y-5356500D01*
X9547500Y-5311500D02*
X9502500Y-5356500D01*
X9502500Y-5311500D02*
X9547500Y-5356500D01*
X9547500Y-5311500D02*
X9502500Y-5356500D01*
X9502500Y-5311500D02*
X9547500Y-5356500D01*
X9547500Y-5311500D02*
X9502500Y-5356500D01*
X9502500Y-5565500D02*
X9547500Y-5610500D01*
X9547500Y-5565500D02*
X9502500Y-5610500D01*
X9502500Y-5565500D02*
X9547500Y-5610500D01*
X9547500Y-5565500D02*
X9502500Y-5610500D01*
X9502500Y-5565500D02*
X9547500Y-5610500D01*
X9547500Y-5565500D02*
X9502500Y-5610500D01*
X9502500Y-5565500D02*
X9547500Y-5610500D01*
X9547500Y-5565500D02*
X9502500Y-5610500D01*
X9502500Y-5819500D02*
X9547500Y-5864500D01*
X9547500Y-5819500D02*
X9502500Y-5864500D01*
X9502500Y-5819500D02*
X9547500Y-5864500D01*
X9547500Y-5819500D02*
X9502500Y-5864500D01*
X9502500Y-5819500D02*
X9547500Y-5864500D01*
X9547500Y-5819500D02*
X9502500Y-5864500D01*
X9502500Y-5819500D02*
X9547500Y-5864500D01*
X9547500Y-5819500D02*
X9502500Y-5864500D01*
X9502500Y-6073500D02*
X9547500Y-6118500D01*
X9547500Y-6073500D02*
X9502500Y-6118500D01*
X9502500Y-6073500D02*
X9547500Y-6118500D01*
X9547500Y-6073500D02*
X9502500Y-6118500D01*
X9502500Y-6073500D02*
X9547500Y-6118500D01*
X9547500Y-6073500D02*
X9502500Y-6118500D01*
X9502500Y-6073500D02*
X9547500Y-6118500D01*
X9547500Y-6073500D02*
X9502500Y-6118500D01*
X9502500Y-6327500D02*
X9547500Y-6372500D01*
X9547500Y-6327500D02*
X9502500Y-6372500D01*
X9502500Y-6327500D02*
X9547500Y-6372500D01*
X9547500Y-6327500D02*
X9502500Y-6372500D01*
X9502500Y-6327500D02*
X9547500Y-6372500D01*
X9547500Y-6327500D02*
X9502500Y-6372500D01*
X9502500Y-6327500D02*
X9547500Y-6372500D01*
X9547500Y-6327500D02*
X9502500Y-6372500D01*
X9502500Y-6581500D02*
X9547500Y-6626500D01*
X9547500Y-6581500D02*
X9502500Y-6626500D01*
X9502500Y-6581500D02*
X9547500Y-6626500D01*
X9547500Y-6581500D02*
X9502500Y-6626500D01*
X9502500Y-6581500D02*
X9547500Y-6626500D01*
X9547500Y-6581500D02*
X9502500Y-6626500D01*
X9502500Y-6581500D02*
X9547500Y-6626500D01*
X9547500Y-6581500D02*
X9502500Y-6626500D01*
X9502500Y-6835500D02*
X9547500Y-6880500D01*
X9547500Y-6835500D02*
X9502500Y-6880500D01*
X9502500Y-6835500D02*
X9547500Y-6880500D01*
X9547500Y-6835500D02*
X9502500Y-6880500D01*
X9502500Y-6835500D02*
X9547500Y-6880500D01*
X9547500Y-6835500D02*
X9502500Y-6880500D01*
X9502500Y-6835500D02*
X9547500Y-6880500D01*
X9547500Y-6835500D02*
X9502500Y-6880500D01*
X9502500Y-7089500D02*
X9547500Y-7134500D01*
X9547500Y-7089500D02*
X9502500Y-7134500D01*
X9502500Y-7089500D02*
X9547500Y-7134500D01*
X9547500Y-7089500D02*
X9502500Y-7134500D01*
X9502500Y-7089500D02*
X9547500Y-7134500D01*
X9547500Y-7089500D02*
X9502500Y-7134500D01*
X9502500Y-7089500D02*
X9547500Y-7134500D01*
X9547500Y-7089500D02*
X9502500Y-7134500D01*
X9502500Y-9375500D02*
X9547500Y-9420500D01*
X9547500Y-9375500D02*
X9502500Y-9420500D01*
X9502500Y-9629500D02*
X9547500Y-9674500D01*
X9547500Y-9629500D02*
X9502500Y-9674500D01*
X9502500Y-9883500D02*
X9547500Y-9928500D01*
X9547500Y-9883500D02*
X9502500Y-9928500D01*
X9502500Y-10137500D02*
X9547500Y-10182500D01*
X9547500Y-10137500D02*
X9502500Y-10182500D01*
X9502500Y-10391500D02*
X9547500Y-10436500D01*
X9547500Y-10391500D02*
X9502500Y-10436500D01*
X9502500Y-10645500D02*
X9547500Y-10690500D01*
X9547500Y-10645500D02*
X9502500Y-10690500D01*
X9502500Y-10899500D02*
X9547500Y-10944500D01*
X9547500Y-10899500D02*
X9502500Y-10944500D01*
X9502500Y-11153500D02*
X9547500Y-11198500D01*
X9547500Y-11153500D02*
X9502500Y-11198500D01*
X12423500Y-6200500D02*
X12468500Y-6245500D01*
X12468500Y-6200500D02*
X12423500Y-6245500D01*
X14265000Y-5946500D02*
X14310000Y-5991500D01*
X14310000Y-5946500D02*
X14265000Y-5991500D01*
X14265000Y-7597500D02*
X14310000Y-7642500D01*
X14310000Y-7597500D02*
X14265000Y-7642500D01*
X14265000Y-8232500D02*
X14310000Y-8277500D01*
X14310000Y-8232500D02*
X14265000Y-8277500D01*
X14265000Y-10518500D02*
X14310000Y-10563500D01*
X14310000Y-10518500D02*
X14265000Y-10563500D01*
X14392000Y-7724500D02*
X14437000Y-7769500D01*
X14437000Y-7724500D02*
X14392000Y-7769500D01*
X14519000Y-7851500D02*
X14564000Y-7896500D01*
X14564000Y-7851500D02*
X14519000Y-7896500D01*
X14646000Y-7216500D02*
X14691000Y-7261500D01*
X14691000Y-7216500D02*
X14646000Y-7261500D01*
X14646000Y-7978500D02*
X14691000Y-8023500D01*
X14691000Y-7978500D02*
X14646000Y-8023500D01*
X14773000Y-7343500D02*
X14818000Y-7388500D01*
X14818000Y-7343500D02*
X14773000Y-7388500D01*
X14773000Y-8105500D02*
X14818000Y-8150500D01*
X14818000Y-8105500D02*
X14773000Y-8150500D01*
X14900000Y-7470500D02*
X14945000Y-7515500D01*
X14945000Y-7470500D02*
X14900000Y-7515500D01*
X14900000Y-8232500D02*
X14945000Y-8277500D01*
X14945000Y-8232500D02*
X14900000Y-8277500D01*
X15027000Y-7597500D02*
X15072000Y-7642500D01*
X15072000Y-7597500D02*
X15027000Y-7642500D01*
X15027000Y-8359500D02*
X15072000Y-8404500D01*
X15072000Y-8359500D02*
X15027000Y-8404500D01*
X15154000Y-7724500D02*
X15199000Y-7769500D01*
X15199000Y-7724500D02*
X15154000Y-7769500D01*
X15154000Y-8486500D02*
X15199000Y-8531500D01*
X15199000Y-8486500D02*
X15154000Y-8531500D01*
X15281000Y-7851500D02*
X15326000Y-7896500D01*
X15326000Y-7851500D02*
X15281000Y-7896500D01*
X15281000Y-8613500D02*
X15326000Y-8658500D01*
X15326000Y-8613500D02*
X15281000Y-8658500D01*
X15408000Y-7978500D02*
X15453000Y-8023500D01*
X15453000Y-7978500D02*
X15408000Y-8023500D01*
X15408000Y-8740500D02*
X15453000Y-8785500D01*
X15453000Y-8740500D02*
X15408000Y-8785500D01*
X15535000Y-8105500D02*
X15580000Y-8150500D01*
X15580000Y-8105500D02*
X15535000Y-8150500D01*
X15598500Y-8740500D02*
X15643500Y-8785500D01*
X15643500Y-8740500D02*
X15598500Y-8785500D01*
X15662000Y-8232500D02*
X15707000Y-8277500D01*
X15707000Y-8232500D02*
X15662000Y-8277500D01*
X15789000Y-8740500D02*
X15834000Y-8785500D01*
X15834000Y-8740500D02*
X15789000Y-8785500D01*
X15852500Y-8232500D02*
X15897500Y-8277500D01*
X15897500Y-8232500D02*
X15852500Y-8277500D01*
X15979500Y-8740500D02*
X16024500Y-8785500D01*
X16024500Y-8740500D02*
X15979500Y-8785500D01*
X16043000Y-8232500D02*
X16088000Y-8277500D01*
X16088000Y-8232500D02*
X16043000Y-8277500D01*
X16233500Y-8232500D02*
X16278500Y-8277500D01*
X16278500Y-8232500D02*
X16233500Y-8277500D01*
X16424000Y-8232500D02*
X16469000Y-8277500D01*
X16469000Y-8232500D02*
X16424000Y-8277500D01*
X16424000Y-8740500D02*
X16469000Y-8785500D01*
X16469000Y-8740500D02*
X16424000Y-8785500D01*
X16614500Y-8232500D02*
X16659500Y-8277500D01*
X16659500Y-8232500D02*
X16614500Y-8277500D01*
X16614500Y-8740500D02*
X16659500Y-8785500D01*
X16659500Y-8740500D02*
X16614500Y-8785500D01*
X16805000Y-5946500D02*
X16850000Y-5991500D01*
X16850000Y-5946500D02*
X16805000Y-5991500D01*
X16805000Y-10518500D02*
X16850000Y-10563500D01*
X16850000Y-10518500D02*
X16805000Y-10563500D01*
X13311505Y-5334000D02*
G75*
G03X13311505Y-5334000I-40005J0D01*
G01*
X13311505Y-5715000D02*
G75*
G03X13311505Y-5715000I-40005J0D01*
G01*
X13017500Y-6495500D02*
X13017500Y-6585500D01*
X12972500Y-6540500D02*
X13062500Y-6540500D01*
X13017500Y-9543500D02*
X13017500Y-9633500D01*
X12972500Y-9588500D02*
X13062500Y-9588500D01*
X7085856Y-6260356D02*
X7085856Y-6189644D01*
X7015144Y-6189644D01*
X7015144Y-6260356D01*
X7085856Y-6260356D01*
X7085856Y-8290356D02*
X7085856Y-8219644D01*
X7015144Y-8219644D01*
X7015144Y-8290356D01*
X7085856Y-8290356D01*
X7085856Y-10320356D02*
X7085856Y-10249644D01*
X7015144Y-10249644D01*
X7015144Y-10320356D01*
X7085856Y-10320356D01*
X11145856Y-6260356D02*
X11145856Y-6189644D01*
X11075144Y-6189644D01*
X11075144Y-6260356D01*
X11145856Y-6260356D01*
X11145856Y-10320356D02*
X11145856Y-10249644D01*
X11075144Y-10249644D01*
X11075144Y-10320356D01*
X11145856Y-10320356D01*
X17145000Y-8051038D02*
X17195038Y-8001000D01*
X17145000Y-7950962D01*
X17094962Y-8001000D01*
X17145000Y-8051038D01*
X17145000Y-8305038D02*
X17195038Y-8255000D01*
X17145000Y-8204962D01*
X17094962Y-8255000D01*
X17145000Y-8305038D01*
X17145000Y-8559038D02*
X17195038Y-8509000D01*
X17145000Y-8458962D01*
X17094962Y-8509000D01*
X17145000Y-8559038D01*
X5346700Y-6108700D02*
X5448300Y-6210300D01*
X5448300Y-6108700D02*
X5346700Y-6210300D01*
X5448300Y-6159500D02*
G75*
G03X5448300Y-6159500I-50800J0D01*
G01*
X5346700Y-6362700D02*
X5448300Y-6464300D01*
X5448300Y-6362700D02*
X5346700Y-6464300D01*
X5448300Y-6413500D02*
G75*
G03X5448300Y-6413500I-50800J0D01*
G01*
X6235700Y-5219700D02*
X6337300Y-5321300D01*
X6337300Y-5219700D02*
X6235700Y-5321300D01*
X6337300Y-5270500D02*
G75*
G03X6337300Y-5270500I-50800J0D01*
G01*
X6235700Y-5473700D02*
X6337300Y-5575300D01*
X6337300Y-5473700D02*
X6235700Y-5575300D01*
X6337300Y-5524500D02*
G75*
G03X6337300Y-5524500I-50800J0D01*
G01*
X9474200Y-7315200D02*
X9575800Y-7416800D01*
X9575800Y-7315200D02*
X9474200Y-7416800D01*
X9575800Y-7366000D02*
G75*
G03X9575800Y-7366000I-50800J0D01*
G01*
X9474200Y-7569200D02*
X9575800Y-7670800D01*
X9575800Y-7569200D02*
X9474200Y-7670800D01*
X9575800Y-7620000D02*
G75*
G03X9575800Y-7620000I-50800J0D01*
G01*
X9474200Y-7823200D02*
X9575800Y-7924800D01*
X9575800Y-7823200D02*
X9474200Y-7924800D01*
X9575800Y-7874000D02*
G75*
G03X9575800Y-7874000I-50800J0D01*
G01*
X9474200Y-8077200D02*
X9575800Y-8178800D01*
X9575800Y-8077200D02*
X9474200Y-8178800D01*
X9575800Y-8128000D02*
G75*
G03X9575800Y-8128000I-50800J0D01*
G01*
X9474200Y-8331200D02*
X9575800Y-8432800D01*
X9575800Y-8331200D02*
X9474200Y-8432800D01*
X9575800Y-8382000D02*
G75*
G03X9575800Y-8382000I-50800J0D01*
G01*
X9474200Y-8585200D02*
X9575800Y-8686800D01*
X9575800Y-8585200D02*
X9474200Y-8686800D01*
X9575800Y-8636000D02*
G75*
G03X9575800Y-8636000I-50800J0D01*
G01*
X9474200Y-8839200D02*
X9575800Y-8940800D01*
X9575800Y-8839200D02*
X9474200Y-8940800D01*
X9575800Y-8890000D02*
G75*
G03X9575800Y-8890000I-50800J0D01*
G01*
X9474200Y-9093200D02*
X9575800Y-9194800D01*
X9575800Y-9093200D02*
X9474200Y-9194800D01*
X9575800Y-9144000D02*
G75*
G03X9575800Y-9144000I-50800J0D01*
G01*
X12712700Y-10871200D02*
X12814300Y-10972800D01*
X12814300Y-10871200D02*
X12712700Y-10972800D01*
X12814300Y-10922000D02*
G75*
G03X12814300Y-10922000I-50800J0D01*
G01*
X12712700Y-11125200D02*
X12814300Y-11226800D01*
X12814300Y-11125200D02*
X12712700Y-11226800D01*
X12814300Y-11176000D02*
G75*
G03X12814300Y-11176000I-50800J0D01*
G01*
X12966700Y-10871200D02*
X13068300Y-10972800D01*
X13068300Y-10871200D02*
X12966700Y-10972800D01*
X13068300Y-10922000D02*
G75*
G03X13068300Y-10922000I-50800J0D01*
G01*
X12966700Y-11125200D02*
X13068300Y-11226800D01*
X13068300Y-11125200D02*
X12966700Y-11226800D01*
X13068300Y-11176000D02*
G75*
G03X13068300Y-11176000I-50800J0D01*
G01*
X15887700Y-10871200D02*
X15989300Y-10972800D01*
X15989300Y-10871200D02*
X15887700Y-10972800D01*
X15989300Y-10922000D02*
G75*
G03X15989300Y-10922000I-50800J0D01*
G01*
X15887700Y-11125200D02*
X15989300Y-11226800D01*
X15989300Y-11125200D02*
X15887700Y-11226800D01*
X15989300Y-11176000D02*
G75*
G03X15989300Y-11176000I-50800J0D01*
G01*
X15752500Y-6325000D02*
X15902500Y-6475000D01*
X15902500Y-6325000D02*
X15752500Y-6475000D01*
X15827500Y-6325000D02*
X15827500Y-6475000D01*
X15752500Y-6400000D02*
X15902500Y-6400000D01*
X15752500Y-10035000D02*
X15902500Y-10185000D01*
X15902500Y-10035000D02*
X15752500Y-10185000D01*
X15827500Y-10035000D02*
X15827500Y-10185000D01*
X15752500Y-10110000D02*
X15902500Y-10110000D01*
X5285994Y-5285994D02*
X5636006Y-5636006D01*
X5636006Y-5285994D02*
X5285994Y-5636006D01*
X5584749Y-5584749D02*
X5584749Y-5337251D01*
X5337251Y-5337251D01*
X5337251Y-5584749D01*
X5584749Y-5584749D01*
X5285994Y-10873994D02*
X5636006Y-11224006D01*
X5636006Y-10873994D02*
X5285994Y-11224006D01*
X5584749Y-11172749D02*
X5584749Y-10925251D01*
X5337251Y-10925251D01*
X5337251Y-11172749D01*
X5584749Y-11172749D01*
X11889994Y-5285994D02*
X12240006Y-5636006D01*
X12240006Y-5285994D02*
X11889994Y-5636006D01*
X12188749Y-5584749D02*
X12188749Y-5337251D01*
X11941251Y-5337251D01*
X11941251Y-5584749D01*
X12188749Y-5584749D01*
X11889994Y-10873994D02*
X12240006Y-11224006D01*
X12240006Y-10873994D02*
X11889994Y-11224006D01*
X12188749Y-11172749D02*
X12188749Y-10925251D01*
X11941251Y-10925251D01*
X11941251Y-11172749D01*
X12188749Y-11172749D01*
X16842994Y-5285994D02*
X17193006Y-5636006D01*
X17193006Y-5285994D02*
X16842994Y-5636006D01*
X17141749Y-5584749D02*
X17141749Y-5337251D01*
X16894251Y-5337251D01*
X16894251Y-5584749D01*
X17141749Y-5584749D01*
X16842994Y-10873994D02*
X17193006Y-11224006D01*
X17193006Y-10873994D02*
X16842994Y-11224006D01*
X17141749Y-11172749D02*
X17141749Y-10925251D01*
X16894251Y-10925251D01*
X16894251Y-11172749D01*
X17141749Y-11172749D01*
D13*
X5282929Y-11964214D02*
X5282929Y-11664214D01*
X5354357Y-11664214D01*
X5397214Y-11678500D01*
X5425786Y-11707071D01*
X5440071Y-11735643D01*
X5454357Y-11792786D01*
X5454357Y-11835643D01*
X5440071Y-11892786D01*
X5425786Y-11921357D01*
X5397214Y-11949929D01*
X5354357Y-11964214D01*
X5282929Y-11964214D01*
X5582929Y-11964214D02*
X5582929Y-11764214D01*
X5582929Y-11821357D02*
X5597214Y-11792786D01*
X5611500Y-11778500D01*
X5640071Y-11764214D01*
X5668643Y-11764214D01*
X5768643Y-11964214D02*
X5768643Y-11764214D01*
X5768643Y-11664214D02*
X5754357Y-11678500D01*
X5768643Y-11692786D01*
X5782928Y-11678500D01*
X5768643Y-11664214D01*
X5768643Y-11692786D01*
X5954357Y-11964214D02*
X5925786Y-11949929D01*
X5911500Y-11921357D01*
X5911500Y-11664214D01*
X6111500Y-11964214D02*
X6082928Y-11949929D01*
X6068643Y-11921357D01*
X6068643Y-11664214D01*
X6454357Y-11964214D02*
X6454357Y-11664214D01*
X6554357Y-11878500D01*
X6654357Y-11664214D01*
X6654357Y-11964214D01*
X6925786Y-11964214D02*
X6925786Y-11807071D01*
X6911500Y-11778500D01*
X6882928Y-11764214D01*
X6825786Y-11764214D01*
X6797214Y-11778500D01*
X6925786Y-11949929D02*
X6897214Y-11964214D01*
X6825786Y-11964214D01*
X6797214Y-11949929D01*
X6782928Y-11921357D01*
X6782928Y-11892786D01*
X6797214Y-11864214D01*
X6825786Y-11849929D01*
X6897214Y-11849929D01*
X6925786Y-11835643D01*
X7068643Y-11764214D02*
X7068643Y-12064214D01*
X7068643Y-11778500D02*
X7097214Y-11764214D01*
X7154357Y-11764214D01*
X7182928Y-11778500D01*
X7197214Y-11792786D01*
X7211500Y-11821357D01*
X7211500Y-11907071D01*
X7197214Y-11935643D01*
X7182928Y-11949929D01*
X7154357Y-11964214D01*
X7097214Y-11964214D01*
X7068643Y-11949929D01*
X7340071Y-11935643D02*
X7354357Y-11949929D01*
X7340071Y-11964214D01*
X7325786Y-11949929D01*
X7340071Y-11935643D01*
X7340071Y-11964214D01*
X7340071Y-11778500D02*
X7354357Y-11792786D01*
X7340071Y-11807071D01*
X7325786Y-11792786D01*
X7340071Y-11778500D01*
X7340071Y-11807071D01*
X4966500Y-12436000D02*
X5011500Y-12481000D01*
X5011500Y-12436000D02*
X4966500Y-12481000D01*
X5340071Y-12294214D02*
X5368643Y-12294214D01*
X5397214Y-12308500D01*
X5411500Y-12322786D01*
X5425786Y-12351357D01*
X5440071Y-12408500D01*
X5440071Y-12479929D01*
X5425786Y-12537071D01*
X5411500Y-12565643D01*
X5397214Y-12579929D01*
X5368643Y-12594214D01*
X5340071Y-12594214D01*
X5311500Y-12579929D01*
X5297214Y-12565643D01*
X5282929Y-12537071D01*
X5268643Y-12479929D01*
X5268643Y-12408500D01*
X5282929Y-12351357D01*
X5297214Y-12322786D01*
X5311500Y-12308500D01*
X5340071Y-12294214D01*
X5568643Y-12565643D02*
X5582929Y-12579929D01*
X5568643Y-12594214D01*
X5554357Y-12579929D01*
X5568643Y-12565643D01*
X5568643Y-12594214D01*
X5840071Y-12394214D02*
X5840071Y-12594214D01*
X5768643Y-12279929D02*
X5697214Y-12494214D01*
X5882928Y-12494214D01*
X6140071Y-12294214D02*
X5997214Y-12294214D01*
X5982928Y-12437071D01*
X5997214Y-12422786D01*
X6025786Y-12408500D01*
X6097214Y-12408500D01*
X6125786Y-12422786D01*
X6140071Y-12437071D01*
X6154357Y-12465643D01*
X6154357Y-12537071D01*
X6140071Y-12565643D01*
X6125786Y-12579929D01*
X6097214Y-12594214D01*
X6025786Y-12594214D01*
X5997214Y-12579929D01*
X5982928Y-12565643D01*
X6282928Y-12594214D02*
X6282928Y-12394214D01*
X6282928Y-12422786D02*
X6297214Y-12408500D01*
X6325786Y-12394214D01*
X6368643Y-12394214D01*
X6397214Y-12408500D01*
X6411500Y-12437071D01*
X6411500Y-12594214D01*
X6411500Y-12437071D02*
X6425786Y-12408500D01*
X6454357Y-12394214D01*
X6497214Y-12394214D01*
X6525786Y-12408500D01*
X6540071Y-12437071D01*
X6540071Y-12594214D01*
X6682928Y-12594214D02*
X6682928Y-12394214D01*
X6682928Y-12422786D02*
X6697214Y-12408500D01*
X6725786Y-12394214D01*
X6768643Y-12394214D01*
X6797214Y-12408500D01*
X6811500Y-12437071D01*
X6811500Y-12594214D01*
X6811500Y-12437071D02*
X6825786Y-12408500D01*
X6854357Y-12394214D01*
X6897214Y-12394214D01*
X6925786Y-12408500D01*
X6940071Y-12437071D01*
X6940071Y-12594214D01*
X7525786Y-12279929D02*
X7268643Y-12665643D01*
X7911500Y-12294214D02*
X7940071Y-12294214D01*
X7968643Y-12308500D01*
X7982928Y-12322786D01*
X7997214Y-12351357D01*
X8011500Y-12408500D01*
X8011500Y-12479929D01*
X7997214Y-12537071D01*
X7982928Y-12565643D01*
X7968643Y-12579929D01*
X7940071Y-12594214D01*
X7911500Y-12594214D01*
X7882928Y-12579929D01*
X7868643Y-12565643D01*
X7854357Y-12537071D01*
X7840071Y-12479929D01*
X7840071Y-12408500D01*
X7854357Y-12351357D01*
X7868643Y-12322786D01*
X7882928Y-12308500D01*
X7911500Y-12294214D01*
X8140071Y-12565643D02*
X8154357Y-12579929D01*
X8140071Y-12594214D01*
X8125786Y-12579929D01*
X8140071Y-12565643D01*
X8140071Y-12594214D01*
X8340071Y-12294214D02*
X8368643Y-12294214D01*
X8397214Y-12308500D01*
X8411500Y-12322786D01*
X8425786Y-12351357D01*
X8440071Y-12408500D01*
X8440071Y-12479929D01*
X8425786Y-12537071D01*
X8411500Y-12565643D01*
X8397214Y-12579929D01*
X8368643Y-12594214D01*
X8340071Y-12594214D01*
X8311500Y-12579929D01*
X8297214Y-12565643D01*
X8282928Y-12537071D01*
X8268643Y-12479929D01*
X8268643Y-12408500D01*
X8282928Y-12351357D01*
X8297214Y-12322786D01*
X8311500Y-12308500D01*
X8340071Y-12294214D01*
X8725786Y-12594214D02*
X8554357Y-12594214D01*
X8640071Y-12594214D02*
X8640071Y-12294214D01*
X8611500Y-12337071D01*
X8582928Y-12365643D01*
X8554357Y-12379929D01*
X8897214Y-12422786D02*
X8868643Y-12408500D01*
X8854357Y-12394214D01*
X8840071Y-12365643D01*
X8840071Y-12351357D01*
X8854357Y-12322786D01*
X8868643Y-12308500D01*
X8897214Y-12294214D01*
X8954357Y-12294214D01*
X8982928Y-12308500D01*
X8997214Y-12322786D01*
X9011500Y-12351357D01*
X9011500Y-12365643D01*
X8997214Y-12394214D01*
X8982928Y-12408500D01*
X8954357Y-12422786D01*
X8897214Y-12422786D01*
X8868643Y-12437071D01*
X8854357Y-12451357D01*
X8840071Y-12479929D01*
X8840071Y-12537071D01*
X8854357Y-12565643D01*
X8868643Y-12579929D01*
X8897214Y-12594214D01*
X8954357Y-12594214D01*
X8982928Y-12579929D01*
X8997214Y-12565643D01*
X9011500Y-12537071D01*
X9011500Y-12479929D01*
X8997214Y-12451357D01*
X8982928Y-12437071D01*
X8954357Y-12422786D01*
X9125786Y-12294214D02*
X9125786Y-12351357D01*
X9240071Y-12294214D02*
X9240071Y-12351357D01*
X9682928Y-12708500D02*
X9668643Y-12694214D01*
X9640071Y-12651357D01*
X9625786Y-12622786D01*
X9611500Y-12579929D01*
X9597214Y-12508500D01*
X9597214Y-12451357D01*
X9611500Y-12379929D01*
X9625786Y-12337071D01*
X9640071Y-12308500D01*
X9668643Y-12265643D01*
X9682928Y-12251357D01*
X9768643Y-12294214D02*
X9968643Y-12294214D01*
X9840071Y-12594214D01*
X10225786Y-12294214D02*
X10082928Y-12294214D01*
X10068643Y-12437071D01*
X10082928Y-12422786D01*
X10111500Y-12408500D01*
X10182928Y-12408500D01*
X10211500Y-12422786D01*
X10225786Y-12437071D01*
X10240071Y-12465643D01*
X10240071Y-12537071D01*
X10225786Y-12565643D01*
X10211500Y-12579929D01*
X10182928Y-12594214D01*
X10111500Y-12594214D01*
X10082928Y-12579929D01*
X10068643Y-12565643D01*
X10597214Y-12594214D02*
X10597214Y-12294214D01*
X10725786Y-12594214D02*
X10725786Y-12437071D01*
X10711500Y-12408500D01*
X10682928Y-12394214D01*
X10640071Y-12394214D01*
X10611500Y-12408500D01*
X10597214Y-12422786D01*
X10911500Y-12594214D02*
X10882928Y-12579929D01*
X10868643Y-12565643D01*
X10854357Y-12537071D01*
X10854357Y-12451357D01*
X10868643Y-12422786D01*
X10882928Y-12408500D01*
X10911500Y-12394214D01*
X10954357Y-12394214D01*
X10982928Y-12408500D01*
X10997214Y-12422786D01*
X11011500Y-12451357D01*
X11011500Y-12537071D01*
X10997214Y-12565643D01*
X10982928Y-12579929D01*
X10954357Y-12594214D01*
X10911500Y-12594214D01*
X11182928Y-12594214D02*
X11154357Y-12579929D01*
X11140071Y-12551357D01*
X11140071Y-12294214D01*
X11411500Y-12579929D02*
X11382928Y-12594214D01*
X11325786Y-12594214D01*
X11297214Y-12579929D01*
X11282928Y-12551357D01*
X11282928Y-12437071D01*
X11297214Y-12408500D01*
X11325786Y-12394214D01*
X11382928Y-12394214D01*
X11411500Y-12408500D01*
X11425786Y-12437071D01*
X11425786Y-12465643D01*
X11282928Y-12494214D01*
X11540071Y-12579929D02*
X11568643Y-12594214D01*
X11625786Y-12594214D01*
X11654357Y-12579929D01*
X11668643Y-12551357D01*
X11668643Y-12537071D01*
X11654357Y-12508500D01*
X11625786Y-12494214D01*
X11582928Y-12494214D01*
X11554357Y-12479929D01*
X11540071Y-12451357D01*
X11540071Y-12437071D01*
X11554357Y-12408500D01*
X11582928Y-12394214D01*
X11625786Y-12394214D01*
X11654357Y-12408500D01*
X11768643Y-12708500D02*
X11782928Y-12694214D01*
X11811500Y-12651357D01*
X11825786Y-12622786D01*
X11840071Y-12579929D01*
X11854357Y-12508500D01*
X11854357Y-12451357D01*
X11840071Y-12379929D01*
X11825786Y-12337071D01*
X11811500Y-12308500D01*
X11782928Y-12265643D01*
X11768643Y-12251357D01*
X5011500Y-12854500D02*
G75*
G03X5011500Y-12854500I-40005J0D01*
G01*
X5340071Y-12690214D02*
X5368643Y-12690214D01*
X5397214Y-12704500D01*
X5411500Y-12718786D01*
X5425786Y-12747357D01*
X5440071Y-12804500D01*
X5440071Y-12875929D01*
X5425786Y-12933071D01*
X5411500Y-12961643D01*
X5397214Y-12975929D01*
X5368643Y-12990214D01*
X5340071Y-12990214D01*
X5311500Y-12975929D01*
X5297214Y-12961643D01*
X5282929Y-12933071D01*
X5268643Y-12875929D01*
X5268643Y-12804500D01*
X5282929Y-12747357D01*
X5297214Y-12718786D01*
X5311500Y-12704500D01*
X5340071Y-12690214D01*
X5568643Y-12961643D02*
X5582929Y-12975929D01*
X5568643Y-12990214D01*
X5554357Y-12975929D01*
X5568643Y-12961643D01*
X5568643Y-12990214D01*
X5754357Y-12818786D02*
X5725786Y-12804500D01*
X5711500Y-12790214D01*
X5697214Y-12761643D01*
X5697214Y-12747357D01*
X5711500Y-12718786D01*
X5725786Y-12704500D01*
X5754357Y-12690214D01*
X5811500Y-12690214D01*
X5840071Y-12704500D01*
X5854357Y-12718786D01*
X5868643Y-12747357D01*
X5868643Y-12761643D01*
X5854357Y-12790214D01*
X5840071Y-12804500D01*
X5811500Y-12818786D01*
X5754357Y-12818786D01*
X5725786Y-12833071D01*
X5711500Y-12847357D01*
X5697214Y-12875929D01*
X5697214Y-12933071D01*
X5711500Y-12961643D01*
X5725786Y-12975929D01*
X5754357Y-12990214D01*
X5811500Y-12990214D01*
X5840071Y-12975929D01*
X5854357Y-12961643D01*
X5868643Y-12933071D01*
X5868643Y-12875929D01*
X5854357Y-12847357D01*
X5840071Y-12833071D01*
X5811500Y-12818786D01*
X6054357Y-12690214D02*
X6082928Y-12690214D01*
X6111500Y-12704500D01*
X6125786Y-12718786D01*
X6140071Y-12747357D01*
X6154357Y-12804500D01*
X6154357Y-12875929D01*
X6140071Y-12933071D01*
X6125786Y-12961643D01*
X6111500Y-12975929D01*
X6082928Y-12990214D01*
X6054357Y-12990214D01*
X6025786Y-12975929D01*
X6011500Y-12961643D01*
X5997214Y-12933071D01*
X5982928Y-12875929D01*
X5982928Y-12804500D01*
X5997214Y-12747357D01*
X6011500Y-12718786D01*
X6025786Y-12704500D01*
X6054357Y-12690214D01*
X6282928Y-12990214D02*
X6282928Y-12790214D01*
X6282928Y-12818786D02*
X6297214Y-12804500D01*
X6325786Y-12790214D01*
X6368643Y-12790214D01*
X6397214Y-12804500D01*
X6411500Y-12833071D01*
X6411500Y-12990214D01*
X6411500Y-12833071D02*
X6425786Y-12804500D01*
X6454357Y-12790214D01*
X6497214Y-12790214D01*
X6525786Y-12804500D01*
X6540071Y-12833071D01*
X6540071Y-12990214D01*
X6682928Y-12990214D02*
X6682928Y-12790214D01*
X6682928Y-12818786D02*
X6697214Y-12804500D01*
X6725786Y-12790214D01*
X6768643Y-12790214D01*
X6797214Y-12804500D01*
X6811500Y-12833071D01*
X6811500Y-12990214D01*
X6811500Y-12833071D02*
X6825786Y-12804500D01*
X6854357Y-12790214D01*
X6897214Y-12790214D01*
X6925786Y-12804500D01*
X6940071Y-12833071D01*
X6940071Y-12990214D01*
X7525786Y-12675929D02*
X7268643Y-13061643D01*
X7911500Y-12690214D02*
X7940071Y-12690214D01*
X7968643Y-12704500D01*
X7982928Y-12718786D01*
X7997214Y-12747357D01*
X8011500Y-12804500D01*
X8011500Y-12875929D01*
X7997214Y-12933071D01*
X7982928Y-12961643D01*
X7968643Y-12975929D01*
X7940071Y-12990214D01*
X7911500Y-12990214D01*
X7882928Y-12975929D01*
X7868643Y-12961643D01*
X7854357Y-12933071D01*
X7840071Y-12875929D01*
X7840071Y-12804500D01*
X7854357Y-12747357D01*
X7868643Y-12718786D01*
X7882928Y-12704500D01*
X7911500Y-12690214D01*
X8140071Y-12961643D02*
X8154357Y-12975929D01*
X8140071Y-12990214D01*
X8125786Y-12975929D01*
X8140071Y-12961643D01*
X8140071Y-12990214D01*
X8340071Y-12690214D02*
X8368643Y-12690214D01*
X8397214Y-12704500D01*
X8411500Y-12718786D01*
X8425786Y-12747357D01*
X8440071Y-12804500D01*
X8440071Y-12875929D01*
X8425786Y-12933071D01*
X8411500Y-12961643D01*
X8397214Y-12975929D01*
X8368643Y-12990214D01*
X8340071Y-12990214D01*
X8311500Y-12975929D01*
X8297214Y-12961643D01*
X8282928Y-12933071D01*
X8268643Y-12875929D01*
X8268643Y-12804500D01*
X8282928Y-12747357D01*
X8297214Y-12718786D01*
X8311500Y-12704500D01*
X8340071Y-12690214D01*
X8540071Y-12690214D02*
X8725786Y-12690214D01*
X8625786Y-12804500D01*
X8668643Y-12804500D01*
X8697214Y-12818786D01*
X8711500Y-12833071D01*
X8725786Y-12861643D01*
X8725786Y-12933071D01*
X8711500Y-12961643D01*
X8697214Y-12975929D01*
X8668643Y-12990214D01*
X8582928Y-12990214D01*
X8554357Y-12975929D01*
X8540071Y-12961643D01*
X8840071Y-12718786D02*
X8854357Y-12704500D01*
X8882928Y-12690214D01*
X8954357Y-12690214D01*
X8982928Y-12704500D01*
X8997214Y-12718786D01*
X9011500Y-12747357D01*
X9011500Y-12775929D01*
X8997214Y-12818786D01*
X8825786Y-12990214D01*
X9011500Y-12990214D01*
X9125786Y-12690214D02*
X9125786Y-12747357D01*
X9240071Y-12690214D02*
X9240071Y-12747357D01*
X9682928Y-13104500D02*
X9668643Y-13090214D01*
X9640071Y-13047357D01*
X9625786Y-13018786D01*
X9611500Y-12975929D01*
X9597214Y-12904500D01*
X9597214Y-12847357D01*
X9611500Y-12775929D01*
X9625786Y-12733071D01*
X9640071Y-12704500D01*
X9668643Y-12661643D01*
X9682928Y-12647357D01*
X9782928Y-12718786D02*
X9797214Y-12704500D01*
X9825786Y-12690214D01*
X9897214Y-12690214D01*
X9925786Y-12704500D01*
X9940071Y-12718786D01*
X9954357Y-12747357D01*
X9954357Y-12775929D01*
X9940071Y-12818786D01*
X9768643Y-12990214D01*
X9954357Y-12990214D01*
X10311500Y-12990214D02*
X10311500Y-12690214D01*
X10440071Y-12990214D02*
X10440071Y-12833071D01*
X10425786Y-12804500D01*
X10397214Y-12790214D01*
X10354357Y-12790214D01*
X10325786Y-12804500D01*
X10311500Y-12818786D01*
X10625786Y-12990214D02*
X10597214Y-12975929D01*
X10582928Y-12961643D01*
X10568643Y-12933071D01*
X10568643Y-12847357D01*
X10582928Y-12818786D01*
X10597214Y-12804500D01*
X10625786Y-12790214D01*
X10668643Y-12790214D01*
X10697214Y-12804500D01*
X10711500Y-12818786D01*
X10725786Y-12847357D01*
X10725786Y-12933071D01*
X10711500Y-12961643D01*
X10697214Y-12975929D01*
X10668643Y-12990214D01*
X10625786Y-12990214D01*
X10897214Y-12990214D02*
X10868643Y-12975929D01*
X10854357Y-12947357D01*
X10854357Y-12690214D01*
X11125786Y-12975929D02*
X11097214Y-12990214D01*
X11040071Y-12990214D01*
X11011500Y-12975929D01*
X10997214Y-12947357D01*
X10997214Y-12833071D01*
X11011500Y-12804500D01*
X11040071Y-12790214D01*
X11097214Y-12790214D01*
X11125786Y-12804500D01*
X11140071Y-12833071D01*
X11140071Y-12861643D01*
X10997214Y-12890214D01*
X11254357Y-12975929D02*
X11282928Y-12990214D01*
X11340071Y-12990214D01*
X11368643Y-12975929D01*
X11382928Y-12947357D01*
X11382928Y-12933071D01*
X11368643Y-12904500D01*
X11340071Y-12890214D01*
X11297214Y-12890214D01*
X11268643Y-12875929D01*
X11254357Y-12847357D01*
X11254357Y-12833071D01*
X11268643Y-12804500D01*
X11297214Y-12790214D01*
X11340071Y-12790214D01*
X11368643Y-12804500D01*
X11482928Y-13104500D02*
X11497214Y-13090214D01*
X11525786Y-13047357D01*
X11540071Y-13018786D01*
X11554357Y-12975929D01*
X11568643Y-12904500D01*
X11568643Y-12847357D01*
X11554357Y-12775929D01*
X11540071Y-12733071D01*
X11525786Y-12704500D01*
X11497214Y-12661643D01*
X11482928Y-12647357D01*
X4966500Y-13205500D02*
X4966500Y-13295500D01*
X4921500Y-13250500D02*
X5011500Y-13250500D01*
X5340071Y-13086214D02*
X5368643Y-13086214D01*
X5397214Y-13100500D01*
X5411500Y-13114786D01*
X5425786Y-13143357D01*
X5440071Y-13200500D01*
X5440071Y-13271929D01*
X5425786Y-13329071D01*
X5411500Y-13357643D01*
X5397214Y-13371929D01*
X5368643Y-13386214D01*
X5340071Y-13386214D01*
X5311500Y-13371929D01*
X5297214Y-13357643D01*
X5282929Y-13329071D01*
X5268643Y-13271929D01*
X5268643Y-13200500D01*
X5282929Y-13143357D01*
X5297214Y-13114786D01*
X5311500Y-13100500D01*
X5340071Y-13086214D01*
X5568643Y-13357643D02*
X5582929Y-13371929D01*
X5568643Y-13386214D01*
X5554357Y-13371929D01*
X5568643Y-13357643D01*
X5568643Y-13386214D01*
X5725786Y-13386214D02*
X5782928Y-13386214D01*
X5811500Y-13371929D01*
X5825786Y-13357643D01*
X5854357Y-13314786D01*
X5868643Y-13257643D01*
X5868643Y-13143357D01*
X5854357Y-13114786D01*
X5840071Y-13100500D01*
X5811500Y-13086214D01*
X5754357Y-13086214D01*
X5725786Y-13100500D01*
X5711500Y-13114786D01*
X5697214Y-13143357D01*
X5697214Y-13214786D01*
X5711500Y-13243357D01*
X5725786Y-13257643D01*
X5754357Y-13271929D01*
X5811500Y-13271929D01*
X5840071Y-13257643D01*
X5854357Y-13243357D01*
X5868643Y-13214786D01*
X6054357Y-13086214D02*
X6082928Y-13086214D01*
X6111500Y-13100500D01*
X6125786Y-13114786D01*
X6140071Y-13143357D01*
X6154357Y-13200500D01*
X6154357Y-13271929D01*
X6140071Y-13329071D01*
X6125786Y-13357643D01*
X6111500Y-13371929D01*
X6082928Y-13386214D01*
X6054357Y-13386214D01*
X6025786Y-13371929D01*
X6011500Y-13357643D01*
X5997214Y-13329071D01*
X5982928Y-13271929D01*
X5982928Y-13200500D01*
X5997214Y-13143357D01*
X6011500Y-13114786D01*
X6025786Y-13100500D01*
X6054357Y-13086214D01*
X6282928Y-13386214D02*
X6282928Y-13186214D01*
X6282928Y-13214786D02*
X6297214Y-13200500D01*
X6325786Y-13186214D01*
X6368643Y-13186214D01*
X6397214Y-13200500D01*
X6411500Y-13229071D01*
X6411500Y-13386214D01*
X6411500Y-13229071D02*
X6425786Y-13200500D01*
X6454357Y-13186214D01*
X6497214Y-13186214D01*
X6525786Y-13200500D01*
X6540071Y-13229071D01*
X6540071Y-13386214D01*
X6682928Y-13386214D02*
X6682928Y-13186214D01*
X6682928Y-13214786D02*
X6697214Y-13200500D01*
X6725786Y-13186214D01*
X6768643Y-13186214D01*
X6797214Y-13200500D01*
X6811500Y-13229071D01*
X6811500Y-13386214D01*
X6811500Y-13229071D02*
X6825786Y-13200500D01*
X6854357Y-13186214D01*
X6897214Y-13186214D01*
X6925786Y-13200500D01*
X6940071Y-13229071D01*
X6940071Y-13386214D01*
X7525786Y-13071929D02*
X7268643Y-13457643D01*
X7911500Y-13086214D02*
X7940071Y-13086214D01*
X7968643Y-13100500D01*
X7982928Y-13114786D01*
X7997214Y-13143357D01*
X8011500Y-13200500D01*
X8011500Y-13271929D01*
X7997214Y-13329071D01*
X7982928Y-13357643D01*
X7968643Y-13371929D01*
X7940071Y-13386214D01*
X7911500Y-13386214D01*
X7882928Y-13371929D01*
X7868643Y-13357643D01*
X7854357Y-13329071D01*
X7840071Y-13271929D01*
X7840071Y-13200500D01*
X7854357Y-13143357D01*
X7868643Y-13114786D01*
X7882928Y-13100500D01*
X7911500Y-13086214D01*
X8140071Y-13357643D02*
X8154357Y-13371929D01*
X8140071Y-13386214D01*
X8125786Y-13371929D01*
X8140071Y-13357643D01*
X8140071Y-13386214D01*
X8340071Y-13086214D02*
X8368643Y-13086214D01*
X8397214Y-13100500D01*
X8411500Y-13114786D01*
X8425786Y-13143357D01*
X8440071Y-13200500D01*
X8440071Y-13271929D01*
X8425786Y-13329071D01*
X8411500Y-13357643D01*
X8397214Y-13371929D01*
X8368643Y-13386214D01*
X8340071Y-13386214D01*
X8311500Y-13371929D01*
X8297214Y-13357643D01*
X8282928Y-13329071D01*
X8268643Y-13271929D01*
X8268643Y-13200500D01*
X8282928Y-13143357D01*
X8297214Y-13114786D01*
X8311500Y-13100500D01*
X8340071Y-13086214D01*
X8540071Y-13086214D02*
X8725786Y-13086214D01*
X8625786Y-13200500D01*
X8668643Y-13200500D01*
X8697214Y-13214786D01*
X8711500Y-13229071D01*
X8725786Y-13257643D01*
X8725786Y-13329071D01*
X8711500Y-13357643D01*
X8697214Y-13371929D01*
X8668643Y-13386214D01*
X8582928Y-13386214D01*
X8554357Y-13371929D01*
X8540071Y-13357643D01*
X8997214Y-13086214D02*
X8854357Y-13086214D01*
X8840071Y-13229071D01*
X8854357Y-13214786D01*
X8882928Y-13200500D01*
X8954357Y-13200500D01*
X8982928Y-13214786D01*
X8997214Y-13229071D01*
X9011500Y-13257643D01*
X9011500Y-13329071D01*
X8997214Y-13357643D01*
X8982928Y-13371929D01*
X8954357Y-13386214D01*
X8882928Y-13386214D01*
X8854357Y-13371929D01*
X8840071Y-13357643D01*
X9125786Y-13086214D02*
X9125786Y-13143357D01*
X9240071Y-13086214D02*
X9240071Y-13143357D01*
X9682928Y-13500500D02*
X9668643Y-13486214D01*
X9640071Y-13443357D01*
X9625786Y-13414786D01*
X9611500Y-13371929D01*
X9597214Y-13300500D01*
X9597214Y-13243357D01*
X9611500Y-13171929D01*
X9625786Y-13129071D01*
X9640071Y-13100500D01*
X9668643Y-13057643D01*
X9682928Y-13043357D01*
X9782928Y-13114786D02*
X9797214Y-13100500D01*
X9825786Y-13086214D01*
X9897214Y-13086214D01*
X9925786Y-13100500D01*
X9940071Y-13114786D01*
X9954357Y-13143357D01*
X9954357Y-13171929D01*
X9940071Y-13214786D01*
X9768643Y-13386214D01*
X9954357Y-13386214D01*
X10311500Y-13386214D02*
X10311500Y-13086214D01*
X10440071Y-13386214D02*
X10440071Y-13229071D01*
X10425786Y-13200500D01*
X10397214Y-13186214D01*
X10354357Y-13186214D01*
X10325786Y-13200500D01*
X10311500Y-13214786D01*
X10625786Y-13386214D02*
X10597214Y-13371929D01*
X10582928Y-13357643D01*
X10568643Y-13329071D01*
X10568643Y-13243357D01*
X10582928Y-13214786D01*
X10597214Y-13200500D01*
X10625786Y-13186214D01*
X10668643Y-13186214D01*
X10697214Y-13200500D01*
X10711500Y-13214786D01*
X10725786Y-13243357D01*
X10725786Y-13329071D01*
X10711500Y-13357643D01*
X10697214Y-13371929D01*
X10668643Y-13386214D01*
X10625786Y-13386214D01*
X10897214Y-13386214D02*
X10868643Y-13371929D01*
X10854357Y-13343357D01*
X10854357Y-13086214D01*
X11125786Y-13371929D02*
X11097214Y-13386214D01*
X11040071Y-13386214D01*
X11011500Y-13371929D01*
X10997214Y-13343357D01*
X10997214Y-13229071D01*
X11011500Y-13200500D01*
X11040071Y-13186214D01*
X11097214Y-13186214D01*
X11125786Y-13200500D01*
X11140071Y-13229071D01*
X11140071Y-13257643D01*
X10997214Y-13286214D01*
X11254357Y-13371929D02*
X11282928Y-13386214D01*
X11340071Y-13386214D01*
X11368643Y-13371929D01*
X11382928Y-13343357D01*
X11382928Y-13329071D01*
X11368643Y-13300500D01*
X11340071Y-13286214D01*
X11297214Y-13286214D01*
X11268643Y-13271929D01*
X11254357Y-13243357D01*
X11254357Y-13229071D01*
X11268643Y-13200500D01*
X11297214Y-13186214D01*
X11340071Y-13186214D01*
X11368643Y-13200500D01*
X11482928Y-13500500D02*
X11497214Y-13486214D01*
X11525786Y-13443357D01*
X11540071Y-13414786D01*
X11554357Y-13371929D01*
X11568643Y-13300500D01*
X11568643Y-13243357D01*
X11554357Y-13171929D01*
X11540071Y-13129071D01*
X11525786Y-13100500D01*
X11497214Y-13057643D01*
X11482928Y-13043357D01*
X4996856Y-13681856D02*
X4996856Y-13611144D01*
X4926144Y-13611144D01*
X4926144Y-13681856D01*
X4996856Y-13681856D01*
X5440071Y-13782214D02*
X5268643Y-13782214D01*
X5354357Y-13782214D02*
X5354357Y-13482214D01*
X5325786Y-13525071D01*
X5297214Y-13553643D01*
X5268643Y-13567929D01*
X5568643Y-13753643D02*
X5582929Y-13767929D01*
X5568643Y-13782214D01*
X5554357Y-13767929D01*
X5568643Y-13753643D01*
X5568643Y-13782214D01*
X5768643Y-13482214D02*
X5797214Y-13482214D01*
X5825786Y-13496500D01*
X5840071Y-13510786D01*
X5854357Y-13539357D01*
X5868643Y-13596500D01*
X5868643Y-13667929D01*
X5854357Y-13725071D01*
X5840071Y-13753643D01*
X5825786Y-13767929D01*
X5797214Y-13782214D01*
X5768643Y-13782214D01*
X5740071Y-13767929D01*
X5725786Y-13753643D01*
X5711500Y-13725071D01*
X5697214Y-13667929D01*
X5697214Y-13596500D01*
X5711500Y-13539357D01*
X5725786Y-13510786D01*
X5740071Y-13496500D01*
X5768643Y-13482214D01*
X6054357Y-13482214D02*
X6082928Y-13482214D01*
X6111500Y-13496500D01*
X6125786Y-13510786D01*
X6140071Y-13539357D01*
X6154357Y-13596500D01*
X6154357Y-13667929D01*
X6140071Y-13725071D01*
X6125786Y-13753643D01*
X6111500Y-13767929D01*
X6082928Y-13782214D01*
X6054357Y-13782214D01*
X6025786Y-13767929D01*
X6011500Y-13753643D01*
X5997214Y-13725071D01*
X5982928Y-13667929D01*
X5982928Y-13596500D01*
X5997214Y-13539357D01*
X6011500Y-13510786D01*
X6025786Y-13496500D01*
X6054357Y-13482214D01*
X6282928Y-13782214D02*
X6282928Y-13582214D01*
X6282928Y-13610786D02*
X6297214Y-13596500D01*
X6325786Y-13582214D01*
X6368643Y-13582214D01*
X6397214Y-13596500D01*
X6411500Y-13625071D01*
X6411500Y-13782214D01*
X6411500Y-13625071D02*
X6425786Y-13596500D01*
X6454357Y-13582214D01*
X6497214Y-13582214D01*
X6525786Y-13596500D01*
X6540071Y-13625071D01*
X6540071Y-13782214D01*
X6682928Y-13782214D02*
X6682928Y-13582214D01*
X6682928Y-13610786D02*
X6697214Y-13596500D01*
X6725786Y-13582214D01*
X6768643Y-13582214D01*
X6797214Y-13596500D01*
X6811500Y-13625071D01*
X6811500Y-13782214D01*
X6811500Y-13625071D02*
X6825786Y-13596500D01*
X6854357Y-13582214D01*
X6897214Y-13582214D01*
X6925786Y-13596500D01*
X6940071Y-13625071D01*
X6940071Y-13782214D01*
X7525786Y-13467929D02*
X7268643Y-13853643D01*
X7911500Y-13482214D02*
X7940071Y-13482214D01*
X7968643Y-13496500D01*
X7982928Y-13510786D01*
X7997214Y-13539357D01*
X8011500Y-13596500D01*
X8011500Y-13667929D01*
X7997214Y-13725071D01*
X7982928Y-13753643D01*
X7968643Y-13767929D01*
X7940071Y-13782214D01*
X7911500Y-13782214D01*
X7882928Y-13767929D01*
X7868643Y-13753643D01*
X7854357Y-13725071D01*
X7840071Y-13667929D01*
X7840071Y-13596500D01*
X7854357Y-13539357D01*
X7868643Y-13510786D01*
X7882928Y-13496500D01*
X7911500Y-13482214D01*
X8140071Y-13753643D02*
X8154357Y-13767929D01*
X8140071Y-13782214D01*
X8125786Y-13767929D01*
X8140071Y-13753643D01*
X8140071Y-13782214D01*
X8340071Y-13482214D02*
X8368643Y-13482214D01*
X8397214Y-13496500D01*
X8411500Y-13510786D01*
X8425786Y-13539357D01*
X8440071Y-13596500D01*
X8440071Y-13667929D01*
X8425786Y-13725071D01*
X8411500Y-13753643D01*
X8397214Y-13767929D01*
X8368643Y-13782214D01*
X8340071Y-13782214D01*
X8311500Y-13767929D01*
X8297214Y-13753643D01*
X8282928Y-13725071D01*
X8268643Y-13667929D01*
X8268643Y-13596500D01*
X8282928Y-13539357D01*
X8297214Y-13510786D01*
X8311500Y-13496500D01*
X8340071Y-13482214D01*
X8540071Y-13482214D02*
X8725786Y-13482214D01*
X8625786Y-13596500D01*
X8668643Y-13596500D01*
X8697214Y-13610786D01*
X8711500Y-13625071D01*
X8725786Y-13653643D01*
X8725786Y-13725071D01*
X8711500Y-13753643D01*
X8697214Y-13767929D01*
X8668643Y-13782214D01*
X8582928Y-13782214D01*
X8554357Y-13767929D01*
X8540071Y-13753643D01*
X8868643Y-13782214D02*
X8925786Y-13782214D01*
X8954357Y-13767929D01*
X8968643Y-13753643D01*
X8997214Y-13710786D01*
X9011500Y-13653643D01*
X9011500Y-13539357D01*
X8997214Y-13510786D01*
X8982928Y-13496500D01*
X8954357Y-13482214D01*
X8897214Y-13482214D01*
X8868643Y-13496500D01*
X8854357Y-13510786D01*
X8840071Y-13539357D01*
X8840071Y-13610786D01*
X8854357Y-13639357D01*
X8868643Y-13653643D01*
X8897214Y-13667929D01*
X8954357Y-13667929D01*
X8982928Y-13653643D01*
X8997214Y-13639357D01*
X9011500Y-13610786D01*
X9125786Y-13482214D02*
X9125786Y-13539357D01*
X9240071Y-13482214D02*
X9240071Y-13539357D01*
X9682928Y-13896500D02*
X9668643Y-13882214D01*
X9640071Y-13839357D01*
X9625786Y-13810786D01*
X9611500Y-13767929D01*
X9597214Y-13696500D01*
X9597214Y-13639357D01*
X9611500Y-13567929D01*
X9625786Y-13525071D01*
X9640071Y-13496500D01*
X9668643Y-13453643D01*
X9682928Y-13439357D01*
X9940071Y-13482214D02*
X9797214Y-13482214D01*
X9782928Y-13625071D01*
X9797214Y-13610786D01*
X9825786Y-13596500D01*
X9897214Y-13596500D01*
X9925786Y-13610786D01*
X9940071Y-13625071D01*
X9954357Y-13653643D01*
X9954357Y-13725071D01*
X9940071Y-13753643D01*
X9925786Y-13767929D01*
X9897214Y-13782214D01*
X9825786Y-13782214D01*
X9797214Y-13767929D01*
X9782928Y-13753643D01*
X10311500Y-13782214D02*
X10311500Y-13482214D01*
X10440071Y-13782214D02*
X10440071Y-13625071D01*
X10425786Y-13596500D01*
X10397214Y-13582214D01*
X10354357Y-13582214D01*
X10325786Y-13596500D01*
X10311500Y-13610786D01*
X10625786Y-13782214D02*
X10597214Y-13767929D01*
X10582928Y-13753643D01*
X10568643Y-13725071D01*
X10568643Y-13639357D01*
X10582928Y-13610786D01*
X10597214Y-13596500D01*
X10625786Y-13582214D01*
X10668643Y-13582214D01*
X10697214Y-13596500D01*
X10711500Y-13610786D01*
X10725786Y-13639357D01*
X10725786Y-13725071D01*
X10711500Y-13753643D01*
X10697214Y-13767929D01*
X10668643Y-13782214D01*
X10625786Y-13782214D01*
X10897214Y-13782214D02*
X10868643Y-13767929D01*
X10854357Y-13739357D01*
X10854357Y-13482214D01*
X11125786Y-13767929D02*
X11097214Y-13782214D01*
X11040071Y-13782214D01*
X11011500Y-13767929D01*
X10997214Y-13739357D01*
X10997214Y-13625071D01*
X11011500Y-13596500D01*
X11040071Y-13582214D01*
X11097214Y-13582214D01*
X11125786Y-13596500D01*
X11140071Y-13625071D01*
X11140071Y-13653643D01*
X10997214Y-13682214D01*
X11254357Y-13767929D02*
X11282928Y-13782214D01*
X11340071Y-13782214D01*
X11368643Y-13767929D01*
X11382928Y-13739357D01*
X11382928Y-13725071D01*
X11368643Y-13696500D01*
X11340071Y-13682214D01*
X11297214Y-13682214D01*
X11268643Y-13667929D01*
X11254357Y-13639357D01*
X11254357Y-13625071D01*
X11268643Y-13596500D01*
X11297214Y-13582214D01*
X11340071Y-13582214D01*
X11368643Y-13596500D01*
X11482928Y-13896500D02*
X11497214Y-13882214D01*
X11525786Y-13839357D01*
X11540071Y-13810786D01*
X11554357Y-13767929D01*
X11568643Y-13696500D01*
X11568643Y-13639357D01*
X11554357Y-13567929D01*
X11540071Y-13525071D01*
X11525786Y-13496500D01*
X11497214Y-13453643D01*
X11482928Y-13439357D01*
X4961462Y-14092538D02*
X5011500Y-14042500D01*
X4961462Y-13992462D01*
X4911424Y-14042500D01*
X4961462Y-14092538D01*
X5440071Y-14178214D02*
X5268643Y-14178214D01*
X5354357Y-14178214D02*
X5354357Y-13878214D01*
X5325786Y-13921071D01*
X5297214Y-13949643D01*
X5268643Y-13963929D01*
X5568643Y-14149643D02*
X5582929Y-14163929D01*
X5568643Y-14178214D01*
X5554357Y-14163929D01*
X5568643Y-14149643D01*
X5568643Y-14178214D01*
X5768643Y-13878214D02*
X5797214Y-13878214D01*
X5825786Y-13892500D01*
X5840071Y-13906786D01*
X5854357Y-13935357D01*
X5868643Y-13992500D01*
X5868643Y-14063929D01*
X5854357Y-14121071D01*
X5840071Y-14149643D01*
X5825786Y-14163929D01*
X5797214Y-14178214D01*
X5768643Y-14178214D01*
X5740071Y-14163929D01*
X5725786Y-14149643D01*
X5711500Y-14121071D01*
X5697214Y-14063929D01*
X5697214Y-13992500D01*
X5711500Y-13935357D01*
X5725786Y-13906786D01*
X5740071Y-13892500D01*
X5768643Y-13878214D01*
X6054357Y-13878214D02*
X6082928Y-13878214D01*
X6111500Y-13892500D01*
X6125786Y-13906786D01*
X6140071Y-13935357D01*
X6154357Y-13992500D01*
X6154357Y-14063929D01*
X6140071Y-14121071D01*
X6125786Y-14149643D01*
X6111500Y-14163929D01*
X6082928Y-14178214D01*
X6054357Y-14178214D01*
X6025786Y-14163929D01*
X6011500Y-14149643D01*
X5997214Y-14121071D01*
X5982928Y-14063929D01*
X5982928Y-13992500D01*
X5997214Y-13935357D01*
X6011500Y-13906786D01*
X6025786Y-13892500D01*
X6054357Y-13878214D01*
X6282928Y-14178214D02*
X6282928Y-13978214D01*
X6282928Y-14006786D02*
X6297214Y-13992500D01*
X6325786Y-13978214D01*
X6368643Y-13978214D01*
X6397214Y-13992500D01*
X6411500Y-14021071D01*
X6411500Y-14178214D01*
X6411500Y-14021071D02*
X6425786Y-13992500D01*
X6454357Y-13978214D01*
X6497214Y-13978214D01*
X6525786Y-13992500D01*
X6540071Y-14021071D01*
X6540071Y-14178214D01*
X6682928Y-14178214D02*
X6682928Y-13978214D01*
X6682928Y-14006786D02*
X6697214Y-13992500D01*
X6725786Y-13978214D01*
X6768643Y-13978214D01*
X6797214Y-13992500D01*
X6811500Y-14021071D01*
X6811500Y-14178214D01*
X6811500Y-14021071D02*
X6825786Y-13992500D01*
X6854357Y-13978214D01*
X6897214Y-13978214D01*
X6925786Y-13992500D01*
X6940071Y-14021071D01*
X6940071Y-14178214D01*
X7525786Y-13863929D02*
X7268643Y-14249643D01*
X7911500Y-13878214D02*
X7940071Y-13878214D01*
X7968643Y-13892500D01*
X7982928Y-13906786D01*
X7997214Y-13935357D01*
X8011500Y-13992500D01*
X8011500Y-14063929D01*
X7997214Y-14121071D01*
X7982928Y-14149643D01*
X7968643Y-14163929D01*
X7940071Y-14178214D01*
X7911500Y-14178214D01*
X7882928Y-14163929D01*
X7868643Y-14149643D01*
X7854357Y-14121071D01*
X7840071Y-14063929D01*
X7840071Y-13992500D01*
X7854357Y-13935357D01*
X7868643Y-13906786D01*
X7882928Y-13892500D01*
X7911500Y-13878214D01*
X8140071Y-14149643D02*
X8154357Y-14163929D01*
X8140071Y-14178214D01*
X8125786Y-14163929D01*
X8140071Y-14149643D01*
X8140071Y-14178214D01*
X8340071Y-13878214D02*
X8368643Y-13878214D01*
X8397214Y-13892500D01*
X8411500Y-13906786D01*
X8425786Y-13935357D01*
X8440071Y-13992500D01*
X8440071Y-14063929D01*
X8425786Y-14121071D01*
X8411500Y-14149643D01*
X8397214Y-14163929D01*
X8368643Y-14178214D01*
X8340071Y-14178214D01*
X8311500Y-14163929D01*
X8297214Y-14149643D01*
X8282928Y-14121071D01*
X8268643Y-14063929D01*
X8268643Y-13992500D01*
X8282928Y-13935357D01*
X8297214Y-13906786D01*
X8311500Y-13892500D01*
X8340071Y-13878214D01*
X8540071Y-13878214D02*
X8725786Y-13878214D01*
X8625786Y-13992500D01*
X8668643Y-13992500D01*
X8697214Y-14006786D01*
X8711500Y-14021071D01*
X8725786Y-14049643D01*
X8725786Y-14121071D01*
X8711500Y-14149643D01*
X8697214Y-14163929D01*
X8668643Y-14178214D01*
X8582928Y-14178214D01*
X8554357Y-14163929D01*
X8540071Y-14149643D01*
X8868643Y-14178214D02*
X8925786Y-14178214D01*
X8954357Y-14163929D01*
X8968643Y-14149643D01*
X8997214Y-14106786D01*
X9011500Y-14049643D01*
X9011500Y-13935357D01*
X8997214Y-13906786D01*
X8982928Y-13892500D01*
X8954357Y-13878214D01*
X8897214Y-13878214D01*
X8868643Y-13892500D01*
X8854357Y-13906786D01*
X8840071Y-13935357D01*
X8840071Y-14006786D01*
X8854357Y-14035357D01*
X8868643Y-14049643D01*
X8897214Y-14063929D01*
X8954357Y-14063929D01*
X8982928Y-14049643D01*
X8997214Y-14035357D01*
X9011500Y-14006786D01*
X9125786Y-13878214D02*
X9125786Y-13935357D01*
X9240071Y-13878214D02*
X9240071Y-13935357D01*
X9682928Y-14292500D02*
X9668643Y-14278214D01*
X9640071Y-14235357D01*
X9625786Y-14206786D01*
X9611500Y-14163929D01*
X9597214Y-14092500D01*
X9597214Y-14035357D01*
X9611500Y-13963929D01*
X9625786Y-13921071D01*
X9640071Y-13892500D01*
X9668643Y-13849643D01*
X9682928Y-13835357D01*
X9768643Y-13878214D02*
X9954357Y-13878214D01*
X9854357Y-13992500D01*
X9897214Y-13992500D01*
X9925786Y-14006786D01*
X9940071Y-14021071D01*
X9954357Y-14049643D01*
X9954357Y-14121071D01*
X9940071Y-14149643D01*
X9925786Y-14163929D01*
X9897214Y-14178214D01*
X9811500Y-14178214D01*
X9782928Y-14163929D01*
X9768643Y-14149643D01*
X10311500Y-14178214D02*
X10311500Y-13878214D01*
X10440071Y-14178214D02*
X10440071Y-14021071D01*
X10425786Y-13992500D01*
X10397214Y-13978214D01*
X10354357Y-13978214D01*
X10325786Y-13992500D01*
X10311500Y-14006786D01*
X10625786Y-14178214D02*
X10597214Y-14163929D01*
X10582928Y-14149643D01*
X10568643Y-14121071D01*
X10568643Y-14035357D01*
X10582928Y-14006786D01*
X10597214Y-13992500D01*
X10625786Y-13978214D01*
X10668643Y-13978214D01*
X10697214Y-13992500D01*
X10711500Y-14006786D01*
X10725786Y-14035357D01*
X10725786Y-14121071D01*
X10711500Y-14149643D01*
X10697214Y-14163929D01*
X10668643Y-14178214D01*
X10625786Y-14178214D01*
X10897214Y-14178214D02*
X10868643Y-14163929D01*
X10854357Y-14135357D01*
X10854357Y-13878214D01*
X11125786Y-14163929D02*
X11097214Y-14178214D01*
X11040071Y-14178214D01*
X11011500Y-14163929D01*
X10997214Y-14135357D01*
X10997214Y-14021071D01*
X11011500Y-13992500D01*
X11040071Y-13978214D01*
X11097214Y-13978214D01*
X11125786Y-13992500D01*
X11140071Y-14021071D01*
X11140071Y-14049643D01*
X10997214Y-14078214D01*
X11254357Y-14163929D02*
X11282928Y-14178214D01*
X11340071Y-14178214D01*
X11368643Y-14163929D01*
X11382928Y-14135357D01*
X11382928Y-14121071D01*
X11368643Y-14092500D01*
X11340071Y-14078214D01*
X11297214Y-14078214D01*
X11268643Y-14063929D01*
X11254357Y-14035357D01*
X11254357Y-14021071D01*
X11268643Y-13992500D01*
X11297214Y-13978214D01*
X11340071Y-13978214D01*
X11368643Y-13992500D01*
X11482928Y-14292500D02*
X11497214Y-14278214D01*
X11525786Y-14235357D01*
X11540071Y-14206786D01*
X11554357Y-14163929D01*
X11568643Y-14092500D01*
X11568643Y-14035357D01*
X11554357Y-13963929D01*
X11540071Y-13921071D01*
X11525786Y-13892500D01*
X11497214Y-13849643D01*
X11482928Y-13835357D01*
X4909900Y-14387700D02*
X5011500Y-14489300D01*
X5011500Y-14387700D02*
X4909900Y-14489300D01*
X5011500Y-14438500D02*
G75*
G03X5011500Y-14438500I-50800J0D01*
G01*
X5440071Y-14574214D02*
X5268643Y-14574214D01*
X5354357Y-14574214D02*
X5354357Y-14274214D01*
X5325786Y-14317071D01*
X5297214Y-14345643D01*
X5268643Y-14359929D01*
X5568643Y-14545643D02*
X5582929Y-14559929D01*
X5568643Y-14574214D01*
X5554357Y-14559929D01*
X5568643Y-14545643D01*
X5568643Y-14574214D01*
X5768643Y-14274214D02*
X5797214Y-14274214D01*
X5825786Y-14288500D01*
X5840071Y-14302786D01*
X5854357Y-14331357D01*
X5868643Y-14388500D01*
X5868643Y-14459929D01*
X5854357Y-14517071D01*
X5840071Y-14545643D01*
X5825786Y-14559929D01*
X5797214Y-14574214D01*
X5768643Y-14574214D01*
X5740071Y-14559929D01*
X5725786Y-14545643D01*
X5711500Y-14517071D01*
X5697214Y-14459929D01*
X5697214Y-14388500D01*
X5711500Y-14331357D01*
X5725786Y-14302786D01*
X5740071Y-14288500D01*
X5768643Y-14274214D01*
X5982928Y-14302786D02*
X5997214Y-14288500D01*
X6025786Y-14274214D01*
X6097214Y-14274214D01*
X6125786Y-14288500D01*
X6140071Y-14302786D01*
X6154357Y-14331357D01*
X6154357Y-14359929D01*
X6140071Y-14402786D01*
X5968643Y-14574214D01*
X6154357Y-14574214D01*
X6282928Y-14574214D02*
X6282928Y-14374214D01*
X6282928Y-14402786D02*
X6297214Y-14388500D01*
X6325786Y-14374214D01*
X6368643Y-14374214D01*
X6397214Y-14388500D01*
X6411500Y-14417071D01*
X6411500Y-14574214D01*
X6411500Y-14417071D02*
X6425786Y-14388500D01*
X6454357Y-14374214D01*
X6497214Y-14374214D01*
X6525786Y-14388500D01*
X6540071Y-14417071D01*
X6540071Y-14574214D01*
X6682928Y-14574214D02*
X6682928Y-14374214D01*
X6682928Y-14402786D02*
X6697214Y-14388500D01*
X6725786Y-14374214D01*
X6768643Y-14374214D01*
X6797214Y-14388500D01*
X6811500Y-14417071D01*
X6811500Y-14574214D01*
X6811500Y-14417071D02*
X6825786Y-14388500D01*
X6854357Y-14374214D01*
X6897214Y-14374214D01*
X6925786Y-14388500D01*
X6940071Y-14417071D01*
X6940071Y-14574214D01*
X7525786Y-14259929D02*
X7268643Y-14645643D01*
X7911500Y-14274214D02*
X7940071Y-14274214D01*
X7968643Y-14288500D01*
X7982928Y-14302786D01*
X7997214Y-14331357D01*
X8011500Y-14388500D01*
X8011500Y-14459929D01*
X7997214Y-14517071D01*
X7982928Y-14545643D01*
X7968643Y-14559929D01*
X7940071Y-14574214D01*
X7911500Y-14574214D01*
X7882928Y-14559929D01*
X7868643Y-14545643D01*
X7854357Y-14517071D01*
X7840071Y-14459929D01*
X7840071Y-14388500D01*
X7854357Y-14331357D01*
X7868643Y-14302786D01*
X7882928Y-14288500D01*
X7911500Y-14274214D01*
X8140071Y-14545643D02*
X8154357Y-14559929D01*
X8140071Y-14574214D01*
X8125786Y-14559929D01*
X8140071Y-14545643D01*
X8140071Y-14574214D01*
X8340071Y-14274214D02*
X8368643Y-14274214D01*
X8397214Y-14288500D01*
X8411500Y-14302786D01*
X8425786Y-14331357D01*
X8440071Y-14388500D01*
X8440071Y-14459929D01*
X8425786Y-14517071D01*
X8411500Y-14545643D01*
X8397214Y-14559929D01*
X8368643Y-14574214D01*
X8340071Y-14574214D01*
X8311500Y-14559929D01*
X8297214Y-14545643D01*
X8282928Y-14517071D01*
X8268643Y-14459929D01*
X8268643Y-14388500D01*
X8282928Y-14331357D01*
X8297214Y-14302786D01*
X8311500Y-14288500D01*
X8340071Y-14274214D01*
X8697214Y-14374214D02*
X8697214Y-14574214D01*
X8625786Y-14259929D02*
X8554357Y-14474214D01*
X8740071Y-14474214D01*
X8911500Y-14274214D02*
X8940071Y-14274214D01*
X8968643Y-14288500D01*
X8982928Y-14302786D01*
X8997214Y-14331357D01*
X9011500Y-14388500D01*
X9011500Y-14459929D01*
X8997214Y-14517071D01*
X8982928Y-14545643D01*
X8968643Y-14559929D01*
X8940071Y-14574214D01*
X8911500Y-14574214D01*
X8882928Y-14559929D01*
X8868643Y-14545643D01*
X8854357Y-14517071D01*
X8840071Y-14459929D01*
X8840071Y-14388500D01*
X8854357Y-14331357D01*
X8868643Y-14302786D01*
X8882928Y-14288500D01*
X8911500Y-14274214D01*
X9125786Y-14274214D02*
X9125786Y-14331357D01*
X9240071Y-14274214D02*
X9240071Y-14331357D01*
X9682928Y-14688500D02*
X9668643Y-14674214D01*
X9640071Y-14631357D01*
X9625786Y-14602786D01*
X9611500Y-14559929D01*
X9597214Y-14488500D01*
X9597214Y-14431357D01*
X9611500Y-14359929D01*
X9625786Y-14317071D01*
X9640071Y-14288500D01*
X9668643Y-14245643D01*
X9682928Y-14231357D01*
X9954357Y-14574214D02*
X9782928Y-14574214D01*
X9868643Y-14574214D02*
X9868643Y-14274214D01*
X9840071Y-14317071D01*
X9811500Y-14345643D01*
X9782928Y-14359929D01*
X10125786Y-14402786D02*
X10097214Y-14388500D01*
X10082928Y-14374214D01*
X10068643Y-14345643D01*
X10068643Y-14331357D01*
X10082928Y-14302786D01*
X10097214Y-14288500D01*
X10125786Y-14274214D01*
X10182928Y-14274214D01*
X10211500Y-14288500D01*
X10225786Y-14302786D01*
X10240071Y-14331357D01*
X10240071Y-14345643D01*
X10225786Y-14374214D01*
X10211500Y-14388500D01*
X10182928Y-14402786D01*
X10125786Y-14402786D01*
X10097214Y-14417071D01*
X10082928Y-14431357D01*
X10068643Y-14459929D01*
X10068643Y-14517071D01*
X10082928Y-14545643D01*
X10097214Y-14559929D01*
X10125786Y-14574214D01*
X10182928Y-14574214D01*
X10211500Y-14559929D01*
X10225786Y-14545643D01*
X10240071Y-14517071D01*
X10240071Y-14459929D01*
X10225786Y-14431357D01*
X10211500Y-14417071D01*
X10182928Y-14402786D01*
X10597214Y-14574214D02*
X10597214Y-14274214D01*
X10725786Y-14574214D02*
X10725786Y-14417071D01*
X10711500Y-14388500D01*
X10682928Y-14374214D01*
X10640071Y-14374214D01*
X10611500Y-14388500D01*
X10597214Y-14402786D01*
X10911500Y-14574214D02*
X10882928Y-14559929D01*
X10868643Y-14545643D01*
X10854357Y-14517071D01*
X10854357Y-14431357D01*
X10868643Y-14402786D01*
X10882928Y-14388500D01*
X10911500Y-14374214D01*
X10954357Y-14374214D01*
X10982928Y-14388500D01*
X10997214Y-14402786D01*
X11011500Y-14431357D01*
X11011500Y-14517071D01*
X10997214Y-14545643D01*
X10982928Y-14559929D01*
X10954357Y-14574214D01*
X10911500Y-14574214D01*
X11182928Y-14574214D02*
X11154357Y-14559929D01*
X11140071Y-14531357D01*
X11140071Y-14274214D01*
X11411500Y-14559929D02*
X11382928Y-14574214D01*
X11325786Y-14574214D01*
X11297214Y-14559929D01*
X11282928Y-14531357D01*
X11282928Y-14417071D01*
X11297214Y-14388500D01*
X11325786Y-14374214D01*
X11382928Y-14374214D01*
X11411500Y-14388500D01*
X11425786Y-14417071D01*
X11425786Y-14445643D01*
X11282928Y-14474214D01*
X11540071Y-14559929D02*
X11568643Y-14574214D01*
X11625786Y-14574214D01*
X11654357Y-14559929D01*
X11668643Y-14531357D01*
X11668643Y-14517071D01*
X11654357Y-14488500D01*
X11625786Y-14474214D01*
X11582928Y-14474214D01*
X11554357Y-14459929D01*
X11540071Y-14431357D01*
X11540071Y-14417071D01*
X11554357Y-14388500D01*
X11582928Y-14374214D01*
X11625786Y-14374214D01*
X11654357Y-14388500D01*
X11768643Y-14688500D02*
X11782928Y-14674214D01*
X11811500Y-14631357D01*
X11825786Y-14602786D01*
X11840071Y-14559929D01*
X11854357Y-14488500D01*
X11854357Y-14431357D01*
X11840071Y-14359929D01*
X11825786Y-14317071D01*
X11811500Y-14288500D01*
X11782928Y-14245643D01*
X11768643Y-14231357D01*
X4861500Y-14759500D02*
X5011500Y-14909500D01*
X5011500Y-14759500D02*
X4861500Y-14909500D01*
X4936500Y-14759500D02*
X4936500Y-14909500D01*
X4861500Y-14834500D02*
X5011500Y-14834500D01*
X5440071Y-14970214D02*
X5268643Y-14970214D01*
X5354357Y-14970214D02*
X5354357Y-14670214D01*
X5325786Y-14713071D01*
X5297214Y-14741643D01*
X5268643Y-14755929D01*
X5568643Y-14941643D02*
X5582929Y-14955929D01*
X5568643Y-14970214D01*
X5554357Y-14955929D01*
X5568643Y-14941643D01*
X5568643Y-14970214D01*
X5854357Y-14670214D02*
X5711500Y-14670214D01*
X5697214Y-14813071D01*
X5711500Y-14798786D01*
X5740071Y-14784500D01*
X5811500Y-14784500D01*
X5840071Y-14798786D01*
X5854357Y-14813071D01*
X5868643Y-14841643D01*
X5868643Y-14913071D01*
X5854357Y-14941643D01*
X5840071Y-14955929D01*
X5811500Y-14970214D01*
X5740071Y-14970214D01*
X5711500Y-14955929D01*
X5697214Y-14941643D01*
X6054357Y-14670214D02*
X6082928Y-14670214D01*
X6111500Y-14684500D01*
X6125786Y-14698786D01*
X6140071Y-14727357D01*
X6154357Y-14784500D01*
X6154357Y-14855929D01*
X6140071Y-14913071D01*
X6125786Y-14941643D01*
X6111500Y-14955929D01*
X6082928Y-14970214D01*
X6054357Y-14970214D01*
X6025786Y-14955929D01*
X6011500Y-14941643D01*
X5997214Y-14913071D01*
X5982928Y-14855929D01*
X5982928Y-14784500D01*
X5997214Y-14727357D01*
X6011500Y-14698786D01*
X6025786Y-14684500D01*
X6054357Y-14670214D01*
X6282928Y-14970214D02*
X6282928Y-14770214D01*
X6282928Y-14798786D02*
X6297214Y-14784500D01*
X6325786Y-14770214D01*
X6368643Y-14770214D01*
X6397214Y-14784500D01*
X6411500Y-14813071D01*
X6411500Y-14970214D01*
X6411500Y-14813071D02*
X6425786Y-14784500D01*
X6454357Y-14770214D01*
X6497214Y-14770214D01*
X6525786Y-14784500D01*
X6540071Y-14813071D01*
X6540071Y-14970214D01*
X6682928Y-14970214D02*
X6682928Y-14770214D01*
X6682928Y-14798786D02*
X6697214Y-14784500D01*
X6725786Y-14770214D01*
X6768643Y-14770214D01*
X6797214Y-14784500D01*
X6811500Y-14813071D01*
X6811500Y-14970214D01*
X6811500Y-14813071D02*
X6825786Y-14784500D01*
X6854357Y-14770214D01*
X6897214Y-14770214D01*
X6925786Y-14784500D01*
X6940071Y-14813071D01*
X6940071Y-14970214D01*
X7525786Y-14655929D02*
X7268643Y-15041643D01*
X7911500Y-14670214D02*
X7940071Y-14670214D01*
X7968643Y-14684500D01*
X7982928Y-14698786D01*
X7997214Y-14727357D01*
X8011500Y-14784500D01*
X8011500Y-14855929D01*
X7997214Y-14913071D01*
X7982928Y-14941643D01*
X7968643Y-14955929D01*
X7940071Y-14970214D01*
X7911500Y-14970214D01*
X7882928Y-14955929D01*
X7868643Y-14941643D01*
X7854357Y-14913071D01*
X7840071Y-14855929D01*
X7840071Y-14784500D01*
X7854357Y-14727357D01*
X7868643Y-14698786D01*
X7882928Y-14684500D01*
X7911500Y-14670214D01*
X8140071Y-14941643D02*
X8154357Y-14955929D01*
X8140071Y-14970214D01*
X8125786Y-14955929D01*
X8140071Y-14941643D01*
X8140071Y-14970214D01*
X8340071Y-14670214D02*
X8368643Y-14670214D01*
X8397214Y-14684500D01*
X8411500Y-14698786D01*
X8425786Y-14727357D01*
X8440071Y-14784500D01*
X8440071Y-14855929D01*
X8425786Y-14913071D01*
X8411500Y-14941643D01*
X8397214Y-14955929D01*
X8368643Y-14970214D01*
X8340071Y-14970214D01*
X8311500Y-14955929D01*
X8297214Y-14941643D01*
X8282928Y-14913071D01*
X8268643Y-14855929D01*
X8268643Y-14784500D01*
X8282928Y-14727357D01*
X8297214Y-14698786D01*
X8311500Y-14684500D01*
X8340071Y-14670214D01*
X8711500Y-14670214D02*
X8568643Y-14670214D01*
X8554357Y-14813071D01*
X8568643Y-14798786D01*
X8597214Y-14784500D01*
X8668643Y-14784500D01*
X8697214Y-14798786D01*
X8711500Y-14813071D01*
X8725786Y-14841643D01*
X8725786Y-14913071D01*
X8711500Y-14941643D01*
X8697214Y-14955929D01*
X8668643Y-14970214D01*
X8597214Y-14970214D01*
X8568643Y-14955929D01*
X8554357Y-14941643D01*
X8868643Y-14970214D02*
X8925786Y-14970214D01*
X8954357Y-14955929D01*
X8968643Y-14941643D01*
X8997214Y-14898786D01*
X9011500Y-14841643D01*
X9011500Y-14727357D01*
X8997214Y-14698786D01*
X8982928Y-14684500D01*
X8954357Y-14670214D01*
X8897214Y-14670214D01*
X8868643Y-14684500D01*
X8854357Y-14698786D01*
X8840071Y-14727357D01*
X8840071Y-14798786D01*
X8854357Y-14827357D01*
X8868643Y-14841643D01*
X8897214Y-14855929D01*
X8954357Y-14855929D01*
X8982928Y-14841643D01*
X8997214Y-14827357D01*
X9011500Y-14798786D01*
X9125786Y-14670214D02*
X9125786Y-14727357D01*
X9240071Y-14670214D02*
X9240071Y-14727357D01*
X9682928Y-15084500D02*
X9668643Y-15070214D01*
X9640071Y-15027357D01*
X9625786Y-14998786D01*
X9611500Y-14955929D01*
X9597214Y-14884500D01*
X9597214Y-14827357D01*
X9611500Y-14755929D01*
X9625786Y-14713071D01*
X9640071Y-14684500D01*
X9668643Y-14641643D01*
X9682928Y-14627357D01*
X9782928Y-14698786D02*
X9797214Y-14684500D01*
X9825786Y-14670214D01*
X9897214Y-14670214D01*
X9925786Y-14684500D01*
X9940071Y-14698786D01*
X9954357Y-14727357D01*
X9954357Y-14755929D01*
X9940071Y-14798786D01*
X9768643Y-14970214D01*
X9954357Y-14970214D01*
X10311500Y-14970214D02*
X10311500Y-14670214D01*
X10440071Y-14970214D02*
X10440071Y-14813071D01*
X10425786Y-14784500D01*
X10397214Y-14770214D01*
X10354357Y-14770214D01*
X10325786Y-14784500D01*
X10311500Y-14798786D01*
X10625786Y-14970214D02*
X10597214Y-14955929D01*
X10582928Y-14941643D01*
X10568643Y-14913071D01*
X10568643Y-14827357D01*
X10582928Y-14798786D01*
X10597214Y-14784500D01*
X10625786Y-14770214D01*
X10668643Y-14770214D01*
X10697214Y-14784500D01*
X10711500Y-14798786D01*
X10725786Y-14827357D01*
X10725786Y-14913071D01*
X10711500Y-14941643D01*
X10697214Y-14955929D01*
X10668643Y-14970214D01*
X10625786Y-14970214D01*
X10897214Y-14970214D02*
X10868643Y-14955929D01*
X10854357Y-14927357D01*
X10854357Y-14670214D01*
X11125786Y-14955929D02*
X11097214Y-14970214D01*
X11040071Y-14970214D01*
X11011500Y-14955929D01*
X10997214Y-14927357D01*
X10997214Y-14813071D01*
X11011500Y-14784500D01*
X11040071Y-14770214D01*
X11097214Y-14770214D01*
X11125786Y-14784500D01*
X11140071Y-14813071D01*
X11140071Y-14841643D01*
X10997214Y-14870214D01*
X11254357Y-14955929D02*
X11282928Y-14970214D01*
X11340071Y-14970214D01*
X11368643Y-14955929D01*
X11382928Y-14927357D01*
X11382928Y-14913071D01*
X11368643Y-14884500D01*
X11340071Y-14870214D01*
X11297214Y-14870214D01*
X11268643Y-14855929D01*
X11254357Y-14827357D01*
X11254357Y-14813071D01*
X11268643Y-14784500D01*
X11297214Y-14770214D01*
X11340071Y-14770214D01*
X11368643Y-14784500D01*
X11482928Y-15084500D02*
X11497214Y-15070214D01*
X11525786Y-15027357D01*
X11540071Y-14998786D01*
X11554357Y-14955929D01*
X11568643Y-14884500D01*
X11568643Y-14827357D01*
X11554357Y-14755929D01*
X11540071Y-14713071D01*
X11525786Y-14684500D01*
X11497214Y-14641643D01*
X11482928Y-14627357D01*
X4661488Y-15055494D02*
X5011500Y-15405506D01*
X5011500Y-15055494D02*
X4661488Y-15405506D01*
X4960243Y-15354249D02*
X4960243Y-15106751D01*
X4712745Y-15106751D01*
X4712745Y-15354249D01*
X4960243Y-15354249D01*
X5254357Y-15066214D02*
X5440071Y-15066214D01*
X5340071Y-15180500D01*
X5382929Y-15180500D01*
X5411500Y-15194786D01*
X5425786Y-15209071D01*
X5440071Y-15237643D01*
X5440071Y-15309071D01*
X5425786Y-15337643D01*
X5411500Y-15351929D01*
X5382929Y-15366214D01*
X5297214Y-15366214D01*
X5268643Y-15351929D01*
X5254357Y-15337643D01*
X5568643Y-15337643D02*
X5582929Y-15351929D01*
X5568643Y-15366214D01*
X5554357Y-15351929D01*
X5568643Y-15337643D01*
X5568643Y-15366214D01*
X5854357Y-15066214D02*
X5711500Y-15066214D01*
X5697214Y-15209071D01*
X5711500Y-15194786D01*
X5740071Y-15180500D01*
X5811500Y-15180500D01*
X5840071Y-15194786D01*
X5854357Y-15209071D01*
X5868643Y-15237643D01*
X5868643Y-15309071D01*
X5854357Y-15337643D01*
X5840071Y-15351929D01*
X5811500Y-15366214D01*
X5740071Y-15366214D01*
X5711500Y-15351929D01*
X5697214Y-15337643D01*
X6054357Y-15066214D02*
X6082928Y-15066214D01*
X6111500Y-15080500D01*
X6125786Y-15094786D01*
X6140071Y-15123357D01*
X6154357Y-15180500D01*
X6154357Y-15251929D01*
X6140071Y-15309071D01*
X6125786Y-15337643D01*
X6111500Y-15351929D01*
X6082928Y-15366214D01*
X6054357Y-15366214D01*
X6025786Y-15351929D01*
X6011500Y-15337643D01*
X5997214Y-15309071D01*
X5982928Y-15251929D01*
X5982928Y-15180500D01*
X5997214Y-15123357D01*
X6011500Y-15094786D01*
X6025786Y-15080500D01*
X6054357Y-15066214D01*
X6282928Y-15366214D02*
X6282928Y-15166214D01*
X6282928Y-15194786D02*
X6297214Y-15180500D01*
X6325786Y-15166214D01*
X6368643Y-15166214D01*
X6397214Y-15180500D01*
X6411500Y-15209071D01*
X6411500Y-15366214D01*
X6411500Y-15209071D02*
X6425786Y-15180500D01*
X6454357Y-15166214D01*
X6497214Y-15166214D01*
X6525786Y-15180500D01*
X6540071Y-15209071D01*
X6540071Y-15366214D01*
X6682928Y-15366214D02*
X6682928Y-15166214D01*
X6682928Y-15194786D02*
X6697214Y-15180500D01*
X6725786Y-15166214D01*
X6768643Y-15166214D01*
X6797214Y-15180500D01*
X6811500Y-15209071D01*
X6811500Y-15366214D01*
X6811500Y-15209071D02*
X6825786Y-15180500D01*
X6854357Y-15166214D01*
X6897214Y-15166214D01*
X6925786Y-15180500D01*
X6940071Y-15209071D01*
X6940071Y-15366214D01*
X7525786Y-15051929D02*
X7268643Y-15437643D01*
X7911500Y-15066214D02*
X7940071Y-15066214D01*
X7968643Y-15080500D01*
X7982928Y-15094786D01*
X7997214Y-15123357D01*
X8011500Y-15180500D01*
X8011500Y-15251929D01*
X7997214Y-15309071D01*
X7982928Y-15337643D01*
X7968643Y-15351929D01*
X7940071Y-15366214D01*
X7911500Y-15366214D01*
X7882928Y-15351929D01*
X7868643Y-15337643D01*
X7854357Y-15309071D01*
X7840071Y-15251929D01*
X7840071Y-15180500D01*
X7854357Y-15123357D01*
X7868643Y-15094786D01*
X7882928Y-15080500D01*
X7911500Y-15066214D01*
X8140071Y-15337643D02*
X8154357Y-15351929D01*
X8140071Y-15366214D01*
X8125786Y-15351929D01*
X8140071Y-15337643D01*
X8140071Y-15366214D01*
X8440071Y-15366214D02*
X8268643Y-15366214D01*
X8354357Y-15366214D02*
X8354357Y-15066214D01*
X8325785Y-15109071D01*
X8297214Y-15137643D01*
X8268643Y-15151929D01*
X8540071Y-15066214D02*
X8725786Y-15066214D01*
X8625786Y-15180500D01*
X8668643Y-15180500D01*
X8697214Y-15194786D01*
X8711500Y-15209071D01*
X8725786Y-15237643D01*
X8725786Y-15309071D01*
X8711500Y-15337643D01*
X8697214Y-15351929D01*
X8668643Y-15366214D01*
X8582928Y-15366214D01*
X8554357Y-15351929D01*
X8540071Y-15337643D01*
X8897214Y-15194786D02*
X8868643Y-15180500D01*
X8854357Y-15166214D01*
X8840071Y-15137643D01*
X8840071Y-15123357D01*
X8854357Y-15094786D01*
X8868643Y-15080500D01*
X8897214Y-15066214D01*
X8954357Y-15066214D01*
X8982928Y-15080500D01*
X8997214Y-15094786D01*
X9011500Y-15123357D01*
X9011500Y-15137643D01*
X8997214Y-15166214D01*
X8982928Y-15180500D01*
X8954357Y-15194786D01*
X8897214Y-15194786D01*
X8868643Y-15209071D01*
X8854357Y-15223357D01*
X8840071Y-15251929D01*
X8840071Y-15309071D01*
X8854357Y-15337643D01*
X8868643Y-15351929D01*
X8897214Y-15366214D01*
X8954357Y-15366214D01*
X8982928Y-15351929D01*
X8997214Y-15337643D01*
X9011500Y-15309071D01*
X9011500Y-15251929D01*
X8997214Y-15223357D01*
X8982928Y-15209071D01*
X8954357Y-15194786D01*
X9125786Y-15066214D02*
X9125786Y-15123357D01*
X9240071Y-15066214D02*
X9240071Y-15123357D01*
X9682928Y-15480500D02*
X9668643Y-15466214D01*
X9640071Y-15423357D01*
X9625786Y-15394786D01*
X9611500Y-15351929D01*
X9597214Y-15280500D01*
X9597214Y-15223357D01*
X9611500Y-15151929D01*
X9625786Y-15109071D01*
X9640071Y-15080500D01*
X9668643Y-15037643D01*
X9682928Y-15023357D01*
X9925786Y-15066214D02*
X9868643Y-15066214D01*
X9840071Y-15080500D01*
X9825786Y-15094786D01*
X9797214Y-15137643D01*
X9782928Y-15194786D01*
X9782928Y-15309071D01*
X9797214Y-15337643D01*
X9811500Y-15351929D01*
X9840071Y-15366214D01*
X9897214Y-15366214D01*
X9925786Y-15351929D01*
X9940071Y-15337643D01*
X9954357Y-15309071D01*
X9954357Y-15237643D01*
X9940071Y-15209071D01*
X9925786Y-15194786D01*
X9897214Y-15180500D01*
X9840071Y-15180500D01*
X9811500Y-15194786D01*
X9797214Y-15209071D01*
X9782928Y-15237643D01*
X10311500Y-15366214D02*
X10311500Y-15066214D01*
X10440071Y-15366214D02*
X10440071Y-15209071D01*
X10425786Y-15180500D01*
X10397214Y-15166214D01*
X10354357Y-15166214D01*
X10325786Y-15180500D01*
X10311500Y-15194786D01*
X10625786Y-15366214D02*
X10597214Y-15351929D01*
X10582928Y-15337643D01*
X10568643Y-15309071D01*
X10568643Y-15223357D01*
X10582928Y-15194786D01*
X10597214Y-15180500D01*
X10625786Y-15166214D01*
X10668643Y-15166214D01*
X10697214Y-15180500D01*
X10711500Y-15194786D01*
X10725786Y-15223357D01*
X10725786Y-15309071D01*
X10711500Y-15337643D01*
X10697214Y-15351929D01*
X10668643Y-15366214D01*
X10625786Y-15366214D01*
X10897214Y-15366214D02*
X10868643Y-15351929D01*
X10854357Y-15323357D01*
X10854357Y-15066214D01*
X11125786Y-15351929D02*
X11097214Y-15366214D01*
X11040071Y-15366214D01*
X11011500Y-15351929D01*
X10997214Y-15323357D01*
X10997214Y-15209071D01*
X11011500Y-15180500D01*
X11040071Y-15166214D01*
X11097214Y-15166214D01*
X11125786Y-15180500D01*
X11140071Y-15209071D01*
X11140071Y-15237643D01*
X10997214Y-15266214D01*
X11254357Y-15351929D02*
X11282928Y-15366214D01*
X11340071Y-15366214D01*
X11368643Y-15351929D01*
X11382928Y-15323357D01*
X11382928Y-15309071D01*
X11368643Y-15280500D01*
X11340071Y-15266214D01*
X11297214Y-15266214D01*
X11268643Y-15251929D01*
X11254357Y-15223357D01*
X11254357Y-15209071D01*
X11268643Y-15180500D01*
X11297214Y-15166214D01*
X11340071Y-15166214D01*
X11368643Y-15180500D01*
X11482928Y-15480500D02*
X11497214Y-15466214D01*
X11525786Y-15423357D01*
X11540071Y-15394786D01*
X11554357Y-15351929D01*
X11568643Y-15280500D01*
X11568643Y-15223357D01*
X11554357Y-15151929D01*
X11540071Y-15109071D01*
X11525786Y-15080500D01*
X11497214Y-15037643D01*
X11482928Y-15023357D01*
M02*
