G04 #@! TF.FileFunction,Legend,Top*
%FSLAX46Y46*%
G04 Gerber Fmt 4.6, Leading zero omitted, Abs format (unit mm)*
G04 Created by KiCad (PCBNEW (after 2015-mar-04 BZR unknown)-product) date Fri 28 Oct 2016 11:36:00 AM CEST*
%MOMM*%
G01*
G04 APERTURE LIST*
%ADD10C,0.100000*%
%ADD11C,0.250000*%
%ADD12C,0.300000*%
%ADD13C,0.200000*%
%ADD14C,0.150000*%
G04 APERTURE END LIST*
D10*
D11*
X206764287Y-57935095D02*
X206764287Y-57254143D01*
X206702382Y-57130333D01*
X206578572Y-57068429D01*
X206330953Y-57068429D01*
X206207144Y-57130333D01*
X206764287Y-57873190D02*
X206640477Y-57935095D01*
X206330953Y-57935095D01*
X206207144Y-57873190D01*
X206145239Y-57749381D01*
X206145239Y-57625571D01*
X206207144Y-57501762D01*
X206330953Y-57439857D01*
X206640477Y-57439857D01*
X206764287Y-57377952D01*
X207383334Y-57935095D02*
X207383334Y-57068429D01*
X207383334Y-57316048D02*
X207445239Y-57192238D01*
X207507143Y-57130333D01*
X207630953Y-57068429D01*
X207754762Y-57068429D01*
X208745239Y-57935095D02*
X208745239Y-56635095D01*
X208745239Y-57873190D02*
X208621429Y-57935095D01*
X208373810Y-57935095D01*
X208250001Y-57873190D01*
X208188096Y-57811286D01*
X208126191Y-57687476D01*
X208126191Y-57316048D01*
X208188096Y-57192238D01*
X208250001Y-57130333D01*
X208373810Y-57068429D01*
X208621429Y-57068429D01*
X208745239Y-57130333D01*
X209921429Y-57068429D02*
X209921429Y-57935095D01*
X209364286Y-57068429D02*
X209364286Y-57749381D01*
X209426191Y-57873190D01*
X209550000Y-57935095D01*
X209735714Y-57935095D01*
X209859524Y-57873190D01*
X209921429Y-57811286D01*
X210540476Y-57935095D02*
X210540476Y-57068429D01*
X210540476Y-56635095D02*
X210478571Y-56697000D01*
X210540476Y-56758905D01*
X210602381Y-56697000D01*
X210540476Y-56635095D01*
X210540476Y-56758905D01*
X211159524Y-57068429D02*
X211159524Y-57935095D01*
X211159524Y-57192238D02*
X211221429Y-57130333D01*
X211345238Y-57068429D01*
X211530952Y-57068429D01*
X211654762Y-57130333D01*
X211716667Y-57254143D01*
X211716667Y-57935095D01*
X212521428Y-57935095D02*
X212397619Y-57873190D01*
X212335714Y-57811286D01*
X212273809Y-57687476D01*
X212273809Y-57316048D01*
X212335714Y-57192238D01*
X212397619Y-57130333D01*
X212521428Y-57068429D01*
X212707142Y-57068429D01*
X212830952Y-57130333D01*
X212892857Y-57192238D01*
X212954761Y-57316048D01*
X212954761Y-57687476D01*
X212892857Y-57811286D01*
X212830952Y-57873190D01*
X212707142Y-57935095D01*
X212521428Y-57935095D01*
X207785715Y-60005095D02*
X207661906Y-59943190D01*
X207600001Y-59881286D01*
X207538096Y-59757476D01*
X207538096Y-59386048D01*
X207600001Y-59262238D01*
X207661906Y-59200333D01*
X207785715Y-59138429D01*
X207971429Y-59138429D01*
X208095239Y-59200333D01*
X208157144Y-59262238D01*
X208219048Y-59386048D01*
X208219048Y-59757476D01*
X208157144Y-59881286D01*
X208095239Y-59943190D01*
X207971429Y-60005095D01*
X207785715Y-60005095D01*
X209333334Y-59943190D02*
X209209524Y-60005095D01*
X208961905Y-60005095D01*
X208838096Y-59943190D01*
X208776191Y-59881286D01*
X208714286Y-59757476D01*
X208714286Y-59386048D01*
X208776191Y-59262238D01*
X208838096Y-59200333D01*
X208961905Y-59138429D01*
X209209524Y-59138429D01*
X209333334Y-59200333D01*
X209766667Y-60005095D02*
X210447620Y-59138429D01*
X209766667Y-59138429D02*
X210447620Y-60005095D01*
X211128572Y-60005095D02*
X211004763Y-59943190D01*
X210942858Y-59881286D01*
X210880953Y-59757476D01*
X210880953Y-59386048D01*
X210942858Y-59262238D01*
X211004763Y-59200333D01*
X211128572Y-59138429D01*
X211314286Y-59138429D01*
X211438096Y-59200333D01*
X211500001Y-59262238D01*
X211561905Y-59386048D01*
X211561905Y-59757476D01*
X211500001Y-59881286D01*
X211438096Y-59943190D01*
X211314286Y-60005095D01*
X211128572Y-60005095D01*
X205557143Y-62075095D02*
X205557143Y-61208429D01*
X205557143Y-60775095D02*
X205495238Y-60837000D01*
X205557143Y-60898905D01*
X205619048Y-60837000D01*
X205557143Y-60775095D01*
X205557143Y-60898905D01*
X206176191Y-61208429D02*
X206176191Y-62075095D01*
X206176191Y-61332238D02*
X206238096Y-61270333D01*
X206361905Y-61208429D01*
X206547619Y-61208429D01*
X206671429Y-61270333D01*
X206733334Y-61394143D01*
X206733334Y-62075095D01*
X207166667Y-61208429D02*
X207661905Y-61208429D01*
X207352381Y-60775095D02*
X207352381Y-61889381D01*
X207414286Y-62013190D01*
X207538095Y-62075095D01*
X207661905Y-62075095D01*
X208590476Y-62013190D02*
X208466666Y-62075095D01*
X208219047Y-62075095D01*
X208095238Y-62013190D01*
X208033333Y-61889381D01*
X208033333Y-61394143D01*
X208095238Y-61270333D01*
X208219047Y-61208429D01*
X208466666Y-61208429D01*
X208590476Y-61270333D01*
X208652381Y-61394143D01*
X208652381Y-61517952D01*
X208033333Y-61641762D01*
X209209524Y-62075095D02*
X209209524Y-61208429D01*
X209209524Y-61456048D02*
X209271429Y-61332238D01*
X209333333Y-61270333D01*
X209457143Y-61208429D01*
X209580952Y-61208429D01*
X209828572Y-61208429D02*
X210323810Y-61208429D01*
X210014286Y-62075095D02*
X210014286Y-60960810D01*
X210076191Y-60837000D01*
X210200000Y-60775095D01*
X210323810Y-60775095D01*
X211314286Y-62075095D02*
X211314286Y-61394143D01*
X211252381Y-61270333D01*
X211128571Y-61208429D01*
X210880952Y-61208429D01*
X210757143Y-61270333D01*
X211314286Y-62013190D02*
X211190476Y-62075095D01*
X210880952Y-62075095D01*
X210757143Y-62013190D01*
X210695238Y-61889381D01*
X210695238Y-61765571D01*
X210757143Y-61641762D01*
X210880952Y-61579857D01*
X211190476Y-61579857D01*
X211314286Y-61517952D01*
X212490476Y-62013190D02*
X212366666Y-62075095D01*
X212119047Y-62075095D01*
X211995238Y-62013190D01*
X211933333Y-61951286D01*
X211871428Y-61827476D01*
X211871428Y-61456048D01*
X211933333Y-61332238D01*
X211995238Y-61270333D01*
X212119047Y-61208429D01*
X212366666Y-61208429D01*
X212490476Y-61270333D01*
X213542857Y-62013190D02*
X213419047Y-62075095D01*
X213171428Y-62075095D01*
X213047619Y-62013190D01*
X212985714Y-61889381D01*
X212985714Y-61394143D01*
X213047619Y-61270333D01*
X213171428Y-61208429D01*
X213419047Y-61208429D01*
X213542857Y-61270333D01*
X213604762Y-61394143D01*
X213604762Y-61517952D01*
X212985714Y-61641762D01*
X208621429Y-63278429D02*
X208930953Y-64145095D01*
X209240477Y-63278429D01*
X210416667Y-64145095D02*
X209673810Y-64145095D01*
X210045239Y-64145095D02*
X210045239Y-62845095D01*
X209921429Y-63030810D01*
X209797620Y-63154619D01*
X209673810Y-63216524D01*
D12*
X152817143Y-53018571D02*
X152817143Y-54518571D01*
X152817143Y-53090000D02*
X152960000Y-53018571D01*
X153245714Y-53018571D01*
X153388571Y-53090000D01*
X153460000Y-53161429D01*
X153531429Y-53304286D01*
X153531429Y-53732857D01*
X153460000Y-53875714D01*
X153388571Y-53947143D01*
X153245714Y-54018571D01*
X152960000Y-54018571D01*
X152817143Y-53947143D01*
X154817143Y-54018571D02*
X154817143Y-53232857D01*
X154745714Y-53090000D01*
X154602857Y-53018571D01*
X154317143Y-53018571D01*
X154174286Y-53090000D01*
X154817143Y-53947143D02*
X154674286Y-54018571D01*
X154317143Y-54018571D01*
X154174286Y-53947143D01*
X154102857Y-53804286D01*
X154102857Y-53661429D01*
X154174286Y-53518571D01*
X154317143Y-53447143D01*
X154674286Y-53447143D01*
X154817143Y-53375714D01*
X155388572Y-52518571D02*
X156317143Y-52518571D01*
X155817143Y-53090000D01*
X156031429Y-53090000D01*
X156174286Y-53161429D01*
X156245715Y-53232857D01*
X156317143Y-53375714D01*
X156317143Y-53732857D01*
X156245715Y-53875714D01*
X156174286Y-53947143D01*
X156031429Y-54018571D01*
X155602857Y-54018571D01*
X155460000Y-53947143D01*
X155388572Y-53875714D01*
X157602857Y-53018571D02*
X157602857Y-54232857D01*
X157531428Y-54375714D01*
X157460000Y-54447143D01*
X157317143Y-54518571D01*
X157102857Y-54518571D01*
X156960000Y-54447143D01*
X157602857Y-53947143D02*
X157460000Y-54018571D01*
X157174286Y-54018571D01*
X157031428Y-53947143D01*
X156960000Y-53875714D01*
X156888571Y-53732857D01*
X156888571Y-53304286D01*
X156960000Y-53161429D01*
X157031428Y-53090000D01*
X157174286Y-53018571D01*
X157460000Y-53018571D01*
X157602857Y-53090000D01*
X158174286Y-53018571D02*
X158531429Y-54018571D01*
X158888571Y-53018571D02*
X158531429Y-54018571D01*
X158388571Y-54375714D01*
X158317143Y-54447143D01*
X158174286Y-54518571D01*
X159245714Y-53018571D02*
X159817143Y-53018571D01*
X159460000Y-54018571D02*
X159460000Y-52732857D01*
X159531428Y-52590000D01*
X159674286Y-52518571D01*
X159817143Y-52518571D01*
D13*
X151477619Y-62428571D02*
X152477619Y-62428571D01*
X152477619Y-62809524D01*
X152430000Y-62904762D01*
X152382381Y-62952381D01*
X152287143Y-63000000D01*
X152144286Y-63000000D01*
X152049048Y-62952381D01*
X152001429Y-62904762D01*
X151953810Y-62809524D01*
X151953810Y-62428571D01*
X151477619Y-63904762D02*
X151477619Y-63428571D01*
X152477619Y-63428571D01*
X151477619Y-64714286D02*
X151477619Y-64238095D01*
X152477619Y-64238095D01*
X149925238Y-61309524D02*
X149877619Y-61452381D01*
X149877619Y-61690477D01*
X149925238Y-61785715D01*
X149972857Y-61833334D01*
X150068095Y-61880953D01*
X150163333Y-61880953D01*
X150258571Y-61833334D01*
X150306190Y-61785715D01*
X150353810Y-61690477D01*
X150401429Y-61500000D01*
X150449048Y-61404762D01*
X150496667Y-61357143D01*
X150591905Y-61309524D01*
X150687143Y-61309524D01*
X150782381Y-61357143D01*
X150830000Y-61404762D01*
X150877619Y-61500000D01*
X150877619Y-61738096D01*
X150830000Y-61880953D01*
X150401429Y-62309524D02*
X150401429Y-62642858D01*
X149877619Y-62785715D02*
X149877619Y-62309524D01*
X150877619Y-62309524D01*
X150877619Y-62785715D01*
X149877619Y-63214286D02*
X150877619Y-63214286D01*
X149877619Y-63785715D01*
X150877619Y-63785715D01*
X149925238Y-64214286D02*
X149877619Y-64357143D01*
X149877619Y-64595239D01*
X149925238Y-64690477D01*
X149972857Y-64738096D01*
X150068095Y-64785715D01*
X150163333Y-64785715D01*
X150258571Y-64738096D01*
X150306190Y-64690477D01*
X150353810Y-64595239D01*
X150401429Y-64404762D01*
X150449048Y-64309524D01*
X150496667Y-64261905D01*
X150591905Y-64214286D01*
X150687143Y-64214286D01*
X150782381Y-64261905D01*
X150830000Y-64309524D01*
X150877619Y-64404762D01*
X150877619Y-64642858D01*
X150830000Y-64785715D01*
X150401429Y-65214286D02*
X150401429Y-65547620D01*
X149877619Y-65690477D02*
X149877619Y-65214286D01*
X150877619Y-65214286D01*
X150877619Y-65690477D01*
X152477619Y-79684762D02*
X152477619Y-79875239D01*
X152430000Y-79970477D01*
X152334762Y-80065715D01*
X152144286Y-80113334D01*
X151810952Y-80113334D01*
X151620476Y-80065715D01*
X151525238Y-79970477D01*
X151477619Y-79875239D01*
X151477619Y-79684762D01*
X151525238Y-79589524D01*
X151620476Y-79494286D01*
X151810952Y-79446667D01*
X152144286Y-79446667D01*
X152334762Y-79494286D01*
X152430000Y-79589524D01*
X152477619Y-79684762D01*
X151572857Y-81113334D02*
X151525238Y-81065715D01*
X151477619Y-80922858D01*
X151477619Y-80827620D01*
X151525238Y-80684762D01*
X151620476Y-80589524D01*
X151715714Y-80541905D01*
X151906190Y-80494286D01*
X152049048Y-80494286D01*
X152239524Y-80541905D01*
X152334762Y-80589524D01*
X152430000Y-80684762D01*
X152477619Y-80827620D01*
X152477619Y-80922858D01*
X152430000Y-81065715D01*
X152382381Y-81113334D01*
X152477619Y-81446667D02*
X151477619Y-82113334D01*
X152477619Y-82113334D02*
X151477619Y-81446667D01*
X152477619Y-82684762D02*
X152477619Y-82875239D01*
X152430000Y-82970477D01*
X152334762Y-83065715D01*
X152144286Y-83113334D01*
X151810952Y-83113334D01*
X151620476Y-83065715D01*
X151525238Y-82970477D01*
X151477619Y-82875239D01*
X151477619Y-82684762D01*
X151525238Y-82589524D01*
X151620476Y-82494286D01*
X151810952Y-82446667D01*
X152144286Y-82446667D01*
X152334762Y-82494286D01*
X152430000Y-82589524D01*
X152477619Y-82684762D01*
X150877619Y-76446666D02*
X150877619Y-77018095D01*
X149877619Y-76732380D02*
X150877619Y-76732380D01*
X150877619Y-77351428D02*
X150068095Y-77351428D01*
X149972857Y-77399047D01*
X149925238Y-77446666D01*
X149877619Y-77541904D01*
X149877619Y-77732381D01*
X149925238Y-77827619D01*
X149972857Y-77875238D01*
X150068095Y-77922857D01*
X150877619Y-77922857D01*
X149877619Y-78399047D02*
X150877619Y-78399047D01*
X149877619Y-78970476D01*
X150877619Y-78970476D01*
X150401429Y-79446666D02*
X150401429Y-79780000D01*
X149877619Y-79922857D02*
X149877619Y-79446666D01*
X150877619Y-79446666D01*
X150877619Y-79922857D01*
X149925238Y-81065714D02*
X149877619Y-81208571D01*
X149877619Y-81446667D01*
X149925238Y-81541905D01*
X149972857Y-81589524D01*
X150068095Y-81637143D01*
X150163333Y-81637143D01*
X150258571Y-81589524D01*
X150306190Y-81541905D01*
X150353810Y-81446667D01*
X150401429Y-81256190D01*
X150449048Y-81160952D01*
X150496667Y-81113333D01*
X150591905Y-81065714D01*
X150687143Y-81065714D01*
X150782381Y-81113333D01*
X150830000Y-81160952D01*
X150877619Y-81256190D01*
X150877619Y-81494286D01*
X150830000Y-81637143D01*
X150401429Y-82065714D02*
X150401429Y-82399048D01*
X149877619Y-82541905D02*
X149877619Y-82065714D01*
X150877619Y-82065714D01*
X150877619Y-82541905D01*
X149877619Y-83446667D02*
X149877619Y-82970476D01*
X150877619Y-82970476D01*
X150401429Y-83780000D02*
X150401429Y-84113334D01*
X149877619Y-84256191D02*
X149877619Y-83780000D01*
X150877619Y-83780000D01*
X150877619Y-84256191D01*
X149972857Y-85256191D02*
X149925238Y-85208572D01*
X149877619Y-85065715D01*
X149877619Y-84970477D01*
X149925238Y-84827619D01*
X150020476Y-84732381D01*
X150115714Y-84684762D01*
X150306190Y-84637143D01*
X150449048Y-84637143D01*
X150639524Y-84684762D01*
X150734762Y-84732381D01*
X150830000Y-84827619D01*
X150877619Y-84970477D01*
X150877619Y-85065715D01*
X150830000Y-85208572D01*
X150782381Y-85256191D01*
X150877619Y-85541905D02*
X150877619Y-86113334D01*
X149877619Y-85827619D02*
X150877619Y-85827619D01*
X152477619Y-100004762D02*
X152477619Y-100195239D01*
X152430000Y-100290477D01*
X152334762Y-100385715D01*
X152144286Y-100433334D01*
X151810952Y-100433334D01*
X151620476Y-100385715D01*
X151525238Y-100290477D01*
X151477619Y-100195239D01*
X151477619Y-100004762D01*
X151525238Y-99909524D01*
X151620476Y-99814286D01*
X151810952Y-99766667D01*
X152144286Y-99766667D01*
X152334762Y-99814286D01*
X152430000Y-99909524D01*
X152477619Y-100004762D01*
X151572857Y-101433334D02*
X151525238Y-101385715D01*
X151477619Y-101242858D01*
X151477619Y-101147620D01*
X151525238Y-101004762D01*
X151620476Y-100909524D01*
X151715714Y-100861905D01*
X151906190Y-100814286D01*
X152049048Y-100814286D01*
X152239524Y-100861905D01*
X152334762Y-100909524D01*
X152430000Y-101004762D01*
X152477619Y-101147620D01*
X152477619Y-101242858D01*
X152430000Y-101385715D01*
X152382381Y-101433334D01*
X152477619Y-101766667D02*
X151477619Y-102433334D01*
X152477619Y-102433334D02*
X151477619Y-101766667D01*
X152477619Y-103004762D02*
X152477619Y-103195239D01*
X152430000Y-103290477D01*
X152334762Y-103385715D01*
X152144286Y-103433334D01*
X151810952Y-103433334D01*
X151620476Y-103385715D01*
X151525238Y-103290477D01*
X151477619Y-103195239D01*
X151477619Y-103004762D01*
X151525238Y-102909524D01*
X151620476Y-102814286D01*
X151810952Y-102766667D01*
X152144286Y-102766667D01*
X152334762Y-102814286D01*
X152430000Y-102909524D01*
X152477619Y-103004762D01*
X149877619Y-99290476D02*
X150877619Y-99290476D01*
X150877619Y-99671429D01*
X150830000Y-99766667D01*
X150782381Y-99814286D01*
X150687143Y-99861905D01*
X150544286Y-99861905D01*
X150449048Y-99814286D01*
X150401429Y-99766667D01*
X150353810Y-99671429D01*
X150353810Y-99290476D01*
X150877619Y-100480952D02*
X150877619Y-100671429D01*
X150830000Y-100766667D01*
X150734762Y-100861905D01*
X150544286Y-100909524D01*
X150210952Y-100909524D01*
X150020476Y-100861905D01*
X149925238Y-100766667D01*
X149877619Y-100671429D01*
X149877619Y-100480952D01*
X149925238Y-100385714D01*
X150020476Y-100290476D01*
X150210952Y-100242857D01*
X150544286Y-100242857D01*
X150734762Y-100290476D01*
X150830000Y-100385714D01*
X150877619Y-100480952D01*
X150877619Y-101242857D02*
X149877619Y-101480952D01*
X150591905Y-101671429D01*
X149877619Y-101861905D01*
X150877619Y-102100000D01*
X150401429Y-102480952D02*
X150401429Y-102814286D01*
X149877619Y-102957143D02*
X149877619Y-102480952D01*
X150877619Y-102480952D01*
X150877619Y-102957143D01*
X149877619Y-103957143D02*
X150353810Y-103623809D01*
X149877619Y-103385714D02*
X150877619Y-103385714D01*
X150877619Y-103766667D01*
X150830000Y-103861905D01*
X150782381Y-103909524D01*
X150687143Y-103957143D01*
X150544286Y-103957143D01*
X150449048Y-103909524D01*
X150401429Y-103861905D01*
X150353810Y-103766667D01*
X150353810Y-103385714D01*
X215828571Y-79723904D02*
X215828571Y-80057238D01*
X216352381Y-80057238D02*
X215352381Y-80057238D01*
X215352381Y-79581047D01*
X216352381Y-79200095D02*
X215352381Y-79200095D01*
X215352381Y-78819142D01*
X215400000Y-78723904D01*
X215447619Y-78676285D01*
X215542857Y-78628666D01*
X215685714Y-78628666D01*
X215780952Y-78676285D01*
X215828571Y-78723904D01*
X215876190Y-78819142D01*
X215876190Y-79200095D01*
X216447619Y-78438190D02*
X216447619Y-77676285D01*
X215352381Y-77247714D02*
X215352381Y-77057237D01*
X215400000Y-76961999D01*
X215495238Y-76866761D01*
X215685714Y-76819142D01*
X216019048Y-76819142D01*
X216209524Y-76866761D01*
X216304762Y-76961999D01*
X216352381Y-77057237D01*
X216352381Y-77247714D01*
X216304762Y-77342952D01*
X216209524Y-77438190D01*
X216019048Y-77485809D01*
X215685714Y-77485809D01*
X215495238Y-77438190D01*
X215400000Y-77342952D01*
X215352381Y-77247714D01*
X216257143Y-75819142D02*
X216304762Y-75866761D01*
X216352381Y-76009618D01*
X216352381Y-76104856D01*
X216304762Y-76247714D01*
X216209524Y-76342952D01*
X216114286Y-76390571D01*
X215923810Y-76438190D01*
X215780952Y-76438190D01*
X215590476Y-76390571D01*
X215495238Y-76342952D01*
X215400000Y-76247714D01*
X215352381Y-76104856D01*
X215352381Y-76009618D01*
X215400000Y-75866761D01*
X215447619Y-75819142D01*
X215352381Y-75485809D02*
X216352381Y-74819142D01*
X215352381Y-74819142D02*
X216352381Y-75485809D01*
X215352381Y-74247714D02*
X215352381Y-74057237D01*
X215400000Y-73961999D01*
X215495238Y-73866761D01*
X215685714Y-73819142D01*
X216019048Y-73819142D01*
X216209524Y-73866761D01*
X216304762Y-73961999D01*
X216352381Y-74057237D01*
X216352381Y-74247714D01*
X216304762Y-74342952D01*
X216209524Y-74438190D01*
X216019048Y-74485809D01*
X215685714Y-74485809D01*
X215495238Y-74438190D01*
X215400000Y-74342952D01*
X215352381Y-74247714D01*
D14*
X211074000Y-92964000D02*
X210566000Y-92964000D01*
X211074000Y-92456000D02*
X210566000Y-92456000D01*
X211074000Y-90424000D02*
X210566000Y-90424000D01*
X211074000Y-89916000D02*
X210566000Y-89916000D01*
X211074000Y-82296000D02*
X210566000Y-82296000D01*
X211074000Y-82804000D02*
X210566000Y-82804000D01*
X211074000Y-87884000D02*
X210566000Y-87884000D01*
X211074000Y-87376000D02*
X210566000Y-87376000D01*
X211074000Y-85344000D02*
X210566000Y-85344000D01*
X211074000Y-84836000D02*
X210566000Y-84836000D01*
X213614000Y-92964000D02*
X213106000Y-92964000D01*
X213614000Y-92456000D02*
X213106000Y-92456000D01*
X213614000Y-82296000D02*
X213106000Y-82296000D01*
X213614000Y-82804000D02*
X213106000Y-82804000D01*
X213614000Y-84836000D02*
X213106000Y-84836000D01*
X213614000Y-85344000D02*
X213106000Y-85344000D01*
X213614000Y-90424000D02*
X213106000Y-90424000D01*
X213614000Y-89916000D02*
X213106000Y-89916000D01*
X213614000Y-87884000D02*
X213106000Y-87884000D01*
X213614000Y-87376000D02*
X213106000Y-87376000D01*
X209550000Y-81000000D02*
X208400000Y-81000000D01*
X208400000Y-81000000D02*
X208400000Y-82550000D01*
X216154000Y-82423000D02*
X222123000Y-82423000D01*
X222123000Y-82423000D02*
X222123000Y-82677000D01*
X222123000Y-82677000D02*
X216281000Y-82677000D01*
X216281000Y-82677000D02*
X216281000Y-82550000D01*
X216281000Y-82550000D02*
X222123000Y-82550000D01*
X213614000Y-91440000D02*
X216154000Y-91440000D01*
X213614000Y-91440000D02*
X213614000Y-93980000D01*
X216154000Y-92456000D02*
X222250000Y-92456000D01*
X222250000Y-92456000D02*
X222250000Y-92964000D01*
X222250000Y-92964000D02*
X216154000Y-92964000D01*
X216154000Y-93980000D02*
X216154000Y-91440000D01*
X213614000Y-93980000D02*
X216154000Y-93980000D01*
X213614000Y-86360000D02*
X216154000Y-86360000D01*
X213614000Y-86360000D02*
X213614000Y-88900000D01*
X213614000Y-88900000D02*
X216154000Y-88900000D01*
X216154000Y-87376000D02*
X222250000Y-87376000D01*
X222250000Y-87376000D02*
X222250000Y-87884000D01*
X222250000Y-87884000D02*
X216154000Y-87884000D01*
X216154000Y-88900000D02*
X216154000Y-86360000D01*
X216154000Y-91440000D02*
X216154000Y-88900000D01*
X222250000Y-90424000D02*
X216154000Y-90424000D01*
X222250000Y-89916000D02*
X222250000Y-90424000D01*
X216154000Y-89916000D02*
X222250000Y-89916000D01*
X213614000Y-91440000D02*
X216154000Y-91440000D01*
X213614000Y-88900000D02*
X213614000Y-91440000D01*
X213614000Y-88900000D02*
X216154000Y-88900000D01*
X213614000Y-83820000D02*
X216154000Y-83820000D01*
X213614000Y-83820000D02*
X213614000Y-86360000D01*
X213614000Y-86360000D02*
X216154000Y-86360000D01*
X216154000Y-84836000D02*
X222250000Y-84836000D01*
X222250000Y-84836000D02*
X222250000Y-85344000D01*
X222250000Y-85344000D02*
X216154000Y-85344000D01*
X216154000Y-86360000D02*
X216154000Y-83820000D01*
X216154000Y-83820000D02*
X216154000Y-81280000D01*
X222250000Y-82804000D02*
X216154000Y-82804000D01*
X222250000Y-82296000D02*
X222250000Y-82804000D01*
X216154000Y-82296000D02*
X222250000Y-82296000D01*
X213614000Y-83820000D02*
X216154000Y-83820000D01*
X213614000Y-81280000D02*
X213614000Y-83820000D01*
X213614000Y-81280000D02*
X216154000Y-81280000D01*
X154686000Y-94361000D02*
X155194000Y-94361000D01*
X154686000Y-94869000D02*
X155194000Y-94869000D01*
X154686000Y-96901000D02*
X155194000Y-96901000D01*
X154686000Y-97409000D02*
X155194000Y-97409000D01*
X152146000Y-97409000D02*
X152654000Y-97409000D01*
X152146000Y-96901000D02*
X152654000Y-96901000D01*
X152146000Y-94869000D02*
X152654000Y-94869000D01*
X152146000Y-94361000D02*
X152654000Y-94361000D01*
X156210000Y-98705000D02*
X157360000Y-98705000D01*
X157360000Y-98705000D02*
X157360000Y-97155000D01*
X149606000Y-97282000D02*
X143637000Y-97282000D01*
X143637000Y-97282000D02*
X143637000Y-97028000D01*
X143637000Y-97028000D02*
X149479000Y-97028000D01*
X149479000Y-97028000D02*
X149479000Y-97155000D01*
X149479000Y-97155000D02*
X143637000Y-97155000D01*
X152146000Y-93345000D02*
X149606000Y-93345000D01*
X152146000Y-95885000D02*
X149606000Y-95885000D01*
X152146000Y-95885000D02*
X152146000Y-93345000D01*
X152146000Y-93345000D02*
X149606000Y-93345000D01*
X149606000Y-94869000D02*
X143510000Y-94869000D01*
X143510000Y-94869000D02*
X143510000Y-94361000D01*
X143510000Y-94361000D02*
X149606000Y-94361000D01*
X149606000Y-93345000D02*
X149606000Y-95885000D01*
X149606000Y-95885000D02*
X149606000Y-98425000D01*
X143510000Y-96901000D02*
X149606000Y-96901000D01*
X143510000Y-97409000D02*
X143510000Y-96901000D01*
X149606000Y-97409000D02*
X143510000Y-97409000D01*
X152146000Y-95885000D02*
X149606000Y-95885000D01*
X152146000Y-98425000D02*
X152146000Y-95885000D01*
X152146000Y-98425000D02*
X149606000Y-98425000D01*
X154970000Y-75845000D02*
X154970000Y-74295000D01*
X153670000Y-75845000D02*
X154970000Y-75845000D01*
X149479000Y-74422000D02*
X143637000Y-74422000D01*
X143637000Y-74422000D02*
X143637000Y-74168000D01*
X143637000Y-74168000D02*
X149479000Y-74168000D01*
X149479000Y-74168000D02*
X149479000Y-74295000D01*
X149479000Y-74295000D02*
X143637000Y-74295000D01*
X152146000Y-74549000D02*
X152527000Y-74549000D01*
X152146000Y-74041000D02*
X152527000Y-74041000D01*
X152146000Y-72009000D02*
X152527000Y-72009000D01*
X152146000Y-71501000D02*
X152527000Y-71501000D01*
X152146000Y-75565000D02*
X149606000Y-75565000D01*
X152146000Y-73025000D02*
X149606000Y-73025000D01*
X152146000Y-73025000D02*
X152146000Y-70485000D01*
X152146000Y-70485000D02*
X149606000Y-70485000D01*
X149606000Y-72009000D02*
X143510000Y-72009000D01*
X143510000Y-72009000D02*
X143510000Y-71501000D01*
X143510000Y-71501000D02*
X149606000Y-71501000D01*
X149606000Y-70485000D02*
X149606000Y-73025000D01*
X149606000Y-73025000D02*
X149606000Y-75565000D01*
X143510000Y-74041000D02*
X149606000Y-74041000D01*
X143510000Y-74549000D02*
X143510000Y-74041000D01*
X149606000Y-74549000D02*
X143510000Y-74549000D01*
X152146000Y-73025000D02*
X149606000Y-73025000D01*
X152146000Y-75565000D02*
X152146000Y-73025000D01*
X154970000Y-60605000D02*
X154970000Y-59055000D01*
X153670000Y-60605000D02*
X154970000Y-60605000D01*
X149479000Y-59182000D02*
X143637000Y-59182000D01*
X143637000Y-59182000D02*
X143637000Y-58928000D01*
X143637000Y-58928000D02*
X149479000Y-58928000D01*
X149479000Y-58928000D02*
X149479000Y-59055000D01*
X149479000Y-59055000D02*
X143637000Y-59055000D01*
X152146000Y-59309000D02*
X152527000Y-59309000D01*
X152146000Y-58801000D02*
X152527000Y-58801000D01*
X152146000Y-56769000D02*
X152527000Y-56769000D01*
X152146000Y-56261000D02*
X152527000Y-56261000D01*
X152146000Y-60325000D02*
X149606000Y-60325000D01*
X152146000Y-57785000D02*
X149606000Y-57785000D01*
X152146000Y-57785000D02*
X152146000Y-55245000D01*
X152146000Y-55245000D02*
X149606000Y-55245000D01*
X149606000Y-56769000D02*
X143510000Y-56769000D01*
X143510000Y-56769000D02*
X143510000Y-56261000D01*
X143510000Y-56261000D02*
X149606000Y-56261000D01*
X149606000Y-55245000D02*
X149606000Y-57785000D01*
X149606000Y-57785000D02*
X149606000Y-60325000D01*
X143510000Y-58801000D02*
X149606000Y-58801000D01*
X143510000Y-59309000D02*
X143510000Y-58801000D01*
X149606000Y-59309000D02*
X143510000Y-59309000D01*
X152146000Y-57785000D02*
X149606000Y-57785000D01*
X152146000Y-60325000D02*
X152146000Y-57785000D01*
X192039240Y-92415360D02*
X192039240Y-93416120D01*
X191538860Y-92915740D02*
X192539620Y-92915740D01*
X196189600Y-94615000D02*
G75*
G03X196189600Y-94615000I-3149600J0D01*
G01*
X163449000Y-88265000D02*
X162052000Y-88265000D01*
X167894000Y-88265000D02*
X169418000Y-88265000D01*
X167513000Y-87503000D02*
X167513000Y-89027000D01*
X167767000Y-87503000D02*
X167767000Y-89027000D01*
X168021000Y-88265000D02*
X168021000Y-89027000D01*
X168021000Y-89027000D02*
X163449000Y-89027000D01*
X163449000Y-89027000D02*
X163449000Y-87503000D01*
X163449000Y-87503000D02*
X168021000Y-87503000D01*
X168021000Y-87503000D02*
X168021000Y-88265000D01*
X181991000Y-94615000D02*
X183388000Y-94615000D01*
X177546000Y-94615000D02*
X176022000Y-94615000D01*
X177927000Y-95377000D02*
X177927000Y-93853000D01*
X177673000Y-95377000D02*
X177673000Y-93853000D01*
X177419000Y-94615000D02*
X177419000Y-93853000D01*
X177419000Y-93853000D02*
X181991000Y-93853000D01*
X181991000Y-93853000D02*
X181991000Y-95377000D01*
X181991000Y-95377000D02*
X177419000Y-95377000D01*
X177419000Y-95377000D02*
X177419000Y-94615000D01*
X160909000Y-69215000D02*
X159512000Y-69215000D01*
X165354000Y-69215000D02*
X166878000Y-69215000D01*
X164973000Y-68453000D02*
X164973000Y-69977000D01*
X165227000Y-68453000D02*
X165227000Y-69977000D01*
X165481000Y-69215000D02*
X165481000Y-69977000D01*
X165481000Y-69977000D02*
X160909000Y-69977000D01*
X160909000Y-69977000D02*
X160909000Y-68453000D01*
X160909000Y-68453000D02*
X165481000Y-68453000D01*
X165481000Y-68453000D02*
X165481000Y-69215000D01*
X165481000Y-66040000D02*
X166878000Y-66040000D01*
X161036000Y-66040000D02*
X159512000Y-66040000D01*
X161417000Y-66802000D02*
X161417000Y-65278000D01*
X161163000Y-66802000D02*
X161163000Y-65278000D01*
X160909000Y-66040000D02*
X160909000Y-65278000D01*
X160909000Y-65278000D02*
X165481000Y-65278000D01*
X165481000Y-65278000D02*
X165481000Y-66802000D01*
X165481000Y-66802000D02*
X160909000Y-66802000D01*
X160909000Y-66802000D02*
X160909000Y-66040000D01*
X163449000Y-85090000D02*
X162052000Y-85090000D01*
X167894000Y-85090000D02*
X169418000Y-85090000D01*
X167513000Y-84328000D02*
X167513000Y-85852000D01*
X167767000Y-84328000D02*
X167767000Y-85852000D01*
X168021000Y-85090000D02*
X168021000Y-85852000D01*
X168021000Y-85852000D02*
X163449000Y-85852000D01*
X163449000Y-85852000D02*
X163449000Y-84328000D01*
X163449000Y-84328000D02*
X168021000Y-84328000D01*
X168021000Y-84328000D02*
X168021000Y-85090000D01*
X181991000Y-85090000D02*
X183388000Y-85090000D01*
X177546000Y-85090000D02*
X176022000Y-85090000D01*
X177927000Y-85852000D02*
X177927000Y-84328000D01*
X177673000Y-85852000D02*
X177673000Y-84328000D01*
X177419000Y-85090000D02*
X177419000Y-84328000D01*
X177419000Y-84328000D02*
X181991000Y-84328000D01*
X181991000Y-84328000D02*
X181991000Y-85852000D01*
X181991000Y-85852000D02*
X177419000Y-85852000D01*
X177419000Y-85852000D02*
X177419000Y-85090000D01*
X160909000Y-78105000D02*
X159512000Y-78105000D01*
X165354000Y-78105000D02*
X166878000Y-78105000D01*
X164973000Y-77343000D02*
X164973000Y-78867000D01*
X165227000Y-77343000D02*
X165227000Y-78867000D01*
X165481000Y-78105000D02*
X165481000Y-78867000D01*
X165481000Y-78867000D02*
X160909000Y-78867000D01*
X160909000Y-78867000D02*
X160909000Y-77343000D01*
X160909000Y-77343000D02*
X165481000Y-77343000D01*
X165481000Y-77343000D02*
X165481000Y-78105000D01*
X173375001Y-79230000D02*
G75*
G03X172575000Y-80030000I1249999J-2050000D01*
G01*
X175874999Y-79230000D02*
G75*
G02X176675000Y-80030000I-1249999J-2050000D01*
G01*
X172586274Y-82554203D02*
G75*
G03X172925000Y-82980000I2038726J1274203D01*
G01*
X176663726Y-82554203D02*
G75*
G02X176325000Y-82980000I-2038726J1274203D01*
G01*
X172925000Y-82980000D02*
X176325000Y-82980000D01*
X165735000Y-60325000D02*
X160655000Y-60325000D01*
X160655000Y-60325000D02*
X160655000Y-57785000D01*
X160655000Y-57785000D02*
X165735000Y-57785000D01*
X165735000Y-57785000D02*
X165735000Y-60325000D01*
X165735000Y-59055000D02*
X167005000Y-59055000D01*
X160655000Y-59055000D02*
X159385000Y-59055000D01*
X168275000Y-95885000D02*
X163195000Y-95885000D01*
X163195000Y-95885000D02*
X163195000Y-93345000D01*
X163195000Y-93345000D02*
X168275000Y-93345000D01*
X168275000Y-93345000D02*
X168275000Y-95885000D01*
X168275000Y-94615000D02*
X169545000Y-94615000D01*
X163195000Y-94615000D02*
X161925000Y-94615000D01*
X168275000Y-92710000D02*
X163195000Y-92710000D01*
X163195000Y-92710000D02*
X163195000Y-90170000D01*
X163195000Y-90170000D02*
X168275000Y-90170000D01*
X168275000Y-90170000D02*
X168275000Y-92710000D01*
X168275000Y-91440000D02*
X169545000Y-91440000D01*
X163195000Y-91440000D02*
X161925000Y-91440000D01*
X177165000Y-90170000D02*
X182245000Y-90170000D01*
X182245000Y-90170000D02*
X182245000Y-92710000D01*
X182245000Y-92710000D02*
X177165000Y-92710000D01*
X177165000Y-92710000D02*
X177165000Y-90170000D01*
X177165000Y-91440000D02*
X175895000Y-91440000D01*
X182245000Y-91440000D02*
X183515000Y-91440000D01*
X160655000Y-61595000D02*
X165735000Y-61595000D01*
X165735000Y-61595000D02*
X165735000Y-64135000D01*
X165735000Y-64135000D02*
X160655000Y-64135000D01*
X160655000Y-64135000D02*
X160655000Y-61595000D01*
X160655000Y-62865000D02*
X159385000Y-62865000D01*
X165735000Y-62865000D02*
X167005000Y-62865000D01*
X177165000Y-86995000D02*
X182245000Y-86995000D01*
X182245000Y-86995000D02*
X182245000Y-89535000D01*
X182245000Y-89535000D02*
X177165000Y-89535000D01*
X177165000Y-89535000D02*
X177165000Y-86995000D01*
X177165000Y-88265000D02*
X175895000Y-88265000D01*
X182245000Y-88265000D02*
X183515000Y-88265000D01*
X189865000Y-80010000D02*
X184785000Y-80010000D01*
X184785000Y-80010000D02*
X184785000Y-77470000D01*
X184785000Y-77470000D02*
X189865000Y-77470000D01*
X189865000Y-77470000D02*
X189865000Y-80010000D01*
X189865000Y-78740000D02*
X191135000Y-78740000D01*
X184785000Y-78740000D02*
X183515000Y-78740000D01*
X186055000Y-69850000D02*
X186055000Y-64770000D01*
X186055000Y-64770000D02*
X188595000Y-64770000D01*
X188595000Y-64770000D02*
X188595000Y-69850000D01*
X188595000Y-69850000D02*
X186055000Y-69850000D01*
X187325000Y-69850000D02*
X187325000Y-71120000D01*
X187325000Y-64770000D02*
X187325000Y-63500000D01*
X189230000Y-69850000D02*
X189230000Y-64770000D01*
X189230000Y-64770000D02*
X191770000Y-64770000D01*
X191770000Y-64770000D02*
X191770000Y-69850000D01*
X191770000Y-69850000D02*
X189230000Y-69850000D01*
X190500000Y-69850000D02*
X190500000Y-71120000D01*
X190500000Y-64770000D02*
X190500000Y-63500000D01*
X192405000Y-69850000D02*
X192405000Y-64770000D01*
X192405000Y-64770000D02*
X194945000Y-64770000D01*
X194945000Y-64770000D02*
X194945000Y-69850000D01*
X194945000Y-69850000D02*
X192405000Y-69850000D01*
X193675000Y-69850000D02*
X193675000Y-71120000D01*
X193675000Y-64770000D02*
X193675000Y-63500000D01*
X195580000Y-69850000D02*
X195580000Y-64770000D01*
X195580000Y-64770000D02*
X198120000Y-64770000D01*
X198120000Y-64770000D02*
X198120000Y-69850000D01*
X198120000Y-69850000D02*
X195580000Y-69850000D01*
X196850000Y-69850000D02*
X196850000Y-71120000D01*
X196850000Y-64770000D02*
X196850000Y-63500000D01*
X198755000Y-69850000D02*
X198755000Y-64770000D01*
X198755000Y-64770000D02*
X201295000Y-64770000D01*
X201295000Y-64770000D02*
X201295000Y-69850000D01*
X201295000Y-69850000D02*
X198755000Y-69850000D01*
X200025000Y-69850000D02*
X200025000Y-71120000D01*
X200025000Y-64770000D02*
X200025000Y-63500000D01*
X201930000Y-69850000D02*
X201930000Y-64770000D01*
X201930000Y-64770000D02*
X204470000Y-64770000D01*
X204470000Y-64770000D02*
X204470000Y-69850000D01*
X204470000Y-69850000D02*
X201930000Y-69850000D01*
X203200000Y-69850000D02*
X203200000Y-71120000D01*
X203200000Y-64770000D02*
X203200000Y-63500000D01*
X160655000Y-73025000D02*
X165735000Y-73025000D01*
X165735000Y-73025000D02*
X165735000Y-75565000D01*
X165735000Y-75565000D02*
X160655000Y-75565000D01*
X160655000Y-75565000D02*
X160655000Y-73025000D01*
X160655000Y-74295000D02*
X159385000Y-74295000D01*
X165735000Y-74295000D02*
X167005000Y-74295000D01*
X213177381Y-80113095D02*
X212177381Y-80113095D01*
X212177381Y-79732142D01*
X212225000Y-79636904D01*
X212272619Y-79589285D01*
X212367857Y-79541666D01*
X212510714Y-79541666D01*
X212605952Y-79589285D01*
X212653571Y-79636904D01*
X212701190Y-79732142D01*
X212701190Y-80113095D01*
X212272619Y-79160714D02*
X212225000Y-79113095D01*
X212177381Y-79017857D01*
X212177381Y-78779761D01*
X212225000Y-78684523D01*
X212272619Y-78636904D01*
X212367857Y-78589285D01*
X212463095Y-78589285D01*
X212605952Y-78636904D01*
X213177381Y-79208333D01*
X213177381Y-78589285D01*
X154201905Y-100782381D02*
X154201905Y-99782381D01*
X154582858Y-99782381D01*
X154678096Y-99830000D01*
X154725715Y-99877619D01*
X154773334Y-99972857D01*
X154773334Y-100115714D01*
X154725715Y-100210952D01*
X154678096Y-100258571D01*
X154582858Y-100306190D01*
X154201905Y-100306190D01*
X155678096Y-99782381D02*
X155201905Y-99782381D01*
X155154286Y-100258571D01*
X155201905Y-100210952D01*
X155297143Y-100163333D01*
X155535239Y-100163333D01*
X155630477Y-100210952D01*
X155678096Y-100258571D01*
X155725715Y-100353810D01*
X155725715Y-100591905D01*
X155678096Y-100687143D01*
X155630477Y-100734762D01*
X155535239Y-100782381D01*
X155297143Y-100782381D01*
X155201905Y-100734762D01*
X155154286Y-100687143D01*
X152931905Y-77922381D02*
X152931905Y-76922381D01*
X153312858Y-76922381D01*
X153408096Y-76970000D01*
X153455715Y-77017619D01*
X153503334Y-77112857D01*
X153503334Y-77255714D01*
X153455715Y-77350952D01*
X153408096Y-77398571D01*
X153312858Y-77446190D01*
X152931905Y-77446190D01*
X154360477Y-76922381D02*
X154170000Y-76922381D01*
X154074762Y-76970000D01*
X154027143Y-77017619D01*
X153931905Y-77160476D01*
X153884286Y-77350952D01*
X153884286Y-77731905D01*
X153931905Y-77827143D01*
X153979524Y-77874762D01*
X154074762Y-77922381D01*
X154265239Y-77922381D01*
X154360477Y-77874762D01*
X154408096Y-77827143D01*
X154455715Y-77731905D01*
X154455715Y-77493810D01*
X154408096Y-77398571D01*
X154360477Y-77350952D01*
X154265239Y-77303333D01*
X154074762Y-77303333D01*
X153979524Y-77350952D01*
X153931905Y-77398571D01*
X153884286Y-77493810D01*
X152931905Y-62682381D02*
X152931905Y-61682381D01*
X153312858Y-61682381D01*
X153408096Y-61730000D01*
X153455715Y-61777619D01*
X153503334Y-61872857D01*
X153503334Y-62015714D01*
X153455715Y-62110952D01*
X153408096Y-62158571D01*
X153312858Y-62206190D01*
X152931905Y-62206190D01*
X153836667Y-61682381D02*
X154503334Y-61682381D01*
X154074762Y-62682381D01*
X196048334Y-91797143D02*
X196000715Y-91844762D01*
X195857858Y-91892381D01*
X195762620Y-91892381D01*
X195619762Y-91844762D01*
X195524524Y-91749524D01*
X195476905Y-91654286D01*
X195429286Y-91463810D01*
X195429286Y-91320952D01*
X195476905Y-91130476D01*
X195524524Y-91035238D01*
X195619762Y-90940000D01*
X195762620Y-90892381D01*
X195857858Y-90892381D01*
X196000715Y-90940000D01*
X196048334Y-90987619D01*
X196429286Y-90987619D02*
X196476905Y-90940000D01*
X196572143Y-90892381D01*
X196810239Y-90892381D01*
X196905477Y-90940000D01*
X196953096Y-90987619D01*
X197000715Y-91082857D01*
X197000715Y-91178095D01*
X196953096Y-91320952D01*
X196381667Y-91892381D01*
X197000715Y-91892381D01*
X157376905Y-88717381D02*
X157376905Y-87717381D01*
X157615000Y-87717381D01*
X157757858Y-87765000D01*
X157853096Y-87860238D01*
X157900715Y-87955476D01*
X157948334Y-88145952D01*
X157948334Y-88288810D01*
X157900715Y-88479286D01*
X157853096Y-88574524D01*
X157757858Y-88669762D01*
X157615000Y-88717381D01*
X157376905Y-88717381D01*
X158900715Y-88717381D02*
X158329286Y-88717381D01*
X158615000Y-88717381D02*
X158615000Y-87717381D01*
X158519762Y-87860238D01*
X158424524Y-87955476D01*
X158329286Y-88003095D01*
X178966905Y-96972381D02*
X178966905Y-95972381D01*
X179205000Y-95972381D01*
X179347858Y-96020000D01*
X179443096Y-96115238D01*
X179490715Y-96210476D01*
X179538334Y-96400952D01*
X179538334Y-96543810D01*
X179490715Y-96734286D01*
X179443096Y-96829524D01*
X179347858Y-96924762D01*
X179205000Y-96972381D01*
X178966905Y-96972381D01*
X179919286Y-96067619D02*
X179966905Y-96020000D01*
X180062143Y-95972381D01*
X180300239Y-95972381D01*
X180395477Y-96020000D01*
X180443096Y-96067619D01*
X180490715Y-96162857D01*
X180490715Y-96258095D01*
X180443096Y-96400952D01*
X179871667Y-96972381D01*
X180490715Y-96972381D01*
X170076905Y-69667381D02*
X170076905Y-68667381D01*
X170315000Y-68667381D01*
X170457858Y-68715000D01*
X170553096Y-68810238D01*
X170600715Y-68905476D01*
X170648334Y-69095952D01*
X170648334Y-69238810D01*
X170600715Y-69429286D01*
X170553096Y-69524524D01*
X170457858Y-69619762D01*
X170315000Y-69667381D01*
X170076905Y-69667381D01*
X170981667Y-68667381D02*
X171600715Y-68667381D01*
X171267381Y-69048333D01*
X171410239Y-69048333D01*
X171505477Y-69095952D01*
X171553096Y-69143571D01*
X171600715Y-69238810D01*
X171600715Y-69476905D01*
X171553096Y-69572143D01*
X171505477Y-69619762D01*
X171410239Y-69667381D01*
X171124524Y-69667381D01*
X171029286Y-69619762D01*
X170981667Y-69572143D01*
X170076905Y-66492381D02*
X170076905Y-65492381D01*
X170315000Y-65492381D01*
X170457858Y-65540000D01*
X170553096Y-65635238D01*
X170600715Y-65730476D01*
X170648334Y-65920952D01*
X170648334Y-66063810D01*
X170600715Y-66254286D01*
X170553096Y-66349524D01*
X170457858Y-66444762D01*
X170315000Y-66492381D01*
X170076905Y-66492381D01*
X171505477Y-65825714D02*
X171505477Y-66492381D01*
X171267381Y-65444762D02*
X171029286Y-66159048D01*
X171648334Y-66159048D01*
X157376905Y-85542381D02*
X157376905Y-84542381D01*
X157615000Y-84542381D01*
X157757858Y-84590000D01*
X157853096Y-84685238D01*
X157900715Y-84780476D01*
X157948334Y-84970952D01*
X157948334Y-85113810D01*
X157900715Y-85304286D01*
X157853096Y-85399524D01*
X157757858Y-85494762D01*
X157615000Y-85542381D01*
X157376905Y-85542381D01*
X158853096Y-84542381D02*
X158376905Y-84542381D01*
X158329286Y-85018571D01*
X158376905Y-84970952D01*
X158472143Y-84923333D01*
X158710239Y-84923333D01*
X158805477Y-84970952D01*
X158853096Y-85018571D01*
X158900715Y-85113810D01*
X158900715Y-85351905D01*
X158853096Y-85447143D01*
X158805477Y-85494762D01*
X158710239Y-85542381D01*
X158472143Y-85542381D01*
X158376905Y-85494762D01*
X158329286Y-85447143D01*
X187221905Y-85542381D02*
X187221905Y-84542381D01*
X187460000Y-84542381D01*
X187602858Y-84590000D01*
X187698096Y-84685238D01*
X187745715Y-84780476D01*
X187793334Y-84970952D01*
X187793334Y-85113810D01*
X187745715Y-85304286D01*
X187698096Y-85399524D01*
X187602858Y-85494762D01*
X187460000Y-85542381D01*
X187221905Y-85542381D01*
X188650477Y-84542381D02*
X188460000Y-84542381D01*
X188364762Y-84590000D01*
X188317143Y-84637619D01*
X188221905Y-84780476D01*
X188174286Y-84970952D01*
X188174286Y-85351905D01*
X188221905Y-85447143D01*
X188269524Y-85494762D01*
X188364762Y-85542381D01*
X188555239Y-85542381D01*
X188650477Y-85494762D01*
X188698096Y-85447143D01*
X188745715Y-85351905D01*
X188745715Y-85113810D01*
X188698096Y-85018571D01*
X188650477Y-84970952D01*
X188555239Y-84923333D01*
X188364762Y-84923333D01*
X188269524Y-84970952D01*
X188221905Y-85018571D01*
X188174286Y-85113810D01*
X159281905Y-80462381D02*
X159281905Y-79462381D01*
X159520000Y-79462381D01*
X159662858Y-79510000D01*
X159758096Y-79605238D01*
X159805715Y-79700476D01*
X159853334Y-79890952D01*
X159853334Y-80033810D01*
X159805715Y-80224286D01*
X159758096Y-80319524D01*
X159662858Y-80414762D01*
X159520000Y-80462381D01*
X159281905Y-80462381D01*
X160186667Y-79462381D02*
X160853334Y-79462381D01*
X160424762Y-80462381D01*
X177069762Y-76747619D02*
X176974524Y-76700000D01*
X176879286Y-76604762D01*
X176736429Y-76461905D01*
X176641190Y-76414286D01*
X176545952Y-76414286D01*
X176593571Y-76652381D02*
X176498333Y-76604762D01*
X176403095Y-76509524D01*
X176355476Y-76319048D01*
X176355476Y-75985714D01*
X176403095Y-75795238D01*
X176498333Y-75700000D01*
X176593571Y-75652381D01*
X176784048Y-75652381D01*
X176879286Y-75700000D01*
X176974524Y-75795238D01*
X177022143Y-75985714D01*
X177022143Y-76319048D01*
X176974524Y-76509524D01*
X176879286Y-76604762D01*
X176784048Y-76652381D01*
X176593571Y-76652381D01*
X177974524Y-76652381D02*
X177403095Y-76652381D01*
X177688809Y-76652381D02*
X177688809Y-75652381D01*
X177593571Y-75795238D01*
X177498333Y-75890476D01*
X177403095Y-75938095D01*
X170648334Y-63317381D02*
X170315000Y-62841190D01*
X170076905Y-63317381D02*
X170076905Y-62317381D01*
X170457858Y-62317381D01*
X170553096Y-62365000D01*
X170600715Y-62412619D01*
X170648334Y-62507857D01*
X170648334Y-62650714D01*
X170600715Y-62745952D01*
X170553096Y-62793571D01*
X170457858Y-62841190D01*
X170076905Y-62841190D01*
X171600715Y-63317381D02*
X171029286Y-63317381D01*
X171315000Y-63317381D02*
X171315000Y-62317381D01*
X171219762Y-62460238D01*
X171124524Y-62555476D01*
X171029286Y-62603095D01*
X165568334Y-97607381D02*
X165235000Y-97131190D01*
X164996905Y-97607381D02*
X164996905Y-96607381D01*
X165377858Y-96607381D01*
X165473096Y-96655000D01*
X165520715Y-96702619D01*
X165568334Y-96797857D01*
X165568334Y-96940714D01*
X165520715Y-97035952D01*
X165473096Y-97083571D01*
X165377858Y-97131190D01*
X164996905Y-97131190D01*
X165949286Y-96702619D02*
X165996905Y-96655000D01*
X166092143Y-96607381D01*
X166330239Y-96607381D01*
X166425477Y-96655000D01*
X166473096Y-96702619D01*
X166520715Y-96797857D01*
X166520715Y-96893095D01*
X166473096Y-97035952D01*
X165901667Y-97607381D01*
X166520715Y-97607381D01*
X157948334Y-91892381D02*
X157615000Y-91416190D01*
X157376905Y-91892381D02*
X157376905Y-90892381D01*
X157757858Y-90892381D01*
X157853096Y-90940000D01*
X157900715Y-90987619D01*
X157948334Y-91082857D01*
X157948334Y-91225714D01*
X157900715Y-91320952D01*
X157853096Y-91368571D01*
X157757858Y-91416190D01*
X157376905Y-91416190D01*
X158281667Y-90892381D02*
X158900715Y-90892381D01*
X158567381Y-91273333D01*
X158710239Y-91273333D01*
X158805477Y-91320952D01*
X158853096Y-91368571D01*
X158900715Y-91463810D01*
X158900715Y-91701905D01*
X158853096Y-91797143D01*
X158805477Y-91844762D01*
X158710239Y-91892381D01*
X158424524Y-91892381D01*
X158329286Y-91844762D01*
X158281667Y-91797143D01*
X187793334Y-91892381D02*
X187460000Y-91416190D01*
X187221905Y-91892381D02*
X187221905Y-90892381D01*
X187602858Y-90892381D01*
X187698096Y-90940000D01*
X187745715Y-90987619D01*
X187793334Y-91082857D01*
X187793334Y-91225714D01*
X187745715Y-91320952D01*
X187698096Y-91368571D01*
X187602858Y-91416190D01*
X187221905Y-91416190D01*
X188650477Y-91225714D02*
X188650477Y-91892381D01*
X188412381Y-90844762D02*
X188174286Y-91559048D01*
X188793334Y-91559048D01*
X170648334Y-59507381D02*
X170315000Y-59031190D01*
X170076905Y-59507381D02*
X170076905Y-58507381D01*
X170457858Y-58507381D01*
X170553096Y-58555000D01*
X170600715Y-58602619D01*
X170648334Y-58697857D01*
X170648334Y-58840714D01*
X170600715Y-58935952D01*
X170553096Y-58983571D01*
X170457858Y-59031190D01*
X170076905Y-59031190D01*
X171553096Y-58507381D02*
X171076905Y-58507381D01*
X171029286Y-58983571D01*
X171076905Y-58935952D01*
X171172143Y-58888333D01*
X171410239Y-58888333D01*
X171505477Y-58935952D01*
X171553096Y-58983571D01*
X171600715Y-59078810D01*
X171600715Y-59316905D01*
X171553096Y-59412143D01*
X171505477Y-59459762D01*
X171410239Y-59507381D01*
X171172143Y-59507381D01*
X171076905Y-59459762D01*
X171029286Y-59412143D01*
X187793334Y-88717381D02*
X187460000Y-88241190D01*
X187221905Y-88717381D02*
X187221905Y-87717381D01*
X187602858Y-87717381D01*
X187698096Y-87765000D01*
X187745715Y-87812619D01*
X187793334Y-87907857D01*
X187793334Y-88050714D01*
X187745715Y-88145952D01*
X187698096Y-88193571D01*
X187602858Y-88241190D01*
X187221905Y-88241190D01*
X188650477Y-87717381D02*
X188460000Y-87717381D01*
X188364762Y-87765000D01*
X188317143Y-87812619D01*
X188221905Y-87955476D01*
X188174286Y-88145952D01*
X188174286Y-88526905D01*
X188221905Y-88622143D01*
X188269524Y-88669762D01*
X188364762Y-88717381D01*
X188555239Y-88717381D01*
X188650477Y-88669762D01*
X188698096Y-88622143D01*
X188745715Y-88526905D01*
X188745715Y-88288810D01*
X188698096Y-88193571D01*
X188650477Y-88145952D01*
X188555239Y-88098333D01*
X188364762Y-88098333D01*
X188269524Y-88145952D01*
X188221905Y-88193571D01*
X188174286Y-88288810D01*
X183983334Y-76652381D02*
X183650000Y-76176190D01*
X183411905Y-76652381D02*
X183411905Y-75652381D01*
X183792858Y-75652381D01*
X183888096Y-75700000D01*
X183935715Y-75747619D01*
X183983334Y-75842857D01*
X183983334Y-75985714D01*
X183935715Y-76080952D01*
X183888096Y-76128571D01*
X183792858Y-76176190D01*
X183411905Y-76176190D01*
X184459524Y-76652381D02*
X184650000Y-76652381D01*
X184745239Y-76604762D01*
X184792858Y-76557143D01*
X184888096Y-76414286D01*
X184935715Y-76223810D01*
X184935715Y-75842857D01*
X184888096Y-75747619D01*
X184840477Y-75700000D01*
X184745239Y-75652381D01*
X184554762Y-75652381D01*
X184459524Y-75700000D01*
X184411905Y-75747619D01*
X184364286Y-75842857D01*
X184364286Y-76080952D01*
X184411905Y-76176190D01*
X184459524Y-76223810D01*
X184554762Y-76271429D01*
X184745239Y-76271429D01*
X184840477Y-76223810D01*
X184888096Y-76176190D01*
X184935715Y-76080952D01*
X187777381Y-59697857D02*
X187301190Y-60031191D01*
X187777381Y-60269286D02*
X186777381Y-60269286D01*
X186777381Y-59888333D01*
X186825000Y-59793095D01*
X186872619Y-59745476D01*
X186967857Y-59697857D01*
X187110714Y-59697857D01*
X187205952Y-59745476D01*
X187253571Y-59793095D01*
X187301190Y-59888333D01*
X187301190Y-60269286D01*
X187777381Y-58745476D02*
X187777381Y-59316905D01*
X187777381Y-59031191D02*
X186777381Y-59031191D01*
X186920238Y-59126429D01*
X187015476Y-59221667D01*
X187063095Y-59316905D01*
X186777381Y-58126429D02*
X186777381Y-58031190D01*
X186825000Y-57935952D01*
X186872619Y-57888333D01*
X186967857Y-57840714D01*
X187158333Y-57793095D01*
X187396429Y-57793095D01*
X187586905Y-57840714D01*
X187682143Y-57888333D01*
X187729762Y-57935952D01*
X187777381Y-58031190D01*
X187777381Y-58126429D01*
X187729762Y-58221667D01*
X187682143Y-58269286D01*
X187586905Y-58316905D01*
X187396429Y-58364524D01*
X187158333Y-58364524D01*
X186967857Y-58316905D01*
X186872619Y-58269286D01*
X186825000Y-58221667D01*
X186777381Y-58126429D01*
X190952381Y-59697857D02*
X190476190Y-60031191D01*
X190952381Y-60269286D02*
X189952381Y-60269286D01*
X189952381Y-59888333D01*
X190000000Y-59793095D01*
X190047619Y-59745476D01*
X190142857Y-59697857D01*
X190285714Y-59697857D01*
X190380952Y-59745476D01*
X190428571Y-59793095D01*
X190476190Y-59888333D01*
X190476190Y-60269286D01*
X190952381Y-58745476D02*
X190952381Y-59316905D01*
X190952381Y-59031191D02*
X189952381Y-59031191D01*
X190095238Y-59126429D01*
X190190476Y-59221667D01*
X190238095Y-59316905D01*
X190952381Y-57793095D02*
X190952381Y-58364524D01*
X190952381Y-58078810D02*
X189952381Y-58078810D01*
X190095238Y-58174048D01*
X190190476Y-58269286D01*
X190238095Y-58364524D01*
X194127381Y-59697857D02*
X193651190Y-60031191D01*
X194127381Y-60269286D02*
X193127381Y-60269286D01*
X193127381Y-59888333D01*
X193175000Y-59793095D01*
X193222619Y-59745476D01*
X193317857Y-59697857D01*
X193460714Y-59697857D01*
X193555952Y-59745476D01*
X193603571Y-59793095D01*
X193651190Y-59888333D01*
X193651190Y-60269286D01*
X194127381Y-58745476D02*
X194127381Y-59316905D01*
X194127381Y-59031191D02*
X193127381Y-59031191D01*
X193270238Y-59126429D01*
X193365476Y-59221667D01*
X193413095Y-59316905D01*
X193222619Y-58364524D02*
X193175000Y-58316905D01*
X193127381Y-58221667D01*
X193127381Y-57983571D01*
X193175000Y-57888333D01*
X193222619Y-57840714D01*
X193317857Y-57793095D01*
X193413095Y-57793095D01*
X193555952Y-57840714D01*
X194127381Y-58412143D01*
X194127381Y-57793095D01*
X197302381Y-59697857D02*
X196826190Y-60031191D01*
X197302381Y-60269286D02*
X196302381Y-60269286D01*
X196302381Y-59888333D01*
X196350000Y-59793095D01*
X196397619Y-59745476D01*
X196492857Y-59697857D01*
X196635714Y-59697857D01*
X196730952Y-59745476D01*
X196778571Y-59793095D01*
X196826190Y-59888333D01*
X196826190Y-60269286D01*
X197302381Y-58745476D02*
X197302381Y-59316905D01*
X197302381Y-59031191D02*
X196302381Y-59031191D01*
X196445238Y-59126429D01*
X196540476Y-59221667D01*
X196588095Y-59316905D01*
X196302381Y-58412143D02*
X196302381Y-57793095D01*
X196683333Y-58126429D01*
X196683333Y-57983571D01*
X196730952Y-57888333D01*
X196778571Y-57840714D01*
X196873810Y-57793095D01*
X197111905Y-57793095D01*
X197207143Y-57840714D01*
X197254762Y-57888333D01*
X197302381Y-57983571D01*
X197302381Y-58269286D01*
X197254762Y-58364524D01*
X197207143Y-58412143D01*
X200477381Y-59697857D02*
X200001190Y-60031191D01*
X200477381Y-60269286D02*
X199477381Y-60269286D01*
X199477381Y-59888333D01*
X199525000Y-59793095D01*
X199572619Y-59745476D01*
X199667857Y-59697857D01*
X199810714Y-59697857D01*
X199905952Y-59745476D01*
X199953571Y-59793095D01*
X200001190Y-59888333D01*
X200001190Y-60269286D01*
X200477381Y-58745476D02*
X200477381Y-59316905D01*
X200477381Y-59031191D02*
X199477381Y-59031191D01*
X199620238Y-59126429D01*
X199715476Y-59221667D01*
X199763095Y-59316905D01*
X199810714Y-57888333D02*
X200477381Y-57888333D01*
X199429762Y-58126429D02*
X200144048Y-58364524D01*
X200144048Y-57745476D01*
X203652381Y-59697857D02*
X203176190Y-60031191D01*
X203652381Y-60269286D02*
X202652381Y-60269286D01*
X202652381Y-59888333D01*
X202700000Y-59793095D01*
X202747619Y-59745476D01*
X202842857Y-59697857D01*
X202985714Y-59697857D01*
X203080952Y-59745476D01*
X203128571Y-59793095D01*
X203176190Y-59888333D01*
X203176190Y-60269286D01*
X203652381Y-58745476D02*
X203652381Y-59316905D01*
X203652381Y-59031191D02*
X202652381Y-59031191D01*
X202795238Y-59126429D01*
X202890476Y-59221667D01*
X202938095Y-59316905D01*
X202652381Y-57840714D02*
X202652381Y-58316905D01*
X203128571Y-58364524D01*
X203080952Y-58316905D01*
X203033333Y-58221667D01*
X203033333Y-57983571D01*
X203080952Y-57888333D01*
X203128571Y-57840714D01*
X203223810Y-57793095D01*
X203461905Y-57793095D01*
X203557143Y-57840714D01*
X203604762Y-57888333D01*
X203652381Y-57983571D01*
X203652381Y-58221667D01*
X203604762Y-58316905D01*
X203557143Y-58364524D01*
X170807143Y-74747381D02*
X170473809Y-74271190D01*
X170235714Y-74747381D02*
X170235714Y-73747381D01*
X170616667Y-73747381D01*
X170711905Y-73795000D01*
X170759524Y-73842619D01*
X170807143Y-73937857D01*
X170807143Y-74080714D01*
X170759524Y-74175952D01*
X170711905Y-74223571D01*
X170616667Y-74271190D01*
X170235714Y-74271190D01*
X171759524Y-74747381D02*
X171188095Y-74747381D01*
X171473809Y-74747381D02*
X171473809Y-73747381D01*
X171378571Y-73890238D01*
X171283333Y-73985476D01*
X171188095Y-74033095D01*
X172616667Y-73747381D02*
X172426190Y-73747381D01*
X172330952Y-73795000D01*
X172283333Y-73842619D01*
X172188095Y-73985476D01*
X172140476Y-74175952D01*
X172140476Y-74556905D01*
X172188095Y-74652143D01*
X172235714Y-74699762D01*
X172330952Y-74747381D01*
X172521429Y-74747381D01*
X172616667Y-74699762D01*
X172664286Y-74652143D01*
X172711905Y-74556905D01*
X172711905Y-74318810D01*
X172664286Y-74223571D01*
X172616667Y-74175952D01*
X172521429Y-74128333D01*
X172330952Y-74128333D01*
X172235714Y-74175952D01*
X172188095Y-74223571D01*
X172140476Y-74318810D01*
M02*
