%FSLAX45Y45*%
G04 Gerber Fmt 4.5, Leading zero omitted, Abs format (unit mm)*
G04 Created by KiCad (PCBNEW (after 2015-mar-04 BZR unknown)-product) date Fri 28 Oct 2016 11:36:10 AM CEST*
%MOMM*%
G01*
G04 APERTURE LIST*
%ADD10C,0.127000*%
%ADD11C,0.100000*%
%ADD12C,0.200000*%
%ADD13C,0.300000*%
G04 APERTURE END LIST*
D10*
D11*
X14833600Y-10515600D02*
X14833600Y-5156200D01*
X21742400Y-10515600D02*
X14833600Y-10515600D01*
X21742400Y-5156200D02*
X21742400Y-10515600D01*
X14833600Y-5156200D02*
X21742400Y-5156200D01*
D12*
X15816940Y-9507580D02*
X15861940Y-9552580D01*
X15861940Y-9507580D02*
X15816940Y-9552580D01*
X17249500Y-9248500D02*
X17294500Y-9293500D01*
X17294500Y-9248500D02*
X17249500Y-9293500D01*
X17351100Y-6759300D02*
X17396100Y-6804300D01*
X17396100Y-6759300D02*
X17351100Y-6804300D01*
X17851480Y-5786480D02*
X17896480Y-5831480D01*
X17896480Y-5786480D02*
X17851480Y-5831480D01*
X17859100Y-6759300D02*
X17904100Y-6804300D01*
X17904100Y-6759300D02*
X17859100Y-6804300D01*
X17884500Y-9121500D02*
X17929500Y-9166500D01*
X17929500Y-9121500D02*
X17884500Y-9166500D01*
X17884500Y-9439000D02*
X17929500Y-9484000D01*
X17929500Y-9439000D02*
X17884500Y-9484000D01*
X17884500Y-9439000D02*
X17929500Y-9484000D01*
X17929500Y-9439000D02*
X17884500Y-9484000D01*
X18102940Y-5786480D02*
X18147940Y-5831480D01*
X18147940Y-5786480D02*
X18102940Y-5831480D01*
X18456000Y-9896200D02*
X18501000Y-9941200D01*
X18501000Y-9896200D02*
X18456000Y-9941200D01*
X19192600Y-6899000D02*
X19237600Y-6944000D01*
X19237600Y-6899000D02*
X19192600Y-6944000D01*
X19510100Y-6899000D02*
X19555100Y-6944000D01*
X19555100Y-6899000D02*
X19510100Y-6944000D01*
X19814900Y-7038700D02*
X19859900Y-7083700D01*
X19859900Y-7038700D02*
X19814900Y-7083700D01*
X19814900Y-9947000D02*
X19859900Y-9992000D01*
X19859900Y-9947000D02*
X19814900Y-9992000D01*
X20018100Y-5654400D02*
X20063100Y-5699400D01*
X20063100Y-5654400D02*
X20018100Y-5699400D01*
X20145100Y-7051400D02*
X20190100Y-7096400D01*
X20190100Y-7051400D02*
X20145100Y-7096400D01*
X20297500Y-5654400D02*
X20342500Y-5699400D01*
X20342500Y-5654400D02*
X20297500Y-5699400D01*
X20615000Y-8613500D02*
X20660000Y-8658500D01*
X20660000Y-8613500D02*
X20615000Y-8658500D01*
X20615000Y-8867500D02*
X20660000Y-8912500D01*
X20660000Y-8867500D02*
X20615000Y-8912500D01*
X20615000Y-9121500D02*
X20660000Y-9166500D01*
X20660000Y-9121500D02*
X20615000Y-9166500D01*
X20932500Y-7826100D02*
X20977500Y-7871100D01*
X20977500Y-7826100D02*
X20932500Y-7871100D01*
X21186500Y-7572100D02*
X21231500Y-7617100D01*
X21231500Y-7572100D02*
X21186500Y-7617100D01*
X15846552Y-6604000D02*
G75*
G03X15846552Y-6604000I-35052J0D01*
G01*
X15846552Y-6921500D02*
G75*
G03X15846552Y-6921500I-35052J0D01*
G01*
X15846552Y-7810500D02*
G75*
G03X15846552Y-7810500I-35052J0D01*
G01*
X16100552Y-8509000D02*
G75*
G03X16100552Y-8509000I-35052J0D01*
G01*
X16100552Y-8826500D02*
G75*
G03X16100552Y-8826500I-35052J0D01*
G01*
X16862552Y-6604000D02*
G75*
G03X16862552Y-6604000I-35052J0D01*
G01*
X16862552Y-6921500D02*
G75*
G03X16862552Y-6921500I-35052J0D01*
G01*
X16862552Y-7810500D02*
G75*
G03X16862552Y-7810500I-35052J0D01*
G01*
X17116552Y-8509000D02*
G75*
G03X17116552Y-8509000I-35052J0D01*
G01*
X17116552Y-8826500D02*
G75*
G03X17116552Y-8826500I-35052J0D01*
G01*
X17497552Y-8509000D02*
G75*
G03X17497552Y-8509000I-35052J0D01*
G01*
X17497552Y-9461500D02*
G75*
G03X17497552Y-9461500I-35052J0D01*
G01*
X18513552Y-8509000D02*
G75*
G03X18513552Y-8509000I-35052J0D01*
G01*
X18513552Y-9461500D02*
G75*
G03X18513552Y-9461500I-35052J0D01*
G01*
X19177000Y-9421495D02*
X19177000Y-9501505D01*
X19136995Y-9461500D02*
X19217005Y-9461500D01*
X19431000Y-9421495D02*
X19431000Y-9501505D01*
X19390995Y-9461500D02*
X19471005Y-9461500D01*
X17243856Y-8163356D02*
X17243856Y-8092644D01*
X17173144Y-8092644D01*
X17173144Y-8163356D01*
X17243856Y-8163356D01*
X17497856Y-7909356D02*
X17497856Y-7838644D01*
X17427144Y-7838644D01*
X17427144Y-7909356D01*
X17497856Y-7909356D01*
X17751856Y-8163356D02*
X17751856Y-8092644D01*
X17681144Y-8092644D01*
X17681144Y-8163356D01*
X17751856Y-8163356D01*
X15811500Y-5955538D02*
X15861538Y-5905500D01*
X15811500Y-5855462D01*
X15761462Y-5905500D01*
X15811500Y-5955538D01*
X15811500Y-6336538D02*
X15861538Y-6286500D01*
X15811500Y-6236462D01*
X15761462Y-6286500D01*
X15811500Y-6336538D01*
X15811500Y-7479538D02*
X15861538Y-7429500D01*
X15811500Y-7379462D01*
X15761462Y-7429500D01*
X15811500Y-7479538D01*
X16065500Y-9194038D02*
X16115538Y-9144000D01*
X16065500Y-9093962D01*
X16015462Y-9144000D01*
X16065500Y-9194038D01*
X16065500Y-9511538D02*
X16115538Y-9461500D01*
X16065500Y-9411462D01*
X16015462Y-9461500D01*
X16065500Y-9511538D01*
X16827500Y-5955538D02*
X16877538Y-5905500D01*
X16827500Y-5855462D01*
X16777462Y-5905500D01*
X16827500Y-5955538D01*
X16827500Y-6336538D02*
X16877538Y-6286500D01*
X16827500Y-6236462D01*
X16777462Y-6286500D01*
X16827500Y-6336538D01*
X16827500Y-7479538D02*
X16877538Y-7429500D01*
X16827500Y-7379462D01*
X16777462Y-7429500D01*
X16827500Y-7479538D01*
X17081500Y-9194038D02*
X17131538Y-9144000D01*
X17081500Y-9093962D01*
X17031462Y-9144000D01*
X17081500Y-9194038D01*
X17081500Y-9511538D02*
X17131538Y-9461500D01*
X17081500Y-9411462D01*
X17031462Y-9461500D01*
X17081500Y-9511538D01*
X17462500Y-8876538D02*
X17512538Y-8826500D01*
X17462500Y-8776462D01*
X17412462Y-8826500D01*
X17462500Y-8876538D01*
X17462500Y-9194038D02*
X17512538Y-9144000D01*
X17462500Y-9093962D01*
X17412462Y-9144000D01*
X17462500Y-9194038D01*
X18224500Y-7924038D02*
X18274538Y-7874000D01*
X18224500Y-7823962D01*
X18174462Y-7874000D01*
X18224500Y-7924038D01*
X18478500Y-8876538D02*
X18528538Y-8826500D01*
X18478500Y-8776462D01*
X18428462Y-8826500D01*
X18478500Y-8876538D01*
X18478500Y-9194038D02*
X18528538Y-9144000D01*
X18478500Y-9093962D01*
X18428462Y-9144000D01*
X18478500Y-9194038D01*
X18732500Y-6273038D02*
X18782538Y-6223000D01*
X18732500Y-6172962D01*
X18682462Y-6223000D01*
X18732500Y-6273038D01*
X18732500Y-7289038D02*
X18782538Y-7239000D01*
X18732500Y-7188962D01*
X18682462Y-7239000D01*
X18732500Y-7289038D01*
X19050000Y-6273038D02*
X19100038Y-6223000D01*
X19050000Y-6172962D01*
X18999962Y-6223000D01*
X19050000Y-6273038D01*
X19050000Y-7289038D02*
X19100038Y-7239000D01*
X19050000Y-7188962D01*
X18999962Y-7239000D01*
X19050000Y-7289038D01*
X19240500Y-7924038D02*
X19290538Y-7874000D01*
X19240500Y-7823962D01*
X19190462Y-7874000D01*
X19240500Y-7924038D01*
X19367500Y-6273038D02*
X19417538Y-6223000D01*
X19367500Y-6172962D01*
X19317462Y-6223000D01*
X19367500Y-6273038D01*
X19367500Y-7289038D02*
X19417538Y-7239000D01*
X19367500Y-7188962D01*
X19317462Y-7239000D01*
X19367500Y-7289038D01*
X19685000Y-6273038D02*
X19735038Y-6223000D01*
X19685000Y-6172962D01*
X19634962Y-6223000D01*
X19685000Y-6273038D01*
X19685000Y-7289038D02*
X19735038Y-7239000D01*
X19685000Y-7188962D01*
X19634962Y-7239000D01*
X19685000Y-7289038D01*
X20002500Y-6273038D02*
X20052538Y-6223000D01*
X20002500Y-6172962D01*
X19952462Y-6223000D01*
X20002500Y-6273038D01*
X20002500Y-7289038D02*
X20052538Y-7239000D01*
X20002500Y-7188962D01*
X19952462Y-7239000D01*
X20002500Y-7289038D01*
X20320000Y-6273038D02*
X20370038Y-6223000D01*
X20320000Y-6172962D01*
X20269962Y-6223000D01*
X20320000Y-6273038D01*
X20320000Y-7289038D02*
X20370038Y-7239000D01*
X20320000Y-7188962D01*
X20269962Y-7239000D01*
X20320000Y-7289038D01*
X15316200Y-5600700D02*
X15417800Y-5702300D01*
X15417800Y-5600700D02*
X15316200Y-5702300D01*
X15417800Y-5651500D02*
G75*
G03X15417800Y-5651500I-50800J0D01*
G01*
X15316200Y-5854700D02*
X15417800Y-5956300D01*
X15417800Y-5854700D02*
X15316200Y-5956300D01*
X15417800Y-5905500D02*
G75*
G03X15417800Y-5905500I-50800J0D01*
G01*
X15316200Y-7124700D02*
X15417800Y-7226300D01*
X15417800Y-7124700D02*
X15316200Y-7226300D01*
X15417800Y-7175500D02*
G75*
G03X15417800Y-7175500I-50800J0D01*
G01*
X15316200Y-7378700D02*
X15417800Y-7480300D01*
X15417800Y-7378700D02*
X15316200Y-7480300D01*
X15417800Y-7429500D02*
G75*
G03X15417800Y-7429500I-50800J0D01*
G01*
X15316200Y-9410700D02*
X15417800Y-9512300D01*
X15417800Y-9410700D02*
X15316200Y-9512300D01*
X15417800Y-9461500D02*
G75*
G03X15417800Y-9461500I-50800J0D01*
G01*
X15316200Y-9664700D02*
X15417800Y-9766300D01*
X15417800Y-9664700D02*
X15316200Y-9766300D01*
X15417800Y-9715500D02*
G75*
G03X15417800Y-9715500I-50800J0D01*
G01*
X15570200Y-9410700D02*
X15671800Y-9512300D01*
X15671800Y-9410700D02*
X15570200Y-9512300D01*
X15671800Y-9461500D02*
G75*
G03X15671800Y-9461500I-50800J0D01*
G01*
X15570200Y-9664700D02*
X15671800Y-9766300D01*
X15671800Y-9664700D02*
X15570200Y-9766300D01*
X15671800Y-9715500D02*
G75*
G03X15671800Y-9715500I-50800J0D01*
G01*
X16678910Y-5369560D02*
X16780510Y-5471160D01*
X16780510Y-5369560D02*
X16678910Y-5471160D01*
X16780510Y-5420360D02*
G75*
G03X16780510Y-5420360I-50800J0D01*
G01*
X16932910Y-5369560D02*
X17034510Y-5471160D01*
X17034510Y-5369560D02*
X16932910Y-5471160D01*
X17034510Y-5420360D02*
G75*
G03X17034510Y-5420360I-50800J0D01*
G01*
X17186910Y-5369560D02*
X17288510Y-5471160D01*
X17288510Y-5369560D02*
X17186910Y-5471160D01*
X17288510Y-5420360D02*
G75*
G03X17288510Y-5420360I-50800J0D01*
G01*
X17440910Y-5369560D02*
X17542510Y-5471160D01*
X17542510Y-5369560D02*
X17440910Y-5471160D01*
X17542510Y-5420360D02*
G75*
G03X17542510Y-5420360I-50800J0D01*
G01*
X17593310Y-10195560D02*
X17694910Y-10297160D01*
X17694910Y-10195560D02*
X17593310Y-10297160D01*
X17694910Y-10246360D02*
G75*
G03X17694910Y-10246360I-50800J0D01*
G01*
X17694910Y-5369560D02*
X17796510Y-5471160D01*
X17796510Y-5369560D02*
X17694910Y-5471160D01*
X17796510Y-5420360D02*
G75*
G03X17796510Y-5420360I-50800J0D01*
G01*
X17847310Y-10195560D02*
X17948910Y-10297160D01*
X17948910Y-10195560D02*
X17847310Y-10297160D01*
X17948910Y-10246360D02*
G75*
G03X17948910Y-10246360I-50800J0D01*
G01*
X17948910Y-5369560D02*
X18050510Y-5471160D01*
X18050510Y-5369560D02*
X17948910Y-5471160D01*
X18050510Y-5420360D02*
G75*
G03X18050510Y-5420360I-50800J0D01*
G01*
X18101310Y-10195560D02*
X18202910Y-10297160D01*
X18202910Y-10195560D02*
X18101310Y-10297160D01*
X18202910Y-10246360D02*
G75*
G03X18202910Y-10246360I-50800J0D01*
G01*
X18202910Y-5369560D02*
X18304510Y-5471160D01*
X18304510Y-5369560D02*
X18202910Y-5471160D01*
X18304510Y-5420360D02*
G75*
G03X18304510Y-5420360I-50800J0D01*
G01*
X18355310Y-10195560D02*
X18456910Y-10297160D01*
X18456910Y-10195560D02*
X18355310Y-10297160D01*
X18456910Y-10246360D02*
G75*
G03X18456910Y-10246360I-50800J0D01*
G01*
X18456910Y-5369560D02*
X18558510Y-5471160D01*
X18558510Y-5369560D02*
X18456910Y-5471160D01*
X18558510Y-5420360D02*
G75*
G03X18558510Y-5420360I-50800J0D01*
G01*
X18609310Y-10195560D02*
X18710910Y-10297160D01*
X18710910Y-10195560D02*
X18609310Y-10297160D01*
X18710910Y-10246360D02*
G75*
G03X18710910Y-10246360I-50800J0D01*
G01*
X18710910Y-5369560D02*
X18812510Y-5471160D01*
X18812510Y-5369560D02*
X18710910Y-5471160D01*
X18812510Y-5420360D02*
G75*
G03X18812510Y-5420360I-50800J0D01*
G01*
X18863310Y-10195560D02*
X18964910Y-10297160D01*
X18964910Y-10195560D02*
X18863310Y-10297160D01*
X18964910Y-10246360D02*
G75*
G03X18964910Y-10246360I-50800J0D01*
G01*
X18964910Y-5369560D02*
X19066510Y-5471160D01*
X19066510Y-5369560D02*
X18964910Y-5471160D01*
X19066510Y-5420360D02*
G75*
G03X19066510Y-5420360I-50800J0D01*
G01*
X19117310Y-10195560D02*
X19218910Y-10297160D01*
X19218910Y-10195560D02*
X19117310Y-10297160D01*
X19218910Y-10246360D02*
G75*
G03X19218910Y-10246360I-50800J0D01*
G01*
X19371310Y-5369560D02*
X19472910Y-5471160D01*
X19472910Y-5369560D02*
X19371310Y-5471160D01*
X19472910Y-5420360D02*
G75*
G03X19472910Y-5420360I-50800J0D01*
G01*
X19371310Y-10195560D02*
X19472910Y-10297160D01*
X19472910Y-10195560D02*
X19371310Y-10297160D01*
X19472910Y-10246360D02*
G75*
G03X19472910Y-10246360I-50800J0D01*
G01*
X19625310Y-5369560D02*
X19726910Y-5471160D01*
X19726910Y-5369560D02*
X19625310Y-5471160D01*
X19726910Y-5420360D02*
G75*
G03X19726910Y-5420360I-50800J0D01*
G01*
X19879310Y-5369560D02*
X19980910Y-5471160D01*
X19980910Y-5369560D02*
X19879310Y-5471160D01*
X19980910Y-5420360D02*
G75*
G03X19980910Y-5420360I-50800J0D01*
G01*
X19879310Y-10195560D02*
X19980910Y-10297160D01*
X19980910Y-10195560D02*
X19879310Y-10297160D01*
X19980910Y-10246360D02*
G75*
G03X19980910Y-10246360I-50800J0D01*
G01*
X20133310Y-5369560D02*
X20234910Y-5471160D01*
X20234910Y-5369560D02*
X20133310Y-5471160D01*
X20234910Y-5420360D02*
G75*
G03X20234910Y-5420360I-50800J0D01*
G01*
X20133310Y-10195560D02*
X20234910Y-10297160D01*
X20234910Y-10195560D02*
X20133310Y-10297160D01*
X20234910Y-10246360D02*
G75*
G03X20234910Y-10246360I-50800J0D01*
G01*
X20387310Y-5369560D02*
X20488910Y-5471160D01*
X20488910Y-5369560D02*
X20387310Y-5471160D01*
X20488910Y-5420360D02*
G75*
G03X20488910Y-5420360I-50800J0D01*
G01*
X20387310Y-10195560D02*
X20488910Y-10297160D01*
X20488910Y-10195560D02*
X20387310Y-10297160D01*
X20488910Y-10246360D02*
G75*
G03X20488910Y-10246360I-50800J0D01*
G01*
X20641310Y-5369560D02*
X20742910Y-5471160D01*
X20742910Y-5369560D02*
X20641310Y-5471160D01*
X20742910Y-5420360D02*
G75*
G03X20742910Y-5420360I-50800J0D01*
G01*
X20641310Y-10195560D02*
X20742910Y-10297160D01*
X20742910Y-10195560D02*
X20641310Y-10297160D01*
X20742910Y-10246360D02*
G75*
G03X20742910Y-10246360I-50800J0D01*
G01*
X20895310Y-5369560D02*
X20996910Y-5471160D01*
X20996910Y-5369560D02*
X20895310Y-5471160D01*
X20996910Y-5420360D02*
G75*
G03X20996910Y-5420360I-50800J0D01*
G01*
X20895310Y-10195560D02*
X20996910Y-10297160D01*
X20996910Y-10195560D02*
X20895310Y-10297160D01*
X20996910Y-10246360D02*
G75*
G03X20996910Y-10246360I-50800J0D01*
G01*
X20904200Y-8204200D02*
X21005800Y-8305800D01*
X21005800Y-8204200D02*
X20904200Y-8305800D01*
X21005800Y-8255000D02*
G75*
G03X21005800Y-8255000I-50800J0D01*
G01*
X20904200Y-8458200D02*
X21005800Y-8559800D01*
X21005800Y-8458200D02*
X20904200Y-8559800D01*
X21005800Y-8509000D02*
G75*
G03X21005800Y-8509000I-50800J0D01*
G01*
X20904200Y-8712200D02*
X21005800Y-8813800D01*
X21005800Y-8712200D02*
X20904200Y-8813800D01*
X21005800Y-8763000D02*
G75*
G03X21005800Y-8763000I-50800J0D01*
G01*
X20904200Y-8966200D02*
X21005800Y-9067800D01*
X21005800Y-8966200D02*
X20904200Y-9067800D01*
X21005800Y-9017000D02*
G75*
G03X21005800Y-9017000I-50800J0D01*
G01*
X20904200Y-9220200D02*
X21005800Y-9321800D01*
X21005800Y-9220200D02*
X20904200Y-9321800D01*
X21005800Y-9271000D02*
G75*
G03X21005800Y-9271000I-50800J0D01*
G01*
X21149310Y-5369560D02*
X21250910Y-5471160D01*
X21250910Y-5369560D02*
X21149310Y-5471160D01*
X21250910Y-5420360D02*
G75*
G03X21250910Y-5420360I-50800J0D01*
G01*
X21149310Y-10195560D02*
X21250910Y-10297160D01*
X21250910Y-10195560D02*
X21149310Y-10297160D01*
X21250910Y-10246360D02*
G75*
G03X21250910Y-10246360I-50800J0D01*
G01*
X21158200Y-8204200D02*
X21259800Y-8305800D01*
X21259800Y-8204200D02*
X21158200Y-8305800D01*
X21259800Y-8255000D02*
G75*
G03X21259800Y-8255000I-50800J0D01*
G01*
X21158200Y-8458200D02*
X21259800Y-8559800D01*
X21259800Y-8458200D02*
X21158200Y-8559800D01*
X21259800Y-8509000D02*
G75*
G03X21259800Y-8509000I-50800J0D01*
G01*
X21158200Y-8712200D02*
X21259800Y-8813800D01*
X21259800Y-8712200D02*
X21158200Y-8813800D01*
X21259800Y-8763000D02*
G75*
G03X21259800Y-8763000I-50800J0D01*
G01*
X21158200Y-8966200D02*
X21259800Y-9067800D01*
X21259800Y-8966200D02*
X21158200Y-9067800D01*
X21259800Y-9017000D02*
G75*
G03X21259800Y-9017000I-50800J0D01*
G01*
X21158200Y-9220200D02*
X21259800Y-9321800D01*
X21259800Y-9220200D02*
X21158200Y-9321800D01*
X21259800Y-9271000D02*
G75*
G03X21259800Y-9271000I-50800J0D01*
G01*
D13*
X15100028Y-10986314D02*
X15100028Y-10686314D01*
X15171457Y-10686314D01*
X15214314Y-10700600D01*
X15242886Y-10729172D01*
X15257171Y-10757743D01*
X15271457Y-10814886D01*
X15271457Y-10857743D01*
X15257171Y-10914886D01*
X15242886Y-10943457D01*
X15214314Y-10972029D01*
X15171457Y-10986314D01*
X15100028Y-10986314D01*
X15400028Y-10986314D02*
X15400028Y-10786314D01*
X15400028Y-10843457D02*
X15414314Y-10814886D01*
X15428600Y-10800600D01*
X15457171Y-10786314D01*
X15485743Y-10786314D01*
X15585743Y-10986314D02*
X15585743Y-10786314D01*
X15585743Y-10686314D02*
X15571457Y-10700600D01*
X15585743Y-10714886D01*
X15600028Y-10700600D01*
X15585743Y-10686314D01*
X15585743Y-10714886D01*
X15771457Y-10986314D02*
X15742886Y-10972029D01*
X15728600Y-10943457D01*
X15728600Y-10686314D01*
X15928600Y-10986314D02*
X15900028Y-10972029D01*
X15885743Y-10943457D01*
X15885743Y-10686314D01*
X16271457Y-10986314D02*
X16271457Y-10686314D01*
X16371457Y-10900600D01*
X16471457Y-10686314D01*
X16471457Y-10986314D01*
X16742886Y-10986314D02*
X16742886Y-10829172D01*
X16728600Y-10800600D01*
X16700028Y-10786314D01*
X16642886Y-10786314D01*
X16614314Y-10800600D01*
X16742886Y-10972029D02*
X16714314Y-10986314D01*
X16642886Y-10986314D01*
X16614314Y-10972029D01*
X16600028Y-10943457D01*
X16600028Y-10914886D01*
X16614314Y-10886314D01*
X16642886Y-10872029D01*
X16714314Y-10872029D01*
X16742886Y-10857743D01*
X16885743Y-10786314D02*
X16885743Y-11086314D01*
X16885743Y-10800600D02*
X16914314Y-10786314D01*
X16971457Y-10786314D01*
X17000029Y-10800600D01*
X17014314Y-10814886D01*
X17028600Y-10843457D01*
X17028600Y-10929172D01*
X17014314Y-10957743D01*
X17000029Y-10972029D01*
X16971457Y-10986314D01*
X16914314Y-10986314D01*
X16885743Y-10972029D01*
X17157171Y-10957743D02*
X17171457Y-10972029D01*
X17157171Y-10986314D01*
X17142886Y-10972029D01*
X17157171Y-10957743D01*
X17157171Y-10986314D01*
X17157171Y-10800600D02*
X17171457Y-10814886D01*
X17157171Y-10829172D01*
X17142886Y-10814886D01*
X17157171Y-10800600D01*
X17157171Y-10829172D01*
X14783600Y-11458100D02*
X14828600Y-11503100D01*
X14828600Y-11458100D02*
X14783600Y-11503100D01*
X15157171Y-11316314D02*
X15185743Y-11316314D01*
X15214314Y-11330600D01*
X15228600Y-11344886D01*
X15242886Y-11373457D01*
X15257171Y-11430600D01*
X15257171Y-11502029D01*
X15242886Y-11559171D01*
X15228600Y-11587743D01*
X15214314Y-11602029D01*
X15185743Y-11616314D01*
X15157171Y-11616314D01*
X15128600Y-11602029D01*
X15114314Y-11587743D01*
X15100028Y-11559171D01*
X15085743Y-11502029D01*
X15085743Y-11430600D01*
X15100028Y-11373457D01*
X15114314Y-11344886D01*
X15128600Y-11330600D01*
X15157171Y-11316314D01*
X15385743Y-11587743D02*
X15400028Y-11602029D01*
X15385743Y-11616314D01*
X15371457Y-11602029D01*
X15385743Y-11587743D01*
X15385743Y-11616314D01*
X15657171Y-11416314D02*
X15657171Y-11616314D01*
X15585743Y-11302029D02*
X15514314Y-11516314D01*
X15700028Y-11516314D01*
X15957171Y-11316314D02*
X15814314Y-11316314D01*
X15800028Y-11459171D01*
X15814314Y-11444886D01*
X15842886Y-11430600D01*
X15914314Y-11430600D01*
X15942886Y-11444886D01*
X15957171Y-11459171D01*
X15971457Y-11487743D01*
X15971457Y-11559171D01*
X15957171Y-11587743D01*
X15942886Y-11602029D01*
X15914314Y-11616314D01*
X15842886Y-11616314D01*
X15814314Y-11602029D01*
X15800028Y-11587743D01*
X16100028Y-11616314D02*
X16100028Y-11416314D01*
X16100028Y-11444886D02*
X16114314Y-11430600D01*
X16142886Y-11416314D01*
X16185743Y-11416314D01*
X16214314Y-11430600D01*
X16228600Y-11459171D01*
X16228600Y-11616314D01*
X16228600Y-11459171D02*
X16242886Y-11430600D01*
X16271457Y-11416314D01*
X16314314Y-11416314D01*
X16342886Y-11430600D01*
X16357171Y-11459171D01*
X16357171Y-11616314D01*
X16500028Y-11616314D02*
X16500028Y-11416314D01*
X16500028Y-11444886D02*
X16514314Y-11430600D01*
X16542886Y-11416314D01*
X16585743Y-11416314D01*
X16614314Y-11430600D01*
X16628600Y-11459171D01*
X16628600Y-11616314D01*
X16628600Y-11459171D02*
X16642886Y-11430600D01*
X16671457Y-11416314D01*
X16714314Y-11416314D01*
X16742886Y-11430600D01*
X16757171Y-11459171D01*
X16757171Y-11616314D01*
X17342886Y-11302029D02*
X17085743Y-11687743D01*
X17728600Y-11316314D02*
X17757171Y-11316314D01*
X17785743Y-11330600D01*
X17800028Y-11344886D01*
X17814314Y-11373457D01*
X17828600Y-11430600D01*
X17828600Y-11502029D01*
X17814314Y-11559171D01*
X17800028Y-11587743D01*
X17785743Y-11602029D01*
X17757171Y-11616314D01*
X17728600Y-11616314D01*
X17700028Y-11602029D01*
X17685743Y-11587743D01*
X17671457Y-11559171D01*
X17657171Y-11502029D01*
X17657171Y-11430600D01*
X17671457Y-11373457D01*
X17685743Y-11344886D01*
X17700028Y-11330600D01*
X17728600Y-11316314D01*
X17957171Y-11587743D02*
X17971457Y-11602029D01*
X17957171Y-11616314D01*
X17942886Y-11602029D01*
X17957171Y-11587743D01*
X17957171Y-11616314D01*
X18157171Y-11316314D02*
X18185743Y-11316314D01*
X18214314Y-11330600D01*
X18228600Y-11344886D01*
X18242886Y-11373457D01*
X18257171Y-11430600D01*
X18257171Y-11502029D01*
X18242886Y-11559171D01*
X18228600Y-11587743D01*
X18214314Y-11602029D01*
X18185743Y-11616314D01*
X18157171Y-11616314D01*
X18128600Y-11602029D01*
X18114314Y-11587743D01*
X18100028Y-11559171D01*
X18085743Y-11502029D01*
X18085743Y-11430600D01*
X18100028Y-11373457D01*
X18114314Y-11344886D01*
X18128600Y-11330600D01*
X18157171Y-11316314D01*
X18542886Y-11616314D02*
X18371457Y-11616314D01*
X18457171Y-11616314D02*
X18457171Y-11316314D01*
X18428600Y-11359171D01*
X18400028Y-11387743D01*
X18371457Y-11402029D01*
X18714314Y-11444886D02*
X18685743Y-11430600D01*
X18671457Y-11416314D01*
X18657171Y-11387743D01*
X18657171Y-11373457D01*
X18671457Y-11344886D01*
X18685743Y-11330600D01*
X18714314Y-11316314D01*
X18771457Y-11316314D01*
X18800028Y-11330600D01*
X18814314Y-11344886D01*
X18828600Y-11373457D01*
X18828600Y-11387743D01*
X18814314Y-11416314D01*
X18800028Y-11430600D01*
X18771457Y-11444886D01*
X18714314Y-11444886D01*
X18685743Y-11459171D01*
X18671457Y-11473457D01*
X18657171Y-11502029D01*
X18657171Y-11559171D01*
X18671457Y-11587743D01*
X18685743Y-11602029D01*
X18714314Y-11616314D01*
X18771457Y-11616314D01*
X18800028Y-11602029D01*
X18814314Y-11587743D01*
X18828600Y-11559171D01*
X18828600Y-11502029D01*
X18814314Y-11473457D01*
X18800028Y-11459171D01*
X18771457Y-11444886D01*
X18942886Y-11316314D02*
X18942886Y-11373457D01*
X19057171Y-11316314D02*
X19057171Y-11373457D01*
X19500028Y-11730600D02*
X19485743Y-11716314D01*
X19457171Y-11673457D01*
X19442886Y-11644886D01*
X19428600Y-11602029D01*
X19414314Y-11530600D01*
X19414314Y-11473457D01*
X19428600Y-11402029D01*
X19442886Y-11359171D01*
X19457171Y-11330600D01*
X19485743Y-11287743D01*
X19500028Y-11273457D01*
X19600028Y-11344886D02*
X19614314Y-11330600D01*
X19642886Y-11316314D01*
X19714314Y-11316314D01*
X19742886Y-11330600D01*
X19757171Y-11344886D01*
X19771457Y-11373457D01*
X19771457Y-11402029D01*
X19757171Y-11444886D01*
X19585743Y-11616314D01*
X19771457Y-11616314D01*
X19885743Y-11344886D02*
X19900028Y-11330600D01*
X19928600Y-11316314D01*
X20000028Y-11316314D01*
X20028600Y-11330600D01*
X20042886Y-11344886D01*
X20057171Y-11373457D01*
X20057171Y-11402029D01*
X20042886Y-11444886D01*
X19871457Y-11616314D01*
X20057171Y-11616314D01*
X20414314Y-11616314D02*
X20414314Y-11316314D01*
X20542886Y-11616314D02*
X20542886Y-11459171D01*
X20528600Y-11430600D01*
X20500028Y-11416314D01*
X20457171Y-11416314D01*
X20428600Y-11430600D01*
X20414314Y-11444886D01*
X20728600Y-11616314D02*
X20700028Y-11602029D01*
X20685743Y-11587743D01*
X20671457Y-11559171D01*
X20671457Y-11473457D01*
X20685743Y-11444886D01*
X20700028Y-11430600D01*
X20728600Y-11416314D01*
X20771457Y-11416314D01*
X20800028Y-11430600D01*
X20814314Y-11444886D01*
X20828600Y-11473457D01*
X20828600Y-11559171D01*
X20814314Y-11587743D01*
X20800028Y-11602029D01*
X20771457Y-11616314D01*
X20728600Y-11616314D01*
X21000028Y-11616314D02*
X20971457Y-11602029D01*
X20957171Y-11573457D01*
X20957171Y-11316314D01*
X21228600Y-11602029D02*
X21200029Y-11616314D01*
X21142886Y-11616314D01*
X21114314Y-11602029D01*
X21100029Y-11573457D01*
X21100029Y-11459171D01*
X21114314Y-11430600D01*
X21142886Y-11416314D01*
X21200029Y-11416314D01*
X21228600Y-11430600D01*
X21242886Y-11459171D01*
X21242886Y-11487743D01*
X21100029Y-11516314D01*
X21357171Y-11602029D02*
X21385743Y-11616314D01*
X21442886Y-11616314D01*
X21471457Y-11602029D01*
X21485743Y-11573457D01*
X21485743Y-11559171D01*
X21471457Y-11530600D01*
X21442886Y-11516314D01*
X21400029Y-11516314D01*
X21371457Y-11502029D01*
X21357171Y-11473457D01*
X21357171Y-11459171D01*
X21371457Y-11430600D01*
X21400029Y-11416314D01*
X21442886Y-11416314D01*
X21471457Y-11430600D01*
X21585743Y-11730600D02*
X21600029Y-11716314D01*
X21628600Y-11673457D01*
X21642886Y-11644886D01*
X21657171Y-11602029D01*
X21671457Y-11530600D01*
X21671457Y-11473457D01*
X21657171Y-11402029D01*
X21642886Y-11359171D01*
X21628600Y-11330600D01*
X21600029Y-11287743D01*
X21585743Y-11273457D01*
X14828600Y-11876600D02*
G75*
G03X14828600Y-11876600I-35052J0D01*
G01*
X15157171Y-11712314D02*
X15185743Y-11712314D01*
X15214314Y-11726600D01*
X15228600Y-11740886D01*
X15242886Y-11769457D01*
X15257171Y-11826600D01*
X15257171Y-11898029D01*
X15242886Y-11955171D01*
X15228600Y-11983743D01*
X15214314Y-11998029D01*
X15185743Y-12012314D01*
X15157171Y-12012314D01*
X15128600Y-11998029D01*
X15114314Y-11983743D01*
X15100028Y-11955171D01*
X15085743Y-11898029D01*
X15085743Y-11826600D01*
X15100028Y-11769457D01*
X15114314Y-11740886D01*
X15128600Y-11726600D01*
X15157171Y-11712314D01*
X15385743Y-11983743D02*
X15400028Y-11998029D01*
X15385743Y-12012314D01*
X15371457Y-11998029D01*
X15385743Y-11983743D01*
X15385743Y-12012314D01*
X15500028Y-11712314D02*
X15700028Y-11712314D01*
X15571457Y-12012314D01*
X15871457Y-11712314D02*
X15900028Y-11712314D01*
X15928600Y-11726600D01*
X15942886Y-11740886D01*
X15957171Y-11769457D01*
X15971457Y-11826600D01*
X15971457Y-11898029D01*
X15957171Y-11955171D01*
X15942886Y-11983743D01*
X15928600Y-11998029D01*
X15900028Y-12012314D01*
X15871457Y-12012314D01*
X15842886Y-11998029D01*
X15828600Y-11983743D01*
X15814314Y-11955171D01*
X15800028Y-11898029D01*
X15800028Y-11826600D01*
X15814314Y-11769457D01*
X15828600Y-11740886D01*
X15842886Y-11726600D01*
X15871457Y-11712314D01*
X16100028Y-12012314D02*
X16100028Y-11812314D01*
X16100028Y-11840886D02*
X16114314Y-11826600D01*
X16142886Y-11812314D01*
X16185743Y-11812314D01*
X16214314Y-11826600D01*
X16228600Y-11855171D01*
X16228600Y-12012314D01*
X16228600Y-11855171D02*
X16242886Y-11826600D01*
X16271457Y-11812314D01*
X16314314Y-11812314D01*
X16342886Y-11826600D01*
X16357171Y-11855171D01*
X16357171Y-12012314D01*
X16500028Y-12012314D02*
X16500028Y-11812314D01*
X16500028Y-11840886D02*
X16514314Y-11826600D01*
X16542886Y-11812314D01*
X16585743Y-11812314D01*
X16614314Y-11826600D01*
X16628600Y-11855171D01*
X16628600Y-12012314D01*
X16628600Y-11855171D02*
X16642886Y-11826600D01*
X16671457Y-11812314D01*
X16714314Y-11812314D01*
X16742886Y-11826600D01*
X16757171Y-11855171D01*
X16757171Y-12012314D01*
X17342886Y-11698029D02*
X17085743Y-12083743D01*
X17728600Y-11712314D02*
X17757171Y-11712314D01*
X17785743Y-11726600D01*
X17800028Y-11740886D01*
X17814314Y-11769457D01*
X17828600Y-11826600D01*
X17828600Y-11898029D01*
X17814314Y-11955171D01*
X17800028Y-11983743D01*
X17785743Y-11998029D01*
X17757171Y-12012314D01*
X17728600Y-12012314D01*
X17700028Y-11998029D01*
X17685743Y-11983743D01*
X17671457Y-11955171D01*
X17657171Y-11898029D01*
X17657171Y-11826600D01*
X17671457Y-11769457D01*
X17685743Y-11740886D01*
X17700028Y-11726600D01*
X17728600Y-11712314D01*
X17957171Y-11983743D02*
X17971457Y-11998029D01*
X17957171Y-12012314D01*
X17942886Y-11998029D01*
X17957171Y-11983743D01*
X17957171Y-12012314D01*
X18157171Y-11712314D02*
X18185743Y-11712314D01*
X18214314Y-11726600D01*
X18228600Y-11740886D01*
X18242886Y-11769457D01*
X18257171Y-11826600D01*
X18257171Y-11898029D01*
X18242886Y-11955171D01*
X18228600Y-11983743D01*
X18214314Y-11998029D01*
X18185743Y-12012314D01*
X18157171Y-12012314D01*
X18128600Y-11998029D01*
X18114314Y-11983743D01*
X18100028Y-11955171D01*
X18085743Y-11898029D01*
X18085743Y-11826600D01*
X18100028Y-11769457D01*
X18114314Y-11740886D01*
X18128600Y-11726600D01*
X18157171Y-11712314D01*
X18371457Y-11740886D02*
X18385743Y-11726600D01*
X18414314Y-11712314D01*
X18485743Y-11712314D01*
X18514314Y-11726600D01*
X18528600Y-11740886D01*
X18542886Y-11769457D01*
X18542886Y-11798029D01*
X18528600Y-11840886D01*
X18357171Y-12012314D01*
X18542886Y-12012314D01*
X18714314Y-11840886D02*
X18685743Y-11826600D01*
X18671457Y-11812314D01*
X18657171Y-11783743D01*
X18657171Y-11769457D01*
X18671457Y-11740886D01*
X18685743Y-11726600D01*
X18714314Y-11712314D01*
X18771457Y-11712314D01*
X18800028Y-11726600D01*
X18814314Y-11740886D01*
X18828600Y-11769457D01*
X18828600Y-11783743D01*
X18814314Y-11812314D01*
X18800028Y-11826600D01*
X18771457Y-11840886D01*
X18714314Y-11840886D01*
X18685743Y-11855171D01*
X18671457Y-11869457D01*
X18657171Y-11898029D01*
X18657171Y-11955171D01*
X18671457Y-11983743D01*
X18685743Y-11998029D01*
X18714314Y-12012314D01*
X18771457Y-12012314D01*
X18800028Y-11998029D01*
X18814314Y-11983743D01*
X18828600Y-11955171D01*
X18828600Y-11898029D01*
X18814314Y-11869457D01*
X18800028Y-11855171D01*
X18771457Y-11840886D01*
X18942886Y-11712314D02*
X18942886Y-11769457D01*
X19057171Y-11712314D02*
X19057171Y-11769457D01*
X19500028Y-12126600D02*
X19485743Y-12112314D01*
X19457171Y-12069457D01*
X19442886Y-12040886D01*
X19428600Y-11998029D01*
X19414314Y-11926600D01*
X19414314Y-11869457D01*
X19428600Y-11798029D01*
X19442886Y-11755171D01*
X19457171Y-11726600D01*
X19485743Y-11683743D01*
X19500028Y-11669457D01*
X19771457Y-12012314D02*
X19600028Y-12012314D01*
X19685743Y-12012314D02*
X19685743Y-11712314D01*
X19657171Y-11755171D01*
X19628600Y-11783743D01*
X19600028Y-11798029D01*
X20028600Y-11812314D02*
X20028600Y-12012314D01*
X19957171Y-11698029D02*
X19885743Y-11912314D01*
X20071457Y-11912314D01*
X20414314Y-12012314D02*
X20414314Y-11712314D01*
X20542886Y-12012314D02*
X20542886Y-11855171D01*
X20528600Y-11826600D01*
X20500028Y-11812314D01*
X20457171Y-11812314D01*
X20428600Y-11826600D01*
X20414314Y-11840886D01*
X20728600Y-12012314D02*
X20700028Y-11998029D01*
X20685743Y-11983743D01*
X20671457Y-11955171D01*
X20671457Y-11869457D01*
X20685743Y-11840886D01*
X20700028Y-11826600D01*
X20728600Y-11812314D01*
X20771457Y-11812314D01*
X20800028Y-11826600D01*
X20814314Y-11840886D01*
X20828600Y-11869457D01*
X20828600Y-11955171D01*
X20814314Y-11983743D01*
X20800028Y-11998029D01*
X20771457Y-12012314D01*
X20728600Y-12012314D01*
X21000028Y-12012314D02*
X20971457Y-11998029D01*
X20957171Y-11969457D01*
X20957171Y-11712314D01*
X21228600Y-11998029D02*
X21200029Y-12012314D01*
X21142886Y-12012314D01*
X21114314Y-11998029D01*
X21100029Y-11969457D01*
X21100029Y-11855171D01*
X21114314Y-11826600D01*
X21142886Y-11812314D01*
X21200029Y-11812314D01*
X21228600Y-11826600D01*
X21242886Y-11855171D01*
X21242886Y-11883743D01*
X21100029Y-11912314D01*
X21357171Y-11998029D02*
X21385743Y-12012314D01*
X21442886Y-12012314D01*
X21471457Y-11998029D01*
X21485743Y-11969457D01*
X21485743Y-11955171D01*
X21471457Y-11926600D01*
X21442886Y-11912314D01*
X21400029Y-11912314D01*
X21371457Y-11898029D01*
X21357171Y-11869457D01*
X21357171Y-11855171D01*
X21371457Y-11826600D01*
X21400029Y-11812314D01*
X21442886Y-11812314D01*
X21471457Y-11826600D01*
X21585743Y-12126600D02*
X21600029Y-12112314D01*
X21628600Y-12069457D01*
X21642886Y-12040886D01*
X21657171Y-11998029D01*
X21671457Y-11926600D01*
X21671457Y-11869457D01*
X21657171Y-11798029D01*
X21642886Y-11755171D01*
X21628600Y-11726600D01*
X21600029Y-11683743D01*
X21585743Y-11669457D01*
X14788595Y-12232595D02*
X14788595Y-12312605D01*
X14748590Y-12272600D02*
X14828600Y-12272600D01*
X15157171Y-12108314D02*
X15185743Y-12108314D01*
X15214314Y-12122600D01*
X15228600Y-12136886D01*
X15242886Y-12165457D01*
X15257171Y-12222600D01*
X15257171Y-12294029D01*
X15242886Y-12351171D01*
X15228600Y-12379743D01*
X15214314Y-12394029D01*
X15185743Y-12408314D01*
X15157171Y-12408314D01*
X15128600Y-12394029D01*
X15114314Y-12379743D01*
X15100028Y-12351171D01*
X15085743Y-12294029D01*
X15085743Y-12222600D01*
X15100028Y-12165457D01*
X15114314Y-12136886D01*
X15128600Y-12122600D01*
X15157171Y-12108314D01*
X15385743Y-12379743D02*
X15400028Y-12394029D01*
X15385743Y-12408314D01*
X15371457Y-12394029D01*
X15385743Y-12379743D01*
X15385743Y-12408314D01*
X15571457Y-12236886D02*
X15542886Y-12222600D01*
X15528600Y-12208314D01*
X15514314Y-12179743D01*
X15514314Y-12165457D01*
X15528600Y-12136886D01*
X15542886Y-12122600D01*
X15571457Y-12108314D01*
X15628600Y-12108314D01*
X15657171Y-12122600D01*
X15671457Y-12136886D01*
X15685743Y-12165457D01*
X15685743Y-12179743D01*
X15671457Y-12208314D01*
X15657171Y-12222600D01*
X15628600Y-12236886D01*
X15571457Y-12236886D01*
X15542886Y-12251171D01*
X15528600Y-12265457D01*
X15514314Y-12294029D01*
X15514314Y-12351171D01*
X15528600Y-12379743D01*
X15542886Y-12394029D01*
X15571457Y-12408314D01*
X15628600Y-12408314D01*
X15657171Y-12394029D01*
X15671457Y-12379743D01*
X15685743Y-12351171D01*
X15685743Y-12294029D01*
X15671457Y-12265457D01*
X15657171Y-12251171D01*
X15628600Y-12236886D01*
X15871457Y-12108314D02*
X15900028Y-12108314D01*
X15928600Y-12122600D01*
X15942886Y-12136886D01*
X15957171Y-12165457D01*
X15971457Y-12222600D01*
X15971457Y-12294029D01*
X15957171Y-12351171D01*
X15942886Y-12379743D01*
X15928600Y-12394029D01*
X15900028Y-12408314D01*
X15871457Y-12408314D01*
X15842886Y-12394029D01*
X15828600Y-12379743D01*
X15814314Y-12351171D01*
X15800028Y-12294029D01*
X15800028Y-12222600D01*
X15814314Y-12165457D01*
X15828600Y-12136886D01*
X15842886Y-12122600D01*
X15871457Y-12108314D01*
X16100028Y-12408314D02*
X16100028Y-12208314D01*
X16100028Y-12236886D02*
X16114314Y-12222600D01*
X16142886Y-12208314D01*
X16185743Y-12208314D01*
X16214314Y-12222600D01*
X16228600Y-12251171D01*
X16228600Y-12408314D01*
X16228600Y-12251171D02*
X16242886Y-12222600D01*
X16271457Y-12208314D01*
X16314314Y-12208314D01*
X16342886Y-12222600D01*
X16357171Y-12251171D01*
X16357171Y-12408314D01*
X16500028Y-12408314D02*
X16500028Y-12208314D01*
X16500028Y-12236886D02*
X16514314Y-12222600D01*
X16542886Y-12208314D01*
X16585743Y-12208314D01*
X16614314Y-12222600D01*
X16628600Y-12251171D01*
X16628600Y-12408314D01*
X16628600Y-12251171D02*
X16642886Y-12222600D01*
X16671457Y-12208314D01*
X16714314Y-12208314D01*
X16742886Y-12222600D01*
X16757171Y-12251171D01*
X16757171Y-12408314D01*
X17342886Y-12094029D02*
X17085743Y-12479743D01*
X17728600Y-12108314D02*
X17757171Y-12108314D01*
X17785743Y-12122600D01*
X17800028Y-12136886D01*
X17814314Y-12165457D01*
X17828600Y-12222600D01*
X17828600Y-12294029D01*
X17814314Y-12351171D01*
X17800028Y-12379743D01*
X17785743Y-12394029D01*
X17757171Y-12408314D01*
X17728600Y-12408314D01*
X17700028Y-12394029D01*
X17685743Y-12379743D01*
X17671457Y-12351171D01*
X17657171Y-12294029D01*
X17657171Y-12222600D01*
X17671457Y-12165457D01*
X17685743Y-12136886D01*
X17700028Y-12122600D01*
X17728600Y-12108314D01*
X17957171Y-12379743D02*
X17971457Y-12394029D01*
X17957171Y-12408314D01*
X17942886Y-12394029D01*
X17957171Y-12379743D01*
X17957171Y-12408314D01*
X18157171Y-12108314D02*
X18185743Y-12108314D01*
X18214314Y-12122600D01*
X18228600Y-12136886D01*
X18242886Y-12165457D01*
X18257171Y-12222600D01*
X18257171Y-12294029D01*
X18242886Y-12351171D01*
X18228600Y-12379743D01*
X18214314Y-12394029D01*
X18185743Y-12408314D01*
X18157171Y-12408314D01*
X18128600Y-12394029D01*
X18114314Y-12379743D01*
X18100028Y-12351171D01*
X18085743Y-12294029D01*
X18085743Y-12222600D01*
X18100028Y-12165457D01*
X18114314Y-12136886D01*
X18128600Y-12122600D01*
X18157171Y-12108314D01*
X18357171Y-12108314D02*
X18542886Y-12108314D01*
X18442886Y-12222600D01*
X18485743Y-12222600D01*
X18514314Y-12236886D01*
X18528600Y-12251171D01*
X18542886Y-12279743D01*
X18542886Y-12351171D01*
X18528600Y-12379743D01*
X18514314Y-12394029D01*
X18485743Y-12408314D01*
X18400028Y-12408314D01*
X18371457Y-12394029D01*
X18357171Y-12379743D01*
X18657171Y-12136886D02*
X18671457Y-12122600D01*
X18700028Y-12108314D01*
X18771457Y-12108314D01*
X18800028Y-12122600D01*
X18814314Y-12136886D01*
X18828600Y-12165457D01*
X18828600Y-12194029D01*
X18814314Y-12236886D01*
X18642886Y-12408314D01*
X18828600Y-12408314D01*
X18942886Y-12108314D02*
X18942886Y-12165457D01*
X19057171Y-12108314D02*
X19057171Y-12165457D01*
X19500028Y-12522600D02*
X19485743Y-12508314D01*
X19457171Y-12465457D01*
X19442886Y-12436886D01*
X19428600Y-12394029D01*
X19414314Y-12322600D01*
X19414314Y-12265457D01*
X19428600Y-12194029D01*
X19442886Y-12151171D01*
X19457171Y-12122600D01*
X19485743Y-12079743D01*
X19500028Y-12065457D01*
X19600028Y-12136886D02*
X19614314Y-12122600D01*
X19642886Y-12108314D01*
X19714314Y-12108314D01*
X19742886Y-12122600D01*
X19757171Y-12136886D01*
X19771457Y-12165457D01*
X19771457Y-12194029D01*
X19757171Y-12236886D01*
X19585743Y-12408314D01*
X19771457Y-12408314D01*
X20128600Y-12408314D02*
X20128600Y-12108314D01*
X20257171Y-12408314D02*
X20257171Y-12251171D01*
X20242886Y-12222600D01*
X20214314Y-12208314D01*
X20171457Y-12208314D01*
X20142886Y-12222600D01*
X20128600Y-12236886D01*
X20442886Y-12408314D02*
X20414314Y-12394029D01*
X20400028Y-12379743D01*
X20385743Y-12351171D01*
X20385743Y-12265457D01*
X20400028Y-12236886D01*
X20414314Y-12222600D01*
X20442886Y-12208314D01*
X20485743Y-12208314D01*
X20514314Y-12222600D01*
X20528600Y-12236886D01*
X20542886Y-12265457D01*
X20542886Y-12351171D01*
X20528600Y-12379743D01*
X20514314Y-12394029D01*
X20485743Y-12408314D01*
X20442886Y-12408314D01*
X20714314Y-12408314D02*
X20685743Y-12394029D01*
X20671457Y-12365457D01*
X20671457Y-12108314D01*
X20942886Y-12394029D02*
X20914314Y-12408314D01*
X20857171Y-12408314D01*
X20828600Y-12394029D01*
X20814314Y-12365457D01*
X20814314Y-12251171D01*
X20828600Y-12222600D01*
X20857171Y-12208314D01*
X20914314Y-12208314D01*
X20942886Y-12222600D01*
X20957171Y-12251171D01*
X20957171Y-12279743D01*
X20814314Y-12308314D01*
X21071457Y-12394029D02*
X21100029Y-12408314D01*
X21157171Y-12408314D01*
X21185743Y-12394029D01*
X21200029Y-12365457D01*
X21200029Y-12351171D01*
X21185743Y-12322600D01*
X21157171Y-12308314D01*
X21114314Y-12308314D01*
X21085743Y-12294029D01*
X21071457Y-12265457D01*
X21071457Y-12251171D01*
X21085743Y-12222600D01*
X21114314Y-12208314D01*
X21157171Y-12208314D01*
X21185743Y-12222600D01*
X21300028Y-12522600D02*
X21314314Y-12508314D01*
X21342886Y-12465457D01*
X21357171Y-12436886D01*
X21371457Y-12394029D01*
X21385743Y-12322600D01*
X21385743Y-12265457D01*
X21371457Y-12194029D01*
X21357171Y-12151171D01*
X21342886Y-12122600D01*
X21314314Y-12079743D01*
X21300028Y-12065457D01*
X14813956Y-12703956D02*
X14813956Y-12633244D01*
X14743244Y-12633244D01*
X14743244Y-12703956D01*
X14813956Y-12703956D01*
X15257171Y-12804314D02*
X15085743Y-12804314D01*
X15171457Y-12804314D02*
X15171457Y-12504314D01*
X15142886Y-12547171D01*
X15114314Y-12575743D01*
X15085743Y-12590029D01*
X15385743Y-12775743D02*
X15400028Y-12790029D01*
X15385743Y-12804314D01*
X15371457Y-12790029D01*
X15385743Y-12775743D01*
X15385743Y-12804314D01*
X15585743Y-12504314D02*
X15614314Y-12504314D01*
X15642886Y-12518600D01*
X15657171Y-12532886D01*
X15671457Y-12561457D01*
X15685743Y-12618600D01*
X15685743Y-12690029D01*
X15671457Y-12747171D01*
X15657171Y-12775743D01*
X15642886Y-12790029D01*
X15614314Y-12804314D01*
X15585743Y-12804314D01*
X15557171Y-12790029D01*
X15542886Y-12775743D01*
X15528600Y-12747171D01*
X15514314Y-12690029D01*
X15514314Y-12618600D01*
X15528600Y-12561457D01*
X15542886Y-12532886D01*
X15557171Y-12518600D01*
X15585743Y-12504314D01*
X15871457Y-12504314D02*
X15900028Y-12504314D01*
X15928600Y-12518600D01*
X15942886Y-12532886D01*
X15957171Y-12561457D01*
X15971457Y-12618600D01*
X15971457Y-12690029D01*
X15957171Y-12747171D01*
X15942886Y-12775743D01*
X15928600Y-12790029D01*
X15900028Y-12804314D01*
X15871457Y-12804314D01*
X15842886Y-12790029D01*
X15828600Y-12775743D01*
X15814314Y-12747171D01*
X15800028Y-12690029D01*
X15800028Y-12618600D01*
X15814314Y-12561457D01*
X15828600Y-12532886D01*
X15842886Y-12518600D01*
X15871457Y-12504314D01*
X16100028Y-12804314D02*
X16100028Y-12604314D01*
X16100028Y-12632886D02*
X16114314Y-12618600D01*
X16142886Y-12604314D01*
X16185743Y-12604314D01*
X16214314Y-12618600D01*
X16228600Y-12647171D01*
X16228600Y-12804314D01*
X16228600Y-12647171D02*
X16242886Y-12618600D01*
X16271457Y-12604314D01*
X16314314Y-12604314D01*
X16342886Y-12618600D01*
X16357171Y-12647171D01*
X16357171Y-12804314D01*
X16500028Y-12804314D02*
X16500028Y-12604314D01*
X16500028Y-12632886D02*
X16514314Y-12618600D01*
X16542886Y-12604314D01*
X16585743Y-12604314D01*
X16614314Y-12618600D01*
X16628600Y-12647171D01*
X16628600Y-12804314D01*
X16628600Y-12647171D02*
X16642886Y-12618600D01*
X16671457Y-12604314D01*
X16714314Y-12604314D01*
X16742886Y-12618600D01*
X16757171Y-12647171D01*
X16757171Y-12804314D01*
X17342886Y-12490029D02*
X17085743Y-12875743D01*
X17728600Y-12504314D02*
X17757171Y-12504314D01*
X17785743Y-12518600D01*
X17800028Y-12532886D01*
X17814314Y-12561457D01*
X17828600Y-12618600D01*
X17828600Y-12690029D01*
X17814314Y-12747171D01*
X17800028Y-12775743D01*
X17785743Y-12790029D01*
X17757171Y-12804314D01*
X17728600Y-12804314D01*
X17700028Y-12790029D01*
X17685743Y-12775743D01*
X17671457Y-12747171D01*
X17657171Y-12690029D01*
X17657171Y-12618600D01*
X17671457Y-12561457D01*
X17685743Y-12532886D01*
X17700028Y-12518600D01*
X17728600Y-12504314D01*
X17957171Y-12775743D02*
X17971457Y-12790029D01*
X17957171Y-12804314D01*
X17942886Y-12790029D01*
X17957171Y-12775743D01*
X17957171Y-12804314D01*
X18157171Y-12504314D02*
X18185743Y-12504314D01*
X18214314Y-12518600D01*
X18228600Y-12532886D01*
X18242886Y-12561457D01*
X18257171Y-12618600D01*
X18257171Y-12690029D01*
X18242886Y-12747171D01*
X18228600Y-12775743D01*
X18214314Y-12790029D01*
X18185743Y-12804314D01*
X18157171Y-12804314D01*
X18128600Y-12790029D01*
X18114314Y-12775743D01*
X18100028Y-12747171D01*
X18085743Y-12690029D01*
X18085743Y-12618600D01*
X18100028Y-12561457D01*
X18114314Y-12532886D01*
X18128600Y-12518600D01*
X18157171Y-12504314D01*
X18357171Y-12504314D02*
X18542886Y-12504314D01*
X18442886Y-12618600D01*
X18485743Y-12618600D01*
X18514314Y-12632886D01*
X18528600Y-12647171D01*
X18542886Y-12675743D01*
X18542886Y-12747171D01*
X18528600Y-12775743D01*
X18514314Y-12790029D01*
X18485743Y-12804314D01*
X18400028Y-12804314D01*
X18371457Y-12790029D01*
X18357171Y-12775743D01*
X18685743Y-12804314D02*
X18742886Y-12804314D01*
X18771457Y-12790029D01*
X18785743Y-12775743D01*
X18814314Y-12732886D01*
X18828600Y-12675743D01*
X18828600Y-12561457D01*
X18814314Y-12532886D01*
X18800028Y-12518600D01*
X18771457Y-12504314D01*
X18714314Y-12504314D01*
X18685743Y-12518600D01*
X18671457Y-12532886D01*
X18657171Y-12561457D01*
X18657171Y-12632886D01*
X18671457Y-12661457D01*
X18685743Y-12675743D01*
X18714314Y-12690029D01*
X18771457Y-12690029D01*
X18800028Y-12675743D01*
X18814314Y-12661457D01*
X18828600Y-12632886D01*
X18942886Y-12504314D02*
X18942886Y-12561457D01*
X19057171Y-12504314D02*
X19057171Y-12561457D01*
X19500028Y-12918600D02*
X19485743Y-12904314D01*
X19457171Y-12861457D01*
X19442886Y-12832886D01*
X19428600Y-12790029D01*
X19414314Y-12718600D01*
X19414314Y-12661457D01*
X19428600Y-12590029D01*
X19442886Y-12547171D01*
X19457171Y-12518600D01*
X19485743Y-12475743D01*
X19500028Y-12461457D01*
X19585743Y-12504314D02*
X19771457Y-12504314D01*
X19671457Y-12618600D01*
X19714314Y-12618600D01*
X19742886Y-12632886D01*
X19757171Y-12647171D01*
X19771457Y-12675743D01*
X19771457Y-12747171D01*
X19757171Y-12775743D01*
X19742886Y-12790029D01*
X19714314Y-12804314D01*
X19628600Y-12804314D01*
X19600028Y-12790029D01*
X19585743Y-12775743D01*
X20128600Y-12804314D02*
X20128600Y-12504314D01*
X20257171Y-12804314D02*
X20257171Y-12647171D01*
X20242886Y-12618600D01*
X20214314Y-12604314D01*
X20171457Y-12604314D01*
X20142886Y-12618600D01*
X20128600Y-12632886D01*
X20442886Y-12804314D02*
X20414314Y-12790029D01*
X20400028Y-12775743D01*
X20385743Y-12747171D01*
X20385743Y-12661457D01*
X20400028Y-12632886D01*
X20414314Y-12618600D01*
X20442886Y-12604314D01*
X20485743Y-12604314D01*
X20514314Y-12618600D01*
X20528600Y-12632886D01*
X20542886Y-12661457D01*
X20542886Y-12747171D01*
X20528600Y-12775743D01*
X20514314Y-12790029D01*
X20485743Y-12804314D01*
X20442886Y-12804314D01*
X20714314Y-12804314D02*
X20685743Y-12790029D01*
X20671457Y-12761457D01*
X20671457Y-12504314D01*
X20942886Y-12790029D02*
X20914314Y-12804314D01*
X20857171Y-12804314D01*
X20828600Y-12790029D01*
X20814314Y-12761457D01*
X20814314Y-12647171D01*
X20828600Y-12618600D01*
X20857171Y-12604314D01*
X20914314Y-12604314D01*
X20942886Y-12618600D01*
X20957171Y-12647171D01*
X20957171Y-12675743D01*
X20814314Y-12704314D01*
X21071457Y-12790029D02*
X21100029Y-12804314D01*
X21157171Y-12804314D01*
X21185743Y-12790029D01*
X21200029Y-12761457D01*
X21200029Y-12747171D01*
X21185743Y-12718600D01*
X21157171Y-12704314D01*
X21114314Y-12704314D01*
X21085743Y-12690029D01*
X21071457Y-12661457D01*
X21071457Y-12647171D01*
X21085743Y-12618600D01*
X21114314Y-12604314D01*
X21157171Y-12604314D01*
X21185743Y-12618600D01*
X21300028Y-12918600D02*
X21314314Y-12904314D01*
X21342886Y-12861457D01*
X21357171Y-12832886D01*
X21371457Y-12790029D01*
X21385743Y-12718600D01*
X21385743Y-12661457D01*
X21371457Y-12590029D01*
X21357171Y-12547171D01*
X21342886Y-12518600D01*
X21314314Y-12475743D01*
X21300028Y-12461457D01*
X14778562Y-13114638D02*
X14828600Y-13064600D01*
X14778562Y-13014562D01*
X14728524Y-13064600D01*
X14778562Y-13114638D01*
X15257171Y-13200314D02*
X15085743Y-13200314D01*
X15171457Y-13200314D02*
X15171457Y-12900314D01*
X15142886Y-12943171D01*
X15114314Y-12971743D01*
X15085743Y-12986029D01*
X15385743Y-13171743D02*
X15400028Y-13186029D01*
X15385743Y-13200314D01*
X15371457Y-13186029D01*
X15385743Y-13171743D01*
X15385743Y-13200314D01*
X15585743Y-12900314D02*
X15614314Y-12900314D01*
X15642886Y-12914600D01*
X15657171Y-12928886D01*
X15671457Y-12957457D01*
X15685743Y-13014600D01*
X15685743Y-13086029D01*
X15671457Y-13143171D01*
X15657171Y-13171743D01*
X15642886Y-13186029D01*
X15614314Y-13200314D01*
X15585743Y-13200314D01*
X15557171Y-13186029D01*
X15542886Y-13171743D01*
X15528600Y-13143171D01*
X15514314Y-13086029D01*
X15514314Y-13014600D01*
X15528600Y-12957457D01*
X15542886Y-12928886D01*
X15557171Y-12914600D01*
X15585743Y-12900314D01*
X15871457Y-12900314D02*
X15900028Y-12900314D01*
X15928600Y-12914600D01*
X15942886Y-12928886D01*
X15957171Y-12957457D01*
X15971457Y-13014600D01*
X15971457Y-13086029D01*
X15957171Y-13143171D01*
X15942886Y-13171743D01*
X15928600Y-13186029D01*
X15900028Y-13200314D01*
X15871457Y-13200314D01*
X15842886Y-13186029D01*
X15828600Y-13171743D01*
X15814314Y-13143171D01*
X15800028Y-13086029D01*
X15800028Y-13014600D01*
X15814314Y-12957457D01*
X15828600Y-12928886D01*
X15842886Y-12914600D01*
X15871457Y-12900314D01*
X16100028Y-13200314D02*
X16100028Y-13000314D01*
X16100028Y-13028886D02*
X16114314Y-13014600D01*
X16142886Y-13000314D01*
X16185743Y-13000314D01*
X16214314Y-13014600D01*
X16228600Y-13043171D01*
X16228600Y-13200314D01*
X16228600Y-13043171D02*
X16242886Y-13014600D01*
X16271457Y-13000314D01*
X16314314Y-13000314D01*
X16342886Y-13014600D01*
X16357171Y-13043171D01*
X16357171Y-13200314D01*
X16500028Y-13200314D02*
X16500028Y-13000314D01*
X16500028Y-13028886D02*
X16514314Y-13014600D01*
X16542886Y-13000314D01*
X16585743Y-13000314D01*
X16614314Y-13014600D01*
X16628600Y-13043171D01*
X16628600Y-13200314D01*
X16628600Y-13043171D02*
X16642886Y-13014600D01*
X16671457Y-13000314D01*
X16714314Y-13000314D01*
X16742886Y-13014600D01*
X16757171Y-13043171D01*
X16757171Y-13200314D01*
X17342886Y-12886029D02*
X17085743Y-13271743D01*
X17728600Y-12900314D02*
X17757171Y-12900314D01*
X17785743Y-12914600D01*
X17800028Y-12928886D01*
X17814314Y-12957457D01*
X17828600Y-13014600D01*
X17828600Y-13086029D01*
X17814314Y-13143171D01*
X17800028Y-13171743D01*
X17785743Y-13186029D01*
X17757171Y-13200314D01*
X17728600Y-13200314D01*
X17700028Y-13186029D01*
X17685743Y-13171743D01*
X17671457Y-13143171D01*
X17657171Y-13086029D01*
X17657171Y-13014600D01*
X17671457Y-12957457D01*
X17685743Y-12928886D01*
X17700028Y-12914600D01*
X17728600Y-12900314D01*
X17957171Y-13171743D02*
X17971457Y-13186029D01*
X17957171Y-13200314D01*
X17942886Y-13186029D01*
X17957171Y-13171743D01*
X17957171Y-13200314D01*
X18157171Y-12900314D02*
X18185743Y-12900314D01*
X18214314Y-12914600D01*
X18228600Y-12928886D01*
X18242886Y-12957457D01*
X18257171Y-13014600D01*
X18257171Y-13086029D01*
X18242886Y-13143171D01*
X18228600Y-13171743D01*
X18214314Y-13186029D01*
X18185743Y-13200314D01*
X18157171Y-13200314D01*
X18128600Y-13186029D01*
X18114314Y-13171743D01*
X18100028Y-13143171D01*
X18085743Y-13086029D01*
X18085743Y-13014600D01*
X18100028Y-12957457D01*
X18114314Y-12928886D01*
X18128600Y-12914600D01*
X18157171Y-12900314D01*
X18357171Y-12900314D02*
X18542886Y-12900314D01*
X18442886Y-13014600D01*
X18485743Y-13014600D01*
X18514314Y-13028886D01*
X18528600Y-13043171D01*
X18542886Y-13071743D01*
X18542886Y-13143171D01*
X18528600Y-13171743D01*
X18514314Y-13186029D01*
X18485743Y-13200314D01*
X18400028Y-13200314D01*
X18371457Y-13186029D01*
X18357171Y-13171743D01*
X18685743Y-13200314D02*
X18742886Y-13200314D01*
X18771457Y-13186029D01*
X18785743Y-13171743D01*
X18814314Y-13128886D01*
X18828600Y-13071743D01*
X18828600Y-12957457D01*
X18814314Y-12928886D01*
X18800028Y-12914600D01*
X18771457Y-12900314D01*
X18714314Y-12900314D01*
X18685743Y-12914600D01*
X18671457Y-12928886D01*
X18657171Y-12957457D01*
X18657171Y-13028886D01*
X18671457Y-13057457D01*
X18685743Y-13071743D01*
X18714314Y-13086029D01*
X18771457Y-13086029D01*
X18800028Y-13071743D01*
X18814314Y-13057457D01*
X18828600Y-13028886D01*
X18942886Y-12900314D02*
X18942886Y-12957457D01*
X19057171Y-12900314D02*
X19057171Y-12957457D01*
X19500028Y-13314600D02*
X19485743Y-13300314D01*
X19457171Y-13257457D01*
X19442886Y-13228886D01*
X19428600Y-13186029D01*
X19414314Y-13114600D01*
X19414314Y-13057457D01*
X19428600Y-12986029D01*
X19442886Y-12943171D01*
X19457171Y-12914600D01*
X19485743Y-12871743D01*
X19500028Y-12857457D01*
X19600028Y-12928886D02*
X19614314Y-12914600D01*
X19642886Y-12900314D01*
X19714314Y-12900314D01*
X19742886Y-12914600D01*
X19757171Y-12928886D01*
X19771457Y-12957457D01*
X19771457Y-12986029D01*
X19757171Y-13028886D01*
X19585743Y-13200314D01*
X19771457Y-13200314D01*
X19942886Y-13028886D02*
X19914314Y-13014600D01*
X19900028Y-13000314D01*
X19885743Y-12971743D01*
X19885743Y-12957457D01*
X19900028Y-12928886D01*
X19914314Y-12914600D01*
X19942886Y-12900314D01*
X20000028Y-12900314D01*
X20028600Y-12914600D01*
X20042886Y-12928886D01*
X20057171Y-12957457D01*
X20057171Y-12971743D01*
X20042886Y-13000314D01*
X20028600Y-13014600D01*
X20000028Y-13028886D01*
X19942886Y-13028886D01*
X19914314Y-13043171D01*
X19900028Y-13057457D01*
X19885743Y-13086029D01*
X19885743Y-13143171D01*
X19900028Y-13171743D01*
X19914314Y-13186029D01*
X19942886Y-13200314D01*
X20000028Y-13200314D01*
X20028600Y-13186029D01*
X20042886Y-13171743D01*
X20057171Y-13143171D01*
X20057171Y-13086029D01*
X20042886Y-13057457D01*
X20028600Y-13043171D01*
X20000028Y-13028886D01*
X20414314Y-13200314D02*
X20414314Y-12900314D01*
X20542886Y-13200314D02*
X20542886Y-13043171D01*
X20528600Y-13014600D01*
X20500028Y-13000314D01*
X20457171Y-13000314D01*
X20428600Y-13014600D01*
X20414314Y-13028886D01*
X20728600Y-13200314D02*
X20700028Y-13186029D01*
X20685743Y-13171743D01*
X20671457Y-13143171D01*
X20671457Y-13057457D01*
X20685743Y-13028886D01*
X20700028Y-13014600D01*
X20728600Y-13000314D01*
X20771457Y-13000314D01*
X20800028Y-13014600D01*
X20814314Y-13028886D01*
X20828600Y-13057457D01*
X20828600Y-13143171D01*
X20814314Y-13171743D01*
X20800028Y-13186029D01*
X20771457Y-13200314D01*
X20728600Y-13200314D01*
X21000028Y-13200314D02*
X20971457Y-13186029D01*
X20957171Y-13157457D01*
X20957171Y-12900314D01*
X21228600Y-13186029D02*
X21200029Y-13200314D01*
X21142886Y-13200314D01*
X21114314Y-13186029D01*
X21100029Y-13157457D01*
X21100029Y-13043171D01*
X21114314Y-13014600D01*
X21142886Y-13000314D01*
X21200029Y-13000314D01*
X21228600Y-13014600D01*
X21242886Y-13043171D01*
X21242886Y-13071743D01*
X21100029Y-13100314D01*
X21357171Y-13186029D02*
X21385743Y-13200314D01*
X21442886Y-13200314D01*
X21471457Y-13186029D01*
X21485743Y-13157457D01*
X21485743Y-13143171D01*
X21471457Y-13114600D01*
X21442886Y-13100314D01*
X21400029Y-13100314D01*
X21371457Y-13086029D01*
X21357171Y-13057457D01*
X21357171Y-13043171D01*
X21371457Y-13014600D01*
X21400029Y-13000314D01*
X21442886Y-13000314D01*
X21471457Y-13014600D01*
X21585743Y-13314600D02*
X21600029Y-13300314D01*
X21628600Y-13257457D01*
X21642886Y-13228886D01*
X21657171Y-13186029D01*
X21671457Y-13114600D01*
X21671457Y-13057457D01*
X21657171Y-12986029D01*
X21642886Y-12943171D01*
X21628600Y-12914600D01*
X21600029Y-12871743D01*
X21585743Y-12857457D01*
X14727000Y-13409800D02*
X14828600Y-13511400D01*
X14828600Y-13409800D02*
X14727000Y-13511400D01*
X14828600Y-13460600D02*
G75*
G03X14828600Y-13460600I-50800J0D01*
G01*
X15257171Y-13596314D02*
X15085743Y-13596314D01*
X15171457Y-13596314D02*
X15171457Y-13296314D01*
X15142886Y-13339171D01*
X15114314Y-13367743D01*
X15085743Y-13382029D01*
X15385743Y-13567743D02*
X15400028Y-13582029D01*
X15385743Y-13596314D01*
X15371457Y-13582029D01*
X15385743Y-13567743D01*
X15385743Y-13596314D01*
X15585743Y-13296314D02*
X15614314Y-13296314D01*
X15642886Y-13310600D01*
X15657171Y-13324886D01*
X15671457Y-13353457D01*
X15685743Y-13410600D01*
X15685743Y-13482029D01*
X15671457Y-13539171D01*
X15657171Y-13567743D01*
X15642886Y-13582029D01*
X15614314Y-13596314D01*
X15585743Y-13596314D01*
X15557171Y-13582029D01*
X15542886Y-13567743D01*
X15528600Y-13539171D01*
X15514314Y-13482029D01*
X15514314Y-13410600D01*
X15528600Y-13353457D01*
X15542886Y-13324886D01*
X15557171Y-13310600D01*
X15585743Y-13296314D01*
X15800028Y-13324886D02*
X15814314Y-13310600D01*
X15842886Y-13296314D01*
X15914314Y-13296314D01*
X15942886Y-13310600D01*
X15957171Y-13324886D01*
X15971457Y-13353457D01*
X15971457Y-13382029D01*
X15957171Y-13424886D01*
X15785743Y-13596314D01*
X15971457Y-13596314D01*
X16100028Y-13596314D02*
X16100028Y-13396314D01*
X16100028Y-13424886D02*
X16114314Y-13410600D01*
X16142886Y-13396314D01*
X16185743Y-13396314D01*
X16214314Y-13410600D01*
X16228600Y-13439171D01*
X16228600Y-13596314D01*
X16228600Y-13439171D02*
X16242886Y-13410600D01*
X16271457Y-13396314D01*
X16314314Y-13396314D01*
X16342886Y-13410600D01*
X16357171Y-13439171D01*
X16357171Y-13596314D01*
X16500028Y-13596314D02*
X16500028Y-13396314D01*
X16500028Y-13424886D02*
X16514314Y-13410600D01*
X16542886Y-13396314D01*
X16585743Y-13396314D01*
X16614314Y-13410600D01*
X16628600Y-13439171D01*
X16628600Y-13596314D01*
X16628600Y-13439171D02*
X16642886Y-13410600D01*
X16671457Y-13396314D01*
X16714314Y-13396314D01*
X16742886Y-13410600D01*
X16757171Y-13439171D01*
X16757171Y-13596314D01*
X17342886Y-13282029D02*
X17085743Y-13667743D01*
X17728600Y-13296314D02*
X17757171Y-13296314D01*
X17785743Y-13310600D01*
X17800028Y-13324886D01*
X17814314Y-13353457D01*
X17828600Y-13410600D01*
X17828600Y-13482029D01*
X17814314Y-13539171D01*
X17800028Y-13567743D01*
X17785743Y-13582029D01*
X17757171Y-13596314D01*
X17728600Y-13596314D01*
X17700028Y-13582029D01*
X17685743Y-13567743D01*
X17671457Y-13539171D01*
X17657171Y-13482029D01*
X17657171Y-13410600D01*
X17671457Y-13353457D01*
X17685743Y-13324886D01*
X17700028Y-13310600D01*
X17728600Y-13296314D01*
X17957171Y-13567743D02*
X17971457Y-13582029D01*
X17957171Y-13596314D01*
X17942886Y-13582029D01*
X17957171Y-13567743D01*
X17957171Y-13596314D01*
X18157171Y-13296314D02*
X18185743Y-13296314D01*
X18214314Y-13310600D01*
X18228600Y-13324886D01*
X18242886Y-13353457D01*
X18257171Y-13410600D01*
X18257171Y-13482029D01*
X18242886Y-13539171D01*
X18228600Y-13567743D01*
X18214314Y-13582029D01*
X18185743Y-13596314D01*
X18157171Y-13596314D01*
X18128600Y-13582029D01*
X18114314Y-13567743D01*
X18100028Y-13539171D01*
X18085743Y-13482029D01*
X18085743Y-13410600D01*
X18100028Y-13353457D01*
X18114314Y-13324886D01*
X18128600Y-13310600D01*
X18157171Y-13296314D01*
X18514314Y-13396314D02*
X18514314Y-13596314D01*
X18442886Y-13282029D02*
X18371457Y-13496314D01*
X18557171Y-13496314D01*
X18728600Y-13296314D02*
X18757171Y-13296314D01*
X18785743Y-13310600D01*
X18800028Y-13324886D01*
X18814314Y-13353457D01*
X18828600Y-13410600D01*
X18828600Y-13482029D01*
X18814314Y-13539171D01*
X18800028Y-13567743D01*
X18785743Y-13582029D01*
X18757171Y-13596314D01*
X18728600Y-13596314D01*
X18700028Y-13582029D01*
X18685743Y-13567743D01*
X18671457Y-13539171D01*
X18657171Y-13482029D01*
X18657171Y-13410600D01*
X18671457Y-13353457D01*
X18685743Y-13324886D01*
X18700028Y-13310600D01*
X18728600Y-13296314D01*
X18942886Y-13296314D02*
X18942886Y-13353457D01*
X19057171Y-13296314D02*
X19057171Y-13353457D01*
X19500028Y-13710600D02*
X19485743Y-13696314D01*
X19457171Y-13653457D01*
X19442886Y-13624886D01*
X19428600Y-13582029D01*
X19414314Y-13510600D01*
X19414314Y-13453457D01*
X19428600Y-13382029D01*
X19442886Y-13339171D01*
X19457171Y-13310600D01*
X19485743Y-13267743D01*
X19500028Y-13253457D01*
X19757171Y-13296314D02*
X19614314Y-13296314D01*
X19600028Y-13439171D01*
X19614314Y-13424886D01*
X19642886Y-13410600D01*
X19714314Y-13410600D01*
X19742886Y-13424886D01*
X19757171Y-13439171D01*
X19771457Y-13467743D01*
X19771457Y-13539171D01*
X19757171Y-13567743D01*
X19742886Y-13582029D01*
X19714314Y-13596314D01*
X19642886Y-13596314D01*
X19614314Y-13582029D01*
X19600028Y-13567743D01*
X19957171Y-13296314D02*
X19985743Y-13296314D01*
X20014314Y-13310600D01*
X20028600Y-13324886D01*
X20042886Y-13353457D01*
X20057171Y-13410600D01*
X20057171Y-13482029D01*
X20042886Y-13539171D01*
X20028600Y-13567743D01*
X20014314Y-13582029D01*
X19985743Y-13596314D01*
X19957171Y-13596314D01*
X19928600Y-13582029D01*
X19914314Y-13567743D01*
X19900028Y-13539171D01*
X19885743Y-13482029D01*
X19885743Y-13410600D01*
X19900028Y-13353457D01*
X19914314Y-13324886D01*
X19928600Y-13310600D01*
X19957171Y-13296314D01*
X20414314Y-13596314D02*
X20414314Y-13296314D01*
X20542886Y-13596314D02*
X20542886Y-13439171D01*
X20528600Y-13410600D01*
X20500028Y-13396314D01*
X20457171Y-13396314D01*
X20428600Y-13410600D01*
X20414314Y-13424886D01*
X20728600Y-13596314D02*
X20700028Y-13582029D01*
X20685743Y-13567743D01*
X20671457Y-13539171D01*
X20671457Y-13453457D01*
X20685743Y-13424886D01*
X20700028Y-13410600D01*
X20728600Y-13396314D01*
X20771457Y-13396314D01*
X20800028Y-13410600D01*
X20814314Y-13424886D01*
X20828600Y-13453457D01*
X20828600Y-13539171D01*
X20814314Y-13567743D01*
X20800028Y-13582029D01*
X20771457Y-13596314D01*
X20728600Y-13596314D01*
X21000028Y-13596314D02*
X20971457Y-13582029D01*
X20957171Y-13553457D01*
X20957171Y-13296314D01*
X21228600Y-13582029D02*
X21200029Y-13596314D01*
X21142886Y-13596314D01*
X21114314Y-13582029D01*
X21100029Y-13553457D01*
X21100029Y-13439171D01*
X21114314Y-13410600D01*
X21142886Y-13396314D01*
X21200029Y-13396314D01*
X21228600Y-13410600D01*
X21242886Y-13439171D01*
X21242886Y-13467743D01*
X21100029Y-13496314D01*
X21357171Y-13582029D02*
X21385743Y-13596314D01*
X21442886Y-13596314D01*
X21471457Y-13582029D01*
X21485743Y-13553457D01*
X21485743Y-13539171D01*
X21471457Y-13510600D01*
X21442886Y-13496314D01*
X21400029Y-13496314D01*
X21371457Y-13482029D01*
X21357171Y-13453457D01*
X21357171Y-13439171D01*
X21371457Y-13410600D01*
X21400029Y-13396314D01*
X21442886Y-13396314D01*
X21471457Y-13410600D01*
X21585743Y-13710600D02*
X21600029Y-13696314D01*
X21628600Y-13653457D01*
X21642886Y-13624886D01*
X21657171Y-13582029D01*
X21671457Y-13510600D01*
X21671457Y-13453457D01*
X21657171Y-13382029D01*
X21642886Y-13339171D01*
X21628600Y-13310600D01*
X21600029Y-13267743D01*
X21585743Y-13253457D01*
M02*
