G04 #@! TF.FileFunction,Copper,L1,Top,Signal*
%FSLAX46Y46*%
G04 Gerber Fmt 4.6, Leading zero omitted, Abs format (unit mm)*
G04 Created by KiCad (PCBNEW (after 2015-mar-04 BZR unknown)-product) date Thu 29 Dec 2016 04:21:00 PM CET*
%MOMM*%
G01*
G04 APERTURE LIST*
%ADD10C,0.100000*%
%ADD11C,0.150000*%
%ADD12C,0.970000*%
%ADD13C,1.200000*%
%ADD14R,1.200000X1.200000*%
%ADD15R,2.286000X1.574800*%
%ADD16O,2.286000X1.574800*%
%ADD17R,1.600000X2.000000*%
%ADD18R,1.727200X1.727200*%
%ADD19O,1.727200X1.727200*%
%ADD20R,2.000000X1.700000*%
%ADD21R,0.800100X1.800860*%
%ADD22R,2.032000X2.032000*%
%ADD23O,2.032000X2.032000*%
%ADD24R,2.000000X1.600000*%
%ADD25R,1.800860X3.500120*%
%ADD26C,1.501140*%
%ADD27R,1.700000X2.000000*%
%ADD28C,0.600000*%
%ADD29C,1.000000*%
%ADD30C,0.250000*%
%ADD31C,0.500000*%
%ADD32C,0.254000*%
G04 APERTURE END LIST*
D10*
D11*
X109044740Y-79867760D02*
X109044740Y-79367380D01*
X109044740Y-79867760D02*
X108544360Y-79867760D01*
X109044740Y-80368140D02*
X109044740Y-79867760D01*
X109044740Y-79867760D02*
X109443520Y-79867760D01*
X109443520Y-79867760D02*
X109545120Y-79867760D01*
X115999260Y-94376240D02*
X115999260Y-94876620D01*
X115999260Y-94376240D02*
X116499640Y-94376240D01*
X115999260Y-93875860D02*
X115999260Y-94376240D01*
X115999260Y-94376240D02*
X115600480Y-94376240D01*
X115600480Y-94376240D02*
X115498880Y-94376240D01*
D12*
X107696000Y-96012000D03*
X107696000Y-94234000D03*
X125730000Y-50419000D03*
X125730000Y-47371000D03*
X125730000Y-48895000D03*
X127254000Y-47371000D03*
X127254000Y-48895000D03*
X146558000Y-48260000D03*
X145542000Y-48260000D03*
X127254000Y-50419000D03*
X92075000Y-59309000D03*
X93091000Y-60071000D03*
X93091000Y-58547000D03*
X132334000Y-93599000D03*
X132334000Y-94615000D03*
X99695000Y-73533000D03*
X103632000Y-73660000D03*
X99695000Y-73533000D03*
X99949000Y-85852000D03*
X99949000Y-83820000D03*
X99949000Y-81280000D03*
X99949000Y-78740000D03*
X99949000Y-76708000D03*
X122809000Y-84709000D03*
X121793000Y-84709000D03*
X120777000Y-84709000D03*
X117221000Y-84074000D03*
X116205000Y-84074000D03*
X115189000Y-84074000D03*
X114173000Y-84074000D03*
X153670000Y-97663000D03*
X153670000Y-94615000D03*
X153670000Y-95631000D03*
X153670000Y-96647000D03*
X145415000Y-97663000D03*
X145415000Y-96647000D03*
X145415000Y-95631000D03*
X145415000Y-94615000D03*
X132334000Y-96647000D03*
X132334000Y-97663000D03*
X93091000Y-54483000D03*
X94107000Y-54483000D03*
X95123000Y-54483000D03*
X96139000Y-54483000D03*
X97790000Y-69215000D03*
X96774000Y-69215000D03*
X95758000Y-69215000D03*
X94742000Y-69215000D03*
X106553000Y-67437000D03*
X106045000Y-67945000D03*
X109220000Y-67183000D03*
X109220000Y-68199000D03*
X109220000Y-69215000D03*
X105029000Y-70612000D03*
X104013000Y-70612000D03*
X102997000Y-70866000D03*
X101981000Y-70866000D03*
X105029000Y-67945000D03*
X104013000Y-67945000D03*
X102997000Y-67945000D03*
X101981000Y-67945000D03*
X106934000Y-73660000D03*
X106934000Y-76200000D03*
X106934000Y-81407000D03*
X106807000Y-83820000D03*
X106807000Y-86360000D03*
X108204000Y-90424000D03*
X106807000Y-88900000D03*
X103505000Y-86360000D03*
X102489000Y-86360000D03*
X103505000Y-83820000D03*
X102489000Y-83820000D03*
X102489000Y-81788000D03*
X103505000Y-81788000D03*
X102997000Y-88900000D03*
X101981000Y-88900000D03*
X100965000Y-88900000D03*
X99949000Y-88900000D03*
X99949000Y-92837000D03*
X100965000Y-92837000D03*
X101981000Y-92837000D03*
X103124000Y-92837000D03*
X102997000Y-95885000D03*
X101981000Y-95885000D03*
X100965000Y-95885000D03*
X99949000Y-95885000D03*
X95885000Y-96139000D03*
X95885000Y-93980000D03*
X95885000Y-91440000D03*
X95885000Y-88900000D03*
X95885000Y-83820000D03*
X95885000Y-86487000D03*
X90805000Y-97663000D03*
X89789000Y-97663000D03*
X88773000Y-97663000D03*
X87757000Y-97663000D03*
X87757000Y-85725000D03*
X88773000Y-85725000D03*
X89789000Y-85725000D03*
X90805000Y-85725000D03*
X90805000Y-76708000D03*
X89789000Y-76708000D03*
X88773000Y-76708000D03*
X87757000Y-76708000D03*
X87757000Y-72136000D03*
X88773000Y-72136000D03*
X88646000Y-59055000D03*
X87630000Y-59055000D03*
X131318000Y-88392000D03*
X130302000Y-88392000D03*
X129286000Y-88392000D03*
X128270000Y-88392000D03*
X127254000Y-88392000D03*
X126238000Y-88392000D03*
X131572000Y-85217000D03*
X126111000Y-76327000D03*
X126111000Y-75311000D03*
X126111000Y-74295000D03*
X120777000Y-74295000D03*
X121793000Y-74295000D03*
X122809000Y-74295000D03*
X112395000Y-73152000D03*
X113411000Y-73152000D03*
X114427000Y-73152000D03*
X115443000Y-73152000D03*
X116459000Y-73152000D03*
X117475000Y-73152000D03*
X111252000Y-68199000D03*
X110236000Y-69215000D03*
X109220000Y-70231000D03*
X110998000Y-72136000D03*
X112014000Y-71120000D03*
X113030000Y-70104000D03*
X117602000Y-67818000D03*
X120777000Y-67691000D03*
X117475000Y-70104000D03*
X120777000Y-70104000D03*
X123444000Y-68580000D03*
X124460000Y-68580000D03*
X125476000Y-68580000D03*
X125476000Y-58420000D03*
X124460000Y-58420000D03*
X123444000Y-58420000D03*
X146558000Y-47244000D03*
X145542000Y-47244000D03*
X153670000Y-88900000D03*
X151638000Y-88900000D03*
X151638000Y-90932000D03*
X153670000Y-77978000D03*
X151638000Y-77978000D03*
X149860000Y-77978000D03*
X153670000Y-68326000D03*
X151638000Y-68326000D03*
X149860000Y-68326000D03*
X151892000Y-53340000D03*
X150876000Y-53340000D03*
X149860000Y-53340000D03*
X121666000Y-54356000D03*
X120904000Y-53594000D03*
X120142000Y-52832000D03*
X128270000Y-55118000D03*
X130556000Y-53086000D03*
X131572000Y-53086000D03*
X126238000Y-55118000D03*
X128270000Y-55118000D03*
D13*
X119144000Y-95560000D03*
X119144000Y-93020000D03*
X119144000Y-90480000D03*
X119144000Y-87940000D03*
X119144000Y-85400000D03*
X119144000Y-82860000D03*
X119144000Y-80320000D03*
X119144000Y-77780000D03*
X119144000Y-75240000D03*
X119144000Y-72700000D03*
X119144000Y-70160000D03*
X119144000Y-67620000D03*
X119144000Y-65080000D03*
X119144000Y-62540000D03*
X119144000Y-60000000D03*
X119144000Y-57460000D03*
X119144000Y-54920000D03*
D14*
X134636000Y-95560000D03*
D13*
X134636000Y-93020000D03*
X134636000Y-90480000D03*
X134636000Y-87940000D03*
X134636000Y-85400000D03*
X134636000Y-82860000D03*
X134636000Y-80320000D03*
X134636000Y-77780000D03*
X134636000Y-75240000D03*
X134636000Y-72700000D03*
X134636000Y-70160000D03*
X134636000Y-67620000D03*
X134636000Y-65080000D03*
X134636000Y-62540000D03*
X134636000Y-60000000D03*
X134636000Y-57460000D03*
X134636000Y-54920000D03*
D15*
X105410000Y-95250000D03*
D16*
X105410000Y-92710000D03*
X105410000Y-90170000D03*
X105410000Y-87630000D03*
X105410000Y-85090000D03*
X105410000Y-82550000D03*
X105410000Y-80010000D03*
X105410000Y-77470000D03*
X105410000Y-74930000D03*
X105410000Y-72390000D03*
X97790000Y-72390000D03*
X97790000Y-74930000D03*
X97790000Y-77470000D03*
X97790000Y-80010000D03*
X97790000Y-82550000D03*
X97790000Y-85090000D03*
X97790000Y-87630000D03*
X97790000Y-90170000D03*
X97790000Y-92710000D03*
X97790000Y-95250000D03*
D17*
X102870000Y-79724000D03*
X102870000Y-75724000D03*
D18*
X109855000Y-85090000D03*
D19*
X112395000Y-85090000D03*
X109855000Y-87630000D03*
X112395000Y-87630000D03*
X109855000Y-90170000D03*
X112395000Y-90170000D03*
D18*
X90487500Y-66357500D03*
D19*
X87947500Y-66357500D03*
X90487500Y-63817500D03*
X87947500Y-63817500D03*
X90487500Y-61277500D03*
X87947500Y-61277500D03*
D18*
X103822500Y-48577500D03*
D19*
X106362500Y-48577500D03*
X103822500Y-51117500D03*
X106362500Y-51117500D03*
X103822500Y-53657500D03*
X106362500Y-53657500D03*
D20*
X109442500Y-51117500D03*
X113442500Y-51117500D03*
X100425000Y-51181000D03*
X96425000Y-51181000D03*
D21*
X109662000Y-56664860D03*
X107762000Y-56664860D03*
X108712000Y-59667140D03*
D18*
X150812500Y-56197500D03*
D19*
X153352500Y-56197500D03*
X150812500Y-58737500D03*
X153352500Y-58737500D03*
X150812500Y-61277500D03*
X153352500Y-61277500D03*
X150812500Y-63817500D03*
X153352500Y-63817500D03*
X150812500Y-66357500D03*
X153352500Y-66357500D03*
D20*
X147732500Y-53657500D03*
X143732500Y-53657500D03*
X147732500Y-56197500D03*
X143732500Y-56197500D03*
X147732500Y-58737500D03*
X143732500Y-58737500D03*
X147732500Y-61277500D03*
X143732500Y-61277500D03*
X147732500Y-63817500D03*
X143732500Y-63817500D03*
X147732500Y-66357500D03*
X143732500Y-66357500D03*
D22*
X153162000Y-71120000D03*
D23*
X153162000Y-73660000D03*
D24*
X143415000Y-86995000D03*
X147415000Y-86995000D03*
X143415000Y-79375000D03*
X147415000Y-79375000D03*
D18*
X150495000Y-81915000D03*
D19*
X153035000Y-81915000D03*
X150495000Y-84455000D03*
X153035000Y-84455000D03*
D20*
X143415000Y-81915000D03*
X147415000Y-81915000D03*
X143415000Y-84455000D03*
X147415000Y-84455000D03*
X143415000Y-74295000D03*
X147415000Y-74295000D03*
X143415000Y-92075000D03*
X147415000Y-92075000D03*
D22*
X151892000Y-51054000D03*
D23*
X151892000Y-48514000D03*
D25*
X124460000Y-66080640D03*
X124460000Y-71079360D03*
X124460000Y-55920640D03*
X124460000Y-60919360D03*
D26*
X110744000Y-77597000D03*
X110744000Y-80137000D03*
D17*
X115824000Y-80232000D03*
X115824000Y-76232000D03*
X116205000Y-90900000D03*
X116205000Y-86900000D03*
D26*
X114300000Y-96647000D03*
X114300000Y-94107000D03*
D22*
X132969000Y-48514000D03*
D23*
X135509000Y-48514000D03*
D20*
X113442500Y-53657500D03*
X109442500Y-53657500D03*
X113506000Y-48006000D03*
X109506000Y-48006000D03*
X99536000Y-64262000D03*
X95536000Y-64262000D03*
D24*
X99536000Y-66802000D03*
X95536000Y-66802000D03*
D17*
X115951000Y-66516000D03*
X115951000Y-62516000D03*
D20*
X95536000Y-57404000D03*
X99536000Y-57404000D03*
D27*
X140970000Y-79470000D03*
X140970000Y-75470000D03*
D20*
X147415000Y-76835000D03*
X143415000Y-76835000D03*
D27*
X140970000Y-86900000D03*
X140970000Y-90900000D03*
D20*
X147415000Y-89535000D03*
X143415000Y-89535000D03*
X95472500Y-61912500D03*
X99472500Y-61912500D03*
X95536000Y-59690000D03*
X99536000Y-59690000D03*
D27*
X113538000Y-62516000D03*
X113538000Y-66516000D03*
D12*
X127254000Y-55118000D03*
D28*
X138176000Y-89154000D03*
X138684000Y-78740000D03*
X127508000Y-65024000D03*
X129540000Y-62484000D03*
X111506000Y-59944000D03*
X105156000Y-66294000D03*
X117348000Y-50927000D03*
X131572000Y-75438000D03*
X130556000Y-60452000D03*
X104648000Y-59690000D03*
X98171000Y-54483000D03*
X113442500Y-51117500D03*
X92964000Y-65278000D03*
X92964000Y-69850000D03*
X103759000Y-61976000D03*
X147828000Y-53619400D03*
D29*
X153352500Y-66357500D02*
X153352500Y-63817500D01*
X153352500Y-58737500D02*
X153352500Y-56197500D01*
D30*
X153225500Y-63817500D02*
X153352500Y-63817500D01*
X152095200Y-59994800D02*
X152095200Y-62687200D01*
X152095200Y-62687200D02*
X153225500Y-63817500D01*
X153352500Y-58737500D02*
X152095200Y-59994800D01*
D29*
X124460000Y-88900000D02*
X122880000Y-90480000D01*
X122880000Y-90480000D02*
X119144000Y-90480000D01*
X124460000Y-71079360D02*
X124460000Y-88900000D01*
X118724000Y-90900000D02*
X119144000Y-90480000D01*
X116205000Y-90900000D02*
X118724000Y-90900000D01*
X116205000Y-92710000D02*
X114300000Y-94107000D01*
X116205000Y-90900000D02*
X116205000Y-92710000D01*
X110744000Y-80137000D02*
X115729000Y-80137000D01*
X115729000Y-80137000D02*
X115824000Y-80232000D01*
D31*
X102870000Y-79724000D02*
X105124000Y-79724000D01*
X105124000Y-79724000D02*
X105410000Y-80010000D01*
X138176000Y-89154000D02*
X139922000Y-90900000D01*
X139922000Y-90900000D02*
X140970000Y-90900000D01*
X138684000Y-78740000D02*
X140970000Y-76454000D01*
D29*
X140970000Y-76454000D02*
X140970000Y-75470000D01*
D31*
X99536000Y-64262000D02*
X99536000Y-66802000D01*
D29*
X119144000Y-82860000D02*
X118452000Y-82860000D01*
X118452000Y-82860000D02*
X115729000Y-80137000D01*
X115729000Y-80137000D02*
X108966000Y-80137000D01*
X108966000Y-80137000D02*
X105537000Y-80137000D01*
D31*
X105537000Y-80137000D02*
X105410000Y-80010000D01*
X113538000Y-66516000D02*
X115951000Y-66516000D01*
D29*
X108966000Y-80137000D02*
X108966000Y-72263000D01*
D31*
X113538000Y-67691000D02*
X113538000Y-66516000D01*
X108966000Y-72263000D02*
X113538000Y-67691000D01*
X99536000Y-68294000D02*
X100584000Y-69342000D01*
X100584000Y-69342000D02*
X106045000Y-69342000D01*
X106045000Y-69342000D02*
X108966000Y-72263000D01*
X99536000Y-66802000D02*
X99536000Y-68294000D01*
X143415000Y-84455000D02*
X138811000Y-84455000D01*
X127508000Y-83058000D02*
X127508000Y-65024000D01*
X131064000Y-86614000D02*
X127508000Y-83058000D01*
X136652000Y-86614000D02*
X131064000Y-86614000D01*
X138811000Y-84455000D02*
X136652000Y-86614000D01*
X143320000Y-86900000D02*
X140970000Y-86900000D01*
X143415000Y-86995000D02*
X143320000Y-86900000D01*
X143415000Y-84455000D02*
X143415000Y-86995000D01*
X143415000Y-89535000D02*
X143415000Y-92075000D01*
X143415000Y-86995000D02*
X143415000Y-89535000D01*
X143415000Y-81915000D02*
X138557000Y-81915000D01*
X129540000Y-82296000D02*
X129540000Y-62484000D01*
X131318000Y-84074000D02*
X129540000Y-82296000D01*
X136398000Y-84074000D02*
X131318000Y-84074000D01*
X138557000Y-81915000D02*
X136398000Y-84074000D01*
X143415000Y-79565000D02*
X143415000Y-81915000D01*
X143320000Y-79470000D02*
X143415000Y-79565000D01*
X140970000Y-79470000D02*
X143320000Y-79470000D01*
X143415000Y-79375000D02*
X143415000Y-76835000D01*
X143415000Y-76835000D02*
X143415000Y-74295000D01*
X90487500Y-66357500D02*
X90487500Y-71691500D01*
X107696000Y-92710000D02*
X105410000Y-92710000D01*
X109093000Y-94107000D02*
X107696000Y-92710000D01*
X109093000Y-96647000D02*
X109093000Y-94107000D01*
X108458000Y-97282000D02*
X109093000Y-96647000D01*
X94615000Y-97282000D02*
X108458000Y-97282000D01*
X94615000Y-97282000D02*
X94615000Y-97282000D01*
X94615000Y-75819000D02*
X94615000Y-97282000D01*
X90487500Y-71691500D02*
X94615000Y-75819000D01*
X111379000Y-59944000D02*
X111506000Y-59944000D01*
X105156000Y-66294000D02*
X111379000Y-59944000D01*
X117380000Y-50895000D02*
X117348000Y-50927000D01*
X115824000Y-48006000D02*
X117348000Y-49530000D01*
X117348000Y-49530000D02*
X117348000Y-50927000D01*
X113506000Y-48006000D02*
X115824000Y-48006000D01*
X116586000Y-50927000D02*
X116205000Y-51308000D01*
X116205000Y-51308000D02*
X116205000Y-57150000D01*
X116205000Y-57150000D02*
X113538000Y-59817000D01*
X113538000Y-59817000D02*
X113538000Y-62516000D01*
X117348000Y-50927000D02*
X116586000Y-50927000D01*
X131572000Y-75438000D02*
X131572000Y-75438000D01*
X130556000Y-60452000D02*
X131572000Y-61468000D01*
X131572000Y-61468000D02*
X131572000Y-75438000D01*
D29*
X143732500Y-66357500D02*
X140652500Y-66357500D01*
X136850000Y-77780000D02*
X134636000Y-77780000D01*
X139065000Y-75565000D02*
X136850000Y-77780000D01*
X139065000Y-67945000D02*
X139065000Y-75565000D01*
X140652500Y-66357500D02*
X139065000Y-67945000D01*
X143732500Y-63817500D02*
X140652500Y-63817500D01*
X136850000Y-75240000D02*
X134636000Y-75240000D01*
X137160000Y-74930000D02*
X136850000Y-75240000D01*
X140652500Y-63817500D02*
X137160000Y-67310000D01*
X137160000Y-67310000D02*
X137160000Y-74930000D01*
D31*
X104648000Y-59690000D02*
X99536000Y-59690000D01*
X96425000Y-51181000D02*
X96425000Y-52737000D01*
X98171000Y-54483000D02*
X96425000Y-52737000D01*
D29*
X140652500Y-61277500D02*
X136850000Y-65080000D01*
X136850000Y-65080000D02*
X134636000Y-65080000D01*
X143732500Y-61277500D02*
X140652500Y-61277500D01*
X140652500Y-58737500D02*
X136850000Y-62540000D01*
X136850000Y-62540000D02*
X134636000Y-62540000D01*
X143732500Y-58737500D02*
X140652500Y-58737500D01*
X140652500Y-56197500D02*
X136850000Y-60000000D01*
X136850000Y-60000000D02*
X134636000Y-60000000D01*
X143732500Y-56197500D02*
X140652500Y-56197500D01*
X140652500Y-53657500D02*
X136850000Y-57460000D01*
X136850000Y-57460000D02*
X134636000Y-57460000D01*
X143732500Y-53657500D02*
X140652500Y-53657500D01*
D31*
X92964000Y-69850000D02*
X92964000Y-65278000D01*
X90487500Y-61277500D02*
X90487500Y-58991500D01*
X92075000Y-57404000D02*
X95536000Y-57404000D01*
X90487500Y-58991500D02*
X92075000Y-57404000D01*
X103695500Y-61912500D02*
X103759000Y-61976000D01*
X99472500Y-61912500D02*
X103695500Y-61912500D01*
X105410000Y-87630000D02*
X109855000Y-87630000D01*
X105410000Y-85090000D02*
X109855000Y-85090000D01*
X95472500Y-61912500D02*
X95472500Y-59753500D01*
X95472500Y-59753500D02*
X95536000Y-59690000D01*
X95536000Y-64262000D02*
X95536000Y-61976000D01*
X95536000Y-61976000D02*
X95472500Y-61912500D01*
X90487500Y-63817500D02*
X92519500Y-63817500D01*
X92964000Y-64262000D02*
X95536000Y-64262000D01*
X92519500Y-63817500D02*
X92964000Y-64262000D01*
X106362500Y-48577500D02*
X109506000Y-48006000D01*
X103822500Y-51117500D02*
X100488500Y-51117500D01*
X100488500Y-51117500D02*
X100425000Y-51181000D01*
X106362500Y-51117500D02*
X109442500Y-51117500D01*
X106362500Y-53657500D02*
X109442500Y-53657500D01*
X113442500Y-55721500D02*
X112499140Y-56664860D01*
X112499140Y-56664860D02*
X109662000Y-56664860D01*
X113442500Y-53657500D02*
X113442500Y-55721500D01*
X104648000Y-57404000D02*
X105387140Y-56664860D01*
X105387140Y-56664860D02*
X107762000Y-56664860D01*
X99536000Y-57404000D02*
X104648000Y-57404000D01*
D29*
X150812500Y-56197500D02*
X147732500Y-56197500D01*
X150812500Y-58737500D02*
X147732500Y-58737500D01*
X150812500Y-61277500D02*
X147732500Y-61277500D01*
D31*
X147828000Y-53619400D02*
X147789900Y-53657500D01*
X147789900Y-53657500D02*
X147732500Y-53657500D01*
D29*
X150812500Y-63817500D02*
X147732500Y-63817500D01*
X150812500Y-66357500D02*
X147732500Y-66357500D01*
D31*
X147415000Y-81915000D02*
X150495000Y-81915000D01*
X147415000Y-84455000D02*
X150495000Y-84455000D01*
D29*
X124460000Y-60919360D02*
X124460000Y-66080640D01*
X124460000Y-53340000D02*
X125476000Y-52324000D01*
X125476000Y-52324000D02*
X127762000Y-52324000D01*
X127762000Y-52324000D02*
X128778000Y-51308000D01*
X128778000Y-51308000D02*
X128778000Y-49657000D01*
X128778000Y-49657000D02*
X129921000Y-48514000D01*
X129921000Y-48514000D02*
X132969000Y-48514000D01*
X124460000Y-55920640D02*
X124460000Y-53340000D01*
D32*
G36*
X93968431Y-58546199D02*
X93938623Y-58590360D01*
X93888560Y-58840000D01*
X93888560Y-60540000D01*
X93926681Y-60736479D01*
X93875123Y-60812860D01*
X93825060Y-61062500D01*
X93825060Y-62762500D01*
X93872037Y-63004623D01*
X93957390Y-63134557D01*
X93938623Y-63162360D01*
X93895578Y-63377000D01*
X93330579Y-63377000D01*
X93145290Y-63191710D01*
X92858175Y-62999867D01*
X92801984Y-62988689D01*
X92519500Y-62932499D01*
X92519494Y-62932500D01*
X91693239Y-62932500D01*
X91576529Y-62757830D01*
X91261748Y-62547500D01*
X91576529Y-62337170D01*
X91901385Y-61850989D01*
X92015459Y-61277500D01*
X91901385Y-60704011D01*
X91576529Y-60217830D01*
X91372500Y-60081502D01*
X91372500Y-59358079D01*
X92441579Y-58289000D01*
X93895350Y-58289000D01*
X93935537Y-58496123D01*
X93968431Y-58546199D01*
X93968431Y-58546199D01*
G37*
X93968431Y-58546199D02*
X93938623Y-58590360D01*
X93888560Y-58840000D01*
X93888560Y-60540000D01*
X93926681Y-60736479D01*
X93875123Y-60812860D01*
X93825060Y-61062500D01*
X93825060Y-62762500D01*
X93872037Y-63004623D01*
X93957390Y-63134557D01*
X93938623Y-63162360D01*
X93895578Y-63377000D01*
X93330579Y-63377000D01*
X93145290Y-63191710D01*
X92858175Y-62999867D01*
X92801984Y-62988689D01*
X92519500Y-62932499D01*
X92519494Y-62932500D01*
X91693239Y-62932500D01*
X91576529Y-62757830D01*
X91261748Y-62547500D01*
X91576529Y-62337170D01*
X91901385Y-61850989D01*
X92015459Y-61277500D01*
X91901385Y-60704011D01*
X91576529Y-60217830D01*
X91372500Y-60081502D01*
X91372500Y-59358079D01*
X92441579Y-58289000D01*
X93895350Y-58289000D01*
X93935537Y-58496123D01*
X93968431Y-58546199D01*
G36*
X108208000Y-96280420D02*
X108091420Y-96397000D01*
X107076152Y-96397000D01*
X107150377Y-96287040D01*
X107200440Y-96037400D01*
X107200440Y-94462600D01*
X107153463Y-94220477D01*
X107013673Y-94007673D01*
X106802640Y-93865223D01*
X106633378Y-93831279D01*
X106806222Y-93715789D01*
X106886930Y-93595000D01*
X107329420Y-93595000D01*
X108208000Y-94473579D01*
X108208000Y-96280420D01*
X108208000Y-96280420D01*
G37*
X108208000Y-96280420D02*
X108091420Y-96397000D01*
X107076152Y-96397000D01*
X107150377Y-96287040D01*
X107200440Y-96037400D01*
X107200440Y-94462600D01*
X107153463Y-94220477D01*
X107013673Y-94007673D01*
X106802640Y-93865223D01*
X106633378Y-93831279D01*
X106806222Y-93715789D01*
X106886930Y-93595000D01*
X107329420Y-93595000D01*
X108208000Y-94473579D01*
X108208000Y-96280420D01*
G36*
X108782659Y-86559179D02*
X108765971Y-86570330D01*
X108649260Y-86745000D01*
X106886930Y-86745000D01*
X106806222Y-86624211D01*
X106410801Y-86360000D01*
X106806222Y-86095789D01*
X106886930Y-85975000D01*
X108348112Y-85975000D01*
X108390937Y-86195723D01*
X108530727Y-86408527D01*
X108741760Y-86550977D01*
X108782659Y-86559179D01*
X108782659Y-86559179D01*
G37*
X108782659Y-86559179D02*
X108765971Y-86570330D01*
X108649260Y-86745000D01*
X106886930Y-86745000D01*
X106806222Y-86624211D01*
X106410801Y-86360000D01*
X106806222Y-86095789D01*
X106886930Y-85975000D01*
X108348112Y-85975000D01*
X108390937Y-86195723D01*
X108530727Y-86408527D01*
X108741760Y-86550977D01*
X108782659Y-86559179D01*
G36*
X152586728Y-60001836D02*
X152263471Y-60217830D01*
X152082500Y-60488672D01*
X151901529Y-60217830D01*
X151586748Y-60007500D01*
X151901529Y-59797170D01*
X152082492Y-59526339D01*
X152464010Y-59944321D01*
X152586728Y-60001836D01*
X152586728Y-60001836D01*
G37*
X152586728Y-60001836D02*
X152263471Y-60217830D01*
X152082500Y-60488672D01*
X151901529Y-60217830D01*
X151586748Y-60007500D01*
X151901529Y-59797170D01*
X152082492Y-59526339D01*
X152464010Y-59944321D01*
X152586728Y-60001836D01*
G36*
X152586728Y-62553163D02*
X152464010Y-62610679D01*
X152082492Y-63028660D01*
X151901529Y-62757830D01*
X151586748Y-62547500D01*
X151901529Y-62337170D01*
X152082500Y-62066327D01*
X152263471Y-62337170D01*
X152586728Y-62553163D01*
X152586728Y-62553163D01*
G37*
X152586728Y-62553163D02*
X152464010Y-62610679D01*
X152082492Y-63028660D01*
X151901529Y-62757830D01*
X151586748Y-62547500D01*
X151901529Y-62337170D01*
X152082500Y-62066327D01*
X152263471Y-62337170D01*
X152586728Y-62553163D01*
G36*
X154255000Y-98375000D02*
X153035000Y-98375000D01*
X153035000Y-75147367D01*
X153035000Y-73787000D01*
X151675164Y-73787000D01*
X151556025Y-74042944D01*
X151755615Y-74524818D01*
X152193621Y-74997188D01*
X152779054Y-75265983D01*
X153035000Y-75147367D01*
X153035000Y-98375000D01*
X152908000Y-98375000D01*
X152908000Y-85789469D01*
X152908000Y-84582000D01*
X152888000Y-84582000D01*
X152888000Y-84328000D01*
X152908000Y-84328000D01*
X152908000Y-83249469D01*
X152908000Y-83120531D01*
X152908000Y-82042000D01*
X152888000Y-82042000D01*
X152888000Y-81788000D01*
X152908000Y-81788000D01*
X152908000Y-80580531D01*
X152675973Y-80460032D01*
X152146510Y-80708179D01*
X151975746Y-80895263D01*
X151959063Y-80809277D01*
X151819273Y-80596473D01*
X151608240Y-80454023D01*
X151358600Y-80403960D01*
X149631400Y-80403960D01*
X149389277Y-80450937D01*
X149176473Y-80590727D01*
X149034023Y-80801760D01*
X149022507Y-80859183D01*
X149015463Y-80822877D01*
X148876576Y-80611448D01*
X148953327Y-80534699D01*
X149050000Y-80301310D01*
X149050000Y-80048691D01*
X149050000Y-79660750D01*
X149050000Y-79089250D01*
X149050000Y-78701309D01*
X149050000Y-78448690D01*
X148953327Y-78215301D01*
X148868025Y-78130000D01*
X148953327Y-78044699D01*
X149050000Y-77811310D01*
X149050000Y-77558691D01*
X149050000Y-77120750D01*
X149050000Y-76549250D01*
X149050000Y-76111309D01*
X149050000Y-75858690D01*
X148953327Y-75625301D01*
X148893025Y-75565000D01*
X148953327Y-75504699D01*
X149050000Y-75271310D01*
X149050000Y-75018691D01*
X149050000Y-74580750D01*
X149050000Y-74009250D01*
X149050000Y-73571309D01*
X149050000Y-73318690D01*
X148953327Y-73085301D01*
X148774698Y-72906673D01*
X148541309Y-72810000D01*
X147700750Y-72810000D01*
X147542000Y-72968750D01*
X147542000Y-74168000D01*
X148891250Y-74168000D01*
X149050000Y-74009250D01*
X149050000Y-74580750D01*
X148891250Y-74422000D01*
X147542000Y-74422000D01*
X147542000Y-75508750D01*
X147542000Y-75621250D01*
X147542000Y-76708000D01*
X148891250Y-76708000D01*
X149050000Y-76549250D01*
X149050000Y-77120750D01*
X148891250Y-76962000D01*
X147542000Y-76962000D01*
X147542000Y-78098750D01*
X147542000Y-78161250D01*
X147542000Y-79248000D01*
X148891250Y-79248000D01*
X149050000Y-79089250D01*
X149050000Y-79660750D01*
X148891250Y-79502000D01*
X147542000Y-79502000D01*
X147542000Y-79522000D01*
X147288000Y-79522000D01*
X147288000Y-79502000D01*
X147288000Y-79248000D01*
X147288000Y-78161250D01*
X147288000Y-78098750D01*
X147288000Y-76962000D01*
X147288000Y-76708000D01*
X147288000Y-75621250D01*
X147288000Y-75508750D01*
X147288000Y-74422000D01*
X147288000Y-74168000D01*
X147288000Y-72968750D01*
X147129250Y-72810000D01*
X146288691Y-72810000D01*
X146055302Y-72906673D01*
X145876673Y-73085301D01*
X145780000Y-73318690D01*
X145780000Y-73571309D01*
X145780000Y-74009250D01*
X145938750Y-74168000D01*
X147288000Y-74168000D01*
X147288000Y-74422000D01*
X145938750Y-74422000D01*
X145780000Y-74580750D01*
X145780000Y-75018691D01*
X145780000Y-75271310D01*
X145876673Y-75504699D01*
X145936974Y-75565000D01*
X145876673Y-75625301D01*
X145780000Y-75858690D01*
X145780000Y-76111309D01*
X145780000Y-76549250D01*
X145938750Y-76708000D01*
X147288000Y-76708000D01*
X147288000Y-76962000D01*
X145938750Y-76962000D01*
X145780000Y-77120750D01*
X145780000Y-77558691D01*
X145780000Y-77811310D01*
X145876673Y-78044699D01*
X145961974Y-78130000D01*
X145876673Y-78215301D01*
X145780000Y-78448690D01*
X145780000Y-78701309D01*
X145780000Y-79089250D01*
X145938750Y-79248000D01*
X147288000Y-79248000D01*
X147288000Y-79502000D01*
X145938750Y-79502000D01*
X145780000Y-79660750D01*
X145780000Y-80048691D01*
X145780000Y-80301310D01*
X145876673Y-80534699D01*
X145954523Y-80612548D01*
X145817623Y-80815360D01*
X145767560Y-81065000D01*
X145767560Y-82765000D01*
X145814537Y-83007123D01*
X145931992Y-83185926D01*
X145817623Y-83355360D01*
X145767560Y-83605000D01*
X145767560Y-85305000D01*
X145814537Y-85547123D01*
X145953423Y-85758551D01*
X145876673Y-85835301D01*
X145780000Y-86068690D01*
X145780000Y-86321309D01*
X145780000Y-86709250D01*
X145938750Y-86868000D01*
X147288000Y-86868000D01*
X147288000Y-86848000D01*
X147542000Y-86848000D01*
X147542000Y-86868000D01*
X148891250Y-86868000D01*
X149050000Y-86709250D01*
X149050000Y-86321309D01*
X149050000Y-86068690D01*
X148953327Y-85835301D01*
X148875476Y-85757451D01*
X149012377Y-85554640D01*
X149055421Y-85340000D01*
X149289260Y-85340000D01*
X149405971Y-85514670D01*
X149892152Y-85839526D01*
X150465641Y-85953600D01*
X150524359Y-85953600D01*
X151097848Y-85839526D01*
X151584029Y-85514670D01*
X151764992Y-85243839D01*
X152146510Y-85661821D01*
X152675973Y-85909968D01*
X152908000Y-85789469D01*
X152908000Y-98375000D01*
X149050000Y-98375000D01*
X149050000Y-93051310D01*
X149050000Y-92798691D01*
X149050000Y-92360750D01*
X149050000Y-91789250D01*
X149050000Y-91351309D01*
X149050000Y-91098690D01*
X148953327Y-90865301D01*
X148893025Y-90805000D01*
X148953327Y-90744699D01*
X149050000Y-90511310D01*
X149050000Y-90258691D01*
X149050000Y-89820750D01*
X149050000Y-89249250D01*
X149050000Y-88811309D01*
X149050000Y-88558690D01*
X148953327Y-88325301D01*
X148868025Y-88240000D01*
X148953327Y-88154699D01*
X149050000Y-87921310D01*
X149050000Y-87668691D01*
X149050000Y-87280750D01*
X148891250Y-87122000D01*
X147542000Y-87122000D01*
X147542000Y-88208750D01*
X147542000Y-88271250D01*
X147542000Y-89408000D01*
X148891250Y-89408000D01*
X149050000Y-89249250D01*
X149050000Y-89820750D01*
X148891250Y-89662000D01*
X147542000Y-89662000D01*
X147542000Y-90748750D01*
X147542000Y-90861250D01*
X147542000Y-91948000D01*
X148891250Y-91948000D01*
X149050000Y-91789250D01*
X149050000Y-92360750D01*
X148891250Y-92202000D01*
X147542000Y-92202000D01*
X147542000Y-93401250D01*
X147700750Y-93560000D01*
X148541309Y-93560000D01*
X148774698Y-93463327D01*
X148953327Y-93284699D01*
X149050000Y-93051310D01*
X149050000Y-98375000D01*
X147288000Y-98375000D01*
X147288000Y-93401250D01*
X147288000Y-92202000D01*
X147288000Y-91948000D01*
X147288000Y-90861250D01*
X147288000Y-90748750D01*
X147288000Y-89662000D01*
X147288000Y-89408000D01*
X147288000Y-88271250D01*
X147288000Y-88208750D01*
X147288000Y-87122000D01*
X145938750Y-87122000D01*
X145780000Y-87280750D01*
X145780000Y-87668691D01*
X145780000Y-87921310D01*
X145876673Y-88154699D01*
X145961974Y-88240000D01*
X145876673Y-88325301D01*
X145780000Y-88558690D01*
X145780000Y-88811309D01*
X145780000Y-89249250D01*
X145938750Y-89408000D01*
X147288000Y-89408000D01*
X147288000Y-89662000D01*
X145938750Y-89662000D01*
X145780000Y-89820750D01*
X145780000Y-90258691D01*
X145780000Y-90511310D01*
X145876673Y-90744699D01*
X145936974Y-90805000D01*
X145876673Y-90865301D01*
X145780000Y-91098690D01*
X145780000Y-91351309D01*
X145780000Y-91789250D01*
X145938750Y-91948000D01*
X147288000Y-91948000D01*
X147288000Y-92202000D01*
X145938750Y-92202000D01*
X145780000Y-92360750D01*
X145780000Y-92798691D01*
X145780000Y-93051310D01*
X145876673Y-93284699D01*
X146055302Y-93463327D01*
X146288691Y-93560000D01*
X147129250Y-93560000D01*
X147288000Y-93401250D01*
X147288000Y-98375000D01*
X145379940Y-98375000D01*
X145379940Y-67207500D01*
X145379940Y-65507500D01*
X145332963Y-65265377D01*
X145215507Y-65086573D01*
X145329877Y-64917140D01*
X145379940Y-64667500D01*
X145379940Y-62967500D01*
X145332963Y-62725377D01*
X145215507Y-62546573D01*
X145329877Y-62377140D01*
X145379940Y-62127500D01*
X145379940Y-60427500D01*
X145332963Y-60185377D01*
X145215507Y-60006573D01*
X145329877Y-59837140D01*
X145379940Y-59587500D01*
X145379940Y-57887500D01*
X145332963Y-57645377D01*
X145215507Y-57466573D01*
X145329877Y-57297140D01*
X145379940Y-57047500D01*
X145379940Y-55347500D01*
X145332963Y-55105377D01*
X145215507Y-54926573D01*
X145329877Y-54757140D01*
X145379940Y-54507500D01*
X145379940Y-52807500D01*
X145332963Y-52565377D01*
X145193173Y-52352573D01*
X144982140Y-52210123D01*
X144732500Y-52160060D01*
X142732500Y-52160060D01*
X142490377Y-52207037D01*
X142277573Y-52346827D01*
X142158991Y-52522500D01*
X140652500Y-52522500D01*
X140218154Y-52608897D01*
X139849934Y-52854934D01*
X137114983Y-55589885D01*
X137114983Y-48896946D01*
X137114983Y-48131054D01*
X136846188Y-47545621D01*
X136373818Y-47107615D01*
X135891944Y-46908025D01*
X135636000Y-47027164D01*
X135636000Y-48387000D01*
X136996367Y-48387000D01*
X137114983Y-48131054D01*
X137114983Y-48896946D01*
X136996367Y-48641000D01*
X135636000Y-48641000D01*
X135636000Y-50000836D01*
X135891944Y-50119975D01*
X136373818Y-49920385D01*
X136846188Y-49482379D01*
X137114983Y-48896946D01*
X137114983Y-55589885D01*
X136379868Y-56325000D01*
X135871214Y-56325000D01*
X135871214Y-54675421D01*
X135683592Y-54221343D01*
X135382000Y-53919223D01*
X135382000Y-50000836D01*
X135382000Y-48641000D01*
X135362000Y-48641000D01*
X135362000Y-48387000D01*
X135382000Y-48387000D01*
X135382000Y-47027164D01*
X135126056Y-46908025D01*
X134644182Y-47107615D01*
X134547164Y-47197574D01*
X134445673Y-47043073D01*
X134234640Y-46900623D01*
X133985000Y-46850560D01*
X131953000Y-46850560D01*
X131710877Y-46897537D01*
X131498073Y-47037327D01*
X131355623Y-47248360D01*
X131329424Y-47379000D01*
X129921000Y-47379000D01*
X129486654Y-47465397D01*
X129118434Y-47711434D01*
X127975434Y-48854434D01*
X127729397Y-49222654D01*
X127643000Y-49657000D01*
X127643000Y-50837868D01*
X127291868Y-51189000D01*
X125476000Y-51189000D01*
X125041654Y-51275397D01*
X124673434Y-51521434D01*
X123657434Y-52537434D01*
X123411397Y-52905654D01*
X123325000Y-53340000D01*
X123325000Y-53568651D01*
X123317447Y-53570117D01*
X123104643Y-53709907D01*
X122962193Y-53920940D01*
X122912130Y-54170580D01*
X122912130Y-57670700D01*
X122959107Y-57912823D01*
X123098897Y-58125627D01*
X123309930Y-58268077D01*
X123559570Y-58318140D01*
X125360430Y-58318140D01*
X125602553Y-58271163D01*
X125815357Y-58131373D01*
X125957807Y-57920340D01*
X126007870Y-57670700D01*
X126007870Y-54170580D01*
X125960893Y-53928457D01*
X125821103Y-53715653D01*
X125742522Y-53662609D01*
X125946132Y-53459000D01*
X127762000Y-53459000D01*
X128196345Y-53372603D01*
X128196346Y-53372603D01*
X128564566Y-53126566D01*
X129580566Y-52110566D01*
X129826603Y-51742346D01*
X129826603Y-51742345D01*
X129913000Y-51308000D01*
X129913000Y-50127132D01*
X130391132Y-49649000D01*
X131328648Y-49649000D01*
X131352537Y-49772123D01*
X131492327Y-49984927D01*
X131703360Y-50127377D01*
X131953000Y-50177440D01*
X133985000Y-50177440D01*
X134227123Y-50130463D01*
X134439927Y-49990673D01*
X134547737Y-49830956D01*
X134644182Y-49920385D01*
X135126056Y-50119975D01*
X135382000Y-50000836D01*
X135382000Y-53919223D01*
X135336485Y-53873629D01*
X134882734Y-53685215D01*
X134391421Y-53684786D01*
X133937343Y-53872408D01*
X133589629Y-54219515D01*
X133401215Y-54673266D01*
X133400786Y-55164579D01*
X133588408Y-55618657D01*
X133935515Y-55966371D01*
X134389266Y-56154785D01*
X134880579Y-56155214D01*
X135334657Y-55967592D01*
X135682371Y-55620485D01*
X135870785Y-55166734D01*
X135871214Y-54675421D01*
X135871214Y-56325000D01*
X135123042Y-56325000D01*
X134882734Y-56225215D01*
X134391421Y-56224786D01*
X133937343Y-56412408D01*
X133589629Y-56759515D01*
X133401215Y-57213266D01*
X133400786Y-57704579D01*
X133588408Y-58158657D01*
X133935515Y-58506371D01*
X134389266Y-58694785D01*
X134880579Y-58695214D01*
X135123114Y-58595000D01*
X136649868Y-58595000D01*
X136379868Y-58865000D01*
X135123042Y-58865000D01*
X134882734Y-58765215D01*
X134391421Y-58764786D01*
X133937343Y-58952408D01*
X133589629Y-59299515D01*
X133401215Y-59753266D01*
X133400786Y-60244579D01*
X133588408Y-60698657D01*
X133935515Y-61046371D01*
X134389266Y-61234785D01*
X134880579Y-61235214D01*
X135123114Y-61135000D01*
X136649868Y-61135000D01*
X136379868Y-61405000D01*
X135123042Y-61405000D01*
X134882734Y-61305215D01*
X134391421Y-61304786D01*
X133937343Y-61492408D01*
X133589629Y-61839515D01*
X133401215Y-62293266D01*
X133400786Y-62784579D01*
X133588408Y-63238657D01*
X133935515Y-63586371D01*
X134389266Y-63774785D01*
X134880579Y-63775214D01*
X135123114Y-63675000D01*
X136649868Y-63675000D01*
X136379868Y-63945000D01*
X135123042Y-63945000D01*
X134882734Y-63845215D01*
X134391421Y-63844786D01*
X133937343Y-64032408D01*
X133589629Y-64379515D01*
X133401215Y-64833266D01*
X133400786Y-65324579D01*
X133588408Y-65778657D01*
X133935515Y-66126371D01*
X134389266Y-66314785D01*
X134880579Y-66315214D01*
X135123114Y-66215000D01*
X136649868Y-66215000D01*
X136357434Y-66507434D01*
X136111397Y-66875654D01*
X136025000Y-67310000D01*
X136025000Y-74105000D01*
X135871214Y-74105000D01*
X135871214Y-72455421D01*
X135871214Y-69915421D01*
X135871214Y-67375421D01*
X135683592Y-66921343D01*
X135336485Y-66573629D01*
X134882734Y-66385215D01*
X134391421Y-66384786D01*
X133937343Y-66572408D01*
X133589629Y-66919515D01*
X133401215Y-67373266D01*
X133400786Y-67864579D01*
X133588408Y-68318657D01*
X133935515Y-68666371D01*
X134389266Y-68854785D01*
X134880579Y-68855214D01*
X135334657Y-68667592D01*
X135682371Y-68320485D01*
X135870785Y-67866734D01*
X135871214Y-67375421D01*
X135871214Y-69915421D01*
X135683592Y-69461343D01*
X135336485Y-69113629D01*
X134882734Y-68925215D01*
X134391421Y-68924786D01*
X133937343Y-69112408D01*
X133589629Y-69459515D01*
X133401215Y-69913266D01*
X133400786Y-70404579D01*
X133588408Y-70858657D01*
X133935515Y-71206371D01*
X134389266Y-71394785D01*
X134880579Y-71395214D01*
X135334657Y-71207592D01*
X135682371Y-70860485D01*
X135870785Y-70406734D01*
X135871214Y-69915421D01*
X135871214Y-72455421D01*
X135683592Y-72001343D01*
X135336485Y-71653629D01*
X134882734Y-71465215D01*
X134391421Y-71464786D01*
X133937343Y-71652408D01*
X133589629Y-71999515D01*
X133401215Y-72453266D01*
X133400786Y-72944579D01*
X133588408Y-73398657D01*
X133935515Y-73746371D01*
X134389266Y-73934785D01*
X134880579Y-73935214D01*
X135334657Y-73747592D01*
X135682371Y-73400485D01*
X135870785Y-72946734D01*
X135871214Y-72455421D01*
X135871214Y-74105000D01*
X135123042Y-74105000D01*
X134882734Y-74005215D01*
X134391421Y-74004786D01*
X133937343Y-74192408D01*
X133589629Y-74539515D01*
X133401215Y-74993266D01*
X133400786Y-75484579D01*
X133588408Y-75938657D01*
X133935515Y-76286371D01*
X134389266Y-76474785D01*
X134880579Y-76475214D01*
X135123114Y-76375000D01*
X136649868Y-76375000D01*
X136379868Y-76645000D01*
X135123042Y-76645000D01*
X134882734Y-76545215D01*
X134391421Y-76544786D01*
X133937343Y-76732408D01*
X133589629Y-77079515D01*
X133401215Y-77533266D01*
X133400786Y-78024579D01*
X133588408Y-78478657D01*
X133935515Y-78826371D01*
X134389266Y-79014785D01*
X134880579Y-79015214D01*
X135123114Y-78915000D01*
X136850000Y-78915000D01*
X137284345Y-78828603D01*
X137284346Y-78828603D01*
X137652566Y-78582566D01*
X137796902Y-78438229D01*
X137749162Y-78553201D01*
X137748838Y-78925167D01*
X137890883Y-79268943D01*
X138153673Y-79532192D01*
X138497201Y-79674838D01*
X138869167Y-79675162D01*
X139212943Y-79533117D01*
X139472560Y-79273952D01*
X139472560Y-80470000D01*
X139519537Y-80712123D01*
X139659327Y-80924927D01*
X139814987Y-81030000D01*
X138557005Y-81030000D01*
X138557000Y-81029999D01*
X138218325Y-81097367D01*
X137931210Y-81289210D01*
X137931207Y-81289213D01*
X136031420Y-83189000D01*
X135828822Y-83189000D01*
X135883807Y-83028964D01*
X135871214Y-82825326D01*
X135871214Y-80075421D01*
X135683592Y-79621343D01*
X135336485Y-79273629D01*
X134882734Y-79085215D01*
X134391421Y-79084786D01*
X133937343Y-79272408D01*
X133589629Y-79619515D01*
X133401215Y-80073266D01*
X133400786Y-80564579D01*
X133588408Y-81018657D01*
X133935515Y-81366371D01*
X134389266Y-81554785D01*
X134880579Y-81555214D01*
X135334657Y-81367592D01*
X135682371Y-81020485D01*
X135870785Y-80566734D01*
X135871214Y-80075421D01*
X135871214Y-82825326D01*
X135853482Y-82538587D01*
X135724164Y-82226383D01*
X135498735Y-82176870D01*
X135319130Y-82356475D01*
X135319130Y-81997265D01*
X135269617Y-81771836D01*
X134804964Y-81612193D01*
X134314587Y-81642518D01*
X134002383Y-81771836D01*
X133952870Y-81997265D01*
X134636000Y-82680395D01*
X135319130Y-81997265D01*
X135319130Y-82356475D01*
X134815605Y-82860000D01*
X134829747Y-82874142D01*
X134650142Y-83053747D01*
X134636000Y-83039605D01*
X134621857Y-83053747D01*
X134442252Y-82874142D01*
X134456395Y-82860000D01*
X133773265Y-82176870D01*
X133547836Y-82226383D01*
X133388193Y-82691036D01*
X133418518Y-83181413D01*
X133421660Y-83189000D01*
X132507162Y-83189000D01*
X132507162Y-75252833D01*
X132457000Y-75131431D01*
X132457000Y-61468005D01*
X132457000Y-61468000D01*
X132457001Y-61468000D01*
X132400810Y-61185515D01*
X132389633Y-61129326D01*
X132389633Y-61129325D01*
X132197790Y-60842211D01*
X132197790Y-60842210D01*
X132197786Y-60842207D01*
X131398744Y-60043164D01*
X131349117Y-59923057D01*
X131086327Y-59659808D01*
X130742799Y-59517162D01*
X130370833Y-59516838D01*
X130027057Y-59658883D01*
X129763808Y-59921673D01*
X129621162Y-60265201D01*
X129620838Y-60637167D01*
X129762883Y-60980943D01*
X130025673Y-61244192D01*
X130146986Y-61294565D01*
X130687000Y-61834579D01*
X130687000Y-75131178D01*
X130637162Y-75251201D01*
X130636838Y-75623167D01*
X130778883Y-75966943D01*
X131041673Y-76230192D01*
X131385201Y-76372838D01*
X131757167Y-76373162D01*
X132100943Y-76231117D01*
X132364192Y-75968327D01*
X132506838Y-75624799D01*
X132507162Y-75252833D01*
X132507162Y-83189000D01*
X131684579Y-83189000D01*
X130425000Y-81929420D01*
X130425000Y-62790821D01*
X130474838Y-62670799D01*
X130475162Y-62298833D01*
X130333117Y-61955057D01*
X130070327Y-61691808D01*
X129726799Y-61549162D01*
X129354833Y-61548838D01*
X129011057Y-61690883D01*
X128747808Y-61953673D01*
X128605162Y-62297201D01*
X128604838Y-62669167D01*
X128655000Y-62790568D01*
X128655000Y-82295994D01*
X128654999Y-82296000D01*
X128711189Y-82578484D01*
X128722367Y-82634675D01*
X128914210Y-82921790D01*
X130692207Y-84699786D01*
X130692210Y-84699790D01*
X130692211Y-84699790D01*
X130979325Y-84891633D01*
X130979326Y-84891633D01*
X131035515Y-84902810D01*
X131318000Y-84959001D01*
X131318000Y-84959000D01*
X131318005Y-84959000D01*
X133481881Y-84959000D01*
X133401215Y-85153266D01*
X133400786Y-85644579D01*
X133435668Y-85729000D01*
X131430579Y-85729000D01*
X128393000Y-82691420D01*
X128393000Y-65330821D01*
X128442838Y-65210799D01*
X128443162Y-64838833D01*
X128301117Y-64495057D01*
X128038327Y-64231808D01*
X127694799Y-64089162D01*
X127322833Y-64088838D01*
X126979057Y-64230883D01*
X126715808Y-64493673D01*
X126573162Y-64837201D01*
X126572838Y-65209167D01*
X126623000Y-65330568D01*
X126623000Y-83057994D01*
X126622999Y-83058000D01*
X126679189Y-83340484D01*
X126690367Y-83396675D01*
X126882210Y-83683790D01*
X130438207Y-87239786D01*
X130438210Y-87239790D01*
X130725325Y-87431633D01*
X131064000Y-87499000D01*
X133481881Y-87499000D01*
X133401215Y-87693266D01*
X133400786Y-88184579D01*
X133588408Y-88638657D01*
X133935515Y-88986371D01*
X134389266Y-89174785D01*
X134880579Y-89175214D01*
X135334657Y-88987592D01*
X135682371Y-88640485D01*
X135870785Y-88186734D01*
X135871214Y-87695421D01*
X135790054Y-87499000D01*
X136651994Y-87499000D01*
X136652000Y-87499001D01*
X136652000Y-87499000D01*
X136934484Y-87442810D01*
X136990674Y-87431633D01*
X136990675Y-87431633D01*
X137277790Y-87239790D01*
X139177579Y-85340000D01*
X139816279Y-85340000D01*
X139665073Y-85439327D01*
X139522623Y-85650360D01*
X139472560Y-85900000D01*
X139472560Y-87900000D01*
X139519537Y-88142123D01*
X139659327Y-88354927D01*
X139870360Y-88497377D01*
X140120000Y-88547440D01*
X141795146Y-88547440D01*
X141767560Y-88685000D01*
X141767560Y-89252560D01*
X140120000Y-89252560D01*
X139877877Y-89299537D01*
X139693942Y-89420362D01*
X139018744Y-88745164D01*
X138969117Y-88625057D01*
X138706327Y-88361808D01*
X138362799Y-88219162D01*
X137990833Y-88218838D01*
X137647057Y-88360883D01*
X137383808Y-88623673D01*
X137241162Y-88967201D01*
X137240838Y-89339167D01*
X137382883Y-89682943D01*
X137645673Y-89946192D01*
X137766985Y-89996565D01*
X139296207Y-91525786D01*
X139296210Y-91525790D01*
X139296211Y-91525790D01*
X139472560Y-91643622D01*
X139472560Y-91900000D01*
X139519537Y-92142123D01*
X139659327Y-92354927D01*
X139870360Y-92497377D01*
X140120000Y-92547440D01*
X141767560Y-92547440D01*
X141767560Y-92925000D01*
X141814537Y-93167123D01*
X141954327Y-93379927D01*
X142165360Y-93522377D01*
X142415000Y-93572440D01*
X144415000Y-93572440D01*
X144657123Y-93525463D01*
X144869927Y-93385673D01*
X145012377Y-93174640D01*
X145062440Y-92925000D01*
X145062440Y-91225000D01*
X145015463Y-90982877D01*
X144898007Y-90804073D01*
X145012377Y-90634640D01*
X145062440Y-90385000D01*
X145062440Y-88685000D01*
X145015463Y-88442877D01*
X144881361Y-88238733D01*
X145012377Y-88044640D01*
X145062440Y-87795000D01*
X145062440Y-86195000D01*
X145015463Y-85952877D01*
X144881361Y-85748733D01*
X145012377Y-85554640D01*
X145062440Y-85305000D01*
X145062440Y-83605000D01*
X145015463Y-83362877D01*
X144898007Y-83184073D01*
X145012377Y-83014640D01*
X145062440Y-82765000D01*
X145062440Y-81065000D01*
X145015463Y-80822877D01*
X144881361Y-80618733D01*
X145012377Y-80424640D01*
X145062440Y-80175000D01*
X145062440Y-78575000D01*
X145015463Y-78332877D01*
X144881361Y-78128733D01*
X145012377Y-77934640D01*
X145062440Y-77685000D01*
X145062440Y-75985000D01*
X145015463Y-75742877D01*
X144898007Y-75564073D01*
X145012377Y-75394640D01*
X145062440Y-75145000D01*
X145062440Y-73445000D01*
X145015463Y-73202877D01*
X144875673Y-72990073D01*
X144664640Y-72847623D01*
X144415000Y-72797560D01*
X142415000Y-72797560D01*
X142172877Y-72844537D01*
X141960073Y-72984327D01*
X141817623Y-73195360D01*
X141767560Y-73445000D01*
X141767560Y-73822560D01*
X140200000Y-73822560D01*
X140200000Y-68415132D01*
X141122632Y-67492500D01*
X142160202Y-67492500D01*
X142271827Y-67662427D01*
X142482860Y-67804877D01*
X142732500Y-67854940D01*
X144732500Y-67854940D01*
X144974623Y-67807963D01*
X145187427Y-67668173D01*
X145329877Y-67457140D01*
X145379940Y-67207500D01*
X145379940Y-98375000D01*
X141217690Y-98375000D01*
X141720776Y-97872792D01*
X142084645Y-96996499D01*
X142085473Y-96047664D01*
X141723134Y-95170737D01*
X141052792Y-94499224D01*
X140176499Y-94135355D01*
X139227664Y-94134527D01*
X138350737Y-94496866D01*
X137679224Y-95167208D01*
X137315355Y-96043501D01*
X137314527Y-96992336D01*
X137676866Y-97869263D01*
X138181721Y-98375000D01*
X135883440Y-98375000D01*
X135883440Y-96160000D01*
X135883440Y-94960000D01*
X135871214Y-94896986D01*
X135871214Y-92775421D01*
X135871214Y-90235421D01*
X135683592Y-89781343D01*
X135336485Y-89433629D01*
X134882734Y-89245215D01*
X134391421Y-89244786D01*
X133937343Y-89432408D01*
X133589629Y-89779515D01*
X133401215Y-90233266D01*
X133400786Y-90724579D01*
X133588408Y-91178657D01*
X133935515Y-91526371D01*
X134389266Y-91714785D01*
X134880579Y-91715214D01*
X135334657Y-91527592D01*
X135682371Y-91180485D01*
X135870785Y-90726734D01*
X135871214Y-90235421D01*
X135871214Y-92775421D01*
X135683592Y-92321343D01*
X135336485Y-91973629D01*
X134882734Y-91785215D01*
X134391421Y-91784786D01*
X133937343Y-91972408D01*
X133589629Y-92319515D01*
X133401215Y-92773266D01*
X133400786Y-93264579D01*
X133588408Y-93718657D01*
X133935515Y-94066371D01*
X134389266Y-94254785D01*
X134880579Y-94255214D01*
X135334657Y-94067592D01*
X135682371Y-93720485D01*
X135870785Y-93266734D01*
X135871214Y-92775421D01*
X135871214Y-94896986D01*
X135836463Y-94717877D01*
X135696673Y-94505073D01*
X135485640Y-94362623D01*
X135236000Y-94312560D01*
X134036000Y-94312560D01*
X133793877Y-94359537D01*
X133581073Y-94499327D01*
X133438623Y-94710360D01*
X133388560Y-94960000D01*
X133388560Y-96160000D01*
X133435537Y-96402123D01*
X133575327Y-96614927D01*
X133786360Y-96757377D01*
X134036000Y-96807440D01*
X135236000Y-96807440D01*
X135478123Y-96760463D01*
X135690927Y-96620673D01*
X135833377Y-96409640D01*
X135883440Y-96160000D01*
X135883440Y-98375000D01*
X126007870Y-98375000D01*
X126007870Y-72829420D01*
X126007870Y-69329300D01*
X126007870Y-67830700D01*
X126007870Y-64330580D01*
X125960893Y-64088457D01*
X125821103Y-63875653D01*
X125610070Y-63733203D01*
X125595000Y-63730180D01*
X125595000Y-63271348D01*
X125602553Y-63269883D01*
X125815357Y-63130093D01*
X125957807Y-62919060D01*
X126007870Y-62669420D01*
X126007870Y-59169300D01*
X125960893Y-58927177D01*
X125821103Y-58714373D01*
X125610070Y-58571923D01*
X125360430Y-58521860D01*
X123559570Y-58521860D01*
X123317447Y-58568837D01*
X123104643Y-58708627D01*
X122962193Y-58919660D01*
X122912130Y-59169300D01*
X122912130Y-62669420D01*
X122959107Y-62911543D01*
X123098897Y-63124347D01*
X123309930Y-63266797D01*
X123325000Y-63269819D01*
X123325000Y-63728651D01*
X123317447Y-63730117D01*
X123104643Y-63869907D01*
X122962193Y-64080940D01*
X122912130Y-64330580D01*
X122912130Y-67830700D01*
X122959107Y-68072823D01*
X123098897Y-68285627D01*
X123309930Y-68428077D01*
X123559570Y-68478140D01*
X125360430Y-68478140D01*
X125602553Y-68431163D01*
X125815357Y-68291373D01*
X125957807Y-68080340D01*
X126007870Y-67830700D01*
X126007870Y-69329300D01*
X125960893Y-69087177D01*
X125821103Y-68874373D01*
X125610070Y-68731923D01*
X125360430Y-68681860D01*
X123559570Y-68681860D01*
X123317447Y-68728837D01*
X123104643Y-68868627D01*
X122962193Y-69079660D01*
X122912130Y-69329300D01*
X122912130Y-72829420D01*
X122959107Y-73071543D01*
X123098897Y-73284347D01*
X123309930Y-73426797D01*
X123325000Y-73429819D01*
X123325000Y-88429868D01*
X122409868Y-89345000D01*
X120391807Y-89345000D01*
X120391807Y-88108964D01*
X120379214Y-87905326D01*
X120379214Y-85155421D01*
X120379214Y-82615421D01*
X120191592Y-82161343D01*
X119844485Y-81813629D01*
X119390734Y-81625215D01*
X118899421Y-81624786D01*
X118844579Y-81647446D01*
X118648706Y-81451574D01*
X118897266Y-81554785D01*
X119388579Y-81555214D01*
X119842657Y-81367592D01*
X120190371Y-81020485D01*
X120378785Y-80566734D01*
X120379214Y-80075421D01*
X120379214Y-77535421D01*
X120379214Y-74995421D01*
X120379214Y-72455421D01*
X120379214Y-69915421D01*
X120379214Y-67375421D01*
X120379214Y-64835421D01*
X120379214Y-62295421D01*
X120379214Y-59755421D01*
X120379214Y-57215421D01*
X120379214Y-54675421D01*
X120191592Y-54221343D01*
X119844485Y-53873629D01*
X119390734Y-53685215D01*
X118899421Y-53684786D01*
X118445343Y-53872408D01*
X118283162Y-54034305D01*
X118283162Y-50741833D01*
X118233000Y-50620431D01*
X118233000Y-49530000D01*
X118165633Y-49191325D01*
X117973790Y-48904210D01*
X117973786Y-48904207D01*
X116449790Y-47380210D01*
X116162675Y-47188367D01*
X116106484Y-47177189D01*
X115824000Y-47120999D01*
X115823994Y-47121000D01*
X115146649Y-47121000D01*
X115106463Y-46913877D01*
X114966673Y-46701073D01*
X114755640Y-46558623D01*
X114506000Y-46508560D01*
X112506000Y-46508560D01*
X112263877Y-46555537D01*
X112051073Y-46695327D01*
X111908623Y-46906360D01*
X111858560Y-47156000D01*
X111858560Y-48856000D01*
X111905537Y-49098123D01*
X112045327Y-49310927D01*
X112256360Y-49453377D01*
X112506000Y-49503440D01*
X114506000Y-49503440D01*
X114748123Y-49456463D01*
X114960927Y-49316673D01*
X115103377Y-49105640D01*
X115146421Y-48891000D01*
X115457420Y-48891000D01*
X116463000Y-49896579D01*
X116463000Y-50066466D01*
X116247325Y-50109367D01*
X115960210Y-50301210D01*
X115960207Y-50301213D01*
X115579210Y-50682210D01*
X115387367Y-50969325D01*
X115376189Y-51025515D01*
X115319999Y-51308000D01*
X115320000Y-51308005D01*
X115320000Y-56783420D01*
X112912210Y-59191210D01*
X112720367Y-59478325D01*
X112709189Y-59534515D01*
X112652999Y-59817000D01*
X112653000Y-59817005D01*
X112653000Y-60875350D01*
X112445877Y-60915537D01*
X112441162Y-60918634D01*
X112441162Y-59758833D01*
X112299117Y-59415057D01*
X112036327Y-59151808D01*
X111692799Y-59009162D01*
X111320833Y-59008838D01*
X110977057Y-59150883D01*
X110924663Y-59203185D01*
X110893141Y-59224711D01*
X110753210Y-59318210D01*
X110750679Y-59321996D01*
X110746922Y-59324563D01*
X109747050Y-60344840D01*
X109747050Y-59952890D01*
X109588300Y-59794140D01*
X108839000Y-59794140D01*
X108839000Y-61043820D01*
X108951651Y-61156471D01*
X108585000Y-61530604D01*
X108585000Y-61043820D01*
X108585000Y-59794140D01*
X107835700Y-59794140D01*
X107676950Y-59952890D01*
X107676950Y-60441261D01*
X107676950Y-60693880D01*
X107773623Y-60927269D01*
X107952252Y-61105897D01*
X108185641Y-61202570D01*
X108426250Y-61202570D01*
X108585000Y-61043820D01*
X108585000Y-61530604D01*
X104739768Y-65454311D01*
X104627057Y-65500883D01*
X104363808Y-65763673D01*
X104221162Y-66107201D01*
X104220838Y-66479167D01*
X104362883Y-66822943D01*
X104625673Y-67086192D01*
X104969201Y-67228838D01*
X105341167Y-67229162D01*
X105684943Y-67087117D01*
X105948192Y-66824327D01*
X106001707Y-66695447D01*
X111708812Y-60871870D01*
X112034943Y-60737117D01*
X112298192Y-60474327D01*
X112440838Y-60130799D01*
X112441162Y-59758833D01*
X112441162Y-60918634D01*
X112233073Y-61055327D01*
X112090623Y-61266360D01*
X112040560Y-61516000D01*
X112040560Y-63516000D01*
X112087537Y-63758123D01*
X112227327Y-63970927D01*
X112438360Y-64113377D01*
X112688000Y-64163440D01*
X114388000Y-64163440D01*
X114630123Y-64116463D01*
X114764901Y-64027927D01*
X114791301Y-64054327D01*
X115024690Y-64151000D01*
X115277309Y-64151000D01*
X115665250Y-64151000D01*
X115824000Y-63992250D01*
X115824000Y-62643000D01*
X115804000Y-62643000D01*
X115804000Y-62389000D01*
X115824000Y-62389000D01*
X115824000Y-61039750D01*
X115665250Y-60881000D01*
X115277309Y-60881000D01*
X115024690Y-60881000D01*
X114791301Y-60977673D01*
X114764630Y-61004343D01*
X114637640Y-60918623D01*
X114423000Y-60875578D01*
X114423000Y-60183579D01*
X116830786Y-57775792D01*
X116830790Y-57775790D01*
X116830790Y-57775789D01*
X116958975Y-57583946D01*
X117022633Y-57488675D01*
X117022634Y-57488674D01*
X117090000Y-57150000D01*
X117090001Y-57150000D01*
X117090000Y-57149994D01*
X117090000Y-51832272D01*
X117161201Y-51861838D01*
X117533167Y-51862162D01*
X117876943Y-51720117D01*
X118140192Y-51457327D01*
X118282838Y-51113799D01*
X118283162Y-50741833D01*
X118283162Y-54034305D01*
X118097629Y-54219515D01*
X117909215Y-54673266D01*
X117908786Y-55164579D01*
X118096408Y-55618657D01*
X118443515Y-55966371D01*
X118897266Y-56154785D01*
X119388579Y-56155214D01*
X119842657Y-55967592D01*
X120190371Y-55620485D01*
X120378785Y-55166734D01*
X120379214Y-54675421D01*
X120379214Y-57215421D01*
X120191592Y-56761343D01*
X119844485Y-56413629D01*
X119390734Y-56225215D01*
X118899421Y-56224786D01*
X118445343Y-56412408D01*
X118097629Y-56759515D01*
X117909215Y-57213266D01*
X117908786Y-57704579D01*
X118096408Y-58158657D01*
X118443515Y-58506371D01*
X118897266Y-58694785D01*
X119388579Y-58695214D01*
X119842657Y-58507592D01*
X120190371Y-58160485D01*
X120378785Y-57706734D01*
X120379214Y-57215421D01*
X120379214Y-59755421D01*
X120191592Y-59301343D01*
X119844485Y-58953629D01*
X119390734Y-58765215D01*
X118899421Y-58764786D01*
X118445343Y-58952408D01*
X118097629Y-59299515D01*
X117909215Y-59753266D01*
X117908786Y-60244579D01*
X118096408Y-60698657D01*
X118443515Y-61046371D01*
X118897266Y-61234785D01*
X119388579Y-61235214D01*
X119842657Y-61047592D01*
X120190371Y-60700485D01*
X120378785Y-60246734D01*
X120379214Y-59755421D01*
X120379214Y-62295421D01*
X120191592Y-61841343D01*
X119844485Y-61493629D01*
X119390734Y-61305215D01*
X118899421Y-61304786D01*
X118445343Y-61492408D01*
X118097629Y-61839515D01*
X117909215Y-62293266D01*
X117908786Y-62784579D01*
X118096408Y-63238657D01*
X118443515Y-63586371D01*
X118897266Y-63774785D01*
X119388579Y-63775214D01*
X119842657Y-63587592D01*
X120190371Y-63240485D01*
X120378785Y-62786734D01*
X120379214Y-62295421D01*
X120379214Y-64835421D01*
X120191592Y-64381343D01*
X119844485Y-64033629D01*
X119390734Y-63845215D01*
X118899421Y-63844786D01*
X118445343Y-64032408D01*
X118097629Y-64379515D01*
X117909215Y-64833266D01*
X117908786Y-65324579D01*
X118096408Y-65778657D01*
X118443515Y-66126371D01*
X118897266Y-66314785D01*
X119388579Y-66315214D01*
X119842657Y-66127592D01*
X120190371Y-65780485D01*
X120378785Y-65326734D01*
X120379214Y-64835421D01*
X120379214Y-67375421D01*
X120191592Y-66921343D01*
X119844485Y-66573629D01*
X119390734Y-66385215D01*
X118899421Y-66384786D01*
X118445343Y-66572408D01*
X118097629Y-66919515D01*
X117909215Y-67373266D01*
X117908786Y-67864579D01*
X118096408Y-68318657D01*
X118443515Y-68666371D01*
X118897266Y-68854785D01*
X119388579Y-68855214D01*
X119842657Y-68667592D01*
X120190371Y-68320485D01*
X120378785Y-67866734D01*
X120379214Y-67375421D01*
X120379214Y-69915421D01*
X120191592Y-69461343D01*
X119844485Y-69113629D01*
X119390734Y-68925215D01*
X118899421Y-68924786D01*
X118445343Y-69112408D01*
X118097629Y-69459515D01*
X117909215Y-69913266D01*
X117908786Y-70404579D01*
X118096408Y-70858657D01*
X118443515Y-71206371D01*
X118897266Y-71394785D01*
X119388579Y-71395214D01*
X119842657Y-71207592D01*
X120190371Y-70860485D01*
X120378785Y-70406734D01*
X120379214Y-69915421D01*
X120379214Y-72455421D01*
X120191592Y-72001343D01*
X119844485Y-71653629D01*
X119390734Y-71465215D01*
X118899421Y-71464786D01*
X118445343Y-71652408D01*
X118097629Y-71999515D01*
X117909215Y-72453266D01*
X117908786Y-72944579D01*
X118096408Y-73398657D01*
X118443515Y-73746371D01*
X118897266Y-73934785D01*
X119388579Y-73935214D01*
X119842657Y-73747592D01*
X120190371Y-73400485D01*
X120378785Y-72946734D01*
X120379214Y-72455421D01*
X120379214Y-74995421D01*
X120191592Y-74541343D01*
X119844485Y-74193629D01*
X119390734Y-74005215D01*
X118899421Y-74004786D01*
X118445343Y-74192408D01*
X118097629Y-74539515D01*
X117909215Y-74993266D01*
X117908786Y-75484579D01*
X118096408Y-75938657D01*
X118443515Y-76286371D01*
X118897266Y-76474785D01*
X119388579Y-76475214D01*
X119842657Y-76287592D01*
X120190371Y-75940485D01*
X120378785Y-75486734D01*
X120379214Y-74995421D01*
X120379214Y-77535421D01*
X120191592Y-77081343D01*
X119844485Y-76733629D01*
X119390734Y-76545215D01*
X118899421Y-76544786D01*
X118445343Y-76732408D01*
X118097629Y-77079515D01*
X117909215Y-77533266D01*
X117908786Y-78024579D01*
X118096408Y-78478657D01*
X118443515Y-78826371D01*
X118897266Y-79014785D01*
X119388579Y-79015214D01*
X119842657Y-78827592D01*
X120190371Y-78480485D01*
X120378785Y-78026734D01*
X120379214Y-77535421D01*
X120379214Y-80075421D01*
X120191592Y-79621343D01*
X119844485Y-79273629D01*
X119390734Y-79085215D01*
X118899421Y-79084786D01*
X118445343Y-79272408D01*
X118097629Y-79619515D01*
X117909215Y-80073266D01*
X117908786Y-80564579D01*
X118012346Y-80815214D01*
X117271440Y-80074307D01*
X117271440Y-79232000D01*
X117259000Y-79167883D01*
X117259000Y-77358309D01*
X117259000Y-76517750D01*
X117259000Y-75946250D01*
X117259000Y-75105691D01*
X117162327Y-74872302D01*
X116983699Y-74693673D01*
X116750310Y-74597000D01*
X116497691Y-74597000D01*
X116109750Y-74597000D01*
X115951000Y-74755750D01*
X115951000Y-76105000D01*
X117100250Y-76105000D01*
X117259000Y-75946250D01*
X117259000Y-76517750D01*
X117100250Y-76359000D01*
X115951000Y-76359000D01*
X115951000Y-77708250D01*
X116109750Y-77867000D01*
X116497691Y-77867000D01*
X116750310Y-77867000D01*
X116983699Y-77770327D01*
X117162327Y-77591698D01*
X117259000Y-77358309D01*
X117259000Y-79167883D01*
X117224463Y-78989877D01*
X117084673Y-78777073D01*
X116873640Y-78634623D01*
X116624000Y-78584560D01*
X115697000Y-78584560D01*
X115697000Y-77708250D01*
X115697000Y-76359000D01*
X115697000Y-76105000D01*
X115697000Y-74755750D01*
X115538250Y-74597000D01*
X115150309Y-74597000D01*
X114897690Y-74597000D01*
X114664301Y-74693673D01*
X114485673Y-74872302D01*
X114389000Y-75105691D01*
X114389000Y-75946250D01*
X114547750Y-76105000D01*
X115697000Y-76105000D01*
X115697000Y-76359000D01*
X114547750Y-76359000D01*
X114389000Y-76517750D01*
X114389000Y-77358309D01*
X114485673Y-77591698D01*
X114664301Y-77770327D01*
X114897690Y-77867000D01*
X115150309Y-77867000D01*
X115538250Y-77867000D01*
X115697000Y-77708250D01*
X115697000Y-78584560D01*
X115024000Y-78584560D01*
X114781877Y-78631537D01*
X114569073Y-78771327D01*
X114426623Y-78982360D01*
X114422684Y-79002000D01*
X112141767Y-79002000D01*
X112141767Y-77801966D01*
X112113805Y-77251462D01*
X111956931Y-76872735D01*
X111715930Y-76804675D01*
X110923605Y-77597000D01*
X111715930Y-78389325D01*
X111956931Y-78321265D01*
X112141767Y-77801966D01*
X112141767Y-79002000D01*
X111568763Y-79002000D01*
X111529887Y-78963056D01*
X111314503Y-78873621D01*
X111468265Y-78809931D01*
X111536325Y-78568930D01*
X110744000Y-77776605D01*
X110729857Y-77790747D01*
X110550252Y-77611142D01*
X110564395Y-77597000D01*
X110550252Y-77582857D01*
X110729857Y-77403252D01*
X110744000Y-77417395D01*
X111536325Y-76625070D01*
X111468265Y-76384069D01*
X110948966Y-76199233D01*
X110398462Y-76227195D01*
X110101000Y-76350407D01*
X110101000Y-72379579D01*
X114163786Y-68316792D01*
X114163789Y-68316790D01*
X114163790Y-68316790D01*
X114266254Y-68163440D01*
X114388000Y-68163440D01*
X114630123Y-68116463D01*
X114769903Y-68024641D01*
X114901360Y-68113377D01*
X115151000Y-68163440D01*
X116751000Y-68163440D01*
X116993123Y-68116463D01*
X117205927Y-67976673D01*
X117348377Y-67765640D01*
X117398440Y-67516000D01*
X117398440Y-65516000D01*
X117386000Y-65451883D01*
X117386000Y-63642309D01*
X117386000Y-62801750D01*
X117386000Y-62230250D01*
X117386000Y-61389691D01*
X117289327Y-61156302D01*
X117110699Y-60977673D01*
X116877310Y-60881000D01*
X116624691Y-60881000D01*
X116236750Y-60881000D01*
X116078000Y-61039750D01*
X116078000Y-62389000D01*
X117227250Y-62389000D01*
X117386000Y-62230250D01*
X117386000Y-62801750D01*
X117227250Y-62643000D01*
X116078000Y-62643000D01*
X116078000Y-63992250D01*
X116236750Y-64151000D01*
X116624691Y-64151000D01*
X116877310Y-64151000D01*
X117110699Y-64054327D01*
X117289327Y-63875698D01*
X117386000Y-63642309D01*
X117386000Y-65451883D01*
X117351463Y-65273877D01*
X117211673Y-65061073D01*
X117000640Y-64918623D01*
X116751000Y-64868560D01*
X115151000Y-64868560D01*
X114908877Y-64915537D01*
X114769096Y-65007358D01*
X114637640Y-64918623D01*
X114388000Y-64868560D01*
X112688000Y-64868560D01*
X112445877Y-64915537D01*
X112233073Y-65055327D01*
X112090623Y-65266360D01*
X112040560Y-65516000D01*
X112040560Y-67516000D01*
X112087537Y-67758123D01*
X112139775Y-67837645D01*
X108965999Y-71011420D01*
X106670790Y-68716210D01*
X106383675Y-68524367D01*
X106327484Y-68513189D01*
X106045000Y-68456999D01*
X106044994Y-68457000D01*
X100950579Y-68457000D01*
X100709380Y-68215800D01*
X100778123Y-68202463D01*
X100990927Y-68062673D01*
X101133377Y-67851640D01*
X101183440Y-67602000D01*
X101183440Y-66002000D01*
X101136463Y-65759877D01*
X101002361Y-65555733D01*
X101133377Y-65361640D01*
X101183440Y-65112000D01*
X101183440Y-63412000D01*
X101136463Y-63169877D01*
X101051109Y-63039942D01*
X101069877Y-63012140D01*
X101112921Y-62797500D01*
X103299254Y-62797500D01*
X103572201Y-62910838D01*
X103944167Y-62911162D01*
X104287943Y-62769117D01*
X104551192Y-62506327D01*
X104693838Y-62162799D01*
X104694162Y-61790833D01*
X104552117Y-61447057D01*
X104289327Y-61183808D01*
X103945799Y-61041162D01*
X103763388Y-61041003D01*
X103695500Y-61027499D01*
X103695494Y-61027500D01*
X101113149Y-61027500D01*
X101081818Y-60866020D01*
X101133377Y-60789640D01*
X101176421Y-60575000D01*
X104341178Y-60575000D01*
X104461201Y-60624838D01*
X104833167Y-60625162D01*
X105176943Y-60483117D01*
X105440192Y-60220327D01*
X105582838Y-59876799D01*
X105583162Y-59504833D01*
X105441117Y-59161057D01*
X105178327Y-58897808D01*
X104834799Y-58755162D01*
X104462833Y-58754838D01*
X104341431Y-58805000D01*
X101176649Y-58805000D01*
X101136463Y-58597877D01*
X101103568Y-58547800D01*
X101133377Y-58503640D01*
X101176421Y-58289000D01*
X104647994Y-58289000D01*
X104648000Y-58289001D01*
X104648000Y-58289000D01*
X104930484Y-58232810D01*
X104986674Y-58221633D01*
X104986675Y-58221633D01*
X105273790Y-58029790D01*
X105753719Y-57549860D01*
X106714510Y-57549860D01*
X106714510Y-57565290D01*
X106761487Y-57807413D01*
X106901277Y-58020217D01*
X107112310Y-58162667D01*
X107361950Y-58212730D01*
X107990041Y-58212730D01*
X107952252Y-58228383D01*
X107773623Y-58407011D01*
X107676950Y-58640400D01*
X107676950Y-58893019D01*
X107676950Y-59381390D01*
X107835700Y-59540140D01*
X108585000Y-59540140D01*
X108585000Y-58290460D01*
X108438043Y-58143503D01*
X108616977Y-58025963D01*
X108712293Y-57884756D01*
X108801277Y-58020217D01*
X108985135Y-58144324D01*
X108839000Y-58290460D01*
X108839000Y-59540140D01*
X109588300Y-59540140D01*
X109747050Y-59381390D01*
X109747050Y-58893019D01*
X109747050Y-58640400D01*
X109650377Y-58407011D01*
X109471748Y-58228383D01*
X109433958Y-58212730D01*
X110062050Y-58212730D01*
X110304173Y-58165753D01*
X110516977Y-58025963D01*
X110659427Y-57814930D01*
X110709490Y-57565290D01*
X110709490Y-57549860D01*
X112499134Y-57549860D01*
X112499140Y-57549861D01*
X112499140Y-57549860D01*
X112781624Y-57493670D01*
X112837814Y-57482493D01*
X112837815Y-57482493D01*
X113124930Y-57290650D01*
X114068286Y-56347292D01*
X114068290Y-56347290D01*
X114068290Y-56347289D01*
X114196475Y-56155446D01*
X114260133Y-56060175D01*
X114260134Y-56060174D01*
X114327500Y-55721500D01*
X114327501Y-55721500D01*
X114327500Y-55721494D01*
X114327500Y-55154940D01*
X114442500Y-55154940D01*
X114684623Y-55107963D01*
X114897427Y-54968173D01*
X115039877Y-54757140D01*
X115089940Y-54507500D01*
X115089940Y-52807500D01*
X115042963Y-52565377D01*
X114925507Y-52386573D01*
X115039877Y-52217140D01*
X115089940Y-51967500D01*
X115089940Y-50267500D01*
X115042963Y-50025377D01*
X114903173Y-49812573D01*
X114692140Y-49670123D01*
X114442500Y-49620060D01*
X112442500Y-49620060D01*
X112200377Y-49667037D01*
X111987573Y-49806827D01*
X111845123Y-50017860D01*
X111795060Y-50267500D01*
X111795060Y-51967500D01*
X111842037Y-52209623D01*
X111959492Y-52388426D01*
X111845123Y-52557860D01*
X111795060Y-52807500D01*
X111795060Y-54507500D01*
X111842037Y-54749623D01*
X111981827Y-54962427D01*
X112192860Y-55104877D01*
X112442500Y-55154940D01*
X112557500Y-55154940D01*
X112557500Y-55354920D01*
X112132560Y-55779860D01*
X110709490Y-55779860D01*
X110709490Y-55764430D01*
X110662513Y-55522307D01*
X110522723Y-55309503D01*
X110311690Y-55167053D01*
X110251288Y-55154940D01*
X110442500Y-55154940D01*
X110684623Y-55107963D01*
X110897427Y-54968173D01*
X111039877Y-54757140D01*
X111089940Y-54507500D01*
X111089940Y-52807500D01*
X111042963Y-52565377D01*
X110925507Y-52386573D01*
X111039877Y-52217140D01*
X111089940Y-51967500D01*
X111089940Y-50267500D01*
X111042963Y-50025377D01*
X110903173Y-49812573D01*
X110692140Y-49670123D01*
X110442500Y-49620060D01*
X108442500Y-49620060D01*
X108200377Y-49667037D01*
X107987573Y-49806827D01*
X107845123Y-50017860D01*
X107802078Y-50232500D01*
X107568239Y-50232500D01*
X107451529Y-50057830D01*
X107136748Y-49847500D01*
X107451529Y-49637170D01*
X107723929Y-49229493D01*
X107963252Y-49185983D01*
X108045327Y-49310927D01*
X108256360Y-49453377D01*
X108506000Y-49503440D01*
X110506000Y-49503440D01*
X110748123Y-49456463D01*
X110960927Y-49316673D01*
X111103377Y-49105640D01*
X111153440Y-48856000D01*
X111153440Y-47156000D01*
X111106463Y-46913877D01*
X110966673Y-46701073D01*
X110755640Y-46558623D01*
X110506000Y-46508560D01*
X108506000Y-46508560D01*
X108263877Y-46555537D01*
X108051073Y-46695327D01*
X107908623Y-46906360D01*
X107858560Y-47156000D01*
X107858560Y-47406003D01*
X107407026Y-47488094D01*
X106965348Y-47192974D01*
X106391859Y-47078900D01*
X106333141Y-47078900D01*
X105759652Y-47192974D01*
X105288143Y-47508026D01*
X105224427Y-47354201D01*
X105045798Y-47175573D01*
X104812409Y-47078900D01*
X104108250Y-47078900D01*
X103949500Y-47237650D01*
X103949500Y-48450500D01*
X103969500Y-48450500D01*
X103969500Y-48704500D01*
X103949500Y-48704500D01*
X103949500Y-48724500D01*
X103695500Y-48724500D01*
X103695500Y-48704500D01*
X103695500Y-48450500D01*
X103695500Y-47237650D01*
X103536750Y-47078900D01*
X102832591Y-47078900D01*
X102599202Y-47175573D01*
X102420573Y-47354201D01*
X102323900Y-47587590D01*
X102323900Y-47840209D01*
X102323900Y-48291750D01*
X102482650Y-48450500D01*
X103695500Y-48450500D01*
X103695500Y-48704500D01*
X102482650Y-48704500D01*
X102323900Y-48863250D01*
X102323900Y-49314791D01*
X102323900Y-49567410D01*
X102420573Y-49800799D01*
X102599202Y-49979427D01*
X102754523Y-50043763D01*
X102733471Y-50057830D01*
X102616760Y-50232500D01*
X102053328Y-50232500D01*
X102025463Y-50088877D01*
X101885673Y-49876073D01*
X101674640Y-49733623D01*
X101425000Y-49683560D01*
X99425000Y-49683560D01*
X99182877Y-49730537D01*
X98970073Y-49870327D01*
X98827623Y-50081360D01*
X98777560Y-50331000D01*
X98777560Y-52031000D01*
X98824537Y-52273123D01*
X98964327Y-52485927D01*
X99175360Y-52628377D01*
X99425000Y-52678440D01*
X101425000Y-52678440D01*
X101667123Y-52631463D01*
X101879927Y-52491673D01*
X102022377Y-52280640D01*
X102072440Y-52031000D01*
X102072440Y-52002500D01*
X102616760Y-52002500D01*
X102733471Y-52177170D01*
X103056728Y-52393163D01*
X102934010Y-52450679D01*
X102539812Y-52882553D01*
X102367542Y-53298474D01*
X102488683Y-53530500D01*
X103695500Y-53530500D01*
X103695500Y-53510500D01*
X103949500Y-53510500D01*
X103949500Y-53530500D01*
X103969500Y-53530500D01*
X103969500Y-53784500D01*
X103949500Y-53784500D01*
X103949500Y-54991969D01*
X104181527Y-55112468D01*
X104710990Y-54864321D01*
X105092507Y-54446339D01*
X105273471Y-54717170D01*
X105759652Y-55042026D01*
X106333141Y-55156100D01*
X106391859Y-55156100D01*
X106965348Y-55042026D01*
X107451529Y-54717170D01*
X107568239Y-54542500D01*
X107801850Y-54542500D01*
X107842037Y-54749623D01*
X107981827Y-54962427D01*
X108192860Y-55104877D01*
X108442500Y-55154940D01*
X109066352Y-55154940D01*
X109019827Y-55163967D01*
X108807023Y-55303757D01*
X108711706Y-55444963D01*
X108622723Y-55309503D01*
X108411690Y-55167053D01*
X108162050Y-55116990D01*
X107361950Y-55116990D01*
X107119827Y-55163967D01*
X106907023Y-55303757D01*
X106764573Y-55514790D01*
X106714510Y-55764430D01*
X106714510Y-55779860D01*
X105387145Y-55779860D01*
X105387140Y-55779859D01*
X105104655Y-55836049D01*
X105048465Y-55847227D01*
X104761350Y-56039070D01*
X104761347Y-56039073D01*
X104281420Y-56519000D01*
X103695500Y-56519000D01*
X103695500Y-54991969D01*
X103695500Y-53784500D01*
X102488683Y-53784500D01*
X102367542Y-54016526D01*
X102539812Y-54432447D01*
X102934010Y-54864321D01*
X103463473Y-55112468D01*
X103695500Y-54991969D01*
X103695500Y-56519000D01*
X101176649Y-56519000D01*
X101136463Y-56311877D01*
X100996673Y-56099073D01*
X100785640Y-55956623D01*
X100536000Y-55906560D01*
X99106162Y-55906560D01*
X99106162Y-54297833D01*
X98964117Y-53954057D01*
X98701327Y-53690808D01*
X98580012Y-53640433D01*
X97586655Y-52647075D01*
X97667123Y-52631463D01*
X97879927Y-52491673D01*
X98022377Y-52280640D01*
X98072440Y-52031000D01*
X98072440Y-50331000D01*
X98025463Y-50088877D01*
X97885673Y-49876073D01*
X97674640Y-49733623D01*
X97425000Y-49683560D01*
X95425000Y-49683560D01*
X95182877Y-49730537D01*
X94970073Y-49870327D01*
X94827623Y-50081360D01*
X94777560Y-50331000D01*
X94777560Y-52031000D01*
X94824537Y-52273123D01*
X94964327Y-52485927D01*
X95175360Y-52628377D01*
X95425000Y-52678440D01*
X95540000Y-52678440D01*
X95540000Y-52736994D01*
X95539999Y-52737000D01*
X95596189Y-53019484D01*
X95607367Y-53075675D01*
X95799210Y-53362790D01*
X97328255Y-54891834D01*
X97377883Y-55011943D01*
X97640673Y-55275192D01*
X97984201Y-55417838D01*
X98356167Y-55418162D01*
X98699943Y-55276117D01*
X98963192Y-55013327D01*
X99105838Y-54669799D01*
X99106162Y-54297833D01*
X99106162Y-55906560D01*
X98536000Y-55906560D01*
X98293877Y-55953537D01*
X98081073Y-56093327D01*
X97938623Y-56304360D01*
X97888560Y-56554000D01*
X97888560Y-58254000D01*
X97935537Y-58496123D01*
X97968431Y-58546199D01*
X97938623Y-58590360D01*
X97888560Y-58840000D01*
X97888560Y-60540000D01*
X97926681Y-60736479D01*
X97875123Y-60812860D01*
X97825060Y-61062500D01*
X97825060Y-62762500D01*
X97872037Y-63004623D01*
X97957390Y-63134557D01*
X97938623Y-63162360D01*
X97888560Y-63412000D01*
X97888560Y-65112000D01*
X97935537Y-65354123D01*
X98069638Y-65558266D01*
X97938623Y-65752360D01*
X97888560Y-66002000D01*
X97888560Y-67602000D01*
X97935537Y-67844123D01*
X98075327Y-68056927D01*
X98286360Y-68199377D01*
X98536000Y-68249440D01*
X98651000Y-68249440D01*
X98651000Y-68293994D01*
X98650999Y-68294000D01*
X98707189Y-68576484D01*
X98718367Y-68632675D01*
X98910210Y-68919790D01*
X99958207Y-69967786D01*
X99958210Y-69967790D01*
X99958211Y-69967790D01*
X100245325Y-70159633D01*
X100245326Y-70159633D01*
X100301515Y-70170810D01*
X100584000Y-70227001D01*
X100584000Y-70227000D01*
X100584005Y-70227000D01*
X105678420Y-70227000D01*
X107831000Y-72379579D01*
X107831000Y-79002000D01*
X106802912Y-79002000D01*
X106410801Y-78740000D01*
X106806222Y-78475789D01*
X107114559Y-78014329D01*
X107222833Y-77470000D01*
X107114559Y-76925671D01*
X106806222Y-76464211D01*
X106411170Y-76200246D01*
X106427262Y-76195525D01*
X106861191Y-75845986D01*
X107128327Y-75356996D01*
X107145010Y-75277060D01*
X107022852Y-75057000D01*
X105537000Y-75057000D01*
X105537000Y-75077000D01*
X105283000Y-75077000D01*
X105283000Y-75057000D01*
X105263000Y-75057000D01*
X105263000Y-74803000D01*
X105283000Y-74803000D01*
X105283000Y-74783000D01*
X105537000Y-74783000D01*
X105537000Y-74803000D01*
X107022852Y-74803000D01*
X107145010Y-74582940D01*
X107128327Y-74503004D01*
X106861191Y-74014014D01*
X106427262Y-73664475D01*
X106411170Y-73659753D01*
X106806222Y-73395789D01*
X107114559Y-72934329D01*
X107222833Y-72390000D01*
X107114559Y-71845671D01*
X106806222Y-71384211D01*
X106344762Y-71075874D01*
X105800433Y-70967600D01*
X105019567Y-70967600D01*
X104475238Y-71075874D01*
X104013778Y-71384211D01*
X103705441Y-71845671D01*
X103597167Y-72390000D01*
X103705441Y-72934329D01*
X104013778Y-73395789D01*
X104408829Y-73659753D01*
X104392738Y-73664475D01*
X103958809Y-74014014D01*
X103895417Y-74130051D01*
X103796310Y-74089000D01*
X103543691Y-74089000D01*
X103155750Y-74089000D01*
X102997000Y-74247750D01*
X102997000Y-75597000D01*
X103017000Y-75597000D01*
X103017000Y-75851000D01*
X102997000Y-75851000D01*
X102997000Y-77200250D01*
X103155750Y-77359000D01*
X103543691Y-77359000D01*
X103619246Y-77359000D01*
X103597167Y-77470000D01*
X103705441Y-78014329D01*
X103758939Y-78094396D01*
X103670000Y-78076560D01*
X102743000Y-78076560D01*
X102743000Y-77200250D01*
X102743000Y-75851000D01*
X102743000Y-75597000D01*
X102743000Y-74247750D01*
X102584250Y-74089000D01*
X102196309Y-74089000D01*
X101943690Y-74089000D01*
X101710301Y-74185673D01*
X101531673Y-74364302D01*
X101435000Y-74597691D01*
X101435000Y-75438250D01*
X101593750Y-75597000D01*
X102743000Y-75597000D01*
X102743000Y-75851000D01*
X101593750Y-75851000D01*
X101435000Y-76009750D01*
X101435000Y-76850309D01*
X101531673Y-77083698D01*
X101710301Y-77262327D01*
X101943690Y-77359000D01*
X102196309Y-77359000D01*
X102584250Y-77359000D01*
X102743000Y-77200250D01*
X102743000Y-78076560D01*
X102070000Y-78076560D01*
X101827877Y-78123537D01*
X101615073Y-78263327D01*
X101472623Y-78474360D01*
X101422560Y-78724000D01*
X101422560Y-80724000D01*
X101469537Y-80966123D01*
X101609327Y-81178927D01*
X101820360Y-81321377D01*
X102070000Y-81371440D01*
X103670000Y-81371440D01*
X103912123Y-81324463D01*
X104124927Y-81184673D01*
X104168942Y-81119466D01*
X104408829Y-81279753D01*
X104392738Y-81284475D01*
X103958809Y-81634014D01*
X103691673Y-82123004D01*
X103674990Y-82202940D01*
X103797148Y-82423000D01*
X105283000Y-82423000D01*
X105283000Y-82403000D01*
X105537000Y-82403000D01*
X105537000Y-82423000D01*
X107022852Y-82423000D01*
X107145010Y-82202940D01*
X107128327Y-82123004D01*
X106861191Y-81634014D01*
X106427262Y-81284475D01*
X106411170Y-81279753D01*
X106422774Y-81272000D01*
X108966000Y-81272000D01*
X109919236Y-81272000D01*
X109958113Y-81310944D01*
X110467184Y-81522329D01*
X111018398Y-81522810D01*
X111527837Y-81312314D01*
X111568221Y-81272000D01*
X114384320Y-81272000D01*
X114423537Y-81474123D01*
X114563327Y-81686927D01*
X114774360Y-81829377D01*
X115024000Y-81879440D01*
X115866307Y-81879440D01*
X117649434Y-83662567D01*
X118017654Y-83908603D01*
X118017655Y-83908604D01*
X118452000Y-83995000D01*
X118656957Y-83995000D01*
X118897266Y-84094785D01*
X119388579Y-84095214D01*
X119842657Y-83907592D01*
X120190371Y-83560485D01*
X120378785Y-83106734D01*
X120379214Y-82615421D01*
X120379214Y-85155421D01*
X120191592Y-84701343D01*
X119844485Y-84353629D01*
X119390734Y-84165215D01*
X118899421Y-84164786D01*
X118445343Y-84352408D01*
X118097629Y-84699515D01*
X117909215Y-85153266D01*
X117908786Y-85644579D01*
X118096408Y-86098657D01*
X118443515Y-86446371D01*
X118897266Y-86634785D01*
X119388579Y-86635214D01*
X119842657Y-86447592D01*
X120190371Y-86100485D01*
X120378785Y-85646734D01*
X120379214Y-85155421D01*
X120379214Y-87905326D01*
X120361482Y-87618587D01*
X120232164Y-87306383D01*
X120006735Y-87256870D01*
X119827130Y-87436475D01*
X119827130Y-87077265D01*
X119777617Y-86851836D01*
X119312964Y-86692193D01*
X118822587Y-86722518D01*
X118510383Y-86851836D01*
X118460870Y-87077265D01*
X119144000Y-87760395D01*
X119827130Y-87077265D01*
X119827130Y-87436475D01*
X119323605Y-87940000D01*
X120006735Y-88623130D01*
X120232164Y-88573617D01*
X120391807Y-88108964D01*
X120391807Y-89345000D01*
X119827130Y-89345000D01*
X119827130Y-88802735D01*
X119144000Y-88119605D01*
X118964395Y-88299210D01*
X118964395Y-87940000D01*
X118281265Y-87256870D01*
X118055836Y-87306383D01*
X117896193Y-87771036D01*
X117926518Y-88261413D01*
X118055836Y-88573617D01*
X118281265Y-88623130D01*
X118964395Y-87940000D01*
X118964395Y-88299210D01*
X118460870Y-88802735D01*
X118510383Y-89028164D01*
X118975036Y-89187807D01*
X119465413Y-89157482D01*
X119777617Y-89028164D01*
X119827130Y-88802735D01*
X119827130Y-89345000D01*
X119631042Y-89345000D01*
X119390734Y-89245215D01*
X118899421Y-89244786D01*
X118445343Y-89432408D01*
X118112169Y-89765000D01*
X117640000Y-89765000D01*
X117640000Y-88026309D01*
X117640000Y-87185750D01*
X117640000Y-86614250D01*
X117640000Y-85773691D01*
X117543327Y-85540302D01*
X117364699Y-85361673D01*
X117131310Y-85265000D01*
X116878691Y-85265000D01*
X116490750Y-85265000D01*
X116332000Y-85423750D01*
X116332000Y-86773000D01*
X117481250Y-86773000D01*
X117640000Y-86614250D01*
X117640000Y-87185750D01*
X117481250Y-87027000D01*
X116332000Y-87027000D01*
X116332000Y-88376250D01*
X116490750Y-88535000D01*
X116878691Y-88535000D01*
X117131310Y-88535000D01*
X117364699Y-88438327D01*
X117543327Y-88259698D01*
X117640000Y-88026309D01*
X117640000Y-89765000D01*
X117626247Y-89765000D01*
X117605463Y-89657877D01*
X117465673Y-89445073D01*
X117254640Y-89302623D01*
X117005000Y-89252560D01*
X116078000Y-89252560D01*
X116078000Y-88376250D01*
X116078000Y-87027000D01*
X116078000Y-86773000D01*
X116078000Y-85423750D01*
X115919250Y-85265000D01*
X115531309Y-85265000D01*
X115278690Y-85265000D01*
X115045301Y-85361673D01*
X114866673Y-85540302D01*
X114770000Y-85773691D01*
X114770000Y-86614250D01*
X114928750Y-86773000D01*
X116078000Y-86773000D01*
X116078000Y-87027000D01*
X114928750Y-87027000D01*
X114770000Y-87185750D01*
X114770000Y-88026309D01*
X114866673Y-88259698D01*
X115045301Y-88438327D01*
X115278690Y-88535000D01*
X115531309Y-88535000D01*
X115919250Y-88535000D01*
X116078000Y-88376250D01*
X116078000Y-89252560D01*
X115405000Y-89252560D01*
X115162877Y-89299537D01*
X114950073Y-89439327D01*
X114807623Y-89650360D01*
X114757560Y-89900000D01*
X114757560Y-91900000D01*
X114804537Y-92142123D01*
X114887618Y-92268598D01*
X114270156Y-92721403D01*
X114025602Y-92721190D01*
X113849958Y-92793764D01*
X113849958Y-90529026D01*
X113849958Y-89810974D01*
X113677688Y-89395053D01*
X113283490Y-88963179D01*
X113148687Y-88900000D01*
X113283490Y-88836821D01*
X113677688Y-88404947D01*
X113849958Y-87989026D01*
X113849958Y-87270974D01*
X113677688Y-86855053D01*
X113283490Y-86423179D01*
X113148687Y-86360000D01*
X113283490Y-86296821D01*
X113677688Y-85864947D01*
X113849958Y-85449026D01*
X113849958Y-84730974D01*
X113677688Y-84315053D01*
X113283490Y-83883179D01*
X112754027Y-83635032D01*
X112522000Y-83755531D01*
X112522000Y-84963000D01*
X113728817Y-84963000D01*
X113849958Y-84730974D01*
X113849958Y-85449026D01*
X113728817Y-85217000D01*
X112522000Y-85217000D01*
X112522000Y-86295531D01*
X112522000Y-86424469D01*
X112522000Y-87503000D01*
X113728817Y-87503000D01*
X113849958Y-87270974D01*
X113849958Y-87989026D01*
X113728817Y-87757000D01*
X112522000Y-87757000D01*
X112522000Y-88835531D01*
X112522000Y-88964469D01*
X112522000Y-90043000D01*
X113728817Y-90043000D01*
X113849958Y-89810974D01*
X113849958Y-90529026D01*
X113728817Y-90297000D01*
X112522000Y-90297000D01*
X112522000Y-91504469D01*
X112754027Y-91624968D01*
X113283490Y-91376821D01*
X113677688Y-90944947D01*
X113849958Y-90529026D01*
X113849958Y-92793764D01*
X113516163Y-92931686D01*
X113126056Y-93321113D01*
X112914671Y-93830184D01*
X112914190Y-94381398D01*
X113124686Y-94890837D01*
X113514113Y-95280944D01*
X113729496Y-95370378D01*
X113575735Y-95434069D01*
X113507675Y-95675070D01*
X114300000Y-96467395D01*
X115092325Y-95675070D01*
X115024265Y-95434069D01*
X114858959Y-95375231D01*
X115083837Y-95282314D01*
X115316578Y-95049977D01*
X115324038Y-95051461D01*
X115343306Y-95148325D01*
X115497214Y-95378666D01*
X115727555Y-95532574D01*
X115999260Y-95586620D01*
X116270965Y-95532574D01*
X116501306Y-95378666D01*
X116655214Y-95148325D01*
X116674481Y-95051461D01*
X116771345Y-95032194D01*
X117001686Y-94878286D01*
X117155594Y-94647945D01*
X117209640Y-94376240D01*
X117155594Y-94104535D01*
X117001686Y-93874194D01*
X116771345Y-93720286D01*
X116751903Y-93716418D01*
X116876198Y-93625269D01*
X116935085Y-93560995D01*
X117007566Y-93512566D01*
X117083288Y-93399238D01*
X117175365Y-93298742D01*
X117205174Y-93216824D01*
X117253603Y-93144346D01*
X117280193Y-93010668D01*
X117326802Y-92882585D01*
X117322993Y-92795496D01*
X117340000Y-92710000D01*
X117340000Y-92439452D01*
X117459927Y-92360673D01*
X117602377Y-92149640D01*
X117625366Y-92035000D01*
X118382641Y-92035000D01*
X118097629Y-92319515D01*
X117909215Y-92773266D01*
X117908786Y-93264579D01*
X118096408Y-93718657D01*
X118443515Y-94066371D01*
X118897266Y-94254785D01*
X119388579Y-94255214D01*
X119842657Y-94067592D01*
X120190371Y-93720485D01*
X120378785Y-93266734D01*
X120379214Y-92775421D01*
X120191592Y-92321343D01*
X119844485Y-91973629D01*
X119398220Y-91788323D01*
X119526566Y-91702566D01*
X119602174Y-91626957D01*
X119631114Y-91615000D01*
X122880000Y-91615000D01*
X123314345Y-91528603D01*
X123314346Y-91528603D01*
X123682566Y-91282566D01*
X125262566Y-89702566D01*
X125508603Y-89334346D01*
X125594999Y-88900000D01*
X125595000Y-88900000D01*
X125595000Y-73431348D01*
X125602553Y-73429883D01*
X125815357Y-73290093D01*
X125957807Y-73079060D01*
X126007870Y-72829420D01*
X126007870Y-98375000D01*
X120379214Y-98375000D01*
X120379214Y-95315421D01*
X120191592Y-94861343D01*
X119844485Y-94513629D01*
X119390734Y-94325215D01*
X118899421Y-94324786D01*
X118445343Y-94512408D01*
X118097629Y-94859515D01*
X117909215Y-95313266D01*
X117908786Y-95804579D01*
X118096408Y-96258657D01*
X118443515Y-96606371D01*
X118897266Y-96794785D01*
X119388579Y-96795214D01*
X119842657Y-96607592D01*
X120190371Y-96260485D01*
X120378785Y-95806734D01*
X120379214Y-95315421D01*
X120379214Y-98375000D01*
X115697767Y-98375000D01*
X115697767Y-96851966D01*
X115669805Y-96301462D01*
X115512931Y-95922735D01*
X115271930Y-95854675D01*
X114479605Y-96647000D01*
X115271930Y-97439325D01*
X115512931Y-97371265D01*
X115697767Y-96851966D01*
X115697767Y-98375000D01*
X115092325Y-98375000D01*
X115092325Y-97618930D01*
X114300000Y-96826605D01*
X114120395Y-97006210D01*
X114120395Y-96647000D01*
X113328070Y-95854675D01*
X113087069Y-95922735D01*
X112902233Y-96442034D01*
X112930195Y-96992538D01*
X113087069Y-97371265D01*
X113328070Y-97439325D01*
X114120395Y-96647000D01*
X114120395Y-97006210D01*
X113507675Y-97618930D01*
X113575735Y-97859931D01*
X114095034Y-98044767D01*
X114645538Y-98016805D01*
X115024265Y-97859931D01*
X115092325Y-97618930D01*
X115092325Y-98375000D01*
X112268000Y-98375000D01*
X112268000Y-91504469D01*
X112268000Y-90297000D01*
X112248000Y-90297000D01*
X112248000Y-90043000D01*
X112268000Y-90043000D01*
X112268000Y-88964469D01*
X112268000Y-88835531D01*
X112268000Y-87757000D01*
X112248000Y-87757000D01*
X112248000Y-87503000D01*
X112268000Y-87503000D01*
X112268000Y-86424469D01*
X112268000Y-86295531D01*
X112268000Y-85217000D01*
X112248000Y-85217000D01*
X112248000Y-84963000D01*
X112268000Y-84963000D01*
X112268000Y-83755531D01*
X112035973Y-83635032D01*
X111506510Y-83883179D01*
X111335746Y-84070263D01*
X111319063Y-83984277D01*
X111179273Y-83771473D01*
X110968240Y-83629023D01*
X110718600Y-83578960D01*
X108991400Y-83578960D01*
X108749277Y-83625937D01*
X108536473Y-83765727D01*
X108394023Y-83976760D01*
X108348251Y-84205000D01*
X106886930Y-84205000D01*
X106806222Y-84084211D01*
X106411170Y-83820246D01*
X106427262Y-83815525D01*
X106861191Y-83465986D01*
X107128327Y-82976996D01*
X107145010Y-82897060D01*
X107022852Y-82677000D01*
X105537000Y-82677000D01*
X105537000Y-82697000D01*
X105283000Y-82697000D01*
X105283000Y-82677000D01*
X103797148Y-82677000D01*
X103674990Y-82897060D01*
X103691673Y-82976996D01*
X103958809Y-83465986D01*
X104392738Y-83815525D01*
X104408829Y-83820246D01*
X104013778Y-84084211D01*
X103705441Y-84545671D01*
X103597167Y-85090000D01*
X103705441Y-85634329D01*
X104013778Y-86095789D01*
X104409198Y-86360000D01*
X104013778Y-86624211D01*
X103705441Y-87085671D01*
X103597167Y-87630000D01*
X103705441Y-88174329D01*
X104013778Y-88635789D01*
X104409198Y-88900000D01*
X104013778Y-89164211D01*
X103705441Y-89625671D01*
X103597167Y-90170000D01*
X103705441Y-90714329D01*
X104013778Y-91175789D01*
X104409198Y-91440000D01*
X104013778Y-91704211D01*
X103705441Y-92165671D01*
X103597167Y-92710000D01*
X103705441Y-93254329D01*
X104013778Y-93715789D01*
X104186013Y-93830873D01*
X104024877Y-93862137D01*
X103812073Y-94001927D01*
X103669623Y-94212960D01*
X103619560Y-94462600D01*
X103619560Y-96037400D01*
X103666537Y-96279523D01*
X103743707Y-96397000D01*
X98974884Y-96397000D01*
X99186222Y-96255789D01*
X99494559Y-95794329D01*
X99602833Y-95250000D01*
X99494559Y-94705671D01*
X99186222Y-94244211D01*
X98790801Y-93980000D01*
X99186222Y-93715789D01*
X99494559Y-93254329D01*
X99602833Y-92710000D01*
X99494559Y-92165671D01*
X99186222Y-91704211D01*
X98790801Y-91440000D01*
X99186222Y-91175789D01*
X99494559Y-90714329D01*
X99602833Y-90170000D01*
X99494559Y-89625671D01*
X99186222Y-89164211D01*
X98790801Y-88900000D01*
X99186222Y-88635789D01*
X99494559Y-88174329D01*
X99602833Y-87630000D01*
X99494559Y-87085671D01*
X99186222Y-86624211D01*
X98790801Y-86360000D01*
X99186222Y-86095789D01*
X99494559Y-85634329D01*
X99602833Y-85090000D01*
X99494559Y-84545671D01*
X99186222Y-84084211D01*
X98790801Y-83820000D01*
X99186222Y-83555789D01*
X99494559Y-83094329D01*
X99602833Y-82550000D01*
X99494559Y-82005671D01*
X99186222Y-81544211D01*
X98790801Y-81280000D01*
X99186222Y-81015789D01*
X99494559Y-80554329D01*
X99602833Y-80010000D01*
X99494559Y-79465671D01*
X99186222Y-79004211D01*
X98790801Y-78740000D01*
X99186222Y-78475789D01*
X99494559Y-78014329D01*
X99602833Y-77470000D01*
X99494559Y-76925671D01*
X99186222Y-76464211D01*
X98790801Y-76200000D01*
X99186222Y-75935789D01*
X99494559Y-75474329D01*
X99602833Y-74930000D01*
X99494559Y-74385671D01*
X99186222Y-73924211D01*
X98790801Y-73660000D01*
X99186222Y-73395789D01*
X99494559Y-72934329D01*
X99602833Y-72390000D01*
X99494559Y-71845671D01*
X99186222Y-71384211D01*
X98724762Y-71075874D01*
X98180433Y-70967600D01*
X97399567Y-70967600D01*
X97171000Y-71013064D01*
X97171000Y-67728310D01*
X97171000Y-67475691D01*
X97171000Y-67087750D01*
X97012250Y-66929000D01*
X95663000Y-66929000D01*
X95663000Y-68078250D01*
X95821750Y-68237000D01*
X96662309Y-68237000D01*
X96895698Y-68140327D01*
X97074327Y-67961699D01*
X97171000Y-67728310D01*
X97171000Y-71013064D01*
X96855238Y-71075874D01*
X96393778Y-71384211D01*
X96085441Y-71845671D01*
X95977167Y-72390000D01*
X96085441Y-72934329D01*
X96393778Y-73395789D01*
X96789198Y-73660000D01*
X96393778Y-73924211D01*
X96085441Y-74385671D01*
X95977167Y-74930000D01*
X96085441Y-75474329D01*
X96393778Y-75935789D01*
X96789198Y-76200000D01*
X96393778Y-76464211D01*
X96085441Y-76925671D01*
X95977167Y-77470000D01*
X96085441Y-78014329D01*
X96393778Y-78475789D01*
X96789198Y-78740000D01*
X96393778Y-79004211D01*
X96085441Y-79465671D01*
X95977167Y-80010000D01*
X96085441Y-80554329D01*
X96393778Y-81015789D01*
X96789198Y-81280000D01*
X96393778Y-81544211D01*
X96085441Y-82005671D01*
X95977167Y-82550000D01*
X96085441Y-83094329D01*
X96393778Y-83555789D01*
X96789198Y-83820000D01*
X96393778Y-84084211D01*
X96085441Y-84545671D01*
X95977167Y-85090000D01*
X96085441Y-85634329D01*
X96393778Y-86095789D01*
X96789198Y-86360000D01*
X96393778Y-86624211D01*
X96085441Y-87085671D01*
X95977167Y-87630000D01*
X96085441Y-88174329D01*
X96393778Y-88635789D01*
X96789198Y-88900000D01*
X96393778Y-89164211D01*
X96085441Y-89625671D01*
X95977167Y-90170000D01*
X96085441Y-90714329D01*
X96393778Y-91175789D01*
X96789198Y-91440000D01*
X96393778Y-91704211D01*
X96085441Y-92165671D01*
X95977167Y-92710000D01*
X96085441Y-93254329D01*
X96393778Y-93715789D01*
X96789198Y-93980000D01*
X96393778Y-94244211D01*
X96085441Y-94705671D01*
X95977167Y-95250000D01*
X96085441Y-95794329D01*
X96393778Y-96255789D01*
X96605115Y-96397000D01*
X95500000Y-96397000D01*
X95500000Y-75819000D01*
X95432633Y-75480325D01*
X95409000Y-75444955D01*
X95409000Y-68078250D01*
X95409000Y-66929000D01*
X94059750Y-66929000D01*
X93901000Y-67087750D01*
X93901000Y-67475691D01*
X93901000Y-67728310D01*
X93997673Y-67961699D01*
X94176302Y-68140327D01*
X94409691Y-68237000D01*
X95250250Y-68237000D01*
X95409000Y-68078250D01*
X95409000Y-75444955D01*
X95240790Y-75193210D01*
X95240786Y-75193207D01*
X91372500Y-71324920D01*
X91372500Y-67864387D01*
X91593223Y-67821563D01*
X91806027Y-67681773D01*
X91948477Y-67470740D01*
X91998540Y-67221100D01*
X91998540Y-65493900D01*
X91951563Y-65251777D01*
X91811773Y-65038973D01*
X91600740Y-64896523D01*
X91559840Y-64888320D01*
X91576529Y-64877170D01*
X91693239Y-64702500D01*
X92152920Y-64702500D01*
X92184962Y-64734541D01*
X92171808Y-64747673D01*
X92029162Y-65091201D01*
X92028838Y-65463167D01*
X92079000Y-65584568D01*
X92079000Y-69543178D01*
X92029162Y-69663201D01*
X92028838Y-70035167D01*
X92170883Y-70378943D01*
X92433673Y-70642192D01*
X92777201Y-70784838D01*
X93149167Y-70785162D01*
X93492943Y-70643117D01*
X93756192Y-70380327D01*
X93898838Y-70036799D01*
X93899162Y-69664833D01*
X93849000Y-69543431D01*
X93849000Y-65584821D01*
X93898838Y-65464799D01*
X93899097Y-65166313D01*
X93935537Y-65354123D01*
X94074423Y-65565551D01*
X93997673Y-65642301D01*
X93901000Y-65875690D01*
X93901000Y-66128309D01*
X93901000Y-66516250D01*
X94059750Y-66675000D01*
X95409000Y-66675000D01*
X95409000Y-66655000D01*
X95663000Y-66655000D01*
X95663000Y-66675000D01*
X97012250Y-66675000D01*
X97171000Y-66516250D01*
X97171000Y-66128309D01*
X97171000Y-65875690D01*
X97074327Y-65642301D01*
X96996476Y-65564451D01*
X97133377Y-65361640D01*
X97183440Y-65112000D01*
X97183440Y-63412000D01*
X97136463Y-63169877D01*
X97051109Y-63039942D01*
X97069877Y-63012140D01*
X97119940Y-62762500D01*
X97119940Y-61062500D01*
X97081818Y-60866020D01*
X97133377Y-60789640D01*
X97183440Y-60540000D01*
X97183440Y-58840000D01*
X97136463Y-58597877D01*
X97103568Y-58547800D01*
X97133377Y-58503640D01*
X97183440Y-58254000D01*
X97183440Y-56554000D01*
X97136463Y-56311877D01*
X96996673Y-56099073D01*
X96785640Y-55956623D01*
X96536000Y-55906560D01*
X94536000Y-55906560D01*
X94293877Y-55953537D01*
X94081073Y-56093327D01*
X93938623Y-56304360D01*
X93895578Y-56519000D01*
X92075005Y-56519000D01*
X92075000Y-56518999D01*
X91792515Y-56575189D01*
X91736325Y-56586367D01*
X91449210Y-56778210D01*
X91449207Y-56778213D01*
X89861710Y-58365710D01*
X89669867Y-58652825D01*
X89658689Y-58709015D01*
X89602499Y-58991500D01*
X89602500Y-58991505D01*
X89602500Y-60081502D01*
X89398471Y-60217830D01*
X89217507Y-60488660D01*
X88835990Y-60070679D01*
X88306527Y-59822532D01*
X88074500Y-59943031D01*
X88074500Y-61150500D01*
X88094500Y-61150500D01*
X88094500Y-61404500D01*
X88074500Y-61404500D01*
X88074500Y-62483031D01*
X88074500Y-62611969D01*
X88074500Y-63690500D01*
X88094500Y-63690500D01*
X88094500Y-63944500D01*
X88074500Y-63944500D01*
X88074500Y-65023031D01*
X88074500Y-65151969D01*
X88074500Y-66230500D01*
X88094500Y-66230500D01*
X88094500Y-66484500D01*
X88074500Y-66484500D01*
X88074500Y-67691969D01*
X88306527Y-67812468D01*
X88835990Y-67564321D01*
X89006753Y-67377236D01*
X89023437Y-67463223D01*
X89163227Y-67676027D01*
X89374260Y-67818477D01*
X89602500Y-67864248D01*
X89602500Y-71691494D01*
X89602499Y-71691500D01*
X89658689Y-71973984D01*
X89669867Y-72030175D01*
X89861710Y-72317290D01*
X93730000Y-76185579D01*
X93730000Y-97282000D01*
X93797367Y-97620675D01*
X93989210Y-97907790D01*
X94276325Y-98099633D01*
X94615000Y-98167000D01*
X108457994Y-98167000D01*
X108458000Y-98167001D01*
X108458000Y-98167000D01*
X108740484Y-98110810D01*
X108796674Y-98099633D01*
X108796675Y-98099633D01*
X109083790Y-97907790D01*
X109718786Y-97272792D01*
X109718790Y-97272790D01*
X109718790Y-97272789D01*
X109846975Y-97080946D01*
X109910633Y-96985675D01*
X109910634Y-96985674D01*
X109978000Y-96647000D01*
X109978001Y-96647000D01*
X109978000Y-96646994D01*
X109978000Y-94107000D01*
X109910633Y-93768325D01*
X109718790Y-93481210D01*
X109718786Y-93481207D01*
X108321790Y-92084210D01*
X108034675Y-91892367D01*
X107978484Y-91881189D01*
X107696000Y-91824999D01*
X107695994Y-91825000D01*
X106886930Y-91825000D01*
X106806222Y-91704211D01*
X106410801Y-91440000D01*
X106806222Y-91175789D01*
X107114559Y-90714329D01*
X107222833Y-90170000D01*
X107114559Y-89625671D01*
X106806222Y-89164211D01*
X106410801Y-88900000D01*
X106806222Y-88635789D01*
X106886930Y-88515000D01*
X108649260Y-88515000D01*
X108765971Y-88689670D01*
X109080751Y-88900000D01*
X108765971Y-89110330D01*
X108441115Y-89596511D01*
X108327041Y-90170000D01*
X108441115Y-90743489D01*
X108765971Y-91229670D01*
X109252152Y-91554526D01*
X109825641Y-91668600D01*
X109884359Y-91668600D01*
X110457848Y-91554526D01*
X110944029Y-91229670D01*
X111124992Y-90958839D01*
X111506510Y-91376821D01*
X112035973Y-91624968D01*
X112268000Y-91504469D01*
X112268000Y-98375000D01*
X87045000Y-98375000D01*
X87045000Y-82797690D01*
X87547208Y-83300776D01*
X88423501Y-83664645D01*
X89372336Y-83665473D01*
X90249263Y-83303134D01*
X90920776Y-82632792D01*
X91284645Y-81756499D01*
X91285473Y-80807664D01*
X90923134Y-79930737D01*
X90252792Y-79259224D01*
X89376499Y-78895355D01*
X88427664Y-78894527D01*
X87550737Y-79256866D01*
X87045000Y-79761721D01*
X87045000Y-67548971D01*
X87059010Y-67564321D01*
X87588473Y-67812468D01*
X87820500Y-67691969D01*
X87820500Y-66484500D01*
X87800500Y-66484500D01*
X87800500Y-66230500D01*
X87820500Y-66230500D01*
X87820500Y-65151969D01*
X87820500Y-65023031D01*
X87820500Y-63944500D01*
X87800500Y-63944500D01*
X87800500Y-63690500D01*
X87820500Y-63690500D01*
X87820500Y-62611969D01*
X87820500Y-62483031D01*
X87820500Y-61404500D01*
X87800500Y-61404500D01*
X87800500Y-61150500D01*
X87820500Y-61150500D01*
X87820500Y-59943031D01*
X87588473Y-59822532D01*
X87059010Y-60070679D01*
X87045000Y-60086028D01*
X87045000Y-54857690D01*
X87547208Y-55360776D01*
X88423501Y-55724645D01*
X89372336Y-55725473D01*
X90249263Y-55363134D01*
X90920776Y-54692792D01*
X91284645Y-53816499D01*
X91285473Y-52867664D01*
X90923134Y-51990737D01*
X90252792Y-51319224D01*
X89376499Y-50955355D01*
X88427664Y-50954527D01*
X87550737Y-51316866D01*
X87045000Y-51821721D01*
X87045000Y-46405000D01*
X139452309Y-46405000D01*
X138949224Y-46907208D01*
X138585355Y-47783501D01*
X138584527Y-48732336D01*
X138946866Y-49609263D01*
X139617208Y-50280776D01*
X140493501Y-50644645D01*
X141442336Y-50645473D01*
X142319263Y-50283134D01*
X142990776Y-49612792D01*
X143354645Y-48736499D01*
X143355473Y-47787664D01*
X142993134Y-46910737D01*
X142488278Y-46405000D01*
X154255000Y-46405000D01*
X154255000Y-55006028D01*
X154240990Y-54990679D01*
X153711527Y-54742532D01*
X153555440Y-54823592D01*
X153555440Y-52070000D01*
X153555440Y-50038000D01*
X153508463Y-49795877D01*
X153368673Y-49583073D01*
X153208956Y-49475262D01*
X153298385Y-49378818D01*
X153497975Y-48896944D01*
X153497975Y-48131056D01*
X153298385Y-47649182D01*
X152860379Y-47176812D01*
X152274946Y-46908017D01*
X152019000Y-47026633D01*
X152019000Y-48387000D01*
X153378836Y-48387000D01*
X153497975Y-48131056D01*
X153497975Y-48896944D01*
X153378836Y-48641000D01*
X152019000Y-48641000D01*
X152019000Y-48661000D01*
X151765000Y-48661000D01*
X151765000Y-48641000D01*
X151765000Y-48387000D01*
X151765000Y-47026633D01*
X151509054Y-46908017D01*
X150923621Y-47176812D01*
X150485615Y-47649182D01*
X150286025Y-48131056D01*
X150405164Y-48387000D01*
X151765000Y-48387000D01*
X151765000Y-48641000D01*
X150405164Y-48641000D01*
X150286025Y-48896944D01*
X150485615Y-49378818D01*
X150575574Y-49475835D01*
X150421073Y-49577327D01*
X150278623Y-49788360D01*
X150228560Y-50038000D01*
X150228560Y-52070000D01*
X150275537Y-52312123D01*
X150415327Y-52524927D01*
X150626360Y-52667377D01*
X150876000Y-52717440D01*
X152908000Y-52717440D01*
X153150123Y-52670463D01*
X153362927Y-52530673D01*
X153505377Y-52319640D01*
X153555440Y-52070000D01*
X153555440Y-54823592D01*
X153479500Y-54863031D01*
X153479500Y-56070500D01*
X153499500Y-56070500D01*
X153499500Y-56324500D01*
X153479500Y-56324500D01*
X153479500Y-57403031D01*
X153479500Y-57531969D01*
X153479500Y-58610500D01*
X153499500Y-58610500D01*
X153499500Y-58864500D01*
X153479500Y-58864500D01*
X153479500Y-58884500D01*
X153225500Y-58884500D01*
X153225500Y-58864500D01*
X153205500Y-58864500D01*
X153205500Y-58610500D01*
X153225500Y-58610500D01*
X153225500Y-57531969D01*
X153225500Y-57403031D01*
X153225500Y-56324500D01*
X153205500Y-56324500D01*
X153205500Y-56070500D01*
X153225500Y-56070500D01*
X153225500Y-54863031D01*
X152993473Y-54742532D01*
X152464010Y-54990679D01*
X152293246Y-55177763D01*
X152276563Y-55091777D01*
X152136773Y-54878973D01*
X151925740Y-54736523D01*
X151676100Y-54686460D01*
X149948900Y-54686460D01*
X149706777Y-54733437D01*
X149493973Y-54873227D01*
X149366211Y-55062500D01*
X149304797Y-55062500D01*
X149215507Y-54926573D01*
X149329877Y-54757140D01*
X149379940Y-54507500D01*
X149379940Y-52807500D01*
X149332963Y-52565377D01*
X149193173Y-52352573D01*
X148982140Y-52210123D01*
X148732500Y-52160060D01*
X146732500Y-52160060D01*
X146490377Y-52207037D01*
X146277573Y-52346827D01*
X146135123Y-52557860D01*
X146085060Y-52807500D01*
X146085060Y-54507500D01*
X146132037Y-54749623D01*
X146249492Y-54928426D01*
X146135123Y-55097860D01*
X146085060Y-55347500D01*
X146085060Y-57047500D01*
X146132037Y-57289623D01*
X146249492Y-57468426D01*
X146135123Y-57637860D01*
X146085060Y-57887500D01*
X146085060Y-59587500D01*
X146132037Y-59829623D01*
X146249492Y-60008426D01*
X146135123Y-60177860D01*
X146085060Y-60427500D01*
X146085060Y-62127500D01*
X146132037Y-62369623D01*
X146249492Y-62548426D01*
X146135123Y-62717860D01*
X146085060Y-62967500D01*
X146085060Y-64667500D01*
X146132037Y-64909623D01*
X146249492Y-65088426D01*
X146135123Y-65257860D01*
X146085060Y-65507500D01*
X146085060Y-67207500D01*
X146132037Y-67449623D01*
X146271827Y-67662427D01*
X146482860Y-67804877D01*
X146732500Y-67854940D01*
X148732500Y-67854940D01*
X148974623Y-67807963D01*
X149187427Y-67668173D01*
X149306008Y-67492500D01*
X149836210Y-67492500D01*
X150209652Y-67742026D01*
X150783141Y-67856100D01*
X150841859Y-67856100D01*
X151415348Y-67742026D01*
X151901529Y-67417170D01*
X152082492Y-67146339D01*
X152464010Y-67564321D01*
X152993473Y-67812468D01*
X153225500Y-67691969D01*
X153225500Y-66484500D01*
X153205500Y-66484500D01*
X153205500Y-66230500D01*
X153225500Y-66230500D01*
X153225500Y-65151969D01*
X153225500Y-65023031D01*
X153225500Y-63944500D01*
X153205500Y-63944500D01*
X153205500Y-63690500D01*
X153225500Y-63690500D01*
X153225500Y-63670500D01*
X153479500Y-63670500D01*
X153479500Y-63690500D01*
X153499500Y-63690500D01*
X153499500Y-63944500D01*
X153479500Y-63944500D01*
X153479500Y-65023031D01*
X153479500Y-65151969D01*
X153479500Y-66230500D01*
X153499500Y-66230500D01*
X153499500Y-66484500D01*
X153479500Y-66484500D01*
X153479500Y-67691969D01*
X153711527Y-67812468D01*
X154240990Y-67564321D01*
X154255000Y-67548971D01*
X154255000Y-69472001D01*
X154178000Y-69456560D01*
X152146000Y-69456560D01*
X151903877Y-69503537D01*
X151691073Y-69643327D01*
X151548623Y-69854360D01*
X151498560Y-70104000D01*
X151498560Y-72136000D01*
X151545537Y-72378123D01*
X151685327Y-72590927D01*
X151845043Y-72698737D01*
X151755615Y-72795182D01*
X151556025Y-73277056D01*
X151675164Y-73533000D01*
X153035000Y-73533000D01*
X153035000Y-73513000D01*
X153289000Y-73513000D01*
X153289000Y-73533000D01*
X153309000Y-73533000D01*
X153309000Y-73787000D01*
X153289000Y-73787000D01*
X153289000Y-75147367D01*
X153544946Y-75265983D01*
X154130379Y-74997188D01*
X154255000Y-74862789D01*
X154255000Y-81071373D01*
X153923490Y-80708179D01*
X153394027Y-80460032D01*
X153162000Y-80580531D01*
X153162000Y-81788000D01*
X153182000Y-81788000D01*
X153182000Y-82042000D01*
X153162000Y-82042000D01*
X153162000Y-83120531D01*
X153162000Y-83249469D01*
X153162000Y-84328000D01*
X153182000Y-84328000D01*
X153182000Y-84582000D01*
X153162000Y-84582000D01*
X153162000Y-85789469D01*
X153394027Y-85909968D01*
X153923490Y-85661821D01*
X154255000Y-85298626D01*
X154255000Y-98375000D01*
X154255000Y-98375000D01*
G37*
X154255000Y-98375000D02*
X153035000Y-98375000D01*
X153035000Y-75147367D01*
X153035000Y-73787000D01*
X151675164Y-73787000D01*
X151556025Y-74042944D01*
X151755615Y-74524818D01*
X152193621Y-74997188D01*
X152779054Y-75265983D01*
X153035000Y-75147367D01*
X153035000Y-98375000D01*
X152908000Y-98375000D01*
X152908000Y-85789469D01*
X152908000Y-84582000D01*
X152888000Y-84582000D01*
X152888000Y-84328000D01*
X152908000Y-84328000D01*
X152908000Y-83249469D01*
X152908000Y-83120531D01*
X152908000Y-82042000D01*
X152888000Y-82042000D01*
X152888000Y-81788000D01*
X152908000Y-81788000D01*
X152908000Y-80580531D01*
X152675973Y-80460032D01*
X152146510Y-80708179D01*
X151975746Y-80895263D01*
X151959063Y-80809277D01*
X151819273Y-80596473D01*
X151608240Y-80454023D01*
X151358600Y-80403960D01*
X149631400Y-80403960D01*
X149389277Y-80450937D01*
X149176473Y-80590727D01*
X149034023Y-80801760D01*
X149022507Y-80859183D01*
X149015463Y-80822877D01*
X148876576Y-80611448D01*
X148953327Y-80534699D01*
X149050000Y-80301310D01*
X149050000Y-80048691D01*
X149050000Y-79660750D01*
X149050000Y-79089250D01*
X149050000Y-78701309D01*
X149050000Y-78448690D01*
X148953327Y-78215301D01*
X148868025Y-78130000D01*
X148953327Y-78044699D01*
X149050000Y-77811310D01*
X149050000Y-77558691D01*
X149050000Y-77120750D01*
X149050000Y-76549250D01*
X149050000Y-76111309D01*
X149050000Y-75858690D01*
X148953327Y-75625301D01*
X148893025Y-75565000D01*
X148953327Y-75504699D01*
X149050000Y-75271310D01*
X149050000Y-75018691D01*
X149050000Y-74580750D01*
X149050000Y-74009250D01*
X149050000Y-73571309D01*
X149050000Y-73318690D01*
X148953327Y-73085301D01*
X148774698Y-72906673D01*
X148541309Y-72810000D01*
X147700750Y-72810000D01*
X147542000Y-72968750D01*
X147542000Y-74168000D01*
X148891250Y-74168000D01*
X149050000Y-74009250D01*
X149050000Y-74580750D01*
X148891250Y-74422000D01*
X147542000Y-74422000D01*
X147542000Y-75508750D01*
X147542000Y-75621250D01*
X147542000Y-76708000D01*
X148891250Y-76708000D01*
X149050000Y-76549250D01*
X149050000Y-77120750D01*
X148891250Y-76962000D01*
X147542000Y-76962000D01*
X147542000Y-78098750D01*
X147542000Y-78161250D01*
X147542000Y-79248000D01*
X148891250Y-79248000D01*
X149050000Y-79089250D01*
X149050000Y-79660750D01*
X148891250Y-79502000D01*
X147542000Y-79502000D01*
X147542000Y-79522000D01*
X147288000Y-79522000D01*
X147288000Y-79502000D01*
X147288000Y-79248000D01*
X147288000Y-78161250D01*
X147288000Y-78098750D01*
X147288000Y-76962000D01*
X147288000Y-76708000D01*
X147288000Y-75621250D01*
X147288000Y-75508750D01*
X147288000Y-74422000D01*
X147288000Y-74168000D01*
X147288000Y-72968750D01*
X147129250Y-72810000D01*
X146288691Y-72810000D01*
X146055302Y-72906673D01*
X145876673Y-73085301D01*
X145780000Y-73318690D01*
X145780000Y-73571309D01*
X145780000Y-74009250D01*
X145938750Y-74168000D01*
X147288000Y-74168000D01*
X147288000Y-74422000D01*
X145938750Y-74422000D01*
X145780000Y-74580750D01*
X145780000Y-75018691D01*
X145780000Y-75271310D01*
X145876673Y-75504699D01*
X145936974Y-75565000D01*
X145876673Y-75625301D01*
X145780000Y-75858690D01*
X145780000Y-76111309D01*
X145780000Y-76549250D01*
X145938750Y-76708000D01*
X147288000Y-76708000D01*
X147288000Y-76962000D01*
X145938750Y-76962000D01*
X145780000Y-77120750D01*
X145780000Y-77558691D01*
X145780000Y-77811310D01*
X145876673Y-78044699D01*
X145961974Y-78130000D01*
X145876673Y-78215301D01*
X145780000Y-78448690D01*
X145780000Y-78701309D01*
X145780000Y-79089250D01*
X145938750Y-79248000D01*
X147288000Y-79248000D01*
X147288000Y-79502000D01*
X145938750Y-79502000D01*
X145780000Y-79660750D01*
X145780000Y-80048691D01*
X145780000Y-80301310D01*
X145876673Y-80534699D01*
X145954523Y-80612548D01*
X145817623Y-80815360D01*
X145767560Y-81065000D01*
X145767560Y-82765000D01*
X145814537Y-83007123D01*
X145931992Y-83185926D01*
X145817623Y-83355360D01*
X145767560Y-83605000D01*
X145767560Y-85305000D01*
X145814537Y-85547123D01*
X145953423Y-85758551D01*
X145876673Y-85835301D01*
X145780000Y-86068690D01*
X145780000Y-86321309D01*
X145780000Y-86709250D01*
X145938750Y-86868000D01*
X147288000Y-86868000D01*
X147288000Y-86848000D01*
X147542000Y-86848000D01*
X147542000Y-86868000D01*
X148891250Y-86868000D01*
X149050000Y-86709250D01*
X149050000Y-86321309D01*
X149050000Y-86068690D01*
X148953327Y-85835301D01*
X148875476Y-85757451D01*
X149012377Y-85554640D01*
X149055421Y-85340000D01*
X149289260Y-85340000D01*
X149405971Y-85514670D01*
X149892152Y-85839526D01*
X150465641Y-85953600D01*
X150524359Y-85953600D01*
X151097848Y-85839526D01*
X151584029Y-85514670D01*
X151764992Y-85243839D01*
X152146510Y-85661821D01*
X152675973Y-85909968D01*
X152908000Y-85789469D01*
X152908000Y-98375000D01*
X149050000Y-98375000D01*
X149050000Y-93051310D01*
X149050000Y-92798691D01*
X149050000Y-92360750D01*
X149050000Y-91789250D01*
X149050000Y-91351309D01*
X149050000Y-91098690D01*
X148953327Y-90865301D01*
X148893025Y-90805000D01*
X148953327Y-90744699D01*
X149050000Y-90511310D01*
X149050000Y-90258691D01*
X149050000Y-89820750D01*
X149050000Y-89249250D01*
X149050000Y-88811309D01*
X149050000Y-88558690D01*
X148953327Y-88325301D01*
X148868025Y-88240000D01*
X148953327Y-88154699D01*
X149050000Y-87921310D01*
X149050000Y-87668691D01*
X149050000Y-87280750D01*
X148891250Y-87122000D01*
X147542000Y-87122000D01*
X147542000Y-88208750D01*
X147542000Y-88271250D01*
X147542000Y-89408000D01*
X148891250Y-89408000D01*
X149050000Y-89249250D01*
X149050000Y-89820750D01*
X148891250Y-89662000D01*
X147542000Y-89662000D01*
X147542000Y-90748750D01*
X147542000Y-90861250D01*
X147542000Y-91948000D01*
X148891250Y-91948000D01*
X149050000Y-91789250D01*
X149050000Y-92360750D01*
X148891250Y-92202000D01*
X147542000Y-92202000D01*
X147542000Y-93401250D01*
X147700750Y-93560000D01*
X148541309Y-93560000D01*
X148774698Y-93463327D01*
X148953327Y-93284699D01*
X149050000Y-93051310D01*
X149050000Y-98375000D01*
X147288000Y-98375000D01*
X147288000Y-93401250D01*
X147288000Y-92202000D01*
X147288000Y-91948000D01*
X147288000Y-90861250D01*
X147288000Y-90748750D01*
X147288000Y-89662000D01*
X147288000Y-89408000D01*
X147288000Y-88271250D01*
X147288000Y-88208750D01*
X147288000Y-87122000D01*
X145938750Y-87122000D01*
X145780000Y-87280750D01*
X145780000Y-87668691D01*
X145780000Y-87921310D01*
X145876673Y-88154699D01*
X145961974Y-88240000D01*
X145876673Y-88325301D01*
X145780000Y-88558690D01*
X145780000Y-88811309D01*
X145780000Y-89249250D01*
X145938750Y-89408000D01*
X147288000Y-89408000D01*
X147288000Y-89662000D01*
X145938750Y-89662000D01*
X145780000Y-89820750D01*
X145780000Y-90258691D01*
X145780000Y-90511310D01*
X145876673Y-90744699D01*
X145936974Y-90805000D01*
X145876673Y-90865301D01*
X145780000Y-91098690D01*
X145780000Y-91351309D01*
X145780000Y-91789250D01*
X145938750Y-91948000D01*
X147288000Y-91948000D01*
X147288000Y-92202000D01*
X145938750Y-92202000D01*
X145780000Y-92360750D01*
X145780000Y-92798691D01*
X145780000Y-93051310D01*
X145876673Y-93284699D01*
X146055302Y-93463327D01*
X146288691Y-93560000D01*
X147129250Y-93560000D01*
X147288000Y-93401250D01*
X147288000Y-98375000D01*
X145379940Y-98375000D01*
X145379940Y-67207500D01*
X145379940Y-65507500D01*
X145332963Y-65265377D01*
X145215507Y-65086573D01*
X145329877Y-64917140D01*
X145379940Y-64667500D01*
X145379940Y-62967500D01*
X145332963Y-62725377D01*
X145215507Y-62546573D01*
X145329877Y-62377140D01*
X145379940Y-62127500D01*
X145379940Y-60427500D01*
X145332963Y-60185377D01*
X145215507Y-60006573D01*
X145329877Y-59837140D01*
X145379940Y-59587500D01*
X145379940Y-57887500D01*
X145332963Y-57645377D01*
X145215507Y-57466573D01*
X145329877Y-57297140D01*
X145379940Y-57047500D01*
X145379940Y-55347500D01*
X145332963Y-55105377D01*
X145215507Y-54926573D01*
X145329877Y-54757140D01*
X145379940Y-54507500D01*
X145379940Y-52807500D01*
X145332963Y-52565377D01*
X145193173Y-52352573D01*
X144982140Y-52210123D01*
X144732500Y-52160060D01*
X142732500Y-52160060D01*
X142490377Y-52207037D01*
X142277573Y-52346827D01*
X142158991Y-52522500D01*
X140652500Y-52522500D01*
X140218154Y-52608897D01*
X139849934Y-52854934D01*
X137114983Y-55589885D01*
X137114983Y-48896946D01*
X137114983Y-48131054D01*
X136846188Y-47545621D01*
X136373818Y-47107615D01*
X135891944Y-46908025D01*
X135636000Y-47027164D01*
X135636000Y-48387000D01*
X136996367Y-48387000D01*
X137114983Y-48131054D01*
X137114983Y-48896946D01*
X136996367Y-48641000D01*
X135636000Y-48641000D01*
X135636000Y-50000836D01*
X135891944Y-50119975D01*
X136373818Y-49920385D01*
X136846188Y-49482379D01*
X137114983Y-48896946D01*
X137114983Y-55589885D01*
X136379868Y-56325000D01*
X135871214Y-56325000D01*
X135871214Y-54675421D01*
X135683592Y-54221343D01*
X135382000Y-53919223D01*
X135382000Y-50000836D01*
X135382000Y-48641000D01*
X135362000Y-48641000D01*
X135362000Y-48387000D01*
X135382000Y-48387000D01*
X135382000Y-47027164D01*
X135126056Y-46908025D01*
X134644182Y-47107615D01*
X134547164Y-47197574D01*
X134445673Y-47043073D01*
X134234640Y-46900623D01*
X133985000Y-46850560D01*
X131953000Y-46850560D01*
X131710877Y-46897537D01*
X131498073Y-47037327D01*
X131355623Y-47248360D01*
X131329424Y-47379000D01*
X129921000Y-47379000D01*
X129486654Y-47465397D01*
X129118434Y-47711434D01*
X127975434Y-48854434D01*
X127729397Y-49222654D01*
X127643000Y-49657000D01*
X127643000Y-50837868D01*
X127291868Y-51189000D01*
X125476000Y-51189000D01*
X125041654Y-51275397D01*
X124673434Y-51521434D01*
X123657434Y-52537434D01*
X123411397Y-52905654D01*
X123325000Y-53340000D01*
X123325000Y-53568651D01*
X123317447Y-53570117D01*
X123104643Y-53709907D01*
X122962193Y-53920940D01*
X122912130Y-54170580D01*
X122912130Y-57670700D01*
X122959107Y-57912823D01*
X123098897Y-58125627D01*
X123309930Y-58268077D01*
X123559570Y-58318140D01*
X125360430Y-58318140D01*
X125602553Y-58271163D01*
X125815357Y-58131373D01*
X125957807Y-57920340D01*
X126007870Y-57670700D01*
X126007870Y-54170580D01*
X125960893Y-53928457D01*
X125821103Y-53715653D01*
X125742522Y-53662609D01*
X125946132Y-53459000D01*
X127762000Y-53459000D01*
X128196345Y-53372603D01*
X128196346Y-53372603D01*
X128564566Y-53126566D01*
X129580566Y-52110566D01*
X129826603Y-51742346D01*
X129826603Y-51742345D01*
X129913000Y-51308000D01*
X129913000Y-50127132D01*
X130391132Y-49649000D01*
X131328648Y-49649000D01*
X131352537Y-49772123D01*
X131492327Y-49984927D01*
X131703360Y-50127377D01*
X131953000Y-50177440D01*
X133985000Y-50177440D01*
X134227123Y-50130463D01*
X134439927Y-49990673D01*
X134547737Y-49830956D01*
X134644182Y-49920385D01*
X135126056Y-50119975D01*
X135382000Y-50000836D01*
X135382000Y-53919223D01*
X135336485Y-53873629D01*
X134882734Y-53685215D01*
X134391421Y-53684786D01*
X133937343Y-53872408D01*
X133589629Y-54219515D01*
X133401215Y-54673266D01*
X133400786Y-55164579D01*
X133588408Y-55618657D01*
X133935515Y-55966371D01*
X134389266Y-56154785D01*
X134880579Y-56155214D01*
X135334657Y-55967592D01*
X135682371Y-55620485D01*
X135870785Y-55166734D01*
X135871214Y-54675421D01*
X135871214Y-56325000D01*
X135123042Y-56325000D01*
X134882734Y-56225215D01*
X134391421Y-56224786D01*
X133937343Y-56412408D01*
X133589629Y-56759515D01*
X133401215Y-57213266D01*
X133400786Y-57704579D01*
X133588408Y-58158657D01*
X133935515Y-58506371D01*
X134389266Y-58694785D01*
X134880579Y-58695214D01*
X135123114Y-58595000D01*
X136649868Y-58595000D01*
X136379868Y-58865000D01*
X135123042Y-58865000D01*
X134882734Y-58765215D01*
X134391421Y-58764786D01*
X133937343Y-58952408D01*
X133589629Y-59299515D01*
X133401215Y-59753266D01*
X133400786Y-60244579D01*
X133588408Y-60698657D01*
X133935515Y-61046371D01*
X134389266Y-61234785D01*
X134880579Y-61235214D01*
X135123114Y-61135000D01*
X136649868Y-61135000D01*
X136379868Y-61405000D01*
X135123042Y-61405000D01*
X134882734Y-61305215D01*
X134391421Y-61304786D01*
X133937343Y-61492408D01*
X133589629Y-61839515D01*
X133401215Y-62293266D01*
X133400786Y-62784579D01*
X133588408Y-63238657D01*
X133935515Y-63586371D01*
X134389266Y-63774785D01*
X134880579Y-63775214D01*
X135123114Y-63675000D01*
X136649868Y-63675000D01*
X136379868Y-63945000D01*
X135123042Y-63945000D01*
X134882734Y-63845215D01*
X134391421Y-63844786D01*
X133937343Y-64032408D01*
X133589629Y-64379515D01*
X133401215Y-64833266D01*
X133400786Y-65324579D01*
X133588408Y-65778657D01*
X133935515Y-66126371D01*
X134389266Y-66314785D01*
X134880579Y-66315214D01*
X135123114Y-66215000D01*
X136649868Y-66215000D01*
X136357434Y-66507434D01*
X136111397Y-66875654D01*
X136025000Y-67310000D01*
X136025000Y-74105000D01*
X135871214Y-74105000D01*
X135871214Y-72455421D01*
X135871214Y-69915421D01*
X135871214Y-67375421D01*
X135683592Y-66921343D01*
X135336485Y-66573629D01*
X134882734Y-66385215D01*
X134391421Y-66384786D01*
X133937343Y-66572408D01*
X133589629Y-66919515D01*
X133401215Y-67373266D01*
X133400786Y-67864579D01*
X133588408Y-68318657D01*
X133935515Y-68666371D01*
X134389266Y-68854785D01*
X134880579Y-68855214D01*
X135334657Y-68667592D01*
X135682371Y-68320485D01*
X135870785Y-67866734D01*
X135871214Y-67375421D01*
X135871214Y-69915421D01*
X135683592Y-69461343D01*
X135336485Y-69113629D01*
X134882734Y-68925215D01*
X134391421Y-68924786D01*
X133937343Y-69112408D01*
X133589629Y-69459515D01*
X133401215Y-69913266D01*
X133400786Y-70404579D01*
X133588408Y-70858657D01*
X133935515Y-71206371D01*
X134389266Y-71394785D01*
X134880579Y-71395214D01*
X135334657Y-71207592D01*
X135682371Y-70860485D01*
X135870785Y-70406734D01*
X135871214Y-69915421D01*
X135871214Y-72455421D01*
X135683592Y-72001343D01*
X135336485Y-71653629D01*
X134882734Y-71465215D01*
X134391421Y-71464786D01*
X133937343Y-71652408D01*
X133589629Y-71999515D01*
X133401215Y-72453266D01*
X133400786Y-72944579D01*
X133588408Y-73398657D01*
X133935515Y-73746371D01*
X134389266Y-73934785D01*
X134880579Y-73935214D01*
X135334657Y-73747592D01*
X135682371Y-73400485D01*
X135870785Y-72946734D01*
X135871214Y-72455421D01*
X135871214Y-74105000D01*
X135123042Y-74105000D01*
X134882734Y-74005215D01*
X134391421Y-74004786D01*
X133937343Y-74192408D01*
X133589629Y-74539515D01*
X133401215Y-74993266D01*
X133400786Y-75484579D01*
X133588408Y-75938657D01*
X133935515Y-76286371D01*
X134389266Y-76474785D01*
X134880579Y-76475214D01*
X135123114Y-76375000D01*
X136649868Y-76375000D01*
X136379868Y-76645000D01*
X135123042Y-76645000D01*
X134882734Y-76545215D01*
X134391421Y-76544786D01*
X133937343Y-76732408D01*
X133589629Y-77079515D01*
X133401215Y-77533266D01*
X133400786Y-78024579D01*
X133588408Y-78478657D01*
X133935515Y-78826371D01*
X134389266Y-79014785D01*
X134880579Y-79015214D01*
X135123114Y-78915000D01*
X136850000Y-78915000D01*
X137284345Y-78828603D01*
X137284346Y-78828603D01*
X137652566Y-78582566D01*
X137796902Y-78438229D01*
X137749162Y-78553201D01*
X137748838Y-78925167D01*
X137890883Y-79268943D01*
X138153673Y-79532192D01*
X138497201Y-79674838D01*
X138869167Y-79675162D01*
X139212943Y-79533117D01*
X139472560Y-79273952D01*
X139472560Y-80470000D01*
X139519537Y-80712123D01*
X139659327Y-80924927D01*
X139814987Y-81030000D01*
X138557005Y-81030000D01*
X138557000Y-81029999D01*
X138218325Y-81097367D01*
X137931210Y-81289210D01*
X137931207Y-81289213D01*
X136031420Y-83189000D01*
X135828822Y-83189000D01*
X135883807Y-83028964D01*
X135871214Y-82825326D01*
X135871214Y-80075421D01*
X135683592Y-79621343D01*
X135336485Y-79273629D01*
X134882734Y-79085215D01*
X134391421Y-79084786D01*
X133937343Y-79272408D01*
X133589629Y-79619515D01*
X133401215Y-80073266D01*
X133400786Y-80564579D01*
X133588408Y-81018657D01*
X133935515Y-81366371D01*
X134389266Y-81554785D01*
X134880579Y-81555214D01*
X135334657Y-81367592D01*
X135682371Y-81020485D01*
X135870785Y-80566734D01*
X135871214Y-80075421D01*
X135871214Y-82825326D01*
X135853482Y-82538587D01*
X135724164Y-82226383D01*
X135498735Y-82176870D01*
X135319130Y-82356475D01*
X135319130Y-81997265D01*
X135269617Y-81771836D01*
X134804964Y-81612193D01*
X134314587Y-81642518D01*
X134002383Y-81771836D01*
X133952870Y-81997265D01*
X134636000Y-82680395D01*
X135319130Y-81997265D01*
X135319130Y-82356475D01*
X134815605Y-82860000D01*
X134829747Y-82874142D01*
X134650142Y-83053747D01*
X134636000Y-83039605D01*
X134621857Y-83053747D01*
X134442252Y-82874142D01*
X134456395Y-82860000D01*
X133773265Y-82176870D01*
X133547836Y-82226383D01*
X133388193Y-82691036D01*
X133418518Y-83181413D01*
X133421660Y-83189000D01*
X132507162Y-83189000D01*
X132507162Y-75252833D01*
X132457000Y-75131431D01*
X132457000Y-61468005D01*
X132457000Y-61468000D01*
X132457001Y-61468000D01*
X132400810Y-61185515D01*
X132389633Y-61129326D01*
X132389633Y-61129325D01*
X132197790Y-60842211D01*
X132197790Y-60842210D01*
X132197786Y-60842207D01*
X131398744Y-60043164D01*
X131349117Y-59923057D01*
X131086327Y-59659808D01*
X130742799Y-59517162D01*
X130370833Y-59516838D01*
X130027057Y-59658883D01*
X129763808Y-59921673D01*
X129621162Y-60265201D01*
X129620838Y-60637167D01*
X129762883Y-60980943D01*
X130025673Y-61244192D01*
X130146986Y-61294565D01*
X130687000Y-61834579D01*
X130687000Y-75131178D01*
X130637162Y-75251201D01*
X130636838Y-75623167D01*
X130778883Y-75966943D01*
X131041673Y-76230192D01*
X131385201Y-76372838D01*
X131757167Y-76373162D01*
X132100943Y-76231117D01*
X132364192Y-75968327D01*
X132506838Y-75624799D01*
X132507162Y-75252833D01*
X132507162Y-83189000D01*
X131684579Y-83189000D01*
X130425000Y-81929420D01*
X130425000Y-62790821D01*
X130474838Y-62670799D01*
X130475162Y-62298833D01*
X130333117Y-61955057D01*
X130070327Y-61691808D01*
X129726799Y-61549162D01*
X129354833Y-61548838D01*
X129011057Y-61690883D01*
X128747808Y-61953673D01*
X128605162Y-62297201D01*
X128604838Y-62669167D01*
X128655000Y-62790568D01*
X128655000Y-82295994D01*
X128654999Y-82296000D01*
X128711189Y-82578484D01*
X128722367Y-82634675D01*
X128914210Y-82921790D01*
X130692207Y-84699786D01*
X130692210Y-84699790D01*
X130692211Y-84699790D01*
X130979325Y-84891633D01*
X130979326Y-84891633D01*
X131035515Y-84902810D01*
X131318000Y-84959001D01*
X131318000Y-84959000D01*
X131318005Y-84959000D01*
X133481881Y-84959000D01*
X133401215Y-85153266D01*
X133400786Y-85644579D01*
X133435668Y-85729000D01*
X131430579Y-85729000D01*
X128393000Y-82691420D01*
X128393000Y-65330821D01*
X128442838Y-65210799D01*
X128443162Y-64838833D01*
X128301117Y-64495057D01*
X128038327Y-64231808D01*
X127694799Y-64089162D01*
X127322833Y-64088838D01*
X126979057Y-64230883D01*
X126715808Y-64493673D01*
X126573162Y-64837201D01*
X126572838Y-65209167D01*
X126623000Y-65330568D01*
X126623000Y-83057994D01*
X126622999Y-83058000D01*
X126679189Y-83340484D01*
X126690367Y-83396675D01*
X126882210Y-83683790D01*
X130438207Y-87239786D01*
X130438210Y-87239790D01*
X130725325Y-87431633D01*
X131064000Y-87499000D01*
X133481881Y-87499000D01*
X133401215Y-87693266D01*
X133400786Y-88184579D01*
X133588408Y-88638657D01*
X133935515Y-88986371D01*
X134389266Y-89174785D01*
X134880579Y-89175214D01*
X135334657Y-88987592D01*
X135682371Y-88640485D01*
X135870785Y-88186734D01*
X135871214Y-87695421D01*
X135790054Y-87499000D01*
X136651994Y-87499000D01*
X136652000Y-87499001D01*
X136652000Y-87499000D01*
X136934484Y-87442810D01*
X136990674Y-87431633D01*
X136990675Y-87431633D01*
X137277790Y-87239790D01*
X139177579Y-85340000D01*
X139816279Y-85340000D01*
X139665073Y-85439327D01*
X139522623Y-85650360D01*
X139472560Y-85900000D01*
X139472560Y-87900000D01*
X139519537Y-88142123D01*
X139659327Y-88354927D01*
X139870360Y-88497377D01*
X140120000Y-88547440D01*
X141795146Y-88547440D01*
X141767560Y-88685000D01*
X141767560Y-89252560D01*
X140120000Y-89252560D01*
X139877877Y-89299537D01*
X139693942Y-89420362D01*
X139018744Y-88745164D01*
X138969117Y-88625057D01*
X138706327Y-88361808D01*
X138362799Y-88219162D01*
X137990833Y-88218838D01*
X137647057Y-88360883D01*
X137383808Y-88623673D01*
X137241162Y-88967201D01*
X137240838Y-89339167D01*
X137382883Y-89682943D01*
X137645673Y-89946192D01*
X137766985Y-89996565D01*
X139296207Y-91525786D01*
X139296210Y-91525790D01*
X139296211Y-91525790D01*
X139472560Y-91643622D01*
X139472560Y-91900000D01*
X139519537Y-92142123D01*
X139659327Y-92354927D01*
X139870360Y-92497377D01*
X140120000Y-92547440D01*
X141767560Y-92547440D01*
X141767560Y-92925000D01*
X141814537Y-93167123D01*
X141954327Y-93379927D01*
X142165360Y-93522377D01*
X142415000Y-93572440D01*
X144415000Y-93572440D01*
X144657123Y-93525463D01*
X144869927Y-93385673D01*
X145012377Y-93174640D01*
X145062440Y-92925000D01*
X145062440Y-91225000D01*
X145015463Y-90982877D01*
X144898007Y-90804073D01*
X145012377Y-90634640D01*
X145062440Y-90385000D01*
X145062440Y-88685000D01*
X145015463Y-88442877D01*
X144881361Y-88238733D01*
X145012377Y-88044640D01*
X145062440Y-87795000D01*
X145062440Y-86195000D01*
X145015463Y-85952877D01*
X144881361Y-85748733D01*
X145012377Y-85554640D01*
X145062440Y-85305000D01*
X145062440Y-83605000D01*
X145015463Y-83362877D01*
X144898007Y-83184073D01*
X145012377Y-83014640D01*
X145062440Y-82765000D01*
X145062440Y-81065000D01*
X145015463Y-80822877D01*
X144881361Y-80618733D01*
X145012377Y-80424640D01*
X145062440Y-80175000D01*
X145062440Y-78575000D01*
X145015463Y-78332877D01*
X144881361Y-78128733D01*
X145012377Y-77934640D01*
X145062440Y-77685000D01*
X145062440Y-75985000D01*
X145015463Y-75742877D01*
X144898007Y-75564073D01*
X145012377Y-75394640D01*
X145062440Y-75145000D01*
X145062440Y-73445000D01*
X145015463Y-73202877D01*
X144875673Y-72990073D01*
X144664640Y-72847623D01*
X144415000Y-72797560D01*
X142415000Y-72797560D01*
X142172877Y-72844537D01*
X141960073Y-72984327D01*
X141817623Y-73195360D01*
X141767560Y-73445000D01*
X141767560Y-73822560D01*
X140200000Y-73822560D01*
X140200000Y-68415132D01*
X141122632Y-67492500D01*
X142160202Y-67492500D01*
X142271827Y-67662427D01*
X142482860Y-67804877D01*
X142732500Y-67854940D01*
X144732500Y-67854940D01*
X144974623Y-67807963D01*
X145187427Y-67668173D01*
X145329877Y-67457140D01*
X145379940Y-67207500D01*
X145379940Y-98375000D01*
X141217690Y-98375000D01*
X141720776Y-97872792D01*
X142084645Y-96996499D01*
X142085473Y-96047664D01*
X141723134Y-95170737D01*
X141052792Y-94499224D01*
X140176499Y-94135355D01*
X139227664Y-94134527D01*
X138350737Y-94496866D01*
X137679224Y-95167208D01*
X137315355Y-96043501D01*
X137314527Y-96992336D01*
X137676866Y-97869263D01*
X138181721Y-98375000D01*
X135883440Y-98375000D01*
X135883440Y-96160000D01*
X135883440Y-94960000D01*
X135871214Y-94896986D01*
X135871214Y-92775421D01*
X135871214Y-90235421D01*
X135683592Y-89781343D01*
X135336485Y-89433629D01*
X134882734Y-89245215D01*
X134391421Y-89244786D01*
X133937343Y-89432408D01*
X133589629Y-89779515D01*
X133401215Y-90233266D01*
X133400786Y-90724579D01*
X133588408Y-91178657D01*
X133935515Y-91526371D01*
X134389266Y-91714785D01*
X134880579Y-91715214D01*
X135334657Y-91527592D01*
X135682371Y-91180485D01*
X135870785Y-90726734D01*
X135871214Y-90235421D01*
X135871214Y-92775421D01*
X135683592Y-92321343D01*
X135336485Y-91973629D01*
X134882734Y-91785215D01*
X134391421Y-91784786D01*
X133937343Y-91972408D01*
X133589629Y-92319515D01*
X133401215Y-92773266D01*
X133400786Y-93264579D01*
X133588408Y-93718657D01*
X133935515Y-94066371D01*
X134389266Y-94254785D01*
X134880579Y-94255214D01*
X135334657Y-94067592D01*
X135682371Y-93720485D01*
X135870785Y-93266734D01*
X135871214Y-92775421D01*
X135871214Y-94896986D01*
X135836463Y-94717877D01*
X135696673Y-94505073D01*
X135485640Y-94362623D01*
X135236000Y-94312560D01*
X134036000Y-94312560D01*
X133793877Y-94359537D01*
X133581073Y-94499327D01*
X133438623Y-94710360D01*
X133388560Y-94960000D01*
X133388560Y-96160000D01*
X133435537Y-96402123D01*
X133575327Y-96614927D01*
X133786360Y-96757377D01*
X134036000Y-96807440D01*
X135236000Y-96807440D01*
X135478123Y-96760463D01*
X135690927Y-96620673D01*
X135833377Y-96409640D01*
X135883440Y-96160000D01*
X135883440Y-98375000D01*
X126007870Y-98375000D01*
X126007870Y-72829420D01*
X126007870Y-69329300D01*
X126007870Y-67830700D01*
X126007870Y-64330580D01*
X125960893Y-64088457D01*
X125821103Y-63875653D01*
X125610070Y-63733203D01*
X125595000Y-63730180D01*
X125595000Y-63271348D01*
X125602553Y-63269883D01*
X125815357Y-63130093D01*
X125957807Y-62919060D01*
X126007870Y-62669420D01*
X126007870Y-59169300D01*
X125960893Y-58927177D01*
X125821103Y-58714373D01*
X125610070Y-58571923D01*
X125360430Y-58521860D01*
X123559570Y-58521860D01*
X123317447Y-58568837D01*
X123104643Y-58708627D01*
X122962193Y-58919660D01*
X122912130Y-59169300D01*
X122912130Y-62669420D01*
X122959107Y-62911543D01*
X123098897Y-63124347D01*
X123309930Y-63266797D01*
X123325000Y-63269819D01*
X123325000Y-63728651D01*
X123317447Y-63730117D01*
X123104643Y-63869907D01*
X122962193Y-64080940D01*
X122912130Y-64330580D01*
X122912130Y-67830700D01*
X122959107Y-68072823D01*
X123098897Y-68285627D01*
X123309930Y-68428077D01*
X123559570Y-68478140D01*
X125360430Y-68478140D01*
X125602553Y-68431163D01*
X125815357Y-68291373D01*
X125957807Y-68080340D01*
X126007870Y-67830700D01*
X126007870Y-69329300D01*
X125960893Y-69087177D01*
X125821103Y-68874373D01*
X125610070Y-68731923D01*
X125360430Y-68681860D01*
X123559570Y-68681860D01*
X123317447Y-68728837D01*
X123104643Y-68868627D01*
X122962193Y-69079660D01*
X122912130Y-69329300D01*
X122912130Y-72829420D01*
X122959107Y-73071543D01*
X123098897Y-73284347D01*
X123309930Y-73426797D01*
X123325000Y-73429819D01*
X123325000Y-88429868D01*
X122409868Y-89345000D01*
X120391807Y-89345000D01*
X120391807Y-88108964D01*
X120379214Y-87905326D01*
X120379214Y-85155421D01*
X120379214Y-82615421D01*
X120191592Y-82161343D01*
X119844485Y-81813629D01*
X119390734Y-81625215D01*
X118899421Y-81624786D01*
X118844579Y-81647446D01*
X118648706Y-81451574D01*
X118897266Y-81554785D01*
X119388579Y-81555214D01*
X119842657Y-81367592D01*
X120190371Y-81020485D01*
X120378785Y-80566734D01*
X120379214Y-80075421D01*
X120379214Y-77535421D01*
X120379214Y-74995421D01*
X120379214Y-72455421D01*
X120379214Y-69915421D01*
X120379214Y-67375421D01*
X120379214Y-64835421D01*
X120379214Y-62295421D01*
X120379214Y-59755421D01*
X120379214Y-57215421D01*
X120379214Y-54675421D01*
X120191592Y-54221343D01*
X119844485Y-53873629D01*
X119390734Y-53685215D01*
X118899421Y-53684786D01*
X118445343Y-53872408D01*
X118283162Y-54034305D01*
X118283162Y-50741833D01*
X118233000Y-50620431D01*
X118233000Y-49530000D01*
X118165633Y-49191325D01*
X117973790Y-48904210D01*
X117973786Y-48904207D01*
X116449790Y-47380210D01*
X116162675Y-47188367D01*
X116106484Y-47177189D01*
X115824000Y-47120999D01*
X115823994Y-47121000D01*
X115146649Y-47121000D01*
X115106463Y-46913877D01*
X114966673Y-46701073D01*
X114755640Y-46558623D01*
X114506000Y-46508560D01*
X112506000Y-46508560D01*
X112263877Y-46555537D01*
X112051073Y-46695327D01*
X111908623Y-46906360D01*
X111858560Y-47156000D01*
X111858560Y-48856000D01*
X111905537Y-49098123D01*
X112045327Y-49310927D01*
X112256360Y-49453377D01*
X112506000Y-49503440D01*
X114506000Y-49503440D01*
X114748123Y-49456463D01*
X114960927Y-49316673D01*
X115103377Y-49105640D01*
X115146421Y-48891000D01*
X115457420Y-48891000D01*
X116463000Y-49896579D01*
X116463000Y-50066466D01*
X116247325Y-50109367D01*
X115960210Y-50301210D01*
X115960207Y-50301213D01*
X115579210Y-50682210D01*
X115387367Y-50969325D01*
X115376189Y-51025515D01*
X115319999Y-51308000D01*
X115320000Y-51308005D01*
X115320000Y-56783420D01*
X112912210Y-59191210D01*
X112720367Y-59478325D01*
X112709189Y-59534515D01*
X112652999Y-59817000D01*
X112653000Y-59817005D01*
X112653000Y-60875350D01*
X112445877Y-60915537D01*
X112441162Y-60918634D01*
X112441162Y-59758833D01*
X112299117Y-59415057D01*
X112036327Y-59151808D01*
X111692799Y-59009162D01*
X111320833Y-59008838D01*
X110977057Y-59150883D01*
X110924663Y-59203185D01*
X110893141Y-59224711D01*
X110753210Y-59318210D01*
X110750679Y-59321996D01*
X110746922Y-59324563D01*
X109747050Y-60344840D01*
X109747050Y-59952890D01*
X109588300Y-59794140D01*
X108839000Y-59794140D01*
X108839000Y-61043820D01*
X108951651Y-61156471D01*
X108585000Y-61530604D01*
X108585000Y-61043820D01*
X108585000Y-59794140D01*
X107835700Y-59794140D01*
X107676950Y-59952890D01*
X107676950Y-60441261D01*
X107676950Y-60693880D01*
X107773623Y-60927269D01*
X107952252Y-61105897D01*
X108185641Y-61202570D01*
X108426250Y-61202570D01*
X108585000Y-61043820D01*
X108585000Y-61530604D01*
X104739768Y-65454311D01*
X104627057Y-65500883D01*
X104363808Y-65763673D01*
X104221162Y-66107201D01*
X104220838Y-66479167D01*
X104362883Y-66822943D01*
X104625673Y-67086192D01*
X104969201Y-67228838D01*
X105341167Y-67229162D01*
X105684943Y-67087117D01*
X105948192Y-66824327D01*
X106001707Y-66695447D01*
X111708812Y-60871870D01*
X112034943Y-60737117D01*
X112298192Y-60474327D01*
X112440838Y-60130799D01*
X112441162Y-59758833D01*
X112441162Y-60918634D01*
X112233073Y-61055327D01*
X112090623Y-61266360D01*
X112040560Y-61516000D01*
X112040560Y-63516000D01*
X112087537Y-63758123D01*
X112227327Y-63970927D01*
X112438360Y-64113377D01*
X112688000Y-64163440D01*
X114388000Y-64163440D01*
X114630123Y-64116463D01*
X114764901Y-64027927D01*
X114791301Y-64054327D01*
X115024690Y-64151000D01*
X115277309Y-64151000D01*
X115665250Y-64151000D01*
X115824000Y-63992250D01*
X115824000Y-62643000D01*
X115804000Y-62643000D01*
X115804000Y-62389000D01*
X115824000Y-62389000D01*
X115824000Y-61039750D01*
X115665250Y-60881000D01*
X115277309Y-60881000D01*
X115024690Y-60881000D01*
X114791301Y-60977673D01*
X114764630Y-61004343D01*
X114637640Y-60918623D01*
X114423000Y-60875578D01*
X114423000Y-60183579D01*
X116830786Y-57775792D01*
X116830790Y-57775790D01*
X116830790Y-57775789D01*
X116958975Y-57583946D01*
X117022633Y-57488675D01*
X117022634Y-57488674D01*
X117090000Y-57150000D01*
X117090001Y-57150000D01*
X117090000Y-57149994D01*
X117090000Y-51832272D01*
X117161201Y-51861838D01*
X117533167Y-51862162D01*
X117876943Y-51720117D01*
X118140192Y-51457327D01*
X118282838Y-51113799D01*
X118283162Y-50741833D01*
X118283162Y-54034305D01*
X118097629Y-54219515D01*
X117909215Y-54673266D01*
X117908786Y-55164579D01*
X118096408Y-55618657D01*
X118443515Y-55966371D01*
X118897266Y-56154785D01*
X119388579Y-56155214D01*
X119842657Y-55967592D01*
X120190371Y-55620485D01*
X120378785Y-55166734D01*
X120379214Y-54675421D01*
X120379214Y-57215421D01*
X120191592Y-56761343D01*
X119844485Y-56413629D01*
X119390734Y-56225215D01*
X118899421Y-56224786D01*
X118445343Y-56412408D01*
X118097629Y-56759515D01*
X117909215Y-57213266D01*
X117908786Y-57704579D01*
X118096408Y-58158657D01*
X118443515Y-58506371D01*
X118897266Y-58694785D01*
X119388579Y-58695214D01*
X119842657Y-58507592D01*
X120190371Y-58160485D01*
X120378785Y-57706734D01*
X120379214Y-57215421D01*
X120379214Y-59755421D01*
X120191592Y-59301343D01*
X119844485Y-58953629D01*
X119390734Y-58765215D01*
X118899421Y-58764786D01*
X118445343Y-58952408D01*
X118097629Y-59299515D01*
X117909215Y-59753266D01*
X117908786Y-60244579D01*
X118096408Y-60698657D01*
X118443515Y-61046371D01*
X118897266Y-61234785D01*
X119388579Y-61235214D01*
X119842657Y-61047592D01*
X120190371Y-60700485D01*
X120378785Y-60246734D01*
X120379214Y-59755421D01*
X120379214Y-62295421D01*
X120191592Y-61841343D01*
X119844485Y-61493629D01*
X119390734Y-61305215D01*
X118899421Y-61304786D01*
X118445343Y-61492408D01*
X118097629Y-61839515D01*
X117909215Y-62293266D01*
X117908786Y-62784579D01*
X118096408Y-63238657D01*
X118443515Y-63586371D01*
X118897266Y-63774785D01*
X119388579Y-63775214D01*
X119842657Y-63587592D01*
X120190371Y-63240485D01*
X120378785Y-62786734D01*
X120379214Y-62295421D01*
X120379214Y-64835421D01*
X120191592Y-64381343D01*
X119844485Y-64033629D01*
X119390734Y-63845215D01*
X118899421Y-63844786D01*
X118445343Y-64032408D01*
X118097629Y-64379515D01*
X117909215Y-64833266D01*
X117908786Y-65324579D01*
X118096408Y-65778657D01*
X118443515Y-66126371D01*
X118897266Y-66314785D01*
X119388579Y-66315214D01*
X119842657Y-66127592D01*
X120190371Y-65780485D01*
X120378785Y-65326734D01*
X120379214Y-64835421D01*
X120379214Y-67375421D01*
X120191592Y-66921343D01*
X119844485Y-66573629D01*
X119390734Y-66385215D01*
X118899421Y-66384786D01*
X118445343Y-66572408D01*
X118097629Y-66919515D01*
X117909215Y-67373266D01*
X117908786Y-67864579D01*
X118096408Y-68318657D01*
X118443515Y-68666371D01*
X118897266Y-68854785D01*
X119388579Y-68855214D01*
X119842657Y-68667592D01*
X120190371Y-68320485D01*
X120378785Y-67866734D01*
X120379214Y-67375421D01*
X120379214Y-69915421D01*
X120191592Y-69461343D01*
X119844485Y-69113629D01*
X119390734Y-68925215D01*
X118899421Y-68924786D01*
X118445343Y-69112408D01*
X118097629Y-69459515D01*
X117909215Y-69913266D01*
X117908786Y-70404579D01*
X118096408Y-70858657D01*
X118443515Y-71206371D01*
X118897266Y-71394785D01*
X119388579Y-71395214D01*
X119842657Y-71207592D01*
X120190371Y-70860485D01*
X120378785Y-70406734D01*
X120379214Y-69915421D01*
X120379214Y-72455421D01*
X120191592Y-72001343D01*
X119844485Y-71653629D01*
X119390734Y-71465215D01*
X118899421Y-71464786D01*
X118445343Y-71652408D01*
X118097629Y-71999515D01*
X117909215Y-72453266D01*
X117908786Y-72944579D01*
X118096408Y-73398657D01*
X118443515Y-73746371D01*
X118897266Y-73934785D01*
X119388579Y-73935214D01*
X119842657Y-73747592D01*
X120190371Y-73400485D01*
X120378785Y-72946734D01*
X120379214Y-72455421D01*
X120379214Y-74995421D01*
X120191592Y-74541343D01*
X119844485Y-74193629D01*
X119390734Y-74005215D01*
X118899421Y-74004786D01*
X118445343Y-74192408D01*
X118097629Y-74539515D01*
X117909215Y-74993266D01*
X117908786Y-75484579D01*
X118096408Y-75938657D01*
X118443515Y-76286371D01*
X118897266Y-76474785D01*
X119388579Y-76475214D01*
X119842657Y-76287592D01*
X120190371Y-75940485D01*
X120378785Y-75486734D01*
X120379214Y-74995421D01*
X120379214Y-77535421D01*
X120191592Y-77081343D01*
X119844485Y-76733629D01*
X119390734Y-76545215D01*
X118899421Y-76544786D01*
X118445343Y-76732408D01*
X118097629Y-77079515D01*
X117909215Y-77533266D01*
X117908786Y-78024579D01*
X118096408Y-78478657D01*
X118443515Y-78826371D01*
X118897266Y-79014785D01*
X119388579Y-79015214D01*
X119842657Y-78827592D01*
X120190371Y-78480485D01*
X120378785Y-78026734D01*
X120379214Y-77535421D01*
X120379214Y-80075421D01*
X120191592Y-79621343D01*
X119844485Y-79273629D01*
X119390734Y-79085215D01*
X118899421Y-79084786D01*
X118445343Y-79272408D01*
X118097629Y-79619515D01*
X117909215Y-80073266D01*
X117908786Y-80564579D01*
X118012346Y-80815214D01*
X117271440Y-80074307D01*
X117271440Y-79232000D01*
X117259000Y-79167883D01*
X117259000Y-77358309D01*
X117259000Y-76517750D01*
X117259000Y-75946250D01*
X117259000Y-75105691D01*
X117162327Y-74872302D01*
X116983699Y-74693673D01*
X116750310Y-74597000D01*
X116497691Y-74597000D01*
X116109750Y-74597000D01*
X115951000Y-74755750D01*
X115951000Y-76105000D01*
X117100250Y-76105000D01*
X117259000Y-75946250D01*
X117259000Y-76517750D01*
X117100250Y-76359000D01*
X115951000Y-76359000D01*
X115951000Y-77708250D01*
X116109750Y-77867000D01*
X116497691Y-77867000D01*
X116750310Y-77867000D01*
X116983699Y-77770327D01*
X117162327Y-77591698D01*
X117259000Y-77358309D01*
X117259000Y-79167883D01*
X117224463Y-78989877D01*
X117084673Y-78777073D01*
X116873640Y-78634623D01*
X116624000Y-78584560D01*
X115697000Y-78584560D01*
X115697000Y-77708250D01*
X115697000Y-76359000D01*
X115697000Y-76105000D01*
X115697000Y-74755750D01*
X115538250Y-74597000D01*
X115150309Y-74597000D01*
X114897690Y-74597000D01*
X114664301Y-74693673D01*
X114485673Y-74872302D01*
X114389000Y-75105691D01*
X114389000Y-75946250D01*
X114547750Y-76105000D01*
X115697000Y-76105000D01*
X115697000Y-76359000D01*
X114547750Y-76359000D01*
X114389000Y-76517750D01*
X114389000Y-77358309D01*
X114485673Y-77591698D01*
X114664301Y-77770327D01*
X114897690Y-77867000D01*
X115150309Y-77867000D01*
X115538250Y-77867000D01*
X115697000Y-77708250D01*
X115697000Y-78584560D01*
X115024000Y-78584560D01*
X114781877Y-78631537D01*
X114569073Y-78771327D01*
X114426623Y-78982360D01*
X114422684Y-79002000D01*
X112141767Y-79002000D01*
X112141767Y-77801966D01*
X112113805Y-77251462D01*
X111956931Y-76872735D01*
X111715930Y-76804675D01*
X110923605Y-77597000D01*
X111715930Y-78389325D01*
X111956931Y-78321265D01*
X112141767Y-77801966D01*
X112141767Y-79002000D01*
X111568763Y-79002000D01*
X111529887Y-78963056D01*
X111314503Y-78873621D01*
X111468265Y-78809931D01*
X111536325Y-78568930D01*
X110744000Y-77776605D01*
X110729857Y-77790747D01*
X110550252Y-77611142D01*
X110564395Y-77597000D01*
X110550252Y-77582857D01*
X110729857Y-77403252D01*
X110744000Y-77417395D01*
X111536325Y-76625070D01*
X111468265Y-76384069D01*
X110948966Y-76199233D01*
X110398462Y-76227195D01*
X110101000Y-76350407D01*
X110101000Y-72379579D01*
X114163786Y-68316792D01*
X114163789Y-68316790D01*
X114163790Y-68316790D01*
X114266254Y-68163440D01*
X114388000Y-68163440D01*
X114630123Y-68116463D01*
X114769903Y-68024641D01*
X114901360Y-68113377D01*
X115151000Y-68163440D01*
X116751000Y-68163440D01*
X116993123Y-68116463D01*
X117205927Y-67976673D01*
X117348377Y-67765640D01*
X117398440Y-67516000D01*
X117398440Y-65516000D01*
X117386000Y-65451883D01*
X117386000Y-63642309D01*
X117386000Y-62801750D01*
X117386000Y-62230250D01*
X117386000Y-61389691D01*
X117289327Y-61156302D01*
X117110699Y-60977673D01*
X116877310Y-60881000D01*
X116624691Y-60881000D01*
X116236750Y-60881000D01*
X116078000Y-61039750D01*
X116078000Y-62389000D01*
X117227250Y-62389000D01*
X117386000Y-62230250D01*
X117386000Y-62801750D01*
X117227250Y-62643000D01*
X116078000Y-62643000D01*
X116078000Y-63992250D01*
X116236750Y-64151000D01*
X116624691Y-64151000D01*
X116877310Y-64151000D01*
X117110699Y-64054327D01*
X117289327Y-63875698D01*
X117386000Y-63642309D01*
X117386000Y-65451883D01*
X117351463Y-65273877D01*
X117211673Y-65061073D01*
X117000640Y-64918623D01*
X116751000Y-64868560D01*
X115151000Y-64868560D01*
X114908877Y-64915537D01*
X114769096Y-65007358D01*
X114637640Y-64918623D01*
X114388000Y-64868560D01*
X112688000Y-64868560D01*
X112445877Y-64915537D01*
X112233073Y-65055327D01*
X112090623Y-65266360D01*
X112040560Y-65516000D01*
X112040560Y-67516000D01*
X112087537Y-67758123D01*
X112139775Y-67837645D01*
X108965999Y-71011420D01*
X106670790Y-68716210D01*
X106383675Y-68524367D01*
X106327484Y-68513189D01*
X106045000Y-68456999D01*
X106044994Y-68457000D01*
X100950579Y-68457000D01*
X100709380Y-68215800D01*
X100778123Y-68202463D01*
X100990927Y-68062673D01*
X101133377Y-67851640D01*
X101183440Y-67602000D01*
X101183440Y-66002000D01*
X101136463Y-65759877D01*
X101002361Y-65555733D01*
X101133377Y-65361640D01*
X101183440Y-65112000D01*
X101183440Y-63412000D01*
X101136463Y-63169877D01*
X101051109Y-63039942D01*
X101069877Y-63012140D01*
X101112921Y-62797500D01*
X103299254Y-62797500D01*
X103572201Y-62910838D01*
X103944167Y-62911162D01*
X104287943Y-62769117D01*
X104551192Y-62506327D01*
X104693838Y-62162799D01*
X104694162Y-61790833D01*
X104552117Y-61447057D01*
X104289327Y-61183808D01*
X103945799Y-61041162D01*
X103763388Y-61041003D01*
X103695500Y-61027499D01*
X103695494Y-61027500D01*
X101113149Y-61027500D01*
X101081818Y-60866020D01*
X101133377Y-60789640D01*
X101176421Y-60575000D01*
X104341178Y-60575000D01*
X104461201Y-60624838D01*
X104833167Y-60625162D01*
X105176943Y-60483117D01*
X105440192Y-60220327D01*
X105582838Y-59876799D01*
X105583162Y-59504833D01*
X105441117Y-59161057D01*
X105178327Y-58897808D01*
X104834799Y-58755162D01*
X104462833Y-58754838D01*
X104341431Y-58805000D01*
X101176649Y-58805000D01*
X101136463Y-58597877D01*
X101103568Y-58547800D01*
X101133377Y-58503640D01*
X101176421Y-58289000D01*
X104647994Y-58289000D01*
X104648000Y-58289001D01*
X104648000Y-58289000D01*
X104930484Y-58232810D01*
X104986674Y-58221633D01*
X104986675Y-58221633D01*
X105273790Y-58029790D01*
X105753719Y-57549860D01*
X106714510Y-57549860D01*
X106714510Y-57565290D01*
X106761487Y-57807413D01*
X106901277Y-58020217D01*
X107112310Y-58162667D01*
X107361950Y-58212730D01*
X107990041Y-58212730D01*
X107952252Y-58228383D01*
X107773623Y-58407011D01*
X107676950Y-58640400D01*
X107676950Y-58893019D01*
X107676950Y-59381390D01*
X107835700Y-59540140D01*
X108585000Y-59540140D01*
X108585000Y-58290460D01*
X108438043Y-58143503D01*
X108616977Y-58025963D01*
X108712293Y-57884756D01*
X108801277Y-58020217D01*
X108985135Y-58144324D01*
X108839000Y-58290460D01*
X108839000Y-59540140D01*
X109588300Y-59540140D01*
X109747050Y-59381390D01*
X109747050Y-58893019D01*
X109747050Y-58640400D01*
X109650377Y-58407011D01*
X109471748Y-58228383D01*
X109433958Y-58212730D01*
X110062050Y-58212730D01*
X110304173Y-58165753D01*
X110516977Y-58025963D01*
X110659427Y-57814930D01*
X110709490Y-57565290D01*
X110709490Y-57549860D01*
X112499134Y-57549860D01*
X112499140Y-57549861D01*
X112499140Y-57549860D01*
X112781624Y-57493670D01*
X112837814Y-57482493D01*
X112837815Y-57482493D01*
X113124930Y-57290650D01*
X114068286Y-56347292D01*
X114068290Y-56347290D01*
X114068290Y-56347289D01*
X114196475Y-56155446D01*
X114260133Y-56060175D01*
X114260134Y-56060174D01*
X114327500Y-55721500D01*
X114327501Y-55721500D01*
X114327500Y-55721494D01*
X114327500Y-55154940D01*
X114442500Y-55154940D01*
X114684623Y-55107963D01*
X114897427Y-54968173D01*
X115039877Y-54757140D01*
X115089940Y-54507500D01*
X115089940Y-52807500D01*
X115042963Y-52565377D01*
X114925507Y-52386573D01*
X115039877Y-52217140D01*
X115089940Y-51967500D01*
X115089940Y-50267500D01*
X115042963Y-50025377D01*
X114903173Y-49812573D01*
X114692140Y-49670123D01*
X114442500Y-49620060D01*
X112442500Y-49620060D01*
X112200377Y-49667037D01*
X111987573Y-49806827D01*
X111845123Y-50017860D01*
X111795060Y-50267500D01*
X111795060Y-51967500D01*
X111842037Y-52209623D01*
X111959492Y-52388426D01*
X111845123Y-52557860D01*
X111795060Y-52807500D01*
X111795060Y-54507500D01*
X111842037Y-54749623D01*
X111981827Y-54962427D01*
X112192860Y-55104877D01*
X112442500Y-55154940D01*
X112557500Y-55154940D01*
X112557500Y-55354920D01*
X112132560Y-55779860D01*
X110709490Y-55779860D01*
X110709490Y-55764430D01*
X110662513Y-55522307D01*
X110522723Y-55309503D01*
X110311690Y-55167053D01*
X110251288Y-55154940D01*
X110442500Y-55154940D01*
X110684623Y-55107963D01*
X110897427Y-54968173D01*
X111039877Y-54757140D01*
X111089940Y-54507500D01*
X111089940Y-52807500D01*
X111042963Y-52565377D01*
X110925507Y-52386573D01*
X111039877Y-52217140D01*
X111089940Y-51967500D01*
X111089940Y-50267500D01*
X111042963Y-50025377D01*
X110903173Y-49812573D01*
X110692140Y-49670123D01*
X110442500Y-49620060D01*
X108442500Y-49620060D01*
X108200377Y-49667037D01*
X107987573Y-49806827D01*
X107845123Y-50017860D01*
X107802078Y-50232500D01*
X107568239Y-50232500D01*
X107451529Y-50057830D01*
X107136748Y-49847500D01*
X107451529Y-49637170D01*
X107723929Y-49229493D01*
X107963252Y-49185983D01*
X108045327Y-49310927D01*
X108256360Y-49453377D01*
X108506000Y-49503440D01*
X110506000Y-49503440D01*
X110748123Y-49456463D01*
X110960927Y-49316673D01*
X111103377Y-49105640D01*
X111153440Y-48856000D01*
X111153440Y-47156000D01*
X111106463Y-46913877D01*
X110966673Y-46701073D01*
X110755640Y-46558623D01*
X110506000Y-46508560D01*
X108506000Y-46508560D01*
X108263877Y-46555537D01*
X108051073Y-46695327D01*
X107908623Y-46906360D01*
X107858560Y-47156000D01*
X107858560Y-47406003D01*
X107407026Y-47488094D01*
X106965348Y-47192974D01*
X106391859Y-47078900D01*
X106333141Y-47078900D01*
X105759652Y-47192974D01*
X105288143Y-47508026D01*
X105224427Y-47354201D01*
X105045798Y-47175573D01*
X104812409Y-47078900D01*
X104108250Y-47078900D01*
X103949500Y-47237650D01*
X103949500Y-48450500D01*
X103969500Y-48450500D01*
X103969500Y-48704500D01*
X103949500Y-48704500D01*
X103949500Y-48724500D01*
X103695500Y-48724500D01*
X103695500Y-48704500D01*
X103695500Y-48450500D01*
X103695500Y-47237650D01*
X103536750Y-47078900D01*
X102832591Y-47078900D01*
X102599202Y-47175573D01*
X102420573Y-47354201D01*
X102323900Y-47587590D01*
X102323900Y-47840209D01*
X102323900Y-48291750D01*
X102482650Y-48450500D01*
X103695500Y-48450500D01*
X103695500Y-48704500D01*
X102482650Y-48704500D01*
X102323900Y-48863250D01*
X102323900Y-49314791D01*
X102323900Y-49567410D01*
X102420573Y-49800799D01*
X102599202Y-49979427D01*
X102754523Y-50043763D01*
X102733471Y-50057830D01*
X102616760Y-50232500D01*
X102053328Y-50232500D01*
X102025463Y-50088877D01*
X101885673Y-49876073D01*
X101674640Y-49733623D01*
X101425000Y-49683560D01*
X99425000Y-49683560D01*
X99182877Y-49730537D01*
X98970073Y-49870327D01*
X98827623Y-50081360D01*
X98777560Y-50331000D01*
X98777560Y-52031000D01*
X98824537Y-52273123D01*
X98964327Y-52485927D01*
X99175360Y-52628377D01*
X99425000Y-52678440D01*
X101425000Y-52678440D01*
X101667123Y-52631463D01*
X101879927Y-52491673D01*
X102022377Y-52280640D01*
X102072440Y-52031000D01*
X102072440Y-52002500D01*
X102616760Y-52002500D01*
X102733471Y-52177170D01*
X103056728Y-52393163D01*
X102934010Y-52450679D01*
X102539812Y-52882553D01*
X102367542Y-53298474D01*
X102488683Y-53530500D01*
X103695500Y-53530500D01*
X103695500Y-53510500D01*
X103949500Y-53510500D01*
X103949500Y-53530500D01*
X103969500Y-53530500D01*
X103969500Y-53784500D01*
X103949500Y-53784500D01*
X103949500Y-54991969D01*
X104181527Y-55112468D01*
X104710990Y-54864321D01*
X105092507Y-54446339D01*
X105273471Y-54717170D01*
X105759652Y-55042026D01*
X106333141Y-55156100D01*
X106391859Y-55156100D01*
X106965348Y-55042026D01*
X107451529Y-54717170D01*
X107568239Y-54542500D01*
X107801850Y-54542500D01*
X107842037Y-54749623D01*
X107981827Y-54962427D01*
X108192860Y-55104877D01*
X108442500Y-55154940D01*
X109066352Y-55154940D01*
X109019827Y-55163967D01*
X108807023Y-55303757D01*
X108711706Y-55444963D01*
X108622723Y-55309503D01*
X108411690Y-55167053D01*
X108162050Y-55116990D01*
X107361950Y-55116990D01*
X107119827Y-55163967D01*
X106907023Y-55303757D01*
X106764573Y-55514790D01*
X106714510Y-55764430D01*
X106714510Y-55779860D01*
X105387145Y-55779860D01*
X105387140Y-55779859D01*
X105104655Y-55836049D01*
X105048465Y-55847227D01*
X104761350Y-56039070D01*
X104761347Y-56039073D01*
X104281420Y-56519000D01*
X103695500Y-56519000D01*
X103695500Y-54991969D01*
X103695500Y-53784500D01*
X102488683Y-53784500D01*
X102367542Y-54016526D01*
X102539812Y-54432447D01*
X102934010Y-54864321D01*
X103463473Y-55112468D01*
X103695500Y-54991969D01*
X103695500Y-56519000D01*
X101176649Y-56519000D01*
X101136463Y-56311877D01*
X100996673Y-56099073D01*
X100785640Y-55956623D01*
X100536000Y-55906560D01*
X99106162Y-55906560D01*
X99106162Y-54297833D01*
X98964117Y-53954057D01*
X98701327Y-53690808D01*
X98580012Y-53640433D01*
X97586655Y-52647075D01*
X97667123Y-52631463D01*
X97879927Y-52491673D01*
X98022377Y-52280640D01*
X98072440Y-52031000D01*
X98072440Y-50331000D01*
X98025463Y-50088877D01*
X97885673Y-49876073D01*
X97674640Y-49733623D01*
X97425000Y-49683560D01*
X95425000Y-49683560D01*
X95182877Y-49730537D01*
X94970073Y-49870327D01*
X94827623Y-50081360D01*
X94777560Y-50331000D01*
X94777560Y-52031000D01*
X94824537Y-52273123D01*
X94964327Y-52485927D01*
X95175360Y-52628377D01*
X95425000Y-52678440D01*
X95540000Y-52678440D01*
X95540000Y-52736994D01*
X95539999Y-52737000D01*
X95596189Y-53019484D01*
X95607367Y-53075675D01*
X95799210Y-53362790D01*
X97328255Y-54891834D01*
X97377883Y-55011943D01*
X97640673Y-55275192D01*
X97984201Y-55417838D01*
X98356167Y-55418162D01*
X98699943Y-55276117D01*
X98963192Y-55013327D01*
X99105838Y-54669799D01*
X99106162Y-54297833D01*
X99106162Y-55906560D01*
X98536000Y-55906560D01*
X98293877Y-55953537D01*
X98081073Y-56093327D01*
X97938623Y-56304360D01*
X97888560Y-56554000D01*
X97888560Y-58254000D01*
X97935537Y-58496123D01*
X97968431Y-58546199D01*
X97938623Y-58590360D01*
X97888560Y-58840000D01*
X97888560Y-60540000D01*
X97926681Y-60736479D01*
X97875123Y-60812860D01*
X97825060Y-61062500D01*
X97825060Y-62762500D01*
X97872037Y-63004623D01*
X97957390Y-63134557D01*
X97938623Y-63162360D01*
X97888560Y-63412000D01*
X97888560Y-65112000D01*
X97935537Y-65354123D01*
X98069638Y-65558266D01*
X97938623Y-65752360D01*
X97888560Y-66002000D01*
X97888560Y-67602000D01*
X97935537Y-67844123D01*
X98075327Y-68056927D01*
X98286360Y-68199377D01*
X98536000Y-68249440D01*
X98651000Y-68249440D01*
X98651000Y-68293994D01*
X98650999Y-68294000D01*
X98707189Y-68576484D01*
X98718367Y-68632675D01*
X98910210Y-68919790D01*
X99958207Y-69967786D01*
X99958210Y-69967790D01*
X99958211Y-69967790D01*
X100245325Y-70159633D01*
X100245326Y-70159633D01*
X100301515Y-70170810D01*
X100584000Y-70227001D01*
X100584000Y-70227000D01*
X100584005Y-70227000D01*
X105678420Y-70227000D01*
X107831000Y-72379579D01*
X107831000Y-79002000D01*
X106802912Y-79002000D01*
X106410801Y-78740000D01*
X106806222Y-78475789D01*
X107114559Y-78014329D01*
X107222833Y-77470000D01*
X107114559Y-76925671D01*
X106806222Y-76464211D01*
X106411170Y-76200246D01*
X106427262Y-76195525D01*
X106861191Y-75845986D01*
X107128327Y-75356996D01*
X107145010Y-75277060D01*
X107022852Y-75057000D01*
X105537000Y-75057000D01*
X105537000Y-75077000D01*
X105283000Y-75077000D01*
X105283000Y-75057000D01*
X105263000Y-75057000D01*
X105263000Y-74803000D01*
X105283000Y-74803000D01*
X105283000Y-74783000D01*
X105537000Y-74783000D01*
X105537000Y-74803000D01*
X107022852Y-74803000D01*
X107145010Y-74582940D01*
X107128327Y-74503004D01*
X106861191Y-74014014D01*
X106427262Y-73664475D01*
X106411170Y-73659753D01*
X106806222Y-73395789D01*
X107114559Y-72934329D01*
X107222833Y-72390000D01*
X107114559Y-71845671D01*
X106806222Y-71384211D01*
X106344762Y-71075874D01*
X105800433Y-70967600D01*
X105019567Y-70967600D01*
X104475238Y-71075874D01*
X104013778Y-71384211D01*
X103705441Y-71845671D01*
X103597167Y-72390000D01*
X103705441Y-72934329D01*
X104013778Y-73395789D01*
X104408829Y-73659753D01*
X104392738Y-73664475D01*
X103958809Y-74014014D01*
X103895417Y-74130051D01*
X103796310Y-74089000D01*
X103543691Y-74089000D01*
X103155750Y-74089000D01*
X102997000Y-74247750D01*
X102997000Y-75597000D01*
X103017000Y-75597000D01*
X103017000Y-75851000D01*
X102997000Y-75851000D01*
X102997000Y-77200250D01*
X103155750Y-77359000D01*
X103543691Y-77359000D01*
X103619246Y-77359000D01*
X103597167Y-77470000D01*
X103705441Y-78014329D01*
X103758939Y-78094396D01*
X103670000Y-78076560D01*
X102743000Y-78076560D01*
X102743000Y-77200250D01*
X102743000Y-75851000D01*
X102743000Y-75597000D01*
X102743000Y-74247750D01*
X102584250Y-74089000D01*
X102196309Y-74089000D01*
X101943690Y-74089000D01*
X101710301Y-74185673D01*
X101531673Y-74364302D01*
X101435000Y-74597691D01*
X101435000Y-75438250D01*
X101593750Y-75597000D01*
X102743000Y-75597000D01*
X102743000Y-75851000D01*
X101593750Y-75851000D01*
X101435000Y-76009750D01*
X101435000Y-76850309D01*
X101531673Y-77083698D01*
X101710301Y-77262327D01*
X101943690Y-77359000D01*
X102196309Y-77359000D01*
X102584250Y-77359000D01*
X102743000Y-77200250D01*
X102743000Y-78076560D01*
X102070000Y-78076560D01*
X101827877Y-78123537D01*
X101615073Y-78263327D01*
X101472623Y-78474360D01*
X101422560Y-78724000D01*
X101422560Y-80724000D01*
X101469537Y-80966123D01*
X101609327Y-81178927D01*
X101820360Y-81321377D01*
X102070000Y-81371440D01*
X103670000Y-81371440D01*
X103912123Y-81324463D01*
X104124927Y-81184673D01*
X104168942Y-81119466D01*
X104408829Y-81279753D01*
X104392738Y-81284475D01*
X103958809Y-81634014D01*
X103691673Y-82123004D01*
X103674990Y-82202940D01*
X103797148Y-82423000D01*
X105283000Y-82423000D01*
X105283000Y-82403000D01*
X105537000Y-82403000D01*
X105537000Y-82423000D01*
X107022852Y-82423000D01*
X107145010Y-82202940D01*
X107128327Y-82123004D01*
X106861191Y-81634014D01*
X106427262Y-81284475D01*
X106411170Y-81279753D01*
X106422774Y-81272000D01*
X108966000Y-81272000D01*
X109919236Y-81272000D01*
X109958113Y-81310944D01*
X110467184Y-81522329D01*
X111018398Y-81522810D01*
X111527837Y-81312314D01*
X111568221Y-81272000D01*
X114384320Y-81272000D01*
X114423537Y-81474123D01*
X114563327Y-81686927D01*
X114774360Y-81829377D01*
X115024000Y-81879440D01*
X115866307Y-81879440D01*
X117649434Y-83662567D01*
X118017654Y-83908603D01*
X118017655Y-83908604D01*
X118452000Y-83995000D01*
X118656957Y-83995000D01*
X118897266Y-84094785D01*
X119388579Y-84095214D01*
X119842657Y-83907592D01*
X120190371Y-83560485D01*
X120378785Y-83106734D01*
X120379214Y-82615421D01*
X120379214Y-85155421D01*
X120191592Y-84701343D01*
X119844485Y-84353629D01*
X119390734Y-84165215D01*
X118899421Y-84164786D01*
X118445343Y-84352408D01*
X118097629Y-84699515D01*
X117909215Y-85153266D01*
X117908786Y-85644579D01*
X118096408Y-86098657D01*
X118443515Y-86446371D01*
X118897266Y-86634785D01*
X119388579Y-86635214D01*
X119842657Y-86447592D01*
X120190371Y-86100485D01*
X120378785Y-85646734D01*
X120379214Y-85155421D01*
X120379214Y-87905326D01*
X120361482Y-87618587D01*
X120232164Y-87306383D01*
X120006735Y-87256870D01*
X119827130Y-87436475D01*
X119827130Y-87077265D01*
X119777617Y-86851836D01*
X119312964Y-86692193D01*
X118822587Y-86722518D01*
X118510383Y-86851836D01*
X118460870Y-87077265D01*
X119144000Y-87760395D01*
X119827130Y-87077265D01*
X119827130Y-87436475D01*
X119323605Y-87940000D01*
X120006735Y-88623130D01*
X120232164Y-88573617D01*
X120391807Y-88108964D01*
X120391807Y-89345000D01*
X119827130Y-89345000D01*
X119827130Y-88802735D01*
X119144000Y-88119605D01*
X118964395Y-88299210D01*
X118964395Y-87940000D01*
X118281265Y-87256870D01*
X118055836Y-87306383D01*
X117896193Y-87771036D01*
X117926518Y-88261413D01*
X118055836Y-88573617D01*
X118281265Y-88623130D01*
X118964395Y-87940000D01*
X118964395Y-88299210D01*
X118460870Y-88802735D01*
X118510383Y-89028164D01*
X118975036Y-89187807D01*
X119465413Y-89157482D01*
X119777617Y-89028164D01*
X119827130Y-88802735D01*
X119827130Y-89345000D01*
X119631042Y-89345000D01*
X119390734Y-89245215D01*
X118899421Y-89244786D01*
X118445343Y-89432408D01*
X118112169Y-89765000D01*
X117640000Y-89765000D01*
X117640000Y-88026309D01*
X117640000Y-87185750D01*
X117640000Y-86614250D01*
X117640000Y-85773691D01*
X117543327Y-85540302D01*
X117364699Y-85361673D01*
X117131310Y-85265000D01*
X116878691Y-85265000D01*
X116490750Y-85265000D01*
X116332000Y-85423750D01*
X116332000Y-86773000D01*
X117481250Y-86773000D01*
X117640000Y-86614250D01*
X117640000Y-87185750D01*
X117481250Y-87027000D01*
X116332000Y-87027000D01*
X116332000Y-88376250D01*
X116490750Y-88535000D01*
X116878691Y-88535000D01*
X117131310Y-88535000D01*
X117364699Y-88438327D01*
X117543327Y-88259698D01*
X117640000Y-88026309D01*
X117640000Y-89765000D01*
X117626247Y-89765000D01*
X117605463Y-89657877D01*
X117465673Y-89445073D01*
X117254640Y-89302623D01*
X117005000Y-89252560D01*
X116078000Y-89252560D01*
X116078000Y-88376250D01*
X116078000Y-87027000D01*
X116078000Y-86773000D01*
X116078000Y-85423750D01*
X115919250Y-85265000D01*
X115531309Y-85265000D01*
X115278690Y-85265000D01*
X115045301Y-85361673D01*
X114866673Y-85540302D01*
X114770000Y-85773691D01*
X114770000Y-86614250D01*
X114928750Y-86773000D01*
X116078000Y-86773000D01*
X116078000Y-87027000D01*
X114928750Y-87027000D01*
X114770000Y-87185750D01*
X114770000Y-88026309D01*
X114866673Y-88259698D01*
X115045301Y-88438327D01*
X115278690Y-88535000D01*
X115531309Y-88535000D01*
X115919250Y-88535000D01*
X116078000Y-88376250D01*
X116078000Y-89252560D01*
X115405000Y-89252560D01*
X115162877Y-89299537D01*
X114950073Y-89439327D01*
X114807623Y-89650360D01*
X114757560Y-89900000D01*
X114757560Y-91900000D01*
X114804537Y-92142123D01*
X114887618Y-92268598D01*
X114270156Y-92721403D01*
X114025602Y-92721190D01*
X113849958Y-92793764D01*
X113849958Y-90529026D01*
X113849958Y-89810974D01*
X113677688Y-89395053D01*
X113283490Y-88963179D01*
X113148687Y-88900000D01*
X113283490Y-88836821D01*
X113677688Y-88404947D01*
X113849958Y-87989026D01*
X113849958Y-87270974D01*
X113677688Y-86855053D01*
X113283490Y-86423179D01*
X113148687Y-86360000D01*
X113283490Y-86296821D01*
X113677688Y-85864947D01*
X113849958Y-85449026D01*
X113849958Y-84730974D01*
X113677688Y-84315053D01*
X113283490Y-83883179D01*
X112754027Y-83635032D01*
X112522000Y-83755531D01*
X112522000Y-84963000D01*
X113728817Y-84963000D01*
X113849958Y-84730974D01*
X113849958Y-85449026D01*
X113728817Y-85217000D01*
X112522000Y-85217000D01*
X112522000Y-86295531D01*
X112522000Y-86424469D01*
X112522000Y-87503000D01*
X113728817Y-87503000D01*
X113849958Y-87270974D01*
X113849958Y-87989026D01*
X113728817Y-87757000D01*
X112522000Y-87757000D01*
X112522000Y-88835531D01*
X112522000Y-88964469D01*
X112522000Y-90043000D01*
X113728817Y-90043000D01*
X113849958Y-89810974D01*
X113849958Y-90529026D01*
X113728817Y-90297000D01*
X112522000Y-90297000D01*
X112522000Y-91504469D01*
X112754027Y-91624968D01*
X113283490Y-91376821D01*
X113677688Y-90944947D01*
X113849958Y-90529026D01*
X113849958Y-92793764D01*
X113516163Y-92931686D01*
X113126056Y-93321113D01*
X112914671Y-93830184D01*
X112914190Y-94381398D01*
X113124686Y-94890837D01*
X113514113Y-95280944D01*
X113729496Y-95370378D01*
X113575735Y-95434069D01*
X113507675Y-95675070D01*
X114300000Y-96467395D01*
X115092325Y-95675070D01*
X115024265Y-95434069D01*
X114858959Y-95375231D01*
X115083837Y-95282314D01*
X115316578Y-95049977D01*
X115324038Y-95051461D01*
X115343306Y-95148325D01*
X115497214Y-95378666D01*
X115727555Y-95532574D01*
X115999260Y-95586620D01*
X116270965Y-95532574D01*
X116501306Y-95378666D01*
X116655214Y-95148325D01*
X116674481Y-95051461D01*
X116771345Y-95032194D01*
X117001686Y-94878286D01*
X117155594Y-94647945D01*
X117209640Y-94376240D01*
X117155594Y-94104535D01*
X117001686Y-93874194D01*
X116771345Y-93720286D01*
X116751903Y-93716418D01*
X116876198Y-93625269D01*
X116935085Y-93560995D01*
X117007566Y-93512566D01*
X117083288Y-93399238D01*
X117175365Y-93298742D01*
X117205174Y-93216824D01*
X117253603Y-93144346D01*
X117280193Y-93010668D01*
X117326802Y-92882585D01*
X117322993Y-92795496D01*
X117340000Y-92710000D01*
X117340000Y-92439452D01*
X117459927Y-92360673D01*
X117602377Y-92149640D01*
X117625366Y-92035000D01*
X118382641Y-92035000D01*
X118097629Y-92319515D01*
X117909215Y-92773266D01*
X117908786Y-93264579D01*
X118096408Y-93718657D01*
X118443515Y-94066371D01*
X118897266Y-94254785D01*
X119388579Y-94255214D01*
X119842657Y-94067592D01*
X120190371Y-93720485D01*
X120378785Y-93266734D01*
X120379214Y-92775421D01*
X120191592Y-92321343D01*
X119844485Y-91973629D01*
X119398220Y-91788323D01*
X119526566Y-91702566D01*
X119602174Y-91626957D01*
X119631114Y-91615000D01*
X122880000Y-91615000D01*
X123314345Y-91528603D01*
X123314346Y-91528603D01*
X123682566Y-91282566D01*
X125262566Y-89702566D01*
X125508603Y-89334346D01*
X125594999Y-88900000D01*
X125595000Y-88900000D01*
X125595000Y-73431348D01*
X125602553Y-73429883D01*
X125815357Y-73290093D01*
X125957807Y-73079060D01*
X126007870Y-72829420D01*
X126007870Y-98375000D01*
X120379214Y-98375000D01*
X120379214Y-95315421D01*
X120191592Y-94861343D01*
X119844485Y-94513629D01*
X119390734Y-94325215D01*
X118899421Y-94324786D01*
X118445343Y-94512408D01*
X118097629Y-94859515D01*
X117909215Y-95313266D01*
X117908786Y-95804579D01*
X118096408Y-96258657D01*
X118443515Y-96606371D01*
X118897266Y-96794785D01*
X119388579Y-96795214D01*
X119842657Y-96607592D01*
X120190371Y-96260485D01*
X120378785Y-95806734D01*
X120379214Y-95315421D01*
X120379214Y-98375000D01*
X115697767Y-98375000D01*
X115697767Y-96851966D01*
X115669805Y-96301462D01*
X115512931Y-95922735D01*
X115271930Y-95854675D01*
X114479605Y-96647000D01*
X115271930Y-97439325D01*
X115512931Y-97371265D01*
X115697767Y-96851966D01*
X115697767Y-98375000D01*
X115092325Y-98375000D01*
X115092325Y-97618930D01*
X114300000Y-96826605D01*
X114120395Y-97006210D01*
X114120395Y-96647000D01*
X113328070Y-95854675D01*
X113087069Y-95922735D01*
X112902233Y-96442034D01*
X112930195Y-96992538D01*
X113087069Y-97371265D01*
X113328070Y-97439325D01*
X114120395Y-96647000D01*
X114120395Y-97006210D01*
X113507675Y-97618930D01*
X113575735Y-97859931D01*
X114095034Y-98044767D01*
X114645538Y-98016805D01*
X115024265Y-97859931D01*
X115092325Y-97618930D01*
X115092325Y-98375000D01*
X112268000Y-98375000D01*
X112268000Y-91504469D01*
X112268000Y-90297000D01*
X112248000Y-90297000D01*
X112248000Y-90043000D01*
X112268000Y-90043000D01*
X112268000Y-88964469D01*
X112268000Y-88835531D01*
X112268000Y-87757000D01*
X112248000Y-87757000D01*
X112248000Y-87503000D01*
X112268000Y-87503000D01*
X112268000Y-86424469D01*
X112268000Y-86295531D01*
X112268000Y-85217000D01*
X112248000Y-85217000D01*
X112248000Y-84963000D01*
X112268000Y-84963000D01*
X112268000Y-83755531D01*
X112035973Y-83635032D01*
X111506510Y-83883179D01*
X111335746Y-84070263D01*
X111319063Y-83984277D01*
X111179273Y-83771473D01*
X110968240Y-83629023D01*
X110718600Y-83578960D01*
X108991400Y-83578960D01*
X108749277Y-83625937D01*
X108536473Y-83765727D01*
X108394023Y-83976760D01*
X108348251Y-84205000D01*
X106886930Y-84205000D01*
X106806222Y-84084211D01*
X106411170Y-83820246D01*
X106427262Y-83815525D01*
X106861191Y-83465986D01*
X107128327Y-82976996D01*
X107145010Y-82897060D01*
X107022852Y-82677000D01*
X105537000Y-82677000D01*
X105537000Y-82697000D01*
X105283000Y-82697000D01*
X105283000Y-82677000D01*
X103797148Y-82677000D01*
X103674990Y-82897060D01*
X103691673Y-82976996D01*
X103958809Y-83465986D01*
X104392738Y-83815525D01*
X104408829Y-83820246D01*
X104013778Y-84084211D01*
X103705441Y-84545671D01*
X103597167Y-85090000D01*
X103705441Y-85634329D01*
X104013778Y-86095789D01*
X104409198Y-86360000D01*
X104013778Y-86624211D01*
X103705441Y-87085671D01*
X103597167Y-87630000D01*
X103705441Y-88174329D01*
X104013778Y-88635789D01*
X104409198Y-88900000D01*
X104013778Y-89164211D01*
X103705441Y-89625671D01*
X103597167Y-90170000D01*
X103705441Y-90714329D01*
X104013778Y-91175789D01*
X104409198Y-91440000D01*
X104013778Y-91704211D01*
X103705441Y-92165671D01*
X103597167Y-92710000D01*
X103705441Y-93254329D01*
X104013778Y-93715789D01*
X104186013Y-93830873D01*
X104024877Y-93862137D01*
X103812073Y-94001927D01*
X103669623Y-94212960D01*
X103619560Y-94462600D01*
X103619560Y-96037400D01*
X103666537Y-96279523D01*
X103743707Y-96397000D01*
X98974884Y-96397000D01*
X99186222Y-96255789D01*
X99494559Y-95794329D01*
X99602833Y-95250000D01*
X99494559Y-94705671D01*
X99186222Y-94244211D01*
X98790801Y-93980000D01*
X99186222Y-93715789D01*
X99494559Y-93254329D01*
X99602833Y-92710000D01*
X99494559Y-92165671D01*
X99186222Y-91704211D01*
X98790801Y-91440000D01*
X99186222Y-91175789D01*
X99494559Y-90714329D01*
X99602833Y-90170000D01*
X99494559Y-89625671D01*
X99186222Y-89164211D01*
X98790801Y-88900000D01*
X99186222Y-88635789D01*
X99494559Y-88174329D01*
X99602833Y-87630000D01*
X99494559Y-87085671D01*
X99186222Y-86624211D01*
X98790801Y-86360000D01*
X99186222Y-86095789D01*
X99494559Y-85634329D01*
X99602833Y-85090000D01*
X99494559Y-84545671D01*
X99186222Y-84084211D01*
X98790801Y-83820000D01*
X99186222Y-83555789D01*
X99494559Y-83094329D01*
X99602833Y-82550000D01*
X99494559Y-82005671D01*
X99186222Y-81544211D01*
X98790801Y-81280000D01*
X99186222Y-81015789D01*
X99494559Y-80554329D01*
X99602833Y-80010000D01*
X99494559Y-79465671D01*
X99186222Y-79004211D01*
X98790801Y-78740000D01*
X99186222Y-78475789D01*
X99494559Y-78014329D01*
X99602833Y-77470000D01*
X99494559Y-76925671D01*
X99186222Y-76464211D01*
X98790801Y-76200000D01*
X99186222Y-75935789D01*
X99494559Y-75474329D01*
X99602833Y-74930000D01*
X99494559Y-74385671D01*
X99186222Y-73924211D01*
X98790801Y-73660000D01*
X99186222Y-73395789D01*
X99494559Y-72934329D01*
X99602833Y-72390000D01*
X99494559Y-71845671D01*
X99186222Y-71384211D01*
X98724762Y-71075874D01*
X98180433Y-70967600D01*
X97399567Y-70967600D01*
X97171000Y-71013064D01*
X97171000Y-67728310D01*
X97171000Y-67475691D01*
X97171000Y-67087750D01*
X97012250Y-66929000D01*
X95663000Y-66929000D01*
X95663000Y-68078250D01*
X95821750Y-68237000D01*
X96662309Y-68237000D01*
X96895698Y-68140327D01*
X97074327Y-67961699D01*
X97171000Y-67728310D01*
X97171000Y-71013064D01*
X96855238Y-71075874D01*
X96393778Y-71384211D01*
X96085441Y-71845671D01*
X95977167Y-72390000D01*
X96085441Y-72934329D01*
X96393778Y-73395789D01*
X96789198Y-73660000D01*
X96393778Y-73924211D01*
X96085441Y-74385671D01*
X95977167Y-74930000D01*
X96085441Y-75474329D01*
X96393778Y-75935789D01*
X96789198Y-76200000D01*
X96393778Y-76464211D01*
X96085441Y-76925671D01*
X95977167Y-77470000D01*
X96085441Y-78014329D01*
X96393778Y-78475789D01*
X96789198Y-78740000D01*
X96393778Y-79004211D01*
X96085441Y-79465671D01*
X95977167Y-80010000D01*
X96085441Y-80554329D01*
X96393778Y-81015789D01*
X96789198Y-81280000D01*
X96393778Y-81544211D01*
X96085441Y-82005671D01*
X95977167Y-82550000D01*
X96085441Y-83094329D01*
X96393778Y-83555789D01*
X96789198Y-83820000D01*
X96393778Y-84084211D01*
X96085441Y-84545671D01*
X95977167Y-85090000D01*
X96085441Y-85634329D01*
X96393778Y-86095789D01*
X96789198Y-86360000D01*
X96393778Y-86624211D01*
X96085441Y-87085671D01*
X95977167Y-87630000D01*
X96085441Y-88174329D01*
X96393778Y-88635789D01*
X96789198Y-88900000D01*
X96393778Y-89164211D01*
X96085441Y-89625671D01*
X95977167Y-90170000D01*
X96085441Y-90714329D01*
X96393778Y-91175789D01*
X96789198Y-91440000D01*
X96393778Y-91704211D01*
X96085441Y-92165671D01*
X95977167Y-92710000D01*
X96085441Y-93254329D01*
X96393778Y-93715789D01*
X96789198Y-93980000D01*
X96393778Y-94244211D01*
X96085441Y-94705671D01*
X95977167Y-95250000D01*
X96085441Y-95794329D01*
X96393778Y-96255789D01*
X96605115Y-96397000D01*
X95500000Y-96397000D01*
X95500000Y-75819000D01*
X95432633Y-75480325D01*
X95409000Y-75444955D01*
X95409000Y-68078250D01*
X95409000Y-66929000D01*
X94059750Y-66929000D01*
X93901000Y-67087750D01*
X93901000Y-67475691D01*
X93901000Y-67728310D01*
X93997673Y-67961699D01*
X94176302Y-68140327D01*
X94409691Y-68237000D01*
X95250250Y-68237000D01*
X95409000Y-68078250D01*
X95409000Y-75444955D01*
X95240790Y-75193210D01*
X95240786Y-75193207D01*
X91372500Y-71324920D01*
X91372500Y-67864387D01*
X91593223Y-67821563D01*
X91806027Y-67681773D01*
X91948477Y-67470740D01*
X91998540Y-67221100D01*
X91998540Y-65493900D01*
X91951563Y-65251777D01*
X91811773Y-65038973D01*
X91600740Y-64896523D01*
X91559840Y-64888320D01*
X91576529Y-64877170D01*
X91693239Y-64702500D01*
X92152920Y-64702500D01*
X92184962Y-64734541D01*
X92171808Y-64747673D01*
X92029162Y-65091201D01*
X92028838Y-65463167D01*
X92079000Y-65584568D01*
X92079000Y-69543178D01*
X92029162Y-69663201D01*
X92028838Y-70035167D01*
X92170883Y-70378943D01*
X92433673Y-70642192D01*
X92777201Y-70784838D01*
X93149167Y-70785162D01*
X93492943Y-70643117D01*
X93756192Y-70380327D01*
X93898838Y-70036799D01*
X93899162Y-69664833D01*
X93849000Y-69543431D01*
X93849000Y-65584821D01*
X93898838Y-65464799D01*
X93899097Y-65166313D01*
X93935537Y-65354123D01*
X94074423Y-65565551D01*
X93997673Y-65642301D01*
X93901000Y-65875690D01*
X93901000Y-66128309D01*
X93901000Y-66516250D01*
X94059750Y-66675000D01*
X95409000Y-66675000D01*
X95409000Y-66655000D01*
X95663000Y-66655000D01*
X95663000Y-66675000D01*
X97012250Y-66675000D01*
X97171000Y-66516250D01*
X97171000Y-66128309D01*
X97171000Y-65875690D01*
X97074327Y-65642301D01*
X96996476Y-65564451D01*
X97133377Y-65361640D01*
X97183440Y-65112000D01*
X97183440Y-63412000D01*
X97136463Y-63169877D01*
X97051109Y-63039942D01*
X97069877Y-63012140D01*
X97119940Y-62762500D01*
X97119940Y-61062500D01*
X97081818Y-60866020D01*
X97133377Y-60789640D01*
X97183440Y-60540000D01*
X97183440Y-58840000D01*
X97136463Y-58597877D01*
X97103568Y-58547800D01*
X97133377Y-58503640D01*
X97183440Y-58254000D01*
X97183440Y-56554000D01*
X97136463Y-56311877D01*
X96996673Y-56099073D01*
X96785640Y-55956623D01*
X96536000Y-55906560D01*
X94536000Y-55906560D01*
X94293877Y-55953537D01*
X94081073Y-56093327D01*
X93938623Y-56304360D01*
X93895578Y-56519000D01*
X92075005Y-56519000D01*
X92075000Y-56518999D01*
X91792515Y-56575189D01*
X91736325Y-56586367D01*
X91449210Y-56778210D01*
X91449207Y-56778213D01*
X89861710Y-58365710D01*
X89669867Y-58652825D01*
X89658689Y-58709015D01*
X89602499Y-58991500D01*
X89602500Y-58991505D01*
X89602500Y-60081502D01*
X89398471Y-60217830D01*
X89217507Y-60488660D01*
X88835990Y-60070679D01*
X88306527Y-59822532D01*
X88074500Y-59943031D01*
X88074500Y-61150500D01*
X88094500Y-61150500D01*
X88094500Y-61404500D01*
X88074500Y-61404500D01*
X88074500Y-62483031D01*
X88074500Y-62611969D01*
X88074500Y-63690500D01*
X88094500Y-63690500D01*
X88094500Y-63944500D01*
X88074500Y-63944500D01*
X88074500Y-65023031D01*
X88074500Y-65151969D01*
X88074500Y-66230500D01*
X88094500Y-66230500D01*
X88094500Y-66484500D01*
X88074500Y-66484500D01*
X88074500Y-67691969D01*
X88306527Y-67812468D01*
X88835990Y-67564321D01*
X89006753Y-67377236D01*
X89023437Y-67463223D01*
X89163227Y-67676027D01*
X89374260Y-67818477D01*
X89602500Y-67864248D01*
X89602500Y-71691494D01*
X89602499Y-71691500D01*
X89658689Y-71973984D01*
X89669867Y-72030175D01*
X89861710Y-72317290D01*
X93730000Y-76185579D01*
X93730000Y-97282000D01*
X93797367Y-97620675D01*
X93989210Y-97907790D01*
X94276325Y-98099633D01*
X94615000Y-98167000D01*
X108457994Y-98167000D01*
X108458000Y-98167001D01*
X108458000Y-98167000D01*
X108740484Y-98110810D01*
X108796674Y-98099633D01*
X108796675Y-98099633D01*
X109083790Y-97907790D01*
X109718786Y-97272792D01*
X109718790Y-97272790D01*
X109718790Y-97272789D01*
X109846975Y-97080946D01*
X109910633Y-96985675D01*
X109910634Y-96985674D01*
X109978000Y-96647000D01*
X109978001Y-96647000D01*
X109978000Y-96646994D01*
X109978000Y-94107000D01*
X109910633Y-93768325D01*
X109718790Y-93481210D01*
X109718786Y-93481207D01*
X108321790Y-92084210D01*
X108034675Y-91892367D01*
X107978484Y-91881189D01*
X107696000Y-91824999D01*
X107695994Y-91825000D01*
X106886930Y-91825000D01*
X106806222Y-91704211D01*
X106410801Y-91440000D01*
X106806222Y-91175789D01*
X107114559Y-90714329D01*
X107222833Y-90170000D01*
X107114559Y-89625671D01*
X106806222Y-89164211D01*
X106410801Y-88900000D01*
X106806222Y-88635789D01*
X106886930Y-88515000D01*
X108649260Y-88515000D01*
X108765971Y-88689670D01*
X109080751Y-88900000D01*
X108765971Y-89110330D01*
X108441115Y-89596511D01*
X108327041Y-90170000D01*
X108441115Y-90743489D01*
X108765971Y-91229670D01*
X109252152Y-91554526D01*
X109825641Y-91668600D01*
X109884359Y-91668600D01*
X110457848Y-91554526D01*
X110944029Y-91229670D01*
X111124992Y-90958839D01*
X111506510Y-91376821D01*
X112035973Y-91624968D01*
X112268000Y-91504469D01*
X112268000Y-98375000D01*
X87045000Y-98375000D01*
X87045000Y-82797690D01*
X87547208Y-83300776D01*
X88423501Y-83664645D01*
X89372336Y-83665473D01*
X90249263Y-83303134D01*
X90920776Y-82632792D01*
X91284645Y-81756499D01*
X91285473Y-80807664D01*
X90923134Y-79930737D01*
X90252792Y-79259224D01*
X89376499Y-78895355D01*
X88427664Y-78894527D01*
X87550737Y-79256866D01*
X87045000Y-79761721D01*
X87045000Y-67548971D01*
X87059010Y-67564321D01*
X87588473Y-67812468D01*
X87820500Y-67691969D01*
X87820500Y-66484500D01*
X87800500Y-66484500D01*
X87800500Y-66230500D01*
X87820500Y-66230500D01*
X87820500Y-65151969D01*
X87820500Y-65023031D01*
X87820500Y-63944500D01*
X87800500Y-63944500D01*
X87800500Y-63690500D01*
X87820500Y-63690500D01*
X87820500Y-62611969D01*
X87820500Y-62483031D01*
X87820500Y-61404500D01*
X87800500Y-61404500D01*
X87800500Y-61150500D01*
X87820500Y-61150500D01*
X87820500Y-59943031D01*
X87588473Y-59822532D01*
X87059010Y-60070679D01*
X87045000Y-60086028D01*
X87045000Y-54857690D01*
X87547208Y-55360776D01*
X88423501Y-55724645D01*
X89372336Y-55725473D01*
X90249263Y-55363134D01*
X90920776Y-54692792D01*
X91284645Y-53816499D01*
X91285473Y-52867664D01*
X90923134Y-51990737D01*
X90252792Y-51319224D01*
X89376499Y-50955355D01*
X88427664Y-50954527D01*
X87550737Y-51316866D01*
X87045000Y-51821721D01*
X87045000Y-46405000D01*
X139452309Y-46405000D01*
X138949224Y-46907208D01*
X138585355Y-47783501D01*
X138584527Y-48732336D01*
X138946866Y-49609263D01*
X139617208Y-50280776D01*
X140493501Y-50644645D01*
X141442336Y-50645473D01*
X142319263Y-50283134D01*
X142990776Y-49612792D01*
X143354645Y-48736499D01*
X143355473Y-47787664D01*
X142993134Y-46910737D01*
X142488278Y-46405000D01*
X154255000Y-46405000D01*
X154255000Y-55006028D01*
X154240990Y-54990679D01*
X153711527Y-54742532D01*
X153555440Y-54823592D01*
X153555440Y-52070000D01*
X153555440Y-50038000D01*
X153508463Y-49795877D01*
X153368673Y-49583073D01*
X153208956Y-49475262D01*
X153298385Y-49378818D01*
X153497975Y-48896944D01*
X153497975Y-48131056D01*
X153298385Y-47649182D01*
X152860379Y-47176812D01*
X152274946Y-46908017D01*
X152019000Y-47026633D01*
X152019000Y-48387000D01*
X153378836Y-48387000D01*
X153497975Y-48131056D01*
X153497975Y-48896944D01*
X153378836Y-48641000D01*
X152019000Y-48641000D01*
X152019000Y-48661000D01*
X151765000Y-48661000D01*
X151765000Y-48641000D01*
X151765000Y-48387000D01*
X151765000Y-47026633D01*
X151509054Y-46908017D01*
X150923621Y-47176812D01*
X150485615Y-47649182D01*
X150286025Y-48131056D01*
X150405164Y-48387000D01*
X151765000Y-48387000D01*
X151765000Y-48641000D01*
X150405164Y-48641000D01*
X150286025Y-48896944D01*
X150485615Y-49378818D01*
X150575574Y-49475835D01*
X150421073Y-49577327D01*
X150278623Y-49788360D01*
X150228560Y-50038000D01*
X150228560Y-52070000D01*
X150275537Y-52312123D01*
X150415327Y-52524927D01*
X150626360Y-52667377D01*
X150876000Y-52717440D01*
X152908000Y-52717440D01*
X153150123Y-52670463D01*
X153362927Y-52530673D01*
X153505377Y-52319640D01*
X153555440Y-52070000D01*
X153555440Y-54823592D01*
X153479500Y-54863031D01*
X153479500Y-56070500D01*
X153499500Y-56070500D01*
X153499500Y-56324500D01*
X153479500Y-56324500D01*
X153479500Y-57403031D01*
X153479500Y-57531969D01*
X153479500Y-58610500D01*
X153499500Y-58610500D01*
X153499500Y-58864500D01*
X153479500Y-58864500D01*
X153479500Y-58884500D01*
X153225500Y-58884500D01*
X153225500Y-58864500D01*
X153205500Y-58864500D01*
X153205500Y-58610500D01*
X153225500Y-58610500D01*
X153225500Y-57531969D01*
X153225500Y-57403031D01*
X153225500Y-56324500D01*
X153205500Y-56324500D01*
X153205500Y-56070500D01*
X153225500Y-56070500D01*
X153225500Y-54863031D01*
X152993473Y-54742532D01*
X152464010Y-54990679D01*
X152293246Y-55177763D01*
X152276563Y-55091777D01*
X152136773Y-54878973D01*
X151925740Y-54736523D01*
X151676100Y-54686460D01*
X149948900Y-54686460D01*
X149706777Y-54733437D01*
X149493973Y-54873227D01*
X149366211Y-55062500D01*
X149304797Y-55062500D01*
X149215507Y-54926573D01*
X149329877Y-54757140D01*
X149379940Y-54507500D01*
X149379940Y-52807500D01*
X149332963Y-52565377D01*
X149193173Y-52352573D01*
X148982140Y-52210123D01*
X148732500Y-52160060D01*
X146732500Y-52160060D01*
X146490377Y-52207037D01*
X146277573Y-52346827D01*
X146135123Y-52557860D01*
X146085060Y-52807500D01*
X146085060Y-54507500D01*
X146132037Y-54749623D01*
X146249492Y-54928426D01*
X146135123Y-55097860D01*
X146085060Y-55347500D01*
X146085060Y-57047500D01*
X146132037Y-57289623D01*
X146249492Y-57468426D01*
X146135123Y-57637860D01*
X146085060Y-57887500D01*
X146085060Y-59587500D01*
X146132037Y-59829623D01*
X146249492Y-60008426D01*
X146135123Y-60177860D01*
X146085060Y-60427500D01*
X146085060Y-62127500D01*
X146132037Y-62369623D01*
X146249492Y-62548426D01*
X146135123Y-62717860D01*
X146085060Y-62967500D01*
X146085060Y-64667500D01*
X146132037Y-64909623D01*
X146249492Y-65088426D01*
X146135123Y-65257860D01*
X146085060Y-65507500D01*
X146085060Y-67207500D01*
X146132037Y-67449623D01*
X146271827Y-67662427D01*
X146482860Y-67804877D01*
X146732500Y-67854940D01*
X148732500Y-67854940D01*
X148974623Y-67807963D01*
X149187427Y-67668173D01*
X149306008Y-67492500D01*
X149836210Y-67492500D01*
X150209652Y-67742026D01*
X150783141Y-67856100D01*
X150841859Y-67856100D01*
X151415348Y-67742026D01*
X151901529Y-67417170D01*
X152082492Y-67146339D01*
X152464010Y-67564321D01*
X152993473Y-67812468D01*
X153225500Y-67691969D01*
X153225500Y-66484500D01*
X153205500Y-66484500D01*
X153205500Y-66230500D01*
X153225500Y-66230500D01*
X153225500Y-65151969D01*
X153225500Y-65023031D01*
X153225500Y-63944500D01*
X153205500Y-63944500D01*
X153205500Y-63690500D01*
X153225500Y-63690500D01*
X153225500Y-63670500D01*
X153479500Y-63670500D01*
X153479500Y-63690500D01*
X153499500Y-63690500D01*
X153499500Y-63944500D01*
X153479500Y-63944500D01*
X153479500Y-65023031D01*
X153479500Y-65151969D01*
X153479500Y-66230500D01*
X153499500Y-66230500D01*
X153499500Y-66484500D01*
X153479500Y-66484500D01*
X153479500Y-67691969D01*
X153711527Y-67812468D01*
X154240990Y-67564321D01*
X154255000Y-67548971D01*
X154255000Y-69472001D01*
X154178000Y-69456560D01*
X152146000Y-69456560D01*
X151903877Y-69503537D01*
X151691073Y-69643327D01*
X151548623Y-69854360D01*
X151498560Y-70104000D01*
X151498560Y-72136000D01*
X151545537Y-72378123D01*
X151685327Y-72590927D01*
X151845043Y-72698737D01*
X151755615Y-72795182D01*
X151556025Y-73277056D01*
X151675164Y-73533000D01*
X153035000Y-73533000D01*
X153035000Y-73513000D01*
X153289000Y-73513000D01*
X153289000Y-73533000D01*
X153309000Y-73533000D01*
X153309000Y-73787000D01*
X153289000Y-73787000D01*
X153289000Y-75147367D01*
X153544946Y-75265983D01*
X154130379Y-74997188D01*
X154255000Y-74862789D01*
X154255000Y-81071373D01*
X153923490Y-80708179D01*
X153394027Y-80460032D01*
X153162000Y-80580531D01*
X153162000Y-81788000D01*
X153182000Y-81788000D01*
X153182000Y-82042000D01*
X153162000Y-82042000D01*
X153162000Y-83120531D01*
X153162000Y-83249469D01*
X153162000Y-84328000D01*
X153182000Y-84328000D01*
X153182000Y-84582000D01*
X153162000Y-84582000D01*
X153162000Y-85789469D01*
X153394027Y-85909968D01*
X153923490Y-85661821D01*
X154255000Y-85298626D01*
X154255000Y-98375000D01*
M02*
