G04 #@! TF.FileFunction,Soldermask,Top*
%FSLAX46Y46*%
G04 Gerber Fmt 4.6, Leading zero omitted, Abs format (unit mm)*
G04 Created by KiCad (PCBNEW (after 2015-mar-04 BZR unknown)-product) date Fri 28 Oct 2016 11:36:01 AM CEST*
%MOMM*%
G01*
G04 APERTURE LIST*
%ADD10C,0.100000*%
%ADD11C,0.970000*%
%ADD12O,1.524000X2.540000*%
%ADD13C,3.175000*%
%ADD14R,1.727200X1.727200*%
%ADD15O,1.727200X1.727200*%
%ADD16R,2.032000X2.032000*%
%ADD17O,2.032000X2.032000*%
%ADD18C,1.501140*%
%ADD19C,1.699260*%
%ADD20R,1.699260X1.699260*%
%ADD21O,1.998980X2.999740*%
%ADD22O,2.999740X1.998980*%
%ADD23C,1.998980*%
G04 APERTURE END LIST*
D10*
D11*
X173736000Y-67818000D03*
X178816000Y-67818000D03*
X212090000Y-75946000D03*
X209550000Y-78486000D03*
X184785000Y-99187000D03*
X203200000Y-56769000D03*
X200406000Y-56769000D03*
X201676000Y-70739000D03*
X198374000Y-70612000D03*
X195326000Y-69215000D03*
X192151000Y-69215000D03*
X181254400Y-58089800D03*
X178739800Y-58089800D03*
X158394400Y-95300800D03*
X172720000Y-92710000D03*
X179070000Y-94615000D03*
X198374000Y-99695000D03*
X179070000Y-94615000D03*
X179070000Y-91440000D03*
X206375000Y-86360000D03*
X206375000Y-88900000D03*
D12*
X212001100Y-102463600D03*
X209461100Y-102463600D03*
X206921100Y-102463600D03*
X199301100Y-102463600D03*
X201841100Y-102463600D03*
X204381100Y-102463600D03*
X194221100Y-102463600D03*
X191681100Y-102463600D03*
X189141100Y-102463600D03*
X184061100Y-102463600D03*
X181521100Y-102463600D03*
X212001100Y-54203600D03*
X209461100Y-54203600D03*
X206921100Y-54203600D03*
X204381100Y-54203600D03*
X201841100Y-54203600D03*
X199301100Y-54203600D03*
X196761100Y-54203600D03*
X194221100Y-54203600D03*
X190157100Y-54203600D03*
X187617100Y-54203600D03*
X185077100Y-54203600D03*
X182537100Y-54203600D03*
X179997100Y-54203600D03*
X177457100Y-54203600D03*
X174917100Y-54203600D03*
X172377100Y-54203600D03*
X186601100Y-102463600D03*
D13*
X214541100Y-97383600D03*
X214541100Y-69443600D03*
X163741100Y-54203600D03*
X162471100Y-102463600D03*
D12*
X169837100Y-54203600D03*
X167297100Y-54203600D03*
X178981100Y-102463600D03*
X176441100Y-102463600D03*
D14*
X209550000Y-82550000D03*
D15*
X212090000Y-82550000D03*
X209550000Y-85090000D03*
X212090000Y-85090000D03*
X209550000Y-87630000D03*
X212090000Y-87630000D03*
X209550000Y-90170000D03*
X212090000Y-90170000D03*
X209550000Y-92710000D03*
X212090000Y-92710000D03*
D14*
X156210000Y-97155000D03*
D15*
X153670000Y-97155000D03*
X156210000Y-94615000D03*
X153670000Y-94615000D03*
D16*
X153670000Y-74295000D03*
D17*
X153670000Y-71755000D03*
D16*
X153670000Y-59055000D03*
D17*
X153670000Y-56515000D03*
D18*
X194310000Y-94615000D03*
X191770000Y-94615000D03*
D19*
X160655000Y-88265000D03*
D20*
X170815000Y-88265000D03*
D19*
X184785000Y-94615000D03*
D20*
X174625000Y-94615000D03*
D19*
X158115000Y-69215000D03*
D20*
X168275000Y-69215000D03*
D19*
X168275000Y-66040000D03*
D20*
X158115000Y-66040000D03*
D19*
X160655000Y-85090000D03*
D20*
X170815000Y-85090000D03*
D19*
X184785000Y-85090000D03*
D20*
X174625000Y-85090000D03*
D19*
X158115000Y-78105000D03*
D20*
X168275000Y-78105000D03*
D21*
X174625000Y-78740000D03*
D22*
X172085000Y-81280000D03*
X177165000Y-81280000D03*
D23*
X168275000Y-59055000D03*
X158115000Y-59055000D03*
X170815000Y-94615000D03*
X160655000Y-94615000D03*
X170815000Y-91440000D03*
X160655000Y-91440000D03*
X174625000Y-91440000D03*
X184785000Y-91440000D03*
X158115000Y-62865000D03*
X168275000Y-62865000D03*
X174625000Y-88265000D03*
X184785000Y-88265000D03*
X192405000Y-78740000D03*
X182245000Y-78740000D03*
X187325000Y-72390000D03*
X187325000Y-62230000D03*
X190500000Y-72390000D03*
X190500000Y-62230000D03*
X193675000Y-72390000D03*
X193675000Y-62230000D03*
X196850000Y-72390000D03*
X196850000Y-62230000D03*
X200025000Y-72390000D03*
X200025000Y-62230000D03*
X203200000Y-72390000D03*
X203200000Y-62230000D03*
X158115000Y-74295000D03*
X168275000Y-74295000D03*
D11*
X206375000Y-91440000D03*
M02*
