M48
;DRILL file {kicad (after 2015-mar-04 BZR unknown)-product} date Fri 28 Oct 2016 11:36:08 AM CEST
;FORMAT={-:-/ absolute / inch / decimal}
FMAT,2
INCH,TZ
T1C0.018
T2C0.028
T3C0.032
T4C0.039
T5C0.039
T6C0.040
%
G90
G05
M72
T1
X6.236Y-3.752
X6.8Y-3.65
X6.84Y-2.67
X7.037Y-2.287
X7.04Y-2.67
X7.05Y-3.6
X7.05Y-3.725
X7.05Y-3.725
X7.136Y-2.287
X7.275Y-3.905
X7.565Y-2.725
X7.69Y-2.725
X7.81Y-2.78
X7.81Y-3.925
X7.89Y-2.235
X7.94Y-2.785
X8.Y-2.235
X8.125Y-3.4
X8.125Y-3.5
X8.125Y-3.6
X8.25Y-3.09
X8.35Y-2.99
T2
X6.225Y-2.6
X6.225Y-2.725
X6.225Y-3.075
X6.325Y-3.35
X6.325Y-3.475
X6.625Y-2.6
X6.625Y-2.725
X6.625Y-3.075
X6.725Y-3.35
X6.725Y-3.475
X6.875Y-3.35
X6.875Y-3.725
X7.275Y-3.35
X7.275Y-3.725
T3
X7.55Y-3.725
X7.65Y-3.725
T4
X6.775Y-3.2
X6.875Y-3.1
X6.975Y-3.2
T5
X6.225Y-2.325
X6.225Y-2.475
X6.225Y-2.925
X6.325Y-3.6
X6.325Y-3.725
X6.625Y-2.325
X6.625Y-2.475
X6.625Y-2.925
X6.725Y-3.6
X6.725Y-3.725
X6.875Y-3.475
X6.875Y-3.6
X7.175Y-3.1
X7.275Y-3.475
X7.275Y-3.6
X7.375Y-2.45
X7.375Y-2.85
X7.5Y-2.45
X7.5Y-2.85
X7.575Y-3.1
X7.625Y-2.45
X7.625Y-2.85
X7.75Y-2.45
X7.75Y-2.85
X7.875Y-2.45
X7.875Y-2.85
X8.Y-2.45
X8.Y-2.85
T6
X6.05Y-2.225
X6.05Y-2.325
X6.05Y-2.825
X6.05Y-2.925
X6.05Y-3.725
X6.05Y-3.825
X6.15Y-3.725
X6.15Y-3.825
X6.5865Y-2.134
X6.6865Y-2.134
X6.7865Y-2.134
X6.8865Y-2.134
X6.9465Y-4.034
X6.9865Y-2.134
X7.0465Y-4.034
X7.0865Y-2.134
X7.1465Y-4.034
X7.1865Y-2.134
X7.2465Y-4.034
X7.2865Y-2.134
X7.3465Y-4.034
X7.3865Y-2.134
X7.4465Y-4.034
X7.4865Y-2.134
X7.5465Y-4.034
X7.6465Y-2.134
X7.6465Y-4.034
X7.7465Y-2.134
X7.8465Y-2.134
X7.8465Y-4.034
X7.9465Y-2.134
X7.9465Y-4.034
X8.0465Y-2.134
X8.0465Y-4.034
X8.1465Y-2.134
X8.1465Y-4.034
X8.2465Y-2.134
X8.2465Y-4.034
X8.25Y-3.25
X8.25Y-3.35
X8.25Y-3.45
X8.25Y-3.55
X8.25Y-3.65
X8.3465Y-2.134
X8.3465Y-4.034
X8.35Y-3.25
X8.35Y-3.35
X8.35Y-3.45
X8.35Y-3.55
X8.35Y-3.65
T0
M30
