%FSLAX45Y45*%
G04 Gerber Fmt 4.5, Leading zero omitted, Abs format (unit mm)*
G04 Created by KiCad (PCBNEW (after 2015-mar-04 BZR unknown)-product) date Fri 28 Oct 2016 10:27:26 AM CEST*
%MOMM*%
G01*
G04 APERTURE LIST*
%ADD10C,0.127000*%
%ADD11C,0.100000*%
%ADD12C,0.200000*%
%ADD13C,0.300000*%
G04 APERTURE END LIST*
D10*
D11*
X14833600Y-10515600D02*
X14833600Y-5156200D01*
X21742400Y-10515600D02*
X14833600Y-10515600D01*
X21742400Y-5156200D02*
X21742400Y-10515600D01*
X14833600Y-5156200D02*
X21742400Y-5156200D01*
D12*
X16088360Y-10087610D02*
X16405860Y-10405110D01*
X16405860Y-10087610D02*
X16088360Y-10405110D01*
X16215360Y-5261610D02*
X16532860Y-5579110D01*
X16532860Y-5261610D02*
X16215360Y-5579110D01*
X21295360Y-6785610D02*
X21612860Y-7103110D01*
X21612860Y-6785610D02*
X21295360Y-7103110D01*
X21295360Y-9579610D02*
X21612860Y-9897110D01*
X21612860Y-9579610D02*
X21295360Y-9897110D01*
D13*
X15100028Y-10986314D02*
X15100028Y-10686314D01*
X15171457Y-10686314D01*
X15214314Y-10700600D01*
X15242886Y-10729172D01*
X15257171Y-10757743D01*
X15271457Y-10814886D01*
X15271457Y-10857743D01*
X15257171Y-10914886D01*
X15242886Y-10943457D01*
X15214314Y-10972029D01*
X15171457Y-10986314D01*
X15100028Y-10986314D01*
X15400028Y-10986314D02*
X15400028Y-10786314D01*
X15400028Y-10843457D02*
X15414314Y-10814886D01*
X15428600Y-10800600D01*
X15457171Y-10786314D01*
X15485743Y-10786314D01*
X15585743Y-10986314D02*
X15585743Y-10786314D01*
X15585743Y-10686314D02*
X15571457Y-10700600D01*
X15585743Y-10714886D01*
X15600028Y-10700600D01*
X15585743Y-10686314D01*
X15585743Y-10714886D01*
X15771457Y-10986314D02*
X15742886Y-10972029D01*
X15728600Y-10943457D01*
X15728600Y-10686314D01*
X15928600Y-10986314D02*
X15900028Y-10972029D01*
X15885743Y-10943457D01*
X15885743Y-10686314D01*
X16271457Y-10986314D02*
X16271457Y-10686314D01*
X16371457Y-10900600D01*
X16471457Y-10686314D01*
X16471457Y-10986314D01*
X16742886Y-10986314D02*
X16742886Y-10829172D01*
X16728600Y-10800600D01*
X16700028Y-10786314D01*
X16642886Y-10786314D01*
X16614314Y-10800600D01*
X16742886Y-10972029D02*
X16714314Y-10986314D01*
X16642886Y-10986314D01*
X16614314Y-10972029D01*
X16600028Y-10943457D01*
X16600028Y-10914886D01*
X16614314Y-10886314D01*
X16642886Y-10872029D01*
X16714314Y-10872029D01*
X16742886Y-10857743D01*
X16885743Y-10786314D02*
X16885743Y-11086314D01*
X16885743Y-10800600D02*
X16914314Y-10786314D01*
X16971457Y-10786314D01*
X17000029Y-10800600D01*
X17014314Y-10814886D01*
X17028600Y-10843457D01*
X17028600Y-10929172D01*
X17014314Y-10957743D01*
X17000029Y-10972029D01*
X16971457Y-10986314D01*
X16914314Y-10986314D01*
X16885743Y-10972029D01*
X17157171Y-10957743D02*
X17171457Y-10972029D01*
X17157171Y-10986314D01*
X17142886Y-10972029D01*
X17157171Y-10957743D01*
X17157171Y-10986314D01*
X17157171Y-10800600D02*
X17171457Y-10814886D01*
X17157171Y-10829172D01*
X17142886Y-10814886D01*
X17157171Y-10800600D01*
X17157171Y-10829172D01*
X14511100Y-11321850D02*
X14828600Y-11639350D01*
X14828600Y-11321850D02*
X14511100Y-11639350D01*
X15071457Y-11316314D02*
X15257171Y-11316314D01*
X15157171Y-11430600D01*
X15200028Y-11430600D01*
X15228600Y-11444886D01*
X15242886Y-11459171D01*
X15257171Y-11487743D01*
X15257171Y-11559171D01*
X15242886Y-11587743D01*
X15228600Y-11602029D01*
X15200028Y-11616314D01*
X15114314Y-11616314D01*
X15085743Y-11602029D01*
X15071457Y-11587743D01*
X15385743Y-11587743D02*
X15400028Y-11602029D01*
X15385743Y-11616314D01*
X15371457Y-11602029D01*
X15385743Y-11587743D01*
X15385743Y-11616314D01*
X15685743Y-11616314D02*
X15514314Y-11616314D01*
X15600028Y-11616314D02*
X15600028Y-11316314D01*
X15571457Y-11359171D01*
X15542886Y-11387743D01*
X15514314Y-11402029D01*
X15785743Y-11316314D02*
X15985743Y-11316314D01*
X15857171Y-11616314D01*
X16100028Y-11616314D02*
X16100028Y-11416314D01*
X16100028Y-11444886D02*
X16114314Y-11430600D01*
X16142886Y-11416314D01*
X16185743Y-11416314D01*
X16214314Y-11430600D01*
X16228600Y-11459171D01*
X16228600Y-11616314D01*
X16228600Y-11459171D02*
X16242886Y-11430600D01*
X16271457Y-11416314D01*
X16314314Y-11416314D01*
X16342886Y-11430600D01*
X16357171Y-11459171D01*
X16357171Y-11616314D01*
X16500028Y-11616314D02*
X16500028Y-11416314D01*
X16500028Y-11444886D02*
X16514314Y-11430600D01*
X16542886Y-11416314D01*
X16585743Y-11416314D01*
X16614314Y-11430600D01*
X16628600Y-11459171D01*
X16628600Y-11616314D01*
X16628600Y-11459171D02*
X16642886Y-11430600D01*
X16671457Y-11416314D01*
X16714314Y-11416314D01*
X16742886Y-11430600D01*
X16757171Y-11459171D01*
X16757171Y-11616314D01*
X17342886Y-11302029D02*
X17085743Y-11687743D01*
X17728600Y-11316314D02*
X17757171Y-11316314D01*
X17785743Y-11330600D01*
X17800028Y-11344886D01*
X17814314Y-11373457D01*
X17828600Y-11430600D01*
X17828600Y-11502029D01*
X17814314Y-11559171D01*
X17800028Y-11587743D01*
X17785743Y-11602029D01*
X17757171Y-11616314D01*
X17728600Y-11616314D01*
X17700028Y-11602029D01*
X17685743Y-11587743D01*
X17671457Y-11559171D01*
X17657171Y-11502029D01*
X17657171Y-11430600D01*
X17671457Y-11373457D01*
X17685743Y-11344886D01*
X17700028Y-11330600D01*
X17728600Y-11316314D01*
X17957171Y-11587743D02*
X17971457Y-11602029D01*
X17957171Y-11616314D01*
X17942886Y-11602029D01*
X17957171Y-11587743D01*
X17957171Y-11616314D01*
X18257171Y-11616314D02*
X18085743Y-11616314D01*
X18171457Y-11616314D02*
X18171457Y-11316314D01*
X18142886Y-11359171D01*
X18114314Y-11387743D01*
X18085743Y-11402029D01*
X18371457Y-11344886D02*
X18385743Y-11330600D01*
X18414314Y-11316314D01*
X18485743Y-11316314D01*
X18514314Y-11330600D01*
X18528600Y-11344886D01*
X18542886Y-11373457D01*
X18542886Y-11402029D01*
X18528600Y-11444886D01*
X18357171Y-11616314D01*
X18542886Y-11616314D01*
X18814314Y-11316314D02*
X18671457Y-11316314D01*
X18657171Y-11459171D01*
X18671457Y-11444886D01*
X18700028Y-11430600D01*
X18771457Y-11430600D01*
X18800028Y-11444886D01*
X18814314Y-11459171D01*
X18828600Y-11487743D01*
X18828600Y-11559171D01*
X18814314Y-11587743D01*
X18800028Y-11602029D01*
X18771457Y-11616314D01*
X18700028Y-11616314D01*
X18671457Y-11602029D01*
X18657171Y-11587743D01*
X18942886Y-11316314D02*
X18942886Y-11373457D01*
X19057171Y-11316314D02*
X19057171Y-11373457D01*
X19500028Y-11730600D02*
X19485743Y-11716314D01*
X19457171Y-11673457D01*
X19442886Y-11644886D01*
X19428600Y-11602029D01*
X19414314Y-11530600D01*
X19414314Y-11473457D01*
X19428600Y-11402029D01*
X19442886Y-11359171D01*
X19457171Y-11330600D01*
X19485743Y-11287743D01*
X19500028Y-11273457D01*
X19742886Y-11416314D02*
X19742886Y-11616314D01*
X19671457Y-11302029D02*
X19600028Y-11516314D01*
X19785743Y-11516314D01*
X20128600Y-11616314D02*
X20128600Y-11316314D01*
X20257171Y-11616314D02*
X20257171Y-11459171D01*
X20242886Y-11430600D01*
X20214314Y-11416314D01*
X20171457Y-11416314D01*
X20142886Y-11430600D01*
X20128600Y-11444886D01*
X20442886Y-11616314D02*
X20414314Y-11602029D01*
X20400028Y-11587743D01*
X20385743Y-11559171D01*
X20385743Y-11473457D01*
X20400028Y-11444886D01*
X20414314Y-11430600D01*
X20442886Y-11416314D01*
X20485743Y-11416314D01*
X20514314Y-11430600D01*
X20528600Y-11444886D01*
X20542886Y-11473457D01*
X20542886Y-11559171D01*
X20528600Y-11587743D01*
X20514314Y-11602029D01*
X20485743Y-11616314D01*
X20442886Y-11616314D01*
X20714314Y-11616314D02*
X20685743Y-11602029D01*
X20671457Y-11573457D01*
X20671457Y-11316314D01*
X20942886Y-11602029D02*
X20914314Y-11616314D01*
X20857171Y-11616314D01*
X20828600Y-11602029D01*
X20814314Y-11573457D01*
X20814314Y-11459171D01*
X20828600Y-11430600D01*
X20857171Y-11416314D01*
X20914314Y-11416314D01*
X20942886Y-11430600D01*
X20957171Y-11459171D01*
X20957171Y-11487743D01*
X20814314Y-11516314D01*
X21071457Y-11602029D02*
X21100029Y-11616314D01*
X21157171Y-11616314D01*
X21185743Y-11602029D01*
X21200029Y-11573457D01*
X21200029Y-11559171D01*
X21185743Y-11530600D01*
X21157171Y-11516314D01*
X21114314Y-11516314D01*
X21085743Y-11502029D01*
X21071457Y-11473457D01*
X21071457Y-11459171D01*
X21085743Y-11430600D01*
X21114314Y-11416314D01*
X21157171Y-11416314D01*
X21185743Y-11430600D01*
X21300028Y-11730600D02*
X21314314Y-11716314D01*
X21342886Y-11673457D01*
X21357171Y-11644886D01*
X21371457Y-11602029D01*
X21385743Y-11530600D01*
X21385743Y-11473457D01*
X21371457Y-11402029D01*
X21357171Y-11359171D01*
X21342886Y-11330600D01*
X21314314Y-11287743D01*
X21300028Y-11273457D01*
M02*
