G04 #@! TF.FileFunction,Copper,L2,Bot,Signal*
%FSLAX46Y46*%
G04 Gerber Fmt 4.6, Leading zero omitted, Abs format (unit mm)*
G04 Created by KiCad (PCBNEW (after 2015-mar-04 BZR unknown)-product) date Fri 28 Oct 2016 10:27:18 AM CEST*
%MOMM*%
G01*
G04 APERTURE LIST*
%ADD10C,0.100000*%
%ADD11C,0.970000*%
%ADD12O,1.524000X2.540000*%
%ADD13R,1.727200X1.727200*%
%ADD14O,1.727200X1.727200*%
%ADD15C,1.501140*%
%ADD16R,0.800000X0.750000*%
%ADD17R,0.750000X0.800000*%
%ADD18C,1.699260*%
%ADD19R,1.699260X1.699260*%
%ADD20O,1.998980X2.999740*%
%ADD21O,2.999740X1.998980*%
%ADD22C,1.998980*%
%ADD23R,2.286000X1.574800*%
%ADD24O,2.286000X1.574800*%
%ADD25C,0.250000*%
%ADD26C,1.000000*%
%ADD27C,0.254000*%
G04 APERTURE END LIST*
D10*
D11*
X169164000Y-68072000D03*
X160655000Y-66040000D03*
D12*
X212001100Y-102463600D03*
X209461100Y-102463600D03*
X206921100Y-102463600D03*
X199301100Y-102463600D03*
X201841100Y-102463600D03*
X204381100Y-102463600D03*
X194221100Y-102463600D03*
X191681100Y-102463600D03*
X189141100Y-102463600D03*
X184061100Y-102463600D03*
X181521100Y-102463600D03*
X212001100Y-54203600D03*
X209461100Y-54203600D03*
X206921100Y-54203600D03*
X204381100Y-54203600D03*
X201841100Y-54203600D03*
X199301100Y-54203600D03*
X196761100Y-54203600D03*
X194221100Y-54203600D03*
X190157100Y-54203600D03*
X187617100Y-54203600D03*
X185077100Y-54203600D03*
X182537100Y-54203600D03*
X179997100Y-54203600D03*
X177457100Y-54203600D03*
X174917100Y-54203600D03*
X172377100Y-54203600D03*
X186601100Y-102463600D03*
X169837100Y-54203600D03*
X167297100Y-54203600D03*
X178981100Y-102463600D03*
X176441100Y-102463600D03*
D13*
X155575000Y-96520000D03*
D14*
X153035000Y-96520000D03*
X155575000Y-93980000D03*
X153035000Y-93980000D03*
X155575000Y-91440000D03*
X153035000Y-91440000D03*
D13*
X155575000Y-80645000D03*
D14*
X153035000Y-80645000D03*
X155575000Y-78105000D03*
X153035000Y-78105000D03*
X155575000Y-75565000D03*
X153035000Y-75565000D03*
D13*
X155575000Y-65405000D03*
D14*
X153035000Y-65405000D03*
X155575000Y-62865000D03*
X153035000Y-62865000D03*
X155575000Y-60325000D03*
X153035000Y-60325000D03*
D15*
X194310000Y-93345000D03*
X191770000Y-93345000D03*
D16*
X187641800Y-98247200D03*
X189141800Y-98247200D03*
D17*
X158750000Y-96506600D03*
X158750000Y-98006600D03*
X172720000Y-79363000D03*
X172720000Y-77863000D03*
X207010000Y-81800000D03*
X207010000Y-83300000D03*
D18*
X207010000Y-69215000D03*
D19*
X207010000Y-79375000D03*
D20*
X165735000Y-80010000D03*
D21*
X163195000Y-82550000D03*
X168275000Y-82550000D03*
D22*
X193675000Y-69215000D03*
X193675000Y-59055000D03*
X197485000Y-69215000D03*
X197485000Y-59055000D03*
X201295000Y-69215000D03*
X201295000Y-79375000D03*
X169545000Y-88900000D03*
X159385000Y-88900000D03*
X158750000Y-75565000D03*
X168910000Y-75565000D03*
D16*
X171970000Y-62230000D03*
X173470000Y-62230000D03*
D18*
X166370000Y-72390000D03*
D19*
X166370000Y-62230000D03*
D18*
X163195000Y-72390000D03*
D19*
X163195000Y-62230000D03*
D22*
X169545000Y-62230000D03*
X169545000Y-72390000D03*
D23*
X175768000Y-64008000D03*
D24*
X175768000Y-66548000D03*
X175768000Y-69088000D03*
X175768000Y-71628000D03*
X175768000Y-74168000D03*
X175768000Y-76708000D03*
X175768000Y-79248000D03*
X175768000Y-81788000D03*
X175768000Y-84328000D03*
X175768000Y-86868000D03*
X183388000Y-86868000D03*
X183388000Y-84328000D03*
X183388000Y-81788000D03*
X183388000Y-79248000D03*
X183388000Y-76708000D03*
X183388000Y-74168000D03*
X183388000Y-71628000D03*
X183388000Y-69088000D03*
X183388000Y-66548000D03*
X183388000Y-64008000D03*
D11*
X164338000Y-67564000D03*
D25*
X153035000Y-99695000D02*
X182245000Y-99695000D01*
X182245000Y-99695000D02*
X201930000Y-80010000D01*
X153035000Y-96520000D02*
X153035000Y-99695000D01*
X161925000Y-93980000D02*
X164465000Y-96520000D01*
X164465000Y-96520000D02*
X182880000Y-96520000D01*
X182880000Y-96520000D02*
X197485000Y-81915000D01*
X197485000Y-81915000D02*
X197485000Y-69215000D01*
X155575000Y-93980000D02*
X161925000Y-93980000D01*
X193675000Y-83185000D02*
X182880000Y-93980000D01*
X182880000Y-93980000D02*
X167894000Y-93980000D01*
X167894000Y-93980000D02*
X158369000Y-84455000D01*
X158369000Y-84455000D02*
X150495000Y-84455000D01*
X150495000Y-84455000D02*
X150495000Y-93980000D01*
X150495000Y-93980000D02*
X153035000Y-93980000D01*
X193675000Y-69215000D02*
X193675000Y-83185000D01*
X153035000Y-88900000D02*
X154940000Y-88900000D01*
X154940000Y-88900000D02*
X159385000Y-88900000D01*
X153035000Y-91440000D02*
X153035000Y-88900000D01*
D26*
X164846000Y-68072000D02*
X169164000Y-68072000D01*
D25*
X169545000Y-62230000D02*
X171970000Y-62230000D01*
X186601100Y-99287900D02*
X187641800Y-98247200D01*
X186601100Y-102463600D02*
X186601100Y-99287900D01*
X158736600Y-96520000D02*
X158750000Y-96506600D01*
X155575000Y-96520000D02*
X158736600Y-96520000D01*
X175883000Y-79363000D02*
X175895000Y-79375000D01*
X172720000Y-79363000D02*
X175883000Y-79363000D01*
X207010000Y-79375000D02*
X207010000Y-81800000D01*
X175768000Y-66548000D02*
X176657000Y-66548000D01*
X176657000Y-66548000D02*
X179705000Y-63500000D01*
X179705000Y-63500000D02*
X179705000Y-61595000D01*
X179705000Y-61595000D02*
X187325000Y-61595000D01*
X187325000Y-61595000D02*
X190157100Y-58762900D01*
X190157100Y-58762900D02*
X190157100Y-54203600D01*
X155575000Y-80645000D02*
X156845000Y-80645000D01*
X190157100Y-84162900D02*
X190157100Y-54203600D01*
X182880000Y-91440000D02*
X190157100Y-84162900D01*
X167640000Y-91440000D02*
X182880000Y-91440000D01*
X156845000Y-80645000D02*
X167640000Y-91440000D01*
X163195000Y-72390000D02*
X166370000Y-72390000D01*
X166370000Y-72390000D02*
X169545000Y-72390000D01*
X155575000Y-78105000D02*
X163195000Y-78105000D01*
X163195000Y-78105000D02*
X163195000Y-72390000D01*
X155575000Y-75565000D02*
X158750000Y-75565000D01*
X155575000Y-65405000D02*
X156845000Y-65405000D01*
X174498000Y-74168000D02*
X175768000Y-74168000D01*
X169545000Y-69215000D02*
X174498000Y-74168000D01*
X160655000Y-69215000D02*
X169545000Y-69215000D01*
X156845000Y-65405000D02*
X160655000Y-69215000D01*
X155575000Y-62865000D02*
X160020000Y-62865000D01*
X175514000Y-71628000D02*
X175768000Y-71628000D01*
X170307000Y-66421000D02*
X175514000Y-71628000D01*
X163576000Y-66421000D02*
X170307000Y-66421000D01*
X160020000Y-62865000D02*
X163576000Y-66421000D01*
X166370000Y-62230000D02*
X166370000Y-64135000D01*
X175768000Y-69088000D02*
X175768000Y-69088000D01*
X171196000Y-64516000D02*
X175768000Y-69088000D01*
X166751000Y-64516000D02*
X171196000Y-64516000D01*
X166370000Y-64135000D02*
X166751000Y-64516000D01*
X196761100Y-58331100D02*
X197485000Y-59055000D01*
X196761100Y-54203600D02*
X196761100Y-58331100D01*
X194221100Y-58508900D02*
X193675000Y-59055000D01*
X194221100Y-54203600D02*
X194221100Y-58508900D01*
X178435000Y-86995000D02*
X178435000Y-74295000D01*
X178435000Y-74295000D02*
X183515000Y-74295000D01*
X175895000Y-86995000D02*
X178435000Y-86995000D01*
X184150000Y-86995000D02*
X186055000Y-85090000D01*
X186055000Y-85090000D02*
X186055000Y-76835000D01*
X186055000Y-76835000D02*
X183515000Y-76835000D01*
X183515000Y-86995000D02*
X184150000Y-86995000D01*
X186690000Y-71755000D02*
X186690000Y-75565000D01*
X186690000Y-75565000D02*
X180975000Y-75565000D01*
X180975000Y-75565000D02*
X180975000Y-84455000D01*
X180975000Y-84455000D02*
X183515000Y-84455000D01*
X183515000Y-71755000D02*
X186690000Y-71755000D01*
X168910000Y-80010000D02*
X168910000Y-75565000D01*
X165735000Y-80010000D02*
X168910000Y-80010000D01*
X168656000Y-88900000D02*
X169545000Y-88900000D01*
X163195000Y-82550000D02*
X168656000Y-88900000D01*
X206921100Y-54203600D02*
X206921100Y-55156100D01*
X204470000Y-69215000D02*
X207010000Y-69215000D01*
X201295000Y-69215000D02*
X204470000Y-69215000D01*
X206921100Y-59778900D02*
X204470000Y-62230000D01*
X204470000Y-62230000D02*
X204470000Y-69215000D01*
X206921100Y-54203600D02*
X206921100Y-59778900D01*
X184115456Y-59055000D02*
X184142455Y-59135354D01*
X163195000Y-62230000D02*
X163195000Y-59055000D01*
X184142455Y-59135354D02*
X187617100Y-54203600D01*
X163195000Y-59055000D02*
X184115456Y-59055000D01*
X163195000Y-59055000D02*
X163195000Y-59055000D01*
D27*
G36*
X174767198Y-72897999D02*
X174488812Y-73084010D01*
X170082401Y-68677599D01*
X169835839Y-68512852D01*
X169545000Y-68455000D01*
X160969801Y-68455000D01*
X157382401Y-64867599D01*
X157135839Y-64702852D01*
X157086040Y-64692946D01*
X157086040Y-64541400D01*
X157039063Y-64299277D01*
X156899273Y-64086473D01*
X156688240Y-63944023D01*
X156647340Y-63935820D01*
X156664029Y-63924670D01*
X156864262Y-63625000D01*
X159705198Y-63625000D01*
X163038599Y-66958401D01*
X163285160Y-67123148D01*
X163285161Y-67123148D01*
X163333413Y-67132746D01*
X163576000Y-67181000D01*
X169992198Y-67181000D01*
X174035473Y-71224275D01*
X173955167Y-71628000D01*
X174063441Y-72172329D01*
X174371778Y-72633789D01*
X174767198Y-72897999D01*
X174767198Y-72897999D01*
G37*
X174767198Y-72897999D02*
X174488812Y-73084010D01*
X170082401Y-68677599D01*
X169835839Y-68512852D01*
X169545000Y-68455000D01*
X160969801Y-68455000D01*
X157382401Y-64867599D01*
X157135839Y-64702852D01*
X157086040Y-64692946D01*
X157086040Y-64541400D01*
X157039063Y-64299277D01*
X156899273Y-64086473D01*
X156688240Y-63944023D01*
X156647340Y-63935820D01*
X156664029Y-63924670D01*
X156864262Y-63625000D01*
X159705198Y-63625000D01*
X163038599Y-66958401D01*
X163285160Y-67123148D01*
X163285161Y-67123148D01*
X163333413Y-67132746D01*
X163576000Y-67181000D01*
X169992198Y-67181000D01*
X174035473Y-71224275D01*
X173955167Y-71628000D01*
X174063441Y-72172329D01*
X174371778Y-72633789D01*
X174767198Y-72897999D01*
G36*
X189397100Y-83848098D02*
X187450000Y-85795198D01*
X187450000Y-75565000D01*
X187450000Y-71755000D01*
X187392148Y-71464161D01*
X187227401Y-71217599D01*
X186980839Y-71052852D01*
X186690000Y-70995000D01*
X185033311Y-70995000D01*
X184784222Y-70622211D01*
X184388801Y-70357999D01*
X184784222Y-70093789D01*
X185092559Y-69632329D01*
X185200833Y-69088000D01*
X185092559Y-68543671D01*
X184784222Y-68082211D01*
X184388801Y-67818000D01*
X184784222Y-67553789D01*
X185092559Y-67092329D01*
X185200833Y-66548000D01*
X185092559Y-66003671D01*
X184784222Y-65542211D01*
X184388801Y-65278000D01*
X184784222Y-65013789D01*
X185092559Y-64552329D01*
X185200833Y-64008000D01*
X185092559Y-63463671D01*
X184784222Y-63002211D01*
X184322762Y-62693874D01*
X183778433Y-62585600D01*
X182997567Y-62585600D01*
X182453238Y-62693874D01*
X181991778Y-63002211D01*
X181683441Y-63463671D01*
X181575167Y-64008000D01*
X181683441Y-64552329D01*
X181991778Y-65013789D01*
X182387198Y-65278000D01*
X181991778Y-65542211D01*
X181683441Y-66003671D01*
X181575167Y-66548000D01*
X181683441Y-67092329D01*
X181991778Y-67553789D01*
X182387198Y-67818000D01*
X181991778Y-68082211D01*
X181683441Y-68543671D01*
X181575167Y-69088000D01*
X181683441Y-69632329D01*
X181991778Y-70093789D01*
X182387198Y-70357999D01*
X181991778Y-70622211D01*
X181683441Y-71083671D01*
X181575167Y-71628000D01*
X181683441Y-72172329D01*
X181991778Y-72633789D01*
X182387198Y-72897999D01*
X181991778Y-73162211D01*
X181742688Y-73535000D01*
X178435000Y-73535000D01*
X178144161Y-73592852D01*
X177897599Y-73757599D01*
X177732852Y-74004161D01*
X177675000Y-74295000D01*
X177675000Y-86235000D01*
X177580833Y-86235000D01*
X177580833Y-81788000D01*
X177472559Y-81243671D01*
X177164222Y-80782211D01*
X176768801Y-80517999D01*
X177164222Y-80253789D01*
X177472559Y-79792329D01*
X177580833Y-79248000D01*
X177472559Y-78703671D01*
X177164222Y-78242211D01*
X176769170Y-77978246D01*
X176785262Y-77973525D01*
X177219191Y-77623986D01*
X177486327Y-77134996D01*
X177503010Y-77055060D01*
X177380852Y-76835000D01*
X175895000Y-76835000D01*
X175895000Y-76855000D01*
X175641000Y-76855000D01*
X175641000Y-76835000D01*
X174155148Y-76835000D01*
X174032990Y-77055060D01*
X174049673Y-77134996D01*
X174316809Y-77623986D01*
X174750738Y-77973525D01*
X174766829Y-77978246D01*
X174371778Y-78242211D01*
X174130707Y-78603000D01*
X173641486Y-78603000D01*
X173730000Y-78389309D01*
X173730000Y-78148750D01*
X173730000Y-77577250D01*
X173730000Y-77336691D01*
X173633327Y-77103302D01*
X173454699Y-76924673D01*
X173221310Y-76828000D01*
X173005750Y-76828000D01*
X172847000Y-76986750D01*
X172847000Y-77736000D01*
X173571250Y-77736000D01*
X173730000Y-77577250D01*
X173730000Y-78148750D01*
X173571250Y-77990000D01*
X172847000Y-77990000D01*
X172847000Y-78010000D01*
X172593000Y-78010000D01*
X172593000Y-77990000D01*
X172593000Y-77736000D01*
X172593000Y-76986750D01*
X172434250Y-76828000D01*
X172218690Y-76828000D01*
X171985301Y-76924673D01*
X171806673Y-77103302D01*
X171710000Y-77336691D01*
X171710000Y-77577250D01*
X171868750Y-77736000D01*
X172593000Y-77736000D01*
X172593000Y-77990000D01*
X171868750Y-77990000D01*
X171710000Y-78148750D01*
X171710000Y-78389309D01*
X171806673Y-78622698D01*
X171807955Y-78623980D01*
X171747623Y-78713360D01*
X171697560Y-78963000D01*
X171697560Y-79763000D01*
X171744537Y-80005123D01*
X171884327Y-80217927D01*
X172095360Y-80360377D01*
X172345000Y-80410440D01*
X173095000Y-80410440D01*
X173337123Y-80363463D01*
X173549927Y-80223673D01*
X173617882Y-80123000D01*
X174284387Y-80123000D01*
X174371778Y-80253789D01*
X174767198Y-80517999D01*
X174371778Y-80782211D01*
X174063441Y-81243671D01*
X173955167Y-81788000D01*
X174063441Y-82332329D01*
X174371778Y-82793789D01*
X174766829Y-83057753D01*
X174750738Y-83062475D01*
X174316809Y-83412014D01*
X174049673Y-83901004D01*
X174032990Y-83980940D01*
X174155148Y-84201000D01*
X175641000Y-84201000D01*
X175641000Y-84181000D01*
X175895000Y-84181000D01*
X175895000Y-84201000D01*
X177380852Y-84201000D01*
X177503010Y-83980940D01*
X177486327Y-83901004D01*
X177219191Y-83412014D01*
X176785262Y-83062475D01*
X176769170Y-83057753D01*
X177164222Y-82793789D01*
X177472559Y-82332329D01*
X177580833Y-81788000D01*
X177580833Y-86235000D01*
X177413311Y-86235000D01*
X177164222Y-85862211D01*
X176769170Y-85598246D01*
X176785262Y-85593525D01*
X177219191Y-85243986D01*
X177486327Y-84754996D01*
X177503010Y-84675060D01*
X177380852Y-84455000D01*
X175895000Y-84455000D01*
X175895000Y-84475000D01*
X175641000Y-84475000D01*
X175641000Y-84455000D01*
X174155148Y-84455000D01*
X174032990Y-84675060D01*
X174049673Y-84754996D01*
X174316809Y-85243986D01*
X174750738Y-85593525D01*
X174766829Y-85598246D01*
X174371778Y-85862211D01*
X174063441Y-86323671D01*
X173955167Y-86868000D01*
X174063441Y-87412329D01*
X174371778Y-87873789D01*
X174833238Y-88182126D01*
X175377567Y-88290400D01*
X176158433Y-88290400D01*
X176702762Y-88182126D01*
X177164222Y-87873789D01*
X177243594Y-87755000D01*
X178435000Y-87755000D01*
X178725839Y-87697148D01*
X178972401Y-87532401D01*
X179137148Y-87285839D01*
X179195000Y-86995000D01*
X179195000Y-75055000D01*
X180419290Y-75055000D01*
X180272852Y-75274161D01*
X180215000Y-75565000D01*
X180215000Y-84455000D01*
X180272852Y-84745839D01*
X180437599Y-84992401D01*
X180684161Y-85157148D01*
X180975000Y-85215000D01*
X181912405Y-85215000D01*
X181991778Y-85333789D01*
X182387198Y-85597999D01*
X181991778Y-85862211D01*
X181683441Y-86323671D01*
X181575167Y-86868000D01*
X181683441Y-87412329D01*
X181991778Y-87873789D01*
X182453238Y-88182126D01*
X182997567Y-88290400D01*
X183778433Y-88290400D01*
X184322762Y-88182126D01*
X184784222Y-87873789D01*
X185092559Y-87412329D01*
X185163346Y-87056455D01*
X186592401Y-85627401D01*
X186757148Y-85380839D01*
X186815000Y-85090000D01*
X186815000Y-76835000D01*
X186757148Y-76544161D01*
X186610709Y-76325000D01*
X186690000Y-76325000D01*
X186980839Y-76267148D01*
X187227401Y-76102401D01*
X187392148Y-75855839D01*
X187450000Y-75565000D01*
X187450000Y-85795198D01*
X182565198Y-90680000D01*
X167954802Y-90680000D01*
X157382401Y-80107599D01*
X157135839Y-79942852D01*
X157086040Y-79932946D01*
X157086040Y-79781400D01*
X157039063Y-79539277D01*
X156899273Y-79326473D01*
X156688240Y-79184023D01*
X156647340Y-79175820D01*
X156664029Y-79164670D01*
X156864262Y-78865000D01*
X163195000Y-78865000D01*
X163485839Y-78807148D01*
X163732401Y-78642401D01*
X163897148Y-78395839D01*
X163955000Y-78105000D01*
X163955000Y-73682346D01*
X164034877Y-73649342D01*
X164452874Y-73232074D01*
X164486954Y-73150000D01*
X165077653Y-73150000D01*
X165110658Y-73229877D01*
X165527926Y-73647874D01*
X166073393Y-73874372D01*
X166664016Y-73874888D01*
X167209877Y-73649342D01*
X167627874Y-73232074D01*
X167661954Y-73150000D01*
X168090503Y-73150000D01*
X168158538Y-73314655D01*
X168617927Y-73774846D01*
X168992979Y-73930581D01*
X168586306Y-73930226D01*
X167985345Y-74178538D01*
X167525154Y-74637927D01*
X167275794Y-75238453D01*
X167275226Y-75888694D01*
X167523538Y-76489655D01*
X167982927Y-76949846D01*
X168150000Y-77019220D01*
X168150000Y-79250000D01*
X167326167Y-79250000D01*
X167245072Y-78842303D01*
X166890759Y-78312036D01*
X166360492Y-77957723D01*
X165735000Y-77833305D01*
X165109508Y-77957723D01*
X164579241Y-78312036D01*
X164224928Y-78842303D01*
X164100510Y-79467795D01*
X164100510Y-80552205D01*
X164190719Y-81005719D01*
X163737205Y-80915510D01*
X162652795Y-80915510D01*
X162027303Y-81039928D01*
X161497036Y-81394241D01*
X161142723Y-81924508D01*
X161018305Y-82550000D01*
X161142723Y-83175492D01*
X161497036Y-83705759D01*
X162027303Y-84060072D01*
X162652795Y-84184490D01*
X163598267Y-84184490D01*
X167910248Y-89198421D01*
X167910226Y-89223694D01*
X168158538Y-89824655D01*
X168617927Y-90284846D01*
X169218453Y-90534206D01*
X169868694Y-90534774D01*
X170469655Y-90286462D01*
X170929846Y-89827073D01*
X171179206Y-89226547D01*
X171179774Y-88576306D01*
X170931462Y-87975345D01*
X170472073Y-87515154D01*
X170364999Y-87470693D01*
X170364999Y-82930354D01*
X170364999Y-82169646D01*
X170334053Y-82041841D01*
X170020942Y-81484044D01*
X169518205Y-81088529D01*
X168902380Y-80915510D01*
X168402000Y-80915510D01*
X168402000Y-82423000D01*
X170245645Y-82423000D01*
X170364999Y-82169646D01*
X170364999Y-82930354D01*
X170245645Y-82677000D01*
X168402000Y-82677000D01*
X168402000Y-84184490D01*
X168902380Y-84184490D01*
X169518205Y-84011471D01*
X170020942Y-83615956D01*
X170334053Y-83058159D01*
X170364999Y-82930354D01*
X170364999Y-87470693D01*
X169871547Y-87265794D01*
X169221306Y-87265226D01*
X168620345Y-87513538D01*
X168537316Y-87596422D01*
X168148000Y-87143728D01*
X168148000Y-84184490D01*
X168148000Y-82677000D01*
X166304355Y-82677000D01*
X166185001Y-82930354D01*
X166215947Y-83058159D01*
X166529058Y-83615956D01*
X167031795Y-84011471D01*
X167647620Y-84184490D01*
X168148000Y-84184490D01*
X168148000Y-87143728D01*
X165023428Y-83510505D01*
X165247277Y-83175492D01*
X165371695Y-82550000D01*
X165281485Y-82096485D01*
X165735000Y-82186695D01*
X166203434Y-82093517D01*
X166185001Y-82169646D01*
X166304355Y-82423000D01*
X168148000Y-82423000D01*
X168148000Y-80915510D01*
X167647620Y-80915510D01*
X167276483Y-81019782D01*
X167326167Y-80770000D01*
X168910000Y-80770000D01*
X169200839Y-80712148D01*
X169447401Y-80547401D01*
X169612148Y-80300839D01*
X169670000Y-80010000D01*
X169670000Y-77019496D01*
X169834655Y-76951462D01*
X170294846Y-76492073D01*
X170544206Y-75891547D01*
X170544774Y-75241306D01*
X170296462Y-74640345D01*
X169837073Y-74180154D01*
X169462020Y-74024418D01*
X169868694Y-74024774D01*
X170469655Y-73776462D01*
X170929846Y-73317073D01*
X171179206Y-72716547D01*
X171179774Y-72066306D01*
X171079977Y-71824779D01*
X173960599Y-74705401D01*
X174138025Y-74823953D01*
X174371778Y-75173789D01*
X174766829Y-75437753D01*
X174750738Y-75442475D01*
X174316809Y-75792014D01*
X174049673Y-76281004D01*
X174032990Y-76360940D01*
X174155148Y-76581000D01*
X175641000Y-76581000D01*
X175641000Y-76561000D01*
X175895000Y-76561000D01*
X175895000Y-76581000D01*
X177380852Y-76581000D01*
X177503010Y-76360940D01*
X177486327Y-76281004D01*
X177219191Y-75792014D01*
X176785262Y-75442475D01*
X176769170Y-75437753D01*
X177164222Y-75173789D01*
X177472559Y-74712329D01*
X177580833Y-74168000D01*
X177472559Y-73623671D01*
X177164222Y-73162211D01*
X176768801Y-72897999D01*
X177164222Y-72633789D01*
X177472559Y-72172329D01*
X177580833Y-71628000D01*
X177472559Y-71083671D01*
X177164222Y-70622211D01*
X176768801Y-70358000D01*
X177164222Y-70093789D01*
X177472559Y-69632329D01*
X177580833Y-69088000D01*
X177472559Y-68543671D01*
X177164222Y-68082211D01*
X176768801Y-67818000D01*
X177164222Y-67553789D01*
X177472559Y-67092329D01*
X177543346Y-66736455D01*
X180242401Y-64037401D01*
X180407148Y-63790839D01*
X180465000Y-63500000D01*
X180465000Y-62355000D01*
X187325000Y-62355000D01*
X187615839Y-62297148D01*
X187862401Y-62132401D01*
X189397100Y-60597702D01*
X189397100Y-83848098D01*
X189397100Y-83848098D01*
G37*
X189397100Y-83848098D02*
X187450000Y-85795198D01*
X187450000Y-75565000D01*
X187450000Y-71755000D01*
X187392148Y-71464161D01*
X187227401Y-71217599D01*
X186980839Y-71052852D01*
X186690000Y-70995000D01*
X185033311Y-70995000D01*
X184784222Y-70622211D01*
X184388801Y-70357999D01*
X184784222Y-70093789D01*
X185092559Y-69632329D01*
X185200833Y-69088000D01*
X185092559Y-68543671D01*
X184784222Y-68082211D01*
X184388801Y-67818000D01*
X184784222Y-67553789D01*
X185092559Y-67092329D01*
X185200833Y-66548000D01*
X185092559Y-66003671D01*
X184784222Y-65542211D01*
X184388801Y-65278000D01*
X184784222Y-65013789D01*
X185092559Y-64552329D01*
X185200833Y-64008000D01*
X185092559Y-63463671D01*
X184784222Y-63002211D01*
X184322762Y-62693874D01*
X183778433Y-62585600D01*
X182997567Y-62585600D01*
X182453238Y-62693874D01*
X181991778Y-63002211D01*
X181683441Y-63463671D01*
X181575167Y-64008000D01*
X181683441Y-64552329D01*
X181991778Y-65013789D01*
X182387198Y-65278000D01*
X181991778Y-65542211D01*
X181683441Y-66003671D01*
X181575167Y-66548000D01*
X181683441Y-67092329D01*
X181991778Y-67553789D01*
X182387198Y-67818000D01*
X181991778Y-68082211D01*
X181683441Y-68543671D01*
X181575167Y-69088000D01*
X181683441Y-69632329D01*
X181991778Y-70093789D01*
X182387198Y-70357999D01*
X181991778Y-70622211D01*
X181683441Y-71083671D01*
X181575167Y-71628000D01*
X181683441Y-72172329D01*
X181991778Y-72633789D01*
X182387198Y-72897999D01*
X181991778Y-73162211D01*
X181742688Y-73535000D01*
X178435000Y-73535000D01*
X178144161Y-73592852D01*
X177897599Y-73757599D01*
X177732852Y-74004161D01*
X177675000Y-74295000D01*
X177675000Y-86235000D01*
X177580833Y-86235000D01*
X177580833Y-81788000D01*
X177472559Y-81243671D01*
X177164222Y-80782211D01*
X176768801Y-80517999D01*
X177164222Y-80253789D01*
X177472559Y-79792329D01*
X177580833Y-79248000D01*
X177472559Y-78703671D01*
X177164222Y-78242211D01*
X176769170Y-77978246D01*
X176785262Y-77973525D01*
X177219191Y-77623986D01*
X177486327Y-77134996D01*
X177503010Y-77055060D01*
X177380852Y-76835000D01*
X175895000Y-76835000D01*
X175895000Y-76855000D01*
X175641000Y-76855000D01*
X175641000Y-76835000D01*
X174155148Y-76835000D01*
X174032990Y-77055060D01*
X174049673Y-77134996D01*
X174316809Y-77623986D01*
X174750738Y-77973525D01*
X174766829Y-77978246D01*
X174371778Y-78242211D01*
X174130707Y-78603000D01*
X173641486Y-78603000D01*
X173730000Y-78389309D01*
X173730000Y-78148750D01*
X173730000Y-77577250D01*
X173730000Y-77336691D01*
X173633327Y-77103302D01*
X173454699Y-76924673D01*
X173221310Y-76828000D01*
X173005750Y-76828000D01*
X172847000Y-76986750D01*
X172847000Y-77736000D01*
X173571250Y-77736000D01*
X173730000Y-77577250D01*
X173730000Y-78148750D01*
X173571250Y-77990000D01*
X172847000Y-77990000D01*
X172847000Y-78010000D01*
X172593000Y-78010000D01*
X172593000Y-77990000D01*
X172593000Y-77736000D01*
X172593000Y-76986750D01*
X172434250Y-76828000D01*
X172218690Y-76828000D01*
X171985301Y-76924673D01*
X171806673Y-77103302D01*
X171710000Y-77336691D01*
X171710000Y-77577250D01*
X171868750Y-77736000D01*
X172593000Y-77736000D01*
X172593000Y-77990000D01*
X171868750Y-77990000D01*
X171710000Y-78148750D01*
X171710000Y-78389309D01*
X171806673Y-78622698D01*
X171807955Y-78623980D01*
X171747623Y-78713360D01*
X171697560Y-78963000D01*
X171697560Y-79763000D01*
X171744537Y-80005123D01*
X171884327Y-80217927D01*
X172095360Y-80360377D01*
X172345000Y-80410440D01*
X173095000Y-80410440D01*
X173337123Y-80363463D01*
X173549927Y-80223673D01*
X173617882Y-80123000D01*
X174284387Y-80123000D01*
X174371778Y-80253789D01*
X174767198Y-80517999D01*
X174371778Y-80782211D01*
X174063441Y-81243671D01*
X173955167Y-81788000D01*
X174063441Y-82332329D01*
X174371778Y-82793789D01*
X174766829Y-83057753D01*
X174750738Y-83062475D01*
X174316809Y-83412014D01*
X174049673Y-83901004D01*
X174032990Y-83980940D01*
X174155148Y-84201000D01*
X175641000Y-84201000D01*
X175641000Y-84181000D01*
X175895000Y-84181000D01*
X175895000Y-84201000D01*
X177380852Y-84201000D01*
X177503010Y-83980940D01*
X177486327Y-83901004D01*
X177219191Y-83412014D01*
X176785262Y-83062475D01*
X176769170Y-83057753D01*
X177164222Y-82793789D01*
X177472559Y-82332329D01*
X177580833Y-81788000D01*
X177580833Y-86235000D01*
X177413311Y-86235000D01*
X177164222Y-85862211D01*
X176769170Y-85598246D01*
X176785262Y-85593525D01*
X177219191Y-85243986D01*
X177486327Y-84754996D01*
X177503010Y-84675060D01*
X177380852Y-84455000D01*
X175895000Y-84455000D01*
X175895000Y-84475000D01*
X175641000Y-84475000D01*
X175641000Y-84455000D01*
X174155148Y-84455000D01*
X174032990Y-84675060D01*
X174049673Y-84754996D01*
X174316809Y-85243986D01*
X174750738Y-85593525D01*
X174766829Y-85598246D01*
X174371778Y-85862211D01*
X174063441Y-86323671D01*
X173955167Y-86868000D01*
X174063441Y-87412329D01*
X174371778Y-87873789D01*
X174833238Y-88182126D01*
X175377567Y-88290400D01*
X176158433Y-88290400D01*
X176702762Y-88182126D01*
X177164222Y-87873789D01*
X177243594Y-87755000D01*
X178435000Y-87755000D01*
X178725839Y-87697148D01*
X178972401Y-87532401D01*
X179137148Y-87285839D01*
X179195000Y-86995000D01*
X179195000Y-75055000D01*
X180419290Y-75055000D01*
X180272852Y-75274161D01*
X180215000Y-75565000D01*
X180215000Y-84455000D01*
X180272852Y-84745839D01*
X180437599Y-84992401D01*
X180684161Y-85157148D01*
X180975000Y-85215000D01*
X181912405Y-85215000D01*
X181991778Y-85333789D01*
X182387198Y-85597999D01*
X181991778Y-85862211D01*
X181683441Y-86323671D01*
X181575167Y-86868000D01*
X181683441Y-87412329D01*
X181991778Y-87873789D01*
X182453238Y-88182126D01*
X182997567Y-88290400D01*
X183778433Y-88290400D01*
X184322762Y-88182126D01*
X184784222Y-87873789D01*
X185092559Y-87412329D01*
X185163346Y-87056455D01*
X186592401Y-85627401D01*
X186757148Y-85380839D01*
X186815000Y-85090000D01*
X186815000Y-76835000D01*
X186757148Y-76544161D01*
X186610709Y-76325000D01*
X186690000Y-76325000D01*
X186980839Y-76267148D01*
X187227401Y-76102401D01*
X187392148Y-75855839D01*
X187450000Y-75565000D01*
X187450000Y-85795198D01*
X182565198Y-90680000D01*
X167954802Y-90680000D01*
X157382401Y-80107599D01*
X157135839Y-79942852D01*
X157086040Y-79932946D01*
X157086040Y-79781400D01*
X157039063Y-79539277D01*
X156899273Y-79326473D01*
X156688240Y-79184023D01*
X156647340Y-79175820D01*
X156664029Y-79164670D01*
X156864262Y-78865000D01*
X163195000Y-78865000D01*
X163485839Y-78807148D01*
X163732401Y-78642401D01*
X163897148Y-78395839D01*
X163955000Y-78105000D01*
X163955000Y-73682346D01*
X164034877Y-73649342D01*
X164452874Y-73232074D01*
X164486954Y-73150000D01*
X165077653Y-73150000D01*
X165110658Y-73229877D01*
X165527926Y-73647874D01*
X166073393Y-73874372D01*
X166664016Y-73874888D01*
X167209877Y-73649342D01*
X167627874Y-73232074D01*
X167661954Y-73150000D01*
X168090503Y-73150000D01*
X168158538Y-73314655D01*
X168617927Y-73774846D01*
X168992979Y-73930581D01*
X168586306Y-73930226D01*
X167985345Y-74178538D01*
X167525154Y-74637927D01*
X167275794Y-75238453D01*
X167275226Y-75888694D01*
X167523538Y-76489655D01*
X167982927Y-76949846D01*
X168150000Y-77019220D01*
X168150000Y-79250000D01*
X167326167Y-79250000D01*
X167245072Y-78842303D01*
X166890759Y-78312036D01*
X166360492Y-77957723D01*
X165735000Y-77833305D01*
X165109508Y-77957723D01*
X164579241Y-78312036D01*
X164224928Y-78842303D01*
X164100510Y-79467795D01*
X164100510Y-80552205D01*
X164190719Y-81005719D01*
X163737205Y-80915510D01*
X162652795Y-80915510D01*
X162027303Y-81039928D01*
X161497036Y-81394241D01*
X161142723Y-81924508D01*
X161018305Y-82550000D01*
X161142723Y-83175492D01*
X161497036Y-83705759D01*
X162027303Y-84060072D01*
X162652795Y-84184490D01*
X163598267Y-84184490D01*
X167910248Y-89198421D01*
X167910226Y-89223694D01*
X168158538Y-89824655D01*
X168617927Y-90284846D01*
X169218453Y-90534206D01*
X169868694Y-90534774D01*
X170469655Y-90286462D01*
X170929846Y-89827073D01*
X171179206Y-89226547D01*
X171179774Y-88576306D01*
X170931462Y-87975345D01*
X170472073Y-87515154D01*
X170364999Y-87470693D01*
X170364999Y-82930354D01*
X170364999Y-82169646D01*
X170334053Y-82041841D01*
X170020942Y-81484044D01*
X169518205Y-81088529D01*
X168902380Y-80915510D01*
X168402000Y-80915510D01*
X168402000Y-82423000D01*
X170245645Y-82423000D01*
X170364999Y-82169646D01*
X170364999Y-82930354D01*
X170245645Y-82677000D01*
X168402000Y-82677000D01*
X168402000Y-84184490D01*
X168902380Y-84184490D01*
X169518205Y-84011471D01*
X170020942Y-83615956D01*
X170334053Y-83058159D01*
X170364999Y-82930354D01*
X170364999Y-87470693D01*
X169871547Y-87265794D01*
X169221306Y-87265226D01*
X168620345Y-87513538D01*
X168537316Y-87596422D01*
X168148000Y-87143728D01*
X168148000Y-84184490D01*
X168148000Y-82677000D01*
X166304355Y-82677000D01*
X166185001Y-82930354D01*
X166215947Y-83058159D01*
X166529058Y-83615956D01*
X167031795Y-84011471D01*
X167647620Y-84184490D01*
X168148000Y-84184490D01*
X168148000Y-87143728D01*
X165023428Y-83510505D01*
X165247277Y-83175492D01*
X165371695Y-82550000D01*
X165281485Y-82096485D01*
X165735000Y-82186695D01*
X166203434Y-82093517D01*
X166185001Y-82169646D01*
X166304355Y-82423000D01*
X168148000Y-82423000D01*
X168148000Y-80915510D01*
X167647620Y-80915510D01*
X167276483Y-81019782D01*
X167326167Y-80770000D01*
X168910000Y-80770000D01*
X169200839Y-80712148D01*
X169447401Y-80547401D01*
X169612148Y-80300839D01*
X169670000Y-80010000D01*
X169670000Y-77019496D01*
X169834655Y-76951462D01*
X170294846Y-76492073D01*
X170544206Y-75891547D01*
X170544774Y-75241306D01*
X170296462Y-74640345D01*
X169837073Y-74180154D01*
X169462020Y-74024418D01*
X169868694Y-74024774D01*
X170469655Y-73776462D01*
X170929846Y-73317073D01*
X171179206Y-72716547D01*
X171179774Y-72066306D01*
X171079977Y-71824779D01*
X173960599Y-74705401D01*
X174138025Y-74823953D01*
X174371778Y-75173789D01*
X174766829Y-75437753D01*
X174750738Y-75442475D01*
X174316809Y-75792014D01*
X174049673Y-76281004D01*
X174032990Y-76360940D01*
X174155148Y-76581000D01*
X175641000Y-76581000D01*
X175641000Y-76561000D01*
X175895000Y-76561000D01*
X175895000Y-76581000D01*
X177380852Y-76581000D01*
X177503010Y-76360940D01*
X177486327Y-76281004D01*
X177219191Y-75792014D01*
X176785262Y-75442475D01*
X176769170Y-75437753D01*
X177164222Y-75173789D01*
X177472559Y-74712329D01*
X177580833Y-74168000D01*
X177472559Y-73623671D01*
X177164222Y-73162211D01*
X176768801Y-72897999D01*
X177164222Y-72633789D01*
X177472559Y-72172329D01*
X177580833Y-71628000D01*
X177472559Y-71083671D01*
X177164222Y-70622211D01*
X176768801Y-70358000D01*
X177164222Y-70093789D01*
X177472559Y-69632329D01*
X177580833Y-69088000D01*
X177472559Y-68543671D01*
X177164222Y-68082211D01*
X176768801Y-67818000D01*
X177164222Y-67553789D01*
X177472559Y-67092329D01*
X177543346Y-66736455D01*
X180242401Y-64037401D01*
X180407148Y-63790839D01*
X180465000Y-63500000D01*
X180465000Y-62355000D01*
X187325000Y-62355000D01*
X187615839Y-62297148D01*
X187862401Y-62132401D01*
X189397100Y-60597702D01*
X189397100Y-83848098D01*
G36*
X216739000Y-104471000D02*
X213398100Y-104471000D01*
X213398100Y-103008921D01*
X213398100Y-101918279D01*
X213291760Y-101383670D01*
X212988928Y-100930451D01*
X212535709Y-100627619D01*
X212001100Y-100521279D01*
X211466491Y-100627619D01*
X211013272Y-100930451D01*
X210731100Y-101352750D01*
X210448928Y-100930451D01*
X209995709Y-100627619D01*
X209461100Y-100521279D01*
X208926491Y-100627619D01*
X208507070Y-100907867D01*
X208507070Y-80224630D01*
X208507070Y-78525370D01*
X208460093Y-78283247D01*
X208320303Y-78070443D01*
X208109270Y-77927993D01*
X207859630Y-77877930D01*
X206160370Y-77877930D01*
X205918247Y-77924907D01*
X205705443Y-78064697D01*
X205562993Y-78275730D01*
X205512930Y-78525370D01*
X205512930Y-80224630D01*
X205559907Y-80466753D01*
X205699697Y-80679557D01*
X205910730Y-80822007D01*
X206160370Y-80872070D01*
X206250000Y-80872070D01*
X206250000Y-80893392D01*
X206180073Y-80939327D01*
X206037623Y-81150360D01*
X205987560Y-81400000D01*
X205987560Y-82200000D01*
X206034537Y-82442123D01*
X206098095Y-82538879D01*
X206096673Y-82540302D01*
X206000000Y-82773691D01*
X206000000Y-83014250D01*
X206158750Y-83173000D01*
X206883000Y-83173000D01*
X206883000Y-83153000D01*
X207137000Y-83153000D01*
X207137000Y-83173000D01*
X207861250Y-83173000D01*
X208020000Y-83014250D01*
X208020000Y-82773691D01*
X207923327Y-82540302D01*
X207922044Y-82539019D01*
X207982377Y-82449640D01*
X208032440Y-82200000D01*
X208032440Y-81400000D01*
X207985463Y-81157877D01*
X207845673Y-80945073D01*
X207770000Y-80893992D01*
X207770000Y-80872070D01*
X207859630Y-80872070D01*
X208101753Y-80825093D01*
X208314557Y-80685303D01*
X208457007Y-80474270D01*
X208507070Y-80224630D01*
X208507070Y-100907867D01*
X208473272Y-100930451D01*
X208191100Y-101352750D01*
X208020000Y-101096681D01*
X208020000Y-83826309D01*
X208020000Y-83585750D01*
X207861250Y-83427000D01*
X207137000Y-83427000D01*
X207137000Y-84176250D01*
X207295750Y-84335000D01*
X207511310Y-84335000D01*
X207744699Y-84238327D01*
X207923327Y-84059698D01*
X208020000Y-83826309D01*
X208020000Y-101096681D01*
X207908928Y-100930451D01*
X207455709Y-100627619D01*
X206921100Y-100521279D01*
X206883000Y-100528857D01*
X206883000Y-84176250D01*
X206883000Y-83427000D01*
X206158750Y-83427000D01*
X206000000Y-83585750D01*
X206000000Y-83826309D01*
X206096673Y-84059698D01*
X206275301Y-84238327D01*
X206508690Y-84335000D01*
X206724250Y-84335000D01*
X206883000Y-84176250D01*
X206883000Y-100528857D01*
X206386491Y-100627619D01*
X205933272Y-100930451D01*
X205651100Y-101352750D01*
X205368928Y-100930451D01*
X204915709Y-100627619D01*
X204381100Y-100521279D01*
X203846491Y-100627619D01*
X203393272Y-100930451D01*
X203111100Y-101352750D01*
X202828928Y-100930451D01*
X202375709Y-100627619D01*
X201841100Y-100521279D01*
X201306491Y-100627619D01*
X200853272Y-100930451D01*
X200571100Y-101352750D01*
X200288928Y-100930451D01*
X199835709Y-100627619D01*
X199301100Y-100521279D01*
X198766491Y-100627619D01*
X198313272Y-100930451D01*
X198010440Y-101383670D01*
X197904100Y-101918279D01*
X197904100Y-103008921D01*
X198010440Y-103543530D01*
X198313272Y-103996749D01*
X198766491Y-104299581D01*
X199301100Y-104405921D01*
X199835709Y-104299581D01*
X200288928Y-103996749D01*
X200571100Y-103574449D01*
X200853272Y-103996749D01*
X201306491Y-104299581D01*
X201841100Y-104405921D01*
X202375709Y-104299581D01*
X202828928Y-103996749D01*
X203111100Y-103574449D01*
X203393272Y-103996749D01*
X203846491Y-104299581D01*
X204381100Y-104405921D01*
X204915709Y-104299581D01*
X205368928Y-103996749D01*
X205651100Y-103574449D01*
X205933272Y-103996749D01*
X206386491Y-104299581D01*
X206921100Y-104405921D01*
X207455709Y-104299581D01*
X207908928Y-103996749D01*
X208191100Y-103574449D01*
X208473272Y-103996749D01*
X208926491Y-104299581D01*
X209461100Y-104405921D01*
X209995709Y-104299581D01*
X210448928Y-103996749D01*
X210731100Y-103574449D01*
X211013272Y-103996749D01*
X211466491Y-104299581D01*
X212001100Y-104405921D01*
X212535709Y-104299581D01*
X212988928Y-103996749D01*
X213291760Y-103543530D01*
X213398100Y-103008921D01*
X213398100Y-104471000D01*
X195707767Y-104471000D01*
X195707767Y-93549966D01*
X195679805Y-92999462D01*
X195522931Y-92620735D01*
X195281930Y-92552675D01*
X195102325Y-92732280D01*
X195102325Y-92373070D01*
X195034265Y-92132069D01*
X194514966Y-91947233D01*
X193964462Y-91975195D01*
X193585735Y-92132069D01*
X193517675Y-92373070D01*
X194310000Y-93165395D01*
X195102325Y-92373070D01*
X195102325Y-92732280D01*
X194489605Y-93345000D01*
X195281930Y-94137325D01*
X195522931Y-94069265D01*
X195707767Y-93549966D01*
X195707767Y-104471000D01*
X195618100Y-104471000D01*
X195618100Y-103008921D01*
X195618100Y-101918279D01*
X195511760Y-101383670D01*
X195208928Y-100930451D01*
X195102325Y-100859220D01*
X195102325Y-94316930D01*
X194310000Y-93524605D01*
X194130395Y-93704210D01*
X194130395Y-93345000D01*
X193338070Y-92552675D01*
X193097069Y-92620735D01*
X193038231Y-92786040D01*
X192945314Y-92561163D01*
X192555887Y-92171056D01*
X192046816Y-91959671D01*
X191495602Y-91959190D01*
X190986163Y-92169686D01*
X190596056Y-92559113D01*
X190384671Y-93068184D01*
X190384190Y-93619398D01*
X190594686Y-94128837D01*
X190984113Y-94518944D01*
X191493184Y-94730329D01*
X192044398Y-94730810D01*
X192553837Y-94520314D01*
X192943944Y-94130887D01*
X193033378Y-93915503D01*
X193097069Y-94069265D01*
X193338070Y-94137325D01*
X194130395Y-93345000D01*
X194130395Y-93704210D01*
X193517675Y-94316930D01*
X193585735Y-94557931D01*
X194105034Y-94742767D01*
X194655538Y-94714805D01*
X195034265Y-94557931D01*
X195102325Y-94316930D01*
X195102325Y-100859220D01*
X194755709Y-100627619D01*
X194221100Y-100521279D01*
X193686491Y-100627619D01*
X193233272Y-100930451D01*
X192941770Y-101366713D01*
X192923159Y-101303659D01*
X192579126Y-100877970D01*
X192098377Y-100616340D01*
X192024170Y-100601380D01*
X191808100Y-100723880D01*
X191808100Y-102336600D01*
X191828100Y-102336600D01*
X191828100Y-102590600D01*
X191808100Y-102590600D01*
X191808100Y-104203320D01*
X192024170Y-104325820D01*
X192098377Y-104310860D01*
X192579126Y-104049230D01*
X192923159Y-103623541D01*
X192941770Y-103560486D01*
X193233272Y-103996749D01*
X193686491Y-104299581D01*
X194221100Y-104405921D01*
X194755709Y-104299581D01*
X195208928Y-103996749D01*
X195511760Y-103543530D01*
X195618100Y-103008921D01*
X195618100Y-104471000D01*
X191554100Y-104471000D01*
X191554100Y-104203320D01*
X191554100Y-102590600D01*
X191554100Y-102336600D01*
X191554100Y-100723880D01*
X191338030Y-100601380D01*
X191263823Y-100616340D01*
X190783074Y-100877970D01*
X190439041Y-101303659D01*
X190411100Y-101398323D01*
X190383159Y-101303659D01*
X190176800Y-101048320D01*
X190176800Y-98748510D01*
X190176800Y-98532950D01*
X190176800Y-97961450D01*
X190176800Y-97745890D01*
X190080127Y-97512501D01*
X189901498Y-97333873D01*
X189668109Y-97237200D01*
X189427550Y-97237200D01*
X189268800Y-97395950D01*
X189268800Y-98120200D01*
X190018050Y-98120200D01*
X190176800Y-97961450D01*
X190176800Y-98532950D01*
X190018050Y-98374200D01*
X189268800Y-98374200D01*
X189268800Y-99098450D01*
X189427550Y-99257200D01*
X189668109Y-99257200D01*
X189901498Y-99160527D01*
X190080127Y-98981899D01*
X190176800Y-98748510D01*
X190176800Y-101048320D01*
X190039126Y-100877970D01*
X189558377Y-100616340D01*
X189484170Y-100601380D01*
X189268100Y-100723880D01*
X189268100Y-102336600D01*
X190284100Y-102336600D01*
X190538100Y-102336600D01*
X191554100Y-102336600D01*
X191554100Y-102590600D01*
X190538100Y-102590600D01*
X190284100Y-102590600D01*
X189268100Y-102590600D01*
X189268100Y-104203320D01*
X189484170Y-104325820D01*
X189558377Y-104310860D01*
X190039126Y-104049230D01*
X190383159Y-103623541D01*
X190411100Y-103528876D01*
X190439041Y-103623541D01*
X190783074Y-104049230D01*
X191263823Y-104310860D01*
X191338030Y-104325820D01*
X191554100Y-104203320D01*
X191554100Y-104471000D01*
X189014800Y-104471000D01*
X189014800Y-99098450D01*
X189014800Y-98374200D01*
X188994800Y-98374200D01*
X188994800Y-98120200D01*
X189014800Y-98120200D01*
X189014800Y-97395950D01*
X188856050Y-97237200D01*
X188615491Y-97237200D01*
X188382102Y-97333873D01*
X188380819Y-97335155D01*
X188291440Y-97274823D01*
X188041800Y-97224760D01*
X187241800Y-97224760D01*
X186999677Y-97271737D01*
X186786873Y-97411527D01*
X186644423Y-97622560D01*
X186594360Y-97872200D01*
X186594360Y-98219838D01*
X186063699Y-98750499D01*
X185898952Y-98997061D01*
X185841100Y-99287900D01*
X185841100Y-100778220D01*
X185613272Y-100930451D01*
X185331100Y-101352750D01*
X185048928Y-100930451D01*
X184595709Y-100627619D01*
X184061100Y-100521279D01*
X183526491Y-100627619D01*
X183073272Y-100930451D01*
X182791100Y-101352750D01*
X182508928Y-100930451D01*
X182055709Y-100627619D01*
X181521100Y-100521279D01*
X180986491Y-100627619D01*
X180533272Y-100930451D01*
X180251100Y-101352750D01*
X179968928Y-100930451D01*
X179515709Y-100627619D01*
X178981100Y-100521279D01*
X178446491Y-100627619D01*
X177993272Y-100930451D01*
X177711100Y-101352750D01*
X177428928Y-100930451D01*
X176975709Y-100627619D01*
X176441100Y-100521279D01*
X175906491Y-100627619D01*
X175453272Y-100930451D01*
X175150440Y-101383670D01*
X175044100Y-101918279D01*
X175044100Y-103008921D01*
X175150440Y-103543530D01*
X175453272Y-103996749D01*
X175906491Y-104299581D01*
X176441100Y-104405921D01*
X176975709Y-104299581D01*
X177428928Y-103996749D01*
X177711100Y-103574449D01*
X177993272Y-103996749D01*
X178446491Y-104299581D01*
X178981100Y-104405921D01*
X179515709Y-104299581D01*
X179968928Y-103996749D01*
X180251100Y-103574449D01*
X180533272Y-103996749D01*
X180986491Y-104299581D01*
X181521100Y-104405921D01*
X182055709Y-104299581D01*
X182508928Y-103996749D01*
X182791100Y-103574449D01*
X183073272Y-103996749D01*
X183526491Y-104299581D01*
X184061100Y-104405921D01*
X184595709Y-104299581D01*
X185048928Y-103996749D01*
X185331100Y-103574449D01*
X185613272Y-103996749D01*
X186066491Y-104299581D01*
X186601100Y-104405921D01*
X187135709Y-104299581D01*
X187588928Y-103996749D01*
X187880429Y-103560486D01*
X187899041Y-103623541D01*
X188243074Y-104049230D01*
X188723823Y-104310860D01*
X188798030Y-104325820D01*
X189014100Y-104203320D01*
X189014100Y-102590600D01*
X188994100Y-102590600D01*
X188994100Y-102336600D01*
X189014100Y-102336600D01*
X189014100Y-100723880D01*
X188798030Y-100601380D01*
X188723823Y-100616340D01*
X188243074Y-100877970D01*
X187899041Y-101303659D01*
X187880429Y-101366713D01*
X187588928Y-100930451D01*
X187361100Y-100778220D01*
X187361100Y-99602702D01*
X187694162Y-99269640D01*
X188041800Y-99269640D01*
X188283923Y-99222663D01*
X188380679Y-99159104D01*
X188382102Y-99160527D01*
X188615491Y-99257200D01*
X188856050Y-99257200D01*
X189014800Y-99098450D01*
X189014800Y-104471000D01*
X163432755Y-104471000D01*
X163728400Y-104348842D01*
X164354145Y-103724189D01*
X164693213Y-102907622D01*
X164693985Y-102023457D01*
X164356342Y-101206300D01*
X163731689Y-100580555D01*
X163429318Y-100455000D01*
X182245000Y-100455000D01*
X182535839Y-100397148D01*
X182782401Y-100232401D01*
X202467401Y-80547401D01*
X202534127Y-80447537D01*
X202679846Y-80302073D01*
X202929206Y-79701547D01*
X202929774Y-79051306D01*
X202681462Y-78450345D01*
X202222073Y-77990154D01*
X201621547Y-77740794D01*
X200971306Y-77740226D01*
X200370345Y-77988538D01*
X199910154Y-78447927D01*
X199660794Y-79048453D01*
X199660226Y-79698694D01*
X199908538Y-80299655D01*
X200236754Y-80628443D01*
X181930198Y-98935000D01*
X159494625Y-98935000D01*
X159663327Y-98766298D01*
X159760000Y-98532909D01*
X159760000Y-98292350D01*
X159601250Y-98133600D01*
X158877000Y-98133600D01*
X158877000Y-98153600D01*
X158623000Y-98153600D01*
X158623000Y-98133600D01*
X157898750Y-98133600D01*
X157740000Y-98292350D01*
X157740000Y-98532909D01*
X157836673Y-98766298D01*
X158005374Y-98935000D01*
X153795000Y-98935000D01*
X153795000Y-97799520D01*
X154104529Y-97592699D01*
X154110937Y-97625723D01*
X154250727Y-97838527D01*
X154461760Y-97980977D01*
X154711400Y-98031040D01*
X156438600Y-98031040D01*
X156680723Y-97984063D01*
X156893527Y-97844273D01*
X157035977Y-97633240D01*
X157086040Y-97383600D01*
X157086040Y-97280000D01*
X157822963Y-97280000D01*
X157740000Y-97480291D01*
X157740000Y-97720850D01*
X157898750Y-97879600D01*
X158623000Y-97879600D01*
X158623000Y-97859600D01*
X158877000Y-97859600D01*
X158877000Y-97879600D01*
X159601250Y-97879600D01*
X159760000Y-97720850D01*
X159760000Y-97480291D01*
X159663327Y-97246902D01*
X159662044Y-97245619D01*
X159722377Y-97156240D01*
X159772440Y-96906600D01*
X159772440Y-96106600D01*
X159725463Y-95864477D01*
X159585673Y-95651673D01*
X159374640Y-95509223D01*
X159125000Y-95459160D01*
X158375000Y-95459160D01*
X158132877Y-95506137D01*
X157920073Y-95645927D01*
X157843072Y-95760000D01*
X157086040Y-95760000D01*
X157086040Y-95656400D01*
X157039063Y-95414277D01*
X156899273Y-95201473D01*
X156688240Y-95059023D01*
X156647340Y-95050820D01*
X156664029Y-95039670D01*
X156864262Y-94740000D01*
X161610198Y-94740000D01*
X163927599Y-97057401D01*
X164174160Y-97222148D01*
X164174161Y-97222148D01*
X164222413Y-97231746D01*
X164465000Y-97280000D01*
X182880000Y-97280000D01*
X183170839Y-97222148D01*
X183417401Y-97057401D01*
X198022401Y-82452401D01*
X198187148Y-82205839D01*
X198245000Y-81915000D01*
X198245000Y-70669496D01*
X198409655Y-70601462D01*
X198869846Y-70142073D01*
X199119206Y-69541547D01*
X199119774Y-68891306D01*
X198871462Y-68290345D01*
X198412073Y-67830154D01*
X197811547Y-67580794D01*
X197161306Y-67580226D01*
X196560345Y-67828538D01*
X196100154Y-68287927D01*
X195850794Y-68888453D01*
X195850226Y-69538694D01*
X196098538Y-70139655D01*
X196557927Y-70599846D01*
X196725000Y-70669220D01*
X196725000Y-81600198D01*
X182565198Y-95760000D01*
X164779801Y-95760000D01*
X162462401Y-93442599D01*
X162215839Y-93277852D01*
X161925000Y-93220000D01*
X156864262Y-93220000D01*
X156664029Y-92920330D01*
X156340771Y-92704336D01*
X156463490Y-92646821D01*
X156857688Y-92214947D01*
X157029958Y-91799026D01*
X157029958Y-91080974D01*
X156857688Y-90665053D01*
X156463490Y-90233179D01*
X155934027Y-89985032D01*
X155702000Y-90105531D01*
X155702000Y-91313000D01*
X156908817Y-91313000D01*
X157029958Y-91080974D01*
X157029958Y-91799026D01*
X156908817Y-91567000D01*
X155702000Y-91567000D01*
X155702000Y-91587000D01*
X155448000Y-91587000D01*
X155448000Y-91567000D01*
X155428000Y-91567000D01*
X155428000Y-91313000D01*
X155448000Y-91313000D01*
X155448000Y-90105531D01*
X155215973Y-89985032D01*
X154686510Y-90233179D01*
X154304992Y-90651160D01*
X154124029Y-90380330D01*
X153795000Y-90160479D01*
X153795000Y-89660000D01*
X154940000Y-89660000D01*
X157930503Y-89660000D01*
X157998538Y-89824655D01*
X158457927Y-90284846D01*
X159058453Y-90534206D01*
X159708694Y-90534774D01*
X160309655Y-90286462D01*
X160769846Y-89827073D01*
X161019206Y-89226547D01*
X161019774Y-88576306D01*
X160771462Y-87975345D01*
X160312073Y-87515154D01*
X159711547Y-87265794D01*
X159061306Y-87265226D01*
X158460345Y-87513538D01*
X158000154Y-87972927D01*
X157930779Y-88140000D01*
X154940000Y-88140000D01*
X153035000Y-88140000D01*
X152744161Y-88197852D01*
X152497599Y-88362599D01*
X152332852Y-88609161D01*
X152275000Y-88900000D01*
X152275000Y-90160479D01*
X151945971Y-90380330D01*
X151621115Y-90866511D01*
X151507041Y-91440000D01*
X151621115Y-92013489D01*
X151945971Y-92499670D01*
X152260751Y-92710000D01*
X151945971Y-92920330D01*
X151745737Y-93220000D01*
X151255000Y-93220000D01*
X151255000Y-85215000D01*
X158054198Y-85215000D01*
X167356599Y-94517401D01*
X167603160Y-94682148D01*
X167603161Y-94682148D01*
X167894000Y-94740000D01*
X182880000Y-94740000D01*
X183170839Y-94682148D01*
X183417401Y-94517401D01*
X194212401Y-83722401D01*
X194377148Y-83475840D01*
X194377148Y-83475839D01*
X194386746Y-83427586D01*
X194434999Y-83185000D01*
X194435000Y-83185000D01*
X194435000Y-70669496D01*
X194599655Y-70601462D01*
X195059846Y-70142073D01*
X195309206Y-69541547D01*
X195309774Y-68891306D01*
X195061462Y-68290345D01*
X194602073Y-67830154D01*
X194001547Y-67580794D01*
X193351306Y-67580226D01*
X192750345Y-67828538D01*
X192290154Y-68287927D01*
X192040794Y-68888453D01*
X192040226Y-69538694D01*
X192288538Y-70139655D01*
X192747927Y-70599846D01*
X192915000Y-70669220D01*
X192915000Y-82870198D01*
X191554100Y-84231098D01*
X191554100Y-54748921D01*
X191554100Y-53658279D01*
X191447760Y-53123670D01*
X191144928Y-52670451D01*
X190691709Y-52367619D01*
X190157100Y-52261279D01*
X189622491Y-52367619D01*
X189169272Y-52670451D01*
X188887100Y-53092750D01*
X188604928Y-52670451D01*
X188151709Y-52367619D01*
X187617100Y-52261279D01*
X187082491Y-52367619D01*
X186629272Y-52670451D01*
X186347100Y-53092750D01*
X186064928Y-52670451D01*
X185611709Y-52367619D01*
X185077100Y-52261279D01*
X184542491Y-52367619D01*
X184089272Y-52670451D01*
X183807100Y-53092750D01*
X183524928Y-52670451D01*
X183071709Y-52367619D01*
X182537100Y-52261279D01*
X182002491Y-52367619D01*
X181549272Y-52670451D01*
X181267100Y-53092750D01*
X180984928Y-52670451D01*
X180531709Y-52367619D01*
X179997100Y-52261279D01*
X179462491Y-52367619D01*
X179009272Y-52670451D01*
X178727100Y-53092750D01*
X178444928Y-52670451D01*
X177991709Y-52367619D01*
X177457100Y-52261279D01*
X176922491Y-52367619D01*
X176469272Y-52670451D01*
X176177770Y-53106713D01*
X176159159Y-53043659D01*
X175815126Y-52617970D01*
X175334377Y-52356340D01*
X175260170Y-52341380D01*
X175044100Y-52463880D01*
X175044100Y-54076600D01*
X175064100Y-54076600D01*
X175064100Y-54330600D01*
X175044100Y-54330600D01*
X175044100Y-55943320D01*
X175260170Y-56065820D01*
X175334377Y-56050860D01*
X175815126Y-55789230D01*
X176159159Y-55363541D01*
X176177770Y-55300486D01*
X176469272Y-55736749D01*
X176922491Y-56039581D01*
X177457100Y-56145921D01*
X177991709Y-56039581D01*
X178444928Y-55736749D01*
X178727100Y-55314449D01*
X179009272Y-55736749D01*
X179462491Y-56039581D01*
X179997100Y-56145921D01*
X180531709Y-56039581D01*
X180984928Y-55736749D01*
X181267100Y-55314449D01*
X181549272Y-55736749D01*
X182002491Y-56039581D01*
X182537100Y-56145921D01*
X183071709Y-56039581D01*
X183524928Y-55736749D01*
X183807100Y-55314449D01*
X184089272Y-55736749D01*
X184542491Y-56039581D01*
X185077100Y-56145921D01*
X185358382Y-56089970D01*
X183804838Y-58295000D01*
X163195000Y-58295000D01*
X162904161Y-58352852D01*
X162657599Y-58517599D01*
X162492852Y-58764161D01*
X162435000Y-59055000D01*
X162435000Y-60732930D01*
X162345370Y-60732930D01*
X162103247Y-60779907D01*
X161890443Y-60919697D01*
X161747993Y-61130730D01*
X161697930Y-61380370D01*
X161697930Y-63079630D01*
X161744907Y-63321753D01*
X161884697Y-63534557D01*
X162095730Y-63677007D01*
X162345370Y-63727070D01*
X164044630Y-63727070D01*
X164286753Y-63680093D01*
X164499557Y-63540303D01*
X164642007Y-63329270D01*
X164692070Y-63079630D01*
X164692070Y-61380370D01*
X164645093Y-61138247D01*
X164505303Y-60925443D01*
X164294270Y-60782993D01*
X164044630Y-60732930D01*
X163955000Y-60732930D01*
X163955000Y-59815000D01*
X183802997Y-59815000D01*
X183804204Y-59815932D01*
X183892335Y-59839839D01*
X183975806Y-59876857D01*
X184034107Y-59878298D01*
X184090398Y-59893569D01*
X184180969Y-59881930D01*
X184272253Y-59884188D01*
X184326668Y-59863208D01*
X184384517Y-59855775D01*
X184463743Y-59810360D01*
X184548939Y-59777514D01*
X184591183Y-59737308D01*
X184641784Y-59708303D01*
X184697596Y-59636031D01*
X184763742Y-59573079D01*
X187232262Y-56069372D01*
X187617100Y-56145921D01*
X188151709Y-56039581D01*
X188604928Y-55736749D01*
X188887100Y-55314449D01*
X189169272Y-55736749D01*
X189397100Y-55888979D01*
X189397100Y-58448098D01*
X187010198Y-60835000D01*
X179705000Y-60835000D01*
X179414161Y-60892852D01*
X179167599Y-61057599D01*
X179002852Y-61304161D01*
X178945000Y-61595000D01*
X178945000Y-63185198D01*
X177558440Y-64571758D01*
X177558440Y-63220600D01*
X177511463Y-62978477D01*
X177371673Y-62765673D01*
X177160640Y-62623223D01*
X176911000Y-62573160D01*
X174625000Y-62573160D01*
X174505000Y-62596442D01*
X174505000Y-62515750D01*
X174505000Y-61944250D01*
X174505000Y-61728690D01*
X174408327Y-61495301D01*
X174229698Y-61316673D01*
X173996309Y-61220000D01*
X173755750Y-61220000D01*
X173597000Y-61378750D01*
X173597000Y-62103000D01*
X174346250Y-62103000D01*
X174505000Y-61944250D01*
X174505000Y-62515750D01*
X174346250Y-62357000D01*
X173597000Y-62357000D01*
X173597000Y-63081250D01*
X173755750Y-63240000D01*
X173977560Y-63240000D01*
X173977560Y-64795400D01*
X174024537Y-65037523D01*
X174164327Y-65250327D01*
X174375360Y-65392777D01*
X174544621Y-65426720D01*
X174371778Y-65542211D01*
X174063441Y-66003671D01*
X174012843Y-66258041D01*
X171733401Y-63978599D01*
X171486839Y-63813852D01*
X171196000Y-63756000D01*
X170131947Y-63756000D01*
X170469655Y-63616462D01*
X170929846Y-63157073D01*
X170999220Y-62990000D01*
X171063392Y-62990000D01*
X171109327Y-63059927D01*
X171320360Y-63202377D01*
X171570000Y-63252440D01*
X172370000Y-63252440D01*
X172612123Y-63205463D01*
X172708879Y-63141904D01*
X172710302Y-63143327D01*
X172943691Y-63240000D01*
X173184250Y-63240000D01*
X173343000Y-63081250D01*
X173343000Y-62357000D01*
X173323000Y-62357000D01*
X173323000Y-62103000D01*
X173343000Y-62103000D01*
X173343000Y-61378750D01*
X173184250Y-61220000D01*
X172943691Y-61220000D01*
X172710302Y-61316673D01*
X172709019Y-61317955D01*
X172619640Y-61257623D01*
X172370000Y-61207560D01*
X171570000Y-61207560D01*
X171327877Y-61254537D01*
X171115073Y-61394327D01*
X171063992Y-61470000D01*
X170999496Y-61470000D01*
X170931462Y-61305345D01*
X170472073Y-60845154D01*
X169871547Y-60595794D01*
X169221306Y-60595226D01*
X168620345Y-60843538D01*
X168160154Y-61302927D01*
X167910794Y-61903453D01*
X167910226Y-62553694D01*
X168158538Y-63154655D01*
X168617927Y-63614846D01*
X168957863Y-63756000D01*
X167130000Y-63756000D01*
X167130000Y-63727070D01*
X167219630Y-63727070D01*
X167461753Y-63680093D01*
X167674557Y-63540303D01*
X167817007Y-63329270D01*
X167867070Y-63079630D01*
X167867070Y-61380370D01*
X167820093Y-61138247D01*
X167680303Y-60925443D01*
X167469270Y-60782993D01*
X167219630Y-60732930D01*
X165520370Y-60732930D01*
X165278247Y-60779907D01*
X165065443Y-60919697D01*
X164922993Y-61130730D01*
X164872930Y-61380370D01*
X164872930Y-63079630D01*
X164919907Y-63321753D01*
X165059697Y-63534557D01*
X165270730Y-63677007D01*
X165520370Y-63727070D01*
X165610000Y-63727070D01*
X165610000Y-64135000D01*
X165667852Y-64425839D01*
X165832599Y-64672401D01*
X166213599Y-65053401D01*
X166460160Y-65218148D01*
X166460161Y-65218148D01*
X166751000Y-65276000D01*
X170881198Y-65276000D01*
X174097658Y-68492460D01*
X174063441Y-68543671D01*
X173970702Y-69009900D01*
X170844401Y-65883599D01*
X170597839Y-65718852D01*
X170307000Y-65661000D01*
X163890802Y-65661000D01*
X160557401Y-62327599D01*
X160310839Y-62162852D01*
X160020000Y-62105000D01*
X156864262Y-62105000D01*
X156664029Y-61805330D01*
X156349248Y-61595000D01*
X156664029Y-61384670D01*
X156988885Y-60898489D01*
X157102959Y-60325000D01*
X156988885Y-59751511D01*
X156664029Y-59265330D01*
X156177848Y-58940474D01*
X155604359Y-58826400D01*
X155545641Y-58826400D01*
X154972152Y-58940474D01*
X154485971Y-59265330D01*
X154305007Y-59536160D01*
X153923490Y-59118179D01*
X153394027Y-58870032D01*
X153162000Y-58990531D01*
X153162000Y-60198000D01*
X153182000Y-60198000D01*
X153182000Y-60452000D01*
X153162000Y-60452000D01*
X153162000Y-61530531D01*
X153162000Y-61659469D01*
X153162000Y-62738000D01*
X153182000Y-62738000D01*
X153182000Y-62992000D01*
X153162000Y-62992000D01*
X153162000Y-64070531D01*
X153162000Y-64199469D01*
X153162000Y-65278000D01*
X153182000Y-65278000D01*
X153182000Y-65532000D01*
X153162000Y-65532000D01*
X153162000Y-66739469D01*
X153394027Y-66859968D01*
X153923490Y-66611821D01*
X154094253Y-66424736D01*
X154110937Y-66510723D01*
X154250727Y-66723527D01*
X154461760Y-66865977D01*
X154711400Y-66916040D01*
X156438600Y-66916040D01*
X156680723Y-66869063D01*
X156893527Y-66729273D01*
X156974505Y-66609307D01*
X160117599Y-69752401D01*
X160364161Y-69917148D01*
X160655000Y-69975000D01*
X169230198Y-69975000D01*
X170110010Y-70854812D01*
X169871547Y-70755794D01*
X169221306Y-70755226D01*
X168620345Y-71003538D01*
X168160154Y-71462927D01*
X168090779Y-71630000D01*
X167662346Y-71630000D01*
X167629342Y-71550123D01*
X167212074Y-71132126D01*
X166666607Y-70905628D01*
X166075984Y-70905112D01*
X165530123Y-71130658D01*
X165112126Y-71547926D01*
X165078045Y-71630000D01*
X164487346Y-71630000D01*
X164454342Y-71550123D01*
X164037074Y-71132126D01*
X163491607Y-70905628D01*
X162900984Y-70905112D01*
X162355123Y-71130658D01*
X161937126Y-71547926D01*
X161710628Y-72093393D01*
X161710112Y-72684016D01*
X161935658Y-73229877D01*
X162352926Y-73647874D01*
X162435000Y-73681954D01*
X162435000Y-77345000D01*
X156864262Y-77345000D01*
X156664029Y-77045330D01*
X156349248Y-76835000D01*
X156664029Y-76624670D01*
X156864262Y-76325000D01*
X157295503Y-76325000D01*
X157363538Y-76489655D01*
X157822927Y-76949846D01*
X158423453Y-77199206D01*
X159073694Y-77199774D01*
X159674655Y-76951462D01*
X160134846Y-76492073D01*
X160384206Y-75891547D01*
X160384774Y-75241306D01*
X160136462Y-74640345D01*
X159677073Y-74180154D01*
X159076547Y-73930794D01*
X158426306Y-73930226D01*
X157825345Y-74178538D01*
X157365154Y-74637927D01*
X157295779Y-74805000D01*
X156864262Y-74805000D01*
X156664029Y-74505330D01*
X156177848Y-74180474D01*
X155604359Y-74066400D01*
X155545641Y-74066400D01*
X154972152Y-74180474D01*
X154485971Y-74505330D01*
X154305007Y-74776160D01*
X153923490Y-74358179D01*
X153394027Y-74110032D01*
X153162000Y-74230531D01*
X153162000Y-75438000D01*
X153182000Y-75438000D01*
X153182000Y-75692000D01*
X153162000Y-75692000D01*
X153162000Y-76770531D01*
X153162000Y-76899469D01*
X153162000Y-77978000D01*
X153182000Y-77978000D01*
X153182000Y-78232000D01*
X153162000Y-78232000D01*
X153162000Y-79310531D01*
X153162000Y-79439469D01*
X153162000Y-80518000D01*
X153182000Y-80518000D01*
X153182000Y-80772000D01*
X153162000Y-80772000D01*
X153162000Y-81979469D01*
X153394027Y-82099968D01*
X153923490Y-81851821D01*
X154094253Y-81664736D01*
X154110937Y-81750723D01*
X154250727Y-81963527D01*
X154461760Y-82105977D01*
X154711400Y-82156040D01*
X156438600Y-82156040D01*
X156680723Y-82109063D01*
X156893527Y-81969273D01*
X156974505Y-81849307D01*
X167102599Y-91977401D01*
X167349160Y-92142148D01*
X167349161Y-92142148D01*
X167397413Y-92151746D01*
X167640000Y-92200000D01*
X182880000Y-92200000D01*
X183170839Y-92142148D01*
X183417401Y-91977401D01*
X190694501Y-84700301D01*
X190859248Y-84453739D01*
X190917100Y-84162900D01*
X190917100Y-58762900D01*
X190917100Y-55888979D01*
X191144928Y-55736749D01*
X191447760Y-55283530D01*
X191554100Y-54748921D01*
X191554100Y-84231098D01*
X182565198Y-93220000D01*
X168208802Y-93220000D01*
X158906401Y-83917599D01*
X158659839Y-83752852D01*
X158369000Y-83695000D01*
X152908000Y-83695000D01*
X152908000Y-81979469D01*
X152908000Y-80772000D01*
X152908000Y-80518000D01*
X152908000Y-79439469D01*
X152908000Y-79310531D01*
X152908000Y-78232000D01*
X152908000Y-77978000D01*
X152908000Y-76899469D01*
X152908000Y-76770531D01*
X152908000Y-75692000D01*
X152908000Y-75438000D01*
X152908000Y-74230531D01*
X152908000Y-66739469D01*
X152908000Y-65532000D01*
X152908000Y-65278000D01*
X152908000Y-64199469D01*
X152908000Y-64070531D01*
X152908000Y-62992000D01*
X152908000Y-62738000D01*
X152908000Y-61659469D01*
X152908000Y-61530531D01*
X152908000Y-60452000D01*
X152908000Y-60198000D01*
X152908000Y-58990531D01*
X152675973Y-58870032D01*
X152146510Y-59118179D01*
X151752312Y-59550053D01*
X151580042Y-59965974D01*
X151701183Y-60198000D01*
X152908000Y-60198000D01*
X152908000Y-60452000D01*
X151701183Y-60452000D01*
X151580042Y-60684026D01*
X151752312Y-61099947D01*
X152146510Y-61531821D01*
X152281312Y-61595000D01*
X152146510Y-61658179D01*
X151752312Y-62090053D01*
X151580042Y-62505974D01*
X151701183Y-62738000D01*
X152908000Y-62738000D01*
X152908000Y-62992000D01*
X151701183Y-62992000D01*
X151580042Y-63224026D01*
X151752312Y-63639947D01*
X152146510Y-64071821D01*
X152281312Y-64135000D01*
X152146510Y-64198179D01*
X151752312Y-64630053D01*
X151580042Y-65045974D01*
X151701183Y-65278000D01*
X152908000Y-65278000D01*
X152908000Y-65532000D01*
X151701183Y-65532000D01*
X151580042Y-65764026D01*
X151752312Y-66179947D01*
X152146510Y-66611821D01*
X152675973Y-66859968D01*
X152908000Y-66739469D01*
X152908000Y-74230531D01*
X152675973Y-74110032D01*
X152146510Y-74358179D01*
X151752312Y-74790053D01*
X151580042Y-75205974D01*
X151701183Y-75438000D01*
X152908000Y-75438000D01*
X152908000Y-75692000D01*
X151701183Y-75692000D01*
X151580042Y-75924026D01*
X151752312Y-76339947D01*
X152146510Y-76771821D01*
X152281312Y-76835000D01*
X152146510Y-76898179D01*
X151752312Y-77330053D01*
X151580042Y-77745974D01*
X151701183Y-77978000D01*
X152908000Y-77978000D01*
X152908000Y-78232000D01*
X151701183Y-78232000D01*
X151580042Y-78464026D01*
X151752312Y-78879947D01*
X152146510Y-79311821D01*
X152281312Y-79375000D01*
X152146510Y-79438179D01*
X151752312Y-79870053D01*
X151580042Y-80285974D01*
X151701183Y-80518000D01*
X152908000Y-80518000D01*
X152908000Y-80772000D01*
X151701183Y-80772000D01*
X151580042Y-81004026D01*
X151752312Y-81419947D01*
X152146510Y-81851821D01*
X152675973Y-82099968D01*
X152908000Y-81979469D01*
X152908000Y-83695000D01*
X150495000Y-83695000D01*
X150204161Y-83752852D01*
X149957599Y-83917599D01*
X149792852Y-84164161D01*
X149735000Y-84455000D01*
X149735000Y-93980000D01*
X149792852Y-94270839D01*
X149957599Y-94517401D01*
X150204161Y-94682148D01*
X150495000Y-94740000D01*
X151745737Y-94740000D01*
X151945971Y-95039670D01*
X152260751Y-95250000D01*
X151945971Y-95460330D01*
X151621115Y-95946511D01*
X151507041Y-96520000D01*
X151621115Y-97093489D01*
X151945971Y-97579670D01*
X152275000Y-97799520D01*
X152275000Y-99695000D01*
X152332852Y-99985839D01*
X152497599Y-100232401D01*
X152744161Y-100397148D01*
X153035000Y-100455000D01*
X161512348Y-100455000D01*
X161213800Y-100578358D01*
X160588055Y-101203011D01*
X160248987Y-102019578D01*
X160248215Y-102903743D01*
X160585858Y-103720900D01*
X161210511Y-104346645D01*
X161509991Y-104471000D01*
X149021000Y-104471000D01*
X149021000Y-52247000D01*
X162656499Y-52247000D01*
X162483800Y-52318358D01*
X161858055Y-52943011D01*
X161518987Y-53759578D01*
X161518215Y-54643743D01*
X161855858Y-55460900D01*
X162480511Y-56086645D01*
X163297078Y-56425713D01*
X164181243Y-56426485D01*
X164998400Y-56088842D01*
X165624145Y-55464189D01*
X165906917Y-54783196D01*
X166006440Y-55283530D01*
X166309272Y-55736749D01*
X166762491Y-56039581D01*
X167297100Y-56145921D01*
X167831709Y-56039581D01*
X168284928Y-55736749D01*
X168567100Y-55314449D01*
X168849272Y-55736749D01*
X169302491Y-56039581D01*
X169837100Y-56145921D01*
X170371709Y-56039581D01*
X170824928Y-55736749D01*
X171107100Y-55314449D01*
X171389272Y-55736749D01*
X171842491Y-56039581D01*
X172377100Y-56145921D01*
X172911709Y-56039581D01*
X173364928Y-55736749D01*
X173656429Y-55300486D01*
X173675041Y-55363541D01*
X174019074Y-55789230D01*
X174499823Y-56050860D01*
X174574030Y-56065820D01*
X174790100Y-55943320D01*
X174790100Y-54330600D01*
X174770100Y-54330600D01*
X174770100Y-54076600D01*
X174790100Y-54076600D01*
X174790100Y-52463880D01*
X174574030Y-52341380D01*
X174499823Y-52356340D01*
X174019074Y-52617970D01*
X173675041Y-53043659D01*
X173656429Y-53106713D01*
X173364928Y-52670451D01*
X172911709Y-52367619D01*
X172377100Y-52261279D01*
X171842491Y-52367619D01*
X171389272Y-52670451D01*
X171107100Y-53092750D01*
X170824928Y-52670451D01*
X170371709Y-52367619D01*
X169837100Y-52261279D01*
X169302491Y-52367619D01*
X168849272Y-52670451D01*
X168567100Y-53092750D01*
X168284928Y-52670451D01*
X167831709Y-52367619D01*
X167297100Y-52261279D01*
X166762491Y-52367619D01*
X166309272Y-52670451D01*
X166006440Y-53123670D01*
X165906737Y-53624908D01*
X165626342Y-52946300D01*
X165001689Y-52320555D01*
X164824548Y-52247000D01*
X216739000Y-52247000D01*
X216739000Y-68942988D01*
X216426342Y-68186300D01*
X215801689Y-67560555D01*
X214985122Y-67221487D01*
X214100957Y-67220715D01*
X213398100Y-67511130D01*
X213398100Y-54748921D01*
X213398100Y-53658279D01*
X213291760Y-53123670D01*
X212988928Y-52670451D01*
X212535709Y-52367619D01*
X212001100Y-52261279D01*
X211466491Y-52367619D01*
X211013272Y-52670451D01*
X210731100Y-53092750D01*
X210448928Y-52670451D01*
X209995709Y-52367619D01*
X209461100Y-52261279D01*
X208926491Y-52367619D01*
X208473272Y-52670451D01*
X208191100Y-53092750D01*
X207908928Y-52670451D01*
X207455709Y-52367619D01*
X206921100Y-52261279D01*
X206386491Y-52367619D01*
X205933272Y-52670451D01*
X205651100Y-53092750D01*
X205368928Y-52670451D01*
X204915709Y-52367619D01*
X204381100Y-52261279D01*
X203846491Y-52367619D01*
X203393272Y-52670451D01*
X203111100Y-53092750D01*
X202828928Y-52670451D01*
X202375709Y-52367619D01*
X201841100Y-52261279D01*
X201306491Y-52367619D01*
X200853272Y-52670451D01*
X200571100Y-53092750D01*
X200288928Y-52670451D01*
X199835709Y-52367619D01*
X199301100Y-52261279D01*
X198766491Y-52367619D01*
X198313272Y-52670451D01*
X198031100Y-53092750D01*
X197748928Y-52670451D01*
X197295709Y-52367619D01*
X196761100Y-52261279D01*
X196226491Y-52367619D01*
X195773272Y-52670451D01*
X195491100Y-53092750D01*
X195208928Y-52670451D01*
X194755709Y-52367619D01*
X194221100Y-52261279D01*
X193686491Y-52367619D01*
X193233272Y-52670451D01*
X192930440Y-53123670D01*
X192824100Y-53658279D01*
X192824100Y-54748921D01*
X192930440Y-55283530D01*
X193233272Y-55736749D01*
X193461100Y-55888979D01*
X193461100Y-57420321D01*
X193351306Y-57420226D01*
X192750345Y-57668538D01*
X192290154Y-58127927D01*
X192040794Y-58728453D01*
X192040226Y-59378694D01*
X192288538Y-59979655D01*
X192747927Y-60439846D01*
X193348453Y-60689206D01*
X193998694Y-60689774D01*
X194599655Y-60441462D01*
X195059846Y-59982073D01*
X195309206Y-59381547D01*
X195309774Y-58731306D01*
X195061462Y-58130345D01*
X194981100Y-58049842D01*
X194981100Y-55888979D01*
X195208928Y-55736749D01*
X195491100Y-55314449D01*
X195773272Y-55736749D01*
X196001100Y-55888979D01*
X196001100Y-58331100D01*
X196005857Y-58355018D01*
X195850794Y-58728453D01*
X195850226Y-59378694D01*
X196098538Y-59979655D01*
X196557927Y-60439846D01*
X197158453Y-60689206D01*
X197808694Y-60689774D01*
X198409655Y-60441462D01*
X198869846Y-59982073D01*
X199119206Y-59381547D01*
X199119774Y-58731306D01*
X198871462Y-58130345D01*
X198412073Y-57670154D01*
X197811547Y-57420794D01*
X197521100Y-57420540D01*
X197521100Y-55888979D01*
X197748928Y-55736749D01*
X198031100Y-55314449D01*
X198313272Y-55736749D01*
X198766491Y-56039581D01*
X199301100Y-56145921D01*
X199835709Y-56039581D01*
X200288928Y-55736749D01*
X200571100Y-55314449D01*
X200853272Y-55736749D01*
X201306491Y-56039581D01*
X201841100Y-56145921D01*
X202375709Y-56039581D01*
X202828928Y-55736749D01*
X203111100Y-55314449D01*
X203393272Y-55736749D01*
X203846491Y-56039581D01*
X204381100Y-56145921D01*
X204915709Y-56039581D01*
X205368928Y-55736749D01*
X205651100Y-55314449D01*
X205933272Y-55736749D01*
X206161100Y-55888979D01*
X206161100Y-59464098D01*
X203932599Y-61692599D01*
X203767852Y-61939161D01*
X203710000Y-62230000D01*
X203710000Y-68455000D01*
X202749496Y-68455000D01*
X202681462Y-68290345D01*
X202222073Y-67830154D01*
X201621547Y-67580794D01*
X200971306Y-67580226D01*
X200370345Y-67828538D01*
X199910154Y-68287927D01*
X199660794Y-68888453D01*
X199660226Y-69538694D01*
X199908538Y-70139655D01*
X200367927Y-70599846D01*
X200968453Y-70849206D01*
X201618694Y-70849774D01*
X202219655Y-70601462D01*
X202679846Y-70142073D01*
X202749220Y-69975000D01*
X204470000Y-69975000D01*
X205717653Y-69975000D01*
X205750658Y-70054877D01*
X206167926Y-70472874D01*
X206713393Y-70699372D01*
X207304016Y-70699888D01*
X207849877Y-70474342D01*
X208267874Y-70057074D01*
X208494372Y-69511607D01*
X208494888Y-68920984D01*
X208269342Y-68375123D01*
X207852074Y-67957126D01*
X207306607Y-67730628D01*
X206715984Y-67730112D01*
X206170123Y-67955658D01*
X205752126Y-68372926D01*
X205718045Y-68455000D01*
X205230000Y-68455000D01*
X205230000Y-62544802D01*
X207458501Y-60316301D01*
X207623248Y-60069739D01*
X207681100Y-59778900D01*
X207681100Y-55888979D01*
X207908928Y-55736749D01*
X208191100Y-55314449D01*
X208473272Y-55736749D01*
X208926491Y-56039581D01*
X209461100Y-56145921D01*
X209995709Y-56039581D01*
X210448928Y-55736749D01*
X210731100Y-55314449D01*
X211013272Y-55736749D01*
X211466491Y-56039581D01*
X212001100Y-56145921D01*
X212535709Y-56039581D01*
X212988928Y-55736749D01*
X213291760Y-55283530D01*
X213398100Y-54748921D01*
X213398100Y-67511130D01*
X213283800Y-67558358D01*
X212658055Y-68183011D01*
X212318987Y-68999578D01*
X212318215Y-69883743D01*
X212655858Y-70700900D01*
X213280511Y-71326645D01*
X214097078Y-71665713D01*
X214981243Y-71666485D01*
X215798400Y-71328842D01*
X216424145Y-70704189D01*
X216739000Y-69945933D01*
X216739000Y-96882988D01*
X216426342Y-96126300D01*
X215801689Y-95500555D01*
X214985122Y-95161487D01*
X214100957Y-95160715D01*
X213283800Y-95498358D01*
X212658055Y-96123011D01*
X212318987Y-96939578D01*
X212318215Y-97823743D01*
X212655858Y-98640900D01*
X213280511Y-99266645D01*
X214097078Y-99605713D01*
X214981243Y-99606485D01*
X215798400Y-99268842D01*
X216424145Y-98644189D01*
X216739000Y-97885933D01*
X216739000Y-104471000D01*
X216739000Y-104471000D01*
G37*
X216739000Y-104471000D02*
X213398100Y-104471000D01*
X213398100Y-103008921D01*
X213398100Y-101918279D01*
X213291760Y-101383670D01*
X212988928Y-100930451D01*
X212535709Y-100627619D01*
X212001100Y-100521279D01*
X211466491Y-100627619D01*
X211013272Y-100930451D01*
X210731100Y-101352750D01*
X210448928Y-100930451D01*
X209995709Y-100627619D01*
X209461100Y-100521279D01*
X208926491Y-100627619D01*
X208507070Y-100907867D01*
X208507070Y-80224630D01*
X208507070Y-78525370D01*
X208460093Y-78283247D01*
X208320303Y-78070443D01*
X208109270Y-77927993D01*
X207859630Y-77877930D01*
X206160370Y-77877930D01*
X205918247Y-77924907D01*
X205705443Y-78064697D01*
X205562993Y-78275730D01*
X205512930Y-78525370D01*
X205512930Y-80224630D01*
X205559907Y-80466753D01*
X205699697Y-80679557D01*
X205910730Y-80822007D01*
X206160370Y-80872070D01*
X206250000Y-80872070D01*
X206250000Y-80893392D01*
X206180073Y-80939327D01*
X206037623Y-81150360D01*
X205987560Y-81400000D01*
X205987560Y-82200000D01*
X206034537Y-82442123D01*
X206098095Y-82538879D01*
X206096673Y-82540302D01*
X206000000Y-82773691D01*
X206000000Y-83014250D01*
X206158750Y-83173000D01*
X206883000Y-83173000D01*
X206883000Y-83153000D01*
X207137000Y-83153000D01*
X207137000Y-83173000D01*
X207861250Y-83173000D01*
X208020000Y-83014250D01*
X208020000Y-82773691D01*
X207923327Y-82540302D01*
X207922044Y-82539019D01*
X207982377Y-82449640D01*
X208032440Y-82200000D01*
X208032440Y-81400000D01*
X207985463Y-81157877D01*
X207845673Y-80945073D01*
X207770000Y-80893992D01*
X207770000Y-80872070D01*
X207859630Y-80872070D01*
X208101753Y-80825093D01*
X208314557Y-80685303D01*
X208457007Y-80474270D01*
X208507070Y-80224630D01*
X208507070Y-100907867D01*
X208473272Y-100930451D01*
X208191100Y-101352750D01*
X208020000Y-101096681D01*
X208020000Y-83826309D01*
X208020000Y-83585750D01*
X207861250Y-83427000D01*
X207137000Y-83427000D01*
X207137000Y-84176250D01*
X207295750Y-84335000D01*
X207511310Y-84335000D01*
X207744699Y-84238327D01*
X207923327Y-84059698D01*
X208020000Y-83826309D01*
X208020000Y-101096681D01*
X207908928Y-100930451D01*
X207455709Y-100627619D01*
X206921100Y-100521279D01*
X206883000Y-100528857D01*
X206883000Y-84176250D01*
X206883000Y-83427000D01*
X206158750Y-83427000D01*
X206000000Y-83585750D01*
X206000000Y-83826309D01*
X206096673Y-84059698D01*
X206275301Y-84238327D01*
X206508690Y-84335000D01*
X206724250Y-84335000D01*
X206883000Y-84176250D01*
X206883000Y-100528857D01*
X206386491Y-100627619D01*
X205933272Y-100930451D01*
X205651100Y-101352750D01*
X205368928Y-100930451D01*
X204915709Y-100627619D01*
X204381100Y-100521279D01*
X203846491Y-100627619D01*
X203393272Y-100930451D01*
X203111100Y-101352750D01*
X202828928Y-100930451D01*
X202375709Y-100627619D01*
X201841100Y-100521279D01*
X201306491Y-100627619D01*
X200853272Y-100930451D01*
X200571100Y-101352750D01*
X200288928Y-100930451D01*
X199835709Y-100627619D01*
X199301100Y-100521279D01*
X198766491Y-100627619D01*
X198313272Y-100930451D01*
X198010440Y-101383670D01*
X197904100Y-101918279D01*
X197904100Y-103008921D01*
X198010440Y-103543530D01*
X198313272Y-103996749D01*
X198766491Y-104299581D01*
X199301100Y-104405921D01*
X199835709Y-104299581D01*
X200288928Y-103996749D01*
X200571100Y-103574449D01*
X200853272Y-103996749D01*
X201306491Y-104299581D01*
X201841100Y-104405921D01*
X202375709Y-104299581D01*
X202828928Y-103996749D01*
X203111100Y-103574449D01*
X203393272Y-103996749D01*
X203846491Y-104299581D01*
X204381100Y-104405921D01*
X204915709Y-104299581D01*
X205368928Y-103996749D01*
X205651100Y-103574449D01*
X205933272Y-103996749D01*
X206386491Y-104299581D01*
X206921100Y-104405921D01*
X207455709Y-104299581D01*
X207908928Y-103996749D01*
X208191100Y-103574449D01*
X208473272Y-103996749D01*
X208926491Y-104299581D01*
X209461100Y-104405921D01*
X209995709Y-104299581D01*
X210448928Y-103996749D01*
X210731100Y-103574449D01*
X211013272Y-103996749D01*
X211466491Y-104299581D01*
X212001100Y-104405921D01*
X212535709Y-104299581D01*
X212988928Y-103996749D01*
X213291760Y-103543530D01*
X213398100Y-103008921D01*
X213398100Y-104471000D01*
X195707767Y-104471000D01*
X195707767Y-93549966D01*
X195679805Y-92999462D01*
X195522931Y-92620735D01*
X195281930Y-92552675D01*
X195102325Y-92732280D01*
X195102325Y-92373070D01*
X195034265Y-92132069D01*
X194514966Y-91947233D01*
X193964462Y-91975195D01*
X193585735Y-92132069D01*
X193517675Y-92373070D01*
X194310000Y-93165395D01*
X195102325Y-92373070D01*
X195102325Y-92732280D01*
X194489605Y-93345000D01*
X195281930Y-94137325D01*
X195522931Y-94069265D01*
X195707767Y-93549966D01*
X195707767Y-104471000D01*
X195618100Y-104471000D01*
X195618100Y-103008921D01*
X195618100Y-101918279D01*
X195511760Y-101383670D01*
X195208928Y-100930451D01*
X195102325Y-100859220D01*
X195102325Y-94316930D01*
X194310000Y-93524605D01*
X194130395Y-93704210D01*
X194130395Y-93345000D01*
X193338070Y-92552675D01*
X193097069Y-92620735D01*
X193038231Y-92786040D01*
X192945314Y-92561163D01*
X192555887Y-92171056D01*
X192046816Y-91959671D01*
X191495602Y-91959190D01*
X190986163Y-92169686D01*
X190596056Y-92559113D01*
X190384671Y-93068184D01*
X190384190Y-93619398D01*
X190594686Y-94128837D01*
X190984113Y-94518944D01*
X191493184Y-94730329D01*
X192044398Y-94730810D01*
X192553837Y-94520314D01*
X192943944Y-94130887D01*
X193033378Y-93915503D01*
X193097069Y-94069265D01*
X193338070Y-94137325D01*
X194130395Y-93345000D01*
X194130395Y-93704210D01*
X193517675Y-94316930D01*
X193585735Y-94557931D01*
X194105034Y-94742767D01*
X194655538Y-94714805D01*
X195034265Y-94557931D01*
X195102325Y-94316930D01*
X195102325Y-100859220D01*
X194755709Y-100627619D01*
X194221100Y-100521279D01*
X193686491Y-100627619D01*
X193233272Y-100930451D01*
X192941770Y-101366713D01*
X192923159Y-101303659D01*
X192579126Y-100877970D01*
X192098377Y-100616340D01*
X192024170Y-100601380D01*
X191808100Y-100723880D01*
X191808100Y-102336600D01*
X191828100Y-102336600D01*
X191828100Y-102590600D01*
X191808100Y-102590600D01*
X191808100Y-104203320D01*
X192024170Y-104325820D01*
X192098377Y-104310860D01*
X192579126Y-104049230D01*
X192923159Y-103623541D01*
X192941770Y-103560486D01*
X193233272Y-103996749D01*
X193686491Y-104299581D01*
X194221100Y-104405921D01*
X194755709Y-104299581D01*
X195208928Y-103996749D01*
X195511760Y-103543530D01*
X195618100Y-103008921D01*
X195618100Y-104471000D01*
X191554100Y-104471000D01*
X191554100Y-104203320D01*
X191554100Y-102590600D01*
X191554100Y-102336600D01*
X191554100Y-100723880D01*
X191338030Y-100601380D01*
X191263823Y-100616340D01*
X190783074Y-100877970D01*
X190439041Y-101303659D01*
X190411100Y-101398323D01*
X190383159Y-101303659D01*
X190176800Y-101048320D01*
X190176800Y-98748510D01*
X190176800Y-98532950D01*
X190176800Y-97961450D01*
X190176800Y-97745890D01*
X190080127Y-97512501D01*
X189901498Y-97333873D01*
X189668109Y-97237200D01*
X189427550Y-97237200D01*
X189268800Y-97395950D01*
X189268800Y-98120200D01*
X190018050Y-98120200D01*
X190176800Y-97961450D01*
X190176800Y-98532950D01*
X190018050Y-98374200D01*
X189268800Y-98374200D01*
X189268800Y-99098450D01*
X189427550Y-99257200D01*
X189668109Y-99257200D01*
X189901498Y-99160527D01*
X190080127Y-98981899D01*
X190176800Y-98748510D01*
X190176800Y-101048320D01*
X190039126Y-100877970D01*
X189558377Y-100616340D01*
X189484170Y-100601380D01*
X189268100Y-100723880D01*
X189268100Y-102336600D01*
X190284100Y-102336600D01*
X190538100Y-102336600D01*
X191554100Y-102336600D01*
X191554100Y-102590600D01*
X190538100Y-102590600D01*
X190284100Y-102590600D01*
X189268100Y-102590600D01*
X189268100Y-104203320D01*
X189484170Y-104325820D01*
X189558377Y-104310860D01*
X190039126Y-104049230D01*
X190383159Y-103623541D01*
X190411100Y-103528876D01*
X190439041Y-103623541D01*
X190783074Y-104049230D01*
X191263823Y-104310860D01*
X191338030Y-104325820D01*
X191554100Y-104203320D01*
X191554100Y-104471000D01*
X189014800Y-104471000D01*
X189014800Y-99098450D01*
X189014800Y-98374200D01*
X188994800Y-98374200D01*
X188994800Y-98120200D01*
X189014800Y-98120200D01*
X189014800Y-97395950D01*
X188856050Y-97237200D01*
X188615491Y-97237200D01*
X188382102Y-97333873D01*
X188380819Y-97335155D01*
X188291440Y-97274823D01*
X188041800Y-97224760D01*
X187241800Y-97224760D01*
X186999677Y-97271737D01*
X186786873Y-97411527D01*
X186644423Y-97622560D01*
X186594360Y-97872200D01*
X186594360Y-98219838D01*
X186063699Y-98750499D01*
X185898952Y-98997061D01*
X185841100Y-99287900D01*
X185841100Y-100778220D01*
X185613272Y-100930451D01*
X185331100Y-101352750D01*
X185048928Y-100930451D01*
X184595709Y-100627619D01*
X184061100Y-100521279D01*
X183526491Y-100627619D01*
X183073272Y-100930451D01*
X182791100Y-101352750D01*
X182508928Y-100930451D01*
X182055709Y-100627619D01*
X181521100Y-100521279D01*
X180986491Y-100627619D01*
X180533272Y-100930451D01*
X180251100Y-101352750D01*
X179968928Y-100930451D01*
X179515709Y-100627619D01*
X178981100Y-100521279D01*
X178446491Y-100627619D01*
X177993272Y-100930451D01*
X177711100Y-101352750D01*
X177428928Y-100930451D01*
X176975709Y-100627619D01*
X176441100Y-100521279D01*
X175906491Y-100627619D01*
X175453272Y-100930451D01*
X175150440Y-101383670D01*
X175044100Y-101918279D01*
X175044100Y-103008921D01*
X175150440Y-103543530D01*
X175453272Y-103996749D01*
X175906491Y-104299581D01*
X176441100Y-104405921D01*
X176975709Y-104299581D01*
X177428928Y-103996749D01*
X177711100Y-103574449D01*
X177993272Y-103996749D01*
X178446491Y-104299581D01*
X178981100Y-104405921D01*
X179515709Y-104299581D01*
X179968928Y-103996749D01*
X180251100Y-103574449D01*
X180533272Y-103996749D01*
X180986491Y-104299581D01*
X181521100Y-104405921D01*
X182055709Y-104299581D01*
X182508928Y-103996749D01*
X182791100Y-103574449D01*
X183073272Y-103996749D01*
X183526491Y-104299581D01*
X184061100Y-104405921D01*
X184595709Y-104299581D01*
X185048928Y-103996749D01*
X185331100Y-103574449D01*
X185613272Y-103996749D01*
X186066491Y-104299581D01*
X186601100Y-104405921D01*
X187135709Y-104299581D01*
X187588928Y-103996749D01*
X187880429Y-103560486D01*
X187899041Y-103623541D01*
X188243074Y-104049230D01*
X188723823Y-104310860D01*
X188798030Y-104325820D01*
X189014100Y-104203320D01*
X189014100Y-102590600D01*
X188994100Y-102590600D01*
X188994100Y-102336600D01*
X189014100Y-102336600D01*
X189014100Y-100723880D01*
X188798030Y-100601380D01*
X188723823Y-100616340D01*
X188243074Y-100877970D01*
X187899041Y-101303659D01*
X187880429Y-101366713D01*
X187588928Y-100930451D01*
X187361100Y-100778220D01*
X187361100Y-99602702D01*
X187694162Y-99269640D01*
X188041800Y-99269640D01*
X188283923Y-99222663D01*
X188380679Y-99159104D01*
X188382102Y-99160527D01*
X188615491Y-99257200D01*
X188856050Y-99257200D01*
X189014800Y-99098450D01*
X189014800Y-104471000D01*
X163432755Y-104471000D01*
X163728400Y-104348842D01*
X164354145Y-103724189D01*
X164693213Y-102907622D01*
X164693985Y-102023457D01*
X164356342Y-101206300D01*
X163731689Y-100580555D01*
X163429318Y-100455000D01*
X182245000Y-100455000D01*
X182535839Y-100397148D01*
X182782401Y-100232401D01*
X202467401Y-80547401D01*
X202534127Y-80447537D01*
X202679846Y-80302073D01*
X202929206Y-79701547D01*
X202929774Y-79051306D01*
X202681462Y-78450345D01*
X202222073Y-77990154D01*
X201621547Y-77740794D01*
X200971306Y-77740226D01*
X200370345Y-77988538D01*
X199910154Y-78447927D01*
X199660794Y-79048453D01*
X199660226Y-79698694D01*
X199908538Y-80299655D01*
X200236754Y-80628443D01*
X181930198Y-98935000D01*
X159494625Y-98935000D01*
X159663327Y-98766298D01*
X159760000Y-98532909D01*
X159760000Y-98292350D01*
X159601250Y-98133600D01*
X158877000Y-98133600D01*
X158877000Y-98153600D01*
X158623000Y-98153600D01*
X158623000Y-98133600D01*
X157898750Y-98133600D01*
X157740000Y-98292350D01*
X157740000Y-98532909D01*
X157836673Y-98766298D01*
X158005374Y-98935000D01*
X153795000Y-98935000D01*
X153795000Y-97799520D01*
X154104529Y-97592699D01*
X154110937Y-97625723D01*
X154250727Y-97838527D01*
X154461760Y-97980977D01*
X154711400Y-98031040D01*
X156438600Y-98031040D01*
X156680723Y-97984063D01*
X156893527Y-97844273D01*
X157035977Y-97633240D01*
X157086040Y-97383600D01*
X157086040Y-97280000D01*
X157822963Y-97280000D01*
X157740000Y-97480291D01*
X157740000Y-97720850D01*
X157898750Y-97879600D01*
X158623000Y-97879600D01*
X158623000Y-97859600D01*
X158877000Y-97859600D01*
X158877000Y-97879600D01*
X159601250Y-97879600D01*
X159760000Y-97720850D01*
X159760000Y-97480291D01*
X159663327Y-97246902D01*
X159662044Y-97245619D01*
X159722377Y-97156240D01*
X159772440Y-96906600D01*
X159772440Y-96106600D01*
X159725463Y-95864477D01*
X159585673Y-95651673D01*
X159374640Y-95509223D01*
X159125000Y-95459160D01*
X158375000Y-95459160D01*
X158132877Y-95506137D01*
X157920073Y-95645927D01*
X157843072Y-95760000D01*
X157086040Y-95760000D01*
X157086040Y-95656400D01*
X157039063Y-95414277D01*
X156899273Y-95201473D01*
X156688240Y-95059023D01*
X156647340Y-95050820D01*
X156664029Y-95039670D01*
X156864262Y-94740000D01*
X161610198Y-94740000D01*
X163927599Y-97057401D01*
X164174160Y-97222148D01*
X164174161Y-97222148D01*
X164222413Y-97231746D01*
X164465000Y-97280000D01*
X182880000Y-97280000D01*
X183170839Y-97222148D01*
X183417401Y-97057401D01*
X198022401Y-82452401D01*
X198187148Y-82205839D01*
X198245000Y-81915000D01*
X198245000Y-70669496D01*
X198409655Y-70601462D01*
X198869846Y-70142073D01*
X199119206Y-69541547D01*
X199119774Y-68891306D01*
X198871462Y-68290345D01*
X198412073Y-67830154D01*
X197811547Y-67580794D01*
X197161306Y-67580226D01*
X196560345Y-67828538D01*
X196100154Y-68287927D01*
X195850794Y-68888453D01*
X195850226Y-69538694D01*
X196098538Y-70139655D01*
X196557927Y-70599846D01*
X196725000Y-70669220D01*
X196725000Y-81600198D01*
X182565198Y-95760000D01*
X164779801Y-95760000D01*
X162462401Y-93442599D01*
X162215839Y-93277852D01*
X161925000Y-93220000D01*
X156864262Y-93220000D01*
X156664029Y-92920330D01*
X156340771Y-92704336D01*
X156463490Y-92646821D01*
X156857688Y-92214947D01*
X157029958Y-91799026D01*
X157029958Y-91080974D01*
X156857688Y-90665053D01*
X156463490Y-90233179D01*
X155934027Y-89985032D01*
X155702000Y-90105531D01*
X155702000Y-91313000D01*
X156908817Y-91313000D01*
X157029958Y-91080974D01*
X157029958Y-91799026D01*
X156908817Y-91567000D01*
X155702000Y-91567000D01*
X155702000Y-91587000D01*
X155448000Y-91587000D01*
X155448000Y-91567000D01*
X155428000Y-91567000D01*
X155428000Y-91313000D01*
X155448000Y-91313000D01*
X155448000Y-90105531D01*
X155215973Y-89985032D01*
X154686510Y-90233179D01*
X154304992Y-90651160D01*
X154124029Y-90380330D01*
X153795000Y-90160479D01*
X153795000Y-89660000D01*
X154940000Y-89660000D01*
X157930503Y-89660000D01*
X157998538Y-89824655D01*
X158457927Y-90284846D01*
X159058453Y-90534206D01*
X159708694Y-90534774D01*
X160309655Y-90286462D01*
X160769846Y-89827073D01*
X161019206Y-89226547D01*
X161019774Y-88576306D01*
X160771462Y-87975345D01*
X160312073Y-87515154D01*
X159711547Y-87265794D01*
X159061306Y-87265226D01*
X158460345Y-87513538D01*
X158000154Y-87972927D01*
X157930779Y-88140000D01*
X154940000Y-88140000D01*
X153035000Y-88140000D01*
X152744161Y-88197852D01*
X152497599Y-88362599D01*
X152332852Y-88609161D01*
X152275000Y-88900000D01*
X152275000Y-90160479D01*
X151945971Y-90380330D01*
X151621115Y-90866511D01*
X151507041Y-91440000D01*
X151621115Y-92013489D01*
X151945971Y-92499670D01*
X152260751Y-92710000D01*
X151945971Y-92920330D01*
X151745737Y-93220000D01*
X151255000Y-93220000D01*
X151255000Y-85215000D01*
X158054198Y-85215000D01*
X167356599Y-94517401D01*
X167603160Y-94682148D01*
X167603161Y-94682148D01*
X167894000Y-94740000D01*
X182880000Y-94740000D01*
X183170839Y-94682148D01*
X183417401Y-94517401D01*
X194212401Y-83722401D01*
X194377148Y-83475840D01*
X194377148Y-83475839D01*
X194386746Y-83427586D01*
X194434999Y-83185000D01*
X194435000Y-83185000D01*
X194435000Y-70669496D01*
X194599655Y-70601462D01*
X195059846Y-70142073D01*
X195309206Y-69541547D01*
X195309774Y-68891306D01*
X195061462Y-68290345D01*
X194602073Y-67830154D01*
X194001547Y-67580794D01*
X193351306Y-67580226D01*
X192750345Y-67828538D01*
X192290154Y-68287927D01*
X192040794Y-68888453D01*
X192040226Y-69538694D01*
X192288538Y-70139655D01*
X192747927Y-70599846D01*
X192915000Y-70669220D01*
X192915000Y-82870198D01*
X191554100Y-84231098D01*
X191554100Y-54748921D01*
X191554100Y-53658279D01*
X191447760Y-53123670D01*
X191144928Y-52670451D01*
X190691709Y-52367619D01*
X190157100Y-52261279D01*
X189622491Y-52367619D01*
X189169272Y-52670451D01*
X188887100Y-53092750D01*
X188604928Y-52670451D01*
X188151709Y-52367619D01*
X187617100Y-52261279D01*
X187082491Y-52367619D01*
X186629272Y-52670451D01*
X186347100Y-53092750D01*
X186064928Y-52670451D01*
X185611709Y-52367619D01*
X185077100Y-52261279D01*
X184542491Y-52367619D01*
X184089272Y-52670451D01*
X183807100Y-53092750D01*
X183524928Y-52670451D01*
X183071709Y-52367619D01*
X182537100Y-52261279D01*
X182002491Y-52367619D01*
X181549272Y-52670451D01*
X181267100Y-53092750D01*
X180984928Y-52670451D01*
X180531709Y-52367619D01*
X179997100Y-52261279D01*
X179462491Y-52367619D01*
X179009272Y-52670451D01*
X178727100Y-53092750D01*
X178444928Y-52670451D01*
X177991709Y-52367619D01*
X177457100Y-52261279D01*
X176922491Y-52367619D01*
X176469272Y-52670451D01*
X176177770Y-53106713D01*
X176159159Y-53043659D01*
X175815126Y-52617970D01*
X175334377Y-52356340D01*
X175260170Y-52341380D01*
X175044100Y-52463880D01*
X175044100Y-54076600D01*
X175064100Y-54076600D01*
X175064100Y-54330600D01*
X175044100Y-54330600D01*
X175044100Y-55943320D01*
X175260170Y-56065820D01*
X175334377Y-56050860D01*
X175815126Y-55789230D01*
X176159159Y-55363541D01*
X176177770Y-55300486D01*
X176469272Y-55736749D01*
X176922491Y-56039581D01*
X177457100Y-56145921D01*
X177991709Y-56039581D01*
X178444928Y-55736749D01*
X178727100Y-55314449D01*
X179009272Y-55736749D01*
X179462491Y-56039581D01*
X179997100Y-56145921D01*
X180531709Y-56039581D01*
X180984928Y-55736749D01*
X181267100Y-55314449D01*
X181549272Y-55736749D01*
X182002491Y-56039581D01*
X182537100Y-56145921D01*
X183071709Y-56039581D01*
X183524928Y-55736749D01*
X183807100Y-55314449D01*
X184089272Y-55736749D01*
X184542491Y-56039581D01*
X185077100Y-56145921D01*
X185358382Y-56089970D01*
X183804838Y-58295000D01*
X163195000Y-58295000D01*
X162904161Y-58352852D01*
X162657599Y-58517599D01*
X162492852Y-58764161D01*
X162435000Y-59055000D01*
X162435000Y-60732930D01*
X162345370Y-60732930D01*
X162103247Y-60779907D01*
X161890443Y-60919697D01*
X161747993Y-61130730D01*
X161697930Y-61380370D01*
X161697930Y-63079630D01*
X161744907Y-63321753D01*
X161884697Y-63534557D01*
X162095730Y-63677007D01*
X162345370Y-63727070D01*
X164044630Y-63727070D01*
X164286753Y-63680093D01*
X164499557Y-63540303D01*
X164642007Y-63329270D01*
X164692070Y-63079630D01*
X164692070Y-61380370D01*
X164645093Y-61138247D01*
X164505303Y-60925443D01*
X164294270Y-60782993D01*
X164044630Y-60732930D01*
X163955000Y-60732930D01*
X163955000Y-59815000D01*
X183802997Y-59815000D01*
X183804204Y-59815932D01*
X183892335Y-59839839D01*
X183975806Y-59876857D01*
X184034107Y-59878298D01*
X184090398Y-59893569D01*
X184180969Y-59881930D01*
X184272253Y-59884188D01*
X184326668Y-59863208D01*
X184384517Y-59855775D01*
X184463743Y-59810360D01*
X184548939Y-59777514D01*
X184591183Y-59737308D01*
X184641784Y-59708303D01*
X184697596Y-59636031D01*
X184763742Y-59573079D01*
X187232262Y-56069372D01*
X187617100Y-56145921D01*
X188151709Y-56039581D01*
X188604928Y-55736749D01*
X188887100Y-55314449D01*
X189169272Y-55736749D01*
X189397100Y-55888979D01*
X189397100Y-58448098D01*
X187010198Y-60835000D01*
X179705000Y-60835000D01*
X179414161Y-60892852D01*
X179167599Y-61057599D01*
X179002852Y-61304161D01*
X178945000Y-61595000D01*
X178945000Y-63185198D01*
X177558440Y-64571758D01*
X177558440Y-63220600D01*
X177511463Y-62978477D01*
X177371673Y-62765673D01*
X177160640Y-62623223D01*
X176911000Y-62573160D01*
X174625000Y-62573160D01*
X174505000Y-62596442D01*
X174505000Y-62515750D01*
X174505000Y-61944250D01*
X174505000Y-61728690D01*
X174408327Y-61495301D01*
X174229698Y-61316673D01*
X173996309Y-61220000D01*
X173755750Y-61220000D01*
X173597000Y-61378750D01*
X173597000Y-62103000D01*
X174346250Y-62103000D01*
X174505000Y-61944250D01*
X174505000Y-62515750D01*
X174346250Y-62357000D01*
X173597000Y-62357000D01*
X173597000Y-63081250D01*
X173755750Y-63240000D01*
X173977560Y-63240000D01*
X173977560Y-64795400D01*
X174024537Y-65037523D01*
X174164327Y-65250327D01*
X174375360Y-65392777D01*
X174544621Y-65426720D01*
X174371778Y-65542211D01*
X174063441Y-66003671D01*
X174012843Y-66258041D01*
X171733401Y-63978599D01*
X171486839Y-63813852D01*
X171196000Y-63756000D01*
X170131947Y-63756000D01*
X170469655Y-63616462D01*
X170929846Y-63157073D01*
X170999220Y-62990000D01*
X171063392Y-62990000D01*
X171109327Y-63059927D01*
X171320360Y-63202377D01*
X171570000Y-63252440D01*
X172370000Y-63252440D01*
X172612123Y-63205463D01*
X172708879Y-63141904D01*
X172710302Y-63143327D01*
X172943691Y-63240000D01*
X173184250Y-63240000D01*
X173343000Y-63081250D01*
X173343000Y-62357000D01*
X173323000Y-62357000D01*
X173323000Y-62103000D01*
X173343000Y-62103000D01*
X173343000Y-61378750D01*
X173184250Y-61220000D01*
X172943691Y-61220000D01*
X172710302Y-61316673D01*
X172709019Y-61317955D01*
X172619640Y-61257623D01*
X172370000Y-61207560D01*
X171570000Y-61207560D01*
X171327877Y-61254537D01*
X171115073Y-61394327D01*
X171063992Y-61470000D01*
X170999496Y-61470000D01*
X170931462Y-61305345D01*
X170472073Y-60845154D01*
X169871547Y-60595794D01*
X169221306Y-60595226D01*
X168620345Y-60843538D01*
X168160154Y-61302927D01*
X167910794Y-61903453D01*
X167910226Y-62553694D01*
X168158538Y-63154655D01*
X168617927Y-63614846D01*
X168957863Y-63756000D01*
X167130000Y-63756000D01*
X167130000Y-63727070D01*
X167219630Y-63727070D01*
X167461753Y-63680093D01*
X167674557Y-63540303D01*
X167817007Y-63329270D01*
X167867070Y-63079630D01*
X167867070Y-61380370D01*
X167820093Y-61138247D01*
X167680303Y-60925443D01*
X167469270Y-60782993D01*
X167219630Y-60732930D01*
X165520370Y-60732930D01*
X165278247Y-60779907D01*
X165065443Y-60919697D01*
X164922993Y-61130730D01*
X164872930Y-61380370D01*
X164872930Y-63079630D01*
X164919907Y-63321753D01*
X165059697Y-63534557D01*
X165270730Y-63677007D01*
X165520370Y-63727070D01*
X165610000Y-63727070D01*
X165610000Y-64135000D01*
X165667852Y-64425839D01*
X165832599Y-64672401D01*
X166213599Y-65053401D01*
X166460160Y-65218148D01*
X166460161Y-65218148D01*
X166751000Y-65276000D01*
X170881198Y-65276000D01*
X174097658Y-68492460D01*
X174063441Y-68543671D01*
X173970702Y-69009900D01*
X170844401Y-65883599D01*
X170597839Y-65718852D01*
X170307000Y-65661000D01*
X163890802Y-65661000D01*
X160557401Y-62327599D01*
X160310839Y-62162852D01*
X160020000Y-62105000D01*
X156864262Y-62105000D01*
X156664029Y-61805330D01*
X156349248Y-61595000D01*
X156664029Y-61384670D01*
X156988885Y-60898489D01*
X157102959Y-60325000D01*
X156988885Y-59751511D01*
X156664029Y-59265330D01*
X156177848Y-58940474D01*
X155604359Y-58826400D01*
X155545641Y-58826400D01*
X154972152Y-58940474D01*
X154485971Y-59265330D01*
X154305007Y-59536160D01*
X153923490Y-59118179D01*
X153394027Y-58870032D01*
X153162000Y-58990531D01*
X153162000Y-60198000D01*
X153182000Y-60198000D01*
X153182000Y-60452000D01*
X153162000Y-60452000D01*
X153162000Y-61530531D01*
X153162000Y-61659469D01*
X153162000Y-62738000D01*
X153182000Y-62738000D01*
X153182000Y-62992000D01*
X153162000Y-62992000D01*
X153162000Y-64070531D01*
X153162000Y-64199469D01*
X153162000Y-65278000D01*
X153182000Y-65278000D01*
X153182000Y-65532000D01*
X153162000Y-65532000D01*
X153162000Y-66739469D01*
X153394027Y-66859968D01*
X153923490Y-66611821D01*
X154094253Y-66424736D01*
X154110937Y-66510723D01*
X154250727Y-66723527D01*
X154461760Y-66865977D01*
X154711400Y-66916040D01*
X156438600Y-66916040D01*
X156680723Y-66869063D01*
X156893527Y-66729273D01*
X156974505Y-66609307D01*
X160117599Y-69752401D01*
X160364161Y-69917148D01*
X160655000Y-69975000D01*
X169230198Y-69975000D01*
X170110010Y-70854812D01*
X169871547Y-70755794D01*
X169221306Y-70755226D01*
X168620345Y-71003538D01*
X168160154Y-71462927D01*
X168090779Y-71630000D01*
X167662346Y-71630000D01*
X167629342Y-71550123D01*
X167212074Y-71132126D01*
X166666607Y-70905628D01*
X166075984Y-70905112D01*
X165530123Y-71130658D01*
X165112126Y-71547926D01*
X165078045Y-71630000D01*
X164487346Y-71630000D01*
X164454342Y-71550123D01*
X164037074Y-71132126D01*
X163491607Y-70905628D01*
X162900984Y-70905112D01*
X162355123Y-71130658D01*
X161937126Y-71547926D01*
X161710628Y-72093393D01*
X161710112Y-72684016D01*
X161935658Y-73229877D01*
X162352926Y-73647874D01*
X162435000Y-73681954D01*
X162435000Y-77345000D01*
X156864262Y-77345000D01*
X156664029Y-77045330D01*
X156349248Y-76835000D01*
X156664029Y-76624670D01*
X156864262Y-76325000D01*
X157295503Y-76325000D01*
X157363538Y-76489655D01*
X157822927Y-76949846D01*
X158423453Y-77199206D01*
X159073694Y-77199774D01*
X159674655Y-76951462D01*
X160134846Y-76492073D01*
X160384206Y-75891547D01*
X160384774Y-75241306D01*
X160136462Y-74640345D01*
X159677073Y-74180154D01*
X159076547Y-73930794D01*
X158426306Y-73930226D01*
X157825345Y-74178538D01*
X157365154Y-74637927D01*
X157295779Y-74805000D01*
X156864262Y-74805000D01*
X156664029Y-74505330D01*
X156177848Y-74180474D01*
X155604359Y-74066400D01*
X155545641Y-74066400D01*
X154972152Y-74180474D01*
X154485971Y-74505330D01*
X154305007Y-74776160D01*
X153923490Y-74358179D01*
X153394027Y-74110032D01*
X153162000Y-74230531D01*
X153162000Y-75438000D01*
X153182000Y-75438000D01*
X153182000Y-75692000D01*
X153162000Y-75692000D01*
X153162000Y-76770531D01*
X153162000Y-76899469D01*
X153162000Y-77978000D01*
X153182000Y-77978000D01*
X153182000Y-78232000D01*
X153162000Y-78232000D01*
X153162000Y-79310531D01*
X153162000Y-79439469D01*
X153162000Y-80518000D01*
X153182000Y-80518000D01*
X153182000Y-80772000D01*
X153162000Y-80772000D01*
X153162000Y-81979469D01*
X153394027Y-82099968D01*
X153923490Y-81851821D01*
X154094253Y-81664736D01*
X154110937Y-81750723D01*
X154250727Y-81963527D01*
X154461760Y-82105977D01*
X154711400Y-82156040D01*
X156438600Y-82156040D01*
X156680723Y-82109063D01*
X156893527Y-81969273D01*
X156974505Y-81849307D01*
X167102599Y-91977401D01*
X167349160Y-92142148D01*
X167349161Y-92142148D01*
X167397413Y-92151746D01*
X167640000Y-92200000D01*
X182880000Y-92200000D01*
X183170839Y-92142148D01*
X183417401Y-91977401D01*
X190694501Y-84700301D01*
X190859248Y-84453739D01*
X190917100Y-84162900D01*
X190917100Y-58762900D01*
X190917100Y-55888979D01*
X191144928Y-55736749D01*
X191447760Y-55283530D01*
X191554100Y-54748921D01*
X191554100Y-84231098D01*
X182565198Y-93220000D01*
X168208802Y-93220000D01*
X158906401Y-83917599D01*
X158659839Y-83752852D01*
X158369000Y-83695000D01*
X152908000Y-83695000D01*
X152908000Y-81979469D01*
X152908000Y-80772000D01*
X152908000Y-80518000D01*
X152908000Y-79439469D01*
X152908000Y-79310531D01*
X152908000Y-78232000D01*
X152908000Y-77978000D01*
X152908000Y-76899469D01*
X152908000Y-76770531D01*
X152908000Y-75692000D01*
X152908000Y-75438000D01*
X152908000Y-74230531D01*
X152908000Y-66739469D01*
X152908000Y-65532000D01*
X152908000Y-65278000D01*
X152908000Y-64199469D01*
X152908000Y-64070531D01*
X152908000Y-62992000D01*
X152908000Y-62738000D01*
X152908000Y-61659469D01*
X152908000Y-61530531D01*
X152908000Y-60452000D01*
X152908000Y-60198000D01*
X152908000Y-58990531D01*
X152675973Y-58870032D01*
X152146510Y-59118179D01*
X151752312Y-59550053D01*
X151580042Y-59965974D01*
X151701183Y-60198000D01*
X152908000Y-60198000D01*
X152908000Y-60452000D01*
X151701183Y-60452000D01*
X151580042Y-60684026D01*
X151752312Y-61099947D01*
X152146510Y-61531821D01*
X152281312Y-61595000D01*
X152146510Y-61658179D01*
X151752312Y-62090053D01*
X151580042Y-62505974D01*
X151701183Y-62738000D01*
X152908000Y-62738000D01*
X152908000Y-62992000D01*
X151701183Y-62992000D01*
X151580042Y-63224026D01*
X151752312Y-63639947D01*
X152146510Y-64071821D01*
X152281312Y-64135000D01*
X152146510Y-64198179D01*
X151752312Y-64630053D01*
X151580042Y-65045974D01*
X151701183Y-65278000D01*
X152908000Y-65278000D01*
X152908000Y-65532000D01*
X151701183Y-65532000D01*
X151580042Y-65764026D01*
X151752312Y-66179947D01*
X152146510Y-66611821D01*
X152675973Y-66859968D01*
X152908000Y-66739469D01*
X152908000Y-74230531D01*
X152675973Y-74110032D01*
X152146510Y-74358179D01*
X151752312Y-74790053D01*
X151580042Y-75205974D01*
X151701183Y-75438000D01*
X152908000Y-75438000D01*
X152908000Y-75692000D01*
X151701183Y-75692000D01*
X151580042Y-75924026D01*
X151752312Y-76339947D01*
X152146510Y-76771821D01*
X152281312Y-76835000D01*
X152146510Y-76898179D01*
X151752312Y-77330053D01*
X151580042Y-77745974D01*
X151701183Y-77978000D01*
X152908000Y-77978000D01*
X152908000Y-78232000D01*
X151701183Y-78232000D01*
X151580042Y-78464026D01*
X151752312Y-78879947D01*
X152146510Y-79311821D01*
X152281312Y-79375000D01*
X152146510Y-79438179D01*
X151752312Y-79870053D01*
X151580042Y-80285974D01*
X151701183Y-80518000D01*
X152908000Y-80518000D01*
X152908000Y-80772000D01*
X151701183Y-80772000D01*
X151580042Y-81004026D01*
X151752312Y-81419947D01*
X152146510Y-81851821D01*
X152675973Y-82099968D01*
X152908000Y-81979469D01*
X152908000Y-83695000D01*
X150495000Y-83695000D01*
X150204161Y-83752852D01*
X149957599Y-83917599D01*
X149792852Y-84164161D01*
X149735000Y-84455000D01*
X149735000Y-93980000D01*
X149792852Y-94270839D01*
X149957599Y-94517401D01*
X150204161Y-94682148D01*
X150495000Y-94740000D01*
X151745737Y-94740000D01*
X151945971Y-95039670D01*
X152260751Y-95250000D01*
X151945971Y-95460330D01*
X151621115Y-95946511D01*
X151507041Y-96520000D01*
X151621115Y-97093489D01*
X151945971Y-97579670D01*
X152275000Y-97799520D01*
X152275000Y-99695000D01*
X152332852Y-99985839D01*
X152497599Y-100232401D01*
X152744161Y-100397148D01*
X153035000Y-100455000D01*
X161512348Y-100455000D01*
X161213800Y-100578358D01*
X160588055Y-101203011D01*
X160248987Y-102019578D01*
X160248215Y-102903743D01*
X160585858Y-103720900D01*
X161210511Y-104346645D01*
X161509991Y-104471000D01*
X149021000Y-104471000D01*
X149021000Y-52247000D01*
X162656499Y-52247000D01*
X162483800Y-52318358D01*
X161858055Y-52943011D01*
X161518987Y-53759578D01*
X161518215Y-54643743D01*
X161855858Y-55460900D01*
X162480511Y-56086645D01*
X163297078Y-56425713D01*
X164181243Y-56426485D01*
X164998400Y-56088842D01*
X165624145Y-55464189D01*
X165906917Y-54783196D01*
X166006440Y-55283530D01*
X166309272Y-55736749D01*
X166762491Y-56039581D01*
X167297100Y-56145921D01*
X167831709Y-56039581D01*
X168284928Y-55736749D01*
X168567100Y-55314449D01*
X168849272Y-55736749D01*
X169302491Y-56039581D01*
X169837100Y-56145921D01*
X170371709Y-56039581D01*
X170824928Y-55736749D01*
X171107100Y-55314449D01*
X171389272Y-55736749D01*
X171842491Y-56039581D01*
X172377100Y-56145921D01*
X172911709Y-56039581D01*
X173364928Y-55736749D01*
X173656429Y-55300486D01*
X173675041Y-55363541D01*
X174019074Y-55789230D01*
X174499823Y-56050860D01*
X174574030Y-56065820D01*
X174790100Y-55943320D01*
X174790100Y-54330600D01*
X174770100Y-54330600D01*
X174770100Y-54076600D01*
X174790100Y-54076600D01*
X174790100Y-52463880D01*
X174574030Y-52341380D01*
X174499823Y-52356340D01*
X174019074Y-52617970D01*
X173675041Y-53043659D01*
X173656429Y-53106713D01*
X173364928Y-52670451D01*
X172911709Y-52367619D01*
X172377100Y-52261279D01*
X171842491Y-52367619D01*
X171389272Y-52670451D01*
X171107100Y-53092750D01*
X170824928Y-52670451D01*
X170371709Y-52367619D01*
X169837100Y-52261279D01*
X169302491Y-52367619D01*
X168849272Y-52670451D01*
X168567100Y-53092750D01*
X168284928Y-52670451D01*
X167831709Y-52367619D01*
X167297100Y-52261279D01*
X166762491Y-52367619D01*
X166309272Y-52670451D01*
X166006440Y-53123670D01*
X165906737Y-53624908D01*
X165626342Y-52946300D01*
X165001689Y-52320555D01*
X164824548Y-52247000D01*
X216739000Y-52247000D01*
X216739000Y-68942988D01*
X216426342Y-68186300D01*
X215801689Y-67560555D01*
X214985122Y-67221487D01*
X214100957Y-67220715D01*
X213398100Y-67511130D01*
X213398100Y-54748921D01*
X213398100Y-53658279D01*
X213291760Y-53123670D01*
X212988928Y-52670451D01*
X212535709Y-52367619D01*
X212001100Y-52261279D01*
X211466491Y-52367619D01*
X211013272Y-52670451D01*
X210731100Y-53092750D01*
X210448928Y-52670451D01*
X209995709Y-52367619D01*
X209461100Y-52261279D01*
X208926491Y-52367619D01*
X208473272Y-52670451D01*
X208191100Y-53092750D01*
X207908928Y-52670451D01*
X207455709Y-52367619D01*
X206921100Y-52261279D01*
X206386491Y-52367619D01*
X205933272Y-52670451D01*
X205651100Y-53092750D01*
X205368928Y-52670451D01*
X204915709Y-52367619D01*
X204381100Y-52261279D01*
X203846491Y-52367619D01*
X203393272Y-52670451D01*
X203111100Y-53092750D01*
X202828928Y-52670451D01*
X202375709Y-52367619D01*
X201841100Y-52261279D01*
X201306491Y-52367619D01*
X200853272Y-52670451D01*
X200571100Y-53092750D01*
X200288928Y-52670451D01*
X199835709Y-52367619D01*
X199301100Y-52261279D01*
X198766491Y-52367619D01*
X198313272Y-52670451D01*
X198031100Y-53092750D01*
X197748928Y-52670451D01*
X197295709Y-52367619D01*
X196761100Y-52261279D01*
X196226491Y-52367619D01*
X195773272Y-52670451D01*
X195491100Y-53092750D01*
X195208928Y-52670451D01*
X194755709Y-52367619D01*
X194221100Y-52261279D01*
X193686491Y-52367619D01*
X193233272Y-52670451D01*
X192930440Y-53123670D01*
X192824100Y-53658279D01*
X192824100Y-54748921D01*
X192930440Y-55283530D01*
X193233272Y-55736749D01*
X193461100Y-55888979D01*
X193461100Y-57420321D01*
X193351306Y-57420226D01*
X192750345Y-57668538D01*
X192290154Y-58127927D01*
X192040794Y-58728453D01*
X192040226Y-59378694D01*
X192288538Y-59979655D01*
X192747927Y-60439846D01*
X193348453Y-60689206D01*
X193998694Y-60689774D01*
X194599655Y-60441462D01*
X195059846Y-59982073D01*
X195309206Y-59381547D01*
X195309774Y-58731306D01*
X195061462Y-58130345D01*
X194981100Y-58049842D01*
X194981100Y-55888979D01*
X195208928Y-55736749D01*
X195491100Y-55314449D01*
X195773272Y-55736749D01*
X196001100Y-55888979D01*
X196001100Y-58331100D01*
X196005857Y-58355018D01*
X195850794Y-58728453D01*
X195850226Y-59378694D01*
X196098538Y-59979655D01*
X196557927Y-60439846D01*
X197158453Y-60689206D01*
X197808694Y-60689774D01*
X198409655Y-60441462D01*
X198869846Y-59982073D01*
X199119206Y-59381547D01*
X199119774Y-58731306D01*
X198871462Y-58130345D01*
X198412073Y-57670154D01*
X197811547Y-57420794D01*
X197521100Y-57420540D01*
X197521100Y-55888979D01*
X197748928Y-55736749D01*
X198031100Y-55314449D01*
X198313272Y-55736749D01*
X198766491Y-56039581D01*
X199301100Y-56145921D01*
X199835709Y-56039581D01*
X200288928Y-55736749D01*
X200571100Y-55314449D01*
X200853272Y-55736749D01*
X201306491Y-56039581D01*
X201841100Y-56145921D01*
X202375709Y-56039581D01*
X202828928Y-55736749D01*
X203111100Y-55314449D01*
X203393272Y-55736749D01*
X203846491Y-56039581D01*
X204381100Y-56145921D01*
X204915709Y-56039581D01*
X205368928Y-55736749D01*
X205651100Y-55314449D01*
X205933272Y-55736749D01*
X206161100Y-55888979D01*
X206161100Y-59464098D01*
X203932599Y-61692599D01*
X203767852Y-61939161D01*
X203710000Y-62230000D01*
X203710000Y-68455000D01*
X202749496Y-68455000D01*
X202681462Y-68290345D01*
X202222073Y-67830154D01*
X201621547Y-67580794D01*
X200971306Y-67580226D01*
X200370345Y-67828538D01*
X199910154Y-68287927D01*
X199660794Y-68888453D01*
X199660226Y-69538694D01*
X199908538Y-70139655D01*
X200367927Y-70599846D01*
X200968453Y-70849206D01*
X201618694Y-70849774D01*
X202219655Y-70601462D01*
X202679846Y-70142073D01*
X202749220Y-69975000D01*
X204470000Y-69975000D01*
X205717653Y-69975000D01*
X205750658Y-70054877D01*
X206167926Y-70472874D01*
X206713393Y-70699372D01*
X207304016Y-70699888D01*
X207849877Y-70474342D01*
X208267874Y-70057074D01*
X208494372Y-69511607D01*
X208494888Y-68920984D01*
X208269342Y-68375123D01*
X207852074Y-67957126D01*
X207306607Y-67730628D01*
X206715984Y-67730112D01*
X206170123Y-67955658D01*
X205752126Y-68372926D01*
X205718045Y-68455000D01*
X205230000Y-68455000D01*
X205230000Y-62544802D01*
X207458501Y-60316301D01*
X207623248Y-60069739D01*
X207681100Y-59778900D01*
X207681100Y-55888979D01*
X207908928Y-55736749D01*
X208191100Y-55314449D01*
X208473272Y-55736749D01*
X208926491Y-56039581D01*
X209461100Y-56145921D01*
X209995709Y-56039581D01*
X210448928Y-55736749D01*
X210731100Y-55314449D01*
X211013272Y-55736749D01*
X211466491Y-56039581D01*
X212001100Y-56145921D01*
X212535709Y-56039581D01*
X212988928Y-55736749D01*
X213291760Y-55283530D01*
X213398100Y-54748921D01*
X213398100Y-67511130D01*
X213283800Y-67558358D01*
X212658055Y-68183011D01*
X212318987Y-68999578D01*
X212318215Y-69883743D01*
X212655858Y-70700900D01*
X213280511Y-71326645D01*
X214097078Y-71665713D01*
X214981243Y-71666485D01*
X215798400Y-71328842D01*
X216424145Y-70704189D01*
X216739000Y-69945933D01*
X216739000Y-96882988D01*
X216426342Y-96126300D01*
X215801689Y-95500555D01*
X214985122Y-95161487D01*
X214100957Y-95160715D01*
X213283800Y-95498358D01*
X212658055Y-96123011D01*
X212318987Y-96939578D01*
X212318215Y-97823743D01*
X212655858Y-98640900D01*
X213280511Y-99266645D01*
X214097078Y-99605713D01*
X214981243Y-99606485D01*
X215798400Y-99268842D01*
X216424145Y-98644189D01*
X216739000Y-97885933D01*
X216739000Y-104471000D01*
M02*
