G04 #@! TF.FileFunction,Legend,Top*
%FSLAX46Y46*%
G04 Gerber Fmt 4.6, Leading zero omitted, Abs format (unit mm)*
G04 Created by KiCad (PCBNEW (after 2015-mar-04 BZR unknown)-product) date Fri 28 Oct 2016 10:27:18 AM CEST*
%MOMM*%
G01*
G04 APERTURE LIST*
%ADD10C,0.100000*%
%ADD11C,0.200000*%
%ADD12C,0.300000*%
%ADD13C,0.150000*%
G04 APERTURE END LIST*
D10*
D11*
X150042619Y-53030715D02*
X150518810Y-52697381D01*
X150042619Y-52459286D02*
X151042619Y-52459286D01*
X151042619Y-52840239D01*
X150995000Y-52935477D01*
X150947381Y-52983096D01*
X150852143Y-53030715D01*
X150709286Y-53030715D01*
X150614048Y-52983096D01*
X150566429Y-52935477D01*
X150518810Y-52840239D01*
X150518810Y-52459286D01*
X150090238Y-53411667D02*
X150042619Y-53554524D01*
X150042619Y-53792620D01*
X150090238Y-53887858D01*
X150137857Y-53935477D01*
X150233095Y-53983096D01*
X150328333Y-53983096D01*
X150423571Y-53935477D01*
X150471190Y-53887858D01*
X150518810Y-53792620D01*
X150566429Y-53602143D01*
X150614048Y-53506905D01*
X150661667Y-53459286D01*
X150756905Y-53411667D01*
X150852143Y-53411667D01*
X150947381Y-53459286D01*
X150995000Y-53506905D01*
X151042619Y-53602143D01*
X151042619Y-53840239D01*
X150995000Y-53983096D01*
X150423571Y-54411667D02*
X150423571Y-55173572D01*
X150947381Y-55602143D02*
X150995000Y-55649762D01*
X151042619Y-55745000D01*
X151042619Y-55983096D01*
X150995000Y-56078334D01*
X150947381Y-56125953D01*
X150852143Y-56173572D01*
X150756905Y-56173572D01*
X150614048Y-56125953D01*
X150042619Y-55554524D01*
X150042619Y-56173572D01*
X151042619Y-56506905D02*
X151042619Y-57125953D01*
X150661667Y-56792619D01*
X150661667Y-56935477D01*
X150614048Y-57030715D01*
X150566429Y-57078334D01*
X150471190Y-57125953D01*
X150233095Y-57125953D01*
X150137857Y-57078334D01*
X150090238Y-57030715D01*
X150042619Y-56935477D01*
X150042619Y-56649762D01*
X150090238Y-56554524D01*
X150137857Y-56506905D01*
X150947381Y-57506905D02*
X150995000Y-57554524D01*
X151042619Y-57649762D01*
X151042619Y-57887858D01*
X150995000Y-57983096D01*
X150947381Y-58030715D01*
X150852143Y-58078334D01*
X150756905Y-58078334D01*
X150614048Y-58030715D01*
X150042619Y-57459286D01*
X150042619Y-58078334D01*
X150995000Y-71040715D02*
X151042619Y-70945477D01*
X151042619Y-70802620D01*
X150995000Y-70659762D01*
X150899762Y-70564524D01*
X150804524Y-70516905D01*
X150614048Y-70469286D01*
X150471190Y-70469286D01*
X150280714Y-70516905D01*
X150185476Y-70564524D01*
X150090238Y-70659762D01*
X150042619Y-70802620D01*
X150042619Y-70897858D01*
X150090238Y-71040715D01*
X150137857Y-71088334D01*
X150471190Y-71088334D01*
X150471190Y-70897858D01*
X150042619Y-71516905D02*
X151042619Y-71516905D01*
X151042619Y-71897858D01*
X150995000Y-71993096D01*
X150947381Y-72040715D01*
X150852143Y-72088334D01*
X150709286Y-72088334D01*
X150614048Y-72040715D01*
X150566429Y-71993096D01*
X150518810Y-71897858D01*
X150518810Y-71516905D01*
X150090238Y-72469286D02*
X150042619Y-72612143D01*
X150042619Y-72850239D01*
X150090238Y-72945477D01*
X150137857Y-72993096D01*
X150233095Y-73040715D01*
X150328333Y-73040715D01*
X150423571Y-72993096D01*
X150471190Y-72945477D01*
X150518810Y-72850239D01*
X150566429Y-72659762D01*
X150614048Y-72564524D01*
X150661667Y-72516905D01*
X150756905Y-72469286D01*
X150852143Y-72469286D01*
X150947381Y-72516905D01*
X150995000Y-72564524D01*
X151042619Y-72659762D01*
X151042619Y-72897858D01*
X150995000Y-73040715D01*
X150566429Y-99385715D02*
X150566429Y-99052381D01*
X150042619Y-99052381D02*
X151042619Y-99052381D01*
X151042619Y-99528572D01*
X150042619Y-99909524D02*
X151042619Y-99909524D01*
X151042619Y-100290477D01*
X150995000Y-100385715D01*
X150947381Y-100433334D01*
X150852143Y-100480953D01*
X150709286Y-100480953D01*
X150614048Y-100433334D01*
X150566429Y-100385715D01*
X150518810Y-100290477D01*
X150518810Y-99909524D01*
X149947381Y-100671429D02*
X149947381Y-101433334D01*
X150995000Y-102195239D02*
X151042619Y-102100001D01*
X151042619Y-101957144D01*
X150995000Y-101814286D01*
X150899762Y-101719048D01*
X150804524Y-101671429D01*
X150614048Y-101623810D01*
X150471190Y-101623810D01*
X150280714Y-101671429D01*
X150185476Y-101719048D01*
X150090238Y-101814286D01*
X150042619Y-101957144D01*
X150042619Y-102052382D01*
X150090238Y-102195239D01*
X150137857Y-102242858D01*
X150471190Y-102242858D01*
X150471190Y-102052382D01*
X150042619Y-102671429D02*
X151042619Y-102671429D01*
X151042619Y-103052382D01*
X150995000Y-103147620D01*
X150947381Y-103195239D01*
X150852143Y-103242858D01*
X150709286Y-103242858D01*
X150614048Y-103195239D01*
X150566429Y-103147620D01*
X150518810Y-103052382D01*
X150518810Y-102671429D01*
X150090238Y-103623810D02*
X150042619Y-103766667D01*
X150042619Y-104004763D01*
X150090238Y-104100001D01*
X150137857Y-104147620D01*
X150233095Y-104195239D01*
X150328333Y-104195239D01*
X150423571Y-104147620D01*
X150471190Y-104100001D01*
X150518810Y-104004763D01*
X150566429Y-103814286D01*
X150614048Y-103719048D01*
X150661667Y-103671429D01*
X150756905Y-103623810D01*
X150852143Y-103623810D01*
X150947381Y-103671429D01*
X150995000Y-103719048D01*
X151042619Y-103814286D01*
X151042619Y-104052382D01*
X150995000Y-104195239D01*
D12*
X203363143Y-87264571D02*
X203363143Y-88764571D01*
X203363143Y-87336000D02*
X203506000Y-87264571D01*
X203791714Y-87264571D01*
X203934571Y-87336000D01*
X204006000Y-87407429D01*
X204077429Y-87550286D01*
X204077429Y-87978857D01*
X204006000Y-88121714D01*
X203934571Y-88193143D01*
X203791714Y-88264571D01*
X203506000Y-88264571D01*
X203363143Y-88193143D01*
X205363143Y-88264571D02*
X205363143Y-87478857D01*
X205291714Y-87336000D01*
X205148857Y-87264571D01*
X204863143Y-87264571D01*
X204720286Y-87336000D01*
X205363143Y-88193143D02*
X205220286Y-88264571D01*
X204863143Y-88264571D01*
X204720286Y-88193143D01*
X204648857Y-88050286D01*
X204648857Y-87907429D01*
X204720286Y-87764571D01*
X204863143Y-87693143D01*
X205220286Y-87693143D01*
X205363143Y-87621714D01*
X205934572Y-86764571D02*
X206863143Y-86764571D01*
X206363143Y-87336000D01*
X206577429Y-87336000D01*
X206720286Y-87407429D01*
X206791715Y-87478857D01*
X206863143Y-87621714D01*
X206863143Y-87978857D01*
X206791715Y-88121714D01*
X206720286Y-88193143D01*
X206577429Y-88264571D01*
X206148857Y-88264571D01*
X206006000Y-88193143D01*
X205934572Y-88121714D01*
X208148857Y-87264571D02*
X208148857Y-88478857D01*
X208077428Y-88621714D01*
X208006000Y-88693143D01*
X207863143Y-88764571D01*
X207648857Y-88764571D01*
X207506000Y-88693143D01*
X208148857Y-88193143D02*
X208006000Y-88264571D01*
X207720286Y-88264571D01*
X207577428Y-88193143D01*
X207506000Y-88121714D01*
X207434571Y-87978857D01*
X207434571Y-87550286D01*
X207506000Y-87407429D01*
X207577428Y-87336000D01*
X207720286Y-87264571D01*
X208006000Y-87264571D01*
X208148857Y-87336000D01*
X208720286Y-87264571D02*
X209077429Y-88264571D01*
X209434571Y-87264571D02*
X209077429Y-88264571D01*
X208934571Y-88621714D01*
X208863143Y-88693143D01*
X208720286Y-88764571D01*
X209791714Y-87264571D02*
X210363143Y-87264571D01*
X210006000Y-88264571D02*
X210006000Y-86978857D01*
X210077428Y-86836000D01*
X210220286Y-86764571D01*
X210363143Y-86764571D01*
X203541714Y-90664571D02*
X203541714Y-89878857D01*
X203470285Y-89736000D01*
X203327428Y-89664571D01*
X203041714Y-89664571D01*
X202898857Y-89736000D01*
X203541714Y-90593143D02*
X203398857Y-90664571D01*
X203041714Y-90664571D01*
X202898857Y-90593143D01*
X202827428Y-90450286D01*
X202827428Y-90307429D01*
X202898857Y-90164571D01*
X203041714Y-90093143D01*
X203398857Y-90093143D01*
X203541714Y-90021714D01*
X204256000Y-90664571D02*
X204256000Y-89664571D01*
X204256000Y-89950286D02*
X204327428Y-89807429D01*
X204398857Y-89736000D01*
X204541714Y-89664571D01*
X204684571Y-89664571D01*
X205827428Y-90664571D02*
X205827428Y-89164571D01*
X205827428Y-90593143D02*
X205684571Y-90664571D01*
X205398857Y-90664571D01*
X205255999Y-90593143D01*
X205184571Y-90521714D01*
X205113142Y-90378857D01*
X205113142Y-89950286D01*
X205184571Y-89807429D01*
X205255999Y-89736000D01*
X205398857Y-89664571D01*
X205684571Y-89664571D01*
X205827428Y-89736000D01*
X207184571Y-89664571D02*
X207184571Y-90664571D01*
X206541714Y-89664571D02*
X206541714Y-90450286D01*
X206613142Y-90593143D01*
X206756000Y-90664571D01*
X206970285Y-90664571D01*
X207113142Y-90593143D01*
X207184571Y-90521714D01*
X207898857Y-90664571D02*
X207898857Y-89664571D01*
X207898857Y-89164571D02*
X207827428Y-89236000D01*
X207898857Y-89307429D01*
X207970285Y-89236000D01*
X207898857Y-89164571D01*
X207898857Y-89307429D01*
X208613143Y-89664571D02*
X208613143Y-90664571D01*
X208613143Y-89807429D02*
X208684571Y-89736000D01*
X208827429Y-89664571D01*
X209041714Y-89664571D01*
X209184571Y-89736000D01*
X209256000Y-89878857D01*
X209256000Y-90664571D01*
X210184572Y-90664571D02*
X210041714Y-90593143D01*
X209970286Y-90521714D01*
X209898857Y-90378857D01*
X209898857Y-89950286D01*
X209970286Y-89807429D01*
X210041714Y-89736000D01*
X210184572Y-89664571D01*
X210398857Y-89664571D01*
X210541714Y-89736000D01*
X210613143Y-89807429D01*
X210684572Y-89950286D01*
X210684572Y-90378857D01*
X210613143Y-90521714D01*
X210541714Y-90593143D01*
X210398857Y-90664571D01*
X210184572Y-90664571D01*
X201506000Y-92064571D02*
X201506000Y-93278857D01*
X201434571Y-93421714D01*
X201363143Y-93493143D01*
X201220286Y-93564571D01*
X201006000Y-93564571D01*
X200863143Y-93493143D01*
X201506000Y-92993143D02*
X201363143Y-93064571D01*
X201077429Y-93064571D01*
X200934571Y-92993143D01*
X200863143Y-92921714D01*
X200791714Y-92778857D01*
X200791714Y-92350286D01*
X200863143Y-92207429D01*
X200934571Y-92136000D01*
X201077429Y-92064571D01*
X201363143Y-92064571D01*
X201506000Y-92136000D01*
X202220286Y-92064571D02*
X202220286Y-93564571D01*
X202220286Y-92136000D02*
X202363143Y-92064571D01*
X202648857Y-92064571D01*
X202791714Y-92136000D01*
X202863143Y-92207429D01*
X202934572Y-92350286D01*
X202934572Y-92778857D01*
X202863143Y-92921714D01*
X202791714Y-92993143D01*
X202648857Y-93064571D01*
X202363143Y-93064571D01*
X202220286Y-92993143D01*
X203506000Y-92993143D02*
X203648857Y-93064571D01*
X203934572Y-93064571D01*
X204077429Y-92993143D01*
X204148857Y-92850286D01*
X204148857Y-92778857D01*
X204077429Y-92636000D01*
X203934572Y-92564571D01*
X203720286Y-92564571D01*
X203577429Y-92493143D01*
X203506000Y-92350286D01*
X203506000Y-92278857D01*
X203577429Y-92136000D01*
X203720286Y-92064571D01*
X203934572Y-92064571D01*
X204077429Y-92136000D01*
X204791715Y-92493143D02*
X205934572Y-92493143D01*
X206577429Y-92993143D02*
X206720286Y-93064571D01*
X207006001Y-93064571D01*
X207148858Y-92993143D01*
X207220286Y-92850286D01*
X207220286Y-92778857D01*
X207148858Y-92636000D01*
X207006001Y-92564571D01*
X206791715Y-92564571D01*
X206648858Y-92493143D01*
X206577429Y-92350286D01*
X206577429Y-92278857D01*
X206648858Y-92136000D01*
X206791715Y-92064571D01*
X207006001Y-92064571D01*
X207148858Y-92136000D01*
X207863144Y-93064571D02*
X207863144Y-91564571D01*
X208506001Y-93064571D02*
X208506001Y-92278857D01*
X208434572Y-92136000D01*
X208291715Y-92064571D01*
X208077430Y-92064571D01*
X207934572Y-92136000D01*
X207863144Y-92207429D01*
X209220287Y-93064571D02*
X209220287Y-92064571D01*
X209220287Y-91564571D02*
X209148858Y-91636000D01*
X209220287Y-91707429D01*
X209291715Y-91636000D01*
X209220287Y-91564571D01*
X209220287Y-91707429D01*
X210506001Y-92993143D02*
X210363144Y-93064571D01*
X210077430Y-93064571D01*
X209934573Y-92993143D01*
X209863144Y-92850286D01*
X209863144Y-92278857D01*
X209934573Y-92136000D01*
X210077430Y-92064571D01*
X210363144Y-92064571D01*
X210506001Y-92136000D01*
X210577430Y-92278857D01*
X210577430Y-92421714D01*
X209863144Y-92564571D01*
X211434573Y-93064571D02*
X211291715Y-92993143D01*
X211220287Y-92850286D01*
X211220287Y-91564571D01*
X212648858Y-93064571D02*
X212648858Y-91564571D01*
X212648858Y-92993143D02*
X212506001Y-93064571D01*
X212220287Y-93064571D01*
X212077429Y-92993143D01*
X212006001Y-92921714D01*
X211934572Y-92778857D01*
X211934572Y-92350286D01*
X212006001Y-92207429D01*
X212077429Y-92136000D01*
X212220287Y-92064571D01*
X212506001Y-92064571D01*
X212648858Y-92136000D01*
X205684572Y-94464571D02*
X206041715Y-95464571D01*
X206398857Y-94464571D01*
X207756000Y-95464571D02*
X206898857Y-95464571D01*
X207327429Y-95464571D02*
X207327429Y-93964571D01*
X207184572Y-94178857D01*
X207041714Y-94321714D01*
X206898857Y-94393143D01*
D13*
X154051000Y-91186000D02*
X154559000Y-91186000D01*
X154051000Y-91694000D02*
X154559000Y-91694000D01*
X154051000Y-93726000D02*
X154559000Y-93726000D01*
X154051000Y-94234000D02*
X154559000Y-94234000D01*
X154051000Y-96266000D02*
X154559000Y-96266000D01*
X154051000Y-96774000D02*
X154559000Y-96774000D01*
X151511000Y-94234000D02*
X152019000Y-94234000D01*
X151511000Y-93726000D02*
X152019000Y-93726000D01*
X151511000Y-91694000D02*
X152019000Y-91694000D01*
X151511000Y-91186000D02*
X152019000Y-91186000D01*
X151511000Y-96774000D02*
X152019000Y-96774000D01*
X151511000Y-96266000D02*
X152019000Y-96266000D01*
X155575000Y-98070000D02*
X156725000Y-98070000D01*
X156725000Y-98070000D02*
X156725000Y-96520000D01*
X148971000Y-96647000D02*
X143002000Y-96647000D01*
X143002000Y-96647000D02*
X143002000Y-96393000D01*
X143002000Y-96393000D02*
X148844000Y-96393000D01*
X148844000Y-96393000D02*
X148844000Y-96520000D01*
X148844000Y-96520000D02*
X143002000Y-96520000D01*
X151511000Y-95250000D02*
X151511000Y-92710000D01*
X151511000Y-92710000D02*
X148971000Y-92710000D01*
X148971000Y-94234000D02*
X142875000Y-94234000D01*
X142875000Y-94234000D02*
X142875000Y-93726000D01*
X142875000Y-93726000D02*
X148971000Y-93726000D01*
X148971000Y-92710000D02*
X148971000Y-95250000D01*
X151511000Y-90170000D02*
X148971000Y-90170000D01*
X148971000Y-90170000D02*
X148971000Y-92710000D01*
X142875000Y-91186000D02*
X148971000Y-91186000D01*
X142875000Y-91694000D02*
X142875000Y-91186000D01*
X148971000Y-91694000D02*
X142875000Y-91694000D01*
X151511000Y-90170000D02*
X148971000Y-90170000D01*
X151511000Y-92710000D02*
X151511000Y-90170000D01*
X151511000Y-92710000D02*
X148971000Y-92710000D01*
X151511000Y-95250000D02*
X148971000Y-95250000D01*
X148971000Y-95250000D02*
X148971000Y-97790000D01*
X142875000Y-96266000D02*
X148971000Y-96266000D01*
X142875000Y-96774000D02*
X142875000Y-96266000D01*
X148971000Y-96774000D02*
X142875000Y-96774000D01*
X151511000Y-95250000D02*
X148971000Y-95250000D01*
X151511000Y-97790000D02*
X151511000Y-95250000D01*
X151511000Y-97790000D02*
X148971000Y-97790000D01*
X154051000Y-75311000D02*
X154559000Y-75311000D01*
X154051000Y-75819000D02*
X154559000Y-75819000D01*
X154051000Y-77851000D02*
X154559000Y-77851000D01*
X154051000Y-78359000D02*
X154559000Y-78359000D01*
X154051000Y-80391000D02*
X154559000Y-80391000D01*
X154051000Y-80899000D02*
X154559000Y-80899000D01*
X151511000Y-78359000D02*
X152019000Y-78359000D01*
X151511000Y-77851000D02*
X152019000Y-77851000D01*
X151511000Y-75819000D02*
X152019000Y-75819000D01*
X151511000Y-75311000D02*
X152019000Y-75311000D01*
X151511000Y-80899000D02*
X152019000Y-80899000D01*
X151511000Y-80391000D02*
X152019000Y-80391000D01*
X155575000Y-82195000D02*
X156725000Y-82195000D01*
X156725000Y-82195000D02*
X156725000Y-80645000D01*
X148971000Y-80772000D02*
X143002000Y-80772000D01*
X143002000Y-80772000D02*
X143002000Y-80518000D01*
X143002000Y-80518000D02*
X148844000Y-80518000D01*
X148844000Y-80518000D02*
X148844000Y-80645000D01*
X148844000Y-80645000D02*
X143002000Y-80645000D01*
X151511000Y-79375000D02*
X151511000Y-76835000D01*
X151511000Y-76835000D02*
X148971000Y-76835000D01*
X148971000Y-78359000D02*
X142875000Y-78359000D01*
X142875000Y-78359000D02*
X142875000Y-77851000D01*
X142875000Y-77851000D02*
X148971000Y-77851000D01*
X148971000Y-76835000D02*
X148971000Y-79375000D01*
X151511000Y-74295000D02*
X148971000Y-74295000D01*
X148971000Y-74295000D02*
X148971000Y-76835000D01*
X142875000Y-75311000D02*
X148971000Y-75311000D01*
X142875000Y-75819000D02*
X142875000Y-75311000D01*
X148971000Y-75819000D02*
X142875000Y-75819000D01*
X151511000Y-74295000D02*
X148971000Y-74295000D01*
X151511000Y-76835000D02*
X151511000Y-74295000D01*
X151511000Y-76835000D02*
X148971000Y-76835000D01*
X151511000Y-79375000D02*
X148971000Y-79375000D01*
X148971000Y-79375000D02*
X148971000Y-81915000D01*
X142875000Y-80391000D02*
X148971000Y-80391000D01*
X142875000Y-80899000D02*
X142875000Y-80391000D01*
X148971000Y-80899000D02*
X142875000Y-80899000D01*
X151511000Y-79375000D02*
X148971000Y-79375000D01*
X151511000Y-81915000D02*
X151511000Y-79375000D01*
X151511000Y-81915000D02*
X148971000Y-81915000D01*
X154051000Y-60071000D02*
X154559000Y-60071000D01*
X154051000Y-60579000D02*
X154559000Y-60579000D01*
X154051000Y-62611000D02*
X154559000Y-62611000D01*
X154051000Y-63119000D02*
X154559000Y-63119000D01*
X154051000Y-65151000D02*
X154559000Y-65151000D01*
X154051000Y-65659000D02*
X154559000Y-65659000D01*
X151511000Y-63119000D02*
X152019000Y-63119000D01*
X151511000Y-62611000D02*
X152019000Y-62611000D01*
X151511000Y-60579000D02*
X152019000Y-60579000D01*
X151511000Y-60071000D02*
X152019000Y-60071000D01*
X151511000Y-65659000D02*
X152019000Y-65659000D01*
X151511000Y-65151000D02*
X152019000Y-65151000D01*
X155575000Y-66955000D02*
X156725000Y-66955000D01*
X156725000Y-66955000D02*
X156725000Y-65405000D01*
X148971000Y-65532000D02*
X143002000Y-65532000D01*
X143002000Y-65532000D02*
X143002000Y-65278000D01*
X143002000Y-65278000D02*
X148844000Y-65278000D01*
X148844000Y-65278000D02*
X148844000Y-65405000D01*
X148844000Y-65405000D02*
X143002000Y-65405000D01*
X151511000Y-64135000D02*
X151511000Y-61595000D01*
X151511000Y-61595000D02*
X148971000Y-61595000D01*
X148971000Y-63119000D02*
X142875000Y-63119000D01*
X142875000Y-63119000D02*
X142875000Y-62611000D01*
X142875000Y-62611000D02*
X148971000Y-62611000D01*
X148971000Y-61595000D02*
X148971000Y-64135000D01*
X151511000Y-59055000D02*
X148971000Y-59055000D01*
X148971000Y-59055000D02*
X148971000Y-61595000D01*
X142875000Y-60071000D02*
X148971000Y-60071000D01*
X142875000Y-60579000D02*
X142875000Y-60071000D01*
X148971000Y-60579000D02*
X142875000Y-60579000D01*
X151511000Y-59055000D02*
X148971000Y-59055000D01*
X151511000Y-61595000D02*
X151511000Y-59055000D01*
X151511000Y-61595000D02*
X148971000Y-61595000D01*
X151511000Y-64135000D02*
X148971000Y-64135000D01*
X148971000Y-64135000D02*
X148971000Y-66675000D01*
X142875000Y-65151000D02*
X148971000Y-65151000D01*
X142875000Y-65659000D02*
X142875000Y-65151000D01*
X148971000Y-65659000D02*
X142875000Y-65659000D01*
X151511000Y-64135000D02*
X148971000Y-64135000D01*
X151511000Y-66675000D02*
X151511000Y-64135000D01*
X151511000Y-66675000D02*
X148971000Y-66675000D01*
X192039240Y-91145360D02*
X192039240Y-92146120D01*
X191538860Y-91645740D02*
X192539620Y-91645740D01*
X196189600Y-93345000D02*
G75*
G03X196189600Y-93345000I-3149600J0D01*
G01*
X207010000Y-72009000D02*
X207010000Y-70612000D01*
X207010000Y-76454000D02*
X207010000Y-77978000D01*
X207772000Y-76073000D02*
X206248000Y-76073000D01*
X207772000Y-76327000D02*
X206248000Y-76327000D01*
X207010000Y-76581000D02*
X206248000Y-76581000D01*
X206248000Y-76581000D02*
X206248000Y-72009000D01*
X206248000Y-72009000D02*
X207772000Y-72009000D01*
X207772000Y-72009000D02*
X207772000Y-76581000D01*
X207772000Y-76581000D02*
X207010000Y-76581000D01*
X164485001Y-80500000D02*
G75*
G03X163685000Y-81300000I1249999J-2050000D01*
G01*
X166984999Y-80500000D02*
G75*
G02X167785000Y-81300000I-1249999J-2050000D01*
G01*
X163696274Y-83824203D02*
G75*
G03X164035000Y-84250000I2038726J1274203D01*
G01*
X167773726Y-83824203D02*
G75*
G02X167435000Y-84250000I-2038726J1274203D01*
G01*
X164035000Y-84250000D02*
X167435000Y-84250000D01*
X192405000Y-66675000D02*
X192405000Y-61595000D01*
X192405000Y-61595000D02*
X194945000Y-61595000D01*
X194945000Y-61595000D02*
X194945000Y-66675000D01*
X194945000Y-66675000D02*
X192405000Y-66675000D01*
X193675000Y-66675000D02*
X193675000Y-67945000D01*
X193675000Y-61595000D02*
X193675000Y-60325000D01*
X196215000Y-66675000D02*
X196215000Y-61595000D01*
X196215000Y-61595000D02*
X198755000Y-61595000D01*
X198755000Y-61595000D02*
X198755000Y-66675000D01*
X198755000Y-66675000D02*
X196215000Y-66675000D01*
X197485000Y-66675000D02*
X197485000Y-67945000D01*
X197485000Y-61595000D02*
X197485000Y-60325000D01*
X202565000Y-71755000D02*
X202565000Y-76835000D01*
X202565000Y-76835000D02*
X200025000Y-76835000D01*
X200025000Y-76835000D02*
X200025000Y-71755000D01*
X200025000Y-71755000D02*
X202565000Y-71755000D01*
X201295000Y-71755000D02*
X201295000Y-70485000D01*
X201295000Y-76835000D02*
X201295000Y-78105000D01*
X167005000Y-90170000D02*
X161925000Y-90170000D01*
X161925000Y-90170000D02*
X161925000Y-87630000D01*
X161925000Y-87630000D02*
X167005000Y-87630000D01*
X167005000Y-87630000D02*
X167005000Y-90170000D01*
X167005000Y-88900000D02*
X168275000Y-88900000D01*
X161925000Y-88900000D02*
X160655000Y-88900000D01*
X161290000Y-74295000D02*
X166370000Y-74295000D01*
X166370000Y-74295000D02*
X166370000Y-76835000D01*
X166370000Y-76835000D02*
X161290000Y-76835000D01*
X161290000Y-76835000D02*
X161290000Y-74295000D01*
X161290000Y-75565000D02*
X160020000Y-75565000D01*
X166370000Y-75565000D02*
X167640000Y-75565000D01*
X166370000Y-69596000D02*
X166370000Y-70993000D01*
X166370000Y-65151000D02*
X166370000Y-63627000D01*
X165608000Y-65532000D02*
X167132000Y-65532000D01*
X165608000Y-65278000D02*
X167132000Y-65278000D01*
X166370000Y-65024000D02*
X167132000Y-65024000D01*
X167132000Y-65024000D02*
X167132000Y-69596000D01*
X167132000Y-69596000D02*
X165608000Y-69596000D01*
X165608000Y-69596000D02*
X165608000Y-65024000D01*
X165608000Y-65024000D02*
X166370000Y-65024000D01*
X163195000Y-69596000D02*
X163195000Y-70993000D01*
X163195000Y-65151000D02*
X163195000Y-63627000D01*
X162433000Y-65532000D02*
X163957000Y-65532000D01*
X162433000Y-65278000D02*
X163957000Y-65278000D01*
X163195000Y-65024000D02*
X163957000Y-65024000D01*
X163957000Y-65024000D02*
X163957000Y-69596000D01*
X163957000Y-69596000D02*
X162433000Y-69596000D01*
X162433000Y-69596000D02*
X162433000Y-65024000D01*
X162433000Y-65024000D02*
X163195000Y-65024000D01*
X170815000Y-64770000D02*
X170815000Y-69850000D01*
X170815000Y-69850000D02*
X168275000Y-69850000D01*
X168275000Y-69850000D02*
X168275000Y-64770000D01*
X168275000Y-64770000D02*
X170815000Y-64770000D01*
X169545000Y-64770000D02*
X169545000Y-63500000D01*
X169545000Y-69850000D02*
X169545000Y-71120000D01*
X180848000Y-61468000D02*
X180848000Y-62738000D01*
X180848000Y-62738000D02*
X178308000Y-62738000D01*
X178308000Y-62738000D02*
X178308000Y-61468000D01*
X182118000Y-61468000D02*
X182118000Y-89408000D01*
X182118000Y-89408000D02*
X177038000Y-89408000D01*
X177038000Y-89408000D02*
X177038000Y-61468000D01*
X177038000Y-61468000D02*
X182118000Y-61468000D01*
X151026905Y-89352381D02*
X151026905Y-88352381D01*
X151407858Y-88352381D01*
X151503096Y-88400000D01*
X151550715Y-88447619D01*
X151598334Y-88542857D01*
X151598334Y-88685714D01*
X151550715Y-88780952D01*
X151503096Y-88828571D01*
X151407858Y-88876190D01*
X151026905Y-88876190D01*
X152550715Y-89352381D02*
X151979286Y-89352381D01*
X152265000Y-89352381D02*
X152265000Y-88352381D01*
X152169762Y-88495238D01*
X152074524Y-88590476D01*
X151979286Y-88638095D01*
X151026905Y-83637381D02*
X151026905Y-82637381D01*
X151407858Y-82637381D01*
X151503096Y-82685000D01*
X151550715Y-82732619D01*
X151598334Y-82827857D01*
X151598334Y-82970714D01*
X151550715Y-83065952D01*
X151503096Y-83113571D01*
X151407858Y-83161190D01*
X151026905Y-83161190D01*
X151931667Y-82637381D02*
X152550715Y-82637381D01*
X152217381Y-83018333D01*
X152360239Y-83018333D01*
X152455477Y-83065952D01*
X152503096Y-83113571D01*
X152550715Y-83208810D01*
X152550715Y-83446905D01*
X152503096Y-83542143D01*
X152455477Y-83589762D01*
X152360239Y-83637381D01*
X152074524Y-83637381D01*
X151979286Y-83589762D01*
X151931667Y-83542143D01*
X151026905Y-68397381D02*
X151026905Y-67397381D01*
X151407858Y-67397381D01*
X151503096Y-67445000D01*
X151550715Y-67492619D01*
X151598334Y-67587857D01*
X151598334Y-67730714D01*
X151550715Y-67825952D01*
X151503096Y-67873571D01*
X151407858Y-67921190D01*
X151026905Y-67921190D01*
X152455477Y-67730714D02*
X152455477Y-68397381D01*
X152217381Y-67349762D02*
X151979286Y-68064048D01*
X152598334Y-68064048D01*
X196048334Y-96877143D02*
X196000715Y-96924762D01*
X195857858Y-96972381D01*
X195762620Y-96972381D01*
X195619762Y-96924762D01*
X195524524Y-96829524D01*
X195476905Y-96734286D01*
X195429286Y-96543810D01*
X195429286Y-96400952D01*
X195476905Y-96210476D01*
X195524524Y-96115238D01*
X195619762Y-96020000D01*
X195762620Y-95972381D01*
X195857858Y-95972381D01*
X196000715Y-96020000D01*
X196048334Y-96067619D01*
X196429286Y-96067619D02*
X196476905Y-96020000D01*
X196572143Y-95972381D01*
X196810239Y-95972381D01*
X196905477Y-96020000D01*
X196953096Y-96067619D01*
X197000715Y-96162857D01*
X197000715Y-96258095D01*
X196953096Y-96400952D01*
X196381667Y-96972381D01*
X197000715Y-96972381D01*
X208557905Y-71572381D02*
X208557905Y-70572381D01*
X208796000Y-70572381D01*
X208938858Y-70620000D01*
X209034096Y-70715238D01*
X209081715Y-70810476D01*
X209129334Y-71000952D01*
X209129334Y-71143810D01*
X209081715Y-71334286D01*
X209034096Y-71429524D01*
X208938858Y-71524762D01*
X208796000Y-71572381D01*
X208557905Y-71572381D01*
X209700762Y-71000952D02*
X209605524Y-70953333D01*
X209557905Y-70905714D01*
X209510286Y-70810476D01*
X209510286Y-70762857D01*
X209557905Y-70667619D01*
X209605524Y-70620000D01*
X209700762Y-70572381D01*
X209891239Y-70572381D01*
X209986477Y-70620000D01*
X210034096Y-70667619D01*
X210081715Y-70762857D01*
X210081715Y-70810476D01*
X210034096Y-70905714D01*
X209986477Y-70953333D01*
X209891239Y-71000952D01*
X209700762Y-71000952D01*
X209605524Y-71048571D01*
X209557905Y-71096190D01*
X209510286Y-71191429D01*
X209510286Y-71381905D01*
X209557905Y-71477143D01*
X209605524Y-71524762D01*
X209700762Y-71572381D01*
X209891239Y-71572381D01*
X209986477Y-71524762D01*
X210034096Y-71477143D01*
X210081715Y-71381905D01*
X210081715Y-71191429D01*
X210034096Y-71096190D01*
X209986477Y-71048571D01*
X209891239Y-71000952D01*
X159924762Y-83097619D02*
X159829524Y-83050000D01*
X159734286Y-82954762D01*
X159591429Y-82811905D01*
X159496190Y-82764286D01*
X159400952Y-82764286D01*
X159448571Y-83002381D02*
X159353333Y-82954762D01*
X159258095Y-82859524D01*
X159210476Y-82669048D01*
X159210476Y-82335714D01*
X159258095Y-82145238D01*
X159353333Y-82050000D01*
X159448571Y-82002381D01*
X159639048Y-82002381D01*
X159734286Y-82050000D01*
X159829524Y-82145238D01*
X159877143Y-82335714D01*
X159877143Y-82669048D01*
X159829524Y-82859524D01*
X159734286Y-82954762D01*
X159639048Y-83002381D01*
X159448571Y-83002381D01*
X160258095Y-82097619D02*
X160305714Y-82050000D01*
X160400952Y-82002381D01*
X160639048Y-82002381D01*
X160734286Y-82050000D01*
X160781905Y-82097619D01*
X160829524Y-82192857D01*
X160829524Y-82288095D01*
X160781905Y-82430952D01*
X160210476Y-83002381D01*
X160829524Y-83002381D01*
X199858334Y-61412381D02*
X199525000Y-60936190D01*
X199286905Y-61412381D02*
X199286905Y-60412381D01*
X199667858Y-60412381D01*
X199763096Y-60460000D01*
X199810715Y-60507619D01*
X199858334Y-60602857D01*
X199858334Y-60745714D01*
X199810715Y-60840952D01*
X199763096Y-60888571D01*
X199667858Y-60936190D01*
X199286905Y-60936190D01*
X200191667Y-60412381D02*
X200858334Y-60412381D01*
X200429762Y-61412381D01*
X191603334Y-61412381D02*
X191270000Y-60936190D01*
X191031905Y-61412381D02*
X191031905Y-60412381D01*
X191412858Y-60412381D01*
X191508096Y-60460000D01*
X191555715Y-60507619D01*
X191603334Y-60602857D01*
X191603334Y-60745714D01*
X191555715Y-60840952D01*
X191508096Y-60888571D01*
X191412858Y-60936190D01*
X191031905Y-60936190D01*
X192174762Y-60840952D02*
X192079524Y-60793333D01*
X192031905Y-60745714D01*
X191984286Y-60650476D01*
X191984286Y-60602857D01*
X192031905Y-60507619D01*
X192079524Y-60460000D01*
X192174762Y-60412381D01*
X192365239Y-60412381D01*
X192460477Y-60460000D01*
X192508096Y-60507619D01*
X192555715Y-60602857D01*
X192555715Y-60650476D01*
X192508096Y-60745714D01*
X192460477Y-60793333D01*
X192365239Y-60840952D01*
X192174762Y-60840952D01*
X192079524Y-60888571D01*
X192031905Y-60936190D01*
X191984286Y-61031429D01*
X191984286Y-61221905D01*
X192031905Y-61317143D01*
X192079524Y-61364762D01*
X192174762Y-61412381D01*
X192365239Y-61412381D01*
X192460477Y-61364762D01*
X192508096Y-61317143D01*
X192555715Y-61221905D01*
X192555715Y-61031429D01*
X192508096Y-60936190D01*
X192460477Y-60888571D01*
X192365239Y-60840952D01*
X197477143Y-78176381D02*
X197143809Y-77700190D01*
X196905714Y-78176381D02*
X196905714Y-77176381D01*
X197286667Y-77176381D01*
X197381905Y-77224000D01*
X197429524Y-77271619D01*
X197477143Y-77366857D01*
X197477143Y-77509714D01*
X197429524Y-77604952D01*
X197381905Y-77652571D01*
X197286667Y-77700190D01*
X196905714Y-77700190D01*
X198429524Y-78176381D02*
X197858095Y-78176381D01*
X198143809Y-78176381D02*
X198143809Y-77176381D01*
X198048571Y-77319238D01*
X197953333Y-77414476D01*
X197858095Y-77462095D01*
X198762857Y-77176381D02*
X199429524Y-77176381D01*
X199000952Y-78176381D01*
X161917143Y-91892381D02*
X161583809Y-91416190D01*
X161345714Y-91892381D02*
X161345714Y-90892381D01*
X161726667Y-90892381D01*
X161821905Y-90940000D01*
X161869524Y-90987619D01*
X161917143Y-91082857D01*
X161917143Y-91225714D01*
X161869524Y-91320952D01*
X161821905Y-91368571D01*
X161726667Y-91416190D01*
X161345714Y-91416190D01*
X162869524Y-91892381D02*
X162298095Y-91892381D01*
X162583809Y-91892381D02*
X162583809Y-90892381D01*
X162488571Y-91035238D01*
X162393333Y-91130476D01*
X162298095Y-91178095D01*
X163440952Y-91320952D02*
X163345714Y-91273333D01*
X163298095Y-91225714D01*
X163250476Y-91130476D01*
X163250476Y-91082857D01*
X163298095Y-90987619D01*
X163345714Y-90940000D01*
X163440952Y-90892381D01*
X163631429Y-90892381D01*
X163726667Y-90940000D01*
X163774286Y-90987619D01*
X163821905Y-91082857D01*
X163821905Y-91130476D01*
X163774286Y-91225714D01*
X163726667Y-91273333D01*
X163631429Y-91320952D01*
X163440952Y-91320952D01*
X163345714Y-91368571D01*
X163298095Y-91416190D01*
X163250476Y-91511429D01*
X163250476Y-91701905D01*
X163298095Y-91797143D01*
X163345714Y-91844762D01*
X163440952Y-91892381D01*
X163631429Y-91892381D01*
X163726667Y-91844762D01*
X163774286Y-91797143D01*
X163821905Y-91701905D01*
X163821905Y-91511429D01*
X163774286Y-91416190D01*
X163726667Y-91368571D01*
X163631429Y-91320952D01*
X160901143Y-77922381D02*
X160567809Y-77446190D01*
X160329714Y-77922381D02*
X160329714Y-76922381D01*
X160710667Y-76922381D01*
X160805905Y-76970000D01*
X160853524Y-77017619D01*
X160901143Y-77112857D01*
X160901143Y-77255714D01*
X160853524Y-77350952D01*
X160805905Y-77398571D01*
X160710667Y-77446190D01*
X160329714Y-77446190D01*
X161853524Y-77922381D02*
X161282095Y-77922381D01*
X161567809Y-77922381D02*
X161567809Y-76922381D01*
X161472571Y-77065238D01*
X161377333Y-77160476D01*
X161282095Y-77208095D01*
X162329714Y-77922381D02*
X162520190Y-77922381D01*
X162615429Y-77874762D01*
X162663048Y-77827143D01*
X162758286Y-77684286D01*
X162805905Y-77493810D01*
X162805905Y-77112857D01*
X162758286Y-77017619D01*
X162710667Y-76970000D01*
X162615429Y-76922381D01*
X162424952Y-76922381D01*
X162329714Y-76970000D01*
X162282095Y-77017619D01*
X162234476Y-77112857D01*
X162234476Y-77350952D01*
X162282095Y-77446190D01*
X162329714Y-77493810D01*
X162424952Y-77541429D01*
X162615429Y-77541429D01*
X162710667Y-77493810D01*
X162758286Y-77446190D01*
X162805905Y-77350952D01*
X165552381Y-70588095D02*
X164552381Y-70588095D01*
X164552381Y-70350000D01*
X164600000Y-70207142D01*
X164695238Y-70111904D01*
X164790476Y-70064285D01*
X164980952Y-70016666D01*
X165123810Y-70016666D01*
X165314286Y-70064285D01*
X165409524Y-70111904D01*
X165504762Y-70207142D01*
X165552381Y-70350000D01*
X165552381Y-70588095D01*
X165552381Y-69064285D02*
X165552381Y-69635714D01*
X165552381Y-69350000D02*
X164552381Y-69350000D01*
X164695238Y-69445238D01*
X164790476Y-69540476D01*
X164838095Y-69635714D01*
X161996381Y-70842095D02*
X160996381Y-70842095D01*
X160996381Y-70604000D01*
X161044000Y-70461142D01*
X161139238Y-70365904D01*
X161234476Y-70318285D01*
X161424952Y-70270666D01*
X161567810Y-70270666D01*
X161758286Y-70318285D01*
X161853524Y-70365904D01*
X161948762Y-70461142D01*
X161996381Y-70604000D01*
X161996381Y-70842095D01*
X161091619Y-69889714D02*
X161044000Y-69842095D01*
X160996381Y-69746857D01*
X160996381Y-69508761D01*
X161044000Y-69413523D01*
X161091619Y-69365904D01*
X161186857Y-69318285D01*
X161282095Y-69318285D01*
X161424952Y-69365904D01*
X161996381Y-69937333D01*
X161996381Y-69318285D01*
X171902381Y-70016666D02*
X171426190Y-70350000D01*
X171902381Y-70588095D02*
X170902381Y-70588095D01*
X170902381Y-70207142D01*
X170950000Y-70111904D01*
X170997619Y-70064285D01*
X171092857Y-70016666D01*
X171235714Y-70016666D01*
X171330952Y-70064285D01*
X171378571Y-70111904D01*
X171426190Y-70207142D01*
X171426190Y-70588095D01*
X171902381Y-69064285D02*
X171902381Y-69635714D01*
X171902381Y-69350000D02*
X170902381Y-69350000D01*
X171045238Y-69445238D01*
X171140476Y-69540476D01*
X171188095Y-69635714D01*
X180848095Y-59396381D02*
X180848095Y-60205905D01*
X180895714Y-60301143D01*
X180943333Y-60348762D01*
X181038571Y-60396381D01*
X181229048Y-60396381D01*
X181324286Y-60348762D01*
X181371905Y-60301143D01*
X181419524Y-60205905D01*
X181419524Y-59396381D01*
X182419524Y-60396381D02*
X181848095Y-60396381D01*
X182133809Y-60396381D02*
X182133809Y-59396381D01*
X182038571Y-59539238D01*
X181943333Y-59634476D01*
X181848095Y-59682095D01*
M02*
